<?xml version="1.0" encoding="utf-8"?>
<!-- Generator: Adobe Illustrator 19.0.0, SVG Export Plug-In . SVG Version: 6.00 Build 0)  -->
<svg version="1.1" id="Layer_1" xmlns="http://www.w3.org/2000/svg" xmlns:xlink="http://www.w3.org/1999/xlink" x="0px" y="0px"
	 viewBox="-207 398.9 180 45" style="enable-background:new -207 398.9 180 45;" xml:space="preserve">
<style type="text/css">
	.st0{fill:url(#Fill-1_2_);}
	.st1{fill:#2A3250;}
	.st2{filter:url(#Adobe_OpacityMaskFilter);}
	.st3{fill:#FFFFFF;}
	.st4{mask:url(#mask-3_1_);fill:#2A3250;}
	.st5{filter:url(#Adobe_OpacityMaskFilter_1_);}
	.st6{mask:url(#mask-5_1_);fill:#2A3250;}
</style>
<title>Logo/Orange</title>
<desc>Created with Sketch.</desc>
<g id="Logo_x2F_rowa">
	
		<linearGradient id="Fill-1_2_" gradientUnits="userSpaceOnUse" x1="-405.3381" y1="825.0741" x2="-405.9721" y2="824.6428" gradientTransform="matrix(25.5 0 0 -22.4952 10153.5 18966.1465)">
		<stop  offset="0" style="stop-color:#FB5916"/>
		<stop  offset="1" style="stop-color:#FDB724"/>
	</linearGradient>
	<path id="Fill-1" class="st0" d="M-188.3,427.2c-0.8,0.2-7-7.9-18.5-24.4c-0.1-0.4-0.2-0.6-0.2-0.6h14.8c7.6,0,13.4,5.8,13.4,12.8
		C-178.7,420.8-182.7,425.5-188.3,427.2z"/>
	<polygon id="Fill-3" class="st1" points="-207,402.2 -207,413.9 -187.9,437.1 -178.7,437.1 	"/>
	<polygon id="Fill-6" class="st1" points="-207,418 -191.2,437.1 -198.3,437.1 -207,426.5 	"/>
</g>
<g id="Group-3" transform="translate(0.000000, 1.000000)">
	<g id="Clip-2">
	</g>
	<defs>
		<filter id="Adobe_OpacityMaskFilter" filterUnits="userSpaceOnUse" x="-163.2" y="410.8" width="22" height="19.1">
			<feColorMatrix  type="matrix" values="1 0 0 0 0  0 1 0 0 0  0 0 1 0 0  0 0 0 1 0"/>
		</filter>
	</defs>
	<mask maskUnits="userSpaceOnUse" x="-163.2" y="410.8" width="22" height="19.1" id="mask-3_1_">
		<g class="st2">
			<polygon id="path-2_1_" class="st3" points="-163.2,410.8 -141.2,410.8 -141.2,429.9 -163.2,429.9 			"/>
		</g>
	</mask>
	<path id="Fill-1_1_" class="st4" d="M-161.2,429.9h-1.7v-4.5c0-3,2.5-5.4,5.5-5.4h10.7c2.1,0,3.8-1.7,3.8-3.8
		c0-2.1-1.7-3.8-3.8-3.8h-16.5v-1.6h16.5c3,0,5.5,2.4,5.5,5.4s-2.5,5.4-5.5,5.4h-10.7c-2.1,0-3.8,1.7-3.8,3.8V429.9z"/>
</g>
<path id="Fill-7" class="st1" d="M-45.1,424.7h-1.7v-10.9c0-1.3,1.1-2.4,2.4-2.4h8.7c3,0,5.5,2.2,5.5,5c0,2.8-2.5,5-5.5,5h-4.5v-1.6
	h4.5c2.1,0,3.8-1.5,3.8-3.4c0-1.9-1.7-3.4-3.8-3.4h-8.7c-0.4,0-0.8,0.3-0.8,0.8V424.7z"/>
<polygon id="Fill-9" class="st1" points="-142,430.2 -146.6,423.6 -144.5,423.6 -139.9,430.2 "/>
<g id="Group-13" transform="translate(23.000000, 0.000000)">
	<g id="Clip-12">
	</g>
	<defs>
		<filter id="Adobe_OpacityMaskFilter_1_" filterUnits="userSpaceOnUse" x="-160.4" y="411.2" width="21.3" height="21.3">
			<feColorMatrix  type="matrix" values="1 0 0 0 0  0 1 0 0 0  0 0 1 0 0  0 0 0 1 0"/>
		</filter>
	</defs>
	<mask maskUnits="userSpaceOnUse" x="-160.4" y="411.2" width="21.3" height="21.3" id="mask-5_1_">
		<g class="st5">
			<polygon id="path-4_1_" class="st3" points="-160.4,411.2 -139.1,411.2 -139.1,432.4 -160.4,432.4 			"/>
		</g>
	</mask>
	<path id="Fill-11" class="st6" d="M-149.7,412.8c-4.9,0-9,4-9,9c0,4.9,4,9,9,9s9-4,9-9C-140.8,416.9-144.8,412.8-149.7,412.8
		 M-149.7,432.4c-5.9,0-10.6-4.8-10.6-10.6c0-5.9,4.8-10.6,10.6-10.6c5.9,0,10.6,4.8,10.6,10.6
		C-139.1,427.7-143.9,432.4-149.7,432.4"/>
</g>
<polygon id="Fill-14" class="st1" points="-103.1,430.2 -104.6,430.2 -116.7,411.4 -114.6,411.4 -103.8,428.3 -93.2,411.4 
	-91.2,411.4 "/>
<polygon id="Fill-16" class="st1" points="-94.5,430.2 -97.8,424.8 -96.8,423.2 -93.7,428.3 -83.2,411.4 -81.2,411.4 -93,430.2 "/>
<polygon id="Fill-18" class="st1" points="-99.1,422.5 -106.7,411.4 -104.5,411.4 -97.8,421.1 "/>
<polygon id="Fill-20" class="st1" points="-64.3,431.3 -74,414.5 -83.7,431.3 -85.6,431.3 -74.8,412.5 -73.3,412.5 -62.3,431.3 "/>
<polygon id="Fill-22" class="st1" points="-81.2,425.5 -66.8,425.5 -66.8,423.8 -81.2,423.8 "/>
<g>
	<path class="st1" d="M-32.3,430.3h-14.5v-1.7h14.5c2,0,3.6-1.6,3.6-3.6c0-2-1.6-3.6-3.6-3.6h-7.9v-1.7h7.9c2.9,0,5.3,2.4,5.3,5.3
		C-27,427.9-29.4,430.3-32.3,430.3z"/>
</g>
</svg>
