<svg enable-background="new -207 398.9 180 45" viewBox="-207 398.9 180 45" xmlns="http://www.w3.org/2000/svg" xmlns:xlink="http://www.w3.org/1999/xlink"><linearGradient id="a" gradientTransform="matrix(25.5 0 0 -22.4952 10153.5 18966.1465)" gradientUnits="userSpaceOnUse" x1="-405.3381" x2="-405.9721" y1="825.0741" y2="824.6428"><stop offset="0" stop-color="#fb5916"/><stop offset="1" stop-color="#fdb724"/></linearGradient><mask id="b" height="19.1" maskUnits="userSpaceOnUse" width="22" x="-163.2" y="410.8"><path d="m-163.2 410.8h22v19.1h-22z" fill="#fff"/></mask><mask id="c" height="21.3" maskUnits="userSpaceOnUse" width="21.3" x="-160.4" y="411.2"><path d="m-160.4 411.2h21.3v21.2h-21.3z" fill="#fff"/></mask><path d="m-188.3 427.2c-.8.2-7-7.9-18.5-24.4-.1-.4-.2-.6-.2-.6h14.8c7.6 0 13.4 5.8 13.4 12.8.1 5.8-3.9 10.5-9.5 12.2z" fill="url(#a)"/><g fill="#2a3250"><path d="m-207 402.2v11.7l19.1 23.2h9.2z"/><path d="m-207 418 15.8 19.1h-7.1l-8.7-10.6z"/><path d="m-161.2 429.9h-1.7v-4.5c0-3 2.5-5.4 5.5-5.4h10.7c2.1 0 3.8-1.7 3.8-3.8s-1.7-3.8-3.8-3.8h-16.5v-1.6h16.5c3 0 5.5 2.4 5.5 5.4s-2.5 5.4-5.5 5.4h-10.7c-2.1 0-3.8 1.7-3.8 3.8z" mask="url(#b)" transform="translate(0 1)"/><path d="m-45.1 424.7h-1.7v-10.9c0-1.3 1.1-2.4 2.4-2.4h8.7c3 0 5.5 2.2 5.5 5s-2.5 5-5.5 5h-4.5v-1.6h4.5c2.1 0 3.8-1.5 3.8-3.4s-1.7-3.4-3.8-3.4h-8.7c-.4 0-.8.3-.8.8v10.9z"/><path d="m-142 430.2-4.6-6.6h2.1l4.6 6.6z"/><path d="m-149.7 412.8c-4.9 0-9 4-9 9 0 4.9 4 9 9 9s9-4 9-9c-.1-4.9-4.1-9-9-9m0 19.6c-5.9 0-10.6-4.8-10.6-10.6 0-5.9 4.8-10.6 10.6-10.6 5.9 0 10.6 4.8 10.6 10.6 0 5.9-4.8 10.6-10.6 10.6" mask="url(#c)" transform="translate(23)"/><path d="m-103.1 430.2h-1.5l-12.1-18.8h2.1l10.8 16.9 10.6-16.9h2z"/><path d="m-94.5 430.2-3.3-5.4 1-1.6 3.1 5.1 10.5-16.9h2l-11.8 18.8z"/><path d="m-99.1 422.5-7.6-11.1h2.2l6.7 9.7z"/><path d="m-64.3 431.3-9.7-16.8-9.7 16.8h-1.9l10.8-18.8h1.5l11 18.8z"/><path d="m-81.2 425.5h14.4v-1.7h-14.4z"/><path d="m-32.3 430.3h-14.5v-1.7h14.5c2 0 3.6-1.6 3.6-3.6s-1.6-3.6-3.6-3.6h-7.9v-1.7h7.9c2.9 0 5.3 2.4 5.3 5.3s-2.4 5.3-5.3 5.3z"/></g></svg>