<svg height="29" viewBox="0 0 205 29" width="205" xmlns="http://www.w3.org/2000/svg" xmlns:xlink="http://www.w3.org/1999/xlink"><linearGradient id="a" x1="50%" x2="50%" y1="0%" y2="100%"><stop offset="0" stop-color="#33eac6"/><stop offset="1" stop-color="#53e7fc"/></linearGradient><g fill="none" fill-rule="evenodd"><path d="m24.3283013 5c-.9834664.00967044-2.0132422.27439878-3.0235193.95979132-1.9242793 1.30792722-8.4015082 10.32198758-11.0058052 10.35099888-2.83828149 0-4.46642408-5.6330322-7.11215579-5.622153-2.11317309 0-3.17341564.8062731-3.18682101 1.8301311v.0410994c.13770967 1.1471561 1.90234325 3.6445476 3.99845497 6.0138058 2.47511796 2.7995928 5.41454904 5.4227001 6.67587213 5.4263265h.0121866c2.9991459-.0326377 15.4929467-12.9015778 19.0222139-15.67578572.1925498-.15230946.2888247-.39890572.291262-.64429317v-.00120881c.0012187-.26110192-.1048056-.51978623-.3156354-.66000763-1.0054024-.66726047-3.0076766-1.99815498-5.252466-2.01870467z" fill="url(#a)"/><g fill="#000" transform="translate(37)"><path d="m2.11810071 5.01479137c0-.53910792.4615152-1.01479137.9833661-1.01479137.55148949 0 .98124905.47568345.98124905 1.01479137v3.33087769h1.99637079c.5218509 0 .92091335.412259.92091335.95136691s-.39906245.95136693-.92091335.95136693h-1.99637079v8.7547626c0 1.3647194.73778921 2.0941007 1.78149101 2.0941007.5218509 0 .95161046.4111655.95161046.9513669 0 .5391079-.42975956.9513669-.95161046.9513669-2.42507183 0-3.74610616-1.6807482-3.74610616-3.9968345v-8.7547626h-1.19718736c-.5218509 0-.92091335-.41225902-.92091335-.95136693s.39906245-.95136691.92091335-.95136691h1.19718736z"/><path d="m16.1877118 10.5310932c.6836599-1.4553786 2.3928098-2.5310932 4.7514366-2.5310932.5811109 0 1.0608516.44185032 1.0608516.9807986 0 .5378573-.4797407.98079861-1.0608516.98079861-3.1448357 0-4.7514366 2.02487449-4.7514366 4.93672269v7.0881518c0 .570587-.478562 1.0135283-1.0950346 1.0135283-.6141152 0-1.0926772-.4429413-1.0926772-1.0135283v-12.84747977c0-.56949597.478562-1.01352826 1.0926772-1.01352826.6164726 0 1.0950346.44403229 1.0950346 1.01352826z"/><path d="m28.0641335 9.01030629v8.24248801c0 2.0532733.6761816 3.8213093 3.9347544 3.8213093 3.2585727 0 3.9358665-1.768036 3.9358665-3.8213093v-8.24248801c0-.56829729.4848934-1.01030629 1.0643188-1.01030629.5482855 0 1.0009268.442009 1.0009268 1.01030629v8.24248801c0 3.0004355-1.0009268 5.7472057-6.0011121 5.7472057-4.9679333 0-5.9988879-2.7467702-5.9988879-5.7472057v-8.24248801c0-.56829729.4515292-1.01030629 1.0309546-1.01030629.5482854 0 1.0331789.442009 1.0331789 1.01030629"/><path d="m50.7449635 9.92889908c-2.8481243 0-4.4195033 1.86353212-4.6170545 4.82339452h8.8085273c0-2.3944954-.8184266-4.82339452-4.1914728-4.82339452m0-1.92889908c5.2401876 0 6.2550365 4.2236239 6.2550365 6.4862385 0 .9644496 0 2.1295872-1.3094825 2.1295872h-9.5626085c0 3.2924312 1.8660125 5.4220183 4.9444251 5.4220183 1.8998785 0 3.0129386-.7327981 3.9295763-1.4300458.1964224-.1341743.3284995-.2006881.590396-.2006881.5237929 0 .9493747.4334862.9493747.9655963 0 .3658257-.1648141.565367-.3612365.7649083-.4899271.4988532-2.1933831 1.8623853-5.1081105 1.8623853-4.3540291 0-7.0723341-2.4277523-7.0723341-8.0172018 0-5.1227065 2.4880167-7.9827982 6.7449635-7.9827982"/><path d="m73.9255438 12.910699s-1.2328261-2.91355207-4.2796836-2.91355207c-2.9507351 0-4.571404 1.95378027-4.571404 6.02567757 0 4.1380885 1.5882555 6.057632 4.571404 6.057632 2.4958301 0 4.2796836-1.4562054 4.2796836-4.6014265zm0-2.681883v-9.16861629c0-.59686162.4526696-1.06019971 1.0372281-1.06019971.5834408 0 1.0372281.46333809 1.0372281 1.06019971v16.41883029c0 4.3697574-2.657897 6.52097-6.3541398 6.52097-4.1824435 0-6.6458602-2.5483595-6.6458602-7.9771755 0-5.4288159 2.3337632-7.94522108 6.5162067-7.94522108 2.0744562 0 3.6627117 1.09215407 4.4093371 2.15121258z"/><path d="m89.7449635 9.92889908c-2.8481243 0-4.4195033 1.86353212-4.6170545 4.82339452h8.8085273c0-2.3944954-.8184266-4.82339452-4.1914728-4.82339452m0-1.92889908c5.2401876 0 6.2550365 4.2236239 6.2550365 6.4862385 0 .9644496 0 2.1295872-1.3094825 2.1295872h-9.5626085c0 3.2924312 1.8660125 5.4220183 4.9444251 5.4220183 1.8998785 0 3.0129386-.7327981 3.9295763-1.4300458.1964224-.1341743.3284995-.2006881.590396-.2006881.5237929 0 .9493747.4334862.9493747.9655963 0 .3658257-.1648141.565367-.3612365.7649083-.4899271.4988532-2.1933831 1.8623853-5.1081105 1.8623853-4.3540291 0-7.0723341-2.4277523-7.0723341-8.0172018 0-5.1227065 2.4880167-7.9827982 6.7449635-7.9827982"/><path d="m115 13.5776056v8.4142101c0 .5671037-.477561 1.0081843-1.092743 1.0081843-.614007 0-1.090391-.4410806-1.090391-1.0081843v-8.0046353c0-2.4900413-.78574-4.1913522-4.09573-4.1913522-3.377035 0-4.536825 1.8903455-4.536825 4.4118925v7.784095c0 .5671037-.478737 1.0081843-1.092744 1.0081843-.614006 0-1.091567-.4410806-1.091567-1.0081843v-12.7945969c0-.56710364.477561-1.00818425 1.091567-1.00818425.614007 0 1.092744.44108061 1.092744 1.00818425v1.0081843c.646941-1.19721885 2.31958-2.2054031 4.536825-2.2054031 5.254344 0 6.278864 2.8985297 6.278864 5.5776056"/><path d="m122.118101 5.01479137c0-.53910792.461515-1.01479137.983366-1.01479137.551489 0 .981249.47568345.981249 1.01479137v3.33087769h1.996371c.521851 0 .920913.412259.920913.95136691s-.399062.95136693-.920913.95136693h-1.996371v8.7547626c0 1.3647194.737789 2.0941007 1.781491 2.0941007.521851 0 .95161.4111655.95161.9513669 0 .5391079-.429759.9513669-.95161.9513669-2.425072 0-3.746106-1.6807482-3.746106-3.9968345v-8.7547626h-1.197188c-.521851 0-.920913-.41225902-.920913-.95136693s.399062-.95136691.920913-.95136691h1.197188z"/><path d="m135.842105 22.0033294c0 .5606272-.368421.9966706-.843012.9966706-.472777 0-.841198-.4360434-.841198-.9966706v-12.6484803c0-.56062721.368421-.9966706.841198-.9966706.474591 0 .843012.43604339.843012.9966706zm-1.842105-17.75749114c0-.90323274.368421-1.24583826.999093-1.24583826.632486 0 1.000907.34260552 1.000907 1.24583826 0 .74750295-.368421 1.18354634-1.000907 1.18354634-.630672 0-.999093-.43604339-.999093-1.18354634z"/><path d="m143.010975 10.2379863c-.572886 0-1.010975-.41259579-1.010975-.9521441 0-.5395483.438089-.95214406 1.010975-.95214406h1.145771v-1.87364441c0-2.8564322 1.71982-5.46005373 5.831117-5.46005373.572886 0 1.012137.41259576 1.012137.95214407 0 .5395483-.439251.95214406-1.012137.95214406-2.628534 0-3.673208 1.49278679-3.673208 3.5557656v1.87364441h3.066623c.574048 0 1.012137.41259576 1.012137.95214406 0 .53954831-.438089.9521441-1.012137.9521441h-3.066623v11.7452989c0 .5723809-.471789 1.0167148-1.079536 1.0167148-.605422 0-1.078373-.4443339-1.078373-1.0167148v-11.7452989z"/><path d="m160.076389 22.031302-5.607639-12.57466722c-.032407-.09499792-.100694-.22166182-.100694-.44332363 0-.56998752.471064-1.01331115 1.075231-1.01331115s.872685.34832571 1.006944.66498544l4.733797 10.92803656 4.733796-10.92803656c.134259-.31665973.403935-.66498544 1.006945-.66498544.604166 0 1.075231.44332363 1.075231 1.01331115 0 .22166181-.068287.34832571-.100694.44332363l-6.614584 14.85570922c-1.377315 3.1032654-3.08912 4.687656-6.277778 4.687656-.570601 0-1.006944-.4127496-1.006944-.9510711 0-.5372296.436343-.9499792 1.006944-.9499792 2.921297 0 3.693287-1.8682925 5.069445-5.0676477"/></g></g></svg>