<svg width="39" height="33" viewBox="0 0 39 33" xmlns="http://www.w3.org/2000/svg"><g fill="none" fill-rule="evenodd"><path d="M0 0h40v40H0z"/><path d="M25.387 8H18a3 3 0 0 0-3 3v11.865c-.652.089-1.32.135-2 .135-7.18 0-13-5.149-13-11.5S5.82 0 13 0c5.8 0 10.713 3.36 12.387 8z" fill="#1B2046"/><path d="M5 20v7.227a1 1 0 0 0 1.638.77l8.673-7.18L5 20z" fill="#1B2046"/><path d="M18 27a4 4 0 0 1-4-4V10a4 4 0 0 1 4-4h17a4 4 0 0 1 4 4v13a4 4 0 0 1-4 4h-.69v3.046a2 2 0 0 1-3.341 1.483L25.963 27H18zm0-18.977c-1.105 0-2 .894-2 1.996v12.973c0 1.102.895 1.996 2 1.996h6.81a5 5 0 0 1 3.351 1.288l4.15 3.747v-3.035a2 2 0 0 1 2-2H35c1.105 0 2-.894 2-1.996V10.019a1.998 1.998 0 0 0-2-1.996H18z" fill="#1B2046" fill-rule="nonzero"/></g></svg>