<svg width="13" height="18" viewBox="0 0 13 18" xmlns="http://www.w3.org/2000/svg"><g fill="#2E3354"><path d="M3 .25h4.35c.622 0 1.225.21 1.712.597l2.65 2.107a2.75 2.75 0 0 1 1.038 2.153V15A2.75 2.75 0 0 1 10 17.75H3A2.75 2.75 0 0 1 .25 15V3A2.75 2.75 0 0 1 3 .25zm0 1.5c-.69 0-1.25.56-1.25 1.25v12c0 .69.56 1.25 1.25 1.25h7c.69 0 1.25-.56 1.25-1.25V5.107a1.25 1.25 0 0 0-.472-.979l-2.65-2.106a1.25 1.25 0 0 0-.778-.272H3z"/><path d="M6.33 1v4.006c0 .967.783 1.75 1.75 1.75H12v-1.5H8.08a.25.25 0 0 1-.25-.25V1h-1.5z"/></g></svg>