<svg width="56" height="56" viewBox="0 0 56 56" xmlns="http://www.w3.org/2000/svg"><defs><linearGradient x1="50%" y1="0%" x2="64.636%" y2="100%" id="a"><stop stop-color="#65BFE8" offset="0%"/><stop stop-color="#7299EC" offset="100%"/></linearGradient></defs><path d="M45 57c-15.464 0-28-12.536-28-28S29.536 1 45 1s28 12.536 28 28-12.536 28-28 28zm-2.459-39.443A1.5 1.5 0 1 0 41 14.984l-14.16 8.485c-1.305.782-.75 2.786.771 2.786H61.38a1.5 1.5 0 1 0 0-3H33.033l9.508-5.698zm3.906 21.641a1.5 1.5 0 1 0 1.542 2.573l14.158-8.485c1.306-.782.75-2.786-.77-2.786H27.61a1.5 1.5 0 0 0 0 3h28.345l-9.508 5.698z" fill="url(#a)" transform="translate(-17 -1)" fill-rule="evenodd"/></svg>