<svg width="26" height="27" viewBox="0 0 26 27" xmlns="http://www.w3.org/2000/svg"><g fill="none" fill-rule="evenodd"><circle fill="#FFF" cx="13" cy="13" r="13"/><path d="M2 20c3.667-1.333 7.333-2 11-2s7.333.667 11 2M2 6c3.667 1.333 7.333 2 11 2s7.333-.667 11-2" stroke="#3C8280" stroke-width="1.5"/><path d="M9 1C6.333 4.984 5 8.976 5 12.976c0 4 1.333 8.008 4 12.024m8-24c2.667 3.984 4 7.976 4 11.976 0 4-1.333 8.008-4 12.024" stroke="#3C8280" stroke-width="1.5" stroke-linecap="round"/><path d="M0 13.5h26M12.97 26.458L13 .417" stroke="#3C8280" stroke-width="1.5"/></g></svg>