<svg xmlns="http://www.w3.org/2000/svg" width="32" height="26" viewBox="0 0 32 26"><path d="M23.46 1l-.99 3.067c3.426 1.528 5.82 4.959 5.82 8.94 0 5.398-4.4 9.79-9.808 9.79a9.823 9.823 0 0 1-1.992-.208l-.99 3.066c.958.224 1.956.345 2.982.345 7.19 0 13.018-5.817 13.018-12.993C31.5 7.591 28.18 2.951 23.46 1m-5.857 2.265c.298 0 .593.016.884.042L19.5.14A13.11 13.11 0 0 0 17.603 0c-5.54 0-10.276 3.457-12.21 8.345H.5v3.266h4.064a13.516 13.516 0 0 0-.103 1.632c0 .306.014.608.034.908H.5v3.265h4.63A13.258 13.258 0 0 0 11.55 25l1.016-3.177a10.019 10.019 0 0 1-3.954-4.407h2.136l1.303-3.265H7.745a10.07 10.07 0 0 1 .092-2.54h5.228l1.304-3.266H8.982c1.702-3.03 4.927-5.08 8.621-5.08" fill="#FFF" fill-rule="evenodd"/></svg>