<svg xmlns="http://www.w3.org/2000/svg" width="30" height="30" viewBox="0 0 30 30"><g fill="none" fill-rule="evenodd"><path fill="#FFF" d="M0 0h30v30H0z"/><path fill="#1963CB" fill-rule="nonzero" d="M18.768 17.878c-.1.34-.148.61-.148.81 0 .659.394.989 1.184.989.869 0 1.619-.335 2.25-1.005.632-.67 1.111-1.549 1.437-2.638.326-1.089.488-2.253.488-3.492 0-2.878-.804-5.097-2.413-6.655-1.609-1.56-3.845-2.339-6.707-2.339-1.915 0-3.702.52-5.36 1.56C7.84 6.145 6.513 7.6 5.516 9.468c-.997 1.869-1.495 3.982-1.495 6.34 0 3.258.829 5.846 2.487 7.765 1.658 1.919 4.087 2.878 7.285 2.878 1.283 0 2.502-.185 3.657-.555 1.155-.37 2.394-.914 3.716-1.634l.978 2.489c-1.461.74-2.833 1.299-4.117 1.678-1.283.38-2.694.57-4.234.57-2.508 0-4.728-.515-6.663-1.544-1.935-1.03-3.44-2.538-4.516-4.527C1.538 20.941 1 18.567 1 15.81c0-2.878.627-5.44 1.88-7.69 1.254-2.247 2.942-3.996 5.064-5.245C10.066 1.624 12.371 1 14.86 1c2.468 0 4.62.47 6.455 1.409 1.836.94 3.243 2.278 4.22 4.017C26.511 8.165 27 10.203 27 12.542c0 1.878-.33 3.552-.992 5.021-.661 1.47-1.58 2.613-2.754 3.433-1.175.82-2.512 1.229-4.013 1.229-.987 0-1.791-.19-2.413-.57a2.69 2.69 0 0 1-1.229-1.619 6.252 6.252 0 0 1-1.895 1.334 5.03 5.03 0 0 1-2.073.465c-1.362 0-2.463-.44-3.302-1.319-.839-.88-1.258-2.128-1.258-3.747 0-1.759.335-3.348 1.006-4.767.672-1.419 1.58-2.528 2.725-3.327a6.476 6.476 0 0 1 3.79-1.2c1.56 0 2.725.53 3.495 1.59l.325-1.11h3.258l-2.902 9.923zM11.94 19c1.314 0 2.53-.838 3.647-2.514L17 11.366c-.686-.91-1.51-1.366-2.47-1.366-.863 0-1.638.3-2.324.9-.686.6-1.22 1.397-1.603 2.39A9.189 9.189 0 0 0 10 16.455c0 .91.162 1.562.485 1.955.324.393.81.59 1.456.59z"/></g></svg>