<svg width="74" height="50" viewBox="0 0 74 50" xmlns="http://www.w3.org/2000/svg"><defs><linearGradient x1="50%" y1="27.173%" x2="64.636%" y2="72.827%" id="a"><stop stop-color="#65BFE8" offset="0%"/><stop stop-color="#7299EC" offset="100%"/></linearGradient></defs><path d="M61 50c-13.807 0-25-11.193-25-25S47.193 0 61 0s25 11.193 25 25-11.193 25-25 25zm-7.512-24.5h-2.053a1 1 0 1 0 0 2h2.494c1.286 3.78 4.934 6.5 9.227 6.5 2.15 0 4.197-.685 5.875-1.93a1 1 0 1 0-1.192-1.607A7.83 7.83 0 0 1 63.156 32c-3.17 0-5.888-1.853-7.078-4.5h5.357a1 1 0 0 0 0-2h-5.932a7.35 7.35 0 0 1 .039-2.25h5.893a1 1 0 0 0 0-2h-5.24c1.246-2.513 3.892-4.25 6.96-4.25a7.85 7.85 0 0 1 4.208 1.21 1 1 0 0 0 1.069-1.69A9.843 9.843 0 0 0 63.156 15c-4.197 0-7.779 2.601-9.138 6.25h-2.583a1 1 0 1 0 0 2h2.083a9.38 9.38 0 0 0-.03 2.25zM52.5.243C40.35 1.945 31 12.381 31 25c0 12.62 9.35 23.055 21.5 24.757-1.144.16-2.312.243-3.5.243-13.807 0-25-11.193-25-25S35.193 0 49 0c1.188 0 2.356.083 3.5.243zm-12 0C28.35 1.945 19 12.381 19 25c0 12.62 9.35 23.055 21.5 24.757-1.144.16-2.312.243-3.5.243-13.807 0-25-11.193-25-25S23.193 0 37 0c1.188 0 2.356.083 3.5.243z" fill="url(#a)" transform="translate(-12)" fill-rule="evenodd"/></svg>