<svg xmlns="http://www.w3.org/2000/svg" width="177" height="62" viewBox="0 0 177 62"><g fill="none" fill-rule="evenodd"><path fill="#013E44" d="M0 0h70v62H0z"/><g fill-rule="nonzero"><path fill="#FFF" d="M22.056 36.238h-6.578L14.158 40h-3.52l5.94-16.874h4.356L26.896 40h-3.52l-1.32-3.762zM21 33.224L18.756 26.8l-2.244 6.424H21zm14.146.484h-2.2V40h-3.498V23.324h6.512c4.092 0 6.138 1.738 6.138 5.214 0 2.552-1.137 4.165-3.41 4.84L42.802 40h-3.916l-3.74-6.292zm-2.2-2.97h3.014c1.73 0 2.596-.733 2.596-2.2 0-.777-.213-1.346-.638-1.705-.425-.36-1.078-.539-1.958-.539h-3.014v4.444zm22.748 5.5h-6.578L47.796 40h-3.52l5.94-16.874h4.356L60.534 40h-3.52l-1.32-3.762zm-1.056-3.014L52.394 26.8l-2.244 6.424h4.488z"/><path fill="#003E45" d="M82.996 40.374c-2.273 0-4.283-.41-6.028-1.232v-3.19c1.833.968 3.843 1.452 6.028 1.452.939 0 1.632-.176 2.079-.528a1.68 1.68 0 0 0 .671-1.386c0-.557-.202-.975-.605-1.254-.403-.279-1.074-.55-2.013-.814l-1.496-.418c-.865-.25-1.617-.539-2.255-.869-.638-.33-1.177-.818-1.617-1.463-.44-.645-.66-1.481-.66-2.508 0-1.687.51-2.966 1.529-3.839 1.02-.873 2.453-1.309 4.301-1.309 1.1 0 2.072.099 2.915.297.843.198 1.698.502 2.563.913v3.08c-1.628-.88-3.454-1.32-5.478-1.32-.85 0-1.456.161-1.815.484-.36.323-.539.785-.539 1.386.015.572.194.986.539 1.243.345.257.986.517 1.925.781l1.518.418c.924.25 1.716.55 2.376.902.66.352 1.206.862 1.639 1.529.433.667.649 1.536.649 2.607-.015 1.57-.572 2.801-1.672 3.696s-2.618 1.342-4.554 1.342zM98.88 27.35c1.613 0 2.82.414 3.619 1.243.8.829 1.199 2.152 1.199 3.971V40h-3.388v-7.436c0-.733-.161-1.28-.484-1.639-.323-.36-.88-.539-1.672-.539-.939 0-1.877.389-2.816 1.166V40H91.95V21.388h3.388v7.304c1.085-.895 2.266-1.342 3.542-1.342zm8.008-5.104h3.388v3.322h-3.388v-3.322zm0 5.368h3.388V40h-3.388V27.614zm13.464-.352c1.1 0 2.075.246 2.926.737.85.491 1.514 1.228 1.991 2.211.477.983.715 2.185.715 3.608s-.238 2.625-.715 3.608c-.477.983-1.14 1.72-1.991 2.211-.85.491-1.826.737-2.926.737-1.159 0-2.288-.418-3.388-1.254v6.028h-3.388V27.614h3.388v.924c1.085-.85 2.215-1.276 3.388-1.276zm-.704 10.098c.924 0 1.624-.3 2.101-.902.477-.601.715-1.481.715-2.64 0-1.144-.238-2.017-.715-2.618s-1.177-.902-2.101-.902c-.88 0-1.775.33-2.684.99v5.06c.924.675 1.819 1.012 2.684 1.012zm15.664-10.098c1.1 0 2.075.246 2.926.737.85.491 1.514 1.228 1.991 2.211.477.983.715 2.185.715 3.608s-.238 2.625-.715 3.608c-.477.983-1.14 1.72-1.991 2.211-.85.491-1.826.737-2.926.737-1.159 0-2.288-.418-3.388-1.254v6.028h-3.388V27.614h3.388v.924c1.085-.85 2.215-1.276 3.388-1.276zm-.704 10.098c.924 0 1.624-.3 2.101-.902.477-.601.715-1.481.715-2.64 0-1.144-.238-2.017-.715-2.618s-1.177-.902-2.101-.902c-.88 0-1.775.33-2.684.99v5.06c.924.675 1.819 1.012 2.684 1.012zm8.888-15.114h3.388v3.322h-3.388v-3.322zm0 5.368h3.388V40h-3.388V27.614zm13.618-.264c1.613 0 2.82.414 3.619 1.243.8.829 1.199 2.152 1.199 3.971V40h-3.388v-7.436c0-.733-.161-1.28-.484-1.639-.323-.36-.88-.539-1.672-.539-.939 0-1.877.389-2.816 1.166V40h-3.388V27.614h3.388v1.078c1.085-.895 2.266-1.342 3.542-1.342zm19.58.264v12.408c0 1.643-.48 2.97-1.441 3.982-.96 1.012-2.365 1.518-4.213 1.518-1.13 0-2.12-.059-2.97-.176a10.845 10.845 0 0 1-2.42-.616v-3.146a10.91 10.91 0 0 0 2.266.704c.763.147 1.452.22 2.068.22 1.217 0 2.075-.227 2.574-.682.499-.455.748-1.13.748-2.024V38.68c-1.1.836-2.23 1.254-3.388 1.254-1.716 0-3.087-.52-4.114-1.562-1.027-1.041-1.54-2.633-1.54-4.774 0-1.364.242-2.523.726-3.476.484-.953 1.151-1.668 2.002-2.145.85-.477 1.826-.715 2.926-.715 1.173 0 2.303.425 3.388 1.276v-.924h3.388zM170.6 36.92c.85 0 1.753-.337 2.706-1.012v-4.62c-.924-.66-1.826-.99-2.706-.99-.924 0-1.624.286-2.101.858-.477.572-.715 1.386-.715 2.442 0 1.173.231 2.02.693 2.541.462.52 1.17.781 2.123.781z"/></g></g></svg>