<svg width="24" height="36" viewBox="0 0 24 36" xmlns="http://www.w3.org/2000/svg"><g fill="none" fill-rule="evenodd"><path d="M-6 0h40v40H-6z"/><path d="M18.377 4.277l-.403-1.39A4 4 0 0 0 13.017.16l-.026.007L.04 4c.477 1.264.892 1.844 1.245 1.738L13.56 2.084l.014-.004a2 2 0 0 1 2.478 1.364l.403 1.39a1 1 0 1 0 1.921-.557z" fill="#1B2046" fill-rule="nonzero"/><path d="M5.807 18.844H8.3a8.772 8.772 0 0 0 2.366 5.208l-.063.042a6.256 6.256 0 0 1-4.797-5.25zm-.023-1.5a6.255 6.255 0 0 1 4.82-5.438l.063.042a8.774 8.774 0 0 0-2.382 5.396H5.784zm12.41 1.5a6.255 6.255 0 0 1-5.067 5.305 7.206 7.206 0 0 1-.148-.097 8.772 8.772 0 0 0 2.366-5.208h2.848zm.022-1.5h-2.855a8.774 8.774 0 0 0-2.382-5.396l.148-.097a6.254 6.254 0 0 1 5.089 5.493zm-8.407 1.5h4.028a7.27 7.27 0 0 1-2.014 4.247 7.27 7.27 0 0 1-2.014-4.247zm-.02-1.5a7.273 7.273 0 0 1 2.034-4.435 7.273 7.273 0 0 1 2.033 4.435H9.79zM0 4h20a4 4 0 0 1 4 4v24a4 4 0 0 1-4 4H0V4zm6 25a1 1 0 0 0 0 2h12a1 1 0 0 0 0-2H6zm6-3.25a7.75 7.75 0 1 0 0-15.5 7.75 7.75 0 0 0 0 15.5z" fill="#1B2046"/></g></svg>