<svg viewBox="0 0 1372.38 579.92" xmlns="http://www.w3.org/2000/svg"><g transform="translate(-7.11 -29.52)"><path d="m25.8 29.62h60.84l-18.8 60.63h-5.73l5.89-19.25h-49.21l-5.94 19.25h-5.74zm43.64 36.95 10.08-32.49h-49.26l-10.09 32.49z"/><path d="m149.92 57.65-9.67 32.6-62.25.1 18.3-60.41h55.42l-8.49 27.71zm-13.49 27.92 7.11-23.25h-52l-6.9 23.25zm-36.52-51.06-7 23.14h45l7.09-23.14z"/><path d="m175.61 29.73h61l-2.87 9-4.88-.1 1.38-4.46-51.07.1-15.93 51.5 51-.11 1.38-4.46h5l-2.76 9h-61z"/><path d="m295.8 30.26 14.12 14.54-12 38.44-12.1 7h-53.73l18.69-60zm-12.43 55.1 9.88-5.63 10.51-34.08-10.41-10.65-38.35.35-15.69 50.22z"/><path d="m328.71 29.62h60.84l-2.76 8.92h-5l1.49-4.54-51.07.22-7.54 24.1 45.45.1-1.38 4.36-45.45.1-7.11 23 51-.21 1.49-4.56 4.88.1-2.76 9h-60.98z"/><path d="m403.88 29.73 60 .1-2.88 8.92-4.88.11 1.38-4.46-50.12-.11-7.64 24.21 40 .11-1.39 4.46-40-.11-8.5 27.39h-4.85z"/><path d="m477.67 29.73h60.94l-2.76 8.92h-5l1.38-4.46-51 .1-16 51.6 51-.1 4.55-14.79h-25.7l1.38-4.35 30.69.1-7.33 23.47h-60.94z"/><path d="m610.07 29.73h5l-18.8 60.52h-4.88l5.94-19.33h-50.76l-6.05 19.33h-5l18.79-60.52h5l-11.31 36.73h50.76z"/><path d="m671.43 34-19 .11-15.72 51.78 18.9-.21-1.38 4.57h-43.64l1.41-4.46h19.74l15.61-51.71h-19.77l1.42-4.56h43.75z"/><path d="m722.92 30.15 26.44.11-16 50.43-32.28 9.56h-31.67l8.07-25.38 4.89.11-6.69 20.91h24.1l29.73-8.6 13.49-42.47-21.45-.21z"/><path d="m815.19 29.73h5.09l-6.47 20.81-20.28 6.46 13.59 15.08-5.63 18.16h-5l5.31-17.31-12.94-14.22-36.74 10.83-6.47 20.71h-5l18.8-60.52h5l-10.74 34.61 56.06-16.88z"/><path d="m817.84 90.25 18.47-60.2 6.06.1-17 55.11h52.87l1.6-5.1h6.16l-3.07 10.09z"/><path d="m54.89 188.77 50.65-31.1-20 60h-5.17l16.78-48.94-39.71 24.4-6.69 24.21h-5.2l6.26-22.73-21.34-33.33-16.24 56.37h-5.23l17.54-61.05h7.54z"/><path d="m160.32 217.65h-10.62l-24.2-55.74h-3.4l-17.63 55.74h-5l19-60.3 10.62-.11 23.46 55.85 4.14.1 17.52-55.74h5z"/><path d="m193.23 157h60.63l-18.79 60.62h-60.63zm38.33 56.06 16-51.71-50.86.21-16 51.71z"/><path d="m266.6 156.6 62.22-.1-12.74 41.72-55.85.11-5.23 19.32h-5zm45.76 37.06 10.4-32.7-52.45.21-8.81 32.7z"/><path d="m344.1 157.24h60.52l-19 60.41-27.71-.1-1.17 3.5h15.82l-1.38 4.46-20.71-.21 2.45-7.75-27.82.1zm38.12 55.85 16.14-51.5h-50.75l-16.25 51.6z"/><path d="m418.42 157 60.74-.11-10.16 33.37h-46l41.09 15.93-3.5 11.46h-5l2.66-8.91-45.13-17.84-8.29 26.86-5-.11zm46.58 28.8 7.44-24.31-50.44.1-7.4 24.21z"/><path d="m491.9 157h60.83l-4.88 15.71h-5l3.5-11.15-50.85-.1-4.25 13.69 49.48 20.92-6.69 21.55h-60.94l4.9-15.68h5l-3.4 11.15 50.86.1 4.46-14.75-49.37-21z"/><path d="m564.2 157.56 63.92-1.17-1.38 4.61-26.23.53-16.77 56.16h-5.63l16.56-55.74-27.07.43-1.49 4.88-4.78-.1z"/><path d="m700.53 157.24h5.09l-18.9 60.41h-61.15l18.9-60.51h5l-17.52 56.05h51.17z"/><path d="m775.38 156.92 5 .11-9.77 31.85-52.34 28.77h-17.43l18.69-60.65 5-.11-17.31 56.27 10-.1 49.27-27.18z"/><path d="m868 157.56 5.31.11-14.76 46-38.22 14-8.28-.1 2.86-9-24.73 8.71-14.13.42 19.54-60.83h5.31l-18.05 56.06 7.75-.43 26.12-9.66 14.76-45.65h5.2l-18.16 56.27 35.64-13.46z"/><path d="m942.39 157.77h4.88l-6.27 19.86-29.84 16 18.37 19.43-2.87 9h-4.88l2.76-8.6-24.31-24.1-22.93 12.26-5.2 16h-5l6-19 22.51-11.89-13.91-14.65 4.67-14.87 5 .21-4.37 13.84 20 19.64 30-15.72z"/><path d="m1014.8 156.92h5.52l-7.43 24.63-35.68 19.86-4.78 16.14-5.52.1 5.84-18.9-22.51-21.75 6-20.17 5.41.1-5.62 19 20.86 20.07 31.32-17.2z"/><path d="m1042 157 60.94.11-7.86 25.16-61.37 17.94-4 12.85 50.75.1 3.5-11.25h5.1l-4.88 15.71h-60.84l6.48-20.91 61.18-18.02 5.2-17.1h-50.64l-1.38 4.46h-5z"/><path d="m26.22 283.38h60.84l-20 61.68h-5.69l6.16-20h-48.21l-5.94 20h-5.74zm42.69 37.26 10.93-32.81h-49.16l-10 32.81z"/><path d="m99.59 284.33h60.94l-2.86 9h-5l1.38-4.46-50.75.1-7.54 24.42 55.84-.1-9.76 31.74h-60.84zm45.65 33.45h-50.85l-7 22.72h50.86z"/><path d="m229.23 312.57-10.09 32.49h-62.22l18.79-60.3h57l-8.71 27.81zm-13.81 27.82 7.33-23.46-52 .31-7.22 23.15zm-36-51-7.33 23.14 46.61-.1 7.22-23.26z"/><path d="m253.22 284.44h61.47l-2.86 9.34h-4.89l1.49-5h-51.81l-17.52 56.28h-4.88z"/><path d="m364.28 343.15 3.5.21-2.65 8.71-4.89.11 2.13-7.12h-65.09l1.28-4h6.58l17.52-56.7 59.88-.32zm-3.82-2.76 16-51.92-50.44.43-16 52z"/><path d="m400.69 284.44h60.84l-2.76 8.92-5-.11 1.38-4.57-50.86.22-7.53 24.31 45.33-.11-1.27 4.36-45.44.32-7.12 22.93 51-.21 1.38-4.57h5l-2.76 9.13h-60.98z"/><path d="m475.76 284.33h60.83l-2.76 9-5.41.1 1.49-4.56h-50.65l-7.43 24.31h45.34l-1.28 4.35-45.44.22-7 22.93 50.55-.08 1.38-4.56 5.41-.11-2.86 9.13h-60.86zm43.53-8.17-30.79.42-1.38 4.78 30.68-.36z"/><path d="m624.51 283.8 4.88-.11-18.39 61.48h-5.09l5.52-17.52h-30.24l-5.42 17.52h-5.2l5.43-17.52h-30.7l-5 17.52h-5l17.62-60.84 5-.11-11.35 39.18 30.9-.63 11.36-38.77h5.1l-11.47 38.76h30.54z"/><path d="m693.09 312.68-10.19 32.38-61.48-.21 3-9.34h5.09l-1.51 4.77 51.28.22 7.33-23.26-56.38-.31 1.48-4.57 50.86.21 7.33-23.36-45.75-.21-1.49 4.67h-5.1l2.87-9.23 56.17.21-8.82 28z"/><path d="m757.86 345.06-4.86-.06 11-35.57-60.95 32.17-1.06 3.5h-4.88l18.79-60.52h4.88l-15.78 50.82 60.95-32.17 5.84-18.79 5-.11z"/><path d="m838.23 283.59h5.1l-6.8 22.72-23.53 6.48 21.77-.54-10 32.81h-4.89l8.6-28.13-27.39.53-25.16 6.16-6.27 21.44h-5l18-61.47h4.88l-10.19 35.14 55.31-15.92z"/><path d="m861.8 284 60.2-.21-18.26 61.26h-4.89l17-56.59-50.64.21-16.88 56.38h-9.67l1.34-4.45h4.78z"/><path d="m964 317 47.78-30.79-17.05 58.79-5.2.1 14.12-48.1-37.16 24.52-7.22 23.57h-5.21l6.8-22.29-21.24-34-16.62 56.26h-5.2l18.2-61.06h7.33z"/><path d="m1083.81 284.65h5l-18.9 60.41-4.91-.06 6-19.22h-50.75l-6.05 19.32h-5l18.8-60.45h5l-11.36 36.63h50.75z"/><path d="m1103 284.54h60.52l-18.79 60.52h-60.52zm38.22 56 16-51.6-50.76.1-16 51.6z"/><path d="m27.5 410.68h60.84l-19.34 61.79h-5l18-57.23h-50.79l-17.73 57.23h-5z"/><path d="m100.33 411.1 62.22.85-12.55 41.05h-56.25l-5.1 19.43h-5zm45.55 37.59 9.77-32.6h-51.81l-8.84 32.49z"/><path d="m177.31 412h60.94l-2.87 9h-5l1.38-4.46h-50.84l-16.14 51.46h51.07l1.38-4.56h5l-2.76 9h-61.06z"/><path d="m249.61 411.74h63.92l-1.28 4.56h-26.33l-16.56 56.17h-5.63l16.46-56.17h-27.19l-1.38 5.63h-4.78z"/><path d="m385.94 411.85 4.88-.11-18.9 60.73h-60.73l2.76-9h5l-1.39 4.53h50.86l4.58-14.64h-55.86l12.86-41.62h5l-11.49 37.16h50.85z"/><path d="m403.88 411.53h77.72l-13.38 42.47h-36.42l-5.73 18.36-5.42.11 5.74-18.37-35.89-.42zm-6.69 37.69h30.81l10.51-33.13h-30.81zm67.1 0 10.62-33.13h-31.11l-10.51 33.13z"/><path d="m551.56 411.42h4.89l-6 19.64-29.45 16.57 18.79 19-2.79 9.13-5 .11 2.76-8.6-24.92-23.57-22.62 12.53-4.88 16.13-5 .11 5.84-19.11 22.2-12.36-14.23-14.33 4.57-15.29h4.88l-4.14 14.33 20.28 19.29 29.62-16.35z"/><path d="m613.78 470.77 3.5.11-2.86 9-4.89-.1 2.23-7.33h-59.35l18.9-60.73h5l-17.52 56.48 50.75-.1 17.63-56.49h5z"/><path d="m702.22 412h5l-18.05 60.52h-4.88l5.63-18.79h-55.86l12.42-41.73h5l-11.15 37.27h51z"/><path d="m796.18 412.06h5l-18.9 60.41h-76.34l18.79-60.41h5l-17.42 55.94h30.69l17.41-55.95h5.1l-17.42 55.95h30.57z"/><path d="m886.22 411.85 5 .1-22.62 72.31h-5l3.72-11.79h-71.46l18.9-60.41h5l-17.52 56.06 30.26-.22 17.41-55.9 5 .11-17.53 55.89 31.32-.11z"/><path d="m904.48 412.06 11.89-.11-9.56 29.84 56-.11-9.67 30.79h-60.87l17.41-55.63h-6.8zm45.12 55.84 6.8-21.65-51 .1-6.79 21.55z"/><path d="m982.94 438.39 55.84-.11-10.61 34.08-60.84.11 18.9-60.73h5zm41.51 29.51 7.86-25h-50.75l-7.86 25.1zm34.83-56.16h5l-18.9 60.62h-5z"/><path d="m1081.89 412.27-8.89 28.67 56-.43-10 32h-60.83l18.79-60.2zm33.55 55.53 7.11-22.62-51.07.53-7 22.41z"/><path d="m1213.44 411.63-18.58 60.73-60.73.11 4.56-15 5 .21-3.19 10.32 50.75-.21 7-22.72h-45.25l1.38-4.46h45.23l7.43-24.63-50.75.31-3.51 11.58h-5l4.89-16.14z"/><path d="m1252.08 411.74h53l-18.79 60.73h-52.89l7.22-23.46-20.07-.32-7.33 23.89-5-.11 18.69-60.62 5 .1-10 32.28 20.07.32zm30.58 56.16 16-51.81-43 .21-15.92 51.82z"/><path d="m1318.76 411.85 60.73.21-18.9 60.41-5 .11 8.6-27.29-26.22-.43-29.84 16.67-3.39 11.05-5-.11 4.45-14.12 24.85-13.27-20.71-.11zm46.82 28.87 7.54-24.2-50.75-.11-7.64 24.21z"/><path d="m34.19 539.15 6.69.1-19 60.63h-5l17.63-56.27-20.18 11.39 2-6.27z"/><path d="m67.63 539.57 60.84-.1-9.66 30.47-61.81 19.32-2 6.37 55.84-.21-1.48 4.46h-60.73l4.37-13.88 62-19.43 7.12-22.72-50.86.1-6.37 20.39h-5.1z"/><path d="m188.24 563.78-24.24 6.05 22.19.11-9.35 29.94h-52.62l4.57-14.65h4.88l-3.18 10.19 42.89-.11 6.58-21-37.48.11 1.38-4.36 40.46-9.45 5.2-17h-42.9l-3.5 11.39-5 .21 4.88-15.74 52.77-.11z"/><path d="m248.76 539 11.89-.42-18.26 61.15h-6l5.84-19.53-51 .1 6.9-23.36zm-50.54 36.21 45.34-.11 9.66-32.38-50.75 18z"/><path d="m290.38 539.36 61.16-.11-2.54 8.07h-5.2l1.06-3.5h-50.55l-6.8 22.08 55.85-.1-10.72 34.08h-60.84l4.46-14.55 5.2.21-3.08 10 50.54-.21 7.75-25-55.85.21z"/><path d="m366.72 539.25 60.73.11-4.78 15.64-5-.11 3.4-11h-50.74l-6.9 22 55.74.1-10.51 34-60.73-.11zm46.08 31h-50.75l-7.75 25h50.85z"/><path d="m433.82 539.36 63 .53-8.28 25.59-49.73 17.62-5.42 16.78h-5.2l6.37-19.88 48.84-17.6 5.73-17.95-51.07-.45-2.22 6.9-5.74-.21z"/><path d="m510.58 539.36h60.94l-7.43 23.46-23.46 12.85 15.5 12.74-3.61 11.47h-60.94l5.94-19 22.83-12.63-15-12.53zm40.24 50.22-25.59-18.9-23.67 13.32-3.56 11.52h50.8zm9.24-29.94 5.09-16-51.07.31-3.18 10.41 25 18.9z"/><path d="m627.48 600-60.84-.1 4.88-15.61h5.1l-3.5 11.15 50.75-.11 6.79-22-55.74-.1 10.41-33.76 60.94-.11zm-46.08-31.13 50.6.13 7.75-25.16-50.75.1z"/><path d="m661.24 539.15 60.94.1-18.79 60.63h-60.84zm-12.32 56.37 51-.21 12-38.86-61.36 33.77zm66.89-51.81-51.07.21-12.31 40.14 61.26-33.77z"/><path d="m728.34 599.77-10.62.11 1.49-4.67 10.51-.22z"/><path d="m747.87 606-6.26 3.39 6.79-20.28 5.21-.1z"/><path d="m771.66 589.05-5-.11 3.08-10 5 .11zm7.85-25.27h-5l3.08-9.88h5.1z"/><path d="m798.83 592.34-6.15 3.66 5.41-18.69 5.2-.32zm8.71-30.69-4.88-.1 2.86-9.88 5-.1z"/><path d="m852.56 579.49-27.18.11 1.38-4.46h27.18z"/><path d="m868.06 600h-4.57l2.51-8.4h4.57zm4.25-13.91h-4.57l14-46.6 4.56-.11z"/><path d="m901.93 539.36 38.22-1.06-7.54 26.7-21.13 12-2.12 7.75-5.31.11 2.95-10.86 20.92-11.47 5.54-19.53-27.39.64-1.91 7-5.52.32zm5.94 51.28-5.41.11-2.55 9.13 5.42-.11z"/></g></svg>