<svg xmlns="http://www.w3.org/2000/svg" viewBox="0 0 1302.02 739.23"><defs><style>.cls-1{fill:#06ff8b;}.cls-2{fill:#781dff;}.cls-3{fill:#cf00a2;}.cls-4{fill:#0082ff;}</style></defs><g id="Layer_2" data-name="Layer 2"><g id="Layer_1-2" data-name="Layer 1"><path class="cls-1" d="M69.6,114.61l48-.63L105,155.74l-31.85.34L67.6,175.26l-15.29.16Zm22.06,36.81,9.74-32.59-17.2.29L74.46,151.5Z"/><path class="cls-1" d="M182,113.61l15.07-.17-18.25,60.62-70.49.76,18.24-60.72,15-.16-16.91,56.24,40.56-.44Z"/><path class="cls-1" d="M236.72,173.22l-10.61.33-9.85-36.85-.22-1.06-11.48,38.24-15,.06,18.14-60.61,10.61-.33,9.76,38.65,2.05-6.6,9.64-32.17,15-.17Z"/><path class="cls-1" d="M294.14,112.18l15-.16-5.73,19.39-19.55,8.92,12.38,15.36-5,17.15-15.08.06,7.48-25.46-4.09-4.84-12.7,4.17-7.89,26.42-15,.16,18.14-60.82,14.86-.16-8.5,28.55,19.25-6.9Z"/><path class="cls-1" d="M357.74,111.39l47.13-.72-9.62,33.44-31.21.45,26.5,15.64-3.38,11.39-15,.27L377,155.67l-15.16-7.06-6.75,23.54-15,.16Zm23.87,28.52,7.07-24.29-17.2.08-7,24.39Z"/><path class="cls-1" d="M412.84,110.9l64.86-.8L459.57,171l-64.87.7Zm33.09,55.71,15.47-51.88-35,.38-15.48,52Z"/><path class="cls-1" d="M486.73,110.42l61.68-.66-2.76,9.16-15.08.16,1.44-4.69-31.64.34-15.69,51.56,31.64-.34,1.44-4.37,14.86-.16-2.66,9-61.58.67Z"/><path class="cls-1" d="M589.18,109l15-.16-5.74,19.38-19.55,8.92,12.38,15.37-5,17.15-15.07.06,7.47-25.46-4.08-4.84-12.7,4.17L554,170l-15,.16,18.14-60.83,14.86-.16-8.51,28.55,19.25-6.89Z"/><path class="cls-2" d="M711.16,156.57l15.07-.06-18,60.72-15,.06L699,197.9l-17.1.18L676,217.58l-15,.16,18-60.72,15-.16L683.2,193.61l17.1-.18Z"/><path class="cls-2" d="M734.09,156.43l47-.51L763.2,216.74l-16.14.18,5.63-19.28-14.86.16-5.64,19.28-16.13.17ZM754,193.16l9.74-32.7-14.87.16-9.73,32.71Z"/><path class="cls-2" d="M789.61,155.62l47.14-.72-9.62,33.44-31.22.44,26.5,15.65L819,215.82l-15,.27,4.82-16.19-15.15-7.06L787,216.38l-15,.16Zm23.88,28.52,7.06-24.29-17.2.08-7,24.39Z"/><path class="cls-2" d="M875.29,155.44l14.28,14.39L878,208.5l-11.92,7-40.13.43,18-60.19ZM861.56,210.8l2.66-8.84,11.58-38.88-2.9-2.84-14.65.26-15.06,50.39Z"/><path class="cls-2" d="M937.5,154.13l65.39-.92-9.72,33.34-49.48.64,44.87,15.44-3.38,11.51-15.07.26,3.79-12.57L941.61,191l-6.86,23.76-15,.16Zm42,28.32,7.17-24.39-35.56.38-7.07,24.39Z"/><path class="cls-2" d="M1010.12,153.34l65.18-.81-18.14,60.94-65.18.7Zm33.41,55.71L1059,157.17l-35.35.38-15.48,52Z"/><path class="cls-2" d="M1084.33,153l65.61-.82-2.66,9.16-15.08.17,1.33-4.58-35.46.38-15.79,51.56,35.56-.38,1.44-4.37,15-.16-2.77,8.95-65.61.7Z"/><path class="cls-2" d="M1209.81,151.19l15-.16-6,20.45-21.06,6.28,14.6,15.45-5.53,18.64-15,.06,7.68-26.1-6.33-6.41-29.64,8.5-7.27,24.5-15,.16,18.13-60.83,15-.16L1165,183l38.74-11.36Z"/><path class="cls-2" d="M70.49,259.28,134,258.6l-2.56,9.16H120.27l1.34-4.47-41.41.44L64.73,315.62l41.61-.66,1.23-4.58,11-.12L116,319.31l-63.6.69Z"/><path class="cls-2" d="M125,319.22l17.82-60.4,12.53-.13-16.18,55.38,42.89-.46,1.54-5.11,12.1-.13-3,10.12Z"/><path class="cls-2" d="M219.86,257.56l63.49-.68L265.21,317.7l-11.78.13,5.74-19.28-39.81.43-5.74,19.28-11.89.13Zm40.43,36.52,9.95-32.6-39.82.43-9.73,32.6Z"/><path class="cls-2" d="M295.77,256.75l63.49-.8-4.71,15.88-10.94.11,3.28-11.18-41.52.24-5.32,18.21,47.74,15.84-6.56,21.83-63.49.69,4.71-15.77,10.94-.33-3.17,11.19,41.3-.13,5.74-19.07-47.63-15.94Z"/><path class="cls-2" d="M368.81,256l63.49-.79L427.59,271l-10.94.12L419.93,260l-41.51.24-5.33,18.21,47.74,15.84-6.56,21.83-63.49.69L355.5,301l10.93-.33-3.17,11.19,41.3-.13,5.74-19.07-47.63-15.94Z"/><path class="cls-2" d="M484.16,259.07l-16.88.28-15.16,52,16.88-.39-1.33,4.58-45.44.49,1.33-4.47,17.63-.2,15.15-51.87-17.73.19,1.33-4.58,45.44-.49Z"/><path class="cls-2" d="M492.92,254.72l63.49-.68-2.56,9.16H542.71l1.33-4.47-41.41.45-15.47,51.87,41.62-.66,1.22-4.58,11-.12-2.66,9.06-63.6.68Z"/><path class="cls-2" d="M567,253.82l63.49-.79L625.8,268.9l-10.94.12,3.28-11.19-41.51.24-5.33,18.21L619,292.12,612.48,314l-63.49.68,4.72-15.76,10.93-.33-3.17,11.18,41.3-.13,5.74-19.07-47.63-15.94Z"/><path class="cls-2" d="M711.33,282.32l57.45,0-12.2,41.11-45.75.6-5.42,19.28-10.94.12Zm35.22,36.78,10-32.49-35.24.59-9.21,32.38Z"/><path class="cls-2" d="M776.84,282l56.16-.82-18,60.93-56.16.6Zm28.53,55.65,15.36-51.77-34.4.26L771.07,338Z"/><path class="cls-2" d="M885.12,280l11.15-.12-6.34,22.37-21.8,7.13,20-.64-9.42,32.7-10.94.12,8-28.12-18.89.74-16.21,3.14-7,24.61-10.82.11,16.75-61.44,11.14-.12L842,312.13l36.74-9.32Z"/><path class="cls-3" d="M978.54,289.38l43.14-.47-2.08,6.94-15.23.17L993.7,333.2l-8.46.09,11.64-40.57-11.23.12-1,3.93-8,.09Z"/><path class="cls-3" d="M1056.45,332.6l-7.92.08,6.38-21.29-29.82,16.16-1.63,5.33-7.84.08,13.21-44h7.92l-10.32,34.1,29.82-16.16,5.49-18.13,8-.32Z"/><path class="cls-3" d="M1111.33,287.48l8.07-.09-4.59,16.2L1099,308.76l14.45-.46L1106.66,332l-7.92.09,5.78-20.37-13.69.53-11.74,2.28-5,17.82-7.84.09,12.13-44.51,8.08-.08-6.29,22.9,26.61-6.74Z"/><path class="cls-3" d="M1147,312.86l-19.45,1,.81-3.32,19.45-.9Z"/><path class="cls-3" d="M1165.46,287.36l43.14-.47-2.08,6.95-15.22.16-10.68,37.18-8.45.09,11.63-40.57-11.22.12-1,3.93-8,.09Z"/><path class="cls-3" d="M1215.52,287l40.68-.59-13.06,44.13-40.68.44Zm20.66,40.31,11.13-37.5-24.91.19-11.06,37.5Z"/><path class="cls-3" d="M1293.94,285.51l8.08-.09-4.6,16.2-15.78,5.17,14.45-.46L1289.27,330l-7.92.09,5.78-20.37-13.68.53-11.74,2.28-5,17.82-7.84.09L1261,285.94l8.07-.08-6.29,22.9,26.62-6.74Z"/><path class="cls-1" d="M651.8,545.1l44.17-.48-16.44,53.75-4.74,0,5.12-17.17-34.23.28-5,17.26-4.74.05Zm29.27,32.23,9-28.74-34.68.28-8.53,28.74Z"/><path class="cls-1" d="M710.85,544.55l43.61-.84-15.13,54-4.28,0,14.06-50-35.24.66-14,49.72-8.46.09,1.16-4.11,4.28,0Z"/><path class="cls-1" d="M771.31,544.55l-7.55,25.1,39.9-.71-8.35,28.18-44.26.48,15.88-53Zm20.8,48.6,6-20-35.61.66-5.93,19.78Z"/><path class="cls-1" d="M822.36,543.72l46.59-.5-1.08,4-18.41.2L835.3,596.69l-4.93,0,14.07-49.26-18.79.2-1.16,4.67-4.55,0Z"/><path class="cls-1" d="M883.64,543l44.26-.48-2.33,7.84-4.37.14,1.16-4-35.52.48-6.28,21.27,30.6-.33-1.08,3.83-30.68.52-6,20.15,35.52-.48,1.17-4,4.46,0-2.42,8-44.27.48Z"/><path class="cls-1" d="M939.33,541.9l44.93,0-10.68,36.39-40.08.43-4.47,17-4.37,0Zm30.77,32.5,8.15-28.64-36,.39-7.69,28.63Z"/><path class="cls-1" d="M1037.45,541.49l4.37,0-15.89,53.1-4.28,0,4.94-16.88-35.43.38-5,17-4.37.05,15.8-53.19,4.37,0-9.61,32.29,35.43-.38Z"/><path class="cls-1" d="M1053.07,540.77l44.17-.48L1080.8,594l-4.74.05,5.11-17.17-34.22.28-5,17.26-4.74,0ZM1082.34,573l9-28.74-34.69.28-8.52,28.74Z"/><path class="cls-1" d="M1106.92,540.65l46.59-.5-1.08,4-18.41.2-14.16,49.26-4.93,0L1129,544.41l-18.79.2-1.15,4.67-4.56.05Z"/><path class="cls-1" d="M1196.2,592.7l-4.27,0,7.63-25.57-42.35,23.06-.9,3-4.28,0,15.89-53.19,4.28-.14-13.38,44.88,42.35-23.05,6.55-22.21,4.37-.14Z"/><path class="cls-1" d="M1262.67,563.71l-8.53,28.46-45.1.48,15.89-53.09,40.54-.44-7.36,24.54Zm-11.83,24.49,6.2-20.62-36.18.58-6.1,20.34Zm-22.61-44.58-6.11,20.43,31.34-.34,6.1-20.52Z"/><path class="cls-2" d="M855.82,701l2.2.11-1.66,5.75-6.9.07,1.33-4.63-31.87.41,1.73-5.68,4.28,0,10.12-34.06,32.15-.56ZM849,699.43l10.05-34-17.52.32-10.2,33.93Z"/><path class="cls-2" d="M895.36,701.89,888,702l4.93-16.47-21.47,11.75L870,702.17l-7.38.08,11.93-39.46h7.24l-9.12,30.53,21.47-11.76,5.66-18.9,7.59-.29Z"/><path class="cls-2" d="M937.51,662l7.31-.08L933.1,701.35l-7.38.08,3.66-12.53-17.87.26-3.73,12.6-7.45.08L912,662.38l7.52-.08-7.12,24,17.87-.26Z"/><path class="cls-2" d="M950,662l32.49-.42-11.78,39.53-32.57.35Zm14.26,36.21,10-33.64-17.8.19-10.12,33.58Z"/><path class="cls-2" d="M1015.67,679.55l-6.33,21.11-33.25.29,1.79-6.09,7.59-.15-1,3.18,18.22-.12,4.6-15.16-25.74.14.93-3,22.15-.1,4.6-15.37-14.63.16-.93,3-7.52,0,1.8-6,29.8-.25-5.53,18.28Z"/><path class="cls-2" d="M1026.92,660.8l32.84-.36-12.12,39.81h-7.8l3.8-12.66-16.91.18L1023,700.52l-7.86.08Zm17.58,23.89,6.6-21.33-17.18.19-6.32,21.32Z"/><path class="cls-2" d="M1093.71,678.71l-6.4,21.11-33.46.36,11.78-39.39,30.16-.25-5.47,18.13Zm-13.06,18.22,4.6-15.23-18.42.26-4.53,15.1Zm-8.36-33.17L1067.83,679l14.77-.3,4.59-15.16Z"/><path class="cls-2" d="M1103.51,660h33.26l-8,26.92-25.39.28-3.66,12.46-7.45.08Zm18.61,24,6.4-21-18.21.27-6.06,21.11Z"/><path class="cls-2" d="M1144.06,677.06l25.32-.27-6.59,22.29-32.84.28,11.72-39.53,7.45-.15Zm12.07,19.12,4.93-16.34-17.87.2-4.93,16.26Zm21.9-36.74h7.45l-11.79,39.46-7.52.08Z"/><path class="cls-2" d="M169.33,6.86l52.82-.57-2.24,7.34-5.17.06,1.08-3.63-42.4.46L160.79,52.38l42.5-.46,1.07-3.71,5.25-.06-2.16,7.34-52.9.57Z"/><path class="cls-2" d="M230.23,6l55.49-.59-1.33,4.74-22.54.24L249.26,55l-5.68.06L256.34,9.54l-22.2.24-1.06,4.57-4.91.05Z"/><path class="cls-2" d="M297.75,4.36l52.81-.57L334.85,54.11l-5.94.07,4.9-16.31-40,.43-4.64,16.31-5.85.06ZM334.8,34.24l8.75-26.76-40.95.44-7.71,26.75Z"/><path class="cls-2" d="M397.47,53.35l-5.08.14L402,21.82l-49.5,28.32-1,3.79-5.08.06L360,4,365.19,4,353.93,45l49.42-28.15,4.16-13.29,5.08-.06ZM389.71,4,372,4.16l1-4L390.78,0Z"/><path class="cls-2" d="M427.73,3.82,480,3.34,465.51,52.7l-5.07.06L474,7.1l-42.24.37L418.2,53.21l-9,.1,1.33-4.4,3.87,0Z"/><path class="cls-3" d="M113.72,556.56l14.17,14.29-11.47,38.56-11.92,7.24-48.73.53L73.7,556.89Zm-10.34,55.22,2.9-7.36,11-37.07-6-6-27.29.51L69,612.36Z"/><path class="cls-3" d="M179.16,559.57l-14.33.26-15.15,52,14.22-.37L162.57,616l-40.34.44,1.33-4.48,15.18-.16,15-51.87-15.18.16,1.33-4.58,40.34-.43Z"/><path class="cls-3" d="M227,615.12l-10.62.22-19.45-41.42-1-4.13-13.84,46-10.93.12,18.14-60.61,10.61-.22,18.86,44.81h1.69l13.64-45.17,10.93-.12Z"/><path class="cls-3" d="M253.22,554.42l55.63-.6-18.14,60.82-55.63.6Zm27.89,56,15.47-51.77-33.76,0-15.48,51.77Z"/><path class="cls-3" d="M318.51,553.71l55.73-.71-4.71,15.88L358.6,569,362,557.81l-33.87.15-5.22,17.79,39.78,16.88-6.35,21.3-55.95.61,4.71-15.77,10.94-.22-3.17,11.18,33.76-.15,5.74-19.07-39.79-16.88Z"/><path class="cls-3" d="M382.63,553l55.63-.6-18.13,60.82-55.64.6Zm27.89,56L426,557.23l-33.77,0L376.76,609Z"/><path class="cls-3" d="M492.2,552.05h10.93l-18.24,60.5-56.06.61,18.35-60.72,10.94-.12L441.2,608.56l34-.48Z"/><path class="cls-3" d="M510.88,551.64l55.73-.82-9.72,33.24-37.8.51,33.19,15.68-3.48,11.61H537.86l4.1-14-30.28-11.67L504,612.44l-10.94,0Zm36.72,28.27,7.17-24.39-34.18.47-7.28,24.39Z"/><path class="cls-2" d="M431,673.34l63.73-1.15-3,10.39-22.66.47-16.77,55.41-12.66-.1,18.33-60.25-16.68.41-1.55,5.31-12-.1Z"/><path class="cls-2" d="M521.68,709.75l-29.1,1.47,1.22-5,29.09-1.34Z"/><path class="cls-2" d="M551.29,671.69l60.39-.88-10.54,36-40.95.56,36,17-3.78,12.58-11.85,0L585,721.84l-32.81-12.65-8.32,28.39-11.86,0Zm39.8,30.64,7.76-26.43-37,.51-7.88,26.43Z"/><path class="cls-2" d="M624,670.79,684.5,670l-2.77,9.69-12.08.25,1.45-5-36.81.63-7.66,26.43,37.27-.52-1.44,4.74-37.38.74L617.75,732l36.93-.62,1.44-5.08,12,.1-3,9.81-60.62.65Z"/><path class="cls-2" d="M742.49,670.21l11.73-.25-7.11,23.55-27.22,15.14,16.78,19.14-3.44,11.43H721.49l3.22-10.5-20.59-21.06-11.78,6.45-6.67,21.82-11.85.13L680,715.29,702.81,703l-14-16.53,4.89-16.16,11.85-.13L701,685.38l17.45,18.33,16.48-8.57Z"/><path class="cls-3" d="M846.77,22.07l76-.94L912.17,57.27l-58.8.64,53.7,16.8L903.4,87.17l-5.41.06L900.66,78,841.41,59l-8.55,29.09L827.45,88ZM908.1,52.6l7.77-26.44L850.73,27,843.08,53.3Z"/><path class="cls-3" d="M994.54,86.19l-11.5.12L946.48,26.4l-4.14.05L923.89,87l-5.41.06,20-65.59,11.5-.24,35.52,60,5.07.07L1009,20.89l5.41-.05Z"/><path class="cls-3" d="M1092.09,49.81l-10.43,35.44-77.91,1,19.55-65.59,69.85-.75-9,30Zm-14.51,30.42,7.55-25.4-66.86.72L1010.83,81Zm-50.31-54.7-7.45,25L1078.4,50,1086,24.9Z"/><path class="cls-2" d="M12.71,416.63l49.73-.54-2,6.46-8.66.1,1.07-3.42-32.41.35L8.58,458.93,0,459Z"/><path class="cls-2" d="M67.69,415.89l49.58-.09-8.49,28.65-40.4.51-3.86,13.37-8.65.09Zm33.06,25.47,6.94-22.5-32,.42L69.3,441.85Z"/><path class="cls-2" d="M129.1,414.78l48.91-.45-13.3,42.92-9.47,0,4.29-13.81-29.52.4-4.14,13.8-9.4.11Zm31.29,25.56,7.3-22.94-30,.4-6.71,22.94Z"/><path class="cls-2" d="M230,414.43l8.65,0-12.71,42.17-8.51,0,4-13.36-31.6.34L185.73,457l-8.66.09,12.72-42.24,8.73-.1-7.79,25.69,31.59-.34Z"/><path class="cls-2" d="M303.08,414.68l8.74,0-13.55,41.22-8.65.09,3.94-11.73-16.8.18-3.57,11.73-8.73.09L268,444.51l-17.16.19-3.58,11.73-8.73.09,13.31-42,8.66,0-8.66,27.33,17.09-.55,8.59-26.67,8.73,0-8.66,26.59,16.79-.18Z"/><path class="cls-4" d="M420.55,413.79l-12.37.13L389.6,477.65l12.36-.26L400.33,483l-42.44.46,1.64-5.49,13.67-.15,18.45-63.6-13.54.14,1.63-5.61,42.44-.46Z"/><path class="cls-4" d="M466.33,481.9l-13,.53-12.62-47.51-.68-2.73-15.07,50.68-16.41.05,22.24-74.32,13-.4,12.65,50.51,1.91-4.71L472,407.89l16.4-.18Z"/><path class="cls-4" d="M497.55,407.88l61.58-.67L555.48,419l-19.14.08-19,62.69-17.31.06,20.74-68.32-9,.23-1.76,6-16.14,0Z"/><path class="cls-4" d="M609.77,406.67l16.4-.05L603.8,480.81l-58.06.63L568.24,407l16.27,0-20.74,68.83,25.39-.27Z"/><path class="cls-4" d="M675.82,411l-12.36.13L644.88,474.9l12.36-.27-1.63,5.62-42.44.46,1.63-5.49,13.67-.14,18.46-63.61-13.54.15L635,406l42.44-.46Z"/><path class="cls-4" d="M685.4,405.85l61.58-.66-3.65,11.75-19.14.08-19,62.7-17.32,0,20.75-68.31-9,.22-1.76,6-16.15.05Z"/><path class="cls-4" d="M796,409.73l-12.37.14L765,473.6l12.37-.26L775.76,479l-42.44.45,1.64-5.48,13.67-.15,18.45-63.6-13.54.14,1.63-5.61,42.44-.46Z"/><path class="cls-4" d="M806.34,404.41l57.67-.49-22.38,74.32-57.67.63ZM827,472.93l19-63.48-25,.14-19,63.48Z"/><path class="cls-4" d="M909.06,477.13l-13,.53-12.62-47.52-.68-2.72-15.08,50.67-16.4.05,22.24-74.32,13-.4,12.66,50.51,1.9-4.71,13.69-46.11,16.41-.17Z"/><path class="cls-4" d="M985.2,402.35l58.71-.63-15.46,51.07-41.14.32-6.91,23.64-16.53.17Zm28.74,45.26,12.06-40.1-25.38.28-11.68,40Z"/><path class="cls-4" d="M1055.36,401.6,1113,401l-22,74.58-17.44.19,6.91-23.51-23,.25-6.9,23.51-17.32.19Zm26.79,45.14,12.07-40.09-23,.25L1059.11,447Z"/><path class="cls-4" d="M1124.1,400.72l57.79-.75-12.05,40.88-37.62.54,31.84,19.18-4.14,14.11-16.28.17,5.53-18.93-21.73-10.84-8.79,30.17-16.4.18Zm31.1,34.95,8.79-29.78-25.12.27-8.67,29.78Z"/><path class="cls-4" d="M1232.14,399.69l16.54-.18-7.17,23.77-23.7,11.19,15,18.46-6.15,21.16-16.41.18,8.67-29.78-6.46-7.22-18.29,6.31-9,30.83-16.4.17,22.11-74.45,16.27-.17-10.8,36.44,28.13-10.72Z"/><path class="cls-2" d="M571,33,562.08,70l-7.34.46,2.82-11.67-7.41.44L547.32,71l-7.34.46,8.95-37.07Zm-8,3.19-7.41.45-4.81,19.93,7.41-.44Z"/><path class="cls-2" d="M597.88,32l-9,37.07-7.12.39,2.83-11.74-7.8.48L574,70l-7.14.45,8.95-37.08,7.14-.44-5.43,22.48L585.3,55l5.44-22.55Z"/><path class="cls-2" d="M625.54,31.18l-8.95,37.07-7.08.46,2.42-10-9.16,5.81-1.14,4.72-7.08.46,9-37.07,7.08-.46-6.89,28.56,9.15-5.81,5.58-23.1Z"/><path class="cls-2" d="M663.21,30l-10,41.42-7.28.48,7.9-32.73-6,3.82L642.18,66.5l-7.27.48,5.27-21.86-3.35-7.06-7,29.13-7.28.47,9-37.13,9.23-.4,5.36,10.76Z"/><path class="cls-2" d="M685.41,48.31l-8.95,37.07-7.34.46,2.82-11.67-7.4.45L661.7,86.35l-7.33.47,8.94-37.08Zm-8,3.19L670,52,665.2,71.88l7.4-.44Z"/><path class="cls-2" d="M706.93,37l-1.41,5.84-6.33.38-7.54,31.23L684.1,75l8.23-34.09-2.27.17-.72,3-7.33.4,1.41-5.83Z"/><path class="cls-2" d="M727.22,45l-9,37.08-7.08.46,2.41-10-9.15,5.81-1.14,4.71-7.08.47,8.95-37.08,7.08-.46-6.9,28.57,9.16-5.81,5.58-23.1Z"/><path class="cls-2" d="M755.13,43.7l-1.33,5.53-7.14.45.66-2.74-7.87.47L731.82,79l7.9-.59.66-2.74,7.14-.44-1.34,5.53L724,82.2l9-37.08Z"/></g></g></svg>