<svg xmlns="http://www.w3.org/2000/svg" viewBox="0 0 1372.38 579.92"><g id="Layer_2" data-name="Layer 2"><g id="Layer_1-2" data-name="Layer 1"><path d="M25.8,29.62H86.64L67.84,90.25H62.11L68,71H18.79L12.85,90.25H7.11ZM69.44,66.57,79.52,34.08H30.26L20.17,66.57Z" transform="translate(-7.11 -29.52)"/><path d="M149.92,57.65l-9.67,32.6L78,90.35,96.3,29.94h55.42l-8.49,27.71ZM136.43,85.57l7.11-23.25h-52l-6.9,23.25ZM99.91,34.51l-7,23.14h45L145,34.51Z" transform="translate(-7.11 -29.52)"/><path d="M175.61,29.73h61l-2.87,9-4.88-.1,1.38-4.46-51.07.1-15.93,51.5,51-.11,1.38-4.46h5l-2.76,9h-61Z" transform="translate(-7.11 -29.52)"/><path d="M295.8,30.26,309.92,44.8l-12,38.44-12.1,7H232.09l18.69-60Zm-12.43,55.1,9.88-5.63,10.51-34.08L293.35,35,255,35.35,239.31,85.57Z" transform="translate(-7.11 -29.52)"/><path d="M328.71,29.62h60.84l-2.76,8.92h-5L383.28,34l-51.07.22-7.54,24.1,45.45.1-1.38,4.36-45.45.1-7.11,23,51-.21,1.49-4.56,4.88.1-2.76,9H309.81Z" transform="translate(-7.11 -29.52)"/><path d="M403.88,29.73l60,.1L461,38.75l-4.88.11,1.38-4.46-50.12-.11L399.74,58.5l40,.11-1.39,4.46-40-.11-8.5,27.39H385Z" transform="translate(-7.11 -29.52)"/><path d="M477.67,29.73h60.94l-2.76,8.92h-5l1.38-4.46-51,.1-16,51.6,51-.1L520.78,71h-25.7l1.38-4.35,30.69.1-7.33,23.47H458.88Z" transform="translate(-7.11 -29.52)"/><path d="M610.07,29.73h5l-18.8,60.52h-4.88l5.94-19.33H546.57l-6.05,19.33h-5l18.79-60.52h5L548,66.46h50.76Z" transform="translate(-7.11 -29.52)"/><path d="M671.43,34l-19,.11L636.71,85.89l18.9-.21-1.38,4.57H610.59L612,85.79h19.74l15.61-51.71H627.58L629,29.52h43.75Z" transform="translate(-7.11 -29.52)"/><path d="M722.92,30.15l26.44.11-16,50.43-32.28,9.56H669.41l8.07-25.38,4.89.11-6.69,20.91h24.1l29.73-8.6L743,34.82l-21.45-.21Z" transform="translate(-7.11 -29.52)"/><path d="M815.19,29.73h5.09l-6.47,20.81L793.53,57l13.59,15.08-5.63,18.16h-5l5.31-17.31L788.86,58.71,752.12,69.54l-6.47,20.71h-5l18.8-60.52h5L753.71,64.34l56.06-16.88Z" transform="translate(-7.11 -29.52)"/><path d="M817.84,90.25l18.47-60.2,6.06.1-17,55.11h52.87l1.6-5.1H886l-3.07,10.09Z" transform="translate(-7.11 -29.52)"/><path d="M54.89,188.77l50.65-31.1-20,60H80.37l16.78-48.94L57.44,193.13l-6.69,24.21h-5.2l6.26-22.73L30.47,161.28,14.23,217.65H9L26.54,156.6h7.54Z" transform="translate(-7.11 -29.52)"/><path d="M160.32,217.65H149.7l-24.2-55.74h-3.4l-17.63,55.74h-5l19-60.3,10.62-.11,23.46,55.85,4.14.1,17.52-55.74h5Z" transform="translate(-7.11 -29.52)"/><path d="M193.23,157h60.63l-18.79,60.62H174.44Zm38.33,56.06,16-51.71-50.86.21-16,51.71Z" transform="translate(-7.11 -29.52)"/><path d="M266.6,156.6l62.22-.1-12.74,41.72-55.85.11L255,217.65h-5Zm45.76,37.06,10.4-32.7-52.45.21-8.81,32.7Z" transform="translate(-7.11 -29.52)"/><path d="M344.1,157.24h60.52l-19,60.41-27.71-.1-1.17,3.5h15.82l-1.38,4.46-20.71-.21,2.45-7.75-27.82.1Zm38.12,55.85,16.14-51.5H347.61l-16.25,51.6Z" transform="translate(-7.11 -29.52)"/><path d="M418.42,157l60.74-.11L469,190.26H423l41.09,15.93-3.5,11.46h-5l2.66-8.91L413.12,190.9l-8.29,26.86-5-.11ZM465,185.8l7.44-24.31-50.44.1L414.6,185.8Z" transform="translate(-7.11 -29.52)"/><path d="M491.9,157h60.83l-4.88,15.71h-5l3.5-11.15-50.85-.1-4.25,13.69,49.48,20.92-6.69,21.55H473.1L478,201.94h5l-3.4,11.15,50.86.1,4.46-14.75-49.37-21Z" transform="translate(-7.11 -29.52)"/><path d="M564.2,157.56l63.92-1.17L626.74,161l-26.23.53-16.77,56.16h-5.63l16.56-55.74-27.07.43-1.49,4.88-4.78-.1Z" transform="translate(-7.11 -29.52)"/><path d="M700.53,157.24h5.09l-18.9,60.41H625.57l18.9-60.51h5l-17.52,56.05h51.17Z" transform="translate(-7.11 -29.52)"/><path d="M775.38,156.92l5,.11-9.77,31.85-52.34,28.77H700.84L719.53,157l5-.11-17.31,56.27,10-.1,49.27-27.18Z" transform="translate(-7.11 -29.52)"/><path d="M868,157.56l5.31.11-14.76,46-38.22,14-8.28-.1,2.86-9-24.73,8.71-14.13.42,19.54-60.83h5.31l-18.05,56.06,7.75-.43,26.12-9.66,14.76-45.65h5.2l-18.16,56.27L854.16,200Z" transform="translate(-7.11 -29.52)"/><path d="M942.39,157.77h4.88L941,177.63l-29.84,16,18.37,19.43-2.87,9h-4.88l2.76-8.6-24.31-24.1L877.3,201.62l-5.2,16h-5l6-19,22.51-11.89-13.91-14.65,4.67-14.87,5,.21L887,171.26l20,19.64,30-15.72Z" transform="translate(-7.11 -29.52)"/><path d="M1014.8,156.92h5.52l-7.43,24.63-35.68,19.86-4.78,16.14-5.52.1,5.84-18.9L950.24,177l6-20.17,5.41.1-5.62,19L976.89,196l31.32-17.2Z" transform="translate(-7.11 -29.52)"/><path d="M1042,157l60.94.11-7.86,25.16-61.37,17.94-4,12.85,50.75.1,3.5-11.25h5.1l-4.88,15.71h-60.84l6.48-20.91L1091,178.69l5.2-17.1h-50.64l-1.38,4.46h-5Z" transform="translate(-7.11 -29.52)"/><path d="M26.22,283.38H87.06l-20,61.68H61.37l6.16-20H19.32l-5.94,20H7.64Zm42.69,37.26,10.93-32.81H30.68l-10,32.81Z" transform="translate(-7.11 -29.52)"/><path d="M99.59,284.33h60.94l-2.86,9h-5l1.38-4.46-50.75.1-7.54,24.42,55.84-.1-9.76,31.74H81Zm45.65,33.45H94.39l-7,22.72h50.86Z" transform="translate(-7.11 -29.52)"/><path d="M229.23,312.57l-10.09,32.49H156.92l18.79-60.3h57L224,312.57Zm-13.81,27.82,7.33-23.46-52,.31-7.22,23.15Zm-36-51-7.33,23.14,46.61-.1,7.22-23.26Z" transform="translate(-7.11 -29.52)"/><path d="M253.22,284.44h61.47l-2.86,9.34h-4.89l1.49-5H256.62L239.1,345.06h-4.88Z" transform="translate(-7.11 -29.52)"/><path d="M364.28,343.15l3.5.21-2.65,8.71-4.89.11,2.13-7.12H297.28l1.28-4h6.58l17.52-56.7,59.88-.32Zm-3.82-2.76,16-51.92-50.44.43-16,52Z" transform="translate(-7.11 -29.52)"/><path d="M400.69,284.44h60.84l-2.76,8.92-5-.11,1.38-4.57-50.86.22-7.53,24.31,45.33-.11-1.27,4.36-45.44.32-7.12,22.93,51-.21,1.38-4.57h5l-2.76,9.13H381.9Z" transform="translate(-7.11 -29.52)"/><path d="M475.76,284.33h60.83l-2.76,9-5.41.1,1.49-4.56H479.26l-7.43,24.31h45.34l-1.28,4.35-45.44.22-7,22.93L514,340.6l1.38-4.56,5.41-.11-2.86,9.13H457.07Zm43.53-8.17-30.79.42-1.38,4.78L517.8,281Z" transform="translate(-7.11 -29.52)"/><path d="M624.51,283.8l4.88-.11L611,345.17h-5.09l5.52-17.52H581.19l-5.42,17.52h-5.2L576,327.65H545.3l-5,17.52h-5l17.62-60.84,5-.11L546.57,323.4l30.9-.63L588.83,284h5.1l-11.47,38.76H613Z" transform="translate(-7.11 -29.52)"/><path d="M693.09,312.68,682.9,345.06l-61.48-.21,3-9.34h5.09L628,340.28l51.28.22,7.33-23.26-56.38-.31,1.48-4.57,50.86.21,7.33-23.36L644.15,289l-1.49,4.67h-5.1l2.87-9.23,56.17.21-8.82,28Z" transform="translate(-7.11 -29.52)"/><path d="M757.86,345.06,753,345l11-35.57-60.95,32.17-1.06,3.5h-4.88l18.79-60.52h4.88L705,335.4l60.95-32.17,5.84-18.79,5-.11Z" transform="translate(-7.11 -29.52)"/><path d="M838.23,283.59h5.1l-6.8,22.72L813,312.79l21.77-.54-10,32.81h-4.89l8.6-28.13-27.39.53-25.16,6.16-6.27,21.44h-5l18-61.47h4.88l-10.19,35.14,55.31-15.92Z" transform="translate(-7.11 -29.52)"/><path d="M861.8,284l60.2-.21-18.26,61.26h-4.89l17-56.59-50.64.21-16.88,56.38h-9.67L840,340.6h4.78Z" transform="translate(-7.11 -29.52)"/><path d="M964,317l47.78-30.79L994.73,345l-5.2.1L1003.65,297l-37.16,24.52-7.22,23.57h-5.21l6.8-22.29-21.24-34L923,345.06h-5.2L936,284h7.33Z" transform="translate(-7.11 -29.52)"/><path d="M1083.81,284.65h5l-18.9,60.41L1065,345l6-19.22h-50.75l-6.05,19.32h-5L1028,284.65h5l-11.36,36.63h50.75Z" transform="translate(-7.11 -29.52)"/><path d="M1103,284.54h60.52l-18.79,60.52h-60.52Zm38.22,56,16-51.6-50.76.1-16,51.6Z" transform="translate(-7.11 -29.52)"/><path d="M27.5,410.68H88.34L69,472.47H64l18-57.23H31.21L13.48,472.47h-5Z" transform="translate(-7.11 -29.52)"/><path d="M100.33,411.1l62.22.85L150,453H93.75l-5.1,19.43h-5Zm45.55,37.59,9.77-32.6H103.84L95,448.58Z" transform="translate(-7.11 -29.52)"/><path d="M177.31,412h60.94l-2.87,9h-5l1.38-4.46H180.92L164.78,468h51.07l1.38-4.56h5l-2.76,9H158.41Z" transform="translate(-7.11 -29.52)"/><path d="M249.61,411.74h63.92l-1.28,4.56H285.92l-16.56,56.17h-5.63l16.46-56.17H253l-1.38,5.63h-4.78Z" transform="translate(-7.11 -29.52)"/><path d="M385.94,411.85l4.88-.11-18.9,60.73H311.19l2.76-9h5L317.56,468h50.86L373,453.36H317.14L330,411.74h5L323.51,448.9h50.85Z" transform="translate(-7.11 -29.52)"/><path d="M403.88,411.53H481.6L468.22,454H431.8l-5.73,18.36-5.42.11,5.74-18.37-35.89-.42Zm-6.69,37.69H428l10.51-33.13H407.7Zm67.1,0,10.62-33.13H443.8l-10.51,33.13Z" transform="translate(-7.11 -29.52)"/><path d="M551.56,411.42h4.89l-6,19.64L521,447.63l18.79,19L537,475.76l-5,.11,2.76-8.6L509.84,443.7l-22.62,12.53-4.88,16.13-5,.11,5.84-19.11L505.38,441l-14.23-14.33,4.57-15.29h4.88l-4.14,14.33L516.74,445l29.62-16.35Z" transform="translate(-7.11 -29.52)"/><path d="M613.78,470.77l3.5.11-2.86,9-4.89-.1,2.23-7.33H552.41l18.9-60.73h5l-17.52,56.48,50.75-.1,17.63-56.49h5Z" transform="translate(-7.11 -29.52)"/><path d="M702.22,412h5l-18.05,60.52h-4.88l5.63-18.79H634.06L646.48,412h5l-11.15,37.27h51Z" transform="translate(-7.11 -29.52)"/><path d="M796.18,412.06h5l-18.9,60.41H705.94l18.79-60.41h5L712.31,468H743l17.41-55.95h5.1L748.09,468h30.57Z" transform="translate(-7.11 -29.52)"/><path d="M886.22,411.85l5,.1-22.62,72.31h-5l3.72-11.79H795.86l18.9-60.41h5l-17.52,56.06,30.26-.22L849.91,412l5,.11L837.38,468l31.32-.11Z" transform="translate(-7.11 -29.52)"/><path d="M904.48,412.06l11.89-.11-9.56,29.84,56-.11-9.67,30.79H892.27l17.41-55.63h-6.8ZM949.6,467.9l6.8-21.65-51,.1-6.79,21.55Z" transform="translate(-7.11 -29.52)"/><path d="M982.94,438.39l55.84-.11-10.61,34.08-60.84.11,18.9-60.73h5Zm41.51,29.51,7.86-25H981.56L973.7,468Zm34.83-56.16h5l-18.9,60.62h-5Z" transform="translate(-7.11 -29.52)"/><path d="M1081.89,412.27,1073,440.94l56-.43-10,32h-60.83l18.79-60.2Zm33.55,55.53,7.11-22.62-51.07.53-7,22.41Z" transform="translate(-7.11 -29.52)"/><path d="M1213.44,411.63l-18.58,60.73-60.73.11,4.56-15,5,.21L1140.5,468l50.75-.21,7-22.72H1153l1.38-4.46h45.23l7.43-24.63-50.75.31-3.51,11.58h-5l4.89-16.14Z" transform="translate(-7.11 -29.52)"/><path d="M1252.08,411.74h53l-18.79,60.73H1233.4l7.22-23.46-20.07-.32-7.33,23.89-5-.11,18.69-60.62,5,.1-10,32.28,20.07.32Zm30.58,56.16,16-51.81-43,.21-15.92,51.82Z" transform="translate(-7.11 -29.52)"/><path d="M1318.76,411.85l60.73.21-18.9,60.41-5,.11,8.6-27.29-26.22-.43-29.84,16.67-3.39,11.05-5-.11,4.45-14.12,24.85-13.27-20.71-.11Zm46.82,28.87,7.54-24.2-50.75-.11-7.64,24.21Z" transform="translate(-7.11 -29.52)"/><path d="M34.19,539.15l6.69.1-19,60.63h-5l17.63-56.27L14.33,555l2-6.27Z" transform="translate(-7.11 -29.52)"/><path d="M67.63,539.57l60.84-.1-9.66,30.47L57,589.26l-2,6.37,55.84-.21-1.48,4.46H48.63L53,586l62-19.43,7.12-22.72-50.86.1-6.37,20.39h-5.1Z" transform="translate(-7.11 -29.52)"/><path d="M188.24,563.78,164,569.83l22.19.11-9.35,29.94H124.22l4.57-14.65h4.88l-3.18,10.19,42.89-.11,6.58-21-37.48.11,1.38-4.36,40.46-9.45,5.2-17h-42.9L143.12,555l-5,.21L143,539.47l52.77-.11Z" transform="translate(-7.11 -29.52)"/><path d="M248.76,539l11.89-.42-18.26,61.15h-6l5.84-19.53-51,.1,6.9-23.36Zm-50.54,36.21,45.34-.11,9.66-32.38-50.75,18Z" transform="translate(-7.11 -29.52)"/><path d="M290.38,539.36l61.16-.11L349,547.32h-5.2l1.06-3.5H294.31l-6.8,22.08,55.85-.1-10.72,34.08H271.8l4.46-14.55,5.2.21-3.08,10,50.54-.21,7.75-25-55.85.21Z" transform="translate(-7.11 -29.52)"/><path d="M366.72,539.25l60.73.11L422.67,555l-5-.11,3.4-11H370.33l-6.9,22,55.74.1-10.51,34-60.73-.11Zm46.08,31H362.05l-7.75,25h50.85Z" transform="translate(-7.11 -29.52)"/><path d="M433.82,539.36l63,.53-8.28,25.59L438.81,583.1l-5.42,16.78h-5.2L434.56,580,483.4,562.4l5.73-17.95L438.06,544l-2.22,6.9-5.74-.21Z" transform="translate(-7.11 -29.52)"/><path d="M510.58,539.36h60.94l-7.43,23.46-23.46,12.85,15.5,12.74-3.61,11.47H491.58l5.94-19,22.83-12.63-15-12.53Zm40.24,50.22-25.59-18.9L501.56,584,498,595.52H548.8Zm9.24-29.94,5.09-16-51.07.31-3.18,10.41,25,18.9Z" transform="translate(-7.11 -29.52)"/><path d="M627.48,600l-60.84-.1,4.88-15.61h5.1l-3.5,11.15,50.75-.11,6.79-22-55.74-.1,10.41-33.76,60.94-.11ZM581.4,568.87,632,569l7.75-25.16-50.75.1Z" transform="translate(-7.11 -29.52)"/><path d="M661.24,539.15l60.94.1-18.79,60.63H642.55Zm-12.32,56.37,51-.21,12-38.86-61.36,33.77Zm66.89-51.81-51.07.21-12.31,40.14,61.26-33.77Z" transform="translate(-7.11 -29.52)"/><path d="M728.34,599.77l-10.62.11,1.49-4.67,10.51-.22Z" transform="translate(-7.11 -29.52)"/><path d="M747.87,606l-6.26,3.39,6.79-20.28,5.21-.1Z" transform="translate(-7.11 -29.52)"/><path d="M771.66,589.05l-5-.11,3.08-10,5,.11Zm7.85-25.27h-5l3.08-9.88h5.1Z" transform="translate(-7.11 -29.52)"/><path d="M798.83,592.34,792.68,596l5.41-18.69,5.2-.32Zm8.71-30.69-4.88-.1,2.86-9.88,5-.1Z" transform="translate(-7.11 -29.52)"/><path d="M852.56,579.49l-27.18.11,1.38-4.46h27.18Z" transform="translate(-7.11 -29.52)"/><path d="M868.06,600h-4.57L866,591.6h4.57Zm4.25-13.91h-4.57l14-46.6,4.56-.11Z" transform="translate(-7.11 -29.52)"/><path d="M901.93,539.36l38.22-1.06L932.61,565l-21.13,12-2.12,7.75-5.31.11L907,574l20.92-11.47L933.46,543l-27.39.64-1.91,7-5.52.32Zm5.94,51.28-5.41.11-2.55,9.13,5.42-.11Z" transform="translate(-7.11 -29.52)"/></g></g></svg>