<svg xmlns="http://www.w3.org/2000/svg" viewBox="0 0 35.36 29.97"><title>Asset 1</title><g id="Layer_2" data-name="Layer 2"><g id="Layer_1-2" data-name="Layer 1"><path d="M30.59,15.43v0A10.13,10.13,0,0,1,10.34,15a10.28,10.28,0,0,1,5.78-9.2A9.26,9.26,0,0,0,5.58,15a14.89,14.89,0,0,0,29.78.45Z"/><path d="M20.47,0H20A15.85,15.85,0,0,1,30.26,11.7H35A14.91,14.91,0,0,0,20.47,0"/><path d="M14.79,5.69A9.28,9.28,0,0,0,5.58,15,14.93,14.93,0,0,0,20,30h.46A15,15,0,0,0,35.36,15.43H30.59s0,0,0,0A10.13,10.13,0,0,1,10.34,15a10.28,10.28,0,0,1,5.78-9.2,9.13,9.13,0,0,0-1.34-.1"/><path d="M18.18,20.23h5.43a10.87,10.87,0,0,1-4.39,4,9.28,9.28,0,0,0,10.54-8.75H18.18Z"/><path d="M0,15A15,15,0,0,0,15.33,30,15.87,15.87,0,0,1,4.76,15,10.12,10.12,0,0,1,24.48,11.7h4.94v-.06A14.88,14.88,0,0,0,0,15"/><path d="M18.37,15.62h11.2a9.06,9.06,0,0,1-9,8.47l-.66,0a10.81,10.81,0,0,0,3.74-3.53l.14-.2L24,20H18.37Zm-.19-.19v4.8h5.43a10.87,10.87,0,0,1-4.39,4,9.16,9.16,0,0,0,1.31.09,9.3,9.3,0,0,0,9.23-8.84H18.18Z"/><path d="M.19,15A14.76,14.76,0,0,1,14.89.19,14.82,14.82,0,0,1,29.18,11.5H24.61a10.47,10.47,0,0,0-9.72-6.9A10.36,10.36,0,0,0,4.57,15a16.08,16.08,0,0,0,9.64,14.76A14.79,14.79,0,0,1,.19,15M0,15A15,15,0,0,0,15.33,30,15.87,15.87,0,0,1,4.76,15,10.12,10.12,0,0,1,24.48,11.7h4.94v-.06A14.88,14.88,0,0,0,0,15"/><path d="M20.47,0H20A15.85,15.85,0,0,1,30.26,11.7H35A14.91,14.91,0,0,0,20.47,0"/></g></g></svg>