<?xml version="1.0" encoding="utf-8"?>
<!-- Generator: Adobe Illustrator 19.0.0, SVG Export Plug-In . SVG Version: 6.00 Build 0)  -->
<svg version="1.1" id="Layer_1" xmlns="http://www.w3.org/2000/svg" xmlns:xlink="http://www.w3.org/1999/xlink" x="0px" y="0px"
	 viewBox="-232 355.1 187 192.4" style="enable-background:new -232 355.1 187 192.4;" xml:space="preserve">
<style type="text/css">
	.st0{fill:#EB6736;}
	.st1{clip-path:url(#SVGID_2_);fill:#EB6736;}
</style>
<path class="st0" d="M-71.7,456c-2-2.9-3.2-6.9-12.1-15.8c0.1-1.2,2.2-12,1.6-12.8c-0.1-0.3-1.2-0.4-1.3-0.1
	c0,3.8-2.9,20.6-2.9,20.7c-0.1,0.6-1.3,0.3-1.3-0.3c0-0.6,2.5-10.8,2.9-17.1c0-0.9,0.1-1.8-1.3-1.6c-28.9,0-42.2-1.9-60.1-0.3
	c-0.1-0.7-0.4-1-2-2.3c18.8-1,37.2,0.4,61.1-0.3c0.9-1,1.2-2.8,0.9-4.4c-1.8-7.3-6.1-18.2-7.3-20.7c8.9-6.1,10.2-14.7,10.2-14.7
	s-4.7,2.8-7.3,1.6c5.4-0.7,8.5-3.9,11.8-9.2c-10.6,2.6-17.5,2.8-31.5-3.5c-6.3-3.4-15.9-4.1-26.3-4.1c-18.1-0.1-35,2.9-48,19.1
	c-5.4,7-13,20.1-13.1,37.8c0.1,11.1,3.2,20.3,3.9,23.9c1,4.7,8,15.6,7.9,23.9c0,2.5-0.7,4.7-2.3,6.6c1.3,1.5,2.3,0,2.6,0.7
	c0,1.2,0,1.9,0,2.3c0,1.2,0,4.4-0.7,7.9c-0.7,3.6-2.3,7.6-5.5,11.2c45.1,1.2,49.6,29,49.6,37.5c7.9-9.6,12.5-17.1,13.7-18.2
	c1.8-1.6,5.4-3.9,6.3-8c3.5-16.8,27.9-7.9,33.6-18.1c1.2-2.2-0.1-8.3-0.3-9.5c0-1.3,1-3.8,3.6-4.2c4.5-0.3,2.2-5.1,3.4-5.5
	c2.8-0.9,3.6-4.1,3.6-5c0-1-1.6-2.8-2-6.6c-0.3-2.6,5.1-3.6,6.9-5.3C-71.5,460.4-70.5,458.7-71.7,456z"/>
<g>
	<g>
		<defs>
			<circle id="SVGID_1_" cx="-136.6" cy="450.5" r="95.4"/>
		</defs>
		<clipPath id="SVGID_2_">
			<use xlink:href="#SVGID_1_"  style="overflow:visible;"/>
		</clipPath>
		<path class="st1" d="M-190.1,492.5c6.6-0.4,55.4,21.6,57.6,23.1c2.2,1.5,1.5,11.2,0.4,13.9c1.5,0.6,15.5,17.4,15.5,17.4h-83.7
			c0,0,0.3-21.4,5.5-25.7C-194.9,519.9-193,498.9-190.1,492.5z"/>
	</g>
</g>
</svg>
