<?xml version="1.0" encoding="utf-8"?>
<!-- Generator: Adobe Illustrator 19.0.0, SVG Export Plug-In . SVG Version: 6.00 Build 0)  -->
<svg version="1.1" xmlns="http://www.w3.org/2000/svg" xmlns:xlink="http://www.w3.org/1999/xlink" x="0px" y="0px"
	 viewBox="0 0 876 126.9" enable-background="new 0 0 876 126.9" xml:space="preserve">
<g id="additional_info" display="none">
	<g id="safe_zone" display="inline">
		<g>
			<polyline fill="none" stroke="#000000" stroke-miterlimit="10" points="1021.3,208.7 1021.3,214.7 1015.3,214.7 			"/>
			
				<line fill="none" stroke="#000000" stroke-miterlimit="10" stroke-dasharray="11.9028,11.9028" x1="1003.4" y1="214.7" x2="-133.3" y2="214.7"/>
			<polyline fill="none" stroke="#000000" stroke-miterlimit="10" points="-139.3,214.7 -145.3,214.7 -145.3,208.7 			"/>
			
				<line fill="none" stroke="#000000" stroke-miterlimit="10" stroke-dasharray="11.6211,11.6211" x1="-145.3" y1="197.1" x2="-145.3" y2="-76"/>
			<polyline fill="none" stroke="#000000" stroke-miterlimit="10" points="-145.3,-81.8 -145.3,-87.8 -139.3,-87.8 			"/>
			
				<line fill="none" stroke="#000000" stroke-miterlimit="10" stroke-dasharray="11.9028,11.9028" x1="-127.4" y1="-87.8" x2="1009.3" y2="-87.8"/>
			<polyline fill="none" stroke="#000000" stroke-miterlimit="10" points="1015.3,-87.8 1021.3,-87.8 1021.3,-81.8 			"/>
			
				<line fill="none" stroke="#000000" stroke-miterlimit="10" stroke-dasharray="11.6211,11.6211" x1="1021.3" y1="-70.2" x2="1021.3" y2="202.9"/>
		</g>
	</g>
</g>
<g id="R">
	<path d="M97.4,106.4c-1.3,0-7.9,0.8-16.8-15.8c-7.8-14.8-11.7-21.8-11.7-21.8s-2-3.9,1.9-5.8c8.6-4.1,13.1-10.6,13.1-19.2
		c0-15.6-16-24.3-31.7-24.3c-1.6,0-4,0-6.7,0h-9.2h-6.6H17.1h-0.9c-0.4,0-0.7,0.3-0.7,0.7s0.3,0.7,0.7,0.7h0.9c5.5,0,10,4.9,10,10.9
		v36.1l0,0.2c0,0,0,0,0,0v27.4c0,6-4.5,10.9-10,10.9h-0.9c-0.4,0-0.7,0.3-0.7,0.7c0,0.4,0.3,0.7,0.7,0.7h29.2c0.4,0,0.7-0.3,0.7-0.7
		c0-0.4-0.3-0.7-0.7-0.7H29.8c3.5,0,6.3-2.8,6.3-6.3V68v-2.1V23.6c0.1-1.2,0.6-2.8,2.6-2.8c2.5,0,6.6,0,6.6,0c1.1,0,2.3,0,3.5,0
		c14.1,0,25.6,10,25.6,22.3s-9.7,23.4-32.8,23.4c-0.5,0-0.9,0.3-0.9,0.8c0,0.4,0.4,0.8,0.9,0.8c4.4,0,8.4-0.2,12.1-0.7
		c0,0-1.5,0.2,0,0c1.5-0.2,5,0.1,7.1,4.1c2.1,4.1,15,29.2,15,29.2s3.7,8,11.2,7.7c7.1,0,9.9,0,10.3,0c0,0,0,0,0,0c0.6,0,1-0.5,1-1
		C98.4,106.8,97.9,106.4,97.4,106.4z"/>
</g>
<g id="E">
	<g>
		<path d="M178.7,53.6c-0.4,0-0.7,0.3-0.7,0.7c0,5.5-8.7,8.6-17.3,8.6c-0.4,0-0.7,0.3-0.7,0.7c0,0.4,0.3,0.7,0.7,0.7
			c8.6,0,17.3,3,17.3,8.6c0,0.4,0.3,0.7,0.7,0.7c0.4,0,0.7-0.3,0.7-0.7l0-9.3l0-9.3C179.4,54,179.1,53.6,178.7,53.6z"/>
		<path d="M203.3,84.9c0-0.5-0.5-0.9-1-0.9c-0.6,0-0.9,0.4-1,1c0,0-1.6,12.5-11.4,16.9c-9.8,4.4-15.2,4.4-27.9,4.4c0,0-6.3,0-6.6,0
			c-2,0-2.6-1.6-2.6-2.8V23.6c0-1.2,0.6-2.8,2.6-2.8c0.3,0,6.6,0,6.6,0c12.7,0,18.1,0,27.9,4.4c9.8,4.4,11.4,16.9,11.4,16.9
			c0.1,0.6,0.5,1,1,1c0.5,0,1-0.5,1-0.9c0-0.5,0.2-11.8-0.1-16.2c-0.3-4.7-4.9-6.7-8.2-6.7c-1.9,0-61.3,0-61.3,0h-0.9
			c-0.4,0-0.7,0.3-0.7,0.7s0.3,0.7,0.7,0.7h0.9c5.5,0,10,4.9,10,10.9v63.6c0,6-4.5,10.9-10,10.9h-0.9c-0.4,0-0.7,0.3-0.7,0.7
			c0,0.4,0.3,0.7,0.7,0.7c0,0,60.3,0,62.2,0c3.3,0,7.9-2,8.2-6.7C203.4,96.7,203.3,85.4,203.3,84.9z"/>
	</g>
</g>
<g id="E_1_">
	<g>
		<path d="M286.6,53.6c-0.4,0-0.7,0.3-0.7,0.7c0,5.5-8.7,8.6-17.3,8.6c-0.4,0-0.7,0.3-0.7,0.7c0,0.4,0.3,0.7,0.7,0.7
			c8.6,0,17.3,3,17.3,8.6c0,0.4,0.3,0.7,0.7,0.7s0.7-0.3,0.7-0.7l0-9.3l0-9.3C287.4,54,287,53.6,286.6,53.6z"/>
		<path d="M311.2,84.9c0-0.5-0.5-0.9-1-0.9c-0.6,0-0.9,0.4-1,1c0,0-1.6,12.5-11.4,16.9c-9.8,4.4-15.2,4.4-27.9,4.4c0,0-6.3,0-6.6,0
			c-2,0-2.6-1.6-2.6-2.8V23.6c0-1.2,0.6-2.8,2.6-2.8c0.3,0,6.6,0,6.6,0c12.7,0,18.1,0,27.9,4.4c9.8,4.4,11.4,16.9,11.4,16.9
			c0.1,0.6,0.5,1,1,1c0.5,0,1-0.5,1-0.9c0-0.5,0.2-11.8-0.1-16.2c-0.3-4.7-4.9-6.7-8.2-6.7c-1.9,0-61.3,0-61.3,0h-0.9
			c-0.4,0-0.7,0.3-0.7,0.7s0.3,0.7,0.7,0.7h0.9c5.5,0,10,4.9,10,10.9v63.6c0,6-4.5,10.9-10,10.9h-0.9c-0.4,0-0.7,0.3-0.7,0.7
			c0,0.4,0.3,0.7,0.7,0.7c0,0,60.3,0,62.2,0c3.3,0,7.9-2,8.2-6.7C311.4,96.7,311.2,85.4,311.2,84.9z"/>
	</g>
</g>
<g id="T">
	<path d="M426.9,25.9c-0.3-4.7-4.9-6.7-8.2-6.7c-3.3,0-62,0-65.3,0c-3.3,0-7.9,2-8.2,6.7s-0.1,11.2-0.1,11.2c0,0.4,0.3,0.7,0.7,0.7
		c0.4,0,0.7-0.3,0.7-0.7c0-1.7,1-16.3,35-16.3v74.6c0,6-4.5,10.9-10,10.9h-0.9c-0.4,0-0.7,0.3-0.7,0.7c0,0.4,0.3,0.7,0.7,0.7h29.2
		c0.4,0,0.7-0.3,0.7-0.7c0-0.4-0.3-0.7-0.7-0.7h-15.6c3.5,0,6.3-2.8,6.3-6.3V20.8c34,0,35,14.6,35,16.3c0,0.4,0.3,0.7,0.7,0.7
		c0.4,0,0.7-0.3,0.7-0.7C427.1,37.1,427.2,30.6,426.9,25.9z"/>
</g>
<g id="I">
	<path d="M493.4,19.9h-29.9c-0.4,0-0.7,0.3-0.7,0.7c0,0.4,0.3,0.7,0.7,0.7h16.3c-3.5,0-6.3,2.8-6.3,6.3v16V84v11.6
		c-0.1,6-4.5,10.7-10,10.7h-0.9c-0.4,0-0.7,0.3-0.7,0.7c0,0.4,0.3,0.7,0.7,0.7h12.7h0.9h16.3c0.4,0,0.7-0.3,0.7-0.7
		c0-0.4-0.3-0.7-0.7-0.7h0l0,0h0c-5.4,0-9.9-4.8-10-10.7v-52h0V32.2c0-6,4.5-10.9,10-10.9h0.9c0.4,0,0.7-0.3,0.7-0.7
		C494.1,20.2,493.8,19.9,493.4,19.9z"/>
</g>
<g id="M">
	<g>
		<path d="M598.3,56.5c-0.6,0-1,0.4-1.2,1c-1.1,2.6-9.3,21.3-9.7,22.2c-0.4,1-0.8,1.4-1.6,1.4c-0.8,0-1-0.1-1.6-1.3
			c-0.6-1.1-30.3-59.6-30.3-59.6c-0.2-0.4-0.7-0.7-1.2-0.7h-19.4c-0.4,0-0.7,0.3-0.7,0.7s0.3,0.7,0.7,0.7c2.6,0,11.6,0.4,16.3,10.3
			c4.9,9.9,31.2,64.7,31.2,64.7c0.2,0.5,0.7,0.8,1.3,0.8c0.6,0,1.1-0.3,1.3-0.8l16.1-37.7c0-0.1,0.1-0.2,0.1-0.3
			C599.6,57.1,599,56.5,598.3,56.5z"/>
		<path d="M638.7,106.2h-0.9c-5.5,0-10-4.9-10-10.9V31.6c0-6,4.5-10.9,10-10.9h0.9c0.4,0,0.7-0.3,0.7-0.7c0-0.4-0.3-0.7-0.7-0.7
			h-14.2v0c-3.2,0.3-5.7,3-5.7,6.3v69.8c-0.1,6-4.5,10.8-10,10.8c-0.4,0-0.7,0.3-0.7,0.7c0,0.4,0.3,0.7,0.7,0.7h29.9
			c0.4,0,0.7-0.3,0.7-0.7C639.4,106.5,639.1,106.2,638.7,106.2z"/>
		<path d="M558.2,106.3h-4.6c-5.5,0-10-4.9-10-10.9V75.3c0-0.1-0.1-0.4-0.1-0.4l-2.2-4.8c-0.1-0.2-0.4-0.4-0.6-0.4
			c-0.4,0-0.7,0.3-0.7,0.7l0,4.7l0,20.3c0,6-4.5,10.9-10,10.9H529c-0.4,0-0.7,0.3-0.7,0.7c0,0.4,0.3,0.7,0.7,0.7h29.2
			c0.4,0,0.7-0.3,0.7-0.7C558.9,106.7,558.6,106.3,558.2,106.3z"/>
	</g>
</g>
<g id="E_2_">
	<g>
		<path d="M727.9,53.6c-0.4,0-0.7,0.3-0.7,0.7c0,5.5-8.7,8.6-17.3,8.6c-0.4,0-0.7,0.3-0.7,0.7c0,0.4,0.3,0.7,0.7,0.7
			c8.6,0,17.3,3,17.3,8.6c0,0.4,0.3,0.7,0.7,0.7c0.4,0,0.7-0.3,0.7-0.7l0-9.3l0-9.3C728.7,54,728.3,53.6,727.9,53.6z"/>
		<path d="M752.5,84.9c0-0.5-0.5-0.9-1-0.9c-0.6,0-0.9,0.4-1,1c0,0-1.6,12.5-11.4,16.9c-9.8,4.4-15.2,4.4-27.9,4.4c0,0-6.3,0-6.6,0
			c-2,0-2.6-1.6-2.6-2.8V23.6c0-1.2,0.6-2.8,2.6-2.8c0.3,0,6.6,0,6.6,0c12.7,0,18.1,0,27.9,4.4c9.8,4.4,11.4,16.9,11.4,16.9
			c0.1,0.6,0.5,1,1,1c0.5,0,1-0.5,1-0.9c0-0.5,0.2-11.8-0.1-16.2c-0.3-4.7-4.9-6.7-8.2-6.7c-1.9,0-61.3,0-61.3,0H682
			c-0.4,0-0.7,0.3-0.7,0.7s0.3,0.7,0.7,0.7h0.9c5.5,0,10,4.9,10,10.9v63.6c0,6-4.5,10.9-10,10.9H682c-0.4,0-0.7,0.3-0.7,0.7
			c0,0.4,0.3,0.7,0.7,0.7c0,0,60.3,0,62.2,0c3.3,0,7.9-2,8.2-6.7C752.7,96.7,752.5,85.4,752.5,84.9z"/>
	</g>
</g>
<g id="E_3_">
	<g>
		<path d="M835.9,53.6c-0.4,0-0.7,0.3-0.7,0.7c0,5.5-8.7,8.6-17.3,8.6c-0.4,0-0.7,0.3-0.7,0.7c0,0.4,0.3,0.7,0.7,0.7
			c8.6,0,17.3,3,17.3,8.6c0,0.4,0.3,0.7,0.7,0.7c0.4,0,0.7-0.3,0.7-0.7l0-9.3l0-9.3C836.6,54,836.3,53.6,835.9,53.6z"/>
		<path d="M860.4,84.9c0-0.5-0.5-0.9-1-0.9c-0.6,0-0.9,0.4-1,1c0,0-1.6,12.5-11.4,16.9c-9.8,4.4-15.2,4.4-27.9,4.4c0,0-6.3,0-6.6,0
			c-2,0-2.6-1.6-2.6-2.8V23.6c0-1.2,0.6-2.8,2.6-2.8c0.3,0,6.6,0,6.6,0c12.7,0,18.1,0,27.9,4.4c9.8,4.4,11.4,16.9,11.4,16.9
			c0.1,0.6,0.5,1,1,1c0.5,0,1-0.5,1-0.9c0-0.5,0.2-11.8-0.1-16.2c-0.3-4.7-4.9-6.7-8.2-6.7c-1.9,0-61.3,0-61.3,0h-0.9
			c-0.4,0-0.7,0.3-0.7,0.7s0.3,0.7,0.7,0.7h0.9c5.5,0,10,4.9,10,10.9v63.6c0,6-4.5,10.9-10,10.9h-0.9c-0.4,0-0.7,0.3-0.7,0.7
			c0,0.4,0.3,0.7,0.7,0.7c0,0,60.3,0,62.2,0c3.3,0,7.9-2,8.2-6.7C860.6,96.7,860.4,85.4,860.4,84.9z"/>
	</g>
</g>
</svg>
