<svg enable-background="new 0 0 876 126.9" viewBox="0 0 876 126.9" xmlns="http://www.w3.org/2000/svg"><path d="m97.4 106.4c-1.3 0-7.9.8-16.8-15.8-7.8-14.8-11.7-21.8-11.7-21.8s-2-3.9 1.9-5.8c8.6-4.1 13.1-10.6 13.1-19.2 0-15.6-16-24.3-31.7-24.3-1.6 0-4 0-6.7 0h-9.2-6.6-12.6-.9c-.4 0-.7.3-.7.7s.3.7.7.7h.9c5.5 0 10 4.9 10 10.9v36.1.2 27.4c0 6-4.5 10.9-10 10.9h-.9c-.4 0-.7.3-.7.7s.3.7.7.7h29.2c.4 0 .7-.3.7-.7s-.3-.7-.7-.7h-15.6c3.5 0 6.3-2.8 6.3-6.3v-32.1-2.1-42.3c.1-1.2.6-2.8 2.6-2.8h6.6 3.5c14.1 0 25.6 10 25.6 22.3s-9.7 23.4-32.8 23.4c-.5 0-.9.3-.9.8 0 .4.4.8.9.8 4.4 0 8.4-.2 12.1-.7 0 0-1.5.2 0 0s5 .1 7.1 4.1c2.1 4.1 15 29.2 15 29.2s3.7 8 11.2 7.7h10.3c.6 0 1-.5 1-1 .1-.6-.4-1-.9-1z"/><path d="m178.7 53.6c-.4 0-.7.3-.7.7 0 5.5-8.7 8.6-17.3 8.6-.4 0-.7.3-.7.7s.3.7.7.7c8.6 0 17.3 3 17.3 8.6 0 .4.3.7.7.7s.7-.3.7-.7v-9.3-9.3c0-.3-.3-.7-.7-.7z"/><path d="m203.3 84.9c0-.5-.5-.9-1-.9-.6 0-.9.4-1 1 0 0-1.6 12.5-11.4 16.9s-15.2 4.4-27.9 4.4c0 0-6.3 0-6.6 0-2 0-2.6-1.6-2.6-2.8v-79.9c0-1.2.6-2.8 2.6-2.8h6.6c12.7 0 18.1 0 27.9 4.4s11.4 16.9 11.4 16.9c.1.6.5 1 1 1s1-.5 1-.9c0-.5.2-11.8-.1-16.2-.3-4.7-4.9-6.7-8.2-6.7-1.9 0-61.3 0-61.3 0h-.9c-.4 0-.7.3-.7.7s.3.7.7.7h.9c5.5 0 10 4.9 10 10.9v63.6c0 6-4.5 10.9-10 10.9h-.9c-.4 0-.7.3-.7.7s.3.7.7.7h62.2c3.3 0 7.9-2 8.2-6.7.2-4.1.1-15.4.1-15.9z"/><path d="m286.6 53.6c-.4 0-.7.3-.7.7 0 5.5-8.7 8.6-17.3 8.6-.4 0-.7.3-.7.7s.3.7.7.7c8.6 0 17.3 3 17.3 8.6 0 .4.3.7.7.7s.7-.3.7-.7v-9.3-9.3c.1-.3-.3-.7-.7-.7z"/><path d="m311.2 84.9c0-.5-.5-.9-1-.9-.6 0-.9.4-1 1 0 0-1.6 12.5-11.4 16.9s-15.2 4.4-27.9 4.4c0 0-6.3 0-6.6 0-2 0-2.6-1.6-2.6-2.8v-79.9c0-1.2.6-2.8 2.6-2.8h6.6c12.7 0 18.1 0 27.9 4.4s11.4 16.9 11.4 16.9c.1.6.5 1 1 1s1-.5 1-.9c0-.5.2-11.8-.1-16.2-.3-4.7-4.9-6.7-8.2-6.7-1.9 0-61.3 0-61.3 0h-.9c-.4 0-.7.3-.7.7s.3.7.7.7h.9c5.5 0 10 4.9 10 10.9v63.6c0 6-4.5 10.9-10 10.9h-.9c-.4 0-.7.3-.7.7s.3.7.7.7h62.2c3.3 0 7.9-2 8.2-6.7.3-4.1.1-15.4.1-15.9z"/><path d="m426.9 25.9c-.3-4.7-4.9-6.7-8.2-6.7s-62 0-65.3 0-7.9 2-8.2 6.7-.1 11.2-.1 11.2c0 .4.3.7.7.7s.7-.3.7-.7c0-1.7 1-16.3 35-16.3v74.6c0 6-4.5 10.9-10 10.9h-.9c-.4 0-.7.3-.7.7s.3.7.7.7h29.2c.4 0 .7-.3.7-.7s-.3-.7-.7-.7h-15.6c3.5 0 6.3-2.8 6.3-6.3v-79.2c34 0 35 14.6 35 16.3 0 .4.3.7.7.7s.7-.3.7-.7c.2 0 .3-6.5 0-11.2z"/><path d="m493.4 19.9h-29.9c-.4 0-.7.3-.7.7s.3.7.7.7h16.3c-3.5 0-6.3 2.8-6.3 6.3v16 40.4 11.6c-.1 6-4.5 10.7-10 10.7h-.9c-.4 0-.7.3-.7.7s.3.7.7.7h12.7.9 16.3c.4 0 .7-.3.7-.7s-.3-.7-.7-.7c-5.4 0-9.9-4.8-10-10.7v-52-11.4c0-6 4.5-10.9 10-10.9h.9c.4 0 .7-.3.7-.7s-.3-.7-.7-.7z"/><path d="m598.3 56.5c-.6 0-1 .4-1.2 1-1.1 2.6-9.3 21.3-9.7 22.2-.4 1-.8 1.4-1.6 1.4s-1-.1-1.6-1.3c-.6-1.1-30.3-59.6-30.3-59.6-.2-.4-.7-.7-1.2-.7h-19.4c-.4 0-.7.3-.7.7s.3.7.7.7c2.6 0 11.6.4 16.3 10.3 4.9 9.9 31.2 64.7 31.2 64.7.2.5.7.8 1.3.8s1.1-.3 1.3-.8l16.1-37.7c0-.1.1-.2.1-.3 0-.8-.6-1.4-1.3-1.4z"/><path d="m638.7 106.2h-.9c-5.5 0-10-4.9-10-10.9v-63.7c0-6 4.5-10.9 10-10.9h.9c.4 0 .7-.3.7-.7s-.3-.7-.7-.7h-14.2c-3.2.3-5.7 3-5.7 6.3v69.8c-.1 6-4.5 10.8-10 10.8-.4 0-.7.3-.7.7s.3.7.7.7h29.9c.4 0 .7-.3.7-.7s-.3-.7-.7-.7z"/><path d="m558.2 106.3h-4.6c-5.5 0-10-4.9-10-10.9v-20.1c0-.1-.1-.4-.1-.4l-2.2-4.8c-.1-.2-.4-.4-.6-.4-.4 0-.7.3-.7.7v4.7 20.3c0 6-4.5 10.9-10 10.9h-1c-.4 0-.7.3-.7.7s.3.7.7.7h29.2c.4 0 .7-.3.7-.7 0-.3-.3-.7-.7-.7z"/><path d="m727.9 53.6c-.4 0-.7.3-.7.7 0 5.5-8.7 8.6-17.3 8.6-.4 0-.7.3-.7.7s.3.7.7.7c8.6 0 17.3 3 17.3 8.6 0 .4.3.7.7.7s.7-.3.7-.7v-9.3-9.3c.1-.3-.3-.7-.7-.7z"/><path d="m752.5 84.9c0-.5-.5-.9-1-.9-.6 0-.9.4-1 1 0 0-1.6 12.5-11.4 16.9s-15.2 4.4-27.9 4.4c0 0-6.3 0-6.6 0-2 0-2.6-1.6-2.6-2.8v-79.9c0-1.2.6-2.8 2.6-2.8h6.6c12.7 0 18.1 0 27.9 4.4s11.4 16.9 11.4 16.9c.1.6.5 1 1 1s1-.5 1-.9c0-.5.2-11.8-.1-16.2-.3-4.7-4.9-6.7-8.2-6.7-1.9 0-61.3 0-61.3 0h-.9c-.4 0-.7.3-.7.7s.3.7.7.7h.9c5.5 0 10 4.9 10 10.9v63.6c0 6-4.5 10.9-10 10.9h-.9c-.4 0-.7.3-.7.7s.3.7.7.7h62.2c3.3 0 7.9-2 8.2-6.7.3-4.1.1-15.4.1-15.9z"/><path d="m835.9 53.6c-.4 0-.7.3-.7.7 0 5.5-8.7 8.6-17.3 8.6-.4 0-.7.3-.7.7s.3.7.7.7c8.6 0 17.3 3 17.3 8.6 0 .4.3.7.7.7s.7-.3.7-.7v-9.3-9.3c0-.3-.3-.7-.7-.7z"/><path d="m860.4 84.9c0-.5-.5-.9-1-.9-.6 0-.9.4-1 1 0 0-1.6 12.5-11.4 16.9s-15.2 4.4-27.9 4.4c0 0-6.3 0-6.6 0-2 0-2.6-1.6-2.6-2.8v-79.9c0-1.2.6-2.8 2.6-2.8h6.6c12.7 0 18.1 0 27.9 4.4s11.4 16.9 11.4 16.9c.1.6.5 1 1 1s1-.5 1-.9c0-.5.2-11.8-.1-16.2-.3-4.7-4.9-6.7-8.2-6.7-1.9 0-61.3 0-61.3 0h-.9c-.4 0-.7.3-.7.7s.3.7.7.7h.9c5.5 0 10 4.9 10 10.9v63.6c0 6-4.5 10.9-10 10.9h-.9c-.4 0-.7.3-.7.7s.3.7.7.7h62.2c3.3 0 7.9-2 8.2-6.7.3-4.1.1-15.4.1-15.9z"/></svg>