<?xml version="1.0" encoding="utf-8"?>
<!-- Generator: Adobe Illustrator 19.0.0, SVG Export Plug-In . SVG Version: 6.00 Build 0)  -->
<svg version="1.2" baseProfile="tiny" id="Layer_1" xmlns="http://www.w3.org/2000/svg" xmlns:xlink="http://www.w3.org/1999/xlink"
	 x="0px" y="0px" viewBox="0 -15.2 127.6 137.9" xml:space="preserve">
<path d="M36-13.4L22.9,48.7c0,0,19.4-9.8,36.2-9.8s23.1,13.7,23.1,29.4S72,101.6,53.4,101.6c-22.7,0-27.5-9.6-27.5-9.6
	s26,3.4,26-16.2c0-14.8-8-19.9-19.4-19.9s-20.2,10.8-20.2,21s10.1,27.6,45.6,27.6s58.6-19.8,58.6-37.1s-16.3-32.5-44.8-32.5
	s-44.9,9-44.9,9L33,16.1c0,0,19.7,8.8,45.1,8.8c34.1,0,37-43.7,37-43.7s-6,11.3-30,11.3C39.2-7.4,36-13.4,36-13.4z"/>
</svg>
