<?xml version="1.0" encoding="utf-8"?>
<!-- Generator: Adobe Illustrator 19.0.0, SVG Export Plug-In . SVG Version: 6.00 Build 0)  -->
<svg version="1.1" id="Layer_1" xmlns="http://www.w3.org/2000/svg" xmlns:xlink="http://www.w3.org/1999/xlink" x="0px" y="0px"
	 viewBox="76 7.9 280.9 97.5" style="enable-background:new 76 7.9 280.9 97.5;" xml:space="preserve">
<style type="text/css">
	.st0{opacity:0.9;fill:#FFFFFF;}
</style>
<path id="XMLID_67_" class="st0" d="M165.4,100.5c15.1,0,27.1-7.9,27.1-17.9c0-13.8,0-70.2,0-70.2h-14.3c0,0,0,63.4,0,66.1
	c0,4.7-5.3,8.5-11.8,8.5s-11.8-3.8-11.8-8.5c0-7.9,0-47.4,0-47.4l-14.9,19.7c0,0,0,22.9,0,31.5C139.7,90.8,150.3,100.5,165.4,100.5z
	"/>
<polygon id="XMLID_55_" class="st0" points="154.2,12.3 133.5,12.3 113.9,38.8 95.7,14.5 75,14.5 106.6,58 106.6,86.8 120.1,97.8 
	123.4,95.7 123.4,54 "/>
<path id="XMLID_59_" class="st0" d="M245.5,69.3c0,0,13.7-8,13.7-21.3s-11-22.1-21.6-22.1s-32.5,0-32.5,0v76.4l4.2,3.1l11.6-15v-50
	c0,0,11.3,0,14.6,0s7.5,1.9,7.5,7.5s-3.3,9-7.3,9c-1.1,0-7,0-7,0V72l15.2,23.4h18.9L245.5,69.3z"/>
<polygon id="XMLID_73_" class="st0" points="355.9,8 335.2,8 316.3,34.2 300,12.3 279.3,12.3 307.9,50.6 308.2,95.3 312.1,98.2 
	326.9,79.3 327.1,49.1 "/>
<polygon id="XMLID_68_" class="st0" points="276,27.6 273.1,30.5 273.1,95.5 289.2,95.5 289.2,45.6 "/>
</svg>
