<svg enable-background="new -232 355.1 187 192.4" viewBox="-232 355.1 187 192.4" xmlns="http://www.w3.org/2000/svg" xmlns:xlink="http://www.w3.org/1999/xlink"><clipPath id="a"><circle cx="-136.6" cy="450.5" r="95.4"/></clipPath><g fill="#eb6736"><path d="m-71.7 456c-2-2.9-3.2-6.9-12.1-15.8.1-1.2 2.2-12 1.6-12.8-.1-.3-1.2-.4-1.3-.1 0 3.8-2.9 20.6-2.9 20.7-.1.6-1.3.3-1.3-.3s2.5-10.8 2.9-17.1c0-.9.1-1.8-1.3-1.6-28.9 0-42.2-1.9-60.1-.3-.1-.7-.4-1-2-2.3 18.8-1 37.2.4 61.1-.3.9-1 1.2-2.8.9-4.4-1.8-7.3-6.1-18.2-7.3-20.7 8.9-6.1 10.2-14.7 10.2-14.7s-4.7 2.8-7.3 1.6c5.4-.7 8.5-3.9 11.8-9.2-10.6 2.6-17.5 2.8-31.5-3.5-6.3-3.4-15.9-4.1-26.3-4.1-18.1-.1-35 2.9-48 19.1-5.4 7-13 20.1-13.1 37.8.1 11.1 3.2 20.3 3.9 23.9 1 4.7 8 15.6 7.9 23.9 0 2.5-.7 4.7-2.3 6.6 1.3 1.5 2.3 0 2.6.7v2.3c0 1.2 0 4.4-.7 7.9-.7 3.6-2.3 7.6-5.5 11.2 45.1 1.2 49.6 29 49.6 37.5 7.9-9.6 12.5-17.1 13.7-18.2 1.8-1.6 5.4-3.9 6.3-8 3.5-16.8 27.9-7.9 33.6-18.1 1.2-2.2-.1-8.3-.3-9.5 0-1.3 1-3.8 3.6-4.2 4.5-.3 2.2-5.1 3.4-5.5 2.8-.9 3.6-4.1 3.6-5 0-1-1.6-2.8-2-6.6-.3-2.6 5.1-3.6 6.9-5.3 1.9-1.2 2.9-2.9 1.7-5.6z"/><path clip-path="url(#a)" d="m-190.1 492.5c6.6-.4 55.4 21.6 57.6 23.1s1.5 11.2.4 13.9c1.5.6 15.5 17.4 15.5 17.4h-83.7s.3-21.4 5.5-25.7c-.1-1.3 1.8-22.3 4.7-28.7z"/></g></svg>