<?xml version="1.0" encoding="utf-8"?>
<!-- Generator: Adobe Illustrator 19.0.0, SVG Export Plug-In . SVG Version: 6.00 Build 0)  -->
<svg version="1.2" baseProfile="tiny" id="Layer_1" xmlns="http://www.w3.org/2000/svg" xmlns:xlink="http://www.w3.org/1999/xlink"
	 x="0px" y="0px" viewBox="0 -12.8 127.6 138.9" xml:space="preserve">
<path d="M60.9-4.2c30.6,0,53,13.8,53,33.5S94.2,59.1,74.2,65.1s-38,18.8-38,18.8s8.5-3.7,23.5-3.7c18.7,0,20.5,6,34.1,6
	s26.8-9.6,26.8-9.6s-3.8,41.9-33.4,41.9s-34.7-11.4-54.6-11.4S6.7,118.6,6.7,118.6s6.2-21.3,23-34.7S76,62.6,76,36.9
	S65.1,0.7,51.8,0.7c-33.3,0-33.1,23.8-33.1,23.8s6.4-6,14.9-6s19.6,4.8,19.6,18.2s-8.2,20.5-20,20.5s-21.5-8.5-21.5-26.7
	C11.7,7.1,34.2-4.2,60.9-4.2z"/>
</svg>
