<?xml version="1.0" encoding="utf-8"?>
<!-- Generator: Adobe Illustrator 20.1.0, SVG Export Plug-In . SVG Version: 6.00 Build 0)  -->
<svg version="1.1" id="Layer_1" xmlns="http://www.w3.org/2000/svg" xmlns:xlink="http://www.w3.org/1999/xlink" x="0px" y="0px"
	 viewBox="0 0 414 330" style="enable-background:new 0 0 414 330;" xml:space="preserve">
<style type="text/css">
	.st0{fill:#FFFFFF;}
</style>
<title>Combined Shape@3x</title>
<desc>Created with Sketch.</desc>
<g id="Page-1">
	<path id="Combined-Shape" class="st0" d="M414,0v330H0V0H414z M205.2,254.6c-3.4,0-6.5,0.8-9.3,2.3s-5.1,3.7-6.8,6.4
		c-1.7,2.8-2.5,6-2.5,9.6c0,3.6,0.8,6.8,2.5,9.6c1.7,2.8,3.9,4.9,6.8,6.4c2.8,1.5,5.9,2.3,9.3,2.3c4.8,0,8.5-1.4,11-4.2l0.2-0.3v1.3
		c0,3-0.8,5.3-2.4,6.9s-4.2,2.3-7.7,2.3c-2.3,0-4.6-0.4-7-1.1c-2.2-0.7-4-1.6-5.5-2.7l-0.3-0.2l-4.8,9.3c2.3,1.6,5.1,2.9,8.3,3.7
		c3.3,0.8,6.8,1.3,10.5,1.3c7.2,0,12.7-1.8,16.5-5.3c3.7-3.4,5.6-8.6,5.7-15.4l0-0.5v-31h-12.7v4.6
		C214.6,256.3,210.6,254.6,205.2,254.6z M37.9,254.6c-4,0-7.5,0.8-10.7,2.5c-3.2,1.7-5.7,4-7.5,7c-1.8,3-2.7,6.3-2.7,10
		c0,3.8,0.9,7.2,2.8,10.1c1.8,3,4.4,5.3,7.8,7c3.4,1.7,7.3,2.5,11.7,2.5c6.9,0,12.2-2,15.9-5.9l0.3-0.3l-7-7.3c-1.4,1.2-2.7,2-4,2.5
		c-1.3,0.5-2.9,0.8-4.7,0.8c-2.4,0-4.4-0.5-6.1-1.6c-1.5-1-2.6-2.4-3.2-4.2l-0.1-0.3H58c0.1-2.1,0.2-3.2,0.2-3.3
		c0-4.1-0.9-7.6-2.7-10.5c-1.8-3-4.2-5.2-7.3-6.8C45.1,255.3,41.6,254.6,37.9,254.6z M131.5,254.6c-4,0-7.5,0.8-10.7,2.5
		c-3.2,1.7-5.7,4-7.5,7c-1.8,3-2.7,6.3-2.7,10c0,3.8,0.9,7.2,2.8,10.1c1.8,3,4.4,5.3,7.8,7c3.4,1.7,7.3,2.5,11.7,2.5
		c6.9,0,12.2-2,15.9-5.9l0.3-0.3l-7-7.3c-1.4,1.2-2.7,2-4,2.5s-2.9,0.8-4.7,0.8c-2.4,0-4.4-0.5-6.1-1.6c-1.5-1-2.6-2.4-3.2-4.2
		l-0.1-0.3h27.6c0.1-2.1,0.2-3.2,0.2-3.3c0-4.1-0.9-7.6-2.7-10.5c-1.8-3-4.2-5.2-7.3-6.8C138.7,255.3,135.3,254.6,131.5,254.6z
		 M251.6,255.2h-13.3v37.9h13.3V255.2z M89,254.6c-2.4,0-4.7,0.4-6.7,1.2c-1.9,0.8-3.6,1.8-5,3.2l-0.3,0.3v-4.1H64.3v37.9h13.3
		v-18.3c0-3,0.7-5.2,2.1-6.7c1.4-1.5,3.2-2.2,5.5-2.2c4.1,0,6.1,2.5,6.2,7.5l0,0.3v19.5h13.3v-21.7c0-5.6-1.4-9.9-4.3-12.7
		C97.5,256,93.7,254.6,89,254.6z M183.4,254.6c-2.8,0-5.3,0.4-7.5,1.3c-2,0.8-3.7,2-5,3.6l-0.3,0.3v-4.5H158v37.9h13.3v-17.4
		c0-3.2,0.8-5.5,2.4-7.1c1.6-1.5,3.8-2.3,6.7-2.3c0.7,0,1.6,0.1,2.6,0.2l0.4,0V254.6z M208.4,265.1c2.4,0,4.4,0.7,5.9,2.1
		c1.5,1.4,2.3,3.3,2.3,5.6c0,2.3-0.8,4.2-2.3,5.6c-1.6,1.4-3.5,2.2-5.9,2.2c-2.4,0-4.4-0.7-6-2.2c-1.6-1.4-2.4-3.3-2.4-5.6
		c0-2.3,0.8-4.1,2.3-5.6C204,265.8,206,265.1,208.4,265.1z M131.6,264c2.1,0,3.8,0.6,5.1,1.8c1.4,1.2,2.3,2.8,2.6,4.8h-15.5
		c0.4-2,1.2-3.6,2.6-4.8C127.8,264.6,129.5,264,131.6,264z M37.9,264c2.1,0,3.8,0.6,5.1,1.8c1.4,1.2,2.3,2.8,2.6,4.8H30.2
		c0.4-2,1.2-3.6,2.6-4.8C34.2,264.6,35.9,264,37.9,264z M245,236.8c-2.4,0-4.4,0.7-5.9,2s-2.2,3-2.2,5s0.7,3.7,2.2,5s3.5,2,5.9,2
		s4.4-0.7,5.9-2.1s2.2-3.1,2.2-5.2c0-2-0.7-3.7-2.2-4.9C249.4,237.5,247.4,236.8,245,236.8z M273.9,255.2h-13.3v37.9h13.3V255.2z
		 M267.3,236.8c-2.4,0-4.4,0.7-5.9,2c-1.5,1.4-2.2,3-2.2,5s0.7,3.7,2.2,5c1.5,1.4,3.5,2,5.9,2s4.4-0.7,5.9-2.1
		c1.5-1.4,2.2-3.1,2.2-5.2c0-2-0.7-3.7-2.2-4.9C271.7,237.5,269.7,236.8,267.3,236.8z M355.6,184.2h-13.3v21.2
		c0,5.8,1.5,10.1,4.4,13c2.9,2.9,6.8,4.3,11.7,4.3c2.2,0,4.3-0.4,6.2-1.2c1.8-0.7,3.4-1.8,4.7-3.2l0.3-0.3v4.1h12.7v-37.9H369v18.3
		c0,3-0.7,5.3-2,6.8c-1.3,1.5-3,2.2-5.1,2.2c-2.1,0-3.6-0.7-4.7-2c-1-1.2-1.6-3.2-1.6-5.8l0-0.4V184.2z M32.5,184.2H19.2v21.2
		c0,5.8,1.5,10.1,4.4,13c2.9,2.9,6.8,4.3,11.7,4.3c2.2,0,4.3-0.4,6.2-1.2c1.8-0.7,3.4-1.8,4.7-3.2l0.3-0.3v4.1h12.7v-37.9H46v18.3
		c0,3-0.7,5.3-2,6.8c-1.3,1.5-3,2.2-5.1,2.2c-2.1,0-3.6-0.7-4.7-2c-1-1.2-1.6-3.2-1.6-5.8l0-0.4V184.2z M314.9,183.6
		c-4.1,0-7.8,0.8-11,2.5c-3.2,1.7-5.8,4-7.6,7c-1.8,3-2.8,6.3-2.8,10.1c0,3.8,0.9,7.2,2.8,10.2c1.8,3,4.4,5.3,7.7,7
		c3.3,1.7,6.9,2.5,11,2.5c4.1,0,7.8-0.8,11.1-2.5c3.3-1.7,5.8-4,7.6-7c1.8-3,2.7-6.4,2.7-10.2s-0.9-7.2-2.7-10.1
		c-1.8-3-4.4-5.3-7.6-6.9S319,183.6,314.9,183.6z M224.3,183.6c-4.2,0-8,0.8-11.3,2.5s-5.9,4-7.7,6.9s-2.8,6.3-2.8,10.1
		s0.9,7.2,2.8,10.2c1.8,3,4.4,5.3,7.7,7c3.3,1.7,7.1,2.5,11.3,2.5c4.3,0,8-0.9,11.1-2.8c3-1.8,5.2-4.2,6.5-7.3l0.2-0.4l-10.3-5.2
		c-1.7,3.4-4.2,5.1-7.6,5.1c-2.4,0-4.4-0.8-5.9-2.4c-1.6-1.6-2.3-3.8-2.3-6.7c0-2.8,0.8-5,2.3-6.6c1.6-1.6,3.5-2.4,5.9-2.4
		c3.2,0,5.7,1.6,7.4,4.8l0.2,0.3l10.3-5.2c-1.3-3.3-3.5-5.8-6.7-7.7C232.3,184.5,228.6,183.6,224.3,183.6z M178.4,183.6
		c-4,0-7.5,0.8-10.7,2.5c-3.2,1.7-5.7,4-7.5,7c-1.8,3-2.7,6.3-2.7,10c0,3.8,0.9,7.2,2.8,10.2c1.8,3,4.4,5.3,7.8,7
		c3.4,1.7,7.3,2.5,11.7,2.5c6.9,0,12.2-2,15.9-5.9l0.3-0.3l-7-7.3c-1.4,1.2-2.7,2-4,2.5s-2.9,0.8-4.7,0.8c-2.4,0-4.4-0.5-6.1-1.6
		c-1.5-1-2.6-2.4-3.2-4.2l-0.1-0.3h27.6c0.1-2.1,0.2-3.2,0.2-3.3c0-4.1-0.9-7.6-2.7-10.5c-1.8-3-4.2-5.2-7.3-6.8
		C185.6,184.3,182.2,183.6,178.4,183.6z M143.5,175.7h-13.3v9.9h-5.5v9.9h5.5v12.7c0,4.8,1.3,8.4,4,10.8c2.7,2.4,6.5,3.6,11.4,3.6
		c1.8,0,3.5-0.2,5.1-0.6c1.5-0.3,2.7-0.8,3.8-1.4l0.3-0.2l-3.3-9.3c-1.2,0.8-2.5,1.2-4.1,1.2c-1.2,0-2.2-0.4-2.9-1.2
		c-0.7-0.7-1-1.7-1.1-2.9l0-0.3v-12.6h8.7v-9.9h-8.7V175.7z M120,184.2h-13.3v37.9H120V184.2z M100.2,184.2H66.3v9.9h17.1
		l-17.6,20.2v7.8h35v-9.9H82.6l17.6-20.2V184.2z M271.8,183.6c-2.4,0-4.7,0.4-6.7,1.2c-1.9,0.8-3.6,1.8-5,3.2l-0.3,0.3v-4.1h-12.7
		v37.9h13.3v-18.3c0-3,0.7-5.2,2.1-6.7c1.4-1.5,3.2-2.2,5.5-2.2c4.1,0,6.1,2.5,6.2,7.5l0,0.3v19.5h13.3v-21.7
		c0-5.6-1.4-9.9-4.3-12.7C280.3,185,276.5,183.6,271.8,183.6z M314.9,194.1c2.3,0,4.2,0.8,5.7,2.4c1.5,1.6,2.2,3.8,2.2,6.6
		c0,2.8-0.7,5.1-2.2,6.7c-1.5,1.6-3.4,2.4-5.7,2.4c-2.3,0-4.2-0.8-5.7-2.4c-1.5-1.6-2.2-3.8-2.2-6.7c0-2.8,0.7-5,2.2-6.6
		C310.6,194.9,312.5,194.1,314.9,194.1z M178.5,193c2.1,0,3.8,0.6,5.1,1.8c1.4,1.2,2.3,2.8,2.6,4.8h-15.5c0.4-2,1.2-3.6,2.6-4.8
		C174.7,193.6,176.4,193,178.5,193z M113.4,165.8c-2.4,0-4.4,0.7-5.9,2s-2.2,3-2.2,5s0.7,3.7,2.2,5s3.5,2,5.9,2s4.4-0.7,5.9-2.1
		c1.5-1.4,2.2-3.1,2.2-5.2c0-2-0.7-3.7-2.2-4.9C117.8,166.5,115.8,165.8,113.4,165.8z M77.3,169h-8.8l9.1,10.6H89l9.1-10.6h-8.8
		l-6,5.3L77.3,169z M216.9,169H208l9.1,10.6h11.5l9.1-10.6h-8.8l-6,5.3L216.9,169z M138.7,112.6c-4.8,0-8.5,1.4-11,4.1l-0.2,0.3
		v-3.8h-12.7v51.5h13.3v-16.9c2.6,2.7,6.1,4,10.6,4c3.5,0,6.6-0.8,9.4-2.4s5.1-3.9,6.7-6.9c1.7-3,2.5-6.4,2.5-10.3
		s-0.8-7.4-2.5-10.3c-1.7-3-3.9-5.2-6.7-6.9S142.2,112.6,138.7,112.6z M38.4,112.6c-4.1,0-7.8,0.8-11,2.5c-3.2,1.7-5.8,4-7.6,7
		c-1.8,3-2.8,6.3-2.8,10.1c0,3.8,0.9,7.2,2.8,10.2c1.8,3,4.4,5.3,7.7,7c3.3,1.7,6.9,2.5,11,2.5c4.1,0,7.8-0.8,11.1-2.5
		c3.3-1.7,5.8-4,7.6-7c1.8-3,2.7-6.4,2.7-10.2s-0.9-7.2-2.7-10.1s-4.4-5.3-7.6-6.9C46.2,113.4,42.5,112.6,38.4,112.6z M247.8,99.2
		h-13.3v17.3c-2.5-2.6-6-3.9-10.5-3.9c-3.5,0-6.6,0.8-9.5,2.4c-2.8,1.6-5.1,3.9-6.8,6.8c-1.7,3-2.5,6.4-2.5,10.3s0.8,7.4,2.5,10.4
		c1.7,3,3.9,5.3,6.8,6.9c2.8,1.6,6,2.4,9.5,2.4c4.8,0,8.4-1.4,10.9-4.1l0.2-0.3v3.8h12.7V99.2z M179.7,112.6c-3,0-6.1,0.4-9.1,1.2
		c-2.8,0.7-5.2,1.7-7.2,3l-0.4,0.3l4.5,9c1.3-1,2.9-1.8,4.8-2.4s3.7-0.9,5.5-0.9c5,0,7.7,1.9,8,5.8l0,0.3h-7.6c-5.7,0-10,1-12.7,3
		c-2.8,2-4.1,4.8-4.1,8.4c0,2.2,0.5,4.2,1.6,6s2.7,3.1,4.9,4.2s4.7,1.5,7.6,1.5c5.4,0,9.1-1.8,11.1-5.3l0.1-0.3v4.9h12.4v-21.1
		c0-5.9-1.7-10.3-5-13.2C190.8,114,186,112.6,179.7,112.6z M106.3,99.2H93v17.3c-2.5-2.6-6-3.9-10.5-3.9c-3.5,0-6.6,0.8-9.4,2.4
		c-2.8,1.6-5.1,3.9-6.8,6.8c-1.7,3-2.5,6.4-2.5,10.3s0.8,7.4,2.5,10.4c1.7,3,3.9,5.3,6.8,6.9s6,2.4,9.4,2.4c4.8,0,8.4-1.4,10.9-4.1
		l0.2-0.3v3.8h12.7V99.2z M285.3,113.2h-13.6l15.6,37.9H301l15.7-37.9H304l-9.6,23.2L285.3,113.2z M185.8,135.7v3.3
		c-0.5,1.4-1.4,2.5-2.5,3.3c-1.2,0.7-2.5,1.1-4.1,1.1c-1.5,0-2.8-0.4-3.6-1.1c-0.9-0.7-1.3-1.6-1.3-2.8c0-2.5,1.8-3.8,5.5-3.8l0.3,0
		H185.8z M135.9,123.1c2.3,0,4.2,0.8,5.7,2.4s2.2,3.8,2.2,6.6s-0.7,5-2.2,6.6s-3.4,2.4-5.7,2.4c-2.3,0-4.2-0.8-5.7-2.4
		s-2.2-3.8-2.2-6.6s0.7-5,2.2-6.6S133.6,123.1,135.9,123.1z M85.3,123.1c2.3,0,4.2,0.8,5.7,2.4c1.5,1.6,2.2,3.8,2.2,6.6
		c0,2.8-0.7,5.1-2.2,6.7s-3.4,2.4-5.7,2.4c-2.3,0-4.2-0.8-5.7-2.4s-2.2-3.8-2.2-6.7c0-2.8,0.7-5,2.2-6.6
		C81.1,123.9,83,123.1,85.3,123.1z M226.8,123.1c2.3,0,4.2,0.8,5.7,2.4c1.5,1.6,2.2,3.8,2.2,6.6c0,2.8-0.7,5.1-2.2,6.7
		c-1.5,1.6-3.4,2.4-5.7,2.4c-2.3,0-4.2-0.8-5.7-2.4s-2.2-3.8-2.2-6.7c0-2.8,0.7-5,2.2-6.6C222.5,123.9,224.5,123.1,226.8,123.1z
		 M38.4,123.1c2.3,0,4.2,0.8,5.7,2.4c1.5,1.6,2.2,3.8,2.2,6.6c0,2.8-0.7,5.1-2.2,6.7s-3.4,2.4-5.7,2.4c-2.3,0-4.2-0.8-5.7-2.4
		c-1.5-1.6-2.2-3.8-2.2-6.7c0-2.8,0.7-5,2.2-6.6C34.2,123.9,36.1,123.1,38.4,123.1z M293.4,41.6c-4,0-7.5,0.8-10.7,2.5
		c-3.2,1.7-5.7,4-7.5,7c-1.8,3-2.7,6.3-2.7,10c0,3.8,0.9,7.2,2.8,10.1c1.8,3,4.4,5.3,7.8,7c3.4,1.7,7.3,2.5,11.7,2.5
		c6.9,0,12.2-2,15.9-5.9l0.3-0.3l-7-7.3c-1.4,1.2-2.7,2-4,2.5c-1.3,0.5-2.9,0.8-4.7,0.8c-2.4,0-4.4-0.5-6.1-1.6
		c-1.5-1-2.6-2.4-3.2-4.2l-0.1-0.3h27.6c0.1-2.1,0.2-3.2,0.2-3.3c0-4.1-0.9-7.6-2.7-10.5s-4.2-5.2-7.3-6.8
		C300.6,42.3,297.1,41.6,293.4,41.6z M104.6,41.6c-4,0-7.5,0.8-10.7,2.5c-3.2,1.7-5.7,4-7.5,7c-1.8,3-2.7,6.3-2.7,10
		c0,3.8,0.9,7.2,2.8,10.1c1.8,3,4.4,5.3,7.8,7s7.3,2.5,11.7,2.5c6.9,0,12.2-2,15.9-5.9l0.3-0.3l-7-7.3c-1.4,1.2-2.7,2-4,2.5
		c-1.3,0.5-2.9,0.8-4.7,0.8c-2.4,0-4.4-0.5-6.1-1.6c-1.5-1-2.6-2.4-3.2-4.2l-0.1-0.3h27.6c0.1-2.1,0.2-3.2,0.2-3.3
		c0-4.1-0.9-7.6-2.7-10.5c-1.8-3-4.2-5.2-7.3-6.8C111.8,42.3,108.4,41.6,104.6,41.6z M193.1,42.2h-13.3v37.9h13.3V42.2z M155.8,41.6
		c-2.4,0-4.7,0.4-6.7,1.2c-1.9,0.8-3.6,1.8-5,3.2l-0.3,0.3v-4.1h-12.7v37.9h13.3V61.8c0-3,0.7-5.2,2.1-6.7s3.2-2.2,5.5-2.2
		c4.1,0,6.1,2.5,6.2,7.5l0,0.3v19.5h13.3V58.4c0-5.6-1.4-9.9-4.3-12.7C164.3,43,160.5,41.6,155.8,41.6z M31.4,31.1H20v49h12.8V54.9
		l12.5,20.4h6.2l12.6-21.1l0.1,26H77l-0.1-49H65.4L48.6,59.4L31.4,31.1z M251.1,41.6c-2.7,0-5.2,0.5-7.5,1.5c-2.3,1-4.2,2.5-5.7,4.4
		c-1.3-2-3-3.5-5.1-4.5c-2.1-1-4.5-1.5-7.1-1.5c-2.3,0-4.4,0.4-6.3,1.2c-1.8,0.7-3.4,1.8-4.7,3.1l-0.3,0.3v-4h-12.7v37.9H215V61.3
		c0-2.8,0.6-5,1.8-6.4s2.8-2.1,4.9-2.1c3.7,0,5.7,2.5,5.7,7.4l0,0.3v19.5h13.3V61.3c0-2.8,0.6-5,1.8-6.4s2.8-2.1,4.8-2.1
		c1.8,0,3.2,0.6,4.2,1.9c1,1.2,1.5,3,1.5,5.5l0,0.4v19.5h13.3V58.4c0-5.6-1.4-9.9-4.2-12.7C259.5,43,255.8,41.6,251.1,41.6z
		 M104.7,51c2.1,0,3.8,0.6,5.1,1.8c1.4,1.2,2.3,2.8,2.6,4.8H96.9c0.4-2,1.2-3.6,2.6-4.8C100.9,51.6,102.7,51,104.7,51z M293.4,51
		c2.1,0,3.8,0.6,5.1,1.8c1.4,1.2,2.3,2.8,2.6,4.8h-15.5c0.4-2,1.2-3.6,2.6-4.8C289.7,51.6,291.4,51,293.4,51z M98.3,27h-8.8
		l9.1,10.6h11.5l9.1-10.6h-8.8l-6,5.3L98.3,27z M202.3,27H189l-9.4,10.6h9.5L202.3,27z"/>
</g>
</svg>
