<?xml version="1.0" encoding="UTF-8"?>
<svg width="414px" height="330px" viewBox="0 0 414 330" version="1.1" xmlns="http://www.w3.org/2000/svg" xmlns:xlink="http://www.w3.org/1999/xlink">
    <!-- Generator: Sketch 60.1 (88133) - https://sketch.com -->
    <title>Combined Shape@3x</title>
    <desc>Created with Sketch.</desc>
    <g id="Page-1" stroke="none" stroke-width="1" fill="none" fill-rule="evenodd">
        <path d="M414,0 L414,330 L0,330 L0,0 L414,0 Z M205.23,254.56 C201.87,254.56 198.766667,255.318333 195.92,256.835 C193.073333,258.351667 190.81,260.498333 189.13,263.275 C187.45,266.051667 186.61,269.236667 186.61,272.83 C186.61,276.47 187.45,279.678333 189.13,282.455 C190.81,285.231667 193.073333,287.378333 195.92,288.895 C198.766667,290.411667 201.87,291.17 205.23,291.17 C210.026768,291.17 213.704564,289.7658 216.263388,286.957401 L216.5,286.69 L216.5,287.95 C216.5,290.983333 215.683333,293.27 214.05,294.81 C212.416667,296.35 209.85,297.12 206.35,297.12 C204.063333,297.12 201.741667,296.758333 199.385,296.035 C197.185444,295.359889 195.341593,294.45103 193.853444,293.308422 L193.54,293.06 L188.71,302.37 C190.996667,304.003333 193.773333,305.24 197.04,306.08 C200.306667,306.92 203.806667,307.34 207.54,307.34 C214.726667,307.34 220.233333,305.578333 224.06,302.055 C227.795556,298.615556 229.707804,293.497335 229.796746,286.700337 L229.8,286.2 L229.8,255.19 L217.13,255.19 L217.13,259.81 C214.61,256.31 210.643333,254.56 205.23,254.56 Z M278.73,254.56 C274.763333,254.56 271.193333,255.4 268.02,257.08 C264.846667,258.76 262.361667,261.081667 260.565,264.045 C258.768333,267.008333 257.87,270.356667 257.87,274.09 C257.87,277.87 258.791667,281.253333 260.635,284.24 C262.478333,287.226667 265.08,289.56 268.44,291.24 C271.8,292.92 275.696667,293.76 280.13,293.76 C287.058372,293.76 292.361714,291.80106 296.040027,287.88318 L296.3,287.6 L289.3,280.32 C287.946667,281.486667 286.605,282.326667 285.275,282.84 C283.945,283.353333 282.37,283.61 280.55,283.61 C278.123333,283.61 276.105,283.085 274.495,282.035 C272.979706,281.046765 271.929464,279.655484 271.344273,277.861159 L271.24,277.52 L298.82,277.52 C298.96,275.42 299.03,274.323333 299.03,274.23 C299.03,270.17 298.131667,266.658333 296.335,263.695 C294.538333,260.731667 292.1,258.468333 289.02,256.905 C285.94,255.341667 282.51,254.56 278.73,254.56 Z M37.86,254.56 C33.8933333,254.56 30.3233333,255.4 27.15,257.08 C23.9766667,258.76 21.4916667,261.081667 19.695,264.045 C17.8983333,267.008333 17,270.356667 17,274.09 C17,277.87 17.9216667,281.253333 19.765,284.24 C21.6083333,287.226667 24.21,289.56 27.57,291.24 C30.93,292.92 34.8266667,293.76 39.26,293.76 C46.1883721,293.76 51.4917144,291.80106 55.170027,287.88318 L55.43,287.6 L48.43,280.32 C47.0766667,281.486667 45.735,282.326667 44.405,282.84 C43.075,283.353333 41.5,283.61 39.68,283.61 C37.2533333,283.61 35.235,283.085 33.625,282.035 C32.1097059,281.046765 31.0594637,279.655484 30.4742734,277.861159 L30.37,277.52 L57.95,277.52 C58.09,275.42 58.16,274.323333 58.16,274.23 C58.16,270.17 57.2616667,266.658333 55.465,263.695 C53.6683333,260.731667 51.23,258.468333 48.15,256.905 C45.07,255.341667 41.64,254.56 37.86,254.56 Z M131.52,254.56 C127.553333,254.56 123.983333,255.4 120.81,257.08 C117.636667,258.76 115.151667,261.081667 113.355,264.045 C111.558333,267.008333 110.66,270.356667 110.66,274.09 C110.66,277.87 111.581667,281.253333 113.425,284.24 C115.268333,287.226667 117.87,289.56 121.23,291.24 C124.59,292.92 128.486667,293.76 132.92,293.76 C139.848372,293.76 145.151714,291.80106 148.830027,287.88318 L149.09,287.6 L142.09,280.32 C140.736667,281.486667 139.395,282.326667 138.065,282.84 C136.735,283.353333 135.16,283.61 133.34,283.61 C130.913333,283.61 128.895,283.085 127.285,282.035 C125.769706,281.046765 124.719464,279.655484 124.134273,277.861159 L124.03,277.52 L151.61,277.52 C151.75,275.42 151.82,274.323333 151.82,274.23 C151.82,270.17 150.921667,266.658333 149.125,263.695 C147.328333,260.731667 144.89,258.468333 141.81,256.905 C138.73,255.341667 135.3,254.56 131.52,254.56 Z M251.64,255.19 L238.34,255.19 L238.34,293.13 L251.64,293.13 L251.64,255.19 Z M89.03,254.56 C86.6033333,254.56 84.3633333,254.968333 82.31,255.785 C80.4033333,256.543333 78.7380952,257.613512 77.3142857,258.995536 L76.99,259.32 L76.99,255.19 L64.32,255.19 L64.32,293.13 L77.62,293.13 L77.62,274.79 C77.62,271.803333 78.3083333,269.563333 79.685,268.07 C81.0616667,266.576667 82.8933333,265.83 85.18,265.83 C89.2485714,265.83 91.3243732,268.315364 91.4074052,273.286093 L91.41,273.6 L91.41,293.13 L104.71,293.13 L104.71,271.43 C104.71,265.783333 103.275,261.56 100.405,258.76 C97.535,255.96 93.7433333,254.56 89.03,254.56 Z M183.39,254.56 C180.59,254.56 178.105,254.991667 175.935,255.855 C173.900625,256.664375 172.225137,257.853145 170.908535,259.421309 L170.65,259.74 L170.65,255.19 L157.98,255.19 L157.98,293.13 L171.28,293.13 L171.28,275.7 C171.28,272.526667 172.085,270.17 173.695,268.63 C175.305,267.09 177.533333,266.32 180.38,266.32 C181.085185,266.32 181.956296,266.375309 182.993333,266.485926 L183.39,266.53 L183.39,254.56 Z M208.38,265.13 C210.806667,265.13 212.79,265.841667 214.33,267.265 C215.87,268.688333 216.64,270.543333 216.64,272.83 C216.64,275.116667 215.858333,276.983333 214.295,278.43 C212.731667,279.876667 210.76,280.6 208.38,280.6 C206,280.6 204.016667,279.876667 202.43,278.43 C200.843333,276.983333 200.05,275.116667 200.05,272.83 C200.05,270.543333 200.831667,268.688333 202.395,267.265 C203.958333,265.841667 205.953333,265.13 208.38,265.13 Z M131.59,264.01 C133.643333,264.01 135.358333,264.593333 136.735,265.76 C138.111667,266.926667 138.986667,268.513333 139.36,270.52 L123.82,270.52 C124.193333,268.513333 125.068333,266.926667 126.445,265.76 C127.821667,264.593333 129.536667,264.01 131.59,264.01 Z M37.93,264.01 C39.9833333,264.01 41.6983333,264.593333 43.075,265.76 C44.4516667,266.926667 45.3266667,268.513333 45.7,270.52 L30.16,270.52 C30.5333333,268.513333 31.4083333,266.926667 32.785,265.76 C34.1616667,264.593333 35.8766667,264.01 37.93,264.01 Z M278.8,264.01 C280.853333,264.01 282.568333,264.593333 283.945,265.76 C285.321667,266.926667 286.196667,268.513333 286.57,270.52 L271.03,270.52 C271.403333,268.513333 272.278333,266.926667 273.655,265.76 C275.031667,264.593333 276.746667,264.01 278.8,264.01 Z M244.99,236.85 C242.563333,236.85 240.603333,237.526667 239.11,238.88 C237.616667,240.233333 236.87,241.913333 236.87,243.92 C236.87,245.926667 237.616667,247.606667 239.11,248.96 C240.603333,250.313333 242.563333,250.99 244.99,250.99 C247.416667,250.99 249.376667,250.301667 250.87,248.925 C252.363333,247.548333 253.11,245.81 253.11,243.71 C253.11,241.703333 252.363333,240.058333 250.87,238.775 C249.376667,237.491667 247.416667,236.85 244.99,236.85 Z M355.59,184.19 L342.29,184.19 L342.29,205.4 C342.29,211.186667 343.748333,215.526667 346.665,218.42 C349.581667,221.313333 353.49,222.76 358.39,222.76 C360.583333,222.76 362.66,222.363333 364.62,221.57 C366.44,220.833333 368.018571,219.774762 369.355714,218.394286 L369.66,218.07 L369.66,222.13 L382.33,222.13 L382.33,184.19 L369.03,184.19 L369.03,202.46 C369.03,205.493333 368.365,207.745 367.035,209.215 C365.705,210.685 363.99,211.42 361.89,211.42 C359.836667,211.42 358.273333,210.766667 357.2,209.46 C356.175455,208.212727 355.639897,206.263864 355.593326,203.613409 L355.59,203.23 L355.59,184.19 Z M32.54,184.19 L19.24,184.19 L19.24,205.4 C19.24,211.186667 20.6983333,215.526667 23.615,218.42 C26.5316667,221.313333 30.44,222.76 35.34,222.76 C37.5333333,222.76 39.61,222.363333 41.57,221.57 C43.39,220.833333 44.9685714,219.774762 46.3057143,218.394286 L46.61,218.07 L46.61,222.13 L59.28,222.13 L59.28,184.19 L45.98,184.19 L45.98,202.46 C45.98,205.493333 45.315,207.745 43.985,209.215 C42.655,210.685 40.94,211.42 38.84,211.42 C36.7866667,211.42 35.2233333,210.766667 34.15,209.46 C33.1254545,208.212727 32.5898967,206.263864 32.5433264,203.613409 L32.54,203.23 L32.54,184.19 Z M314.85,183.56 C310.743333,183.56 307.068333,184.388333 303.825,186.045 C300.581667,187.701667 298.038333,190.023333 296.195,193.01 C294.351667,195.996667 293.43,199.356667 293.43,203.09 C293.43,206.87 294.351667,210.253333 296.195,213.24 C298.038333,216.226667 300.593333,218.56 303.86,220.24 C307.126667,221.92 310.79,222.76 314.85,222.76 C318.956667,222.76 322.643333,221.92 325.91,220.24 C329.176667,218.56 331.72,216.226667 333.54,213.24 C335.36,210.253333 336.27,206.87 336.27,203.09 C336.27,199.31 335.36,195.938333 333.54,192.975 C331.72,190.011667 329.176667,187.701667 325.91,186.045 C322.643333,184.388333 318.956667,183.56 314.85,183.56 Z M224.27,183.56 C220.07,183.56 216.313333,184.388333 213,186.045 C209.686667,187.701667 207.108333,190.011667 205.265,192.975 C203.421667,195.938333 202.5,199.31 202.5,203.09 C202.5,206.87 203.421667,210.253333 205.265,213.24 C207.108333,216.226667 209.686667,218.56 213,220.24 C216.313333,221.92 220.07,222.76 224.27,222.76 C228.563333,222.76 232.273333,221.838333 235.4,219.995 C238.4016,218.2254 240.564544,215.799928 241.888832,212.718584 L242.05,212.33 L231.76,207.08 C230.033333,210.486667 227.513333,212.19 224.2,212.19 C221.82,212.19 219.848333,211.385 218.285,209.775 C216.721667,208.165 215.94,205.936667 215.94,203.09 C215.94,200.29 216.721667,198.096667 218.285,196.51 C219.848333,194.923333 221.82,194.13 224.2,194.13 C227.412929,194.13 229.879878,195.731665 231.600845,198.934995 L231.76,199.24 L242.05,193.99 C240.743333,190.723333 238.526667,188.168333 235.4,186.325 C232.273333,184.481667 228.563333,183.56 224.27,183.56 Z M178.42,183.56 C174.453333,183.56 170.883333,184.4 167.71,186.08 C164.536667,187.76 162.051667,190.081667 160.255,193.045 C158.458333,196.008333 157.56,199.356667 157.56,203.09 C157.56,206.87 158.481667,210.253333 160.325,213.24 C162.168333,216.226667 164.77,218.56 168.13,220.24 C171.49,221.92 175.386667,222.76 179.82,222.76 C186.748372,222.76 192.051714,220.80106 195.730027,216.88318 L195.99,216.6 L188.99,209.32 C187.636667,210.486667 186.295,211.326667 184.965,211.84 C183.635,212.353333 182.06,212.61 180.24,212.61 C177.813333,212.61 175.795,212.085 174.185,211.035 C172.669706,210.046765 171.619464,208.655484 171.034273,206.861159 L170.93,206.52 L198.51,206.52 C198.65,204.42 198.72,203.323333 198.72,203.23 C198.72,199.17 197.821667,195.658333 196.025,192.695 C194.228333,189.731667 191.79,187.468333 188.71,185.905 C185.63,184.341667 182.2,183.56 178.42,183.56 Z M143.49,175.72 L130.19,175.72 L130.19,185.59 L124.66,185.59 L124.66,195.53 L130.19,195.53 L130.19,208.27 C130.19,213.076667 131.52,216.693333 134.18,219.12 C136.84,221.546667 140.643333,222.76 145.59,222.76 C147.41,222.76 149.125,222.573333 150.735,222.2 C152.198636,221.860606 153.459793,221.386226 154.518471,220.77686 L154.83,220.59 L151.54,211.28 C150.373333,212.073333 149.02,212.47 147.48,212.47 C146.266667,212.47 145.298333,212.085 144.575,211.315 C143.903333,210.6 143.543512,209.633512 143.495536,208.415536 L143.49,208.13 L143.49,195.53 L152.17,195.53 L152.17,185.59 L143.49,185.59 L143.49,175.72 Z M120.04,184.19 L106.74,184.19 L106.74,222.13 L120.04,222.13 L120.04,184.19 Z M100.16,184.19 L66.35,184.19 L66.35,194.06 L83.43,194.06 L65.86,214.29 L65.86,222.13 L100.86,222.13 L100.86,212.19 L82.59,212.19 L100.16,191.96 L100.16,184.19 Z M271.8,183.56 C269.373333,183.56 267.133333,183.968333 265.08,184.785 C263.173333,185.543333 261.508095,186.613512 260.084286,187.995536 L259.76,188.32 L259.76,184.19 L247.09,184.19 L247.09,222.13 L260.39,222.13 L260.39,203.79 C260.39,200.803333 261.078333,198.563333 262.455,197.07 C263.831667,195.576667 265.663333,194.83 267.95,194.83 C272.018571,194.83 274.094373,197.315364 274.177405,202.286093 L274.18,202.6 L274.18,222.13 L287.48,222.13 L287.48,200.43 C287.48,194.783333 286.045,190.56 283.175,187.76 C280.305,184.96 276.513333,183.56 271.8,183.56 Z M314.85,194.13 C317.183333,194.13 319.096667,194.923333 320.59,196.51 C322.083333,198.096667 322.83,200.29 322.83,203.09 C322.83,205.936667 322.083333,208.165 320.59,209.775 C319.096667,211.385 317.183333,212.19 314.85,212.19 C312.516667,212.19 310.603333,211.385 309.11,209.775 C307.616667,208.165 306.87,205.936667 306.87,203.09 C306.87,200.29 307.616667,198.096667 309.11,196.51 C310.603333,194.923333 312.516667,194.13 314.85,194.13 Z M178.49,193.01 C180.543333,193.01 182.258333,193.593333 183.635,194.76 C185.011667,195.926667 185.886667,197.513333 186.26,199.52 L170.72,199.52 C171.093333,197.513333 171.968333,195.926667 173.345,194.76 C174.721667,193.593333 176.436667,193.01 178.49,193.01 Z M113.39,165.85 C110.963333,165.85 109.003333,166.526667 107.51,167.88 C106.016667,169.233333 105.27,170.913333 105.27,172.92 C105.27,174.926667 106.016667,176.606667 107.51,177.96 C109.003333,179.313333 110.963333,179.99 113.39,179.99 C115.816667,179.99 117.776667,179.301667 119.27,177.925 C120.763333,176.548333 121.51,174.81 121.51,172.71 C121.51,170.703333 120.763333,169.058333 119.27,167.775 C117.776667,166.491667 115.816667,165.85 113.39,165.85 Z M77.27,169 L68.45,169 L77.55,179.64 L89.03,179.64 L98.13,169 L89.31,169 L83.29,174.32 L77.27,169 Z M216.85,169 L208.03,169 L217.13,179.64 L228.61,179.64 L237.71,169 L228.89,169 L222.87,174.32 L216.85,169 Z M138.73,112.56 C133.88798,112.56 130.230753,113.942259 127.75832,116.706777 L127.53,116.97 L127.53,113.19 L114.86,113.19 L114.86,164.71 L128.16,164.71 L128.16,147.77 C130.773333,150.43 134.296667,151.76 138.73,151.76 C142.183333,151.76 145.321667,150.955 148.145,149.345 C150.968333,147.735 153.208333,145.448333 154.865,142.485 C156.521667,139.521667 157.35,136.08 157.35,132.16 C157.35,128.24 156.521667,124.798333 154.865,121.835 C153.208333,118.871667 150.968333,116.585 148.145,114.975 C145.321667,113.365 142.183333,112.56 138.73,112.56 Z M38.42,112.56 C34.3133333,112.56 30.6383333,113.388333 27.395,115.045 C24.1516667,116.701667 21.6083333,119.023333 19.765,122.01 C17.9216667,124.996667 17,128.356667 17,132.09 C17,135.87 17.9216667,139.253333 19.765,142.24 C21.6083333,145.226667 24.1633333,147.56 27.43,149.24 C30.6966667,150.92 34.36,151.76 38.42,151.76 C42.5266667,151.76 46.2133333,150.92 49.48,149.24 C52.7466667,147.56 55.29,145.226667 57.11,142.24 C58.93,139.253333 59.84,135.87 59.84,132.09 C59.84,128.31 58.93,124.938333 57.11,121.975 C55.29,119.011667 52.7466667,116.701667 49.48,115.045 C46.2133333,113.388333 42.5266667,112.56 38.42,112.56 Z M247.79,99.19 L234.49,99.19 L234.49,116.48 C232.016667,113.866667 228.516667,112.56 223.99,112.56 C220.536667,112.56 217.386667,113.353333 214.54,114.94 C211.693333,116.526667 209.441667,118.801667 207.785,121.765 C206.128333,124.728333 205.3,128.17 205.3,132.09 C205.3,136.01 206.128333,139.463333 207.785,142.45 C209.441667,145.436667 211.693333,147.735 214.54,149.345 C217.386667,150.955 220.536667,151.76 223.99,151.76 C228.786768,151.76 232.420683,150.377741 234.891745,147.613223 L235.12,147.35 L235.12,151.13 L247.79,151.13 L247.79,99.19 Z M179.68,112.56 C176.646667,112.56 173.625,112.945 170.615,113.715 C167.805667,114.433667 165.392689,115.426733 163.376067,116.6942 L162.95,116.97 L167.43,126 C168.736667,124.973333 170.323333,124.168333 172.19,123.585 C174.056667,123.001667 175.9,122.71 177.72,122.71 C182.744113,122.71 185.421373,124.632185 185.751779,128.476555 L185.77,128.73 L178.21,128.73 C172.47,128.73 168.223333,129.721667 165.47,131.705 C162.716667,133.688333 161.34,136.476667 161.34,140.07 C161.34,142.31 161.888333,144.305 162.985,146.055 C164.081667,147.805 165.703333,149.193333 167.85,150.22 C169.996667,151.246667 172.54,151.76 175.48,151.76 C180.897886,151.76 184.58347,150.005489 186.536752,146.496466 L186.68,146.23 L186.68,151.13 L199.07,151.13 L199.07,130.06 C199.07,124.133333 197.413333,119.735 194.1,116.865 C190.786667,113.995 185.98,112.56 179.68,112.56 Z M106.32,99.19 L93.02,99.19 L93.02,116.48 C90.5466667,113.866667 87.0466667,112.56 82.52,112.56 C79.0666667,112.56 75.9166667,113.353333 73.07,114.94 C70.2233333,116.526667 67.9716667,118.801667 66.315,121.765 C64.6583333,124.728333 63.83,128.17 63.83,132.09 C63.83,136.01 64.6583333,139.463333 66.315,142.45 C67.9716667,145.436667 70.2233333,147.735 73.07,149.345 C75.9166667,150.955 79.0666667,151.76 82.52,151.76 C87.3167677,151.76 90.9506826,150.377741 93.4217447,147.613223 L93.65,147.35 L93.65,151.13 L106.32,151.13 L106.32,99.19 Z M285.31,113.19 L271.66,113.19 L287.27,151.13 L300.99,151.13 L316.67,113.19 L304,113.19 L294.41,136.36 L285.31,113.19 Z M185.77,135.66 L185.77,138.95 C185.256667,140.396667 184.416667,141.493333 183.25,142.24 C182.083333,142.986667 180.73,143.36 179.19,143.36 C177.65,143.36 176.436667,143.01 175.55,142.31 C174.663333,141.61 174.22,140.676667 174.22,139.51 C174.22,137.010877 176.056078,135.728433 179.728234,135.662666 L180.03,135.66 L185.77,135.66 Z M135.93,123.13 C138.263333,123.13 140.176667,123.935 141.67,125.545 C143.163333,127.155 143.91,129.36 143.91,132.16 C143.91,134.96 143.163333,137.165 141.67,138.775 C140.176667,140.385 138.263333,141.19 135.93,141.19 C133.596667,141.19 131.683333,140.385 130.19,138.775 C128.696667,137.165 127.95,134.96 127.95,132.16 C127.95,129.36 128.696667,127.155 130.19,125.545 C131.683333,123.935 133.596667,123.13 135.93,123.13 Z M85.32,123.13 C87.6533333,123.13 89.555,123.923333 91.025,125.51 C92.495,127.096667 93.23,129.29 93.23,132.09 C93.23,134.936667 92.4833333,137.165 90.99,138.775 C89.4966667,140.385 87.6066667,141.19 85.32,141.19 C82.9866667,141.19 81.0733333,140.385 79.58,138.775 C78.0866667,137.165 77.34,134.936667 77.34,132.09 C77.34,129.29 78.0866667,127.096667 79.58,125.51 C81.0733333,123.923333 82.9866667,123.13 85.32,123.13 Z M226.79,123.13 C229.123333,123.13 231.025,123.923333 232.495,125.51 C233.965,127.096667 234.7,129.29 234.7,132.09 C234.7,134.936667 233.953333,137.165 232.46,138.775 C230.966667,140.385 229.076667,141.19 226.79,141.19 C224.456667,141.19 222.543333,140.385 221.05,138.775 C219.556667,137.165 218.81,134.936667 218.81,132.09 C218.81,129.29 219.556667,127.096667 221.05,125.51 C222.543333,123.923333 224.456667,123.13 226.79,123.13 Z M38.42,123.13 C40.7533333,123.13 42.6666667,123.923333 44.16,125.51 C45.6533333,127.096667 46.4,129.29 46.4,132.09 C46.4,134.936667 45.6533333,137.165 44.16,138.775 C42.6666667,140.385 40.7533333,141.19 38.42,141.19 C36.0866667,141.19 34.1733333,140.385 32.68,138.775 C31.1866667,137.165 30.44,134.936667 30.44,132.09 C30.44,129.29 31.1866667,127.096667 32.68,125.51 C34.1733333,123.923333 36.0866667,123.13 38.42,123.13 Z M293.36,41.56 C289.393333,41.56 285.823333,42.4 282.65,44.08 C279.476667,45.76 276.991667,48.0816667 275.195,51.045 C273.398333,54.0083333 272.5,57.3566667 272.5,61.09 C272.5,64.87 273.421667,68.2533333 275.265,71.24 C277.108333,74.2266667 279.71,76.56 283.07,78.24 C286.43,79.92 290.326667,80.76 294.76,80.76 C301.688372,80.76 306.991714,78.80106 310.670027,74.8831801 L310.93,74.6 L303.93,67.32 C302.576667,68.4866667 301.235,69.3266667 299.905,69.84 C298.575,70.3533333 297,70.61 295.18,70.61 C292.753333,70.61 290.735,70.085 289.125,69.035 C287.609706,68.0467647 286.559464,66.6554844 285.974273,64.8611592 L285.87,64.52 L313.45,64.52 C313.59,62.42 313.66,61.3233333 313.66,61.23 C313.66,57.17 312.761667,53.6583333 310.965,50.695 C309.168333,47.7316667 306.73,45.4683333 303.65,43.905 C300.57,42.3416667 297.14,41.56 293.36,41.56 Z M104.64,41.56 C100.673333,41.56 97.1033333,42.4 93.93,44.08 C90.7566667,45.76 88.2716667,48.0816667 86.475,51.045 C84.6783333,54.0083333 83.78,57.3566667 83.78,61.09 C83.78,64.87 84.7016667,68.2533333 86.545,71.24 C88.3883333,74.2266667 90.99,76.56 94.35,78.24 C97.71,79.92 101.606667,80.76 106.04,80.76 C112.968372,80.76 118.271714,78.80106 121.950027,74.8831801 L122.21,74.6 L115.21,67.32 C113.856667,68.4866667 112.515,69.3266667 111.185,69.84 C109.855,70.3533333 108.28,70.61 106.46,70.61 C104.033333,70.61 102.015,70.085 100.405,69.035 C98.8897059,68.0467647 97.8394637,66.6554844 97.2542734,64.8611592 L97.15,64.52 L124.73,64.52 C124.87,62.42 124.94,61.3233333 124.94,61.23 C124.94,57.17 124.041667,53.6583333 122.245,50.695 C120.448333,47.7316667 118.01,45.4683333 114.93,43.905 C111.85,42.3416667 108.42,41.56 104.64,41.56 Z M193.12,42.19 L179.82,42.19 L179.82,80.13 L193.12,80.13 L193.12,42.19 Z M155.81,41.56 C153.383333,41.56 151.143333,41.9683333 149.09,42.785 C147.183333,43.5433333 145.518095,44.6135119 144.094286,45.9955357 L143.77,46.32 L143.77,42.19 L131.1,42.19 L131.1,80.13 L144.4,80.13 L144.4,61.79 C144.4,58.8033333 145.088333,56.5633333 146.465,55.07 C147.841667,53.5766667 149.673333,52.83 151.96,52.83 C156.028571,52.83 158.104373,55.3153644 158.187405,60.2860933 L158.19,60.6 L158.19,80.13 L171.49,80.13 L171.49,58.43 C171.49,52.7833333 170.055,48.56 167.185,45.76 C164.315,42.96 160.523333,41.56 155.81,41.56 Z M31.42,31.13 L20.01,31.13 L20.01,80.13 L32.82,80.13 L32.82,54.86 L45.35,75.3 L51.51,75.3 L64.11,54.16 L64.25,80.13 L76.99,80.13 L76.85,31.13 L65.44,31.13 L48.64,59.41 L31.42,31.13 Z M251.15,41.56 C248.443333,41.56 245.946667,42.0733333 243.66,43.1 C241.373333,44.1266667 239.483333,45.5966667 237.99,47.51 C236.683333,45.5033333 234.98,44.01 232.88,43.03 C230.78,42.05 228.4,41.56 225.74,41.56 C223.453333,41.56 221.341667,41.945 219.405,42.715 C217.606667,43.43 216.039702,44.4769643 214.704107,45.8558929 L214.4,46.18 L214.4,42.19 L201.73,42.19 L201.73,80.13 L215.03,80.13 L215.03,61.3 C215.03,58.4533333 215.636667,56.33 216.85,54.93 C218.063333,53.53 219.696667,52.83 221.75,52.83 C225.496944,52.83 227.409447,55.3132075 227.487509,60.2796224 L227.49,60.6 L227.49,80.13 L240.79,80.13 L240.79,61.3 C240.79,58.4533333 241.396667,56.33 242.61,54.93 C243.823333,53.53 245.433333,52.83 247.44,52.83 C249.26,52.83 250.671667,53.46 251.675,54.72 C252.628167,55.917 253.128579,57.74575 253.176237,60.20625 L253.18,60.6 L253.18,80.13 L266.48,80.13 L266.48,58.43 C266.48,52.7833333 265.091667,48.56 262.315,45.76 C259.538333,42.96 255.816667,41.56 251.15,41.56 Z M104.71,51.01 C106.763333,51.01 108.478333,51.5933333 109.855,52.76 C111.231667,53.9266667 112.106667,55.5133333 112.48,57.52 L96.94,57.52 C97.3133333,55.5133333 98.1883333,53.9266667 99.565,52.76 C100.941667,51.5933333 102.656667,51.01 104.71,51.01 Z M293.43,51.01 C295.483333,51.01 297.198333,51.5933333 298.575,52.76 C299.951667,53.9266667 300.826667,55.5133333 301.2,57.52 L285.66,57.52 C286.033333,55.5133333 286.908333,53.9266667 288.285,52.76 C289.661667,51.5933333 291.376667,51.01 293.43,51.01 Z M98.34,27 L89.52,27 L98.62,37.64 L110.1,37.64 L119.2,27 L110.38,27 L104.36,32.32 L98.34,27 Z M202.29,27 L188.99,27 L179.61,37.64 L189.13,37.64 L202.29,27 Z" id="Combined-Shape" fill="#FFFFFF"></path>
    </g>
</svg>