<?xml version="1.0" encoding="UTF-8"?>
<svg width="1440px" height="459px" viewBox="0 0 1440 459" version="1.1" xmlns="http://www.w3.org/2000/svg" xmlns:xlink="http://www.w3.org/1999/xlink">
    <!-- Generator: Sketch 60.1 (88133) - https://sketch.com -->
    <title>Combined Shape@3x</title>
    <desc>Created with Sketch.</desc>
    <g id="Page-1" stroke="none" stroke-width="1" fill="none" fill-rule="evenodd">
        <g id="EEW-web-desktop-with-time-line" transform="translate(0.000000, -104.000000)" fill="#FFFFFF">
            <path d="M1440,104 L1440,563 L0,563 L0,104 L1440,104 Z M1099.704,354.546 L1077.864,354.546 L1103.848,416.034 C1102.952,417.826 1101.85067,419.132667 1100.544,419.954 C1099.23733,420.775333 1097.576,421.186 1095.56,421.186 C1093.84267,421.186 1092.144,420.868667 1090.464,420.234 C1088.924,419.652222 1087.58791,418.866537 1086.45572,417.876944 L1086.152,417.602 L1078.76,432.498 C1080.776,434.140667 1083.408,435.466 1086.656,436.474 C1089.904,437.482 1093.13333,437.986 1096.344,437.986 C1102.69067,437.986 1108.06667,436.474 1112.472,433.45 C1116.7614,430.505579 1120.41371,425.455199 1123.42892,418.298859 L1123.672,417.714 L1149.88,354.546 L1129.608,354.546 L1114.6,391.618 L1099.704,354.546 Z M1032.952,353.538 C1027.576,353.538 1022.61067,354.751333 1018.056,357.178 C1013.50133,359.604667 1009.88,363.039333 1007.192,367.482 C1004.504,371.924667 1003.16,377.020667 1003.16,382.77 C1003.16,388.594 1004.504,393.727333 1007.192,398.17 C1009.88,402.612667 1013.50133,406.047333 1018.056,408.474 C1022.61067,410.900667 1027.576,412.114 1032.952,412.114 C1040.69461,412.114 1046.6151,409.827422 1050.71347,405.254265 L1050.984,404.946 L1050.984,406.962 C1050.984,411.815333 1049.67733,415.474 1047.064,417.938 C1044.45067,420.402 1040.344,421.634 1034.744,421.634 C1031.08533,421.634 1027.37067,421.055333 1023.6,419.898 C1020.02779,418.801579 1017.04195,417.319828 1014.64248,415.452748 L1014.248,415.138 L1006.52,430.034 C1010.17867,432.647333 1014.62133,434.626 1019.848,435.97 C1025.07467,437.314 1030.67467,437.986 1036.648,437.986 C1048.14667,437.986 1056.95733,435.167333 1063.08,429.53 C1069.09333,423.993333 1072.15369,415.737768 1072.26107,404.763304 L1072.264,404.162 L1072.264,354.546 L1051.992,354.546 L1051.992,361.938 C1047.96,356.338 1041.61333,353.538 1032.952,353.538 Z M915.016,353.538 C908.669333,353.538 902.957333,354.882 897.88,357.57 C892.802667,360.258 888.826667,363.972667 885.952,368.714 C883.077333,373.455333 881.64,378.812667 881.64,384.786 C881.64,390.834 883.114667,396.247333 886.064,401.026 C889.013333,405.804667 893.176,409.538 898.552,412.226 C903.928,414.914 910.162667,416.258 917.256,416.258 C928.402667,416.258 936.920464,413.088952 942.809393,406.750857 L943.128,406.402 L931.928,394.754 C929.762667,396.620667 927.616,397.964667 925.488,398.786 C923.36,399.607333 920.84,400.018 917.928,400.018 C914.045333,400.018 910.816,399.178 908.24,397.498 C905.771333,395.888 904.074125,393.609403 903.148375,390.662208 L903.032,390.274 L947.16,390.274 C947.384,386.914 947.496,385.159333 947.496,385.01 C947.496,378.514 946.058667,372.895333 943.184,368.154 C940.309333,363.412667 936.408,359.791333 931.48,357.29 C926.552,354.788667 921.064,353.538 915.016,353.538 Z M765.16,353.538 C758.813333,353.538 753.101333,354.882 748.024,357.57 C742.946667,360.258 738.970667,363.972667 736.096,368.714 C733.221333,373.455333 731.784,378.812667 731.784,384.786 C731.784,390.834 733.258667,396.247333 736.208,401.026 C739.157333,405.804667 743.32,409.538 748.696,412.226 C754.072,414.914 760.306667,416.258 767.4,416.258 C778.546667,416.258 787.064464,413.088952 792.953393,406.750857 L793.272,406.402 L782.072,394.754 C779.906667,396.620667 777.76,397.964667 775.632,398.786 C773.504,399.607333 770.984,400.018 768.072,400.018 C764.189333,400.018 760.96,399.178 758.384,397.498 C755.915333,395.888 754.218125,393.609403 753.292375,390.662208 L753.176,390.274 L797.304,390.274 C797.528,386.914 797.64,385.159333 797.64,385.01 C797.64,378.514 796.202667,372.895333 793.328,368.154 C790.453333,363.412667 786.552,359.791333 781.624,357.29 C776.696,354.788667 771.208,353.538 765.16,353.538 Z M611.496,354.546 L590.216,354.546 L590.216,388.482 C590.216,397.740667 592.549333,404.684667 597.216,409.314 C601.882667,413.943333 608.136,416.258 615.976,416.258 C619.485333,416.258 622.808,415.623333 625.944,414.354 C628.905778,413.155185 631.467951,411.423564 633.630519,409.159136 L634.008,408.754 L634.008,415.25 L654.28,415.25 L654.28,354.546 L633,354.546 L633,383.778 C633,388.631333 631.936,392.234 629.808,394.586 C627.68,396.938 624.936,398.114 621.576,398.114 C618.290667,398.114 615.789333,397.068667 614.072,394.978 C612.413885,392.959425 611.556239,389.792351 611.499063,385.476778 L611.496,385.01 L611.496,354.546 Z M502.632,353.538 C496.285333,353.538 490.573333,354.882 485.496,357.57 C480.418667,360.258 476.442667,363.972667 473.568,368.714 C470.693333,373.455333 469.256,378.812667 469.256,384.786 C469.256,390.834 470.730667,396.247333 473.68,401.026 C476.629333,405.804667 480.792,409.538 486.168,412.226 C491.544,414.914 497.778667,416.258 504.872,416.258 C516.018667,416.258 524.536464,413.088952 530.425393,406.750857 L530.744,406.402 L519.544,394.754 C517.378667,396.620667 515.232,397.964667 513.104,398.786 C510.976,399.607333 508.456,400.018 505.544,400.018 C501.661333,400.018 498.432,399.178 495.856,397.498 C493.387333,395.888 491.690125,393.609403 490.764375,390.662208 L490.648,390.274 L534.776,390.274 C535,386.914 535.112,385.159333 535.112,385.01 C535.112,378.514 533.674667,372.895333 530.8,368.154 C527.925333,363.412667 524.024,359.791333 519.096,357.29 C514.168,354.788667 508.68,353.538 502.632,353.538 Z M437.784,353.538 C431.586667,353.538 426.266667,354.415333 421.824,356.17 C417.381333,357.924667 414.002667,360.314 411.688,363.338 C409.373333,366.362 408.216,369.815333 408.216,373.698 C408.216,378.402 409.448,382.060667 411.912,384.674 C414.376,387.287333 417.306667,389.079333 420.704,390.05 C424.101333,391.020667 428.226667,391.804667 433.08,392.402 C436.888,392.924667 439.669333,393.466 441.424,394.026 C443.178667,394.586 444.056,395.538 444.056,396.882 C444.056,398.226 443.328,399.252667 441.872,399.962 C440.416,400.671333 437.970667,401.026 434.536,401.026 C430.802667,401.026 427.032,400.522 423.224,399.514 C419.64,398.565294 416.518985,397.30242 413.860955,395.725377 L413.368,395.426 L406.984,409.986 C409.970667,411.852667 413.928,413.364667 418.856,414.522 C423.784,415.679333 428.786667,416.258 433.864,416.258 C440.210667,416.258 445.642667,415.399333 450.16,413.682 C454.677333,411.964667 458.093333,409.594 460.408,406.57 C462.722667,403.546 463.88,400.13 463.88,396.322 C463.88,391.692667 462.666667,388.09 460.24,385.514 C457.813333,382.938 454.957333,381.164667 451.672,380.194 C448.386667,379.223333 444.242667,378.364667 439.24,377.618 C435.282667,377.020667 432.445333,376.442 430.728,375.882 C429.010667,375.322 428.152,374.332667 428.152,372.914 C428.152,371.644667 428.936,370.618 430.504,369.834 C432.072,369.05 434.536,368.658 437.896,368.658 C443.951724,368.658 449.589812,370.05012 454.810264,372.834361 L455.368,373.138 L461.752,358.69 C458.84,357.047333 455.218667,355.778 450.888,354.882 C446.557333,353.986 442.189333,353.538 437.784,353.538 Z M355.352,354.546 L334.072,354.546 L334.072,388.482 C334.072,397.740667 336.405333,404.684667 341.072,409.314 C345.738667,413.943333 351.992,416.258 359.832,416.258 C363.341333,416.258 366.664,415.623333 369.8,414.354 C372.761778,413.155185 375.323951,411.423564 377.486519,409.159136 L377.864,408.754 L377.864,415.25 L398.136,415.25 L398.136,354.546 L376.856,354.546 L376.856,383.778 C376.856,388.631333 375.792,392.234 373.664,394.586 C371.536,396.938 368.792,398.114 365.432,398.114 C362.146667,398.114 359.645333,397.068667 357.928,394.978 C356.269885,392.959425 355.412239,389.792351 355.355063,385.476778 L355.352,385.01 L355.352,354.546 Z M257.576,353.538 C251.005333,353.538 245.125333,354.863333 239.936,357.514 C234.746667,360.164667 230.677333,363.879333 227.728,368.658 C224.778667,373.436667 223.304,378.812667 223.304,384.786 C223.304,390.834 224.778667,396.247333 227.728,401.026 C230.677333,405.804667 234.765333,409.538 239.992,412.226 C245.218667,414.914 251.08,416.258 257.576,416.258 C264.146667,416.258 270.045333,414.914 275.272,412.226 C280.498667,409.538 284.568,405.804667 287.48,401.026 C290.392,396.247333 291.848,390.834 291.848,384.786 C291.848,378.738 290.392,373.343333 287.48,368.602 C284.568,363.860667 280.498667,360.164667 275.272,357.514 C270.045333,354.863333 264.146667,353.538 257.576,353.538 Z M200.792,340.994 L179.512,340.994 L179.512,356.786 L170.664,356.786 L170.664,372.69 L179.512,372.69 L179.512,393.074 C179.512,400.764667 181.64,406.551333 185.896,410.434 C190.152,414.316667 196.237333,416.258 204.152,416.258 C207.064,416.258 209.808,415.959333 212.384,415.362 C214.776,414.807333 216.83,414.027333 218.546,413.022 L218.936,412.786 L213.672,397.89 C211.805333,399.159333 209.64,399.794 207.176,399.794 C205.234667,399.794 203.685333,399.178 202.528,397.946 C201.434963,396.782444 200.858082,395.202634 200.797358,393.206568 L200.792,392.85 L200.792,372.69 L214.68,372.69 L214.68,356.786 L200.792,356.786 L200.792,340.994 Z M85.32,354.546 L64.04,354.546 L64.04,415.25 L85.32,415.25 L85.32,354.546 Z M138.632,353.538 C134.749333,353.538 131.165333,354.191333 127.88,355.498 C124.777185,356.732074 122.073975,358.482305 119.77037,360.748691 L119.368,361.154 L119.368,354.546 L99.096,354.546 L99.096,415.25 L120.376,415.25 L120.376,385.906 C120.376,381.127333 121.477333,377.543333 123.68,375.154 C125.882667,372.764667 128.813333,371.57 132.472,371.57 C139.0135,371.57 142.335355,375.585512 142.437566,383.616535 L142.44,384.002 L142.44,415.25 L163.72,415.25 L163.72,380.53 C163.72,371.495333 161.424,364.738 156.832,360.258 C152.24,355.778 146.173333,353.538 138.632,353.538 Z M572.744,331.138 C564.754667,331.138 558.538667,333.303333 554.096,337.634 C549.756651,341.863953 547.536519,347.554208 547.435604,354.704763 L547.432,355.218 L547.432,356.786 L538.584,356.786 L538.584,372.69 L547.432,372.69 L547.432,415.25 L568.712,415.25 L568.712,372.69 L582.6,372.69 L582.6,356.786 L568.152,356.786 L568.152,355.442 C568.152,352.828667 568.768,350.85 570,349.506 C571.232,348.162 572.968,347.49 575.208,347.49 C577.238,347.49 579.235188,348.015 581.199563,349.065 L581.592,349.282 L586.856,334.274 C585.213333,333.228667 583.122667,332.444667 580.584,331.922 C578.045333,331.399333 575.432,331.138 572.744,331.138 Z M689.224,332.146 L667.944,332.146 L667.944,415.25 L689.224,415.25 L689.224,332.146 Z M847.032,353.538 C843.149333,353.538 839.565333,354.191333 836.28,355.498 C833.177185,356.732074 830.473975,358.482305 828.17037,360.748691 L827.768,361.154 L827.768,354.546 L807.496,354.546 L807.496,415.25 L828.776,415.25 L828.776,385.906 C828.776,381.127333 829.877333,377.543333 832.08,375.154 C834.282667,372.764667 837.213333,371.57 840.872,371.57 C847.4135,371.57 850.735355,375.585512 850.837566,383.616535 L850.84,384.002 L850.84,415.25 L872.12,415.25 L872.12,380.53 C872.12,371.495333 869.824,364.738 865.232,360.258 C860.64,355.778 854.573333,353.538 847.032,353.538 Z M998.008,353.538 C993.528,353.538 989.552,354.228667 986.08,355.61 C982.765818,356.928545 980.046926,358.876397 977.923322,361.453554 L977.624,361.826 L977.624,354.546 L957.352,354.546 L957.352,415.25 L978.632,415.25 L978.632,387.362 C978.632,382.284667 979.92,378.514 982.496,376.05 C985.072,373.586 988.637333,372.354 993.192,372.354 C994.355556,372.354 995.801444,372.448111 997.529667,372.636333 L998.008,372.69 L998.008,353.538 Z M257.576,370.45 C261.309333,370.45 264.370667,371.719333 266.76,374.258 C269.149333,376.796667 270.344,380.306 270.344,384.786 C270.344,389.340667 269.149333,392.906 266.76,395.482 C264.370667,398.058 261.309333,399.346 257.576,399.346 C253.842667,399.346 250.781333,398.058 248.392,395.482 C246.002667,392.906 244.808,389.340667 244.808,384.786 C244.808,380.306 246.002667,376.796667 248.392,374.258 C250.781333,371.719333 253.842667,370.45 257.576,370.45 Z M1037.992,370.45 C1041.87467,370.45 1045.048,371.588667 1047.512,373.866 C1049.976,376.143333 1051.208,379.111333 1051.208,382.77 C1051.208,386.428667 1049.95733,389.415333 1047.456,391.73 C1044.95467,394.044667 1041.8,395.202 1037.992,395.202 C1034.184,395.202 1031.01067,394.044667 1028.472,391.73 C1025.93333,389.415333 1024.664,386.428667 1024.664,382.77 C1024.664,379.111333 1025.91467,376.143333 1028.416,373.866 C1030.91733,371.588667 1034.10933,370.45 1037.992,370.45 Z M915.128,368.658 C918.413333,368.658 921.157333,369.591333 923.36,371.458 C925.562667,373.324667 926.962667,375.863333 927.56,379.074 L902.696,379.074 C903.293333,375.863333 904.693333,373.324667 906.896,371.458 C909.098667,369.591333 911.842667,368.658 915.128,368.658 Z M765.272,368.658 C768.557333,368.658 771.301333,369.591333 773.504,371.458 C775.706667,373.324667 777.106667,375.863333 777.704,379.074 L752.84,379.074 C753.437333,375.863333 754.837333,373.324667 757.04,371.458 C759.242667,369.591333 761.986667,368.658 765.272,368.658 Z M502.744,368.658 C506.029333,368.658 508.773333,369.591333 510.976,371.458 C513.178667,373.324667 514.578667,375.863333 515.176,379.074 L490.312,379.074 C490.909333,375.863333 492.309333,373.324667 494.512,371.458 C496.714667,369.591333 499.458667,368.658 502.744,368.658 Z M74.68,325.202 C70.7973333,325.202 67.6613333,326.284667 65.272,328.45 C62.8826667,330.615333 61.688,333.303333 61.688,336.514 C61.688,339.724667 62.8826667,342.412667 65.272,344.578 C67.6613333,346.743333 70.7973333,347.826 74.68,347.826 C78.5626667,347.826 81.6986667,346.724667 84.088,344.522 C86.4773333,342.319333 87.672,339.538 87.672,336.178 C87.672,332.967333 86.4773333,330.335333 84.088,328.282 C81.6986667,326.228667 78.5626667,325.202 74.68,325.202 Z M372.264,242.546 L350.984,242.546 L350.984,276.482 C350.984,285.740667 353.317333,292.684667 357.984,297.314 C362.650667,301.943333 368.904,304.258 376.744,304.258 C380.253333,304.258 383.576,303.623333 386.712,302.354 C389.673778,301.155185 392.235951,299.423564 394.398519,297.159136 L394.776,296.754 L394.776,303.25 L415.048,303.25 L415.048,242.546 L393.768,242.546 L393.768,271.778 C393.768,276.631333 392.704,280.234 390.576,282.586 C388.448,284.938 385.704,286.114 382.344,286.114 C379.058667,286.114 376.557333,285.068667 374.84,282.978 C373.181885,280.959425 372.324239,277.792351 372.267063,273.476778 L372.264,273.01 L372.264,242.546 Z M792.264,241.538 C786.066667,241.538 780.746667,242.415333 776.304,244.17 C771.861333,245.924667 768.482667,248.314 766.168,251.338 C763.853333,254.362 762.696,257.815333 762.696,261.698 C762.696,266.402 763.928,270.060667 766.392,272.674 C768.856,275.287333 771.786667,277.079333 775.184,278.05 C778.581333,279.020667 782.706667,279.804667 787.56,280.402 C791.368,280.924667 794.149333,281.466 795.904,282.026 C797.658667,282.586 798.536,283.538 798.536,284.882 C798.536,286.226 797.808,287.252667 796.352,287.962 C794.896,288.671333 792.450667,289.026 789.016,289.026 C785.282667,289.026 781.512,288.522 777.704,287.514 C774.12,286.565294 770.998985,285.30242 768.340955,283.725377 L767.848,283.426 L761.464,297.986 C764.450667,299.852667 768.408,301.364667 773.336,302.522 C778.264,303.679333 783.266667,304.258 788.344,304.258 C794.690667,304.258 800.122667,303.399333 804.64,301.682 C809.157333,299.964667 812.573333,297.594 814.888,294.57 C817.202667,291.546 818.36,288.13 818.36,284.322 C818.36,279.692667 817.146667,276.09 814.72,273.514 C812.293333,270.938 809.437333,269.164667 806.152,268.194 C802.866667,267.223333 798.722667,266.364667 793.72,265.618 C789.762667,265.020667 786.925333,264.442 785.208,263.882 C783.490667,263.322 782.632,262.332667 782.632,260.914 C782.632,259.644667 783.416,258.618 784.984,257.834 C786.552,257.05 789.016,256.658 792.376,256.658 C798.431724,256.658 804.069812,258.05012 809.290264,260.834361 L809.848,261.138 L816.232,246.69 C813.32,245.047333 809.698667,243.778 805.368,242.882 C801.037333,241.986 796.669333,241.538 792.264,241.538 Z M324.888,228.994 L303.608,228.994 L303.608,244.786 L294.76,244.786 L294.76,260.69 L303.608,260.69 L303.608,281.074 C303.608,288.764667 305.736,294.551333 309.992,298.434 C314.248,302.316667 320.333333,304.258 328.248,304.258 C331.16,304.258 333.904,303.959333 336.48,303.362 C338.872,302.807333 340.926,302.027333 342.642,301.022 L343.032,300.786 L337.768,285.89 C335.901333,287.159333 333.736,287.794 331.272,287.794 C329.330667,287.794 327.781333,287.178 326.624,285.946 C325.530963,284.782444 324.954082,283.202634 324.893358,281.206568 L324.888,280.85 L324.888,260.69 L338.776,260.69 L338.776,244.786 L324.888,244.786 L324.888,228.994 Z M721.816,241.538 C716.962667,241.538 712.128,242.154 707.312,243.386 C702.725333,244.559333 698.798984,246.18981 695.532952,248.277429 L695.048,248.594 L702.216,263.042 C704.306667,261.399333 706.845333,260.111333 709.832,259.178 C712.818667,258.244667 715.768,257.778 718.68,257.778 C726.76086,257.778 731.047152,260.885932 731.538876,267.101796 L731.56,267.41 L719.464,267.41 C710.28,267.41 703.485333,268.996667 699.08,272.17 C694.674667,275.343333 692.472,279.804667 692.472,285.554 C692.472,289.138 693.349333,292.33 695.104,295.13 C696.858667,297.93 699.453333,300.151333 702.888,301.794 C706.322667,303.436667 710.392,304.258 715.096,304.258 C723.822667,304.258 729.740405,301.41306 732.849214,295.723179 L733.016,295.41 L733.016,303.25 L752.84,303.25 L752.84,269.538 C752.84,260.055333 750.189333,253.018 744.888,248.426 C739.586667,243.834 731.896,241.538 721.816,241.538 Z M851.288,228.994 L830.008,228.994 L830.008,244.786 L821.16,244.786 L821.16,260.69 L830.008,260.69 L830.008,281.074 C830.008,288.764667 832.136,294.551333 836.392,298.434 C840.648,302.316667 846.733333,304.258 854.648,304.258 C857.56,304.258 860.304,303.959333 862.88,303.362 C865.272,302.807333 867.326,302.027333 869.042,301.022 L869.432,300.786 L864.168,285.89 C862.301333,287.159333 860.136,287.794 857.672,287.794 C855.730667,287.794 854.181333,287.178 853.024,285.946 C851.930963,284.782444 851.354082,283.202634 851.293358,281.206568 L851.288,280.85 L851.288,260.69 L865.176,260.69 L865.176,244.786 L851.288,244.786 L851.288,228.994 Z M226.216,241.538 C219.869333,241.538 214.157333,242.882 209.08,245.57 C204.002667,248.258 200.026667,251.972667 197.152,256.714 C194.277333,261.455333 192.84,266.812667 192.84,272.786 C192.84,278.834 194.314667,284.247333 197.264,289.026 C200.213333,293.804667 204.376,297.538 209.752,300.226 C215.128,302.914 221.362667,304.258 228.456,304.258 C239.602667,304.258 248.120464,301.088952 254.009393,294.750857 L254.328,294.402 L243.128,282.754 C240.962667,284.620667 238.816,285.964667 236.688,286.786 C234.56,287.607333 232.04,288.018 229.128,288.018 C225.245333,288.018 222.016,287.178 219.44,285.498 C216.971333,283.888 215.274125,281.609403 214.348375,278.662208 L214.232,278.274 L258.36,278.274 C258.584,274.914 258.696,273.159333 258.696,273.01 C258.696,266.514 257.258667,260.895333 254.384,256.154 C251.509333,251.412667 247.608,247.791333 242.68,245.29 C237.752,242.788667 232.264,241.538 226.216,241.538 Z M907.176,241.538 C900.829333,241.538 895.117333,242.882 890.04,245.57 C884.962667,248.258 880.986667,251.972667 878.112,256.714 C875.237333,261.455333 873.8,266.812667 873.8,272.786 C873.8,278.834 875.274667,284.247333 878.224,289.026 C881.173333,293.804667 885.336,297.538 890.712,300.226 C896.088,302.914 902.322667,304.258 909.416,304.258 C920.562667,304.258 929.080464,301.088952 934.969393,294.750857 L935.288,294.402 L924.088,282.754 C921.922667,284.620667 919.776,285.964667 917.648,286.786 C915.52,287.607333 913,288.018 910.088,288.018 C906.205333,288.018 902.976,287.178 900.4,285.498 C897.931333,283.888 896.234125,281.609403 895.308375,278.662208 L895.192,278.274 L939.32,278.274 C939.544,274.914 939.656,273.159333 939.656,273.01 C939.656,266.514 938.218667,260.895333 935.344,256.154 C932.469333,251.412667 928.568,247.791333 923.64,245.29 C918.712,242.788667 913.224,241.538 907.176,241.538 Z M517.864,241.538 C513.981333,241.538 510.397333,242.191333 507.112,243.498 C504.009185,244.732074 501.305975,246.482305 499.00237,248.748691 L498.6,249.154 L498.6,242.546 L478.328,242.546 L478.328,303.25 L499.608,303.25 L499.608,273.906 C499.608,269.127333 500.709333,265.543333 502.912,263.154 C505.114667,260.764667 508.045333,259.57 511.704,259.57 C518.2455,259.57 521.567355,263.585512 521.669566,271.616535 L521.672,272.002 L521.672,303.25 L542.952,303.25 L542.952,268.53 C542.952,259.495333 540.656,252.738 536.064,248.258 C531.472,243.778 525.405333,241.538 517.864,241.538 Z M469.368,241.538 C464.888,241.538 460.912,242.228667 457.44,243.61 C454.125818,244.928545 451.406926,246.876397 449.283322,249.453554 L448.984,249.826 L448.984,242.546 L428.712,242.546 L428.712,303.25 L449.992,303.25 L449.992,275.362 C449.992,270.284667 451.28,266.514 453.856,264.05 C456.432,261.586 459.997333,260.354 464.552,260.354 C465.715556,260.354 467.161444,260.448111 468.889667,260.636333 L469.368,260.69 L469.368,241.538 Z M601.864,242.546 L581.704,242.546 L603.32,303.25 L623.928,303.25 L635.8,270.21 L647.224,303.25 L667.832,303.25 L689.448,242.546 L670.744,242.546 L657.864,279.618 L645.32,242.546 L627.176,242.546 L614.296,279.282 L601.864,242.546 Z M81.848,224.85 L59,224.85 L84.424,303.25 L108.168,303.25 L123.848,255.538 L138.856,303.25 L162.6,303.25 L188.024,224.85 L166.856,224.85 L150.392,275.362 L134.6,224.85 L114.216,224.85 L97.64,274.914 L81.848,224.85 Z M731.56,278.498 L731.56,283.762 C730.738667,286.076667 729.394667,287.831333 727.528,289.026 C725.661333,290.220667 723.496,290.818 721.032,290.818 C718.568,290.818 716.626667,290.258 715.208,289.138 C713.789333,288.018 713.08,286.524667 713.08,284.658 C713.08,280.628818 716.062839,278.576215 722.028517,278.500193 L722.376,278.498 L731.56,278.498 Z M226.328,256.658 C229.613333,256.658 232.357333,257.591333 234.56,259.458 C236.762667,261.324667 238.162667,263.863333 238.76,267.074 L213.896,267.074 C214.493333,263.863333 215.893333,261.324667 218.096,259.458 C220.298667,257.591333 223.042667,256.658 226.328,256.658 Z M907.288,256.658 C910.573333,256.658 913.317333,257.591333 915.52,259.458 C917.722667,261.324667 919.122667,263.863333 919.72,267.074 L894.856,267.074 C895.453333,263.863333 896.853333,261.324667 899.056,259.458 C901.258667,257.591333 904.002667,256.658 907.288,256.658 Z" id="Combined-Shape"></path>
        </g>
    </g>
</svg>