<?xml version="1.0" encoding="UTF-8"?>
<svg width="414px" height="330px" viewBox="0 0 414 330" version="1.1" xmlns="http://www.w3.org/2000/svg" xmlns:xlink="http://www.w3.org/1999/xlink">
    <!-- Generator: Sketch 60.1 (88133) - https://sketch.com -->
    <title>Combined Shape@3x</title>
    <desc>Created with Sketch.</desc>
    <g id="Page-1" stroke="none" stroke-width="1" fill="none" fill-rule="evenodd">
        <g id="EEW-mobile-414px" transform="translate(0.000000, -70.000000)" fill="#FFFFFF">
            <path d="M414,70 L414,400 L0,400 L0,70 L414,70 Z M243.587805,323.133479 L229.612052,323.133479 L246.239615,362.408848 C245.666251,363.553486 244.96149,364.388117 244.125334,364.912743 C243.289178,365.437368 242.226065,365.699681 240.935996,365.699681 C239.837048,365.699681 238.750045,365.496985 237.674987,365.091592 C236.71938,364.731243 235.886468,364.248423 235.176251,363.643131 L234.915671,363.410406 L230.185416,372.925204 C231.475486,373.974455 233.159743,374.82101 235.238189,375.464868 C237.316634,376.108727 239.383134,376.430656 241.437689,376.430656 C245.499019,376.430656 248.939205,375.464868 251.758246,373.533293 C254.480078,371.668323 256.801033,368.480646 258.72111,363.970263 L258.925299,363.481946 L275.696203,323.133479 L262.723837,323.133479 L253.119986,346.813164 L243.587805,323.133479 Z M200.87217,322.48962 C197.431984,322.48962 194.254591,323.264635 191.339989,324.814665 C188.425388,326.364695 186.108041,328.558583 184.387948,331.39633 C182.667855,334.234077 181.807809,337.489139 181.807809,341.161517 C181.807809,344.881589 182.667855,348.160498 184.387948,350.998245 C186.108041,353.835991 188.425388,356.02988 191.339989,357.579909 C194.254591,359.129939 197.431984,359.904954 200.87217,359.904954 C205.783411,359.904954 209.548977,358.469865 212.168867,355.599688 L212.411125,355.326405 L212.411125,356.614122 C212.411125,359.714181 211.574969,362.051149 209.902656,363.625025 C208.230344,365.198902 205.602425,365.98584 202.018898,365.98584 C199.677661,365.98584 197.300588,365.616218 194.887681,364.876973 C192.635633,364.187011 190.747778,363.258159 189.224116,362.090417 L188.903191,361.83653 L183.957925,371.351328 C186.299162,373.020591 189.142093,374.284461 192.486718,375.142939 C195.831342,376.001417 199.414869,376.430656 203.237297,376.430656 C210.595472,376.430656 216.233553,374.630237 220.151542,371.029398 C223.976246,367.514294 225.93413,362.283485 226.025194,355.336969 L226.028526,354.825626 L226.028526,323.133479 L213.05616,323.133479 L213.05616,327.855108 C210.476021,324.278116 206.414691,322.48962 200.87217,322.48962 Z M125.403102,322.48962 C121.341772,322.48962 117.686575,323.348098 114.437511,325.065054 C111.188447,326.78201 108.644143,329.154748 106.8046,332.183268 C104.965056,335.211788 104.045284,338.633776 104.045284,342.449234 C104.045284,346.312385 104.988946,349.770144 106.87627,352.82251 C108.763594,355.874877 111.427349,358.259538 114.867534,359.976494 C118.30772,361.69345 122.297379,362.551928 126.836513,362.551928 C133.930228,362.551928 139.360133,360.549896 143.126228,356.545832 L143.392405,356.256422 L136.225352,348.81628 C134.839722,350.00861 133.466037,350.867088 132.104297,351.391714 C130.742557,351.916339 129.12997,352.178652 127.266536,352.178652 C124.781958,352.178652 122.715457,351.642103 121.067035,350.569006 C119.510192,349.555525 118.432811,348.127267 117.834893,346.284233 L117.734356,345.954686 L145.972544,345.954686 C146.115885,343.808491 146.187556,342.6877 146.187556,342.592314 C146.187556,338.443004 145.267784,334.854088 143.42824,331.825569 C141.588697,328.797049 139.092173,326.483928 135.93867,324.886205 C132.785167,323.288482 129.273311,322.48962 125.403102,322.48962 Z M29.5079337,322.48962 C25.4466037,322.48962 21.7914067,323.348098 18.5423427,325.065054 C15.2932787,326.78201 12.7489749,329.154748 10.9094313,332.183268 C9.06988768,335.211788 8.15011589,338.633776 8.15011589,342.449234 C8.15011589,346.312385 9.09377786,349.770144 10.9811018,352.82251 C12.8684257,355.874877 15.5321804,358.259538 18.9723658,359.976494 C22.4125513,361.69345 26.4022107,362.551928 30.9413443,362.551928 C38.0350599,362.551928 43.464965,360.549896 47.2310594,356.545832 L47.4972366,356.256422 L40.3301836,348.81628 C38.9445534,350.00861 37.5708682,350.867088 36.2091282,351.391714 C34.8473881,351.916339 33.2348012,352.178652 31.3713674,352.178652 C28.8867891,352.178652 26.8202888,351.642103 25.1718666,350.569006 C23.6150235,349.555525 22.5376429,348.127267 21.9397248,346.284233 L21.839187,345.954686 L50.0773756,345.954686 C50.2207167,343.808491 50.2923872,342.6877 50.2923872,342.592314 C50.2923872,338.443004 49.3726154,334.854088 47.5330718,331.825569 C45.6935283,328.797049 43.1970048,326.483928 40.0435015,324.886205 C36.8899982,323.288482 33.3781423,322.48962 29.5079337,322.48962 Z M81.8990907,322.48962 C79.4145124,322.48962 77.1210554,322.906936 75.0187199,323.741567 C73.0665512,324.516582 71.3615727,325.610302 69.9037844,327.022727 L69.5717597,327.354329 L69.5717597,323.133479 L56.5993938,323.133479 L56.5993938,361.908069 L70.2167944,361.908069 L70.2167944,343.164633 C70.2167944,340.112266 70.9215546,337.822992 72.3310751,336.296808 C73.7405955,334.770625 75.6159743,334.007534 77.9572116,334.007534 C82.1228783,334.007534 84.2482185,336.54757 84.3332321,341.627644 L84.3358888,341.948455 L84.3358888,361.908069 L97.9532894,361.908069 L97.9532894,339.730721 C97.9532894,333.959841 96.4840435,329.643604 93.5455518,326.78201 C90.6070601,323.920417 86.7249064,322.48962 81.8990907,322.48962 Z M178.510965,322.48962 C175.644143,322.48962 173.09984,322.930783 170.878053,323.813107 C168.795128,324.640287 167.079655,325.855206 165.731633,327.457866 L165.466928,327.783568 L165.466928,323.133479 L152.494562,323.133479 L152.494562,361.908069 L166.111963,361.908069 L166.111963,344.094651 C166.111963,340.851511 166.936174,338.443004 168.584596,336.869127 C170.233018,335.295251 172.51453,334.508313 175.429132,334.508313 C176.151146,334.508313 177.043046,334.564838 178.104832,334.677889 L178.510965,334.722932 L178.510965,322.48962 Z M204.097344,333.292135 C206.581922,333.292135 208.612587,334.019457 210.189339,335.4741 C211.76609,336.928744 212.554466,338.824549 212.554466,341.161517 C212.554466,343.498485 211.754145,345.406214 210.153503,346.884704 C208.552861,348.363194 206.534142,349.102439 204.097344,349.102439 C201.660546,349.102439 199.629881,348.363194 198.005349,346.884704 C196.380817,345.406214 195.568551,343.498485 195.568551,341.161517 C195.568551,338.824549 196.368871,336.928744 197.969513,335.4741 C199.570155,334.019457 201.612765,333.292135 204.097344,333.292135 Z M125.474773,332.147498 C127.577108,332.147498 129.333036,332.743663 130.742557,333.935994 C132.152077,335.128325 133.047959,336.749894 133.430201,338.800703 L117.519344,338.800703 C117.901587,336.749894 118.797468,335.128325 120.206989,333.935994 C121.616509,332.743663 123.372437,332.147498 125.474773,332.147498 Z M29.5796042,332.147498 C31.6819397,332.147498 33.4378677,332.743663 34.8473881,333.935994 C36.2569085,335.128325 37.1527902,336.749894 37.535033,338.800703 L21.6241754,338.800703 C22.0064183,336.749894 22.9022999,335.128325 24.3118203,333.935994 C25.7213407,332.743663 27.4772687,332.147498 29.5796042,332.147498 Z M76.8104832,254.356444 C72.8447139,254.356444 69.4403637,254.916839 66.5974327,256.03763 C63.7545017,257.158421 61.5924407,258.684604 60.1112498,260.61618 C58.6300588,262.547755 57.8894634,264.753567 57.8894634,267.233614 C57.8894634,270.238287 58.6778392,272.575255 60.2545908,274.244518 C61.8313425,275.913781 63.7067213,277.058418 65.8807274,277.67843 C68.0547335,278.298442 70.694598,278.799221 73.8003209,279.180767 C76.2371189,279.514619 78.0169371,279.860395 79.1397754,280.218094 C80.2626137,280.575794 80.8240328,281.183882 80.8240328,282.04236 C80.8240328,282.900838 80.3581744,283.55662 79.4264575,284.009706 C78.4947406,284.462791 76.929934,284.689334 74.7320378,284.689334 C72.3430201,284.689334 69.9301123,284.367405 67.4933143,283.723546 C65.2439623,283.129215 63.2795961,282.341854 61.6002156,281.361462 L61.1863077,281.112342 L57.1010875,290.412521 C59.0123017,291.604851 61.5446604,292.570639 64.6981637,293.309884 C67.851667,294.049129 71.0529506,294.418752 74.3020146,294.418752 C78.3633446,294.418752 81.8393653,293.87028 84.7300767,292.773335 C87.620788,291.676391 89.8067392,290.162131 91.2879301,288.230556 C92.7691211,286.29898 93.5097165,284.117015 93.5097165,281.684661 C93.5097165,278.727681 92.7332858,276.426483 91.1804243,274.781067 C89.6275628,273.135651 87.7999643,272.002937 85.6976288,271.382925 C83.5952933,270.762913 80.9434837,270.214441 77.7422,269.737509 C75.2098413,269.355963 73.3941879,268.98634 72.2952398,268.628641 C71.1962917,268.270942 70.6468176,267.639007 70.6468176,266.732835 C70.6468176,265.922051 71.1485113,265.266269 72.1518987,264.76549 C73.1552861,264.264711 74.7320378,264.014322 76.8821537,264.014322 C80.7212012,264.014322 84.2979535,264.887045 87.6124107,266.63249 L88.0627563,266.875915 L92.1479765,257.647276 C90.2845427,256.598026 87.9671956,255.787241 85.1959351,255.214922 C82.4246746,254.642603 79.629524,254.356444 76.8104832,254.356444 Z M24.0609734,255.000303 L10.4435728,255.000303 L10.4435728,276.676873 C10.4435728,282.590832 11.9367089,287.026302 14.9229809,289.983282 C17.909253,292.940262 21.9108576,294.418752 26.9277946,294.418752 C29.1734712,294.418752 31.2996969,294.013359 33.3064717,293.202574 C35.1794616,292.445842 36.8027194,291.356741 38.1762453,289.935271 L38.4667499,289.625583 L38.4667499,293.774893 L51.4391157,293.774893 L51.4391157,255.000303 L37.8217151,255.000303 L37.8217151,273.672199 C37.8217151,276.772259 37.1408451,279.073457 35.779105,280.575794 C34.4173649,282.07813 32.661437,282.829298 30.5113211,282.829298 C28.4089856,282.829298 26.8083437,282.161593 25.7093956,280.826183 C24.6603997,279.551473 24.1120609,277.559739 24.0643793,274.850981 L24.0609734,274.459138 L24.0609734,255.000303 Z M118.30772,254.356444 C114.24639,254.356444 110.591193,255.214922 107.342129,256.931878 C104.093065,258.648834 101.548761,261.021572 99.7092173,264.050092 C97.8696737,267.078611 96.9499019,270.5006 96.9499019,274.316058 C96.9499019,278.179209 97.8935639,281.636968 99.7808879,284.689334 C101.668212,287.7417 104.331966,290.126362 107.772152,291.843318 C111.212337,293.560274 115.201997,294.418752 119.74113,294.418752 C126.834846,294.418752 132.264751,292.41672 136.030846,288.412656 L136.297023,288.123246 L129.12997,280.683103 C127.744339,281.875434 126.370654,282.733912 125.008914,283.258537 C123.647174,283.783163 122.034587,284.045476 120.171154,284.045476 C117.686575,284.045476 115.620075,283.508927 113.971653,282.435829 C112.41481,281.422348 111.337429,279.994091 110.739511,278.151057 L110.638973,277.82151 L138.877162,277.82151 C139.020503,275.675315 139.092173,274.554524 139.092173,274.459138 C139.092173,270.309827 138.172401,266.720912 136.332858,263.692392 C134.493314,260.663873 131.996791,258.350751 128.843288,256.753028 C125.689784,255.155305 122.177928,254.356444 118.30772,254.356444 Z M187.971474,255.000303 L174.354074,255.000303 L174.354074,276.676873 C174.354074,282.590832 175.84721,287.026302 178.833482,289.983282 C181.819754,292.940262 185.821359,294.418752 190.838296,294.418752 C193.083972,294.418752 195.210198,294.013359 197.216973,293.202574 C199.089963,292.445842 200.71322,291.356741 202.086746,289.935271 L202.377251,289.625583 L202.377251,293.774893 L215.349617,293.774893 L215.349617,255.000303 L201.732216,255.000303 L201.732216,273.672199 C201.732216,276.772259 201.051346,279.073457 199.689606,280.575794 C198.327866,282.07813 196.571938,282.829298 194.421822,282.829298 C192.319487,282.829298 190.718845,282.161593 189.619897,280.826183 C188.570901,279.551473 188.022562,277.559739 187.97488,274.850981 L187.971474,274.459138 L187.971474,255.000303 Z M237.710822,240.692335 L224.093421,240.692335 L224.093421,293.774893 L237.710822,293.774893 L237.710822,240.692335 Z M163.173471,240.048477 C158.060973,240.048477 154.083259,241.43158 151.240328,244.197787 C148.489104,246.874762 147.069118,250.467387 146.980369,254.975662 L146.975932,255.429542 L146.975932,256.431099 L141.31396,256.431099 L141.31396,266.589756 L146.975932,266.589756 L146.975932,293.774893 L160.593332,293.774893 L160.593332,266.589756 L169.480478,266.589756 L169.480478,256.431099 L160.234979,256.431099 L160.234979,255.572621 C160.234979,253.903358 160.629167,252.639488 161.417543,251.78101 C162.205919,250.922532 163.316812,250.493293 164.750223,250.493293 C166.029266,250.493293 167.287953,250.818397 168.526284,251.468605 L168.835443,251.63793 L172.203958,242.051592 C171.15279,241.383887 169.81494,240.883108 168.190408,240.549256 C166.565876,240.215403 164.893564,240.048477 163.173471,240.048477 Z M118.37939,264.014322 C120.481726,264.014322 122.237654,264.610487 123.647174,265.802818 C125.056695,266.995148 125.952576,268.616718 126.334819,270.667526 L110.423961,270.667526 C110.806204,268.616718 111.702086,266.995148 113.111606,265.802818 C114.521127,264.610487 116.277055,264.014322 118.37939,264.014322 Z M214.274559,186.223268 C210.213229,186.223268 206.558032,187.081746 203.308968,188.798702 C200.059904,190.515658 197.5156,192.888396 195.676056,195.916915 C193.836513,198.945435 192.916741,202.367424 192.916741,206.182882 C192.916741,210.046033 193.860403,213.503791 195.747727,216.556158 C197.635051,219.608524 200.298805,221.993185 203.738991,223.710141 C207.179176,225.427097 211.168836,226.285575 215.707969,226.285575 C222.801685,226.285575 228.23159,224.283543 231.997685,220.279479 L232.263862,219.99007 L225.096809,212.549927 C223.711178,213.742258 222.337493,214.600736 220.975753,215.125361 C219.614013,215.649987 218.001426,215.912299 216.137993,215.912299 C213.653414,215.912299 211.586914,215.375751 209.938492,214.302653 C208.381649,213.289172 207.304268,211.860915 206.70635,210.017881 L206.605812,209.688334 L234.844001,209.688334 C234.987342,207.542139 235.059012,206.421348 235.059012,206.325961 C235.059012,202.176651 234.139241,198.587736 232.299697,195.559216 C230.460153,192.530697 227.96363,190.217575 224.810127,188.619852 C221.656623,187.022129 218.144767,186.223268 214.274559,186.223268 Z M178.510965,178.210806 L164.893564,178.210806 L164.893564,188.297923 L159.231592,188.297923 L159.231592,198.45658 L164.893564,198.45658 L164.893564,211.47683 C164.893564,216.389232 166.255304,220.085456 168.978784,222.565504 C171.702264,225.045552 175.596363,226.285575 180.66108,226.285575 C182.524514,226.285575 184.280442,226.094802 185.928864,225.713257 C187.42743,225.366397 188.718684,224.881581 189.802627,224.25881 L190.12159,224.06784 L186.753075,214.553042 C185.558567,215.363827 184.172936,215.76922 182.596185,215.76922 C181.353896,215.76922 180.362453,215.375751 179.621858,214.588812 C178.930635,213.854337 178.561983,212.860198 178.515902,211.606396 L178.510965,211.33375 L178.510965,198.45658 L187.39811,198.45658 L187.39811,188.297923 L178.510965,188.297923 L178.510965,178.210806 Z M140.740595,186.223268 C136.774826,186.223268 133.370476,186.783663 130.527545,187.904454 C127.684614,189.025245 125.522553,190.551428 124.041362,192.483003 C122.560171,194.414579 121.819576,196.62039 121.819576,199.100438 C121.819576,202.105111 122.607952,204.442079 124.184703,206.111342 C125.761455,207.780605 127.636834,208.925242 129.81084,209.545254 C131.984846,210.165266 134.62471,210.666045 137.730433,211.04759 C140.167231,211.381443 141.947049,211.727219 143.069888,212.084918 C144.192726,212.442617 144.754145,213.050706 144.754145,213.909184 C144.754145,214.767662 144.288287,215.423444 143.35657,215.876529 C142.424853,216.329615 140.860046,216.556158 138.66215,216.556158 C136.273132,216.556158 133.860225,216.234229 131.423427,215.59037 C129.174075,214.996039 127.209708,214.208678 125.530328,213.228286 L125.11642,212.979166 L121.0312,222.279345 C122.942414,223.471675 125.474773,224.437463 128.628276,225.176708 C131.781779,225.915953 134.983063,226.285575 138.232127,226.285575 C142.293457,226.285575 145.769478,225.737103 148.660189,224.640159 C151.5509,223.543215 153.736851,222.028955 155.218042,220.09738 C156.699233,218.165804 157.439829,215.983839 157.439829,213.551485 C157.439829,210.594505 156.663398,208.293307 155.110537,206.647891 C153.557675,205.002474 151.730077,203.86976 149.627741,203.249748 C147.525406,202.629737 144.873596,202.081264 141.672312,201.604332 C139.139954,201.222786 137.3243,200.853164 136.225352,200.495465 C135.126404,200.137766 134.57693,199.50583 134.57693,198.599659 C134.57693,197.788874 135.078624,197.133093 136.082011,196.632314 C137.085398,196.131535 138.66215,195.881145 140.812266,195.881145 C144.651313,195.881145 148.228066,196.753868 151.542523,198.499314 L151.992869,198.742739 L156.078089,189.5141 C154.214655,188.464849 151.897308,187.654064 149.126047,187.081746 C146.354787,186.509427 143.559636,186.223268 140.740595,186.223268 Z M349.73186,178.210806 L336.114459,178.210806 L336.114459,188.297923 L330.452487,188.297923 L330.452487,198.45658 L336.114459,198.45658 L336.114459,211.47683 C336.114459,216.389232 337.476199,220.085456 340.199679,222.565504 C342.923159,225.045552 346.817258,226.285575 351.881975,226.285575 C353.745409,226.285575 355.501337,226.094802 357.149759,225.713257 C358.648325,225.366397 359.939579,224.881581 361.023522,224.25881 L361.342485,224.06784 L357.97397,214.553042 C356.779462,215.363827 355.393831,215.76922 353.81708,215.76922 C352.574791,215.76922 351.583348,215.375751 350.842753,214.588812 C350.15153,213.854337 349.782878,212.860198 349.736797,211.606396 L349.73186,211.33375 L349.73186,198.45658 L358.619005,198.45658 L358.619005,188.297923 L349.73186,188.297923 L349.73186,178.210806 Z M386.068818,186.223268 C381.864147,186.223268 378.101444,187.069822 374.78071,188.762932 C371.459975,190.456041 368.855946,192.828779 366.968622,195.881145 C365.081298,198.933512 364.137636,202.367424 364.137636,206.182882 C364.137636,210.046033 365.081298,213.503791 366.968622,216.556158 C368.855946,219.608524 371.47192,221.993185 374.816545,223.710141 C378.16117,225.427097 381.911927,226.285575 386.068818,226.285575 C390.273489,226.285575 394.048137,225.427097 397.392762,223.710141 C400.737386,221.993185 403.341416,219.608524 405.204849,216.556158 C407.068283,213.503791 408,210.046033 408,206.182882 C408,202.319731 407.068283,198.873895 405.204849,195.845376 C403.341416,192.816856 400.737386,190.456041 397.392762,188.762932 C394.048137,187.069822 390.273489,186.223268 386.068818,186.223268 Z M95.6598324,186.223268 C92.5541095,186.223268 89.4603316,186.616737 86.3784988,187.403675 C83.4892806,188.14143 81.0095083,189.16213 78.9391819,190.465776 L78.5305759,190.730277 L83.1174897,199.958916 C84.4553396,198.909665 86.0798716,198.086957 87.9910858,197.490792 C89.9022999,196.894626 91.7896238,196.596544 93.6530576,196.596544 C98.7993998,196.596544 101.540704,198.562792 101.876971,202.495289 L101.895168,202.74897 L94.1547513,202.74897 C88.2777679,202.74897 83.9297557,203.762451 81.1107149,205.789413 C78.2916741,207.816375 76.8821537,210.666045 76.8821537,214.338423 C76.8821537,216.627698 77.4435728,218.666583 78.5664111,220.455079 C79.6892494,222.243575 81.3496167,223.662448 83.5475129,224.711699 C85.7454092,225.76095 88.3494384,226.285575 91.3596006,226.285575 C96.910085,226.285575 100.684814,224.490334 102.683788,220.899851 L102.826885,220.633928 L102.826885,225.641717 L115.512569,225.641717 L115.512569,204.108226 C115.512569,198.051187 113.816367,193.556101 110.423961,190.622968 C107.031556,187.689834 102.11018,186.223268 95.6598324,186.223268 Z M18.9006953,186.867126 L6,186.867126 L19.8324122,225.641717 L33.0197896,225.641717 L40.6168658,204.537465 L47.9272598,225.641717 L61.1146372,225.641717 L74.9470494,186.867126 L62.978071,186.867126 L54.7359601,210.546812 L46.7088608,186.867126 L35.098235,186.867126 L26.8561241,210.332192 L18.9006953,186.867126 Z M275.839544,186.867126 L262.222143,186.867126 L262.222143,225.641717 L275.839544,225.641717 L275.839544,186.867126 Z M309.954716,186.223268 C307.470137,186.223268 305.17668,186.640583 303.074345,187.475215 C301.122176,188.25023 299.417198,189.34395 297.959409,190.756375 L297.627385,191.087976 L297.627385,186.867126 L284.655019,186.867126 L284.655019,225.641717 L298.272419,225.641717 L298.272419,206.89828 C298.272419,203.845914 298.97718,201.556639 300.3867,200.030456 C301.79622,198.504273 303.671599,197.741181 306.012837,197.741181 C310.178503,197.741181 312.303843,200.281218 312.388857,205.361291 L312.391514,205.682103 L312.391514,225.641717 L326.008914,225.641717 L326.008914,203.464368 C326.008914,197.693488 324.539668,193.377251 321.601177,190.515658 C318.662685,187.654064 314.780531,186.223268 309.954716,186.223268 Z M101.895168,209.831413 L101.895168,213.193786 C101.369585,214.672275 100.509538,215.793066 99.3150294,216.556158 C98.1205206,217.319249 96.7348904,217.700795 95.1581387,217.700795 C93.5813871,217.700795 92.3390979,217.343096 91.4312712,216.627698 C90.5234445,215.912299 90.0695311,214.958435 90.0695311,213.766104 C90.0695311,211.212007 91.9494266,209.901351 95.7092176,209.834138 L96.0181851,209.831413 L101.895168,209.831413 Z M386.068818,197.025783 C388.457836,197.025783 390.41683,197.836568 391.945801,199.458137 C393.474773,201.079707 394.239258,203.321288 394.239258,206.182882 C394.239258,209.092168 393.474773,211.36952 391.945801,213.014936 C390.41683,214.660352 388.457836,215.48306 386.068818,215.48306 C383.6798,215.48306 381.720806,214.660352 380.191835,213.014936 C378.662863,211.36952 377.898378,209.092168 377.898378,206.182882 C377.898378,203.321288 378.662863,201.079707 380.191835,199.458137 C381.720806,197.836568 383.6798,197.025783 386.068818,197.025783 Z M214.346229,195.881145 C216.448565,195.881145 218.204493,196.477311 219.614013,197.669641 C221.023534,198.861972 221.919415,200.483542 222.301658,202.53435 L206.3908,202.53435 C206.773043,200.483542 207.668925,198.861972 209.078445,197.669641 C210.487966,196.477311 212.243894,195.881145 214.346229,195.881145 Z M269.030843,168.123689 C266.546265,168.123689 264.53949,168.815241 263.010519,170.198345 C261.481548,171.581448 260.717062,173.298404 260.717062,175.349213 C260.717062,177.400021 261.481548,179.116977 263.010519,180.500081 C264.53949,181.883184 266.546265,182.574736 269.030843,182.574736 C271.515422,182.574736 273.522196,181.871261 275.051168,180.464311 C276.580139,179.057361 277.344625,177.280788 277.344625,175.134593 C277.344625,173.083785 276.580139,171.402599 275.051168,170.091035 C273.522196,168.779471 271.515422,168.123689 269.030843,168.123689 Z M207.824211,118.73395 L194.20681,118.73395 L194.20681,140.41052 C194.20681,146.32448 195.699947,150.759949 198.686219,153.716929 C201.672491,156.673909 205.674095,158.152399 210.691032,158.152399 C212.936709,158.152399 215.062935,157.747007 217.069709,156.936222 C218.942699,156.179489 220.565957,155.090388 221.939483,153.668918 L222.229988,153.35923 L222.229988,157.508541 L235.202353,157.508541 L235.202353,118.73395 L221.584953,118.73395 L221.584953,137.405847 C221.584953,140.505906 220.904083,142.807104 219.542343,144.309441 C218.180603,145.811778 216.424675,146.562946 214.274559,146.562946 C212.172223,146.562946 210.571581,145.895241 209.472633,144.55983 C208.423637,143.285121 207.875299,141.293387 207.827617,138.584628 L207.824211,138.192785 L207.824211,118.73395 Z M177.507577,110.07763 L163.890177,110.07763 L163.890177,120.164747 L158.228205,120.164747 L158.228205,130.323403 L163.890177,130.323403 L163.890177,143.343653 C163.890177,148.256055 165.251917,151.95228 167.975397,154.432328 C170.698877,156.912375 174.592976,158.152399 179.657693,158.152399 C181.521127,158.152399 183.277055,157.961626 184.925477,157.58008 C186.424043,157.233221 187.715297,156.748405 188.799239,156.125634 L189.118203,155.934664 L185.749688,146.419866 C184.555179,147.230651 183.169549,147.636043 181.592797,147.636043 C180.350508,147.636043 179.359066,147.242574 178.61847,146.455636 C177.927248,145.72116 177.558596,144.727022 177.512514,143.47322 L177.507577,143.200574 L177.507577,130.323403 L186.394723,130.323403 L186.394723,120.164747 L177.507577,120.164747 L177.507577,110.07763 Z M114.365841,118.090091 C110.304511,118.090091 106.649314,118.948569 103.40025,120.665525 C100.151186,122.382482 97.6068818,124.755219 95.7673382,127.783739 C93.9277946,130.812259 93.0080228,134.234248 93.0080228,138.049705 C93.0080228,141.912857 93.9516848,145.370615 95.8390087,148.422981 C97.7263327,151.475348 100.390087,153.860009 103.830273,155.576965 C107.270458,157.293921 111.260118,158.152399 115.799251,158.152399 C122.892967,158.152399 128.322872,156.150367 132.088966,152.146303 L132.355144,151.856894 L125.188091,144.416751 C123.80246,145.609081 122.428775,146.467559 121.067035,146.992185 C119.705295,147.51681 118.092708,147.779123 116.229274,147.779123 C113.744696,147.779123 111.678196,147.242574 110.029774,146.169477 C108.47293,145.155996 107.39555,143.727738 106.797632,141.884704 L106.697094,141.555157 L134.935283,141.555157 C135.078624,139.408962 135.150294,138.288172 135.150294,138.192785 C135.150294,134.043475 134.230522,130.45456 132.390979,127.42604 C130.551435,124.39752 128.054912,122.084399 124.901408,120.486676 C121.747905,118.888953 118.236049,118.090091 114.365841,118.090091 Z M300.995899,118.090091 C298.511321,118.090091 296.217864,118.507407 294.115529,119.342039 C292.16336,120.117053 290.458381,121.210773 289.000593,122.623198 L288.668568,122.9548 L288.668568,118.73395 L275.696203,118.73395 L275.696203,157.508541 L289.313603,157.508541 L289.313603,138.765104 C289.313603,135.712737 290.018363,133.423463 291.427884,131.89728 C292.837404,130.371096 294.712783,129.608005 297.05402,129.608005 C301.219687,129.608005 303.345027,132.148041 303.430041,137.228115 L303.432697,137.548927 L303.432697,157.508541 L317.050098,157.508541 L317.050098,135.331192 C317.050098,129.560312 315.580852,125.244075 312.64236,122.382482 C309.703869,119.520888 305.821715,118.090091 300.995899,118.090091 Z M269.96256,118.090091 C267.095739,118.090091 264.551435,118.531254 262.329649,119.413578 C260.246724,120.240758 258.531251,121.455677 257.183229,123.058337 L256.918524,123.384039 L256.918524,118.73395 L243.946158,118.73395 L243.946158,157.508541 L257.563559,157.508541 L257.563559,139.695122 C257.563559,136.451982 258.38777,134.043475 260.036192,132.469598 C261.684614,130.895722 263.966126,130.108784 266.880727,130.108784 C267.602742,130.108784 268.494642,130.165309 269.556427,130.27836 L269.96256,130.323403 L269.96256,118.090091 Z M21.9825281,107.430656 L7.36174006,107.430656 L23.6309503,157.508541 L38.8251025,157.508541 L48.8589766,127.032571 L58.4628276,157.508541 L73.6569799,157.508541 L89.9261901,107.430656 L76.38046,107.430656 L65.8448921,139.695122 L55.7393475,107.430656 L42.6953111,107.430656 L32.0880727,139.408962 L21.9825281,107.430656 Z M114.437511,127.747969 C116.539847,127.747969 118.295775,128.344134 119.705295,129.536465 C121.114815,130.728796 122.010697,132.350365 122.39294,134.401174 L106.482082,134.401174 C106.864325,132.350365 107.760207,130.728796 109.169727,129.536465 C110.579248,128.344134 112.335176,127.747969 114.437511,127.747969 Z" id="Combined-Shape"></path>
        </g>
    </g>
</svg>