<?xml version="1.0" encoding="utf-8"?>
<!-- Generator: Adobe Illustrator 20.1.0, SVG Export Plug-In . SVG Version: 6.00 Build 0)  -->
<svg version="1.1" id="Layer_1" xmlns="http://www.w3.org/2000/svg" xmlns:xlink="http://www.w3.org/1999/xlink" x="0px" y="0px"
	 viewBox="0 0 1440 459" style="enable-background:new 0 0 1440 459;" xml:space="preserve">
<style type="text/css">
	.st0{fill:#FFFFFF;}
</style>
<title>Combined Shape@3x</title>
<desc>Created with Sketch.</desc>
<g id="Page-1">
	<path id="Combined-Shape" class="st0" d="M1440,0v459H0V0H1440z M1040.1,241c-5.7,0-10.9,1.3-15.7,3.8c-4.8,2.6-8.6,6.2-11.4,10.9
		c-2.8,4.7-4.2,10-4.2,16.1c0,6.1,1.4,11.5,4.2,16.2c2.8,4.7,6.6,8.3,11.4,10.9c4.8,2.6,10,3.8,15.7,3.8c8.2,0,14.4-2.4,18.7-7.2
		l0.3-0.3v2.1c0,5.1-1.4,9-4.1,11.6c-2.8,2.6-7.1,3.9-13,3.9c-3.9,0-7.8-0.6-11.7-1.8c-3.8-1.2-6.9-2.7-9.5-4.7l-0.4-0.3l-8.1,15.7
		c3.9,2.8,8.5,4.8,14,6.3c5.5,1.4,11.4,2.1,17.7,2.1c12.1,0,21.4-3,27.8-8.9c6.3-5.8,9.6-14.5,9.7-26.1l0-0.6V242h-21.4v7.8
		C1055.9,243.9,1049.2,241,1040.1,241z M915.8,241c-6.7,0-12.7,1.4-18.1,4.2c-5.3,2.8-9.5,6.7-12.6,11.7c-3,5-4.5,10.6-4.5,16.9
		c0,6.4,1.6,12.1,4.7,17.1c3.1,5,7.5,9,13.2,11.8s12.2,4.2,19.7,4.2c11.8,0,20.7-3.3,26.9-10l0.3-0.4l-11.8-12.3
		c-2.3,2-4.5,3.4-6.8,4.2c-2.2,0.9-4.9,1.3-8,1.3c-4.1,0-7.5-0.9-10.2-2.7c-2.6-1.7-4.4-4.1-5.4-7.2l-0.1-0.4h46.5
		c0.2-3.5,0.4-5.4,0.4-5.5c0-6.8-1.5-12.8-4.5-17.8c-3-5-7.1-8.8-12.3-11.4C928,242.3,922.2,241,915.8,241z M411.6,241
		c-7.1,0-13.4,1.4-19,4.2c-5.6,2.8-9.9,6.7-13,11.7s-4.7,10.7-4.7,17.1c0,6.4,1.6,12.1,4.7,17.1s7.5,9,13,11.8s11.9,4.2,19,4.2
		c7.2,0,13.5-1.6,18.8-4.7c5.1-3,8.8-7.2,11-12.4l0.2-0.5l-17.3-8.9c-2.9,5.7-7.2,8.6-12.7,8.6c-4,0-7.3-1.4-10-4.1
		c-2.6-2.7-4-6.5-4-11.3c0-4.7,1.3-8.4,4-11.1c2.6-2.7,6-4,10-4c5.5,0,9.7,2.8,12.6,8.3l0.2,0.4l17.3-8.9
		c-2.2-5.5-5.9-9.8-11.2-12.9C425.1,242.5,418.8,241,411.6,241z M334.3,241c-6.7,0-12.7,1.4-18.1,4.2s-9.5,6.7-12.6,11.7
		c-3,5-4.5,10.6-4.5,16.9c0,6.4,1.6,12.1,4.7,17.1c3.1,5,7.5,9,13.2,11.8s12.2,4.2,19.7,4.2c11.8,0,20.7-3.3,26.9-10l0.3-0.4
		l-11.8-12.3c-2.3,2-4.5,3.4-6.8,4.2c-2.2,0.9-4.9,1.3-8,1.3c-4.1,0-7.5-0.9-10.2-2.7c-2.6-1.7-4.4-4.1-5.4-7.2l-0.1-0.4h46.5
		c0.2-3.5,0.4-5.4,0.4-5.5c0-6.8-1.5-12.8-4.5-17.8c-3-5-7.1-8.8-12.3-11.4C346.4,242.3,340.7,241,334.3,241z M564.3,241
		c-6.9,0-13.1,1.4-18.6,4.2c-5.5,2.8-9.8,6.7-12.9,11.7c-3.1,5-4.7,10.7-4.7,17c0,6.4,1.6,12.1,4.7,17.1c3.1,5,7.4,9,12.9,11.8
		s11.7,4.2,18.5,4.2c6.9,0,13.1-1.4,18.6-4.2c5.5-2.8,9.8-6.8,12.9-11.8s4.6-10.7,4.6-17.1c0-6.4-1.5-12.1-4.6-17.1
		s-7.4-8.9-12.9-11.7C577.4,242.4,571.2,241,564.3,241z M633,242h-22.4v35.8c0,9.8,2.5,17.1,7.4,21.9c4.9,4.9,11.5,7.3,19.8,7.3
		c3.7,0,7.2-0.7,10.5-2c3.1-1.3,5.8-3.1,8.1-5.5l0.4-0.4v6.8H678v-64h-22.4v30.8c0,5.1-1.1,8.9-3.4,11.4s-5.1,3.7-8.7,3.7
		c-3.5,0-6.1-1.1-7.9-3.3c-1.7-2.1-2.7-5.5-2.7-10l0-0.5V242z M757.9,241c-6.7,0-12.7,1.4-18.1,4.2c-5.3,2.8-9.5,6.7-12.6,11.7
		c-3,5-4.5,10.6-4.5,16.9c0,6.4,1.6,12.1,4.7,17.1c3.1,5,7.5,9,13.2,11.8s12.2,4.2,19.7,4.2c11.8,0,20.7-3.3,26.9-10l0.3-0.4
		l-11.8-12.3c-2.3,2-4.5,3.4-6.8,4.2c-2.2,0.9-4.9,1.3-8,1.3c-4.1,0-7.5-0.9-10.2-2.7c-2.6-1.7-4.4-4.1-5.4-7.2l-0.1-0.4h46.5
		c0.2-3.5,0.4-5.4,0.4-5.5c0-6.8-1.5-12.8-4.5-17.8c-3-5-7.1-8.8-12.3-11.4S764.3,241,757.9,241z M275.4,227.8H253v16.6h-9.3v16.8
		h9.3v21.5c0,8.1,2.2,14.2,6.7,18.3c4.5,4.1,10.9,6.1,19.2,6.1c3.1,0,6-0.3,8.7-0.9c2.5-0.6,4.7-1.4,6.5-2.5l0.4-0.2l-5.5-15.7
		c-2,1.3-4.2,2-6.8,2c-2,0-3.7-0.6-4.9-1.9c-1.2-1.2-1.8-2.9-1.8-5l0-0.4v-21.2H290v-16.8h-14.6V227.8z M88.4,242H66v35.8
		c0,9.8,2.5,17.1,7.4,21.9c4.9,4.9,11.5,7.3,19.8,7.3c3.7,0,7.2-0.7,10.5-2c3.1-1.3,5.8-3.1,8.1-5.5l0.4-0.4v6.8h21.4v-64H111v30.8
		c0,5.1-1.1,8.9-3.4,11.4c-2.2,2.5-5.1,3.7-8.7,3.7c-3.5,0-6.1-1.1-7.9-3.3c-1.7-2.1-2.7-5.5-2.7-10l0-0.5V242z M844.2,241
		c-4.1,0-7.9,0.7-11.3,2.1c-3.3,1.3-6.1,3.2-8.6,5.6l-0.4,0.4v-7h-21.4v64h22.4v-30.9c0-5,1.2-8.8,3.5-11.3s5.4-3.8,9.3-3.8
		c6.9,0,10.4,4.2,10.5,12.7l0,0.4V306h22.4v-36.6c0-9.5-2.4-16.6-7.3-21.4S852.1,241,844.2,241z M491.7,241c-4.1,0-7.9,0.7-11.3,2.1
		c-3.3,1.3-6.1,3.2-8.6,5.6l-0.4,0.4v-7h-21.4v64h22.4v-30.9c0-5,1.2-8.8,3.5-11.3s5.4-3.8,9.3-3.8c6.9,0,10.4,4.2,10.5,12.7l0,0.4
		V306h22.4v-36.6c0-9.5-2.4-16.6-7.3-21.4C506,243.3,499.7,241,491.7,241z M1118.3,242h-22.4v64h22.4V242z M202.4,242h-57v16.6h28.8
		l-29.6,34.1V306h59v-16.8h-30.8l29.6-34.1V242z M1003.2,241c-4.7,0-8.9,0.7-12.6,2.2c-3.5,1.4-6.4,3.4-8.6,6.2l-0.3,0.4V242h-21.4
		v64h22.4v-29.4c0-5.3,1.4-9.3,4.1-11.9c2.7-2.6,6.5-3.9,11.3-3.9c1.2,0,2.7,0.1,4.6,0.3l0.5,0.1V241z M235.9,242h-22.4v64h22.4V242
		z M564.3,258.8c3.9,0,7.2,1.3,9.7,4c2.5,2.7,3.8,6.4,3.8,11.1c0,4.8-1.3,8.6-3.8,11.3s-5.7,4.1-9.7,4.1s-7.2-1.4-9.7-4.1
		s-3.8-6.5-3.8-11.3c0-4.7,1.3-8.4,3.8-11.1C557.1,260.1,560.3,258.8,564.3,258.8z M1045.4,258.8c4.1,0,7.4,1.2,10,3.6
		c2.6,2.4,3.9,5.5,3.9,9.4s-1.3,7-4,9.4s-6,3.7-10,3.7c-4,0-7.4-1.2-10-3.7s-4-5.6-4-9.4s1.3-7,4-9.4
		C1037.9,260,1041.3,258.8,1045.4,258.8z M334.4,256.9c3.5,0,6.4,1,8.7,3c2.3,2,3.8,4.6,4.4,8h-26.2c0.6-3.4,2.1-6.1,4.4-8
		C328.1,257.9,331,256.9,334.4,256.9z M758,256.9c3.5,0,6.4,1,8.7,3s3.8,4.6,4.4,8h-26.2c0.6-3.4,2.1-6.1,4.4-8
		S754.6,256.9,758,256.9z M915.9,256.9c3.5,0,6.4,1,8.7,3s3.8,4.6,4.4,8h-26.2c0.6-3.4,2.1-6.1,4.4-8
		C909.6,257.9,912.5,256.9,915.9,256.9z M224.7,211.1c-4.1,0-7.4,1.1-9.9,3.4c-2.5,2.3-3.8,5.1-3.8,8.5c0,3.4,1.3,6.2,3.8,8.5
		c2.5,2.3,5.8,3.4,9.9,3.4s7.4-1.2,9.9-3.5s3.8-5.3,3.8-8.8c0-3.4-1.3-6.2-3.8-8.3S228.8,211.1,224.7,211.1z M1107.1,211.1
		c-4.1,0-7.4,1.1-9.9,3.4c-2.5,2.3-3.8,5.1-3.8,8.5c0,3.4,1.3,6.2,3.8,8.5c2.5,2.3,5.8,3.4,9.9,3.4c4.1,0,7.4-1.2,9.9-3.5
		s3.8-5.3,3.8-8.8c0-3.4-1.3-6.2-3.8-8.3S1111.2,211.1,1107.1,211.1z M1154.3,242h-22.4v64h22.4V242z M1143.1,211.1
		c-4.1,0-7.4,1.1-9.9,3.4c-2.5,2.3-3.8,5.1-3.8,8.5c0,3.4,1.3,6.2,3.8,8.5c2.5,2.3,5.8,3.4,9.9,3.4c4.1,0,7.4-1.2,9.9-3.5
		s3.8-5.3,3.8-8.8c0-3.4-1.3-6.2-3.8-8.3S1147.2,211.1,1143.1,211.1z M399.1,216.4h-14.9l15.3,17.9h19.4l15.3-17.9h-14.9l-10.1,9
		L399.1,216.4z M163.8,216.4h-14.9l15.3,17.9h19.4l15.3-17.9h-14.9l-10.1,9L163.8,216.4z M808.2,138c-8.2,0-14.4,2.4-18.6,7.1
		l-0.3,0.3V139h-21.4v86.8h22.4v-28.6c4.4,4.5,10.3,6.7,17.8,6.7c5.8,0,11.1-1.4,15.9-4.1s8.5-6.6,11.3-11.6s4.2-10.8,4.2-17.4
		s-1.4-12.4-4.2-17.4s-6.6-8.9-11.3-11.6C819.3,139.3,814,138,808.2,138z M528,138c-6.7,0-12.7,1.4-18.1,4.2s-9.5,6.7-12.6,11.7
		c-3,5-4.5,10.6-4.5,16.9c0,6.4,1.6,12.1,4.7,17.1c3.1,5,7.5,9,13.2,11.8c5.7,2.8,12.2,4.2,19.7,4.2c11.8,0,20.7-3.3,26.9-10
		l0.3-0.4l-11.8-12.3c-2.3,2-4.5,3.4-6.8,4.2c-2.2,0.9-4.9,1.3-8,1.3c-4.1,0-7.5-0.9-10.2-2.7c-2.6-1.7-4.4-4.1-5.4-7.2l-0.1-0.4
		h46.5c0.2-3.5,0.4-5.4,0.4-5.5c0-6.8-1.5-12.8-4.5-17.8s-7.1-8.8-12.3-11.4S534.4,138,528,138z M209.9,138
		c-6.7,0-12.7,1.4-18.1,4.2s-9.5,6.7-12.6,11.7c-3,5-4.5,10.6-4.5,16.9c0,6.4,1.6,12.1,4.7,17.1c3.1,5,7.5,9,13.2,11.8
		s12.2,4.2,19.7,4.2c11.8,0,20.7-3.3,26.9-10l0.3-0.4l-11.8-12.3c-2.3,2-4.5,3.4-6.8,4.2c-2.2,0.9-4.9,1.3-8,1.3
		c-4.1,0-7.5-0.9-10.2-2.7c-2.6-1.7-4.4-4.1-5.4-7.2l-0.1-0.4h46.5c0.2-3.5,0.4-5.4,0.4-5.5c0-6.8-1.5-12.8-4.5-17.8
		s-7.1-8.8-12.3-11.4S216.3,138,209.9,138z M639.1,138c-6.9,0-13.1,1.4-18.6,4.2c-5.5,2.8-9.8,6.7-12.9,11.7c-3.1,5-4.7,10.7-4.7,17
		c0,6.4,1.6,12.1,4.7,17.1c3.1,5,7.4,9,12.9,11.8s11.7,4.2,18.5,4.2c6.9,0,13.1-1.4,18.6-4.2s9.8-6.8,12.9-11.8
		c3.1-5,4.6-10.7,4.6-17.1c0-6.4-1.5-12.1-4.6-17.1s-7.4-8.9-12.9-11.7C652.2,139.4,646,138,639.1,138z M992,115.4h-22.4v29.1
		c-4.2-4.4-10.1-6.6-17.7-6.6c-5.8,0-11.1,1.3-15.9,4c-4.8,2.7-8.6,6.5-11.4,11.5c-2.8,5-4.2,10.8-4.2,17.4c0,6.6,1.4,12.4,4.2,17.5
		s6.6,8.9,11.4,11.6c4.8,2.7,10.1,4.1,15.9,4.1c8.2,0,14.3-2.4,18.5-7.1l0.3-0.3v6.4H992V115.4z M753.5,115.4h-22.4v29.1
		c-4.2-4.4-10.1-6.6-17.7-6.6c-5.8,0-11.1,1.3-15.9,4c-4.8,2.7-8.6,6.5-11.4,11.5c-2.8,5-4.2,10.8-4.2,17.4c0,6.6,1.4,12.4,4.2,17.5
		s6.6,8.9,11.4,11.6c4.8,2.7,10.1,4.1,15.9,4.1c8.2,0,14.3-2.4,18.5-7.1l0.3-0.3v6.4h21.4V115.4z M877.2,138
		c-5.1,0-10.2,0.6-15.3,1.9c-4.8,1.2-9,3-12.4,5.2l-0.5,0.3l7.6,15.2c2.2-1.7,4.9-3.1,8-4.1s6.3-1.5,9.3-1.5c8.5,0,13,3.3,13.5,9.8
		l0,0.3h-12.7c-9.7,0-16.8,1.7-21.5,5c-4.6,3.3-7,8-7,14.1c0,3.8,0.9,7.1,2.8,10.1c1.8,2.9,4.6,5.3,8.2,7c3.6,1.7,7.9,2.6,12.9,2.6
		c9.2,0,15.4-3,18.7-9l0.2-0.3v8.3h20.9v-35.5c0-10-2.8-17.4-8.4-22.2S887.8,138,877.2,138z M296.2,138c-4.1,0-7.9,0.7-11.3,2.1
		c-3.3,1.3-6.1,3.2-8.6,5.6l-0.4,0.4v-7h-21.4v64h22.4v-30.9c0-5,1.2-8.8,3.5-11.3s5.4-3.8,9.3-3.8c6.9,0,10.4,4.2,10.5,12.7l0,0.4
		V203h22.4v-36.6c0-9.5-2.4-16.6-7.3-21.4C310.5,140.3,304.1,138,296.2,138z M359.1,139h-22.4v64h22.4V139z M456.9,138
		c-4.6,0-8.8,0.9-12.6,2.6c-3.9,1.7-7,4.2-9.6,7.4c-2.2-3.4-5.1-5.9-8.6-7.6c-3.5-1.7-7.6-2.5-12-2.5c-3.9,0-7.4,0.6-10.7,1.9
		c-3.1,1.2-5.8,3-8.1,5.4l-0.4,0.4V139h-21.4v64H396v-31.7c0-4.8,1-8.4,3.1-10.7c2-2.4,4.8-3.5,8.3-3.5c6.4,0,9.6,4.2,9.7,12.7
		l0,0.4V203h22.4v-31.7c0-4.8,1-8.4,3.1-10.7s4.8-3.5,8.1-3.5c3.1,0,5.4,1.1,7.1,3.2c1.6,2,2.5,5.2,2.5,9.4l0,0.5V203h22.4v-36.6
		c0-9.5-2.3-16.6-7-21.4S464.8,138,456.9,138z M86.5,120.4H67.3V203h21.6v-42.6l21.1,34.5h10.4l21.2-35.6l0.2,43.8h21.5l-0.2-82.6
		h-19.2l-28.3,47.7L86.5,120.4z M1055.3,139h-23l26.3,64h23.1l26.4-64h-21.4l-16.2,39.1L1055.3,139z M887.5,176.9v5.5
		c-0.9,2.4-2.3,4.3-4.2,5.5s-4.2,1.9-6.8,1.9s-4.6-0.6-6.1-1.8c-1.5-1.2-2.2-2.8-2.2-4.7c0-4.2,3.1-6.4,9.4-6.5l0.4,0H887.5z
		 M803.5,155.8c3.9,0,7.2,1.4,9.7,4.1s3.8,6.4,3.8,11.2s-1.3,8.4-3.8,11.2c-2.5,2.7-5.7,4.1-9.7,4.1c-3.9,0-7.2-1.4-9.7-4.1
		c-2.5-2.7-3.8-6.4-3.8-11.2s1.3-8.4,3.8-11.2S799.5,155.8,803.5,155.8z M718.1,155.8c3.9,0,7.1,1.3,9.6,4c2.5,2.7,3.7,6.4,3.7,11.1
		c0,4.8-1.3,8.6-3.8,11.3c-2.5,2.7-5.7,4.1-9.6,4.1c-3.9,0-7.2-1.4-9.7-4.1c-2.5-2.7-3.8-6.5-3.8-11.3c0-4.7,1.3-8.4,3.8-11.1
		S714.2,155.8,718.1,155.8z M639.1,155.8c3.9,0,7.2,1.3,9.7,4s3.8,6.4,3.8,11.1c0,4.8-1.3,8.6-3.8,11.3c-2.5,2.7-5.7,4.1-9.7,4.1
		s-7.2-1.4-9.7-4.1c-2.5-2.7-3.8-6.5-3.8-11.3c0-4.7,1.3-8.4,3.8-11.1S635.2,155.8,639.1,155.8z M956.6,155.8c3.9,0,7.1,1.3,9.6,4
		c2.5,2.7,3.7,6.4,3.7,11.1c0,4.8-1.3,8.6-3.8,11.3c-2.5,2.7-5.7,4.1-9.6,4.1c-3.9,0-7.2-1.4-9.7-4.1c-2.5-2.7-3.8-6.5-3.8-11.3
		c0-4.7,1.3-8.4,3.8-11.1S952.7,155.8,956.6,155.8z M528.2,153.9c3.5,0,6.4,1,8.7,2.9c2.3,2,3.8,4.6,4.4,8h-26.2
		c0.6-3.4,2.1-6.1,4.4-8C521.8,154.9,524.7,153.9,528.2,153.9z M210,153.9c3.5,0,6.4,1,8.7,2.9c2.3,2,3.8,4.6,4.4,8h-26.2
		c0.6-3.4,2.1-6.1,4.4-8C203.7,154.9,206.6,153.9,210,153.9z M374.5,113.4h-22.4l-15.8,17.9h16L374.5,113.4z M199.3,113.4h-14.9
		l15.3,17.9h19.4l15.3-17.9h-14.9l-10.1,9L199.3,113.4z"/>
</g>
</svg>
