<?xml version="1.0" encoding="UTF-8"?>
<svg width="1440px" height="459px" viewBox="0 0 1440 459" version="1.1" xmlns="http://www.w3.org/2000/svg" xmlns:xlink="http://www.w3.org/1999/xlink">
    <!-- Generator: Sketch 60.1 (88133) - https://sketch.com -->
    <title>Combined Shape@3x</title>
    <desc>Created with Sketch.</desc>
    <g id="Page-1" stroke="none" stroke-width="1" fill="none" fill-rule="evenodd">
        <path d="M1440,0 L1440,459 L0,459 L0,0 L1440,0 Z M1040.052,240.982 C1034.388,240.982 1029.15667,242.260333 1024.358,244.817 C1019.55933,247.373667 1015.744,250.992333 1012.912,255.673 C1010.08,260.353667 1008.664,265.722667 1008.664,271.78 C1008.664,277.916 1010.08,283.324333 1012.912,288.005 C1015.744,292.685667 1019.55933,296.304333 1024.358,298.861 C1029.15667,301.417667 1034.388,302.696 1040.052,302.696 C1048.21694,302.696 1054.4586,300.282463 1058.77697,295.455389 L1059.05,295.144 L1059.05,297.268 C1059.05,302.381333 1057.67333,306.236 1054.92,308.832 C1052.16667,311.428 1047.84,312.726 1041.94,312.726 C1038.08533,312.726 1034.17167,312.116333 1030.199,310.897 C1026.42497,309.738633 1023.27215,308.172036 1020.74056,306.197208 L1020.346,305.882 L1012.204,321.576 C1016.05867,324.329333 1020.73933,326.414 1026.246,327.83 C1031.75267,329.246 1037.65267,329.954 1043.946,329.954 C1056.06067,329.954 1065.34333,326.984333 1071.794,321.045 C1078.1315,315.209865 1081.35584,306.508349 1081.46702,294.940451 L1081.47,294.318 L1081.47,242.044 L1060.112,242.044 L1060.112,249.832 C1055.864,243.932 1049.17733,240.982 1040.052,240.982 Z M915.798,240.982 C909.111333,240.982 903.093333,242.398 897.744,245.23 C892.394667,248.062 888.205667,251.975667 885.177,256.971 C882.148333,261.966333 880.634,267.610667 880.634,273.904 C880.634,280.276 882.187667,285.979333 885.295,291.014 C888.402333,296.048667 892.788,299.982 898.452,302.814 C904.116,305.646 910.684667,307.062 918.158,307.062 C929.909172,307.062 938.887169,303.718994 945.091991,297.032982 L945.416,296.678 L933.616,284.406 C931.334667,286.372667 929.073,287.788667 926.831,288.654 C924.589,289.519333 921.934,289.952 918.866,289.952 C914.775333,289.952 911.373,289.067 908.659,287.297 C906.05356,285.5978 904.263736,283.191733 903.289528,280.078798 L903.172,279.686 L949.664,279.686 C949.9,276.146 950.018,274.297333 950.018,274.14 C950.018,267.296 948.503667,261.376333 945.475,256.381 C942.446333,251.385667 938.336,247.570333 933.144,244.935 C927.952,242.299667 922.17,240.982 915.798,240.982 Z M411.584,240.982 C404.504,240.982 398.171333,242.378333 392.586,245.171 C387.000667,247.963667 382.654333,251.857667 379.547,256.853 C376.439667,261.848333 374.886,267.532 374.886,273.904 C374.886,280.276 376.439667,285.979333 379.547,291.014 C382.654333,296.048667 387.000667,299.982 392.586,302.814 C398.171333,305.646 404.504,307.062 411.584,307.062 C418.821333,307.062 425.075333,305.508333 430.346,302.401 C435.456949,299.387828 439.12546,295.246595 441.351532,289.977301 L441.556,289.48 L424.21,280.63 C421.299333,286.372667 417.051333,289.244 411.466,289.244 C407.454,289.244 404.130333,287.887 401.495,285.173 C398.859667,282.459 397.542,278.702667 397.542,273.904 C397.542,269.184 398.859667,265.486667 401.495,262.812 C404.130333,260.137333 407.454,258.8 411.466,258.8 C416.932496,258.8 421.117962,261.550449 424.022397,267.051346 L424.21,267.414 L441.556,258.564 C439.353333,253.057333 435.616667,248.750333 430.346,245.643 C425.075333,242.535667 418.821333,240.982 411.584,240.982 Z M1163.952,240.982 C1157.26533,240.982 1151.24733,242.398 1145.898,245.23 C1140.54867,248.062 1136.35967,251.975667 1133.331,256.971 C1130.30233,261.966333 1128.788,267.610667 1128.788,273.904 C1128.788,280.276 1130.34167,285.979333 1133.449,291.014 C1136.55633,296.048667 1140.942,299.982 1146.606,302.814 C1152.27,305.646 1158.83867,307.062 1166.312,307.062 C1178.06317,307.062 1187.04117,303.718994 1193.24599,297.032982 L1193.57,296.678 L1181.77,284.406 C1179.48867,286.372667 1177.227,287.788667 1174.985,288.654 C1172.743,289.519333 1170.088,289.952 1167.02,289.952 C1162.92933,289.952 1159.527,289.067 1156.813,287.297 C1154.20756,285.5978 1152.41774,283.191733 1151.44353,280.078798 L1151.326,279.686 L1197.818,279.686 C1198.054,276.146 1198.172,274.297333 1198.172,274.14 C1198.172,267.296 1196.65767,261.376333 1193.629,256.381 C1190.60033,251.385667 1186.49,247.570333 1181.298,244.935 C1176.106,242.299667 1170.324,240.982 1163.952,240.982 Z M334.294,240.982 C327.607333,240.982 321.589333,242.398 316.24,245.23 C310.890667,248.062 306.701667,251.975667 303.673,256.971 C300.644333,261.966333 299.13,267.610667 299.13,273.904 C299.13,280.276 300.683667,285.979333 303.791,291.014 C306.898333,296.048667 311.284,299.982 316.948,302.814 C322.612,305.646 329.180667,307.062 336.654,307.062 C348.405172,307.062 357.383169,303.718994 363.587991,297.032982 L363.912,296.678 L352.112,284.406 C349.830667,286.372667 347.569,287.788667 345.327,288.654 C343.085,289.519333 340.43,289.952 337.362,289.952 C333.271333,289.952 329.869,289.067 327.155,287.297 C324.54956,285.5978 322.759736,283.191733 321.785528,280.078798 L321.668,279.686 L368.16,279.686 C368.396,276.146 368.514,274.297333 368.514,274.14 C368.514,267.296 366.999667,261.376333 363.971,256.381 C360.942333,251.385667 356.832,247.570333 351.64,244.935 C346.448,242.299667 340.666,240.982 334.294,240.982 Z M564.276,240.982 C557.353333,240.982 551.158333,242.378333 545.691,245.171 C540.223667,247.963667 535.936333,251.877333 532.829,256.912 C529.721667,261.946667 528.168,267.610667 528.168,273.904 C528.168,280.276 529.721667,285.979333 532.829,291.014 C535.936333,296.048667 540.243333,299.982 545.75,302.814 C551.256667,305.646 557.432,307.062 564.276,307.062 C571.198667,307.062 577.413333,305.646 582.92,302.814 C588.426667,299.982 592.714,296.048667 595.782,291.014 C598.85,285.979333 600.384,280.276 600.384,273.904 C600.384,267.532 598.85,261.848333 595.782,256.853 C592.714,251.857667 588.426667,247.963667 582.92,245.171 C577.413333,242.378333 571.198667,240.982 564.276,240.982 Z M632.952,242.044 L610.532,242.044 L610.532,277.798 C610.532,287.552667 612.990333,294.868667 617.907,299.746 C622.823667,304.623333 629.412,307.062 637.672,307.062 C641.369333,307.062 644.87,306.393333 648.174,305.056 C651.304105,303.789053 654.010587,301.957274 656.293446,299.560665 L656.67,299.156 L656.67,306 L678.028,306 L678.028,242.044 L655.608,242.044 L655.608,272.842 C655.608,277.955333 654.487,281.751 652.245,284.229 C650.003,286.707 647.112,287.946 643.572,287.946 C640.110667,287.946 637.475333,286.844667 635.666,284.642 C633.916978,282.512756 633.013316,279.170602 632.955016,274.61554 L632.952,274.14 L632.952,242.044 Z M757.914,240.982 C751.227333,240.982 745.209333,242.398 739.86,245.23 C734.510667,248.062 730.321667,251.975667 727.293,256.971 C724.264333,261.966333 722.75,267.610667 722.75,273.904 C722.75,280.276 724.303667,285.979333 727.411,291.014 C730.518333,296.048667 734.904,299.982 740.568,302.814 C746.232,305.646 752.800667,307.062 760.274,307.062 C772.025172,307.062 781.003169,303.718994 787.207991,297.032982 L787.532,296.678 L775.732,284.406 C773.450667,286.372667 771.189,287.788667 768.947,288.654 C766.705,289.519333 764.05,289.952 760.982,289.952 C756.891333,289.952 753.489,289.067 750.775,287.297 C748.16956,285.5978 746.379736,283.191733 745.405528,280.078798 L745.288,279.686 L791.78,279.686 C792.016,276.146 792.134,274.297333 792.134,274.14 C792.134,267.296 790.619667,261.376333 787.591,256.381 C784.562333,251.385667 780.452,247.570333 775.26,244.935 C770.068,242.299667 764.286,240.982 757.914,240.982 Z M275.412,227.766 L252.992,227.766 L252.992,244.404 L243.67,244.404 L243.67,261.16 L252.992,261.16 L252.992,282.636 C252.992,290.738667 255.234,296.835333 259.718,300.926 C264.202,305.016667 270.613333,307.062 278.952,307.062 C282.02,307.062 284.911,306.747333 287.625,306.118 C290.158067,305.530622 292.331364,304.703399 294.144893,303.636329 L294.528,303.404 L288.982,287.71 C287.015333,289.047333 284.734,289.716 282.138,289.716 C280.092667,289.716 278.460333,289.067 277.241,287.769 C276.085842,286.539316 275.477864,284.868357 275.417066,282.756125 L275.412,282.4 L275.412,261.16 L290.044,261.16 L290.044,244.404 L275.412,244.404 L275.412,227.766 Z M88.382,242.044 L65.962,242.044 L65.962,277.798 C65.962,287.552667 68.4203333,294.868667 73.337,299.746 C78.2536667,304.623333 84.842,307.062 93.102,307.062 C96.7993333,307.062 100.3,306.393333 103.604,305.056 C106.734105,303.789053 109.440587,301.957274 111.723446,299.560665 L112.1,299.156 L112.1,306 L133.458,306 L133.458,242.044 L111.038,242.044 L111.038,272.842 C111.038,277.955333 109.917,281.751 107.675,284.229 C105.433,286.707 102.542,287.946 99.002,287.946 C95.5406667,287.946 92.9053333,286.844667 91.096,284.642 C89.3469778,282.512756 88.4433163,279.170602 88.3850156,274.61554 L88.382,274.14 L88.382,242.044 Z M844.172,240.982 C840.081333,240.982 836.305333,241.670333 832.844,243.047 C829.564842,244.351211 826.709307,246.202601 824.277396,248.601172 L823.876,249.006 L823.876,242.044 L802.518,242.044 L802.518,306 L824.938,306 L824.938,275.084 C824.938,270.049333 826.098333,266.273333 828.419,263.756 C830.739667,261.238667 833.827333,259.98 837.682,259.98 C844.575621,259.98 848.075459,264.212695 848.181514,272.678085 L848.184,273.078 L848.184,306 L870.604,306 L870.604,269.42 C870.604,259.901333 868.185,252.782 863.347,248.062 C858.509,243.342 852.117333,240.982 844.172,240.982 Z M491.706,240.982 C487.615333,240.982 483.839333,241.670333 480.378,243.047 C477.098842,244.351211 474.243307,246.202601 471.811396,248.601172 L471.41,249.006 L471.41,242.044 L450.052,242.044 L450.052,306 L472.472,306 L472.472,275.084 C472.472,270.049333 473.632333,266.273333 475.953,263.756 C478.273667,261.238667 481.361333,259.98 485.216,259.98 C492.109621,259.98 495.609459,264.212695 495.715514,272.678085 L495.718,273.078 L495.718,306 L518.138,306 L518.138,269.42 C518.138,259.901333 515.719,252.782 510.881,248.062 C506.043,243.342 499.651333,240.982 491.706,240.982 Z M1118.286,242.044 L1095.866,242.044 L1095.866,306 L1118.286,306 L1118.286,242.044 Z M202.37,242.044 L145.376,242.044 L145.376,258.682 L174.168,258.682 L144.55,292.784 L144.55,306 L203.55,306 L203.55,289.244 L172.752,289.244 L202.37,255.142 L202.37,242.044 Z M1003.236,240.982 C998.516,240.982 994.327,241.709667 990.669,243.165 C987.170043,244.557058 984.300866,246.614883 982.061469,249.338474 L981.76,249.714 L981.76,242.044 L960.402,242.044 L960.402,306 L982.822,306 L982.822,276.618 C982.822,271.268667 984.179,267.296 986.893,264.7 C989.607,262.104 993.363333,260.806 998.162,260.806 C999.387889,260.806 1000.91124,260.905153 1002.73204,261.103458 L1003.236,261.16 L1003.236,240.982 Z M235.882,242.044 L213.462,242.044 L213.462,306 L235.882,306 L235.882,242.044 Z M564.276,258.8 C568.209333,258.8 571.434667,260.137333 573.952,262.812 C576.469333,265.486667 577.728,269.184 577.728,273.904 C577.728,278.702667 576.469333,282.459 573.952,285.173 C571.434667,287.887 568.209333,289.244 564.276,289.244 C560.342667,289.244 557.117333,287.887 554.6,285.173 C552.082667,282.459 550.824,278.702667 550.824,273.904 C550.824,269.184 552.082667,265.486667 554.6,262.812 C557.117333,260.137333 560.342667,258.8 564.276,258.8 Z M1045.362,258.8 C1049.45267,258.8 1052.796,259.999667 1055.392,262.399 C1057.988,264.798333 1059.286,267.925333 1059.286,271.78 C1059.286,275.634667 1057.96833,278.781333 1055.333,281.22 C1052.69767,283.658667 1049.374,284.878 1045.362,284.878 C1041.35,284.878 1038.00667,283.658667 1035.332,281.22 C1032.65733,278.781333 1031.32,275.634667 1031.32,271.78 C1031.32,267.925333 1032.63767,264.798333 1035.273,262.399 C1037.90833,259.999667 1041.27133,258.8 1045.362,258.8 Z M1164.07,256.912 C1167.53133,256.912 1170.42233,257.895333 1172.743,259.862 C1175.06367,261.828667 1176.53867,264.503333 1177.168,267.886 L1150.972,267.886 C1151.60133,264.503333 1153.07633,261.828667 1155.397,259.862 C1157.71767,257.895333 1160.60867,256.912 1164.07,256.912 Z M334.412,256.912 C337.873333,256.912 340.764333,257.895333 343.085,259.862 C345.405667,261.828667 346.880667,264.503333 347.51,267.886 L321.314,267.886 C321.943333,264.503333 323.418333,261.828667 325.739,259.862 C328.059667,257.895333 330.950667,256.912 334.412,256.912 Z M758.032,256.912 C761.493333,256.912 764.384333,257.895333 766.705,259.862 C769.025667,261.828667 770.500667,264.503333 771.13,267.886 L744.934,267.886 C745.563333,264.503333 747.038333,261.828667 749.359,259.862 C751.679667,257.895333 754.570667,256.912 758.032,256.912 Z M915.916,256.912 C919.377333,256.912 922.268333,257.895333 924.589,259.862 C926.909667,261.828667 928.384667,264.503333 929.014,267.886 L902.818,267.886 C903.447333,264.503333 904.922333,261.828667 907.243,259.862 C909.563667,257.895333 912.454667,256.912 915.916,256.912 Z M224.672,211.128 C220.581333,211.128 217.277333,212.268667 214.76,214.55 C212.242667,216.831333 210.984,219.663333 210.984,223.046 C210.984,226.428667 212.242667,229.260667 214.76,231.542 C217.277333,233.823333 220.581333,234.964 224.672,234.964 C228.762667,234.964 232.066667,233.803667 234.584,231.483 C237.101333,229.162333 238.36,226.232 238.36,222.692 C238.36,219.309333 237.101333,216.536333 234.584,214.373 C232.066667,212.209667 228.762667,211.128 224.672,211.128 Z M1107.076,211.128 C1102.98533,211.128 1099.68133,212.268667 1097.164,214.55 C1094.64667,216.831333 1093.388,219.663333 1093.388,223.046 C1093.388,226.428667 1094.64667,229.260667 1097.164,231.542 C1099.68133,233.823333 1102.98533,234.964 1107.076,234.964 C1111.16667,234.964 1114.47067,233.803667 1116.988,231.483 C1119.50533,229.162333 1120.764,226.232 1120.764,222.692 C1120.764,219.309333 1119.50533,216.536333 1116.988,214.373 C1114.47067,212.209667 1111.16667,211.128 1107.076,211.128 Z M399.076,216.438 L384.208,216.438 L399.548,234.374 L418.9,234.374 L434.24,216.438 L419.372,216.438 L409.224,225.406 L399.076,216.438 Z M163.784,216.438 L148.916,216.438 L164.256,234.374 L183.608,234.374 L198.948,216.438 L184.08,216.438 L173.932,225.406 L163.784,216.438 Z M808.182,137.982 C799.940028,137.982 793.734477,140.357826 789.565349,145.109477 L789.302,145.416 L789.302,139.044 L767.944,139.044 L767.944,225.892 L790.364,225.892 L790.364,197.336 C794.769333,201.82 800.708667,204.062 808.182,204.062 C814.003333,204.062 819.293667,202.705 824.053,199.991 C828.812333,197.277 832.588333,193.422333 835.381,188.427 C838.173667,183.431667 839.57,177.63 839.57,171.022 C839.57,164.414 838.173667,158.612333 835.381,153.617 C832.588333,148.621667 828.812333,144.767 824.053,142.053 C819.293667,139.339 814.003333,137.982 808.182,137.982 Z M528.05,137.982 C521.363333,137.982 515.345333,139.398 509.996,142.23 C504.646667,145.062 500.457667,148.975667 497.429,153.971 C494.400333,158.966333 492.886,164.610667 492.886,170.904 C492.886,177.276 494.439667,182.979333 497.547,188.014 C500.654333,193.048667 505.04,196.982 510.704,199.814 C516.368,202.646 522.936667,204.062 530.41,204.062 C542.161172,204.062 551.139169,200.718994 557.343991,194.032982 L557.668,193.678 L545.868,181.406 C543.586667,183.372667 541.325,184.788667 539.083,185.654 C536.841,186.519333 534.186,186.952 531.118,186.952 C527.027333,186.952 523.625,186.067 520.911,184.297 C518.30556,182.5978 516.515736,180.191733 515.541528,177.078798 L515.424,176.686 L561.916,176.686 C562.152,173.146 562.27,171.297333 562.27,171.14 C562.27,164.296 560.755667,158.376333 557.727,153.381 C554.698333,148.385667 550.588,144.570333 545.396,141.935 C540.204,139.299667 534.422,137.982 528.05,137.982 Z M209.922,137.982 C203.235333,137.982 197.217333,139.398 191.868,142.23 C186.518667,145.062 182.329667,148.975667 179.301,153.971 C176.272333,158.966333 174.758,164.610667 174.758,170.904 C174.758,177.276 176.311667,182.979333 179.419,188.014 C182.526333,193.048667 186.912,196.982 192.576,199.814 C198.24,202.646 204.808667,204.062 212.282,204.062 C224.033172,204.062 233.011169,200.718994 239.215991,194.032982 L239.54,193.678 L227.74,181.406 C225.458667,183.372667 223.197,184.788667 220.955,185.654 C218.713,186.519333 216.058,186.952 212.99,186.952 C208.899333,186.952 205.497,186.067 202.783,184.297 C200.17756,182.5978 198.387736,180.191733 197.413528,177.078798 L197.296,176.686 L243.788,176.686 C244.024,173.146 244.142,171.297333 244.142,171.14 C244.142,164.296 242.627667,158.376333 239.599,153.381 C236.570333,148.385667 232.46,144.570333 227.268,141.935 C222.076,139.299667 216.294,137.982 209.922,137.982 Z M639.088,137.982 C632.165333,137.982 625.970333,139.378333 620.503,142.171 C615.035667,144.963667 610.748333,148.877333 607.641,153.912 C604.533667,158.946667 602.98,164.610667 602.98,170.904 C602.98,177.276 604.533667,182.979333 607.641,188.014 C610.748333,193.048667 615.055333,196.982 620.562,199.814 C626.068667,202.646 632.244,204.062 639.088,204.062 C646.010667,204.062 652.225333,202.646 657.732,199.814 C663.238667,196.982 667.526,193.048667 670.594,188.014 C673.662,182.979333 675.196,177.276 675.196,170.904 C675.196,164.532 673.662,158.848333 670.594,153.853 C667.526,148.857667 663.238667,144.963667 657.732,142.171 C652.225333,139.378333 646.010667,137.982 639.088,137.982 Z M992.026,115.444 L969.606,115.444 L969.606,144.59 C965.436667,140.184667 959.536667,137.982 951.906,137.982 C946.084667,137.982 940.774667,139.319333 935.976,141.994 C931.177333,144.668667 927.381667,148.503667 924.589,153.499 C921.796333,158.494333 920.4,164.296 920.4,170.904 C920.4,177.512 921.796333,183.333333 924.589,188.368 C927.381667,193.402667 931.177333,197.277 935.976,199.991 C940.774667,202.705 946.084667,204.062 951.906,204.062 C960.070944,204.062 966.237179,201.686174 970.404702,196.934523 L970.668,196.628 L970.668,203 L992.026,203 L992.026,115.444 Z M753.548,115.444 L731.128,115.444 L731.128,144.59 C726.958667,140.184667 721.058667,137.982 713.428,137.982 C707.606667,137.982 702.296667,139.319333 697.498,141.994 C692.699333,144.668667 688.903667,148.503667 686.111,153.499 C683.318333,158.494333 681.922,164.296 681.922,170.904 C681.922,177.512 683.318333,183.333333 686.111,188.368 C688.903667,193.402667 692.699333,197.277 697.498,199.991 C702.296667,202.705 707.606667,204.062 713.428,204.062 C721.592944,204.062 727.759179,201.686174 731.926702,196.934523 L732.19,196.628 L732.19,203 L753.548,203 L753.548,115.444 Z M877.212,137.982 C872.098667,137.982 867.005,138.631 861.931,139.929 C857.087636,141.168 852.94313,142.890824 849.497481,145.097473 L849.01,145.416 L856.562,160.638 C858.764667,158.907333 861.439333,157.550333 864.586,156.567 C867.732667,155.583667 870.84,155.092 873.908,155.092 C882.426125,155.092 886.942304,158.369784 887.456538,164.925353 L887.478,165.24 L874.734,165.24 C865.058,165.24 857.899333,166.911667 853.258,170.255 C848.616667,173.598333 846.296,178.298667 846.296,184.356 C846.296,188.132 847.220333,191.495 849.069,194.445 C850.917667,197.395 853.651333,199.735333 857.27,201.466 C860.888667,203.196667 865.176,204.062 870.132,204.062 C879.329099,204.062 885.564904,201.06274 888.839413,195.064219 L889.012,194.74 L889.012,203 L909.898,203 L909.898,167.482 C909.898,157.491333 907.105333,150.077 901.52,145.239 C895.934667,140.401 887.832,137.982 877.212,137.982 Z M296.18,137.982 C292.089333,137.982 288.313333,138.670333 284.852,140.047 C281.572842,141.351211 278.717307,143.202601 276.285396,145.601172 L275.884,146.006 L275.884,139.044 L254.526,139.044 L254.526,203 L276.946,203 L276.946,172.084 C276.946,167.049333 278.106333,163.273333 280.427,160.756 C282.747667,158.238667 285.835333,156.98 289.69,156.98 C296.583621,156.98 300.083459,161.212695 300.189514,169.678085 L300.192,170.078 L300.192,203 L322.612,203 L322.612,166.42 C322.612,156.901333 320.193,149.782 315.355,145.062 C310.517,140.342 304.125333,137.982 296.18,137.982 Z M359.074,139.044 L336.654,139.044 L336.654,203 L359.074,203 L359.074,139.044 Z M456.896,137.982 C452.333333,137.982 448.124667,138.847333 444.27,140.578 C440.415333,142.308667 437.229333,144.786667 434.712,148.012 C432.509333,144.629333 429.638,142.112 426.098,140.46 C422.558,138.808 418.546,137.982 414.062,137.982 C410.207333,137.982 406.647667,138.631 403.383,139.929 C400.290158,141.158684 397.603288,142.97085 395.322391,145.365499 L394.946,145.77 L394.946,139.044 L373.588,139.044 L373.588,203 L396.008,203 L396.008,171.258 C396.008,166.459333 397.030667,162.88 399.076,160.52 C401.121333,158.16 403.874667,156.98 407.336,156.98 C413.687426,156.98 416.911996,161.212695 417.00971,169.678085 L417.012,170.078 L417.012,203 L439.432,203 L439.432,171.258 C439.432,166.459333 440.454667,162.88 442.5,160.52 C444.545333,158.16 447.259333,156.98 450.642,156.98 C453.71,156.98 456.089667,158.042 457.781,160.166 C459.411929,162.214143 460.256517,165.359505 460.314764,169.602087 L460.318,170.078 L460.318,203 L482.738,203 L482.738,166.42 C482.738,156.901333 480.397667,149.782 475.717,145.062 C471.036333,140.342 464.762667,137.982 456.896,137.982 Z M86.494,120.4 L67.26,120.4 L67.26,203 L88.854,203 L88.854,160.402 L109.976,194.858 L120.36,194.858 L141.6,159.222 L141.836,203 L163.312,203 L163.076,120.4 L143.842,120.4 L115.522,168.072 L86.494,120.4 Z M1055.274,139.044 L1032.264,139.044 L1058.578,203 L1081.706,203 L1108.138,139.044 L1086.78,139.044 L1070.614,178.102 L1055.274,139.044 Z M887.478,176.922 L887.478,182.468 C886.612667,184.906667 885.196667,186.755333 883.23,188.014 C881.263333,189.272667 878.982,189.902 876.386,189.902 C873.79,189.902 871.744667,189.312 870.25,188.132 C868.755333,186.952 868.008,185.378667 868.008,183.412 C868.008,179.165457 871.152873,177.002865 877.442618,176.924226 L877.802,176.922 L887.478,176.922 Z M803.462,155.8 C807.395333,155.8 810.620667,157.157 813.138,159.871 C815.655333,162.585 816.914,166.302 816.914,171.022 C816.914,175.742 815.655333,179.459 813.138,182.173 C810.620667,184.887 807.395333,186.244 803.462,186.244 C799.528667,186.244 796.303333,184.887 793.786,182.173 C791.268667,179.459 790.01,175.742 790.01,171.022 C790.01,166.302 791.268667,162.585 793.786,159.871 C796.303333,157.157 799.528667,155.8 803.462,155.8 Z M718.148,155.8 C722.081333,155.8 725.287,157.137333 727.765,159.812 C730.243,162.486667 731.482,166.184 731.482,170.904 C731.482,175.702667 730.223333,179.459 727.706,182.173 C725.188667,184.887 722.002667,186.244 718.148,186.244 C714.214667,186.244 710.989333,184.887 708.472,182.173 C705.954667,179.459 704.696,175.702667 704.696,170.904 C704.696,166.184 705.954667,162.486667 708.472,159.812 C710.989333,157.137333 714.214667,155.8 718.148,155.8 Z M639.088,155.8 C643.021333,155.8 646.246667,157.137333 648.764,159.812 C651.281333,162.486667 652.54,166.184 652.54,170.904 C652.54,175.702667 651.281333,179.459 648.764,182.173 C646.246667,184.887 643.021333,186.244 639.088,186.244 C635.154667,186.244 631.929333,184.887 629.412,182.173 C626.894667,179.459 625.636,175.702667 625.636,170.904 C625.636,166.184 626.894667,162.486667 629.412,159.812 C631.929333,157.137333 635.154667,155.8 639.088,155.8 Z M956.626,155.8 C960.559333,155.8 963.765,157.137333 966.243,159.812 C968.721,162.486667 969.96,166.184 969.96,170.904 C969.96,175.702667 968.701333,179.459 966.184,182.173 C963.666667,184.887 960.480667,186.244 956.626,186.244 C952.692667,186.244 949.467333,184.887 946.95,182.173 C944.432667,179.459 943.174,175.702667 943.174,170.904 C943.174,166.184 944.432667,162.486667 946.95,159.812 C949.467333,157.137333 952.692667,155.8 956.626,155.8 Z M528.168,153.912 C531.629333,153.912 534.520333,154.895333 536.841,156.862 C539.161667,158.828667 540.636667,161.503333 541.266,164.886 L515.07,164.886 C515.699333,161.503333 517.174333,158.828667 519.495,156.862 C521.815667,154.895333 524.706667,153.912 528.168,153.912 Z M210.04,153.912 C213.501333,153.912 216.392333,154.895333 218.713,156.862 C221.033667,158.828667 222.508667,161.503333 223.138,164.886 L196.942,164.886 C197.571333,161.503333 199.046333,158.828667 201.367,156.862 C203.687667,154.895333 206.578667,153.912 210.04,153.912 Z M374.532,113.438 L352.112,113.438 L336.3,131.374 L352.348,131.374 L374.532,113.438 Z M199.302,113.438 L184.434,113.438 L199.774,131.374 L219.126,131.374 L234.466,113.438 L219.598,113.438 L209.45,122.406 L199.302,113.438 Z" id="Combined-Shape" fill="#FFFFFF"></path>
    </g>
</svg>