<svg height="84" viewBox="0 0 602 84" width="602" xmlns="http://www.w3.org/2000/svg"><g fill="none" transform="translate(-.35 .43)"><g fill="#fff"><path d="m238.11 21.6c4.11 4.16 6.17 10.06 6.17 17.7s-2.06 13.54-6.17 17.7-9.92 6.24-17.41 6.24h-18.5v-47.88h18.5c7.5 0 13.3 2.08 17.41 6.24zm-7.65 29.56c2.3-2.73 3.45-6.69 3.45-11.86s-1.15-9.13-3.45-11.86-5.72-4.1-10.27-4.1h-7.98v31.93h7.98c4.55-.01 7.97-1.37 10.27-4.11z"/><path d="m273.23 65.49c-1.79 4.93-3.86 8.39-6.2 10.38-2.35 1.98-5.48 2.97-9.4 2.97s-6.99-.94-9.21-2.83l2.47-7.04c.77.87 1.63 1.46 2.58 1.78.94.31 2.12.47 3.52.47 1.5 0 2.71-.32 3.63-.94.92-.63 1.69-1.77 2.32-3.41l1.31-3.12-3.99-9.43-11.1-27.35h11.03l6.82 21.77 1.96 7.26 2.18-7.69 6.68-21.33h10.09z"/><path d="m324.64 29.65c2.39 2.27 3.59 5.54 3.59 9.79v23.8h-9.94v-20.9c0-5.51-2.15-8.27-6.46-8.27-2.32 0-4.29.82-5.91 2.47s-2.43 4.16-2.43 7.55v19.16h-9.94v-36.28h8.92l.29 6.46c1.21-2.37 2.88-4.16 5.01-5.37s4.6-1.8100652 7.4-1.8100652c3.92-.0099348 7.07 1.1300652 9.47 3.4000652z"/><path d="m374.09 56.93-.73 6.02c-1.35.68-2.93 1.02-4.72 1.02-4.64 0-7.43-1.81-8.34-5.44-1.07 1.79-2.71 3.15-4.93 4.06-2.23.92-4.86 1.38-7.91 1.38-3.53 0-6.29-.8-8.27-2.39-1.98-1.6-2.97-3.89-2.97-6.89 0-5.9 4.72-9.72 14.15-11.46l8.71-1.67v-1.74c0-1.93-.54-3.47-1.63-4.61s-2.6-1.71-4.53-1.71c-2.23 0-4.04.48-5.44 1.45s-2.37 2.54-2.9 4.72l-7.91-3.34c.77-3.14 2.51-5.61 5.22-7.4s6.24-2.68 10.59-2.68c5.18 0 9.21 1.12 12.12 3.37 2.9 2.25 4.35 5.58 4.35 9.98v14.87c0 .97.22 1.67.65 2.1.44.44 1.11.65 2.03.65 1 0 1.83-.09 2.46-.29zm-17.67-1.27c1.76-1.04 2.65-2.45 2.65-4.24v-3.77l-7.76 1.74c-1.64.39-2.87.91-3.66 1.56-.8.65-1.2 1.56-1.2 2.72s.36 2.04 1.09 2.65 1.74.91 3.05.91c2.11-.01 4.06-.53 5.83-1.57z"/><path d="m434.78 29.65c2.44 2.27 3.66 5.54 3.66 9.79v23.8h-9.94v-21.83c0-2.52-.56-4.37-1.67-5.55s-2.64-1.78-4.57-1.78c-2.32 0-4.23.85-5.73 2.54s-2.25 4.06-2.25 7.11v19.52h-9.94v-21.84c0-2.52-.56-4.37-1.67-5.55s-2.66-1.78-4.64-1.78c-2.18 0-4.05.83-5.62 2.5s-2.36 4.15-2.36 7.44v19.23h-9.94v-36.28h8.92l.29 6.46c1.21-2.37 2.87-4.16 4.97-5.37s4.46-1.8100652 7.07-1.8100652c2.71 0 5.12.6300652 7.22 1.8900652s3.64 3.07 4.61 5.44c1.16-2.37 2.85-4.18 5.08-5.44 2.22-1.26 4.64-1.8900652 7.26-1.8900652 3.72-.0099348 6.81 1.1300652 9.25 3.4000652z"/><path d="m482.27 48.88h-25.69c1.02 5.13 4.04 7.69 9.07 7.69 2.08 0 3.8-.39 5.15-1.16s2.3-1.89 2.83-3.34l8.13 2.97c-1.16 2.9-3.11 5.12-5.84 6.64s-6.16 2.29-10.27 2.29c-6 0-10.64-1.66-13.93-4.97s-4.93-7.94-4.93-13.89 1.6-10.58 4.79-13.89 7.69-4.97 13.5-4.97c5.61 0 9.93 1.62 12.95 4.86s4.53 7.86 4.53 13.86c0 1.35-.1 2.65-.29 3.91zm-23.04-13.21c-1.43 1.4-2.33 3.48-2.72 6.24h16.91c-.39-2.71-1.31-4.78-2.76-6.2-1.45-1.43-3.34-2.14-5.66-2.14-2.42 0-4.34.7-5.77 2.1z"/><path d="m509.55 65.49c-1.79 4.93-3.86 8.39-6.2 10.38-2.35 1.98-5.48 2.97-9.4 2.97s-6.99-.94-9.21-2.83l2.47-7.04c.77.87 1.63 1.46 2.58 1.78.94.31 2.11.47 3.52.47 1.5 0 2.71-.32 3.63-.94.92-.63 1.69-1.77 2.32-3.41l1.31-3.12-3.99-9.43-11.1-27.35h11.03l6.82 21.77 1.96 7.26 2.18-7.69 6.67-21.33h10.08z"/><path d="m562.95 48.88h-25.69c1.02 5.13 4.04 7.69 9.07 7.69 2.08 0 3.8-.39 5.15-1.16s2.3-1.89 2.83-3.34l8.13 2.97c-1.16 2.9-3.11 5.12-5.84 6.64s-6.16 2.29-10.27 2.29c-6 0-10.64-1.66-13.93-4.97s-4.93-7.94-4.93-13.89 1.6-10.58 4.79-13.89 7.69-4.97 13.5-4.97c5.61 0 9.93 1.62 12.95 4.86s4.53 7.86 4.53 13.86c0 1.35-.1 2.65-.29 3.91zm-23.04-13.21c-1.43 1.4-2.33 3.48-2.72 6.24h16.91c-.39-2.71-1.31-4.78-2.76-6.2-1.45-1.43-3.34-2.14-5.66-2.14-2.42 0-4.34.7-5.77 2.1z"/><path d="m568.83 57.01 5.8-5.95c.97 2.08 2.36 3.54 4.17 4.39s4.05 1.27 6.71 1.27c2.13 0 3.77-.29 4.93-.87s1.74-1.38 1.74-2.39c0-.82-.54-1.52-1.63-2.1s-2.96-1.14-5.62-1.67c-5.56-1.11-9.47-2.58-11.72-4.39s-3.37-4.27-3.37-7.36c0-2.03.63-3.94 1.89-5.73s3.12-3.23 5.59-4.32 5.42-1.63 8.85-1.63c4.06 0 7.35.62 9.87 1.85 2.51 1.23 4.62 3.18 6.31 5.84l-6.17 5.22c-1.06-1.93-2.38-3.36-3.95-4.28s-3.54-1.38-5.91-1.38c-1.98 0-3.57.34-4.75 1.02-1.19.68-1.78 1.5-1.78 2.47 0 1.02.58 1.86 1.74 2.54s3.22 1.31 6.17 1.89c5.27 1.06 9.01 2.46 11.21 4.17 2.2 1.72 3.3 4.1 3.3 7.15 0 3.39-1.44 6.11-4.32 8.16-2.88 2.06-6.95 3.08-12.23 3.08-8.08-.02-13.69-2.34-16.83-6.98z"/></g><path d="m88.85 16.59c-13.73 0-24.9 11.17-24.9 24.9s11.17 24.9 24.9 24.9 24.9-11.17 24.9-24.9-11.18-24.9-24.9-24.9zm0 41.34c-9.06 0-16.43-7.37-16.43-16.43s7.37-16.43 16.43-16.43 16.43 7.37 16.43 16.43-7.37 16.43-16.43 16.43z" fill="#e42520"/><path d="m88.85 0c-22.88 0-41.5 18.61-41.5 41.49s18.61 41.49 41.5 41.49 41.5-18.61 41.5-41.49-18.62-41.49-41.5-41.49zm0 74.53c-18.22 0-33.03-14.82-33.03-33.03s14.81-33.04 33.03-33.04 33.03 14.82 33.03 33.03-14.82 33.04-33.03 33.04z" fill="#e42520"/><circle cx="88.85" cy="41.49" fill="#e42520" r="8.3"/><path d="m132.13 76.03 44.95-36.27-44.87-35.88.04 12.96 29.24 22.97-29.33 23.58z" fill="#fff"/><path d="m44.95 76.03-44.95-36.27 44.87-35.88-.04 12.96-29.24 22.97 29.34 23.58z" fill="#fff"/></g></svg>