<?xml version="1.0" encoding="utf-8"?>
<!-- Generator: Adobe Illustrator 23.0.3, SVG Export Plug-In . SVG Version: 6.00 Build 0)  -->
<svg version="1.1" id="Layer_1" xmlns="http://www.w3.org/2000/svg" xmlns:xlink="http://www.w3.org/1999/xlink" x="0px" y="0px"
	 viewBox="0 0 179 86" style="enable-background:new 0 0 179 86;" xml:space="preserve">
<style type="text/css">
	.st0{fill:#E42520;}
	.st1{fill:#FFFFFF;}
</style>
<g>
	<g>
		<path class="st0" d="M89.5,18.02c-13.73,0-24.9,11.17-24.9,24.9s11.17,24.9,24.9,24.9c13.73,0,24.9-11.17,24.9-24.9
			S103.22,18.02,89.5,18.02z M89.5,59.36c-9.06,0-16.43-7.37-16.43-16.43s7.37-16.43,16.43-16.43c9.06,0,16.43,7.37,16.43,16.43
			S98.56,59.36,89.5,59.36z"/>
		<path class="st0" d="M89.5,1.43C66.62,1.43,48,20.04,48,42.92s18.61,41.49,41.5,41.49s41.5-18.61,41.5-41.49
			S112.38,1.43,89.5,1.43z M89.5,75.96c-18.22,0-33.03-14.82-33.03-33.03S71.28,9.89,89.5,9.89s33.03,14.82,33.03,33.03
			S107.71,75.96,89.5,75.96z"/>
		<circle class="st0" cx="89.5" cy="42.92" r="8.3"/>
	</g>
</g>
<g>
	<polygon class="st1" points="132.78,77.46 177.73,41.19 132.86,5.31 132.9,18.27 162.14,41.24 132.81,64.82 	"/>
</g>
<g>
	<g>
		<polygon class="st1" points="45.6,77.46 0.65,41.19 45.52,5.31 45.48,18.27 16.24,41.24 45.58,64.82 		"/>
	</g>
</g>
</svg>
