<svg enable-background="new 0 0 179 86" viewBox="0 0 179 86" xmlns="http://www.w3.org/2000/svg"><g fill="#e42520"><path d="m89.5 18.02c-13.73 0-24.9 11.17-24.9 24.9s11.17 24.9 24.9 24.9 24.9-11.17 24.9-24.9-11.18-24.9-24.9-24.9zm0 41.34c-9.06 0-16.43-7.37-16.43-16.43s7.37-16.43 16.43-16.43 16.43 7.37 16.43 16.43-7.37 16.43-16.43 16.43z"/><path d="m89.5 1.43c-22.88 0-41.5 18.61-41.5 41.49s18.61 41.49 41.5 41.49 41.5-18.61 41.5-41.49-18.62-41.49-41.5-41.49zm0 74.53c-18.22 0-33.03-14.82-33.03-33.03s14.81-33.04 33.03-33.04 33.03 14.82 33.03 33.03-14.82 33.04-33.03 33.04z"/><circle cx="89.5" cy="42.92" r="8.3"/></g><path d="m132.78 77.46 44.95-36.27-44.87-35.88.04 12.96 29.24 22.97-29.33 23.58z" fill="#fff"/><path d="m45.6 77.46-44.95-36.27 44.87-35.88-.04 12.96-29.24 22.97 29.34 23.58z" fill="#fff"/></svg>