<?xml version="1.0" encoding="UTF-8"?>
<svg width="602px" height="84px" viewBox="0 0 602 84" version="1.1" xmlns="http://www.w3.org/2000/svg" xmlns:xlink="http://www.w3.org/1999/xlink">
    <!-- Generator: Sketch 56.3 (81716) - https://sketch.com -->
    <title>Group</title>
    <desc>Created with Sketch.</desc>
    <g id="Page-1" stroke="none" stroke-width="1" fill="none" fill-rule="evenodd">
        <g id="logo" transform="translate(0.000000, -10.000000)" fill-rule="nonzero">
            <g id="Group" transform="translate(-0.350000, 10.430000)">
                <path d="M238.11,21.6 C242.22,25.76 244.28,31.66 244.28,39.3 C244.28,46.94 242.22,52.84 238.11,57 C234,61.16 228.19,63.24 220.7,63.24 L202.2,63.24 L202.2,15.36 L220.7,15.36 C228.2,15.36 234,17.44 238.11,21.6 Z M230.46,51.16 C232.76,48.43 233.91,44.47 233.91,39.3 C233.91,34.13 232.76,30.17 230.46,27.44 C228.16,24.71 224.74,23.34 220.19,23.34 L212.21,23.34 L212.21,55.27 L220.19,55.27 C224.74,55.26 228.16,53.9 230.46,51.16 Z" id="Shape" fill="#FFFFFF"></path>
                <path d="M273.23,65.49 C271.44,70.42 269.37,73.88 267.03,75.87 C264.68,77.85 261.55,78.84 257.63,78.84 C253.71,78.84 250.64,77.9 248.42,76.01 L250.89,68.97 C251.66,69.84 252.52,70.43 253.47,70.75 C254.41,71.06 255.59,71.22 256.99,71.22 C258.49,71.22 259.7,70.9 260.62,70.28 C261.54,69.65 262.31,68.51 262.94,66.87 L264.25,63.75 L260.26,54.32 L249.16,26.97 L260.19,26.97 L267.01,48.74 L268.97,56 L271.15,48.31 L277.83,26.98 L287.92,26.98 L273.23,65.49 Z" id="Path" fill="#FFFFFF"></path>
                <path d="M324.64,29.65 C327.03,31.92 328.23,35.19 328.23,39.44 L328.23,63.24 L318.29,63.24 L318.29,42.34 C318.29,36.83 316.14,34.07 311.83,34.07 C309.51,34.07 307.54,34.89 305.92,36.54 C304.3,38.19 303.49,40.7 303.49,44.09 L303.49,63.25 L293.55,63.25 L293.55,26.97 L302.47,26.97 L302.76,33.43 C303.97,31.06 305.64,29.27 307.77,28.06 C309.9,26.85 312.37,26.2499348 315.17,26.2499348 C319.09,26.24 322.24,27.38 324.64,29.65 Z" id="Path" fill="#FFFFFF"></path>
                <path d="M374.09,56.93 L373.36,62.95 C372.01,63.63 370.43,63.97 368.64,63.97 C364,63.97 361.21,62.16 360.3,58.53 C359.23,60.32 357.59,61.68 355.37,62.59 C353.14,63.51 350.51,63.97 347.46,63.97 C343.93,63.97 341.17,63.17 339.19,61.58 C337.21,59.98 336.22,57.69 336.22,54.69 C336.22,48.79 340.94,44.97 350.37,43.23 L359.08,41.56 L359.08,39.82 C359.08,37.89 358.54,36.35 357.45,35.21 C356.36,34.07 354.85,33.5 352.92,33.5 C350.69,33.5 348.88,33.98 347.48,34.95 C346.08,35.92 345.11,37.49 344.58,39.67 L336.67,36.33 C337.44,33.19 339.18,30.72 341.89,28.93 C344.6,27.14 348.13,26.25 352.48,26.25 C357.66,26.25 361.69,27.37 364.6,29.62 C367.5,31.87 368.95,35.2 368.95,39.6 L368.95,54.47 C368.95,55.44 369.17,56.14 369.6,56.57 C370.04,57.01 370.71,57.22 371.63,57.22 C372.63,57.22 373.46,57.13 374.09,56.93 Z M356.42,55.66 C358.18,54.62 359.07,53.21 359.07,51.42 L359.07,47.65 L351.31,49.39 C349.67,49.78 348.44,50.3 347.65,50.95 C346.85,51.6 346.45,52.51 346.45,53.67 C346.45,54.83 346.81,55.71 347.54,56.32 C348.27,56.93 349.28,57.23 350.59,57.23 C352.7,57.22 354.65,56.7 356.42,55.66 Z" id="Shape" fill="#FFFFFF"></path>
                <path d="M434.78,29.65 C437.22,31.92 438.44,35.19 438.44,39.44 L438.44,63.24 L428.5,63.24 L428.5,41.41 C428.5,38.89 427.94,37.04 426.83,35.86 C425.72,34.68 424.19,34.08 422.26,34.08 C419.94,34.08 418.03,34.93 416.53,36.62 C415.03,38.31 414.28,40.68 414.28,43.73 L414.28,63.25 L404.34,63.25 L404.34,41.41 C404.34,38.89 403.78,37.04 402.67,35.86 C401.56,34.68 400.01,34.08 398.03,34.08 C395.85,34.08 393.98,34.91 392.41,36.58 C390.84,38.25 390.05,40.73 390.05,44.02 L390.05,63.25 L380.11,63.25 L380.11,26.97 L389.03,26.97 L389.32,33.43 C390.53,31.06 392.19,29.27 394.29,28.06 C396.39,26.85 398.75,26.2499348 401.36,26.2499348 C404.07,26.2499348 406.48,26.88 408.58,28.14 C410.68,29.4 412.22,31.21 413.19,33.58 C414.35,31.21 416.04,29.4 418.27,28.14 C420.49,26.88 422.91,26.2499348 425.53,26.2499348 C429.25,26.24 432.34,27.38 434.78,29.65 Z" id="Path" fill="#FFFFFF"></path>
                <path d="M482.27,48.88 L456.58,48.88 C457.6,54.01 460.62,56.57 465.65,56.57 C467.73,56.57 469.45,56.18 470.8,55.41 C472.15,54.64 473.1,53.52 473.63,52.07 L481.76,55.04 C480.6,57.94 478.65,60.16 475.92,61.68 C473.19,63.2 469.76,63.97 465.65,63.97 C459.65,63.97 455.01,62.31 451.72,59 C448.43,55.69 446.79,51.06 446.79,45.11 C446.79,39.16 448.39,34.53 451.58,31.22 C454.77,27.91 459.27,26.25 465.08,26.25 C470.69,26.25 475.01,27.87 478.03,31.11 C481.05,34.35 482.56,38.97 482.56,44.97 C482.56,46.32 482.46,47.62 482.27,48.88 Z M459.23,35.67 C457.8,37.07 456.9,39.15 456.51,41.91 L473.42,41.91 C473.03,39.2 472.11,37.13 470.66,35.71 C469.21,34.28 467.32,33.57 465,33.57 C462.58,33.57 460.66,34.27 459.23,35.67 Z" id="Shape" fill="#FFFFFF"></path>
                <path d="M509.55,65.49 C507.76,70.42 505.69,73.88 503.35,75.87 C501,77.85 497.87,78.84 493.95,78.84 C490.03,78.84 486.96,77.9 484.74,76.01 L487.21,68.97 C487.98,69.84 488.84,70.43 489.79,70.75 C490.73,71.06 491.9,71.22 493.31,71.22 C494.81,71.22 496.02,70.9 496.94,70.28 C497.86,69.65 498.63,68.51 499.26,66.87 L500.57,63.75 L496.58,54.32 L485.48,26.97 L496.51,26.97 L503.33,48.74 L505.29,56 L507.47,48.31 L514.14,26.98 L524.22,26.98 L509.55,65.49 Z" id="Path" fill="#FFFFFF"></path>
                <path d="M562.95,48.88 L537.26,48.88 C538.28,54.01 541.3,56.57 546.33,56.57 C548.41,56.57 550.13,56.18 551.48,55.41 C552.83,54.64 553.78,53.52 554.31,52.07 L562.44,55.04 C561.28,57.94 559.33,60.16 556.6,61.68 C553.87,63.2 550.44,63.97 546.33,63.97 C540.33,63.97 535.69,62.31 532.4,59 C529.11,55.69 527.47,51.06 527.47,45.11 C527.47,39.16 529.07,34.53 532.26,31.22 C535.45,27.91 539.95,26.25 545.76,26.25 C551.37,26.25 555.69,27.87 558.71,31.11 C561.73,34.35 563.24,38.97 563.24,44.97 C563.24,46.32 563.14,47.62 562.95,48.88 Z M539.91,35.67 C538.48,37.07 537.58,39.15 537.19,41.91 L554.1,41.91 C553.71,39.2 552.79,37.13 551.34,35.71 C549.89,34.28 548,33.57 545.68,33.57 C543.26,33.57 541.34,34.27 539.91,35.67 Z" id="Shape" fill="#FFFFFF"></path>
                <path d="M568.83,57.01 L574.63,51.06 C575.6,53.14 576.99,54.6 578.8,55.45 C580.61,56.3 582.85,56.72 585.51,56.72 C587.64,56.72 589.28,56.43 590.44,55.85 C591.6,55.27 592.18,54.47 592.18,53.46 C592.18,52.64 591.64,51.94 590.55,51.36 C589.46,50.78 587.59,50.22 584.93,49.69 C579.37,48.58 575.46,47.11 573.21,45.3 C570.96,43.49 569.84,41.03 569.84,37.94 C569.84,35.91 570.47,34 571.73,32.21 C572.99,30.42 574.85,28.98 577.32,27.89 C579.79,26.8 582.74,26.26 586.17,26.26 C590.23,26.26 593.52,26.88 596.04,28.11 C598.55,29.34 600.66,31.29 602.35,33.95 L596.18,39.17 C595.12,37.24 593.8,35.81 592.23,34.89 C590.66,33.97 588.69,33.51 586.32,33.51 C584.34,33.51 582.75,33.85 581.57,34.53 C580.38,35.21 579.79,36.03 579.79,37 C579.79,38.02 580.37,38.86 581.53,39.54 C582.69,40.22 584.75,40.85 587.7,41.43 C592.97,42.49 596.71,43.89 598.91,45.6 C601.11,47.32 602.21,49.7 602.21,52.75 C602.21,56.14 600.77,58.86 597.89,60.91 C595.01,62.97 590.94,63.99 585.66,63.99 C577.58,63.97 571.97,61.65 568.83,57.01 Z" id="Path" fill="#FFFFFF"></path>
                <path d="M88.85,16.59 C75.12,16.59 63.95,27.76 63.95,41.49 C63.95,55.22 75.12,66.39 88.85,66.39 C102.58,66.39 113.75,55.22 113.75,41.49 C113.75,27.76 102.57,16.59 88.85,16.59 Z M88.85,57.93 C79.79,57.93 72.42,50.56 72.42,41.5 C72.42,32.44 79.79,25.07 88.85,25.07 C97.91,25.07 105.28,32.44 105.28,41.5 C105.28,50.56 97.91,57.93 88.85,57.93 Z" id="Shape" fill="#E42520"></path>
                <path d="M88.85,0 C65.97,0 47.35,18.61 47.35,41.49 C47.35,64.37 65.96,82.98 88.85,82.98 C111.74,82.98 130.35,64.37 130.35,41.49 C130.35,18.61 111.73,0 88.85,0 Z M88.85,74.53 C70.63,74.53 55.82,59.71 55.82,41.5 C55.82,23.29 70.63,8.46 88.85,8.46 C107.07,8.46 121.88,23.28 121.88,41.49 C121.88,59.7 107.06,74.53 88.85,74.53 Z" id="Shape" fill="#E42520"></path>
                <circle id="Oval" fill="#E42520" cx="88.85" cy="41.49" r="8.3"></circle>
                <polygon id="Path" fill="#FFFFFF" points="132.13 76.03 177.08 39.76 132.21 3.88 132.25 16.84 161.49 39.81 132.16 63.39"></polygon>
                <polygon id="Path" fill="#FFFFFF" points="44.95 76.03 0 39.76 44.87 3.88 44.83 16.84 15.59 39.81 44.93 63.39"></polygon>
            </g>
        </g>
    </g>
</svg>