<?xml version="1.0" encoding="UTF-8"?>
<svg width="42px" height="39px" viewBox="0 0 42 39" version="1.1" xmlns="http://www.w3.org/2000/svg" xmlns:xlink="http://www.w3.org/1999/xlink">
    <!-- Generator: Sketch 47.1 (45422) - http://www.bohemiancoding.com/sketch -->
    <title>Group 3</title>
    <desc>Created with Sketch.</desc>
    <defs></defs>
    <g id="Page-1" stroke="none" stroke-width="1" fill="none" fill-rule="evenodd">
        <g id="Desktop-final" transform="translate(-540.000000, -1042.000000)" fill-rule="nonzero">
            <g id="Group-3" transform="translate(540.000000, 1039.000000)">
                <path d="M30.5930049,3 L30.0406863,4.26250831 L29.9624751,4.86455438 L30.0339281,5.49315371 L28.636718,5.7712436 L28.462431,5.16292135 L28.1597184,4.63667393 L27.1661267,3.68170584 L26.4144139,3.99310966 L26.3873762,5.37100674 L26.5452521,5.95663685 L26.8518258,6.51040157 L25.6675312,7.30170202 L25.2735681,6.80635596 L24.7927049,6.43653348 L23.5094375,5.93394472 L22.9339447,6.50943506 L23.4365335,7.79270494 L23.806356,8.27356809 L24.301702,8.66801326 L23.5104016,9.85230787 L22.9566369,9.54524966 L22.3705222,9.38786067 L20.9931097,9.41441393 L20.6812238,10.1666088 L21.6366739,11.159716 L22.1624393,11.4624285 L22.7707591,11.6372 L22.4931537,13.0339281 L21.8640724,12.9624726 L21.2625083,13.0411683 L20,13.5930025 L20,14.4069951 L21.2625083,14.9588292 L21.8640724,15.0375249 L22.4931537,14.9660719 L22.7707591,16.3627975 L22.1624393,16.537569 L21.6366739,16.8402816 L20.6812238,17.8333912 L20.9931097,18.5855861 L22.3705222,18.6121393 L22.9566369,18.4547479 L23.5104016,18.1476921 L24.301702,19.3319867 L23.806356,19.7264294 L23.4365335,20.2072951 L22.9339447,21.4905625 L23.5094375,22.0660553 L24.7927049,21.5634665 L25.2735681,21.193644 L25.6675312,20.698298 L26.8518258,21.4895984 L26.5452521,22.0433631 L26.3873762,22.6289933 L26.4144139,24.0068903 L27.1661267,24.3182942 L28.1597184,23.3633236 L28.462431,22.8370787 L28.636718,22.2287564 L30.0339281,22.5068463 L29.9624751,23.1354456 L30.0406863,23.7374917 L30.5930049,25 L31.4069951,25 L31.9588317,23.7374917 L32.0375274,23.1354456 L31.9660719,22.5068463 L33.3627975,22.2287564 L33.5375715,22.8370787 L33.840284,23.3633236 L34.8333912,24.3182942 L35.5855861,24.0068903 L35.6121393,22.6289933 L35.4542658,22.0433631 L35.1476921,21.4895984 L36.3319867,20.698298 L36.7259474,21.193644 L37.206813,21.5634665 L38.4900804,22.0660553 L39.0655733,21.4905625 L38.5634665,20.2072951 L38.193162,19.7264294 L37.698298,19.3319867 L38.4891164,18.1476921 L39.0428811,18.4547479 L39.6289933,18.6121393 L41.0068903,18.5855861 L41.3182942,17.8333912 L40.3628416,16.8402816 L39.8370787,16.537569 L39.2287564,16.3627975 L39.5063643,14.9660719 L40.1354456,15.0375249 L40.7370097,14.9588292 L42,14.4069951 L42,13.5930025 L40.7370097,13.0411683 L40.1354456,12.9624726 L39.5063643,13.0339281 L39.2287564,11.6372 L39.8370787,11.4624285 L40.3628416,11.159716 L41.3182942,10.1666088 L41.0068903,9.41441393 L39.6289933,9.38786067 L39.0428811,9.54524966 L38.4891164,9.85230787 L37.698298,8.66801326 L38.193162,8.27356809 L38.5634665,7.79270494 L39.0655733,6.50943506 L38.4900804,5.93394472 L37.206813,6.43653348 L36.7259474,6.80635596 L36.3319867,7.30170202 L35.1476921,6.51040157 L35.4542658,5.95663685 L35.6121393,5.37100674 L35.5855861,3.99310966 L34.8333912,3.68170584 L33.840284,4.63667393 L33.5375715,5.16292135 L33.3627975,5.7712436 L31.9660719,5.49315371 L32.0375274,4.86455438 L31.9588317,4.26250831 L31.4069951,3 L30.5930049,3 L30.5930049,3 Z M31,10.2921348 C33.0477974,10.2921348 34.7078652,11.9522026 34.7078652,14 C34.7078652,16.0477974 33.0477974,17.7078652 31,17.7078652 C28.9522026,17.7078652 27.2921348,16.0477974 27.2921348,14 C27.2921348,11.9522026 28.9522026,10.2921348 31,10.2921348 Z" id="Shape" fill="#47C3B0" transform="translate(31.000000, 14.000000) rotate(18.000000) translate(-31.000000, -14.000000) "></path>
                <path d="M13.7584262,10 L12.6839881,10.1914498 L12.2710657,11.9528033 L12.301268,12.8540413 L12.5014083,13.5645374 L10.7605394,14.2041265 L10.4613788,13.5297937 L9.91082042,12.8192976 L8.47261769,11.7386593 L7.5273913,12.2896139 L7.73525474,14.087127 L8.06952542,14.9238404 L8.49859882,15.5223035 L7.07935879,16.7241889 L6.56952671,16.193801 L5.81179881,15.7165887 L4.09410295,15.1975461 L3.39255845,16.0413498 L4.19733355,17.6587547 L4.79424521,18.3295442 L5.40028227,18.7436442 L4.47471971,20.3624723 L3.81531095,20.0405502 L2.94171425,19.8540633 L1.15168758,19.959006 L0.778089251,20.9942595 L2.0821652,22.2358588 L2.87078928,22.6598845 L3.58076166,22.8407006 L3.25913278,24.6814672 L2.53089883,24.6063054 L1.64606977,24.7325227 L0,25.4494012 L0,26.5505988 L1.64606977,27.2674773 L2.53089883,27.3936946 L3.25913278,27.3185328 L3.58076166,29.1592994 L2.87078928,29.3401119 L2.0821652,29.7641412 L0.778089251,31.0064484 L1.15168758,32.040994 L2.94171425,32.1466447 L3.81531095,31.9594498 L4.47471971,31.6375277 L5.40028227,33.2563522 L4.79424521,33.6711637 L4.19733355,34.3419532 L3.39255845,35.9593618 L4.09410295,36.8024539 L5.81179881,36.2834076 L6.56952671,35.806199 L7.07935879,35.276519 L8.49859882,36.4776965 L8.06952542,37.0768675 L7.73525474,37.912873 L7.5273913,39.711094 L8.47261769,40.2613407 L9.91082042,39.1807024 L10.4613788,38.4702063 L10.7605394,37.7965814 L12.5014083,38.4354626 L12.301268,39.1466667 L12.2710657,40.0479083 L12.6839881,41.8085466 L13.7584262,42 L14.7443789,40.4882457 L15.0210675,39.6302577 L15.0737345,38.8935277 L16.9255608,38.8935277 L16.9789325,39.6302577 L17.2556175,40.4882457 L18.2408691,42 L19.3153072,41.8085466 L19.7289343,40.0479083 L19.698732,39.1466667 L19.4985917,38.4354626 L21.2387595,37.7965814 L21.5386212,38.4702063 L22.0891832,39.1807024 L23.5273859,40.2613407 L24.4726123,39.711094 L24.2640441,37.912873 L23.9304746,37.0768675 L23.5014012,36.4776965 L24.9199437,35.276519 L25.4297722,35.806199 L26.1882012,36.2834076 L27.905897,36.8024539 L28.6074451,35.9593618 L27.8026665,34.3419532 L27.2050537,33.6711637 L26.5997177,33.2563522 L27.5252803,31.6375277 L28.1839879,31.9594498 L29.0582857,32.1466447 L30.848316,32.040994 L31.2212096,31.0064484 L29.9171337,29.7641412 L29.1285096,29.3401119 L28.4192419,29.1592994 L28.7401697,27.3185328 L29.4684,27.3936946 L30.3532291,27.2674773 L32,26.5505988 L32,25.4494012 L30.3532291,24.7325227 L29.4684,24.6063054 L28.7401697,24.6814672 L28.4192419,22.8407006 L29.1285096,22.6598845 L29.9171337,22.2358588 L31.2212096,20.9942595 L30.848316,19.959006 L29.0582857,19.8540633 L28.1839879,20.0405502 L27.5252803,20.3624723 L26.5997177,18.7436442 L27.2050537,18.3295442 L27.8026665,17.6587547 L28.6074451,16.0413498 L27.905897,15.1975461 L26.1882012,15.7165887 L25.4297722,16.193801 L24.9199437,16.7241889 L23.5014012,15.5223035 L23.9304746,14.9238404 L24.2640441,14.087127 L24.4726123,12.2896139 L23.5273859,11.7386593 L22.0891832,12.8192976 L21.5386212,13.5297937 L21.2387595,14.2041265 L19.4985917,13.5645374 L19.698732,12.8540413 L19.7289343,11.9528033 L19.3153072,10.1914498 L18.2408691,10 L17.2556175,11.5124658 L16.9789325,12.3697387 L16.9255608,13.1064723 L15.0737345,13.1064723 L15.0210675,12.3697387 L14.7443789,11.5124658 L13.7584262,10 L13.7584262,10 Z M15.9999982,20.5546336 C18.9786136,20.5546336 21.3932584,22.9927665 21.3932584,26.0003558 C21.3932584,29.0079451 18.9786136,31.4460779 15.9999982,31.4460779 C13.0213828,31.4460779 10.606738,29.0079451 10.606738,26.0003558 C10.606738,22.9927665 13.0213828,20.5546336 15.9999982,20.5546336 Z" id="Shape" fill="#1A48A7"></path>
            </g>
        </g>
    </g>
</svg>