<svg xmlns="http://www.w3.org/2000/svg" xmlns:xlink="http://www.w3.org/1999/xlink" width="239" height="283" viewBox="0 0 239 283">
    <defs>
        <linearGradient id="c" x1="-3.185%" x2="100.052%" y1="57.755%" y2="57.755%">
            <stop offset="0%" stop-color="#009FC9"/>
            <stop offset="63.416%" stop-color="#0058AB"/>
            <stop offset="100%" stop-color="#00379F"/>
        </linearGradient>
        <path id="b" d="M88 131.5h67.5v118.43l-11.117 12.404a2 2 0 0 1-2.895.088L128.84 249.93l-12.526 12.43a2 2 0 0 1-2.945-.14l-8.89-10.673a2 2 0 0 0-2.893-.19L89.678 262.35a1 1 0 0 1-1.678-.735V131.5zm135 0v130.114a1 1 0 0 1-1.678.735l-13.456-12.419-10.236 12.29a2 2 0 0 1-2.945.14l-11.12-11.035a2 2 0 0 0-2.815-.003l-11.238 11.1a2 2 0 0 1-2.895-.088L155.5 249.93V131.5H223zm-135 0V1.386a1 1 0 0 1 1.678-.735l11.91 10.992a2 2 0 0 0 2.893-.19L113.37.779a2 2 0 0 1 2.945-.14l11.12 11.036a2 2 0 0 0 2.815.003l11.238-11.1a2 2 0 0 1 2.895.088L155.5 13.07V131.5H88zm135 0h-67.5V13.07L166.617.666a2 2 0 0 1 2.895-.088l11.238 11.1a2 2 0 0 0 2.814-.003L194.684.64a2 2 0 0 1 2.946.14l8.89 10.673a2 2 0 0 0 2.893.19L221.322.65a1 1 0 0 1 1.678.735V131.5z"/>
        <filter id="a" width="123.7%" height="112.2%" x="-10.4%" y="-5.7%" filterUnits="objectBoundingBox">
            <feOffset dx="2" dy="1" in="SourceAlpha" result="shadowOffsetOuter1"/>
            <feGaussianBlur in="shadowOffsetOuter1" result="shadowBlurOuter1" stdDeviation="5"/>
            <feColorMatrix in="shadowBlurOuter1" values="0 0 0 0 0 0 0 0 0 0.215686275 0 0 0 0 0.643137255 0 0 0 0.317793252 0"/>
        </filter>
        <circle id="e" cx="70.5" cy="70.5" r="70.5"/>
        <filter id="d" width="109.9%" height="109.9%" x="-5%" y="-3.5%" filterUnits="objectBoundingBox">
            <feOffset dy="2" in="SourceAlpha" result="shadowOffsetOuter1"/>
            <feGaussianBlur in="shadowOffsetOuter1" result="shadowBlurOuter1" stdDeviation="2"/>
            <feColorMatrix in="shadowBlurOuter1" values="0 0 0 0 0 0 0 0 0 0 0 0 0 0 0 0 0 0 0.119735054 0"/>
        </filter>
        <path id="f" d="M0 57.325V.001h43.45v57.324z"/>
    </defs>
    <g fill="none" fill-rule="evenodd" transform="translate(4 9)">
        <g opacity=".638">
            <use fill="#000" filter="url(#a)" xlink:href="#b"/>
            <use fill="url(#c)" fill-opacity=".02" xlink:href="#b"/>
            <use fill="#FFF" xlink:href="#b"/>
        </g>
        <rect width="93" height="8" x="113" y="49" fill="#083AA0" rx="3"/>
        <rect width="93" height="8" x="113" y="108" fill="#083AA0" rx="3"/>
        <rect width="47" height="8" x="113" y="167" fill="#083AA0" rx="3"/>
        <rect width="93" height="8" x="113" y="79" fill="#083AA0" rx="3"/>
        <rect width="93" height="8" x="113" y="138" fill="#083AA0" rx="3"/>
        <g transform="translate(0 58)">
            <use fill="#000" filter="url(#d)" xlink:href="#e"/>
            <use fill="#F6AF39" xlink:href="#e"/>
            <circle cx="71.205" cy="71.205" r="54.285" fill="#F5A623"/>
        </g>
        <g transform="translate(48 100)">
            <mask id="g" fill="#fff">
                <use xlink:href="#f"/>
            </mask>
            <path fill="#FFF" d="M33.494 22.957c-1.406 5.61-10.08 2.76-12.891 2.06l2.481-9.916c2.812.699 11.873 2.003 10.41 7.856m-1.542 16c-1.54 6.167-11.96 2.836-15.339 1.998l2.738-10.934c3.378.84 14.21 2.506 12.601 8.937m11.386-15.912c.904-6.024-3.697-9.262-9.99-11.422l2.042-8.16-4.984-1.237-1.987 7.944c-1.31-.325-2.655-.632-3.99-.936l1.999-7.997L21.448 0l-2.042 8.157a167.18 167.18 0 0 1-3.182-.746l.006-.025-6.873-1.71-1.325 5.304s3.697.845 3.618.897c2.02.502 2.384 1.834 2.323 2.889l-2.326 9.296c.14.035.32.087.52.165l-.527-.13-3.26 13.022c-.246.61-.873 1.526-2.283 1.18.048.072-3.622-.902-3.622-.902L0 43.084l6.486 1.613c1.205.301 2.387.615 3.553.912l-2.064 8.253 4.978 1.238 2.042-8.167c1.36.368 2.678.708 3.971 1.029l-2.035 8.125 4.983 1.238 2.063-8.236c8.496 1.603 14.887.957 17.577-6.702 2.167-6.168-.108-9.726-4.579-12.047 3.256-.75 5.709-2.885 6.363-7.294" mask="url(#g)"/>
        </g>
        <path fill="#231F20" d="M188.015 209c-.792 0-1.218-.418-1.218-1.194v-4.358c-7.127-.418-12.061-4.06-13.706-9.254-.304-.836.183-1.433 1.036-1.612l4.02-1.015c.853-.179 1.401.12 1.706.955 1.035 2.448 3.533 4.18 6.944 4.538v-11.045l-2.01-.716c-6.153-1.91-10.234-6.03-10.234-10.986 0-6.567 5.421-10.806 12.244-11.343v-4.776c0-.776.426-1.194 1.218-1.194h1.097c.791 0 1.218.418 1.218 1.194v4.836c5.543.597 9.502 3.642 11.147 8.179.305.836-.122 1.433-.974 1.731l-3.838 1.135c-.853.238-1.401-.06-1.767-.896-.852-2.09-2.375-3.224-4.568-3.642v10.388l2.193.776c7.249 2.329 10.416 6.508 10.477 11.165 0 6.746-5.36 10.865-12.67 11.522v4.418c0 .776-.427 1.194-1.218 1.194h-1.097zm-1.218-30.328v-9.254c-2.498.478-4.447 1.97-4.447 4.478 0 1.432.366 3.223 4.081 4.597l.366.179zm3.533 18.268c3.106-.537 4.934-2.268 4.934-4.776 0-2.328-1.767-3.701-4.63-4.776l-.304-.12v9.672z"/>
    </g>
</svg>
