<?xml version="1.0" encoding="UTF-8"?>
<svg width="49px" height="26px" viewBox="0 0 49 26" version="1.1" xmlns="http://www.w3.org/2000/svg" xmlns:xlink="http://www.w3.org/1999/xlink">
    <!-- Generator: Sketch 47.1 (45422) - http://www.bohemiancoding.com/sketch -->
    <title>logo</title>
    <desc>Created with Sketch.</desc>
    <defs></defs>
    <g id="Page-1" stroke="none" stroke-width="1" fill="none" fill-rule="evenodd">
        <g id="Mobile-final-hamburger" transform="translate(-136.000000, -17.000000)">
            <g id="logo" transform="translate(136.000000, 17.000000)">
                <path d="M37,12.9123366 L25.8161152,12.9123366 C25.3550342,12.9123366 24.94902,13.2224271 24.8195721,13.6737345 L23.3726326,18.7148005 C23.316744,18.9322829 23.1186682,19.0940329 22.8807307,19.0940329 C22.6584092,19.0940329 22.4714289,18.9523969 22.4019791,18.7567047 L17.8499346,6.14984915 C17.6280239,5.34738518 16.7925715,4.74983238 15.7927408,4.74983238 C14.8677023,4.74983238 14.0827962,5.26190077 13.7947233,5.97427087 L13.7930795,5.97301374 L13.7799293,6.00905129 C13.774176,6.02413678 13.7692447,6.03880322 13.7639024,6.05346966 L9.17774936,18.7567047 C9.10829956,18.9523969 8.9213193,19.0940329 8.69899773,19.0940329 C8.46106022,19.0940329 8.26257349,18.9322829 8.20709583,18.7148005 L3.20095641,1.2763996 C2.94617013,0.400603419 2.312492,0 1.62087054,0 C0.731173297,0 -0.303587749,0.815454241 0.0835230153,2.06293999 L0.0831120697,2.06293999 L6.92494553,23.729467 C7.16822533,24.4665605 7.87012043,25 8.69899773,25 C9.49910883,25 10.1796348,24.502179 10.4446947,23.8048944 L15.3785077,10.2686054 C15.4405605,10.1039222 15.6004183,9.9857526 15.7898642,9.9857526 C15.9715022,9.9857526 16.1276615,10.0942843 16.1946457,10.2493295 L21.1350338,23.8048944 C21.3996828,24.502179 22.0802087,25 22.8807307,25 C23.7091971,25 24.4106812,24.4665605 24.653961,23.729467 L27.0008714,15.8426919 C27.1044297,15.4948877 27.4188031,15.2572913 27.7750929,15.2572913 L37,15.2711197 L37,12.9123366 Z" id="Fill-1" fill="#231F20"></path>
                <path d="M29.4746169,26 C29.112873,26 28.7502965,25.8628193 28.4655637,25.5845631 C27.8715377,25.0051152 27.8419821,24.0344643 28.3997921,23.4173674 L37.098713,14.5001879 L28.8880839,5.55617817 C28.3444274,4.92566616 28.3960456,3.95631345 29.0029761,3.39114619 C29.6094903,2.82641169 30.5415324,2.87920679 31.0856052,3.5105843 L39.6238436,13.423514 C40.134198,14.0159443 40.1242074,14.9156248 39.6001158,15.4955055 L30.5502742,25.5161891 C30.2601298,25.83772 29.8675815,26 29.4746169,26" id="Fill-3" fill="#231F20"></path>
                <path d="M41.5398064,12 C41.167823,12 40.7950037,11.8733621 40.4990888,11.6173246 C39.8725685,11.0744778 39.8299367,10.1548733 40.4050481,9.56310721 L46.3245994,3.47107248 C46.8992928,2.87930639 47.873137,2.83985531 48.5009112,3.38230757 C49.1274315,3.92515434 49.1700633,4.84475885 48.5949519,5.43652495 L42.6754006,11.5289542 C42.3715445,11.8414067 41.9560934,12 41.5398064,12" id="Fill-5" fill="#169883"></path>
                <path d="M47.4600948,26 C47.0379704,26 46.6175178,25.8215653 46.3136719,25.4711766 L40.3943183,18.6556626 C39.8259132,18.0011141 39.8781563,16.9944486 40.5113428,16.4072991 C41.1445294,15.8201496 42.118341,15.8741552 42.6863281,16.5282718 L48.6056817,23.3442178 C49.1740868,23.9983343 49.1218437,25.0049998 48.4886572,25.5925813 C48.194424,25.8652019 47.8266324,26 47.4600948,26" id="Fill-7" fill="#169883"></path>
            </g>
        </g>
    </g>
</svg>