<?xml version="1.0" encoding="UTF-8"?>
<svg width="262px" height="41px" viewBox="0 0 262 41" version="1.1" xmlns="http://www.w3.org/2000/svg" xmlns:xlink="http://www.w3.org/1999/xlink">
    <!-- Generator: Sketch 47.1 (45422) - http://www.bohemiancoding.com/sketch -->
    <title>Page 1</title>
    <desc>Created with Sketch.</desc>
    <defs></defs>
    <g id="Page-1" stroke="none" stroke-width="1" fill="none" fill-rule="evenodd">
        <g id="Desktop-final" transform="translate(-150.000000, -31.000000)">
            <g id="Page-1" transform="translate(150.000000, 31.000000)">
                <path d="M248.3954,19.0004 C247.8164,19.0004 247.2364,18.7894 246.7764,18.3624 C245.8014,17.4584 245.7354,15.9254 246.6294,14.9384 L257.3064,3.2104 C258.2014,2.2244 259.7154,2.1584 260.6924,3.0624 C261.6654,3.9674 261.7334,5.5004 260.8384,6.4864 L250.1624,18.2154 C249.6894,18.7364 249.0424,19.0004 248.3954,19.0004" id="Fill-1" fill="#169883"></path>
                <path d="M259.0252,40.518 C258.3682,40.518 257.7132,40.25 257.2422,39.725 L246.6132,27.984 C245.7292,27.002 245.8102,25.492 246.7952,24.612 C247.7802,23.731 249.2952,23.812 250.1782,24.792 L260.8062,36.535 C261.6912,37.515 261.6102,39.025 260.6252,39.907 C260.1672,40.316 259.5952,40.518 259.0252,40.518" id="Fill-3" fill="#169883"></path>
                <path d="M196.6669,20.144 C197.1969,13.186 201.8229,9.318 207.5679,9.318 C215.7899,9.318 218.4439,16.173 218.4469,19.849 L218.4469,20.144 L196.6669,20.144 Z M111.4429,20 L89.6789,20 C90.2619,13.133 94.8629,9.318 100.5689,9.318 C108.7939,9.318 111.4469,16.18 111.4469,19.854 L111.4429,20 Z M74.4479,20 L52.6779,20 C53.2609,13.133 57.8619,9.318 63.5679,9.318 C71.7939,9.318 74.4479,16.18 74.4479,19.854 L74.4479,20 Z M246.4039,19.862 L232.8859,4.777 C232.0239,3.816 230.5489,3.736 229.5879,4.595 C228.6269,5.456 228.5449,6.931 229.4059,7.891 L241.1099,20.144 L222.9999,20.144 L222.9999,19.854 C222.9999,12.214 217.3679,5.001 207.5259,5.001 C199.2689,5.001 192.6559,10.953 192.0599,20.144 L174.8139,20.144 C177.2789,17.437 183.2749,10.808 183.6249,10 L183.6279,9.996 L183.6279,9.995 C183.8619,9.597 183.9999,9.131 183.9999,8.631 C183.9999,7.178 182.8599,6 181.4549,6 L160.2429,6 C159.0049,6 157.9999,7.038 157.9999,8.318 C157.9999,9.599 159.0049,10.636 160.2429,10.636 L177.5539,10.628 L169.2499,20.144 L140.8029,20.144 C142.9849,17.753 149.2609,10.84 149.6249,10 L149.6279,9.996 L149.6279,9.995 C149.8619,9.597 149.9999,9.131 149.9999,8.631 C149.9999,7.178 148.8609,6 147.4549,6 L126.2429,6 C125.0049,6 123.9999,7.038 123.9999,8.318 C123.9999,9.599 125.0049,10.636 126.2429,10.636 L143.5539,10.628 L135.2499,20.144 L115.9999,20.144 L115.9999,19.854 C115.9999,12.214 110.3679,5.001 100.5259,5.001 C92.2699,5.001 85.6559,10.953 85.0599,20.144 L79.0019,20.144 L78.9999,19.854 C78.9999,12.214 73.3689,5.001 63.5259,5.001 C55.2689,5.001 48.6559,10.953 48.0589,20.144 L39.9499,20.144 C39.2369,20.144 38.6079,20.627 38.4069,21.331 L36.1679,29.196 C36.0819,29.535 35.7749,29.788 35.4069,29.788 C35.0629,29.788 34.7729,29.567 34.6659,29.261 L27.6219,9.594 C27.2789,8.342 25.9859,7.41 24.4379,7.41 C23.0069,7.41 21.7919,8.209 21.3469,9.32 C21.3149,9.398 21.3069,9.421 21.2999,9.444 L14.2019,29.261 C14.0949,29.567 13.8049,29.788 13.4609,29.788 C13.0929,29.788 12.7859,29.535 12.6999,29.196 L4.9529,1.992 C4.5589,0.625 3.5779,0 2.5089,0 C1.1319,0 -0.4701,1.272 0.1299,3.219 L10.7169,37.019 C11.0929,38.169 12.1789,39 13.4609,39 C14.6999,39 15.7529,38.224 16.1619,37.137 L23.7979,16.019 C23.8939,15.763 24.1409,15.578 24.4339,15.578 C24.7159,15.578 24.9569,15.748 25.0609,15.99 L32.7049,37.137 C33.1159,38.224 34.1689,39 35.4069,39 C36.6889,39 37.7749,38.169 38.1519,37.019 L41.7839,24.715 C41.9429,24.172 42.4299,23.802 42.9799,23.802 L48.1499,23.802 C49.1189,32.033 55.2379,37.997 63.5259,38 C68.1049,38.002 72.7869,36.639 76.1209,32.571 C77.0629,31.648 77.0539,30.211 76.2189,29.39 C75.3829,28.57 73.9129,28.75 73.1109,29.606 C70.5939,32.558 68.2749,33.682 63.5679,33.682 C58.1709,33.682 53.7219,29.72 52.7979,23.803 L85.1499,23.807 C86.1209,32.035 92.2379,37.997 100.5259,38 C105.1049,38.002 109.7869,36.639 113.1209,32.571 C114.0629,31.648 114.0539,30.211 113.2189,29.39 C112.3829,28.57 110.9129,28.75 110.1109,29.606 C107.5939,32.558 105.2749,33.682 100.5689,33.682 C95.1719,33.682 90.7249,29.722 89.7989,23.807 L132.3589,23.812 C130.3149,26.042 124.7349,32.17 124.3749,33.001 L124.3719,33.005 C124.1379,33.404 123.9999,33.87 123.9999,34.371 C123.9999,35.823 125.1389,37 126.5449,37 L147.7569,37 C148.9949,37 149.9999,35.962 149.9999,34.683 C149.9999,33.401 148.9949,32.365 147.7569,32.365 L130.3419,32.373 L137.8109,23.813 L166.3549,23.816 C164.3089,26.049 158.7339,32.171 158.3749,33.001 L158.3719,33.005 C158.1379,33.404 157.9999,33.87 157.9999,34.371 C157.9999,35.823 159.1389,37 160.5449,37 L181.7569,37 C182.9949,37 183.9999,35.962 183.9999,34.683 C183.9999,33.401 182.9949,32.365 181.7569,32.365 L164.3419,32.373 L171.8079,23.816 L192.1519,23.819 C193.1269,32.04 199.2419,37.997 207.5259,38 C212.1049,38.002 216.7869,36.639 220.1209,32.571 C221.0629,31.648 221.0539,30.211 220.2189,29.39 C219.3829,28.57 217.9129,28.75 217.1109,29.606 C214.5939,32.558 212.2749,33.682 207.5679,33.682 C202.1759,33.682 197.7289,29.727 196.8009,23.819 L240.0479,23.824 L228.6329,35.071 C227.7499,36.009 227.7969,37.487 228.7369,38.369 C229.1889,38.791 229.7619,39 230.3349,39 C230.9569,39 231.5779,38.753 232.0379,38.264 L246.3669,23.015 C247.1959,22.133 247.2129,20.765 246.4039,19.862 L246.4039,19.862 Z" id="Fill-5" fill="#000000"></path>
            </g>
        </g>
    </g>
</svg>