<?xml version="1.0" encoding="UTF-8"?>
<svg width="40px" height="40px" viewBox="0 0 40 40" version="1.1" xmlns="http://www.w3.org/2000/svg" xmlns:xlink="http://www.w3.org/1999/xlink">
    <!-- Generator: Sketch 47.1 (45422) - http://www.bohemiancoding.com/sketch -->
    <title>Group 6</title>
    <desc>Created with Sketch.</desc>
    <defs></defs>
    <g id="Page-1" stroke="none" stroke-width="1" fill="none" fill-rule="evenodd">
        <g id="Desktop-final" transform="translate(-151.000000, -1041.000000)">
            <g id="Group-6" transform="translate(151.000000, 1041.000000)">
                <path d="M14.8,0 L14.8,0 C16.3463973,-2.84068575e-16 17.6,1.2536027 17.6,2.8 L17.6,37.2 L17.6,37.2 C17.6,38.7463973 16.3463973,40 14.8,40 C13.2536027,40 12,38.7463973 12,37.2 L12,2.8 L12,2.8 C12,1.2536027 13.2536027,2.84068575e-16 14.8,0 L14.8,0 Z M20.4,0 C21.9463973,-2.84068575e-16 23.2,1.2536027 23.2,2.8 L23.2,37.2 L23.2,37.2 C23.2,38.7463973 21.9463973,40 20.4,40 C18.8536027,40 17.6,38.7463973 17.6,37.2 L17.6,2.8 L17.6,2.8 C17.6,1.2536027 18.8536027,2.84068575e-16 20.4,0 Z M26,0 C27.5463973,-2.84068575e-16 28.8,1.2536027 28.8,2.8 L28.8,37.2 C28.8,38.7463973 27.5463973,40 26,40 C24.4536027,40 23.2,38.7463973 23.2,37.2 L23.2,2.8 L23.2,2.8 C23.2,1.2536027 24.4536027,2.84068575e-16 26,0 Z M31.6,0 C33.1463973,-2.84068575e-16 34.4,1.2536027 34.4,2.8 L34.4,37.2 L34.4,37.2 C34.4,38.7463973 33.1463973,40 31.6,40 C30.0536027,40 28.8,38.7463973 28.8,37.2 L28.8,2.8 L28.8,2.8 C28.8,1.2536027 30.0536027,2.84068575e-16 31.6,0 Z M37.2,0 C38.7463973,-2.84068575e-16 40,1.2536027 40,2.8 L40,37.2 L40,37.2 C40,38.7463973 38.7463973,40 37.2,40 L37.2,40 C35.6536027,40 34.4,38.7463973 34.4,37.2 L34.4,2.8 L34.4,2.8 C34.4,1.2536027 35.6536027,2.84068575e-16 37.2,0 Z" id="Combined-Shape" fill="#47C3B0"></path>
                <rect id="Rectangle-3" fill="#FFFFFF" x="14" y="8" width="23" height="2" rx="1"></rect>
                <rect id="Rectangle-3-Copy" fill="#FFFFFF" x="14" y="15" width="23" height="2" rx="1"></rect>
                <rect id="Rectangle-3-Copy-3" fill="#FFFFFF" x="14" y="22" width="23" height="2" rx="1"></rect>
                <rect id="Rectangle-3-Copy-4" fill="#FFFFFF" x="23" y="30" width="14" height="2" rx="1"></rect>
                <g id="Group-5" transform="translate(0.000000, 15.000000)">
                    <circle id="Oval-5" fill="#F6AF39" cx="10" cy="10" r="10"></circle>
                    <circle id="Oval-5" fill="#F5A623" cx="10" cy="10" r="7"></circle>
                </g>
            </g>
        </g>
    </g>
</svg>