<?xml version="1.0" encoding="UTF-8"?>
<svg width="33px" height="38px" viewBox="0 0 33 38" version="1.1" xmlns="http://www.w3.org/2000/svg" xmlns:xlink="http://www.w3.org/1999/xlink">
    <!-- Generator: Sketch 47.1 (45422) - http://www.bohemiancoding.com/sketch -->
    <title>Group 4</title>
    <desc>Created with Sketch.</desc>
    <defs></defs>
    <g id="Page-1" stroke="none" stroke-width="1" fill="none" fill-rule="evenodd">
        <g id="Desktop-final" transform="translate(-929.000000, -1042.000000)">
            <g id="Group-4" transform="translate(929.000000, 1042.000000)">
                <path d="M16.5,0 C16.5,10.0779649 16.5,19.7977953 16.5,38 C-0.208614239,31.9411119 6.31113443e-05,15.5840433 6.31113443e-05,4.80024133 C10.7842228,4.74654998 13.5134785,0 16.5,0 Z M16.5,0 C19.4865215,0 22.2157772,4.74654998 32.9999369,4.80024133 C32.9999369,15.5840433 33.2086142,31.9411119 16.5,38 C16.5,19.7977953 16.5,10.0779649 16.5,0 Z" id="Combined-Shape" fill="#37BEA9"></path>
                <circle id="Oval-4" fill="#FFFFFF" opacity="0.918641261" cx="16.5" cy="19.5" r="7.5"></circle>
                <path d="M12.8914574,19.2178732 C12.4397453,18.8117974 11.7293163,18.8327787 11.3046697,19.2647363 C10.8800231,19.6966939 10.9019639,20.3760542 11.353676,20.78213 L14.6090898,23.7086511 C15.0680182,24.1212142 15.7920212,24.0920189 16.2129989,23.6439737 L21.7124451,17.7909315 C22.1268032,17.3499316 22.0888564,16.6712167 21.6276885,16.2749794 C21.1665205,15.8787422 20.4567664,15.9150295 20.0424083,16.3560295 L15.3103281,21.3923667 L12.8914574,19.2178732 Z" id="Path-5" fill="#37BEA9" fill-rule="nonzero"></path>
            </g>
        </g>
    </g>
</svg>