<svg width="34" height="40" viewBox="0 0 34 40" xmlns="http://www.w3.org/2000/svg"><g fill="none" fill-rule="evenodd"><path d="M-3 0h40v40H-3z"/><path d="M29 2a1 1 0 0 1-1 1H17a1 1 0 0 1-1-1h-1a2 2 0 0 0-2 2v4.788h-2V4a4 4 0 0 1 4-4h15a4 4 0 0 1 4 4v32a4 4 0 0 1-4 4H15a4 4 0 0 1-4-4V21.126h2V36a2 2 0 0 0 2 2h15a2 2 0 0 0 2-2V4a2 2 0 0 0-2-2h-1z" fill="#1B2046" fill-rule="nonzero"/><path d="M4 22.5A3.5 3.5 0 0 1 .5 19v-8A3.5 3.5 0 0 1 4 7.5h17a3.5 3.5 0 0 1 3.5 3.5v8a3.5 3.5 0 0 1-3.5 3.5h-1.19v3.546a1.5 1.5 0 0 1-2.506 1.112L12.156 22.5H4zM5.5 17a1.5 1.5 0 1 0 0-3 1.5 1.5 0 0 0 0 3zm7 0a1.5 1.5 0 1 0 0-3 1.5 1.5 0 0 0 0 3zm7 0a1.5 1.5 0 1 0 0-3 1.5 1.5 0 0 0 0 3zm-2.904 19.512h11.91a1 1 0 1 0 0-2h-11.91a1 1 0 1 0 0 2z" fill="#1B2046" fill-rule="nonzero"/></g></svg>