<svg width="18" height="18" viewBox="0 0 18 18" xmlns="http://www.w3.org/2000/svg"><g fill="none" fill-rule="evenodd"><path fill="#FFF" d="M0 0h18v18H0z"/><path d="M9 15.25h5c1.263 0 2.25-.863 2.25-1.875v-8.75c0-1.012-.987-1.875-2.25-1.875H9a.75.75 0 1 1 0-1.5h5c2.05 0 3.75 1.487 3.75 3.375v8.75c0 1.888-1.7 3.375-3.75 3.375H9a.75.75 0 1 1 0-1.5z" fill="#292E51" fill-rule="nonzero"/><path d="M9.22 6.695a.667.667 0 0 1 0-.99.788.788 0 0 1 1.06 0l3 2.8a.667.667 0 0 1 0 .99l-3 2.8a.788.788 0 0 1-1.06 0 .667.667 0 0 1 0-.99L11.69 9 9.22 6.695z" fill="#292E51" fill-rule="nonzero"/><path d="M12.03 8.25H3.657a.75.75 0 1 0 0 1.5h8.373a.75.75 0 1 0 0-1.5z" fill="#292E51" fill-rule="nonzero"/></g></svg>