<svg width="42" height="37" viewBox="0 0 42 37" xmlns="http://www.w3.org/2000/svg"><path d="M41.86 14.181c-.531 4.186-1.231 9.386-1.558 12.15-.327 2.763-1.762 3.931-4.99 3.81l-.606-.025L34.113 37l-7.104-7.278c-3.709-.202-7.387-.41-8.521-.474-2.167-.122-3.93-.912-4.37-3.555a138.1 138.1 0 0 0-.207-1.2l-7.155 6.071.08-7.593C-4.504 17.842-1.556-.525 14.339.011c7.76.262 12.287 4.31 13.622 9.028 5.287-.263 10.106-.498 10.106-.498 3.408 0 4.324 1.455 3.793 5.64zm-5.312-2.93c-2.329.13-17.349 1.02-19.183 1.138-2.414.155-3.068 1.566-2.706 3.618.362 2.052 1.214 6.314 1.647 8.915.158.948.822 1.792 2.416 1.914.898.069 5.426.315 9.523.531l4.075 4.71.38-4.478c1.16.06 2.037.104 2.407.121 1.758.081 2.536-.21 2.74-1.51.205-1.3 1.26-10.56 1.506-12.43.244-1.87-.474-2.66-2.805-2.53z" fill="#185CE1"/></svg>