<svg width="38" height="25" viewBox="0 0 38 25" xmlns="http://www.w3.org/2000/svg"><path d="M34.857 24.605c-2.864 0-28.17.395-31.294.395C.438 25 0 22.898 0 20.395c.696 0 7.705.052 15.276.11 0 1.517.128 1.542 3.614 1.542 3.486 0 3.572-.076 3.572-1.487 7.076.054 13.97.099 15.538.099 0 1.58-.492 3.946-3.143 3.946zm-3.745-5.374l.145-16.54-25.29-.31.245 16.784-2.372-.007c-.006-.028-.227-14.402-.19-16.146C3.7.727 4.353 0 6.306 0 7.882 0 29.04.035 31.058.08c2.302.05 2.631 1.146 2.631 3.263 0 1.545-.415 15.894-.415 15.894l-2.162-.006z" fill="#01864D"/></svg>