<svg width="38" height="27" viewBox="0 0 38 27" xmlns="http://www.w3.org/2000/svg"><g fill="none" fill-rule="evenodd"><path d="M-1 0h40v40H-1z"/><path d="M14.17 23A3.001 3.001 0 0 0 17 25h4a3.001 3.001 0 0 0 2.83-2H38v1.5a2.5 2.5 0 0 1-2.5 2.5h-33A2.5 2.5 0 0 1 0 24.5V23h14.17z" fill="#1B2046"/><path d="M7 19V4.031c0-.665.523-.86 1.056-.86H30.04c.533 0 .961.195.961.86V19c0 .552.057 2 1.528 2S34 19.552 34 19V3.171C34 1.437 32.676 0 31 0H7C5.324 0 4 1.437 4 3.171V19c0 .552-.034 2 1.483 2C7 21 7 19.552 7 19z" fill="#1B2046" fill-rule="nonzero"/></g></svg>