<svg width="66" height="54" viewBox="0 0 66 54" xmlns="http://www.w3.org/2000/svg"><defs><linearGradient x1="50%" y1="16.529%" x2="64.636%" y2="83.471%" id="a"><stop stop-color="#65BFE8" offset="0%"/><stop stop-color="#7299EC" offset="100%"/></linearGradient></defs><g fill="none" fill-rule="evenodd"><path d="M25.02 0h39.96a6 6 0 0 1 5.924 5.05l6.73 42A6 6 0 0 1 71.71 54H18.29a6 6 0 0 1-5.925-6.95l6.73-42A6 6 0 0 1 25.02 0z" fill="url(#a)" transform="translate(-12)"/><path d="M43 9v8.743C43 22.303 39.194 26 34.5 26h-3c-4.694 0-8.5-3.697-8.5-8.257V9h0" stroke="#F5FAFF" stroke-width="4" stroke-linecap="round" stroke-linejoin="round"/></g></svg>