<svg width="30" height="30" viewBox="0 0 30 30" xmlns="http://www.w3.org/2000/svg"><g fill="none" fill-rule="evenodd"><path d="M-5 0h40v40H-5z"/><path d="M7.488 15.5H5.435a1 1 0 0 0 0 2h2.494c1.286 3.78 4.934 6.5 9.227 6.5 2.15 0 4.197-.685 5.875-1.93a1 1 0 1 0-1.192-1.607A7.83 7.83 0 0 1 17.156 22c-3.17 0-5.888-1.853-7.078-4.5h5.357a1 1 0 0 0 0-2H9.503a7.35 7.35 0 0 1 .039-2.25h5.893a1 1 0 0 0 0-2h-5.24C11.442 8.737 14.088 7 17.156 7a7.85 7.85 0 0 1 4.208 1.21 1 1 0 0 0 1.069-1.69A9.843 9.843 0 0 0 17.156 5c-4.197 0-7.779 2.601-9.138 6.25H5.435a1 1 0 0 0 0 2h2.083a9.38 9.38 0 0 0-.03 2.25zM3 0h24a3 3 0 0 1 3 3v24a3 3 0 0 1-3 3H3a3 3 0 0 1-3-3V3a3 3 0 0 1 3-3z" fill="#1B2046"/></g></svg>