<svg xmlns="http://www.w3.org/2000/svg" viewBox="0 0 106.7 91.7"><path d="M95.3 46.4c0 19.3-15.7 34.9-34.9 34.9-2.4 0-4.8-.3-7.1-.7l-3.5 10.9c3.4.8 7 1.2 10.6 1.2 25.6 0 46.4-20.8 46.4-46.4C106.8 27 95 10.4 78.2 3.4l-3.5 10.9c12.1 5.6 20.6 17.9 20.6 32.1zM39 87.5l3.6-11.1c-6.1-3.6-11-9-14-15.4h7.5l4.6-11.4H25.6c-.1-1-.2-2.1-.2-3.2 0-1.9.2-3.9.5-5.7h18.4l4.6-11.4h-19c6-10.6 17.4-17.8 30.4-17.8 1.1 0 2.1.1 3.1.1L67 .5C64.9.2 62.6 0 60.4 0 40.8 0 24.1 12.1 17.3 29.2H0v11.4h14.3c-.2 1.9-.4 3.8-.4 5.7 0 1.1 0 2.1.1 3.2H0V61h16.3C20.2 72.5 28.4 82 39 87.5z" fill="#020203"/></svg>