<svg width="32" height="48" viewBox="0 0 32 48" xmlns="http://www.w3.org/2000/svg"><path d="M31.9 15.967c-.648 5.473-2.317 21.503-2.822 26.186-.452 4.187-2.453 6.274-6.984 5.774C12.794 46.903 0 45.284 0 45.284L3.427 5.99 19.787.57c4.482-1.48 8.016-.208 6.746 5.35L23.13 3.303 12.376 6.695c4.56.405 9.61.941 13.914 1.489 3.929.5 6.227 2.582 5.61 7.783zM6 40.037L22.585 42 23 38.593 6.554 36 6 40.037zm11.782-25.949c-12.448-1.525-15.361 17.204-2.1 18.829 12.11 1.484 14.5-17.31 2.1-18.829zM17 31c1.742-1.763 2.861-3.833 3.368-6l2.632.37c-.697 2.886-2.769 5.356-6 5.63zm3-14c2.816 1.232 4.075 4.129 3.997 7l-2.473-.4c.136-2.24-.37-4.517-1.524-6.6zm-6 5.202c.509-2.613 1.735-4.98 3.424-6.202 1.17 1.908 1.684 4.46 1.557 7L14 22.202zm-5-.625c.744-2.768 2.831-5.144 6-5.577a11.974 11.974 0 0 0-3.285 6L9 21.577zM14 31c-3.473-1.243-5.035-4.118-5-7l2.996.375c-.08 2.242.54 4.545 2.004 6.625zm1.94-1c-1.44-1.584-2.015-3.79-1.932-6l4.992.64c-.46 2.104-1.481 4.054-3.06 5.36z" fill="#4373F9"/></svg>