<svg width="25" height="37" viewBox="0 0 25 37" xmlns="http://www.w3.org/2000/svg"><path d="M24.923 12.308c-.508 4.219-1.811 16.575-2.206 20.185-.353 3.228-1.916 4.836-5.456 4.45C9.995 36.156 0 34.907 0 34.907l2.677-30.29C2.65 4.627 14.18.857 15.457.44 18.96-.702 21.722.28 20.73 4.563l-2.66-2.017-8.4 2.614c3.562.313 7.507.726 10.87 1.148 3.07.386 4.865 1.99 4.384 6zM4.779 30.64l12.614 1.486.316-2.58L5.2 27.583l-.42 3.057zm8.987-19.926C4.2 9.514 1.961 24.26 12.152 25.54c9.307 1.169 11.144-13.63 1.614-14.826zm-.187 13.32c1.388-1.356 2.28-2.947 2.684-4.612l2.098.285c-.556 2.217-2.207 4.116-4.782 4.326zm1.639-11.36c2.358.976 3.413 3.272 3.347 5.549l-2.07-.317c.113-1.776-.31-3.582-1.277-5.233zm-4.2 4.396c.39-1.91 1.332-3.642 2.627-4.535.898 1.395 1.293 3.261 1.195 5.119l-3.822-.584zm-3.787-.579c.577-2.108 2.196-3.918 4.655-4.247a9.072 9.072 0 0 0-2.548 4.57L7.23 16.49zm3.332 7.085c-2.476-.961-3.59-3.184-3.563-5.413l2.135.29a8.814 8.814 0 0 0 1.428 5.123zm1.739-.039c-1.1-1.28-1.54-3.066-1.477-4.854l3.816.518c-.35 1.702-1.132 3.28-2.34 4.336z" fill="#4373F9"/></svg>