<svg xmlns="http://www.w3.org/2000/svg" width="571" height="501" viewBox="0 0 571 501"><defs><linearGradient id="a" x1="50%" x2="50%" y1="4.417%" y2="97.168%"><stop offset="0%" stop-color="#626262"/><stop offset="100%" stop-color="#323232"/></linearGradient></defs><g fill="none" fill-rule="evenodd"><path fill="#000" d="M289.63 29.91a15.5 15.5 0 0 0-7.484 1.915C282.148 14.727 268.289.962 251.192.962c-13.987 0-25.802 9.213-29.64 21.86a22.822 22.822 0 0 0-8.742-1.73c-12.563 0-22.748 10.113-22.748 22.591v8.058c0 8.376 6.836 15.166 15.27 15.166h84.522c8.436 0 15.272-6.79 15.272-15.166v-6.443c0-8.498-6.939-15.388-15.497-15.388z"/><path fill="#FFF" d="M289.63 29.91a15.5 15.5 0 0 0-7.484 1.915C282.148 14.727 268.289.962 251.192.962c-13.987 0-25.802 9.213-29.64 21.86a22.822 22.822 0 0 0-8.742-1.73c-12.563 0-22.748 10.113-22.748 22.591v8.058c0 8.376 6.836 15.166 15.27 15.166h84.522c8.436 0 15.272-6.79 15.272-15.166v-6.443c0-8.498-6.939-15.388-15.497-15.388z"/><path fill="#000" d="M240.48 32.547c0-4.931-4.027-8.93-8.993-8.93a9.005 9.005 0 0 0-4.343 1.111l.001-.069c0-9.853-8.043-17.84-17.965-17.84-8.117 0-14.974 5.345-17.2 12.685a13.24 13.24 0 0 0-5.072-1.004c-7.29 0-13.202 5.869-13.202 13.11v4.676c0 4.86 3.967 8.8 8.862 8.8h49.05c4.893 0 8.862-3.94 8.862-8.8v-3.739"/><path fill="#FFF" d="M240.48 32.547c0-4.931-4.027-8.93-8.993-8.93a9.005 9.005 0 0 0-4.343 1.111l.001-.069c0-9.853-8.043-17.84-17.965-17.84-8.117 0-14.974 5.345-17.2 12.685a13.24 13.24 0 0 0-5.072-1.004c-7.29 0-13.202 5.869-13.202 13.11v4.676c0 4.86 3.967 8.8 8.862 8.8h49.05c4.893 0 8.862-3.94 8.862-8.8v-3.739"/><path fill="#000" d="M121.775 79.266H82.892a4.566 4.566 0 0 0-4.57 4.557v64.23a4.566 4.566 0 0 0 4.57 4.56h48.616a4.564 4.564 0 0 0 4.57-4.56V93.536l-14.303-14.27"/><path fill="#FFF" d="M121.775 79.266H82.892a4.566 4.566 0 0 0-4.57 4.557v64.23a4.566 4.566 0 0 0 4.57 4.56h48.616a4.564 4.564 0 0 0 4.57-4.56V93.536l-14.303-14.27"/><path fill="#E5E5E0" d="M121.775 88.977a4.564 4.564 0 0 0 4.568 4.559h9.735l-14.303-14.27v9.71"/><path fill="#EDEDED" d="M108.73 137.895h17.904v-19.672H108.73zM89.776 99.317h22.663v-4.242H89.776zm0 7.714h36.858v-4.241H89.776zm0 7.715h36.858v-4.24H89.776zm0 7.716h15.321v-4.239h-15.32zm-.001 7.715h15.321v-4.24H89.775zm0 7.718h15.321v-4.242H89.775z"/><path fill="#000" d="M42.054 40.065a4.565 4.565 0 0 0-4.57 4.557v64.23a4.565 4.565 0 0 0 4.57 4.559H90.67a4.565 4.565 0 0 0 4.57-4.56V54.336l-14.303-14.27H42.054z"/><path fill="#FFFFFE" d="M42.054 40.065a4.565 4.565 0 0 0-4.57 4.557v64.23a4.565 4.565 0 0 0 4.57 4.559H90.67a4.565 4.565 0 0 0 4.57-4.56V54.336l-14.303-14.27H42.054z"/><path fill="#E5E5E0" d="M80.938 49.775a4.565 4.565 0 0 0 4.569 4.56h9.734l-14.303-14.27v9.71"/><path fill="#FFF" d="M518.652 121.053V66.305c0-2.184-1.206-4.062-2.97-5.071l-32.971 33.002 32.228 32.258c2.171-.859 3.713-2.964 3.713-5.441M417.096 61.234c-1.765 1.009-2.969 2.887-2.969 5.07v54.749c0 2.477 1.544 4.582 3.712 5.441l32.228-32.258-32.97-33.002"/><path fill="#EDEDED" d="M512.801 126.91c.757 0 1.473-.156 2.138-.416l-32.228-32.258-12.184 12.195a5.845 5.845 0 0 1-8.273 0l-12.187-12.195-32.228 32.258c.667.26 1.383.415 2.14.415h92.822"/><path fill="#E5E5E0" d="M470.527 106.431l45.155-45.197c-.856-.486-1.828-.787-2.88-.787H419.98c-1.053 0-2.028.3-2.884.787l45.158 45.197a5.845 5.845 0 0 0 8.273 0"/><path fill="#FFF" fill-rule="nonzero" d="M471.36 76.25a7.967 7.967 0 0 0-2.316-.324c-4.078 0-7.367 3.85-7.367 8.348 0 2.04 1.018 3.524 3.058 3.524 2.686 0 5.142-3.432 5.651-6.307l.974-5.24zm2.548 20.035c-2.548 1.345-5.144 1.855-8.248 1.855-7.6 0-14.039-5.565-14.039-14.47 0-9.553 6.625-17.808 16.913-17.808 8.063 0 13.484 5.66 13.484 13.404 0 6.956-3.894 11.035-8.247 11.035-1.857 0-3.568-1.25-3.43-4.079h-.186c-1.62 2.735-3.752 4.08-6.533 4.08-2.686 0-5.002-2.18-5.002-5.842 0-5.751 4.538-10.993 10.977-10.993 1.993 0 3.756.418 4.958.975l-1.574 8.394c-.692 3.525-.138 5.148 1.39 5.195 2.365.046 5.006-3.108 5.006-8.488 0-6.725-4.033-11.548-11.217-11.548-7.548 0-13.898 5.983-13.898 15.399 0 7.745 5.052 12.52 11.907 12.52 2.64 0 5.097-.555 6.998-1.622l.74 1.993z"/><path fill="#000" d="M90.568 362.83a5.312 5.312 0 0 1-5.312 5.313H5.948a5.312 5.312 0 0 1-5.312-5.313V253.02a5.312 5.312 0 0 1 5.312-5.311h79.308a5.312 5.312 0 0 1 5.312 5.312V362.83"/><path fill="#FFF" d="M90.568 362.83a5.312 5.312 0 0 1-5.312 5.313H5.948a5.312 5.312 0 0 1-5.312-5.313V253.02a5.312 5.312 0 0 1 5.312-5.311h79.308a5.312 5.312 0 0 1 5.312 5.312V362.83"/><path fill="#F5F5F5" d="M81.424 348.305a5.313 5.313 0 0 1-5.312 5.316H15.09a5.313 5.313 0 0 1-5.31-5.316v-84.302a5.312 5.312 0 0 1 5.31-5.312h61.022a5.312 5.312 0 0 1 5.312 5.312v84.302"/><path fill="#E5E5E5" d="M47.794 253.8a2.194 2.194 0 0 1-2.192 2.195 2.196 2.196 0 0 1 0-4.39c1.21 0 2.192.983 2.192 2.194m2.671 107.144a4.865 4.865 0 0 1-4.863 4.867 4.866 4.866 0 0 1-4.863-4.867 4.861 4.861 0 0 1 4.863-4.865 4.86 4.86 0 0 1 4.863 4.865"/><path fill="#FFF" d="M62.226 305.128H29.11a4.701 4.701 0 0 0-4.687 4.686v27.815a4.7 4.7 0 0 0 4.687 4.684h33.115a4.699 4.699 0 0 0 4.684-4.684v-27.815c0-2.575-2.108-4.686-4.684-4.686"/><path fill="#FFF" d="M59.979 305.128l-4.128-.018v-13.83c0-4.553-3.704-8.258-8.256-8.258H43.61c-4.553 0-8.255 3.705-8.255 8.259v13.829h-4.128v-13.83c0-6.83 5.555-12.387 12.383-12.387h3.986c6.829 0 12.384 5.557 12.384 13.808v12.427"/><path fill="#F5F5F5" d="M53.511 331.146l-5.078-8.798a5.942 5.942 0 0 0 3.18-5.263 5.946 5.946 0 0 0-5.946-5.95 5.946 5.946 0 0 0-2.767 11.213l-5.076 8.798c-.563.976-.104 1.776 1.025 1.776h13.637c1.126 0 1.59-.8 1.025-1.776"/><path fill="#000" d="M123.313 407.31a5.276 5.276 0 0 1-5.275 5.276H76.506a5.274 5.274 0 0 1-5.275-5.277v-71.783a5.276 5.276 0 0 1 5.275-5.28h41.532a5.277 5.277 0 0 1 5.275 5.28v71.783"/><path fill="#FFF" d="M123.313 407.31a5.276 5.276 0 0 1-5.275 5.276H76.506a5.274 5.274 0 0 1-5.275-5.277v-71.783a5.276 5.276 0 0 1 5.275-5.28h41.532a5.277 5.277 0 0 1 5.275 5.28v71.783"/><path fill="#E5E5E5" d="M103.58 406.518a2.9 2.9 0 0 1-2.9 2.9h-6.816a2.902 2.902 0 1 1 0-5.805l6.815.001a2.902 2.902 0 0 1 2.902 2.904m-.001-71.52a1.58 1.58 0 0 1-1.58 1.58h-9.456a1.583 1.583 0 0 1 0-3.166l9.455.001c.875 0 1.582.71 1.582 1.585"/><path fill="#F5F5F5" d="M116.794 395.237a5.274 5.274 0 0 1-5.276 5.273H83.024a5.274 5.274 0 0 1-5.275-5.273v-50.74a5.275 5.275 0 0 1 5.275-5.277h28.494a5.276 5.276 0 0 1 5.276 5.276v50.74"/><path fill="#FFF" d="M110.155 380.164c0 7.072-5.729 12.804-12.798 12.804s-12.8-5.732-12.8-12.804v-7.109c0-7.072 5.731-12.805 12.8-12.805 7.07 0 12.798 5.733 12.798 12.805v7.11"/><path fill="#E5E5E5" d="M99.08 384.717c-.34.332-.69.465-1.107.469-.674.008-1.58-.433-2.414-1.382-.835-.942-1.588-2.358-2.008-4.152a9.262 9.262 0 0 1-.236-2.119c-.002-1.724.433-3.447 1.023-4.88.584-1.43 1.342-2.58 1.883-3.109l.016-.015-.014.014c.218-.217.54-.352.95-.353.996-.007 2.512.868 3.258 3.402.147.505.22 1.142.22 1.832 0 1.275-.242 2.73-.575 3.937a11.781 11.781 0 0 1-.54 1.567c-.179.42-.376.729-.465.813-.235.235-.383.273-.528.277-.145.001-.347-.065-.588-.25-.36-.27-.755-.787-1.055-1.39-.305-.602-.52-1.292-.588-1.886a4.748 4.748 0 0 1-.03-.542c-.001-.776.169-1.67.404-2.41.118-.37.25-.703.38-.963.126-.257.259-.444.312-.491l.002-.002-.247-.247v.353l.247-.106-.247-.247v.353-.191l-.044.187.044.004v-.191l-.044.187.002.001c.062.015.345.244.547.648.213.402.38.966.38 1.652 0 .305-.033.633-.108.986a.659.659 0 0 0 1.287.277c.096-.442.138-.865.138-1.263-.002-1.025-.28-1.88-.665-2.502a2.976 2.976 0 0 0-.654-.761c-.244-.19-.513-.344-.883-.352a.969.969 0 0 0-.682.278l.002-.001c-.229.23-.396.506-.566.842-.491 1-.915 2.519-.922 3.959 0 .234.012.467.04.696.123 1.037.537 2.133 1.122 3.027.295.445.633.84 1.028 1.143.393.3.86.518 1.388.52.531.004 1.063-.247 1.473-.677.29-.308.505-.703.727-1.202.645-1.49 1.22-3.878 1.224-6.033 0-.779-.076-1.527-.272-2.201-.846-2.917-2.772-4.345-4.521-4.35-.706-.002-1.386.245-1.88.735l.002-.002c-.735.734-1.528 1.98-2.176 3.546-.643 1.563-1.12 3.438-1.122 5.381 0 .801.081 1.614.271 2.419.465 1.984 1.3 3.59 2.304 4.726 1.002 1.127 2.186 1.818 3.4 1.825a2.84 2.84 0 0 0 2.033-.85.66.66 0 0 0-.925-.936m-5.431-19.205c-.658.54-1.657 1.577-2.553 3.026-.89 1.445-1.666 3.301-1.794 5.44a.66.66 0 0 0 1.316.077c.108-1.86.793-3.517 1.6-4.827.803-1.307 1.737-2.267 2.265-2.697a.659.659 0 0 0-.833-1.02"/><path fill="#E5E5E5" d="M102.32 383.095c1.784-2.032 2.702-5.092 2.707-8.236-.003-3.382-1.08-6.9-3.534-9.309a.659.659 0 0 0-.92.942c2.127 2.072 3.14 5.256 3.137 8.367.004 2.886-.879 5.677-2.377 7.365a.659.659 0 1 0 .987.871m-12.742-4.161c.004.819.238 2.264.698 3.84.467 1.569 1.141 3.228 2.137 4.384a.657.657 0 1 0 .994-.863c-.78-.89-1.44-2.428-1.868-3.893-.433-1.46-.648-2.887-.644-3.468a.659.659 0 0 0-1.317 0"/><path fill="#FFF" d="M557.92 442.947c0 3.28-2.677 5.936-5.971 5.936H415.832c-3.298 0-5.973-2.656-5.973-5.936v-87.216c0-3.279 2.675-5.935 5.973-5.935h136.117c3.294 0 5.97 2.656 5.97 5.935v87.216"/><path fill="#F5F5F5" d="M419.412 440.538V363.07c0-2.08 1.613-3.78 3.583-3.78h121.787c1.973 0 3.585 1.7 3.585 3.78v77.468H419.412z"/><path fill="#FFF" d="M570.629 447.432c0 1.523-2.672 2.759-5.972 2.759H401.97c-3.297 0-5.971-1.236-5.971-2.759v-4.136c0-1.524 2.674-2.758 5.971-2.758h162.686c3.3 0 5.972 1.234 5.972 2.758v4.136"/><path fill="#E5E5E5" d="M486.855 354.525a2.956 2.956 0 0 1-2.966 2.948 2.956 2.956 0 0 1-2.965-2.948 2.956 2.956 0 0 1 2.965-2.948 2.956 2.956 0 0 1 2.966 2.948"/><path fill="#FFF" d="M499.028 380.763c0 8.309-6.78 15.042-15.139 15.042-8.361 0-15.135-6.733-15.135-15.042 0-8.307 6.774-15.044 15.135-15.044 8.36 0 15.139 6.737 15.139 15.044"/><path fill="#F5F5F5" d="M491.414 384.636c0-2.47-2.013-4.471-4.5-4.471h-1.228c1.817-.713 3.105-2.469 3.105-4.53 0-2.69-2.194-4.871-4.902-4.871-2.707 0-4.9 2.181-4.9 4.871a4.868 4.868 0 0 0 3.104 4.53h-1.226c-2.49 0-4.501 2-4.501 4.47l-1.033 6.127h17.112l-1.03-6.126"/><path fill="#FFF" d="M463.605 410.152l-1.04-1.457-3.545 2.503v-4.323h-1.796v4.323l-3.545-2.503-1.04 1.457 3.932 2.77-3.933 2.78 1.04 1.452 3.546-2.5v4.318h1.796v-4.318l3.544 2.5 1.041-1.453-3.933-2.778 3.933-2.771m12.933 0l-1.04-1.457-3.544 2.503v-4.323h-1.796v4.323l-3.546-2.503-1.04 1.457 3.932 2.77-3.932 2.78 1.04 1.452 3.546-2.5v4.318h1.796v-4.318l3.543 2.5 1.041-1.453-3.931-2.778 3.931-2.771m12.934 0l-1.042-1.457-3.543 2.503v-4.323h-1.796v4.323l-3.545-2.503-1.04 1.457 3.93 2.77-3.93 2.78 1.04 1.452 3.545-2.5v4.318h1.796v-4.318l3.543 2.5 1.042-1.453-3.933-2.778 3.933-2.771m12.932 0l-1.038-1.457-3.546 2.503v-4.323h-1.795v4.323l-3.546-2.503-1.04 1.457 3.93 2.77-3.93 2.78 1.04 1.452 3.546-2.5v4.318h1.795v-4.318l3.546 2.5 1.038-1.453-3.93-2.778 3.93-2.771m12.934 0l-1.04-1.457-3.544 2.503v-4.323h-1.796v4.323l-3.546-2.503-1.04 1.457 3.932 2.77-3.932 2.78 1.04 1.452 3.546-2.5v4.318h1.796v-4.318l3.545 2.5 1.04-1.453-3.932-2.778 3.931-2.771m-244.279 45.405l.129 12.788c.045 4.496 11.643 8.02 25.905 7.87 14.26-.147 25.788-3.916 25.741-8.406l-.129-12.788"/><path fill="#E5E5E5" d="M272.9 452.524c-1.175.945-1.85 1.966-1.841 3.033.046 4.494 11.646 8.016 25.908 7.868 14.26-.146 25.782-3.907 25.738-8.404-.009-1.009-.63-1.957-1.698-2.837"/><path fill="#FFF" d="M270.865 436.312l.13 12.786c.047 4.492 11.64 8.02 25.903 7.87 14.263-.15 25.789-3.912 25.743-8.407l-.13-12.787"/><path fill="#E5E5E5" d="M272.707 433.275c-1.176.948-1.852 1.967-1.842 3.037.046 4.49 11.646 8.014 25.905 7.866 14.264-.146 25.785-3.91 25.741-8.404-.01-1.009-.63-1.958-1.698-2.839"/><path fill="#FFF" d="M270.676 417.448l.128 12.787c.047 4.493 11.645 8.02 25.904 7.868 14.264-.148 25.786-3.911 25.74-8.403l-.125-12.79"/><path fill="#E5E5E5" d="M322.323 416.91c.045 4.49-11.48 8.26-25.743 8.406-14.26.149-25.858-3.375-25.904-7.868-.045-4.495 11.48-8.26 25.741-8.405 14.262-.148 25.86 3.375 25.906 7.868"/><path fill="#FFF" d="M229.96 475.11l.162 15.83c.056 5.565 14.411 9.93 32.067 9.744 17.656-.183 31.925-4.848 31.866-10.408l-.158-15.832"/><path fill="#F5F5F5" d="M232.24 471.354c-1.455 1.17-2.291 2.435-2.28 3.756.059 5.564 14.417 9.924 32.073 9.742 17.653-.183 31.917-4.839 31.864-10.408-.013-1.246-.78-2.422-2.105-3.51"/><path fill="#FFF" d="M229.722 451.283l.159 15.831c.059 5.561 14.41 9.927 32.067 9.744 17.656-.188 31.925-4.843 31.87-10.411l-.163-15.827"/><path fill="#F5F5F5" d="M232.001 447.525c-1.455 1.173-2.293 2.434-2.279 3.758.056 5.561 14.416 9.924 32.069 9.74 17.657-.181 31.922-4.84 31.864-10.403-.01-1.25-.779-2.426-2.1-3.514"/><path fill="#FFF" d="M229.488 427.934l.157 15.828c.059 5.564 14.414 9.931 32.069 9.742 17.657-.186 31.921-4.843 31.866-10.404l-.157-15.832"/><path fill="#F5F5F5" d="M293.423 427.268c.056 5.56-14.21 10.223-31.868 10.406-17.653.183-32.012-4.177-32.067-9.74-.057-5.565 14.211-10.226 31.865-10.407 17.656-.183 32.013 4.178 32.07 9.741m23.042 38.762c0 11.446-9.123 20.73-20.374 20.73-11.254 0-20.377-9.284-20.377-20.73 0-11.45 9.123-20.73 20.377-20.73 11.251 0 20.374 9.28 20.374 20.73"/><path fill="#FFF" d="M304.852 461.747h-16.657c-1.297 0-2.359 1.08-2.359 2.397v14.23c0 1.319 1.062 2.398 2.36 2.398h16.656c1.297 0 2.358-1.08 2.358-2.398v-14.23c0-1.317-1.06-2.397-2.358-2.397m-1.132 0l-2.076-.009v-7.077c0-2.33-1.861-4.224-4.152-4.224h-2.004c-2.29 0-4.152 1.895-4.152 4.224v7.077h-2.077v-7.077c0-3.494 2.795-6.337 6.23-6.337h2.003c3.436 0 6.229 2.843 6.229 7.065v6.358"/><path fill="#F5F5F5" d="M300.469 475.057l-2.555-4.499a3.045 3.045 0 0 0 1.6-2.693c0-1.682-1.34-3.046-2.991-3.046-1.652 0-2.993 1.364-2.993 3.046 0 1.169.65 2.185 1.6 2.693l-2.553 4.5c-.284.498-.05.909.515.909h6.86c.567 0 .8-.41.517-.91"/><path fill="url(#a)" d="M190.678 19.512c0-3.666.485-7.224 1.381-10.61-25.496-4.35-59.457-8.158-78.184-8.158-18.145 0-50.583 3.574-75.773 7.752a41.426 41.426 0 0 1 1.494 11.016c0 22.152-17.406 40.233-39.281 41.311 2.694 36.54 12.108 86.226 23.202 113.04 18.377 44.431 81.932 83.497 90.358 90.393 8.419-6.896 71.98-45.962 90.352-90.394C215.341 147 224.771 97.173 227.444 60.62c-20.678-2.285-36.766-19.816-36.766-41.107" transform="translate(166 125)"/><path fill="#393939" d="M279.875 146.428c-12.201 0-33.07 1.864-53.952 4.7-2.4 22.71-17.02 41.83-37.314 50.478 1.94 16.466 4.9 33.757 8.36 49.381 3.54 15.967 7.605 30.185 11.651 39.968 12.238 29.589 51.64 58.965 71.255 72.87l.06-.044V146.428h-.06"/><path fill="#434343" d="M336.392 151.484c-21.582-3.01-43.774-5.048-56.457-5.056v217.353c19.635-13.928 58.963-43.273 71.188-72.826 4.054-9.796 8.117-24.009 11.654-39.968 3.541-15.966 6.549-33.681 8.486-50.469-19.012-9.07-32.461-27.458-34.87-49.034"/><path fill="#00FE81" d="M250.936 244.416l23.81 30.781a6.354 6.354 0 0 0 5.044 2.475c1.981 0 3.83-.907 5.043-2.475l41.74-53.955a6.38 6.38 0 0 0-1.142-8.948 6.374 6.374 0 0 0-8.944 1.14L279.79 260.87l-18.768-24.261a6.375 6.375 0 0 0-8.946-1.14 6.38 6.38 0 0 0-1.14 8.947"/><path fill="#000" d="M485.047 182.58c2.554 0 4.62 2.02 4.62 4.513v64.025c0 2.49-2.066 4.511-4.62 4.511h-37.058c-2.554 0-4.621-2.02-4.621-4.511v-64.025c0-2.492 2.067-4.512 4.621-4.512h37.058"/><path fill="#00FE81" d="M485.047 182.58c2.554 0 4.62 2.02 4.62 4.513v64.025c0 2.49-2.066 4.511-4.62 4.511h-37.058c-2.554 0-4.621-2.02-4.621-4.511v-64.025c0-2.492 2.067-4.512 4.621-4.512h37.058"/><path fill="#252525" d="M456 208.388v.002c0 .98.776 1.774 1.732 1.774h10.611a6.205 6.205 0 0 1 6.23 6.214c0 3.431-2.763 6.213-6.171 6.213h-10.67c-.956 0-1.732.795-1.732 1.774v12.43c0 .98.776 1.774 1.732 1.774h.062c.957 0 1.733-.794 1.733-1.774v-10.653h8.816a9.744 9.744 0 0 0 9.757-9.764c0-5.393-4.342-9.765-9.698-9.765h-10.67c-.956 0-1.732.795-1.732 1.775z"/><path fill="#FFF" d="M503.898 234.681h-21.726c-1.194 0-2.172.916-2.172 2.036V248.8c0 1.12.978 2.035 2.172 2.035h21.726c1.191 0 2.17-.916 2.17-2.035v-12.082c0-1.12-.979-2.036-2.17-2.036"/><path fill="#FFF" d="M501.977 235.398l-1.813-.008v-6.008c0-1.977-1.627-3.588-3.628-3.588h-7.047c-2 0-3.626 1.61-3.626 3.588v6.008h-1.813v-6.008c0-2.968 2.44-5.382 5.44-5.382h7.046c3.001 0 5.44 2.414 5.44 6v5.398"/><path fill="#F5F5F5" d="M496.45 246.044l-2.233-3.822a2.577 2.577 0 0 0 1.398-2.287c0-1.427-1.17-2.583-2.613-2.583-1.444 0-2.614 1.156-2.614 2.583 0 .995.567 1.855 1.399 2.287l-2.23 3.822c-.249.423-.048.771.449.771h5.991c.497 0 .7-.348.453-.771"/></g></svg>