<svg enable-background="new -236 350.9 718.6 141" viewBox="-236 350.9 718.6 141" xmlns="http://www.w3.org/2000/svg"><g fill="#fff"><path d="m-122.5 473c3.8 5 3 12.2-2 16.3-2.2 1.8-4.6 2.6-7.2 2.6-3.4 0-6.8-1.6-9.2-4.4l-37.2-47.2-37.1 47.2c-2.4 2.8-5.8 4.4-9.2 4.4-2.4 0-5-.8-7.2-2.6-5-4-5.8-11.2-1.8-16.3l40.5-51.6-40.5-51.5c-4-5.2-3.2-12.4 1.8-16.5 5.2-4 12.4-3.2 16.5 2l37.1 47.2 37.1-47.2c4-5.2 11.4-6 16.5-2 5 4 5.8 11.2 2 16.5l-40.8 51.6z"/><path d="m-69.2 491.8c-6.4 0-11.6-5.2-11.6-11.6v-117.6c0-6.4 5.2-11.6 11.6-11.6s11.8 5.2 11.8 11.6v117.6c0 6.4-5.4 11.6-11.8 11.6z"/><path d="m91.4 473c3.8 5 3 12.2-2 16.3-2.2 1.8-4.6 2.6-7.2 2.6-3.4 0-6.8-1.6-9.2-4.4l-37.1-47.2-37.1 47.2c-2.4 2.8-5.8 4.4-9.2 4.4-2.4 0-5-.8-7.2-2.6-5-4-5.8-11.2-1.8-16.3l40.4-51.5-40.5-51.6c-4-5.2-3.2-12.4 1.8-16.5 5.2-4 12.4-3.2 16.5 2l37.1 47.2 37.1-47.2c4-5.2 11.4-6 16.5-2 5 4 5.8 11.2 2 16.5l-40.7 51.6z"/><path d="m184.2 491.8c-38.9 0-70.4-31.5-70.4-70.4 0-38.7 31.5-70.4 70.4-70.4 38.7 0 70.4 31.7 70.4 70.4.1 38.9-31.6 70.4-70.4 70.4zm0-117.6c-26.1 0-47.2 21.3-47.2 47.2 0 26.1 21.1 47.2 47.2 47.2 25.9 0 47.2-21.1 47.2-47.2 0-25.9-21.3-47.2-47.2-47.2z"/><path d="m298.3 491.8c-6.4 0-11.6-5.2-11.6-11.6v-117.6c0-6.4 5.2-11.6 11.6-11.6s11.8 5.2 11.8 11.6v117.6c0 6.4-5.4 11.6-11.8 11.6z"/><path d="m412.2 491.8c-38.9 0-70.4-31.5-70.4-70.4 0-38.7 31.5-70.4 70.4-70.4 38.7 0 70.4 31.7 70.4 70.4 0 38.9-31.7 70.4-70.4 70.4zm0-117.6c-26.1 0-47.2 21.3-47.2 47.2 0 26.1 21.1 47.2 47.2 47.2 25.9 0 47.2-21.1 47.2-47.2-.1-25.9-21.3-47.2-47.2-47.2z"/></g></svg>