<?xml version="1.0" encoding="utf-8"?>
<!-- Generator: Adobe Illustrator 19.0.0, SVG Export Plug-In . SVG Version: 6.00 Build 0)  -->
<svg version="1.1" id="Layer_1" xmlns="http://www.w3.org/2000/svg" xmlns:xlink="http://www.w3.org/1999/xlink" x="0px" y="0px"
	 viewBox="-236 350.9 718.6 141" style="enable-background:new -236 350.9 718.6 141;" xml:space="preserve">
<style type="text/css">
	.st0{fill:#FFFFFF;}
</style>
<g>
	<path class="st0" d="M-122.5,473c3.8,5,3,12.2-2,16.3c-2.2,1.8-4.6,2.6-7.2,2.6c-3.4,0-6.8-1.6-9.2-4.4l-37.2-47.2l-37.1,47.2
		c-2.4,2.8-5.8,4.4-9.2,4.4c-2.4,0-5-0.8-7.2-2.6c-5-4-5.8-11.2-1.8-16.3l40.5-51.6l-40.5-51.5c-4-5.2-3.2-12.4,1.8-16.5
		c5.2-4,12.4-3.2,16.5,2l37.1,47.2l37.1-47.2c4-5.2,11.4-6,16.5-2c5,4,5.8,11.2,2,16.5l-40.8,51.6L-122.5,473z"/>
	<path class="st0" d="M-69.2,491.8c-6.4,0-11.6-5.2-11.6-11.6V362.6c0-6.4,5.2-11.6,11.6-11.6c6.4,0,11.8,5.2,11.8,11.6v117.6
		C-57.4,486.6-62.8,491.8-69.2,491.8z"/>
	<path class="st0" d="M91.4,473c3.8,5,3,12.2-2,16.3c-2.2,1.8-4.6,2.6-7.2,2.6c-3.4,0-6.8-1.6-9.2-4.4l-37.1-47.2l-37.1,47.2
		c-2.4,2.8-5.8,4.4-9.2,4.4c-2.4,0-5-0.8-7.2-2.6c-5-4-5.8-11.2-1.8-16.3L21,421.5l-40.5-51.6c-4-5.2-3.2-12.4,1.8-16.5
		c5.2-4,12.4-3.2,16.5,2l37.1,47.2L73,355.4c4-5.2,11.4-6,16.5-2c5,4,5.8,11.2,2,16.5l-40.7,51.6L91.4,473z"/>
	<path class="st0" d="M184.2,491.8c-38.9,0-70.4-31.5-70.4-70.4c0-38.7,31.5-70.4,70.4-70.4c38.7,0,70.4,31.7,70.4,70.4
		C254.7,460.3,223,491.8,184.2,491.8z M184.2,374.2c-26.1,0-47.2,21.3-47.2,47.2c0,26.1,21.1,47.2,47.2,47.2
		c25.9,0,47.2-21.1,47.2-47.2C231.4,395.5,210.1,374.2,184.2,374.2z"/>
	<path class="st0" d="M298.3,491.8c-6.4,0-11.6-5.2-11.6-11.6V362.6c0-6.4,5.2-11.6,11.6-11.6c6.4,0,11.8,5.2,11.8,11.6v117.6
		C310.1,486.6,304.7,491.8,298.3,491.8z"/>
	<path class="st0" d="M412.2,491.8c-38.9,0-70.4-31.5-70.4-70.4c0-38.7,31.5-70.4,70.4-70.4c38.7,0,70.4,31.7,70.4,70.4
		C482.6,460.3,450.9,491.8,412.2,491.8z M412.2,374.2c-26.1,0-47.2,21.3-47.2,47.2c0,26.1,21.1,47.2,47.2,47.2
		c25.9,0,47.2-21.1,47.2-47.2C459.3,395.5,438.1,374.2,412.2,374.2z"/>
</g>
</svg>
