<svg id="Layer_1" data-name="Layer 1" xmlns="http://www.w3.org/2000/svg" viewBox="0 0 49 49"><defs><style>.cls-1{fill:#4f4f4f;}.cls-2{fill:none;stroke:#4f4f4f;stroke-linecap:round;stroke-linejoin:round;stroke-width:1.35px;}</style></defs><title>icon_49x49</title><path class="cls-1" d="M15.76,5.73c0-.79-.62-1.9-2.36-1.9a2.87,2.87,0,0,0-1.77.58,2,2,0,0,0,.24,1.1,2.14,2.14,0,0,1,1.7-.73c1.07,0,1.28.7,1.28,1a1.16,1.16,0,0,1-1.24.95,2,2,0,0,1-1.78-.85.43.43,0,0,1,0-.07,2.37,2.37,0,0,1-.37-1.06s0-.06,0-.09c0-.34,0-.45,0-.26h0a.49.49,0,0,0-.27-.45h0a.49.49,0,0,0-.71.41,3.34,3.34,0,0,0,.28,1.56,3.19,3.19,0,0,0-.13.94,2.88,2.88,0,0,0,2.84,3,3.14,3.14,0,0,0,1.52-.37.51.51,0,0,0-.48-.91,1.89,1.89,0,0,1-2.85-1.61,2.72,2.72,0,0,0,2,.66A1.92,1.92,0,0,0,15.76,5.73ZM11.4,4.41v0Zm0,.07v0Zm0,0v0Z"/><rect class="cls-2" x="7.91" y="1.28" width="33.17" height="46.44" rx="3.37"/><line class="cls-2" x1="16.4" y1="16.57" x2="32.6" y2="16.57"/><line class="cls-2" x1="16.4" y1="24.28" x2="32.6" y2="24.28"/><line class="cls-2" x1="16.4" y1="31.98" x2="32.6" y2="31.98"/></svg>