<svg id="Layer_1" data-name="Layer 1" xmlns="http://www.w3.org/2000/svg" viewBox="0 0 49 49"><defs><style>.cls-1{fill:none;stroke:#4f4f4f;stroke-linecap:round;stroke-linejoin:round;stroke-width:1.35px;}</style></defs><title>icon_49x49</title><path class="cls-1" d="M2.4,15.94c.06,2.15-.13,24.27,0,25.1s.29,5.76,3.7,6.1a23.48,23.48,0,0,0,5.43,0c3.41-.34,3.6-5.26,3.7-6.1s-.08-22.95,0-25.1"/><path class="cls-1" d="M15.17,15.94C15.39,12.69,12,9,11.46,8.17a4.71,4.71,0,0,1-.35-2.57H6.44a4.6,4.6,0,0,1-.32,2.57C5.55,9,2.18,12.69,2.4,15.94"/><path class="cls-1" d="M6,5.66v-3a.89.89,0,0,1,.89-.89h3.8a.88.88,0,0,1,.88.89v3"/><polygon class="cls-1" points="42.62 28.57 29 31.61 18.07 28.67 29 25.57 42.62 28.57"/><polygon class="cls-1" points="42.19 44.21 29 47.3 29 31.64 42.62 28.57 42.19 44.21"/><polygon class="cls-1" points="18.09 44 29 47.3 29 31.64 18.07 28.67 18.09 44"/><line class="cls-1" x1="23.85" y1="27.01" x2="36.52" y2="29.89"/><line class="cls-1" x1="30.25" y1="6.99" x2="40.59" y2="6.99"/><polygon class="cls-1" points="38.79 6.99 32.04 6.99 29.57 1.7 41.27 1.7 38.79 6.99"/><path class="cls-1" d="M42.55,33.28a5.27,5.27,0,0,0,4.06-5.87L44.9,15.23A9.58,9.58,0,0,0,35.42,7h0a9.57,9.57,0,0,0-9.48,8.24L24.3,26.9"/></svg>