<svg id="Layer_1" data-name="Layer 1" xmlns="http://www.w3.org/2000/svg" viewBox="0 0 49 49"><defs><style>.cls-1{fill:none;stroke:#4f4f4f;stroke-linecap:round;stroke-linejoin:round;stroke-width:1.35px;}</style></defs><title>icon_49x49</title><path class="cls-1" d="M21.58,2.52a.93.93,0,1,0-1.85,0v6.6h1.85Z"/><path class="cls-1" d="M29.36,2.52a.93.93,0,1,0-1.85,0v6.6h1.85Z"/><path class="cls-1" d="M16.39,9.18H32.7a0,0,0,0,1,0,0V19a8.15,8.15,0,0,1-8.15,8.15h0A8.15,8.15,0,0,1,16.39,19V9.18A0,0,0,0,1,16.39,9.18Z"/><line class="cls-1" x1="24.54" y1="27.21" x2="24.54" y2="47.41"/><path class="cls-1" d="M18.32,31.79c3.46,4.66,3.85,13.45,3.85,13.45s-8.24-2.8-11.78-7.55C7.23,33.43,6.55,24.24,6.55,24.24S14.78,27,18.32,31.79Z"/><path class="cls-1" d="M30.68,31.79c-3.46,4.66-3.85,13.45-3.85,13.45s8.24-2.8,11.78-7.55c3.16-4.26,3.84-13.45,3.84-13.45S34.22,27,30.68,31.79Z"/></svg>