<svg enable-background="new 0 0 392 73.6" viewBox="0 0 392 73.6" xmlns="http://www.w3.org/2000/svg"><path d="m349.8 33.7c-2.4.1-4.4 1.6-5.4 3.6h-267.3c-1.1 0-2.1.7-2.4 1.8l-3.5 12c-.1.5-.6.9-1.2.9-.5 0-1-.3-1.2-.8l-11.1-30c-.5-1.9-2.6-3.3-5-3.3-2.3 0-4.2 1.2-4.9 2.9v.1.1l-11.2 30.3c-.2.5-.6.8-1.2.8s-1.1-.4-1.2-.9l-12.1-41.7c-.6-2.1-2.2-3-3.8-3-2.2 0-4.7 1.9-3.7 4.9l16.6 51.7c.6 1.8 2.3 3 4.3 3 1.9 0 3.6-1.2 4.2-2.9l12-32.3c.2-.4.5-.7 1-.7.4 0 .8.3 1 .6l12 32.3c.6 1.7 2.3 2.9 4.2 2.9 2 0 3.7-1.3 4.3-3l5.8-18.7c.3-.8 1-1.4 1.9-1.4h262.5c1 2.1 3.2 3.6 5.8 3.6 3.6 0 6.5-2.9 6.4-6.5-.1-3.5-3.3-6.5-6.8-6.3z"/><path d="m130 52.3c-4 4.5-7.6 6.3-15 6.3-9.5 0-17.2-7.7-17.2-18.7 0-12 7.6-18.7 17.2-18.7 12.9 0 17.1 10.5 17.1 16.2h7.2c0-11.7-8.9-22.8-24.3-22.8-13.6 0-24.4 10-24.4 25.3 0 14.4 10.2 25.3 24.4 25.3 7.2 0 14.6-2.1 19.8-8.3 1.5-1.4 1.5-3.6.2-4.9-1.5-1.3-3.8-1-5 .3z"/><path d="m189.6 52.3c-4 4.5-7.6 6.3-15 6.3-9.5 0-17.2-7.7-17.2-18.7 0-12 7.6-18.7 17.2-18.7 12.9 0 17.1 10.5 17.1 16.2h7.2c0-11.7-8.9-22.8-24.3-22.8-13.6 0-24.4 10-24.4 25.3 0 14.4 10.2 25.3 24.4 25.3 7.2 0 14.6-2.1 19.8-8.3 1.5-1.4 1.5-3.6.2-4.9-1.4-1.3-3.8-1-5 .3z"/><path d="m252.6 21.8c.4-.6.6-1.3.6-2.1 0-2.3-1.8-4.1-4.1-4.1h-34c-2 0-3.6 1.6-3.6 3.6s1.6 3.6 3.6 3.6h27.8l-13.1 14.5h8.8s13.3-13.9 14-15.5z"/><path d="m211.4 57.7c-.4.6-.6 1.3-.6 2.1 0 2.3 1.8 4.1 4.1 4.1h34c2 0 3.6-1.6 3.6-3.6s-1.6-3.6-3.6-3.6h-27.9l13.1-14.5h-8.7s-13.3 13.9-14 15.5z"/><path d="m308.5 21.8c.4-.6.6-1.3.6-2.1 0-2.3-1.8-4.1-4.1-4.1h-34c-2 0-3.6 1.6-3.6 3.6s1.6 3.6 3.6 3.6h27.8l-13.1 14.5h8.8s13.3-13.9 14-15.5z"/><path d="m267.3 57.7c-.4.6-.6 1.3-.6 2.1 0 2.3 1.8 4.1 4.1 4.1h34c2 0 3.6-1.6 3.6-3.6s-1.6-3.6-3.6-3.6h-27.9l13.1-14.5h-8.7s-13.3 13.9-14 15.5z"/><path d="m350 12.7c-15.1 0-27.4 11.1-27.4 27.4 0 15.7 12.3 27.4 27.4 27.4s27.4-11.6 27.4-27.4c0-16-12.3-27.4-27.4-27.4zm0 46.6c-10.6 0-19.2-8.2-19.2-19.2 0-11.4 8.6-19.2 19.2-19.2s19.2 8 19.2 19.2c0 11.1-8.6 19.2-19.2 19.2z"/><path d="m97.4 37h35.4s-.1 1.4-.4 1.4-35.4-.7-35.4-.7z"/><path d="m157.2 37h35.4s-.1 1.4-.4 1.4-35.5-.7-35.5-.7z"/></svg>