<?xml version="1.0" encoding="utf-8"?>
<!-- Generator: Adobe Illustrator 19.0.0, SVG Export Plug-In . SVG Version: 6.00 Build 0)  -->
<svg version="1.1" id="Layer_1" xmlns="http://www.w3.org/2000/svg" xmlns:xlink="http://www.w3.org/1999/xlink" x="0px" y="0px"
	 viewBox="0 0 392 73.6" enable-background="new 0 0 392 73.6" xml:space="preserve">
<path d="M349.8,33.7c-2.4,0.1-4.4,1.6-5.4,3.6H77.1c-1.1,0-2.1,0.7-2.4,1.8l-3.5,12c-0.1,0.5-0.6,0.9-1.2,0.9c-0.5,0-1-0.3-1.2-0.8
	L57.7,21.2c-0.5-1.9-2.6-3.3-5-3.3c-2.3,0-4.2,1.2-4.9,2.9l0,0l0,0.1c0,0,0,0.1,0,0.1L36.6,51.3c-0.2,0.5-0.6,0.8-1.2,0.8
	c-0.6,0-1.1-0.4-1.2-0.9L22.1,9.5c-0.6-2.1-2.2-3-3.8-3c-2.2,0-4.7,1.9-3.7,4.9h0l16.6,51.7c0.6,1.8,2.3,3,4.3,3
	c1.9,0,3.6-1.2,4.2-2.9l12-32.3c0.2-0.4,0.5-0.7,1-0.7c0.4,0,0.8,0.3,1,0.6l12,32.3c0.6,1.7,2.3,2.9,4.2,2.9c2,0,3.7-1.3,4.3-3
	L80,44.3c0.3-0.8,1-1.4,1.9-1.4l262.5,0c1,2.1,3.2,3.6,5.8,3.6c3.6,0,6.5-2.9,6.4-6.5C356.5,36.5,353.3,33.5,349.8,33.7z"/>
<path d="M130,52.3c-4,4.5-7.6,6.3-15,6.3c-9.5,0-17.2-7.7-17.2-18.7c0-12,7.6-18.7,17.2-18.7c12.9,0,17.1,10.5,17.1,16.2h7.2
	c0-11.7-8.9-22.8-24.3-22.8c-13.6,0-24.4,10-24.4,25.3c0,14.4,10.2,25.3,24.4,25.3c7.2,0,14.6-2.1,19.8-8.3c1.5-1.4,1.5-3.6,0.2-4.9
	C133.5,50.7,131.2,51,130,52.3z"/>
<path d="M189.6,52.3c-4,4.5-7.6,6.3-15,6.3c-9.5,0-17.2-7.7-17.2-18.7c0-12,7.6-18.7,17.2-18.7c12.9,0,17.1,10.5,17.1,16.2h7.2
	c0-11.7-8.9-22.8-24.3-22.8c-13.6,0-24.4,10-24.4,25.3c0,14.4,10.2,25.3,24.4,25.3c7.2,0,14.6-2.1,19.8-8.3c1.5-1.4,1.5-3.6,0.2-4.9
	C193.2,50.7,190.8,51,189.6,52.3z"/>
<path d="M252.6,21.8c0.4-0.6,0.6-1.3,0.6-2.1c0-2.3-1.8-4.1-4.1-4.1h-34c-2,0-3.6,1.6-3.6,3.6c0,2,1.6,3.6,3.6,3.6l27.8,0
	l-13.1,14.5h8.8C238.6,37.3,251.9,23.4,252.6,21.8L252.6,21.8L252.6,21.8z"/>
<path d="M211.4,57.7c-0.4,0.6-0.6,1.3-0.6,2.1c0,2.3,1.8,4.1,4.1,4.1h34c2,0,3.6-1.6,3.6-3.6c0-2-1.6-3.6-3.6-3.6l-27.9,0l13.1-14.5
	h-8.7C225.4,42.2,212.1,56.1,211.4,57.7L211.4,57.7L211.4,57.7z"/>
<path d="M308.5,21.8c0.4-0.6,0.6-1.3,0.6-2.1c0-2.3-1.8-4.1-4.1-4.1h-34c-2,0-3.6,1.6-3.6,3.6c0,2,1.6,3.6,3.6,3.6l27.8,0
	l-13.1,14.5h8.8C294.5,37.3,307.8,23.4,308.5,21.8L308.5,21.8L308.5,21.8z"/>
<path d="M267.3,57.7c-0.4,0.6-0.6,1.3-0.6,2.1c0,2.3,1.8,4.1,4.1,4.1h34c2,0,3.6-1.6,3.6-3.6c0-2-1.6-3.6-3.6-3.6l-27.9,0L290,42.2
	h-8.7C281.3,42.2,268,56.1,267.3,57.7L267.3,57.7L267.3,57.7z"/>
<path d="M350,12.7c-15.1,0-27.4,11.1-27.4,27.4c0,15.7,12.3,27.4,27.4,27.4s27.4-11.6,27.4-27.4C377.4,24.1,365.1,12.7,350,12.7z
	 M350,59.3c-10.6,0-19.2-8.2-19.2-19.2c0-11.4,8.6-19.2,19.2-19.2c10.6,0,19.2,8,19.2,19.2C369.2,51.2,360.6,59.3,350,59.3z"/>
<path d="M97.4,37h35.4c0,0-0.1,1.4-0.4,1.4S97,37.7,97,37.7L97.4,37z"/>
<path d="M157.2,37h35.4c0,0-0.1,1.4-0.4,1.4s-35.5-0.7-35.5-0.7L157.2,37z"/>
</svg>
