<?xml version="1.0" encoding="utf-8"?>
<!-- Generator: Adobe Illustrator 23.0.3, SVG Export Plug-In . SVG Version: 6.00 Build 0)  -->
<svg version="1.1" id="Layer_1" xmlns="http://www.w3.org/2000/svg" xmlns:xlink="http://www.w3.org/1999/xlink" x="0px" y="0px"
	 viewBox="0 0 786.26 234.92" style="enable-background:new 0 0 786.26 234.92;" xml:space="preserve">
<style type="text/css">
	.st0{fill:#FFFFFF;}
</style>
<g>
	<polygon class="st0" points="116.72,136.63 93.59,120.67 95.21,95.58 83.81,95.58 64.92,77.66 44.07,92.65 69.48,116.11 
		61.98,145.75 87.4,168.23 116.72,153.57 	"/>
	<polygon class="st0" points="61.98,58.77 61.98,70.5 104.34,87.76 99.12,113.5 119.65,126.86 119.65,43.13 82.83,43.13 	"/>
	<polygon class="st0" points="119.65,188.11 119.65,160.09 94.89,173.77 	"/>
	<polygon class="st0" points="195.26,92.65 174.41,77.66 155.51,95.58 144.11,95.58 145.74,120.67 122.61,136.63 122.61,153.57 
		151.93,168.23 177.34,145.75 169.85,116.11 	"/>
	<polygon class="st0" points="134.99,87.76 177.34,70.5 177.34,58.77 156.49,43.13 119.68,43.13 119.68,126.86 140.2,113.5 	"/>
	<polygon class="st0" points="119.68,188.11 144.44,173.77 119.68,160.09 	"/>
</g>
<g>
	<g>
		<path class="st0" d="M119.65,231.07c-62.5,0-113.34-50.84-113.34-113.34C6.31,55.24,57.15,4.4,119.65,4.4
			c62.5,0,113.34,50.84,113.34,113.34C232.99,180.23,182.14,231.07,119.65,231.07z M119.65,20.4c-53.67,0-97.34,43.67-97.34,97.34
			s43.67,97.34,97.34,97.34c53.67,0,97.34-43.67,97.34-97.34S173.32,20.4,119.65,20.4z"/>
	</g>
</g>
<g>
	<path class="st0" d="M301.99,167.06c-5.93,0-18.7-0.76-27.21-3.04c-1.82-0.46-2.89-1.67-2.89-3.5v-9.12c0-1.22,1.06-2.43,2.58-2.43
		c0.3,0,0.46,0,0.61,0c7.3,0.91,20.98,1.67,25.53,1.67c9.42,0,10.79-3.19,10.79-7.3c0-2.89-1.82-4.71-6.69-7.75l-20.82-12.77
		c-7.45-4.56-12.77-12.16-12.77-20.97c0-15.2,9.58-22.8,28.88-22.8c12.31,0,19.3,1.37,27.05,3.04c1.82,0.46,2.74,1.67,2.74,3.5v8.82
		c0,1.82-0.91,2.89-2.43,2.89c-0.3,0-0.46,0-0.61,0c-4.26-0.61-16.42-1.82-25.08-1.82c-7.3,0-10.49,1.67-10.49,6.38
		c0,2.43,2.28,3.95,6.08,6.23l19.91,12.16c12.77,7.75,14.59,15.35,14.59,23.1C331.79,156.57,321.91,167.06,301.99,167.06z"/>
	<path class="st0" d="M469.49,165.84h-13.98c-1.67,0-3.04-1.52-3.04-3.19v-51.68c0-11.7-2.43-14.74-10.94-14.74
		c-2.89,0-8.66,0.91-14.14,3.8c0.46,3.34,0.61,7.14,0.61,10.94v51.68c0,1.67-1.37,3.19-3.04,3.19h-13.98
		c-1.67,0-3.04-1.52-3.04-3.19v-51.68c0-11.7-1.98-14.74-10.49-14.74c-3.19,0-7.75,1.67-13.98,5.02v61.41
		c0,1.67-1.37,3.19-3.04,3.19h-13.98c-1.67,0-3.04-1.52-3.04-3.19V83.16c0-1.67,1.37-3.04,3.04-3.04h13.22
		c1.67,0,3.04,1.37,3.04,3.04v3.19c6.38-4.1,12.77-7.3,21.74-7.3c8.66,0,14.29,2.58,17.78,6.84c7.75-4.26,14.59-6.84,25.08-6.84
		c20.67,0,25.23,14.14,25.23,31.92v51.68C472.53,164.33,471.17,165.84,469.49,165.84z"/>
	<path class="st0" d="M525.13,68.72h-14.74c-1.67,0-3.19-1.37-3.19-3.04V52.31c0-1.67,1.52-3.04,3.19-3.04h14.74
		c1.67,0,3.04,1.37,3.04,3.04v13.38C528.17,67.35,526.8,68.72,525.13,68.72z M524.67,165.84h-13.98c-1.67,0-3.04-1.52-3.04-3.19
		V83.16c0-1.67,1.37-3.04,3.04-3.04h13.98c1.67,0,3.04,1.37,3.04,3.04v79.49C527.71,164.33,526.34,165.84,524.67,165.84z"/>
	<path class="st0" d="M630.01,165.84h-13.98c-1.67,0-3.04-1.52-3.04-3.19V113.1c0-13.22-1.22-17.02-12.92-17.02
		c-5.17,0-10.79,2.13-17.18,5.47v61.1c0,1.67-1.37,3.19-3.04,3.19h-13.98c-1.67,0-3.04-1.52-3.04-3.19V83.16
		c0-1.67,1.37-3.04,3.04-3.04h13.22c1.67,0,3.04,1.37,3.04,3.04v3.19c8.82-5.62,14.59-7.3,24.62-7.3
		c21.89,0,26.29,14.74,26.29,34.05v49.55C633.05,164.33,631.68,165.84,630.01,165.84z"/>
	<path class="st0" d="M712.69,166c-3.65,0.61-6.99,1.06-10.33,1.06c-17.18,0-24.17-3.8-24.17-24.17V95.17l-14.29-2.13
		c-1.67-0.3-3.04-1.37-3.04-3.04v-6.84c0-1.67,1.37-3.04,3.04-3.04h14.29V67.66c0-1.67,1.37-2.74,3.04-3.04l14.13-2.43
		c0.15,0,0.46,0,0.61,0c1.37,0,2.43,0.76,2.43,2.28v15.66h13.68c1.67,0,3.04,1.37,3.04,3.04v8.97c0,1.67-1.37,3.04-3.04,3.04h-13.68
		v47.73c0,7.6,0.46,8.51,5.93,8.51h8.06c1.98,0,3.19,0.76,3.19,2.28v9.58C715.58,164.78,714.67,165.69,712.69,166z"/>
	<path class="st0" d="M762.09,68.72h-14.74c-1.67,0-3.19-1.37-3.19-3.04V52.31c0-1.67,1.52-3.04,3.19-3.04h14.74
		c1.67,0,3.04,1.37,3.04,3.04v13.38C765.13,67.35,763.77,68.72,762.09,68.72z M761.64,165.84h-13.98c-1.67,0-3.04-1.52-3.04-3.19
		V83.16c0-1.67,1.37-3.04,3.04-3.04h13.98c1.67,0,3.04,1.37,3.04,3.04v79.49C764.68,164.33,763.31,165.84,761.64,165.84z"/>
</g>
</svg>
