<?xml version="1.0" encoding="utf-8"?>
<!-- Generator: Adobe Illustrator 22.1.0, SVG Export Plug-In . SVG Version: 6.00 Build 0)  -->
<svg version="1.1" id="Layer_1" xmlns="http://www.w3.org/2000/svg" xmlns:xlink="http://www.w3.org/1999/xlink" x="0px" y="0px"
	 viewBox="0 0 1920 1080" style="enable-background:new 0 0 1920 1080;" xml:space="preserve">
<style type="text/css">
	.st0{fill:#171717;}
</style>
<g>
	<path class="st0" d="M824.4,247c3.7,0.4,6.5,1.4,8.5,3.2c2,1.8,3,4.1,3,7c0,4.4-2,8.1-6.1,10.9c-4.1,2.8-9.4,4.3-15.9,4.3
		c-1.3,0-3.4-0.1-6.3-0.2s-5.2-0.2-6.8-0.2c-0.9,0-2,0-3.4,0.1s-2.9,0.2-4.7,0.3l0.6-3c0.1,0,0.3,0,0.5,0.1c0.2,0,0.5,0,0.8,0
		c1.7,0,3-0.6,3.8-1.8c0.8-1.2,1.7-4.5,2.6-9.9l3.8-22.1c0.3-1.7,0.5-2.9,0.6-3.7c0.1-0.8,0.1-1.4,0.1-1.8c0-0.9-0.3-1.6-1-2.1
		c-0.7-0.4-1.7-0.7-3.1-0.7h-0.7l0.5-3.2c1.3,0.1,2.7,0.2,4.1,0.3c1.4,0.1,2.9,0.1,4.5,0.1c1.2,0,3.2-0.1,6-0.2s4.9-0.2,6.5-0.2
		c4.5,0,8.1,1,10.6,2.9c2.5,1.9,3.8,4.6,3.8,8.1c0,2.8-1.1,5.3-3.3,7.4C831.3,244.7,828.3,246.2,824.4,247z M808.2,267.4
		c1.1,0.3,2.1,0.5,3.1,0.6c0.9,0.1,1.9,0.2,2.8,0.2c4,0,7.1-0.9,9.3-2.8c2.2-1.8,3.3-4.4,3.3-7.8c0-2.9-0.9-4.9-2.8-6.2
		s-4.9-2-9.1-2h-3.5c-0.4,2.3-0.9,4.9-1.4,7.7C809.3,260,808.7,263.4,808.2,267.4z M811.8,245.3c1,0.1,1.8,0.1,2.3,0.2
		c0.5,0,1.1,0,1.6,0c3.9,0,6.9-0.8,9-2.5c2.1-1.7,3.1-4,3.1-7.1c0-2.4-0.7-4.3-2.2-5.5c-1.5-1.3-3.6-1.9-6.4-1.9
		c-0.5,0-1.2,0-1.9,0.1c-0.8,0-1.6,0.1-2.5,0.2c-0.5,2.5-1,5-1.5,7.7C812.9,239.1,812.3,242.1,811.8,245.3z"/>
	<path class="st0" d="M859.8,254.4l-10.5,5v0.9c0,2.2,0.4,3.9,1.3,5.2c0.9,1.3,2.1,1.9,3.6,1.9c1.1,0,2.5-0.5,4.1-1.4
		c1.6-0.9,3.6-2.4,5.9-4.4l1.4,3c-3.2,3-6.1,5.3-8.5,6.7c-2.4,1.4-4.7,2.1-6.7,2.1c-2.9,0-5.2-1.1-7-3.4s-2.6-5.3-2.6-9
		c0-2.4,0.5-5.1,1.4-7.8c0.9-2.8,2.2-5.2,3.7-7.3c1.8-2.5,3.9-4.4,6.2-5.7c2.3-1.3,4.7-2,7.1-2c2.6,0,4.7,0.8,6.5,2.3
		c1.7,1.5,2.6,3.4,2.6,5.5c0,2.9-2.8,5.7-8.4,8.4L859.8,254.4z M849.4,256l0.4-0.2c7.5-3.8,11.3-6.9,11.3-9.2c0-1.1-0.4-2.1-1.2-3
		c-0.8-0.9-1.8-1.3-2.9-1.3c-1.8,0-3.3,1.2-4.7,3.6C851,248.3,850,251.7,849.4,256z"/>
	<path class="st0" d="M884.9,247.7l4.8-4.4c2.3-2.2,4-3.5,5.2-4.1c1.1-0.6,2.3-0.9,3.5-0.9c1.9,0,3.4,0.6,4.4,1.9
		c1.1,1.3,1.6,3,1.6,5.3c0,2.2-0.5,5.5-1.6,9.9c-1,4.4-1.6,7.5-1.6,9.4c0,0.7,0.1,1.2,0.3,1.5c0.2,0.3,0.5,0.5,1,0.5
		c0.3,0,0.6-0.1,1-0.3c0.4-0.2,0.8-0.4,1.1-0.8l2.2-2l1.2,2.6l-3.2,3c-1.5,1.4-2.9,2.4-4,3.1s-2.1,1-3,1c-1.5,0-2.7-0.6-3.5-1.7
		c-0.9-1.1-1.3-2.7-1.3-4.7c0-2,0.5-5.2,1.5-9.5c1-4.3,1.5-7.5,1.5-9.4c0-0.8-0.2-1.4-0.6-1.8c-0.4-0.5-0.9-0.7-1.5-0.7
		c-1.2,0-3.8,1.7-7.6,5c-0.9,0.8-1.7,1.5-2.2,1.9l-2.2,12.1c-0.4,1.8-0.6,3.2-0.8,4.3c-0.2,1.1-0.3,2.1-0.3,3l-8.8,1.7
		c1.5-6.4,2.6-11.8,3.5-16.4c0.8-4.5,1.3-7.6,1.3-9c0-1-0.2-1.7-0.5-2.2s-0.8-0.8-1.3-0.8c-0.4,0-1.5,0.5-3.2,1.5l-0.2,0.1l-1.1-2.5
		c0.6-0.4,1.5-1,2.6-1.8c3.7-2.6,6.3-3.9,7.9-3.9c1.2,0,2.2,0.6,3,1.7c0.8,1.1,1.2,2.5,1.2,4.3c0,0.5,0,1-0.1,1.6
		C885.1,246.3,885.1,247,884.9,247.7z"/>
	<path class="st0" d="M929.8,254.4l-10.5,5v0.9c0,2.2,0.4,3.9,1.3,5.2c0.9,1.3,2.1,1.9,3.6,1.9c1.1,0,2.5-0.5,4.1-1.4
		c1.6-0.9,3.6-2.4,5.9-4.4l1.4,3c-3.2,3-6.1,5.3-8.5,6.7c-2.4,1.4-4.7,2.1-6.7,2.1c-2.9,0-5.2-1.1-7-3.4s-2.6-5.3-2.6-9
		c0-2.4,0.5-5.1,1.4-7.8c0.9-2.8,2.2-5.2,3.7-7.3c1.8-2.5,3.9-4.4,6.2-5.7c2.3-1.3,4.7-2,7.1-2c2.6,0,4.7,0.8,6.5,2.3
		c1.7,1.5,2.6,3.4,2.6,5.5c0,2.9-2.8,5.7-8.4,8.4L929.8,254.4z M919.5,256l0.4-0.2c7.5-3.8,11.3-6.9,11.3-9.2c0-1.1-0.4-2.1-1.2-3
		c-0.8-0.9-1.8-1.3-2.9-1.3c-1.8,0-3.3,1.2-4.7,3.6C921,248.3,920,251.7,919.5,256z"/>
	<path class="st0" d="M947.6,243.3c-0.9,0-1.8,0-2.7,0.1c-0.9,0-1.8,0.1-2.7,0.1l0.6-3.3c1.1-0.1,2.1-0.3,3-0.6
		c0.9-0.3,1.8-0.8,2.6-1.4c1.5-6.2,4.2-11.2,8.1-14.9c3.9-3.7,8.3-5.5,13.3-5.5c2.7,0,4.9,0.6,6.7,1.7s2.7,2.6,2.7,4.2
		c0,0.6-0.1,1.2-0.4,1.7s-0.8,1-1.5,1.6l-2.1,1.6c-1.2-1.9-2.5-3.4-3.9-4.4c-1.4-1-2.9-1.5-4.5-1.5c-2.9,0-5.2,1.4-6.9,4.2
		c-1.7,2.8-2.8,7.1-3.4,12.8h1.2c3.1,0,6.2-0.2,9.4-0.6c3.2-0.4,4.8-0.6,5-0.6c1.3,0,2.4,0.4,3.1,1.1c0.7,0.8,1.1,1.9,1.1,3.3
		c0,1-0.4,3.4-1.3,7.3c-0.6,2.5-1,4.5-1.3,6c-0.5,2.5-0.9,4.4-1.1,5.7c-0.2,1.3-0.3,2.2-0.3,2.8c0,0.6,0.1,1.1,0.4,1.5
		c0.2,0.4,0.6,0.6,0.9,0.6c0.7,0,2.1-1,4.2-3l0.5-0.4l1.3,2.7c-3.3,3-5.6,4.9-6.9,5.8s-2.4,1.3-3.4,1.3c-1.5,0-2.8-0.6-3.8-1.8
		c-1-1.2-1.4-2.9-1.4-4.9c0-2.4,0.6-6,1.8-10.7c1.2-4.7,1.8-7.9,1.8-9.8c0-1.1-0.3-1.8-0.9-2.2s-1.6-0.6-3.1-0.6h-3.2l-4.5,0.1
		c-1.9,14-3.5,23.6-4.8,28.8c-1.3,5.2-2.9,9.1-4.9,11.9c-1.6,2.3-3.4,4.1-5.1,5.3s-3.7,1.7-5.7,1.7c-1.5,0-2.7-0.4-3.7-1.1
		c-1-0.7-1.5-1.6-1.5-2.7c0-0.4,0.1-0.8,0.3-1.2c0.2-0.4,0.5-0.8,1-1.3l1.7-1.6c0.9,0.9,1.7,1.6,2.4,2c0.7,0.4,1.4,0.6,2.2,0.6
		c1.9,0,3.3-1.1,4.2-3.2c1-2.1,1.8-6.3,2.5-12.4L947.6,243.3z"/>
	<path class="st0" d="M1000.5,229.5c-0.7,2.6-1.2,4.6-1.5,6c-0.4,1.5-0.6,2.8-0.9,4h1.4c1.1,0,2.3,0,3.5-0.1s2.5-0.1,3.9-0.2
		l-0.9,4.1c-0.7,0-1.5,0-2.3,0c-0.8,0-2.1,0-3.7,0h-2.6c-1,4.6-1.8,8.5-2.3,11.9c-0.6,3.4-0.8,5.9-0.8,7.5c0,1.4,0.2,2.4,0.6,3.1
		s0.9,1.1,1.6,1.1c0.4,0,1-0.3,1.9-0.9s2.3-1.8,4.2-3.5l1.3,2.8l-0.1,0.2c-5.7,5.4-9.5,8.1-11.5,8.1c-1.9,0-3.3-0.8-4.5-2.5
		s-1.7-4-1.7-6.8c0-1.9,0.3-4.6,0.9-8c0.6-3.4,1.6-7.7,2.8-12.9c-0.3,0-0.8,0-1.4,0c-0.6,0-1.1,0-1.3,0h-2.5l0.6-3
		c1.2-0.1,2.2-0.4,3.1-0.7s1.8-0.9,2.7-1.5c0.2-0.7,0.5-1.5,0.7-2.3s0.7-2,1.1-3.5L1000.5,229.5z"/>
</g>
<g>
	<path class="st0" d="M869.9,380.2c-3.1,1.6-6,2.7-8.6,3.5s-5.3,1.1-7.9,1.1c-6.5,0-11.7-2-15.7-5.9c-4-3.9-6-9.1-6-15.6
		c0-3.9,0.8-7.8,2.4-11.5c1.6-3.7,3.8-7,6.7-9.8c2.8-2.6,5.9-4.7,9.5-6.1s7.3-2.1,11.3-2.1c2.6,0,5.2,0.3,7.6,0.9
		c2.4,0.6,4.9,1.5,7.4,2.7c-0.6,2.1-1.1,4.1-1.5,6.1c-0.4,2-0.7,4-1,6l-3.2-0.4c0.1-0.6,0.1-1.1,0.2-1.5s0.1-0.7,0.1-0.8
		c0-2.5-1-4.4-3-5.7c-2-1.3-4.8-2-8.5-2c-5.5,0-9.8,2.1-13.1,6.3s-4.9,9.9-4.9,17.1c0,5.3,1.2,9.5,3.6,12.5c2.4,3,5.8,4.5,10.1,4.5
		c3.4,0,6.2-0.8,8.6-2.5c2.4-1.7,4-4,4.9-7l3,0.7c-0.5,1.8-0.9,3.5-1.3,5C870.4,377.2,870.1,378.8,869.9,380.2z"/>
	<path class="st0" d="M911.1,348.5c-1.5,7.8-2.6,13.9-3.3,18.1s-1.1,7.2-1.1,8.8c0,0.7,0.1,1.3,0.4,1.7c0.2,0.4,0.6,0.6,1.1,0.6
		c0.4,0,0.8-0.2,1.4-0.6c0.6-0.4,1.6-1.3,3.2-2.7l1.2,2.8l-2.4,2.2c-2,1.8-3.6,3.1-4.7,3.9s-2.3,1.1-3.2,1.1c-1.5,0-2.7-0.6-3.5-1.7
		s-1.2-2.8-1.2-4.9c0-0.4,0-0.8,0.1-1.4c0-0.6,0.1-1.2,0.2-1.9c-4.2,3.9-7.2,6.5-9.2,7.8c-2,1.3-3.7,1.9-5.2,1.9
		c-2,0-3.5-0.9-4.7-2.6c-1.1-1.7-1.7-4.1-1.7-7c0-3,0.5-5.8,1.4-8.6c1-2.8,2.4-5.3,4.2-7.7c2.2-2.9,4.7-5.1,7.4-6.6
		c2.7-1.6,5.4-2.4,8.2-2.4c0.9,0,1.8,0.1,2.7,0.3c0.9,0.2,1.9,0.5,2.8,0.9L911.1,348.5z M902.1,355.2c-0.8-0.6-1.6-1-2.4-1.3
		c-0.8-0.3-1.5-0.4-2.3-0.4c-2.7,0-5.1,2-7.3,5.9s-3.3,8.4-3.3,13.5c0,1.6,0.2,2.8,0.6,3.7c0.4,0.8,1.1,1.2,1.9,1.2
		c0.7,0,1.9-0.6,3.6-1.9c1.7-1.3,3.9-3.2,6.6-5.8c0.4-1.7,0.7-3.7,1.2-6C901,361.7,901.5,358.7,902.1,355.2z"/>
	<path class="st0" d="M917.4,384.3c1.5-6,2.7-11.5,3.6-16.2c0.9-4.8,1.3-8,1.3-9.7c0-0.8-0.2-1.5-0.5-1.9c-0.3-0.5-0.8-0.7-1.3-0.7
		c-0.5,0-1.6,0.6-3.4,1.7c-0.3,0.1-0.4,0.3-0.6,0.4l-1.2-2.6l0.1-0.1c5.3-3.9,8.8-5.9,10.3-5.9c1.3,0,2.3,0.5,2.9,1.4
		c0.6,0.9,1,2.3,1,4.1c0,0.8-0.1,1.9-0.2,3.1s-0.4,2.6-0.6,4.2c3.2-5.2,5.5-8.6,7.1-10.2c1.6-1.6,3-2.5,4.4-2.5c0.9,0,1.7,0.3,2.3,1
		c0.6,0.7,0.9,1.6,0.9,2.7c0,0.6-0.2,1.4-0.7,2.4c-0.4,1-1.1,2.3-2.1,3.8c-0.5-0.6-1-1.1-1.5-1.4c-0.5-0.3-1-0.5-1.5-0.5
		c-1,0-2.1,0.6-3.4,1.9s-3,3.5-5.1,6.6c-0.8,3.2-1.4,6.1-2,8.9c-0.5,2.8-0.9,5.4-1.2,7.9L917.4,384.3z"/>
	<path class="st0" d="M962.9,365.4l-10.5,5v0.9c0,2.2,0.4,3.9,1.3,5.2c0.9,1.3,2.1,1.9,3.6,1.9c1.1,0,2.5-0.5,4.1-1.4
		c1.6-0.9,3.6-2.4,5.9-4.4l1.4,3c-3.2,3-6.1,5.3-8.5,6.7c-2.4,1.4-4.7,2.1-6.7,2.1c-2.9,0-5.2-1.1-7-3.4s-2.6-5.3-2.6-9
		c0-2.4,0.5-5.1,1.4-7.8c0.9-2.8,2.2-5.2,3.7-7.3c1.8-2.5,3.9-4.4,6.2-5.7c2.3-1.3,4.7-2,7.1-2c2.6,0,4.7,0.8,6.5,2.3
		c1.7,1.5,2.6,3.4,2.6,5.5c0,2.9-2.8,5.7-8.4,8.4L962.9,365.4z M952.6,367l0.4-0.2c7.5-3.8,11.3-6.9,11.3-9.2c0-1.1-0.4-2.1-1.2-3
		c-0.8-0.9-1.8-1.3-2.9-1.3c-1.8,0-3.3,1.2-4.7,3.6C954.1,359.3,953.1,362.7,952.6,367z"/>
</g>
<g>
	<path class="st0" d="M903.6,319.3c-1.4,1.3-2.8,2.2-4.2,2.9c-1.4,0.7-2.7,1-4,1c-2.3,0-4.2-0.7-5.7-2.1c-1.5-1.4-2.2-3.2-2.2-5.3
		c0-1.8,0.6-3.3,1.7-4.5c1.1-1.2,2.8-2.2,5-2.9c-1-0.9-1.7-1.8-2.2-2.7c-0.5-0.9-0.7-1.9-0.7-2.9c0-1.8,0.7-3.3,2.1-4.5
		c1.4-1.2,3.1-1.8,5.2-1.8c1.7,0,3.1,0.5,4.2,1.4c1.1,0.9,1.6,2.1,1.6,3.6c0,1.4-0.4,2.7-1.2,3.9c-0.8,1.1-2,2.1-3.7,3l5.9,6.7
		c1.1-1.3,2.1-2.6,2.8-4c0.7-1.4,1.1-2.5,1.1-3.3c0-0.3,0-0.5-0.1-0.7c-0.1-0.2-0.2-0.3-0.4-0.4c-0.1-0.1-0.4-0.1-0.6-0.2
		c-0.3,0-0.6-0.1-1-0.1v-1.6c0.3,0,0.7,0,1.3,0.1c1.5,0.1,2.5,0.1,3,0.1c0.5,0,1,0,1.7-0.1c0.7,0,1.5-0.1,2.4-0.2v1.6h-0.6
		c-0.7,0-1.2,0.1-1.5,0.3c-0.4,0.2-0.7,0.8-1.1,1.6c-0.9,1.8-1.7,3.3-2.6,4.6c-0.9,1.3-1.8,2.4-2.8,3.4l0.8,0.9
		c1,1.1,1.8,1.8,2.4,2.2c0.6,0.4,1.2,0.6,1.9,0.6c0.5,0,1.1-0.2,1.7-0.5c0.6-0.3,1.2-0.8,1.8-1.4l1,1c-0.9,1.4-2,2.4-3.1,3.1
		c-1.1,0.7-2.3,1-3.5,1c-1,0-1.9-0.3-2.8-0.8S904.9,320.7,903.6,319.3z M902.3,317.8l-7-8.2c-1.2,0.5-2.1,1.1-2.6,1.9
		c-0.6,0.7-0.9,1.6-0.9,2.7c0,1.6,0.6,2.9,1.7,4.1c1.1,1.1,2.4,1.7,4,1.7c0.8,0,1.6-0.2,2.4-0.5C900.7,319,901.5,318.5,902.3,317.8z
		 M898.5,306.9c0.9-0.7,1.5-1.4,2-2.3c0.5-0.9,0.7-1.8,0.7-2.8c0-1-0.3-1.8-0.9-2.4c-0.6-0.6-1.4-1-2.3-1c-0.8,0-1.5,0.3-2,0.8
		c-0.5,0.5-0.8,1.2-0.8,2.1c0,0.8,0.3,1.6,0.8,2.6C896.6,304.8,897.4,305.8,898.5,306.9z"/>
</g>
</svg>
