<?xml version="1.0" encoding="utf-8"?>
<!-- Generator: Adobe Illustrator 19.0.0, SVG Export Plug-In . SVG Version: 6.00 Build 0)  -->
<svg version="1.1" id="Layer_1" xmlns="http://www.w3.org/2000/svg" xmlns:xlink="http://www.w3.org/1999/xlink" x="0px" y="0px"
	 viewBox="0 0 425 823.3" enable-background="new 0 0 425 823.3" xml:space="preserve">
<text transform="matrix(1 0 0 1 27.5298 52.4004)"><tspan x="0" y="0" fill="#304D79" font-family="'lijnen-Regular'" font-size="60px" letter-spacing="5">a</tspan><tspan x="46" y="0" fill="#304D79" font-family="'lijnen-Regular'" font-size="60px" letter-spacing="1">b</tspan><tspan x="84.4" y="0" fill="#304D79" font-family="'lijnen-Regular'" font-size="60px" letter-spacing="3">c</tspan><tspan x="133.1" y="0" fill="#304D79" font-family="'lijnen-Regular'" font-size="60px" letter-spacing="2">d</tspan><tspan x="180.4" y="0" fill="#304D79" font-family="'lijnen-Regular'" font-size="60px" letter-spacing="5">e</tspan><tspan x="224.8" y="0" fill="#304D79" font-family="'lijnen-Regular'" font-size="60px" letter-spacing="2">fg</tspan><tspan x="318.4" y="0" fill="#304D79" font-family="'lijnen-Regular'" font-size="60px">h</tspan></text>
<text transform="matrix(1 0 0 1 5.96 132.3799)"><tspan x="0" y="0" fill="#304D79" font-family="'lijnen-Regular'" font-size="60px" letter-spacing="3">ijk</tspan><tspan x="104.5" y="0" fill="#304D79" font-family="'lijnen-Regular'" font-size="60px" letter-spacing="2">l</tspan><tspan x="145.6" y="0" fill="#304D79" font-family="'lijnen-Regular'" font-size="60px" letter-spacing="4">m</tspan><tspan x="207.2" y="0" fill="#304D79" font-family="'lijnen-Regular'" font-size="60px" letter-spacing="1">N</tspan><tspan x="256.6" y="0" fill="#304D79" font-family="'lijnen-Regular'" font-size="60px" letter-spacing="2">O</tspan><tspan x="314.4" y="0" fill="#304D79" font-family="'lijnen-Regular'" font-size="60px" letter-spacing="3">P</tspan><tspan x="357.8" y="0" fill="#304D79" font-family="'lijnen-Regular'" font-size="60px">q</tspan></text>
<text transform="matrix(1 0 0 1 6.44 212.3604)"><tspan x="0" y="0" fill="#304D79" font-family="'lijnen-Regular'" font-size="60px" letter-spacing="7">r</tspan><tspan x="49.6" y="0" fill="#304D79" font-family="'lijnen-Regular'" font-size="60px" letter-spacing="4">s</tspan><tspan x="91.3" y="0" fill="#304D79" font-family="'lijnen-Regular'" font-size="60px" letter-spacing="5">t</tspan><tspan x="137.5" y="0" fill="#304D79" font-family="'lijnen-Regular'" font-size="60px" letter-spacing="3">uvwxy</tspan><tspan x="377.9" y="0" fill="#304D79" font-family="'lijnen-Regular'" font-size="60px">z</tspan></text>
<text transform="matrix(1 0 0 1 9.17 292.3398)"><tspan x="0" y="0" fill="#304D79" font-family="'lijnen-Regular'" font-size="60px" letter-spacing="4">1</tspan><tspan x="28.9" y="0" fill="#304D79" font-family="'lijnen-Regular'" font-size="60px" letter-spacing="5">2</tspan><tspan x="71.5" y="0" fill="#304D79" font-family="'lijnen-Regular'" font-size="60px" letter-spacing="2">34</tspan><tspan x="148.6" y="0" fill="#304D79" font-family="'lijnen-Regular'" font-size="60px" letter-spacing="4">5</tspan><tspan x="191.8" y="0" fill="#304D79" font-family="'lijnen-Regular'" font-size="60px" letter-spacing="3">6</tspan><tspan x="234.9" y="0" fill="#304D79" font-family="'lijnen-Regular'" font-size="60px" letter-spacing="6">7</tspan><tspan x="274.9" y="0" fill="#304D79" font-family="'lijnen-Regular'" font-size="60px" letter-spacing="4">8</tspan><tspan x="319.9" y="0" fill="#304D79" font-family="'lijnen-Regular'" font-size="60px" letter-spacing="1">9</tspan><tspan x="361.1" y="0" fill="#304D79" font-family="'lijnen-Regular'" font-size="60px">0</tspan></text>
<text id="XMLID_69_" transform="matrix(1 0 0 1 13.5498 365.6616)" fill="#304D79" font-family="'lijnen-Regular'" font-size="60px" letter-spacing="4">{!@#$%&amp;*?/}</text>
<text id="XMLID_75_" transform="matrix(1 0 0 1 194.3282 435.2391)" fill="#304D79" font-family="'lijnen-Regular'" font-size="60px" letter-spacing="4">—</text>
<text id="XMLID_70_" transform="matrix(1 0 0 1 17.4488 505.6194)" fill="#304D79" font-family="'lijnen-Regular'" font-size="60px" letter-spacing="4">АБВГДЕёЖЗ</text>
<text id="XMLID_71_" transform="matrix(1 0 0 1 3.7696 580.676)" fill="#304D79" font-family="'lijnen-Regular'" font-size="60px" letter-spacing="4">ИКЛМНОПР</text>
<text id="XMLID_72_" transform="matrix(1 0 0 1 13.2803 657.3644)" fill="#304D79" font-family="'lijnen-Regular'" font-size="60px" letter-spacing="4">СТУФХЦЧШ</text>
<text id="XMLID_73_" transform="matrix(1 0 0 1 14.5391 726.4217)" fill="#304D79" font-family="'lijnen-Regular'" font-size="60px" letter-spacing="4">ЩъЫьЭЮЯ</text>
<text id="XMLID_76_" transform="matrix(1 0 0 1 112.7285 812.5194)" fill="#304D79" font-family="'lijnen-Regular'" font-size="60px" letter-spacing="4">ÄÖÜå</text>
</svg>
