<svg viewBox="149 -355.9 425 823.3" xmlns="http://www.w3.org/2000/svg"><g fill="#304d79"><path d="m217.1-305.5v2h-14.2v-2h2.9l-4.4-12.5h-15.7l-3.5 12.5h2.9v2h-5.5-3.2v-2h3.8l10.7-38h-3.7v-2h12.3l14.1 40.1h3.5zm-16.3-14.3-8-23-6.5 23z"/><path d="m251.7-328c1.8 1.3 3.2 2.9 4.2 4.8s1.6 4 1.6 6.2c0 2.4-.6 4.6-1.8 6.7s-2.9 3.7-5.1 5c-2.2 1.2-4.6 1.9-7.3 1.9h-16.9v-2h3.6v-37.9h-3.6v-2h14.9c1.4 0 2.7.4 3.9 1.2s2.2 1.9 3 3.2c.8 1.4 1.1 2.8 1.1 4.4 0 2.4-1.2 4.5-3.5 6.1 2.2.3 4.1 1.1 5.9 2.4zm-5.2-12c-.6-1.1-1.3-1.9-2.2-2.5s-1.9-1-3-1h-4v12.4h4c1.7 0 3.2-.5 4.3-1.6 1.2-1.1 1.8-2.4 1.8-4-.1-1.1-.4-2.2-.9-3.3zm2.9 33c1.8-1 3.3-2.4 4.4-4.1s1.6-3.7 1.6-5.8c0-2.2-.5-4.3-1.6-6.1s-2.5-3.3-4.4-4.3c-1.8-1.1-3.9-1.6-6.1-1.6h-6.1v23.5h6.1c2.2-.1 4.3-.6 6.1-1.6z"/><path d="m300.3-312.6 3.9 3.8c-2 2-4.4 3.5-7.1 4.6s-5.5 1.6-8.5 1.6c-4 0-7.8-1-11.2-2.9-3.4-2-6.1-4.6-8.1-7.9s-3-6.9-3-10.9c0-3.9 1-7.5 3-10.9 2-3.3 4.7-6 8.1-7.9s7.1-2.9 11.2-2.9c3 0 5.8.5 8.5 1.6s5 2.6 7.1 4.5l-3.9 3.8-1.4-1.4 2.3-2.3c-1.8-1.4-3.7-2.4-5.8-3.1s-4.3-1.1-6.7-1.1c-2.6 0-5 .4-7.3 1.3s-4.4 2.1-6.2 3.7c-.3.3-.4.6-.4.9v27.6c0 .3.1.6.4.9 1.8 1.6 3.8 2.8 6.2 3.7 2.3.9 4.7 1.3 7.3 1.3 2.3 0 4.6-.4 6.7-1.1 2.2-.7 4.1-1.8 5.8-3.1l-2.3-2.3z"/><path d="m313.5-305.5h3.6v-37.9h-3.6v-2h16.9c4 0 7.8.9 11.2 2.8 3.4 1.8 6.1 4.4 8.1 7.6s3 6.8 3 10.7-1 7.5-3 10.7-4.7 5.7-8.1 7.5-7.1 2.8-11.2 2.8h-16.9zm16.9 0c3.7 0 7.1-.8 10.2-2.5 3.1-1.6 5.5-3.9 7.3-6.8s2.7-6.1 2.7-9.7-.9-6.8-2.7-9.7-4.3-5.2-7.3-6.8c-3.1-1.7-6.5-2.5-10.2-2.5h-6.1v37.9h6.1z"/><path d="m360.8-305.5h3.6l.1-37.9h-3.6v-2h32v8.6h-1.8v-6.6h-19.4v18h12.2v1.8h-12.2v18.1h19.4v-6.6h1.8v8.6h-32.1z"/><path d="m405.2-305.5h3.5l.1-37.9h-3.6v-2h30.5v8.6h-1.7v-6.6h-18v18h9.5v1.8h-9.5v18.1h5v2h-15.8z"/><path d="m484.3-312.2c-2.1 3-4.7 5.3-8 7s-6.8 2.6-10.5 2.6c-4 0-7.8-1-11.2-2.9-3.4-2-6.1-4.6-8.1-7.9s-3-6.9-3-10.9c0-3.9 1-7.5 3-10.9s4.7-6 8.1-7.9 7.1-2.9 11.2-2.9c2.6 0 5.2.4 7.6 1.3s4.6 2.1 6.6 3.7l-4.7 4.6-1.4-1.4 2.9-2.9c-3.4-2.1-7.1-3.2-11-3.2-2.6 0-5 .4-7.3 1.3s-4.3 2.1-6.2 3.7c-.3.3-.4.6-.4.9v27.6c0 .3.1.6.4.9 1.8 1.6 3.8 2.8 6.2 3.7 2.3.9 4.7 1.3 7.3 1.3s5-.4 7.3-1.3 4.4-2.1 6.2-3.7c.3-.3.4-.6.4-.9v-9.7h-5.4v-1.9h13.7c-.4 3.5-1.7 6.8-3.7 9.8z"/><path d="m498.8-303.5v-2h4.2v-37.9h-4.2v-2h15.9v2h-4.5v18.1h21.1v-18.1h-4.5v-2h15.9v2h-4.2v37.9h4.2v2h-15.9v-2h4.5v-18.1h-21.1v18.1h4.5v2z"/><path d="m158.9-225.3h4.2v-38.4h-4.2v-1.8h15.6v1.8h-4.2v38.4h4.2v1.8h-15.6z"/><path d="m205.7-263.5h-3.6v19.1h-.2.2c0 3.9-1 7.5-3 10.9-2 3.3-4.7 6-8.1 7.9-3.4 2-7.1 2.9-11.2 2.9v-5.6h2v3.5c2.4-.2 4.7-.9 6.9-2s4.1-2.5 5.7-4.2c.3-.3.4-.6.4-1v-12.8-18.8h-3.6v-2h14.4v2.1z"/><path d="m257.9-225.6v2h-14.8v-2h2.2l-14.5-19-4.1 3.7v15.4h3.6v2h-14.4v-2h3.6v-37.9h-3.6v-2h14.4v2h-3.6v20.1l19.4-20.1h-2.9v-2h9.1v2h-3.4l-13 14 17.8 23.9h4.2z"/><path d="m263.4-225.6h3.6v-37.9h-3.6v-2h15.3v2h-4.5v37.9h20v-6.3h2v8.3h-32.8z"/><path d="m304.2-225.6h3.6l-.4-37.9h-3.8v-2h12.5l13.3 32.3 13.5-32.3h11.2v2h-3.5v37.9h3.5v2h-14.7v-2h3.5v-35l-15.8 37.2h-1.4l-16.3-39.4v37.2h3.6v2h-8.9v-2z"/><path d="m406.5-265.5v2h-3.6v40.1h-.1l-31.1-30.5v28.3h3.6v2h-9.2v-2h3.6v-37.9h-3.6v-2h5.6l29.2 29h.1v-27h-3.6v-2z"/><path d="m461.6-244.3c0 3.9-1 7.5-3 10.8s-4.7 6-8.1 7.9c-3.4 2-7.2 2.9-11.2 2.9s-7.8-1-11.2-2.9c-3.4-2-6.1-4.6-8.1-7.9s-3-6.9-3-10.8v-.1-.1c0-3.9 1-7.5 3-10.9 2-3.3 4.7-5.9 8.1-7.9 3.4-1.9 7.1-2.9 11.2-2.9 4 0 7.8 1 11.2 2.9s6.1 4.6 8.1 7.9 3 6.9 3 10.9zm-29.6 18.3c2.3.9 4.7 1.3 7.3 1.3s5-.4 7.3-1.3 4.4-2.1 6.2-3.7c.3-.3.4-.6.4-.9v-27.6c0-.3-.1-.6-.4-.9-1.8-1.6-3.9-2.8-6.2-3.7s-4.7-1.3-7.3-1.3-5 .4-7.3 1.3-4.4 2.1-6.2 3.7c-.3.3-.4.6-.4.9v27.6c0 .3.1.6.4.9 1.8 1.7 3.9 2.9 6.2 3.7z"/><path d="m501.8-263.9c1.9 1.1 3.4 2.6 4.5 4.5s1.7 3.9 1.7 6.2-.6 4.3-1.7 6.2-2.6 3.4-4.5 4.5-3.9 1.7-6.2 1.7h-11v15.2h4.2v2h-15.6v-2h4.2v-37.9h-3.6v-2h21.8c2.3 0 4.3.5 6.2 1.6zm-6.2 21c1.8 0 3.4-.4 4.9-1.2.5-.3.8-.7 1.1-1.2s.4-1 .4-1.6v-10.9-1.8c0-.6-.1-1.2-.5-1.7-.3-.5-.7-.9-1.2-1.2-1.2-.6-2.8-1-4.7-1h-11v20.6z"/><path d="m550.4-221.6c1 .6 2.3 1 4 1h3v2h-3c-1.9 0-3.6-.4-5-1.3-1.4-.8-2.4-2-2.8-3.6-2 .6-4 .8-6.1.8-4 0-7.8-1-11.2-2.9-3.4-2-6.1-4.6-8.1-7.9s-3-6.9-3-10.8v-.1-.1c0-3.9 1-7.5 3-10.9 2-3.3 4.7-5.9 8.1-7.9 3.4-1.9 7.1-2.9 11.2-2.9 4 0 7.8 1 11.2 2.9s6.1 4.6 8.1 7.9 3 6.9 3 10.9v.1.1c0 3-.6 5.8-1.8 8.5s-2.9 5-5 7c-2.2 2-4.6 3.6-7.4 4.6.2 1.1.8 1.9 1.8 2.6zm-2.6-41.1c-2.3-.9-4.7-1.3-7.3-1.3s-5 .4-7.3 1.3-4.4 2.1-6.2 3.7c-.3.3-.4.6-.4.9v27.6c0 .3.1.6.4.9 1.7 1.5 3.5 2.6 5.5 3.4.3-1.8 1.2-3.1 2.6-4 1.5-.9 3.2-1.4 5.3-1.4s3.8.5 5.3 1.4 2.4 2.3 2.6 4c2.2-.9 4-2 5.6-3.4.3-.3.4-.6.4-.9v-27.6c0-.3-.1-.6-.4-.9-1.8-1.6-3.8-2.9-6.1-3.7zm-7.3 38c2 0 4-.3 5.9-.8-.1-1.2-.6-2.2-1.6-3s-2.4-1.2-4.3-1.2-3.3.4-4.3 1.1c-1 .8-1.5 1.7-1.6 2.9 1.8.7 3.8 1 5.9 1z"/><path d="m196.7-145.6v2h-3.6c-2 0-3.8-.8-5.1-2.3-1.4-1.5-2.1-3.5-2.1-6v-9.7c-1.3.5-2.7.7-4.1.7h-11v15.2h4.2v2h-15.6v-2h4.2v-37.9h-3.6v-2h21.8c2.2 0 4.3.6 6.2 1.7s3.4 2.6 4.5 4.5 1.6 3.9 1.6 6.2c0 2.2-.5 4.2-1.5 6s-2.4 3.3-4.2 4.4c1.3.7 2.4 1.6 3.3 2.9.9 1.2 1.4 2.8 1.4 4.6v9.7zm-15-17.3c1.8 0 3.4-.4 4.9-1.2.5-.3.8-.7 1.1-1.2s.4-1 .4-1.6v-10.9-1.8c0-.6-.1-1.2-.5-1.7-.3-.5-.7-.9-1.2-1.2-1.2-.6-2.8-1-4.7-1h-11v20.6z"/><path d="m236-162.6c1.1.8 2.1 1.8 2.9 3.1s1.2 2.8 1.2 4.6c0 2.6-.8 4.8-2.3 6.6s-3.6 3.2-6.2 4.2c-2.6.9-5.5 1.4-8.6 1.4-7.9 0-13.8-3.6-17.6-10.9l4.1-4 1.6 1.3-3.1 3.1c1.8 2.8 3.8 4.9 6.1 6.3s5.1 2.1 8.5 2.1c2.4 0 4.6-.3 6.9-.9 2.2-.6 4-1.5 5.4-2.7s2.1-2.5 2.1-3.9c0-.9-.4-1.8-1.3-2.5-.9-.8-2-1.5-3.5-2.3l-18.8-9.2c-2.2-1.2-3.8-2.4-4.8-3.6s-1.4-2.8-1.4-4.7c0-2.1.8-4.1 2.4-5.9s3.8-3.3 6.5-4.4 5.7-1.7 8.9-1.7c2.6 0 5.2.6 7.9 1.7 2.7 1.2 4.8 2.7 6.4 4.7l-3.9 3.8-1.4-1.4 2.6-2.5c-1.6-1.3-3.4-2.3-5.3-3.1-2-.8-4-1.2-6.2-1.2-2.8 0-5.3.4-7.4 1.1s-3.8 1.7-5 2.8-1.8 2.1-1.8 3 .4 1.6 1.1 2.2 1.5 1.1 2.4 1.6 1.4.8 1.7.9l16 7.8c1.4 1 2.8 1.8 3.9 2.6z"/><path d="m285.5-176.4v-7.2l-14.8.1v37.9h3.6v2h-14.4v-2h3.6v-37.9l-14.8-.1v7.2h-2v-9.2h40.8v9.2z"/><path d="m341.1-183.5h-3.6v20.9c0 4.2-.9 7.7-2.8 10.7s-4.3 5.3-7.2 6.8-6 2.3-9.3 2.4c-3.2 0-6.3-.8-9.3-2.4-2.9-1.5-5.3-3.8-7.2-6.8s-2.8-6.6-2.8-10.7v-20.9h-3.6v-2h10.8 3.6v2h-3.6v33.4.1c0 .3.1.6.4.8 1.6 1.4 3.4 2.5 5.4 3.3s4.1 1.2 6.3 1.2 4.3-.4 6.3-1.2 3.8-1.9 5.4-3.3c.3-.3.4-.6.4-1v-33.4h-3.6v-2h14.4z"/><path d="m389.3-183.5h-4.1l-12.5 40.4h-7.7l-14.9-40.4h-4.2v-2h14.8v2h-2.7l13.7 37.6 11.8-37.6h-2.9v-2h8.8v2z"/><path d="m458.3-183.5h-4.1l-12.5 40.3h-7.8l-8.9-24.4-7.6 24.4h-7.8l-14.8-40.3h-4.2v-2h14.8v2h-2.6l13.7 37.6 7.6-24.4-4.9-13.1h-4.2v-2h14.8v2h-2.8l13.7 37.6 11.8-37.6h-2.9v-2h8.8v1.9z"/><path d="m495.7-145.6v2h-11.2-4.7v-2h3.5l-9.4-16.1-10.2 16.1h4.6v2h-8-3.3v-2h4.6l11.3-17.8-11.8-20.1h-4v-2h11.1 4.8v2h-3.6l9.2 15.8 10-15.8h-4.5v-2h7.9 3.4v2h-4.7l-11 17.5 11.9 20.5h4.1z"/><path d="m518.5-163.9v18.3h3.6v2h-10.8-3.6v-2h3.6v-19l-11.1-19h-3.8v-2h14.1v2h-3.1l10.3 17.5 9.6-17.5h-3.1v-2h8.6v2h-3.5z"/><path d="m535.1-145.6 23.9-37.9h-21.8v3.6h-2.2v-5.6h31.6v2l-23.9 37.9h22v-3.6h1.9v5.6h-31.6v-2z"/><path d="m179-65.6v2h-14.4v-2h3.6v-36.6l-5 3.8-2-1.3 7-5.8h7.2v40h3.6z"/><path d="m201.6-76.3c-1.7 1.5-3.1 3.4-4 5.5h23.3v7.2h-26.4v-1.5c0-2.4.6-4.8 1.7-7.2 1.2-2.4 2.7-4.3 4.6-5.9s4-2.4 6.3-2.5c2.8 0 5.3-.7 7.5-2.2v-19.5c-2.2-1.5-4.7-2.2-7.5-2.2-4.2 0-8.3 1.8-12.4 5.5l2 2.5-1.3 1.6-3.6-4.1c1.8-2.3 4.1-4.1 6.8-5.4s5.5-2 8.5-2c2.7 0 5.1.6 7.4 1.9 2.2 1.2 4 2.9 5.3 5s2 4.4 2 7v.1c0 2.5-.7 4.9-1.9 7-1.3 2.1-3.1 3.8-5.3 5.1-2.2 1.2-4.7 1.9-7.4 1.9-2-.1-3.9.7-5.6 2.2zm17-10.9-.8 1.3c.3-.3.5-.8.8-1.3z"/><path d="m257-82.2c1.4 2 2.1 4.3 2.1 6.9 0 2.3-.6 4.4-1.6 6.4-1.1 1.9-2.6 3.4-4.6 4.6-1.9 1.1-4.2 1.7-6.6 1.7-3 0-5.9-.6-8.6-1.9s-5-3-6.8-5.2l3.6-4.1 1.3 1.6-2.1 2.4c1.8 1.6 3.8 2.9 5.9 3.8s4.4 1.4 6.7 1.4c2.6 0 4.9-.8 6.9-2.3v-16.2c-1.9-1.5-4.2-2.2-6.9-2.2h-.1v-2h.1c1.9 0 3.6-.4 5-1.3v-14c-1.4-.9-3.1-1.4-5-1.4-1.4 0-2.8.3-4 .9l1.8 2.5-1.4 1.4-3.3-4.4c1-.8 2-1.4 3.2-1.8s2.4-.6 3.7-.6c2 0 3.9.5 5.6 1.4s3 2.2 4 3.8 1.4 3.3 1.4 5.2c0 2-.5 3.8-1.6 5.5-1.1 1.6-2.5 2.9-4.3 3.8 2.3.6 4.2 2.1 5.6 4.1z"/><path d="m291.9-76.7v11.1h3.6v2h-14.4v-2h3.6v-11.1h-18.6v-2l18.6-26.8h7.2v26.8h7v2zm-7.2-2v-23.9l-16.6 23.9z"/><path d="m332.5-88.7c2.2 1.2 4 2.9 5.3 5.1 1.3 2.1 2 4.5 2 7s-.7 4.9-2 7-3.1 3.8-5.3 5.1-4.7 1.9-7.4 1.9c-3 0-5.8-.7-8.5-2s-5-3.1-6.8-5.4l3.6-4.1 1.3 1.6-2 2.5c4.1 3.6 8.2 5.5 12.4 5.5 2.8 0 5.3-.7 7.5-2.2v-19.5c-2.2-1.5-4.8-2.2-7.6-2.2-3 0-5.6.9-7.9 2.6l-2-.5v-19h24.6v7.2h-22.6v10c2.4-1.5 5-2.2 8-2.2 2.7-.3 5.2.4 7.4 1.6z"/><path d="m378-88.7c2.2 1.2 4 2.9 5.3 5.1 1.3 2.1 1.9 4.5 1.9 7s-.7 4.9-1.9 7c-1.3 2.1-3.1 3.8-5.3 5.1s-4.7 1.9-7.4 1.9-5.1-.6-7.4-1.9c-2.2-1.3-4-3-5.3-5.1s-2-4.5-2-7v-15.7c0-2.5.6-4.8 2-7 1.3-2.1 3.1-3.8 5.3-5s4.7-1.9 7.4-1.9c2.8 0 5.2.5 7.4 1.6s4 2.5 5.3 4.3l-3.9 3.8-1.4-1.4 2.6-2.6c-1.2-1.2-2.7-2.2-4.3-2.9-1.7-.7-3.6-1-5.7-1-2.7 0-5.2.7-7.4 2.2v13.4c2.3-1.3 4.8-1.9 7.4-1.9 2.7.1 5.2.8 7.4 2zm.1 21.8v-19.5c-2.2-1.5-4.8-2.2-7.6-2.2-2.7 0-5.2.7-7.4 2.2v19.5c2.2 1.5 4.6 2.3 7.4 2.3 2.9-.1 5.4-.8 7.6-2.3z"/><path d="m409.2-63.6h-7.7l13.7-40.1h-22.1v-1.9h30.4z"/><path d="m468.7-80.8c1 1.9 1.6 3.8 1.6 5.6 0 2.1-.7 4.2-2.2 6.1s-3.5 3.5-6 4.7c-2.6 1.2-5.4 1.8-8.6 1.8s-6.1-.6-8.6-1.8-4.5-2.8-6-4.7c-1.4-1.9-2.2-4-2.2-6.1 0-1.6.6-3.2 1.7-5 1.2-1.8 2.7-3.3 4.5-4.7-1.4-1.2-2.5-2.7-3.3-4.3s-1.1-3.2-1.1-4.8c0-2 .6-3.9 1.9-5.8s3.1-3.4 5.4-4.6 5.1-1.8 8.2-1.8 5.7.6 7.8 1.8 3.6 2.7 4.6 4.6 1.5 3.8 1.5 5.8c0 1.4-.3 2.9-1 4.4s-1.6 2.8-2.8 4c2 1.3 3.5 2.9 4.6 4.8zm-8 14.7c2.2-1 3.8-2.3 5-3.9s1.8-3.3 1.8-5.1c0-2.3-1.2-3.9-3.6-4.8s-5.9-1.4-10.5-1.4c-3.3 0-6.2-.8-8.8-2.3-1.8 1.2-3.2 2.5-4.3 4s-1.7 3-1.7 4.4c0 1.8.6 3.5 1.9 5.1s3.1 3 5.3 4c2.3 1 4.7 1.5 7.5 1.5s5.3-.5 7.4-1.5zm-16.7-23.5c2 .7 5.1 1.1 9.4 1.1 3.4 0 6.4.6 9 1.9 1-1.1 1.9-2.3 2.5-3.6s.9-2.6.9-3.8c0-1.6-.4-3.2-1.3-4.8s-2.2-2.8-4-3.8-4-1.5-6.6-1.5-4.9.5-6.9 1.5c-1.9 1-3.4 2.3-4.4 3.8-1 1.6-1.5 3.2-1.5 4.8 0 2.3 1 3.7 2.9 4.4z"/><path d="m504.3-104.3c2.2 1.3 4 3 5.3 5.1s2 4.5 2 7v15.7c0 2.5-.7 4.8-2 7-1.3 2.1-3.1 3.8-5.3 5s-4.7 1.9-7.4 1.9c-2.8 0-5.2-.5-7.4-1.6s-4-2.5-5.3-4.3l3.9-3.8 1.4 1.4-2.6 2.6c1.2 1.2 2.6 2.2 4.3 2.9s3.6 1 5.7 1c2.7 0 5.2-.7 7.4-2.2v-13.4c-2.3 1.3-4.8 1.9-7.4 1.9-2.7 0-5.2-.6-7.4-1.9-2.2-1.2-4-2.9-5.3-5.1-1.3-2.1-1.9-4.5-1.9-7s.6-4.8 1.9-7c1.3-2.1 3.1-3.8 5.3-5.1s4.7-1.9 7.4-1.9c2.7-.1 5.2.6 7.4 1.8zm.1 21.9v-19.5c-2.2-1.5-4.6-2.3-7.4-2.3s-5.4.8-7.6 2.3v19.5c2.2 1.5 4.8 2.2 7.6 2.2s5.2-.7 7.4-2.2z"/><path d="m551.3-103.4c2.9 1.8 5.2 4.3 6.9 7.6s2.6 7.1 2.6 11.4c0 4.2-.9 8-2.6 11.3s-4 5.9-6.9 7.7-6 2.7-9.4 2.7-6.5-.9-9.3-2.7-5-4.4-6.7-7.7-2.5-7.1-2.5-11.4.8-8.1 2.5-11.4c1.6-3.3 3.9-5.8 6.7-7.6s5.9-2.7 9.3-2.7c3.4.1 6.5 1 9.4 2.8zm-9.4 38.7c1.9 0 3.8-.3 5.5-1 1.7-.6 3.3-1.6 4.7-2.8.1-.2.2-.4.2-.6v-30.7c0-.2-.1-.4-.2-.6-1.4-1.2-3-2.1-4.7-2.8-1.7-.6-3.6-1-5.5-1-3.6 0-6.8 1.1-9.5 3.3v.1c-.3.3-.4.6-.4.9v30.9c0 .3.1.6.4.9h-.2c2.7 2.2 6 3.4 9.7 3.4z"/><path d="m169.6-13.4c-.6.9-1.4 1.7-2.5 2.2 1 .5 1.9 1.3 2.5 2.2s.9 2 .9 3.3v19.1c0 2 .4 3.5 1.3 4.5.8 1 1.9 1.5 3.2 1.5v2c-2.1 0-3.7-.8-4.9-2.3-1.1-1.5-1.7-3.4-1.7-5.7v-19.1c0-1.3-.5-2.4-1.5-3.2s-2.5-1.3-4.5-1.3v-2c2 0 3.5-.4 4.5-1.3 1-.8 1.5-1.9 1.5-3.2v-19.1c0-2.2.6-4.1 1.7-5.7 1.1-1.5 2.7-2.3 4.9-2.3v2c-1.3 0-2.4.5-3.2 1.5s-1.3 2.5-1.3 4.5v19.1c0 1.2-.3 2.3-.9 3.3z"/><path d="m185.5 9.5c-.8-.8-1.1-1.7-1.1-2.8s.4-2 1.1-2.8c.8-.8 1.7-1.1 2.8-1.1s2 .4 2.8 1.1c.8.8 1.1 1.7 1.1 2.8s-.4 2-1.1 2.8c-.8.8-1.7 1.1-2.8 1.1-1.1.1-2-.3-2.8-1.1zm6.4-42.3-2.7 31.2h-2l-2.5-31.2z"/><path d="m223.4-13.1c2.5-1.2 5.5-1.8 9-1.8v-7.3c-1.2-.5-2.5-.8-3.7-.8-2.1 0-3.9.7-5.6 2l2.5 2.5-1.4 1.4-3.9-3.8c1-1.2 2.2-2.2 3.7-3 1.5-.7 3-1.1 4.7-1.1 1.9 0 3.7.5 5.4 1.5s3 2.3 4 4 1.5 3.5 1.5 5.4v14c1.2 0 2.4-.3 3.8-1 1.4-.6 2.6-1.8 3.6-3.5s1.6-3.9 1.6-6.6c0-3.1-.7-6.2-2.1-9.1-1.4-3-3.5-5.4-6.2-7.3s-6.1-2.9-9.9-2.9-7.3.9-10.6 2.8-5.9 4.4-7.8 7.6-2.9 6.6-2.9 10.3 1 7.2 2.9 10.3c1.9 3.2 4.5 5.7 7.8 7.6s6.8 2.8 10.7 2.8c2.5 0 4.9-.4 7.2-1.2s4.4-2 6.2-3.5l1.6 1.4c-2 1.7-4.3 3-6.9 4-2.6.9-5.2 1.4-8 1.4-4.3 0-8.2-1-11.8-3.1s-6.4-4.8-8.5-8.3-3.1-7.3-3.1-11.4 1.1-7.9 3.1-11.4c2.1-3.5 4.9-6.2 8.5-8.3 3.6-2 7.4-3.1 11.6-3.1 4.3 0 8 1 11.1 3.2 3.1 2.1 5.4 4.8 6.9 8.1s2.3 6.6 2.3 10c0 3.1-.6 5.6-1.8 7.6s-2.7 3.4-4.4 4.3-3.3 1.3-4.8 1.3h-7.2c-2.5 0-4.6-.2-6.4-.5s-3.3-1.1-4.5-2.4-1.9-3.2-1.9-5.8c0-2.9 1.2-5.1 3.7-6.3zm9 .2c-2.2 0-3.9.3-5.1 1-.5.3-.9.7-1.2 1.2s-.4 1.1-.4 1.7v3.1 1.9c0 .6.1 1.1.4 1.6s.6.9 1.1 1.2c.7.4 1.5.7 2.5.9.9.2 1.9.3 2.8.3v-12.9z"/><path d="m287-15.2-3.8 10.5h8.3v2h-9l-2.6 7.1-1.9-.9 2.3-6.2h-10.3l-2.6 7.1-1.9-.9 2.3-6.2h-7.4v-2h8.1l3.8-10.5h-8v-2h8.8l3.2-8.9 1.8.9-2.9 8h10.3l3.2-8.9 1.8.9-2.9 8h7.7v2zm-2.1 0h-10.3l-3.8 10.5h10.2z"/><path d="m331.7 6.3c-2.3 2-5.3 3.4-9 4v4.9h-2v-4.7c-1.1.1-2 .1-2.6.1-.9 0-1.5 0-1.9-.1v4.6h-2v-4.9c-6-1-10.5-4.5-13.7-10.5l4.1-4 1.6 1.3-3.1 3.1c1.5 2.3 3.1 4.1 4.8 5.5s3.8 2.3 6.2 2.7v-18.4l-5.7-2.8c-2.2-1.2-3.8-2.4-4.8-3.6s-1.4-2.8-1.4-4.7c0-2.5 1.1-4.8 3.4-6.8 2.2-2.1 5.1-3.5 8.6-4.4v-6.4h2v5.9c1.4-.2 2.7-.3 3.8-.3h.7v-5.6h2v5.9c2.2.4 4.3 1.1 6.4 2.2s3.8 2.4 5.1 4.1l-3.9 3.8-1.4-1.4 2.6-2.5c-2.7-2.2-5.6-3.5-8.8-4.1v17.1l4.1 2c1.7.8 3.1 1.7 4.2 2.5s2.1 1.8 2.9 3.1 1.2 2.8 1.2 4.6c0 3.1-1.1 5.7-3.4 7.8zm-17.7-24.3v-12.5c-2.5.6-4.5 1.6-6.1 2.8-1.5 1.2-2.3 2.4-2.3 3.5 0 .9.4 1.6 1.1 2.2s1.5 1.1 2.4 1.6 1.4.8 1.7.9zm2-12.8v13.9l4.6 2.2v-16.4h-.7c-1.3 0-2.6.1-3.9.3zm4.6 39.3v-15.4l-4.6-2.2v17.7c.4 0 1 .1 1.9.1.6-.1 1.5-.1 2.7-.2zm8.6-3c1.8-1.2 2.6-2.7 2.6-4.4 0-.9-.4-1.8-1.3-2.5-.9-.8-2-1.5-3.5-2.3l-4.4-2.2v14c2.7-.5 4.9-1.4 6.6-2.6z"/><path d="m367.3-36.7c2.1 1.2 3.8 2.9 5 5s1.8 4.4 1.8 6.8-.6 4.7-1.8 6.8-2.9 3.8-5 5-4.4 1.8-6.8 1.8-4.7-.6-6.8-1.8-3.8-2.9-5-5-1.8-4.4-1.8-6.8.6-4.7 1.8-6.8 2.9-3.8 5-5 4.4-1.8 6.8-1.8 4.7.6 6.8 1.8zm-6.8 23.8c2.2 0 4.2-.6 6.1-1.7.6-.5.8-1.1.8-1.9v-8.5-8c0-.9-.4-1.6-1.1-2.2-1.8-1-3.8-1.5-5.9-1.5-2 0-3.8.4-5.5 1.3-.9.6-1.3 1.4-1.3 2.4v8.5 8c0 .8.3 1.5.9 2 1.9 1 3.9 1.6 6 1.6zm9.2 27.3 19.2-58.1h-2.5l-19.3 58.1zm31.6-26.3c2.1 1.2 3.7 2.9 5 5 1.2 2.1 1.8 4.4 1.8 6.8 0 2.5-.6 4.8-1.8 6.8-1.2 2.1-2.9 3.7-5 4.9s-4.4 1.8-6.8 1.8-4.7-.6-6.8-1.8-3.7-2.9-5-4.9-1.8-4.3-1.8-6.8.6-4.8 1.8-6.8 2.9-3.7 4.9-5c2.1-1.2 4.3-1.8 6.8-1.8 2.6 0 4.9.6 6.9 1.8zm-6.8 23.7c2.2 0 4.3-.6 6.2-1.7.5-.6.8-1.3.8-2v-8.5-7.9c0-1-.4-1.7-1.1-2.2-1.8-1-3.7-1.6-5.9-1.6-2 0-3.8.5-5.5 1.4-.4.2-.7.6-1 1-.2.4-.4.9-.4 1.4v8.5 7.9c0 .8.3 1.5.9 2 1.9 1.2 3.9 1.7 6 1.7z"/><path d="m450.1.4c-.7 1.8-1.6 3.4-2.8 4.8l2.9 4.6h-7.2l-.5-.8c-2.2 1.2-4.6 1.7-7.2 1.7-3 0-5.8-.7-8.2-2.2-2.5-1.4-4.5-3.4-5.9-5.9-1.5-2.5-2.2-5.2-2.2-8.2 0-2.4.6-4.8 1.9-7.2 1.3-2.3 2.8-4.3 4.7-5.7-.2-.9-.3-1.8-.3-2.6 0-2.2.5-4.3 1.6-6.2s2.6-3.4 4.4-4.5c1.9-1.1 3.9-1.7 6.2-1.7 1.6 0 3.1.3 4.6.9s2.7 1.4 3.9 2.5l-.2.1-3.8 3.7-1.4-1.4 2.3-2.3c-1.7-1-3.5-1.4-5.3-1.4-2 0-3.9.6-5.6 1.7s-2.9 2.6-3.7 4.4l17.9 28.6c2-2.6 3-5.4 3.1-8.6l2 .1c-.1 2-.5 3.8-1.2 5.6zm-8.7 6.9-13.7-20.9c-.1-.1-.3-.5-.8-1.1v-.1l-.6-1.2c-1.6 1.3-2.9 2.8-3.8 4.7-.9 1.8-1.4 3.8-1.4 5.9 0 2.5.6 4.9 2 7 1.3 2.2 3 3.9 5.2 5.2s4.5 2 7.1 2c2-.1 4-.5 6-1.5zm-14.1-28.3v.4l.2-2.5c-.2.7-.2 1.4-.2 2.1z"/><path d="m468.3-31.3 4.3 4.7-3.2 1.9-2.6-5.3-2.2 5.3-3.2-1.9 3.9-4.7-6.7-1.2 1.4-3.5 5.9 3.1-1.1-6.2h3.7l-.8 6.3 6-3.2 1.3 3.5z"/><path d="m504-31.6c2.1 1.2 3.8 2.8 5 4.8s1.8 4.2 1.8 6.5c0 1.4-.4 2.8-1.1 3.9-.7 1.2-1.6 2.2-2.6 3.1s-2.4 1.9-4.1 3.2c-1.7 1.2-3 2.2-3.8 3s-1.2 1.6-1.2 2.4v3.2h-2v-3.2c0-1.2.5-2.3 1.4-3.3s2.5-2.2 4.5-3.6l1.8-1.3v-16.6c-2-1.2-4.2-1.8-6.6-1.8-1.6 0-3.1.3-4.5.8-1.4.6-2.6 1.3-3.6 2.3l2.6 2.6-1.4 1.4-3.9-3.8c1.3-1.7 2.9-3 4.7-4 1.9-1 3.9-1.4 6.1-1.4 2.5 0 4.8.6 6.9 1.8zm-4.6 36.8c.8.8 1.1 1.7 1.1 2.8s-.4 2-1.1 2.8c-.8.8-1.7 1.1-2.8 1.1s-2-.4-2.8-1.1c-.8-.8-1.1-1.7-1.1-2.8s.4-2 1.1-2.8c.8-.8 1.7-1.1 2.8-1.1s2.1.3 2.8 1.1z"/><path d="m520 15.6 19.3-58.1h2.5l-19.2 58.1z"/><path d="m553.7-13.5c1 .8 2.5 1.3 4.5 1.3v2c-2 0-3.5.4-4.5 1.3-1 .8-1.5 1.9-1.5 3.2v19.1c0 2.2-.6 4.1-1.7 5.7-1.1 1.5-2.7 2.3-4.9 2.3v-2c1.3 0 2.4-.5 3.2-1.5s1.3-2.5 1.3-4.5v-19.1c0-1.3.3-2.4.9-3.3s1.4-1.7 2.5-2.2c-1-.5-1.9-1.2-2.5-2.2-.6-.9-.9-2-.9-3.3v-19.1c0-2-.4-3.5-1.3-4.5-.8-1-1.9-1.5-3.2-1.5v-2c2.1 0 3.7.8 4.9 2.3 1.1 1.5 1.7 3.4 1.7 5.7v19.1c0 1.3.5 2.3 1.5 3.2z"/><path d="m376.2 60.8h-29.3v-1.8h29.3z"/><path d="m207 147.7v2h-14.2v-2h2.9l-4.4-12.5h-15.7l-3.5 12.5h2.9v2h-5.5-3.2v-2h3.8l10.7-38h-3.7v-2h12.3l14.1 40.1h3.5zm-16.3-14.3-8-23-6.5 23z"/><path d="m240.6 123.9c2.5 1.2 4.3 2.8 5.7 4.9 1.3 2.1 2 4.6 2 7.3 0 2.4-.6 4.6-1.8 6.7s-2.9 3.7-5.1 5c-2.2 1.2-4.6 1.9-7.3 1.9h-16.9v-2h3.6v-37.9h-3.6v-2h25.8 1.8v8.6h-1.8v-6.6h-14.9v12.4h4c3.2 0 6.1.6 8.5 1.7zm-.4 22.3c1.8-1 3.3-2.4 4.4-4.1s1.6-3.7 1.6-5.8c0-2.2-.5-4.3-1.6-6.1s-2.5-3.3-4.4-4.3c-1.8-1.1-3.9-1.6-6.1-1.6h-6.1v23.5h6.1c2.3-.1 4.3-.6 6.1-1.6z"/><path d="m283.2 125.3c1.8 1.3 3.2 2.9 4.2 4.8s1.6 4 1.6 6.2c0 2.4-.6 4.6-1.8 6.7s-2.9 3.7-5.1 5c-2.2 1.2-4.6 1.9-7.3 1.9h-16.9v-2h3.6v-37.9h-3.6v-2h14.9c1.4 0 2.7.4 3.9 1.2s2.2 1.9 3 3.2c.8 1.4 1.1 2.8 1.1 4.4 0 2.4-1.2 4.5-3.5 6.1 2.2.2 4.1 1.1 5.9 2.4zm-5.2-12c-.6-1.1-1.3-1.9-2.2-2.5s-2-1-3-1h-4v12.4h4c1.7 0 3.2-.5 4.3-1.6 1.2-1.1 1.8-2.4 1.8-4-.1-1.2-.4-2.3-.9-3.3zm2.9 32.9c1.8-1 3.3-2.4 4.4-4.1s1.6-3.7 1.6-5.8c0-2.2-.5-4.3-1.6-6.1s-2.5-3.3-4.4-4.3c-1.8-1.1-3.9-1.6-6.1-1.6h-6.1v23.5h6.1c2.2-.1 4.3-.6 6.1-1.6z"/><path d="m298 147.7h3.5l.1-37.9h-3.6v-2h30v8.6h-1.8v-6.6h-17.3l-.1 37.9h5v2h-15.8z"/><path d="m371 147.7v5.9h-2v-3.9h-33-3.5v3.9h-2v-5.9h6.1l9.9-38h-3.6v-2h11.9l11.9 40.1h4.3zm-32.7 0h20.5l-10.8-37.4z"/><path d="m381.8 147.7h3.6l.1-37.9h-3.6v-2h32v8.6h-1.8v-6.6h-19.4v18h12.2v1.8h-12.2v18.1h19.4v-6.6h1.8v8.6h-32.1z"/><path d="m427.2 147.7h3.6l.1-37.9h-3.6v-2h32v8.6h-1.8v-6.6h-19.4v18h12.2v1.8h-12.2v18.1h19.4v-6.6h1.8v8.6h-32.1zm7.2-45.2c-.7-.7-1.1-1.6-1.1-2.7 0-1 .4-1.9 1.1-2.7s1.6-1.1 2.7-1.1 1.9.4 2.7 1.2c.7.8 1.1 1.7 1.1 2.7s-.4 1.9-1.1 2.6-1.6 1.1-2.7 1.1-1.9-.4-2.7-1.1zm12.3 0c-.7-.7-1.1-1.6-1.1-2.7 0-1 .4-1.9 1.1-2.7s1.6-1.1 2.7-1.1 1.9.4 2.7 1.1 1.1 1.6 1.1 2.7c0 1-.4 1.9-1.1 2.7-.7.7-1.6 1.1-2.7 1.1s-1.9-.4-2.7-1.1z"/><path d="m529.1 147.7v2h-14.8v-2h2.2l-13.3-19-1.7 1.8v17.2h3.6v2h-14.4v-2h3.6v-17.2l-1.7-1.8-13.3 19h2.2v2h-14.8v-2h4.1l16.6-23.9-11.8-14h-3.4v-2h9.1v2h-2.9l15.8 17.8v-17.8h-3.6v-2h14.4v2h-3.6v17.8l15.8-17.8h-2.9v-2h9.1v2h-3.4l-11.8 14 16.6 23.9z"/><path d="m558.1 131.1c1.4 2 2.1 4.3 2.1 6.9 0 2.3-.6 4.4-1.7 6.4-1.1 1.9-2.6 3.4-4.6 4.6-1.9 1.1-4.2 1.7-6.6 1.7-3 0-5.9-.6-8.6-1.9s-5-3-6.8-5.2l4.2-3.5 1.3 1.6-2.5 2c1.8 1.5 3.8 2.7 5.8 3.6 2.1.9 4.3 1.4 6.5 1.4 2.6 0 4.9-.8 6.9-2.3v-16.4c-1.9-1.5-4.2-2.2-6.9-2.2h-.1v-2h.1c1.9 0 3.6-.4 5-1.3v-14c-1.4-.9-3.1-1.4-5-1.4-1.3 0-2.5.2-3.7.7l2.1 2.1-1.4 1.4-3.9-3.8c1-.8 2-1.4 3.2-1.8s2.4-.6 3.7-.6c2 0 3.9.5 5.6 1.4s3 2.2 4 3.8 1.4 3.3 1.4 5.2c0 2-.5 3.8-1.6 5.5-1.1 1.6-2.5 2.9-4.3 3.8 2.5.8 4.4 2.3 5.8 4.3z"/><path d="m195.9 222.7v2h-9.2v-2h3.6v-28.3l-29.9 30.3h-.1v-40h-3.6v-2h9.2v2h-3.6v27h.1l29.8-29h.2v40z"/><path d="m249 222.7v2h-14.8v-2h2.1l-10.9-19c-2.4.8-4.7 1.3-7 1.4v17.6h3.6v2h-14.4v-2h3.6v-37.9h-3.6v-2h14.4v2h-3.6v18.3c3.4-.2 6.5-1.1 9.3-2.7 2.8-1.7 5.1-3.9 6.8-6.6s2.7-5.7 3-9h-2.5v-2h9.1v2h-4.4c-.2 3.1-1 6-2.5 8.6-1.4 2.7-3.4 5-5.8 6.8l13.3 22.4h4.3z"/><path d="m297.7 222.7v2h-13.7v-2h2.8l-12.7-37.3-10.3 37.3h2.9v2h-5.3-3.1v-2h3.7l10.5-38h-3.6v-2h11.9l13.7 40.1h3.2z"/><path d="m307.7 222.7h3.6l-.4-37.9h-3.8v-2h12.5l13.3 32.3 13.5-32.3h11.2v2h-3.5v37.9h3.5v2h-14.7v-2h3.5v-35l-15.8 37.2h-1.4l-16.2-39.4v37.2h3.6v2h-8.9z"/><path d="m372.4 224.8v-2h4.2v-37.9h-4.2v-2h15.9v2h-4.5v18.1h21.1v-18.1h-4.5v-2h15.9v2h-4.3v37.9h4.2v2h-15.9v-2h4.5v-18.1h-21.1v18.1h4.5v2z"/><path d="m474.1 204c0 3.9-1 7.5-3 10.8s-4.7 6-8.1 7.9c-3.4 2-7.2 2.9-11.2 2.9s-7.8-1-11.2-2.9c-3.4-2-6.1-4.6-8.1-7.9s-3-6.9-3-10.8v-.1-.1c0-3.9 1-7.5 3-10.9 2-3.3 4.7-5.9 8.1-7.9 3.4-1.9 7.1-2.9 11.2-2.9s7.8 1 11.2 2.9 6.1 4.6 8.1 7.9 3 6.9 3 10.9zm-29.6 18.3c2.3.9 4.7 1.3 7.3 1.3s5-.4 7.3-1.3 4.4-2.1 6.2-3.7c.3-.3.4-.6.4-.9v-27.6c0-.3-.1-.6-.4-.9-1.8-1.6-3.9-2.8-6.2-3.7s-4.7-1.3-7.3-1.3-5 .4-7.3 1.3-4.3 2.1-6.1 3.7c-.3.3-.4.6-.4.9v27.6c0 .3.1.6.4.9 1.8 1.6 3.8 2.9 6.1 3.7z"/><path d="m526.4 184.8v37.9h4.2v2h-15.9v-2h4.5v-37.9h-21.1v37.9h4.5v2h-15.9v-2h4.2v-37.9h-4.2v-2h11.4 23.6 8.9v2z"/><path d="m574 184.4c1.9 1.1 3.4 2.6 4.5 4.5s1.7 3.9 1.7 6.2-.6 4.3-1.7 6.2-2.6 3.4-4.5 4.5-3.9 1.7-6.2 1.7h-11v15.2h4.2v2h-15.6v-2h4.2v-37.9h-3.6v-2h21.8c2.2 0 4.3.5 6.2 1.6zm-6.2 21c1.8 0 3.4-.4 4.9-1.2.5-.3.8-.7 1.1-1.2s.4-1 .4-1.6v-10.9-1.8c0-.6-.1-1.2-.4-1.7s-.7-.9-1.2-1.2c-1.2-.6-2.8-1-4.7-1h-11v20.6z"/><path d="m201.6 292.3 3.9 3.8c-2 2-4.4 3.5-7.1 4.6s-5.5 1.6-8.5 1.6c-4 0-7.8-1-11.2-2.9-3.4-2-6.1-4.6-8.1-7.9s-3-6.9-3-10.9c0-3.9 1-7.5 3-10.9 2-3.3 4.7-6 8.1-7.9s7.1-2.9 11.2-2.9c3 0 5.8.5 8.5 1.6s5 2.6 7.1 4.5l-3.9 3.8-1.4-1.4 2.3-2.3c-1.8-1.4-3.7-2.4-5.8-3.1s-4.3-1.1-6.7-1.1c-2.6 0-5 .4-7.3 1.3s-4.4 2.1-6.2 3.7c-.3.3-.4.6-.4.9v27.6c0 .3.1.6.4.9 1.8 1.6 3.8 2.8 6.2 3.7 2.3.9 4.7 1.3 7.3 1.3 2.3 0 4.6-.4 6.7-1.1 2.2-.7 4.1-1.8 5.8-3.1l-2.3-2.3z"/><path d="m253.7 268.6v-7.2l-14.8.1v37.9h3.6v2h-14.4v-2h3.6v-37.9l-14.8-.1v7.2h-2v-9.2h40.8v9.2z"/><path d="m294.8 261.5-18 37.9h3.7v2h-6.5-3.1v-2h4.1l6.2-13-16.4-25h-3.8v-2h15.6v2h-3.6l11.6 17.4 8.3-17.4h-3.8v-2h6.6 3.1v2h-4z"/><path d="m346.2 289.9c-1.3 2.2-3.3 3.7-5.9 4.5s-6.2 1.2-10.8 1.3v4h3.6v1.8h-14.4v-1.8h3.6v-3.9c-4.7-.1-8.4-.6-11-1.3-2.7-.8-4.7-2.3-6-4.5s-2-5.4-2-9.7.7-7.5 2-9.8c1.4-2.3 3.4-3.8 6.1-4.7s6.3-1.3 10.9-1.5v-3.1h-3.6v-1.8h14.4v1.8h-3.6v3.1c4.5.1 8.1.6 10.7 1.5s4.6 2.5 5.9 4.7c1.3 2.3 2 5.5 2 9.7.1 4.3-.5 7.5-1.9 9.7zm-31.9 3.3c2 .3 4.7.5 8.1.5v-27.4c-3.3.1-6 .3-8.1.7s-3.7 1-5 2v22.4c1.3.9 2.9 1.5 5 1.8zm23.1-26.2c-2-.4-4.6-.6-7.8-.7v27.4c3.2 0 5.9-.2 7.9-.5s3.6-.9 4.9-1.8v-22.4c-1.4-1-3-1.7-5-2z"/><path d="m392.6 299.4v2h-11.2-4.7v-2h3.5l-9.4-16.1-10.2 16.1h4.6v2h-8-3.2v-2h4.6l11.3-17.8-11.8-20.1h-4v-2h11.1 4.8v2h-3.6l9.2 15.8 10-15.8h-4.5v-2h7.9 3.4v2h-4.7l-11 17.5 11.9 20.5h4z"/><path d="m441.5 299.4v2l-1.2 4.8h-2l1.2-4.8h-11.4-24-3.6v-2h3.6v-37.9h-4.2v-2h15.9v2h-4.5v37.9h16.8v-37.9h-4.5v-2h15.9v2h-4.2v37.9z"/><path d="m487.7 299.4v2h-16.4v-2h5v-15.2h-9.2c-2.2 0-4.3-.6-6.2-1.7s-3.4-2.6-4.5-4.5-1.6-3.9-1.6-6.2v-10.3h-3.6v-2h9.5 3.6v2h-3.6v16.6c0 .6.1 1.1.4 1.6s.6.9 1.1 1.2c1.5.8 3.1 1.2 4.9 1.2h9.2l.1-20.6h-3.6v-2h14.3v2h-3.6v37.9z"/><path d="m555.9 261.5v37.9h4.2v2h-11.4-22.2-22.3-3.6v-2h3.6v-37.9h-4.2v-2h15.9v2h-4.5v37.9h15.1v-37.9h-4.2v-2h15.9v2h-4.5v37.9h15v-37.9h-4.5v-2h15.9v2z"/><path d="m229.5 368.5v2l-.6 4.8h-2l.6-4.8h-11.4-22.2-22.3-3.6v-2h3.6v-37.9h-4.2v-2h15.9v2h-4.5v37.9h15.1v-37.9h-4.2v-2h15.9v2h-4.5v37.9h15v-37.9h-4.5v-2h15.9v2h-4.2v37.9z"/><path d="m270.8 347.5c1.9 1.1 3.4 2.6 4.5 4.5s1.6 3.9 1.6 6.2c0 2.2-.5 4.3-1.6 6.2s-2.6 3.4-4.5 4.5-3.9 1.7-6.2 1.7h-21.8v-2h3.6v-37.9h-8.4v6.6h-1.8v-8.6h21.5.1v2h-4.2v15.2h11c2.2-.1 4.3.5 6.2 1.6zm-.3 2.7c-.3-.5-.6-.9-1.1-1.2-1.5-.8-3.1-1.2-4.9-1.2h-11v20.6h11c1.9 0 3.4-.3 4.7-1 .5-.3.9-.7 1.2-1.2s.5-1.1.5-1.7v-12.7c0-.5-.1-1.1-.4-1.6z"/><path d="m287.7 370.5v-2h3.6v-37.9h-4.2v-2h15.6v2h-4.2v15.2h9.2c2.2 0 4.3.6 6.2 1.7s3.4 2.6 4.5 4.5 1.7 3.9 1.7 6.2c0 2.2-.6 4.3-1.7 6.2s-2.6 3.4-4.5 4.5-3.9 1.7-6.2 1.7h-20zm10.8-2h9.2c1.9 0 3.4-.3 4.7-1 .5-.3.9-.7 1.2-1.2s.5-1.1.5-1.7v-10.9-1.8c0-.6-.1-1.1-.4-1.6s-.6-.9-1.1-1.2c-1.5-.8-3.1-1.2-4.9-1.2h-9.2zm24.7.2h4.2v-38.4h-4.2v-1.8h15.6v1.8h-4.2v38.4h4.2v1.8h-15.6z"/><path d="m354.2 370.5v-2h3.6v-37.9h-4.2v-2h15.6v2h-4.2v15.2h11c2.2 0 4.3.6 6.2 1.7s3.4 2.6 4.5 4.5 1.7 3.9 1.7 6.2c0 2.2-.6 4.3-1.7 6.2s-2.6 3.4-4.5 4.5-3.9 1.7-6.2 1.7h-21.8zm10.8-2h11c1.9 0 3.4-.3 4.7-1 .5-.3.9-.7 1.2-1.2s.4-1.1.4-1.7v-10.9-1.8c0-.6-.1-1.1-.4-1.6s-.6-.9-1.1-1.2c-1.5-.8-3.1-1.2-4.9-1.2h-11v20.6z"/><path d="m423.7 330.9c3.4 1.9 6.1 4.6 8.1 7.9s3 7 3 10.9-1 7.5-3 10.9c-2 3.3-4.7 6-8.1 7.9-3.4 2-7.2 2.9-11.2 2.9-3 0-5.8-.5-8.5-1.6s-5-2.6-7.1-4.6l3.9-3.8 1.4 1.4-2.3 2.3c1.7 1.4 3.7 2.4 5.8 3.1 2.2.7 4.4 1.1 6.7 1.1 2.6 0 5-.4 7.3-1.3s4.3-2.1 6.1-3.7c.3-.3.4-.6.4-.9v-12.7h-11.2v3.1h-2v-7.8h2v2.6h11.4v-12.9c0-.3-.1-.6-.4-.9-1.8-1.6-3.9-2.8-6.1-3.7-2.3-.9-4.7-1.3-7.3-1.3-2.3 0-4.5.4-6.7 1.1-2.1.7-4.1 1.8-5.8 3.1l2.3 2.3-1.4 1.4-3.9-3.8c2-1.9 4.4-3.4 7.1-4.5s5.5-1.6 8.5-1.6c3.9.2 7.6 1.1 11 3.1z"/><path d="m510.1 349.8c0 3.9-1 7.5-3 10.8s-4.7 6-8.1 7.9c-3.4 2-7.2 2.9-11.2 2.9-3.9 0-7.6-.9-10.9-2.8-3.4-1.9-6.1-4.4-8.1-7.5-2-3.2-3.1-6.6-3.3-10.4h-6.5v17.8h4.5v2h-15.9v-2h4.2v-37.9h-4.2v-2h15.5v2h-4.1v18.1h6.5c.2-3.8 1.3-7.3 3.4-10.4 2-3.1 4.7-5.6 8.1-7.5 3.3-1.8 7-2.8 10.9-2.8 4 0 7.8 1 11.2 2.9s6.1 4.6 8.1 7.9 3 6.9 3 10.9v.1zm-29.6 18.3c2.3.9 4.7 1.3 7.3 1.3s5-.4 7.3-1.3 4.3-2.1 6.1-3.7c.3-.3.4-.6.4-.9v-27.6c0-.3-.1-.6-.4-.9-1.8-1.6-3.8-2.8-6.1-3.7s-4.7-1.3-7.3-1.3-5 .4-7.3 1.3-4.4 2.1-6.2 3.7c-.3.3-.4.6-.4.9v27.6c0 .3.1.6.4.9 1.8 1.6 3.9 2.8 6.2 3.7z"/><path d="m558.5 368.5v2h-15.6v-2h4.2v-15.2h-8.3l-9.6 15.2h4.6v2h-8-3.3v-2h4.6l9.7-15.2h-.7c-2.2 0-4.3-.6-6.2-1.7s-3.4-2.6-4.5-4.5-1.7-3.9-1.7-6.2.5-4.3 1.7-6.2c1.1-1.9 2.6-3.4 4.5-4.5s3.9-1.7 6.2-1.7h21.8v2h-3.6v37.9h4.2zm-11.4-37.9h-11c-1.9 0-3.4.3-4.7 1-.5.3-.9.7-1.2 1.2s-.5 1.1-.5 1.7v10.9 1.8c0 .6.1 1.1.4 1.6s.6.9 1.1 1.2c1.5.8 3.1 1.2 4.9 1.2h11z"/><path d="m302.3 454.6v2h-14.2v-2h2.9l-4.4-12.5h-15.6l-3.5 12.5h2.9v2h-5.4-3.2v-2h3.8l10.7-38h-3.7v-2h12.3l14.1 40.1h3.3zm-32.8-46.9c-.7-.8-1.1-1.7-1.1-2.7s.4-1.9 1.1-2.7 1.6-1.1 2.7-1.1c1 0 1.9.4 2.7 1.1.8.8 1.1 1.7 1.1 2.7s-.4 1.9-1.1 2.7c-.8.8-1.7 1.1-2.7 1.1-1.1 0-2-.3-2.7-1.1zm16.5 32.6-8-23-6.5 23zm-2.3-32.6c-.7-.8-1.1-1.7-1.1-2.7s.4-1.9 1.1-2.7 1.6-1.1 2.7-1.1c1 0 1.9.4 2.7 1.1.8.8 1.1 1.7 1.1 2.7s-.4 1.9-1.1 2.7c-.8.8-1.7 1.1-2.7 1.1-1.1 0-1.9-.3-2.7-1.1z"/><path d="m355.1 435.8c0 3.9-1 7.5-3 10.8s-4.7 6-8.1 7.9-7.2 2.9-11.2 2.9-7.8-1-11.2-2.9c-3.4-2-6.1-4.6-8.1-7.9s-3-6.9-3-10.8v-.1-.1c0-3.9 1-7.5 3-10.9 2-3.3 4.7-5.9 8.1-7.9 3.4-1.9 7.1-2.9 11.2-2.9s7.8 1 11.2 2.9 6.1 4.6 8.1 7.9 3 6.9 3 10.9zm-29.6 18.4c2.3.9 4.7 1.3 7.3 1.3s5-.4 7.3-1.3 4.4-2.1 6.2-3.7c.3-.3.4-.6.4-.9v-27.6c0-.3-.1-.6-.4-.9-1.8-1.6-3.9-2.8-6.2-3.7s-4.7-1.3-7.3-1.3-5 .4-7.3 1.3-4.4 2.1-6.2 3.7c-.3.3-.4.6-.4.9v27.6c0 .3.1.6.4.9 1.8 1.6 3.9 2.8 6.2 3.7zm-2.5-45.8c-.7-.8-1.1-1.7-1.1-2.7s.4-1.9 1.1-2.7 1.6-1.1 2.7-1.1c1 0 1.9.4 2.7 1.1.8.8 1.1 1.7 1.1 2.7s-.4 1.9-1.1 2.7c-.8.8-1.7 1.1-2.7 1.1-1.1 0-2-.4-2.7-1.1zm14.2 0c-.7-.8-1.1-1.7-1.1-2.7s.4-1.9 1.1-2.7 1.6-1.1 2.7-1.1 1.9.4 2.7 1.1c.8.8 1.1 1.7 1.1 2.7s-.4 1.9-1.1 2.7c-.8.8-1.7 1.1-2.7 1.1s-2-.4-2.7-1.1z"/><path d="m411.4 416.6h-3.6v20.9c0 4.2-.9 7.7-2.8 10.7s-4.3 5.3-7.2 6.8-6 2.3-9.3 2.4c-3.2 0-6.3-.8-9.3-2.4-2.9-1.5-5.3-3.8-7.2-6.8s-2.8-6.6-2.8-10.7v-20.9h-3.6v-2h10.8 3.6v2h-3.6v33.4.1c0 .3.1.6.4.8 1.6 1.4 3.4 2.5 5.4 3.3s4.1 1.2 6.3 1.2 4.3-.4 6.3-1.2 3.8-1.9 5.4-3.3c.3-.3.4-.6.4-1v-33.4h-3.6v-2h14.4zm-32.7-9.5c-.7-.8-1.1-1.7-1.1-2.7s.4-1.9 1.1-2.7 1.6-1.1 2.7-1.1c1 0 1.9.4 2.7 1.1.8.8 1.1 1.7 1.1 2.7s-.4 1.9-1.1 2.7c-.8.8-1.7 1.1-2.7 1.1-1.1 0-2-.3-2.7-1.1zm14.2 0c-.7-.8-1.1-1.7-1.1-2.7s.4-1.9 1.1-2.7 1.6-1.1 2.7-1.1 1.9.4 2.7 1.1c.8.8 1.1 1.7 1.1 2.7s-.4 1.9-1.1 2.7c-.8.8-1.7 1.1-2.7 1.1s-1.9-.3-2.7-1.1z"/><path d="m458.3 454.6v2h-14.2v-2h2.9l-4.4-12.5h-15.6l-3.5 12.5h2.9v2h-5.4-3.2v-2h3.8l10.7-38h-3.7v-2h12.3l14.1 40.1h3.3zm-16.3-14.3-8-23-6.5 23zm-2.7-42.5c1 .5 1.9 1.2 2.6 2.2s1 2.2 1 3.6-.3 2.6-1 3.6-1.5 1.7-2.6 2.2c-1 .5-2.1.8-3.2.8s-2.1-.2-3.2-.8c-1-.5-1.9-1.2-2.6-2.2s-1-2.2-1-3.6.3-2.6 1-3.6 1.5-1.7 2.6-2.2c1-.5 2.1-.8 3.2-.8s2.2.3 3.2.8zm.3 8.9c.9-.9 1.3-1.9 1.3-3.2s-.4-2.3-1.3-3.2-2-1.3-3.5-1.3c-1.4 0-2.6.4-3.5 1.3s-1.3 1.9-1.3 3.2.4 2.3 1.3 3.2 2 1.3 3.5 1.3c1.5.1 2.6-.4 3.5-1.3z"/></g></svg>