<?xml version="1.0" encoding="utf-8"?>
<!-- Generator: Adobe Illustrator 19.0.0, SVG Export Plug-In . SVG Version: 6.00 Build 0)  -->
<svg version="1.2" baseProfile="tiny" id="Layer_1" xmlns="http://www.w3.org/2000/svg" xmlns:xlink="http://www.w3.org/1999/xlink"
	 x="0px" y="0px" viewBox="149 -355.9 425 823.3" xml:space="preserve">
<g>
	<path fill="#304D79" d="M217.1-305.5v2h-14.2v-2h2.9l-4.4-12.5h-15.7l-3.5,12.5h2.9v2h-5.5h-3.2v-2h3.8l10.7-38h-3.7v-2h12.3
		l14.1,40.1H217.1z M200.8-319.8l-8-23l-6.5,23H200.8z"/>
</g>
<g>
	<path fill="#304D79" d="M251.7-328c1.8,1.3,3.2,2.9,4.2,4.8c1,1.9,1.6,4,1.6,6.2c0,2.4-0.6,4.6-1.8,6.7c-1.2,2.1-2.9,3.7-5.1,5
		c-2.2,1.2-4.6,1.9-7.3,1.9h-16.9v-2h3.6v-37.9h-3.6v-2h14.9c1.4,0,2.7,0.4,3.9,1.2c1.2,0.8,2.2,1.9,3,3.2c0.8,1.4,1.1,2.8,1.1,4.4
		c0,2.4-1.2,4.5-3.5,6.1C248-330.1,249.9-329.3,251.7-328z M246.5-340c-0.6-1.1-1.3-1.9-2.2-2.5c-0.9-0.6-1.9-1-3-1h-4v12.4h4
		c1.7,0,3.2-0.5,4.3-1.6c1.2-1.1,1.8-2.4,1.8-4C247.3-337.8,247-338.9,246.5-340z M249.4-307c1.8-1,3.3-2.4,4.4-4.1
		c1.1-1.7,1.6-3.7,1.6-5.8c0-2.2-0.5-4.3-1.6-6.1c-1.1-1.8-2.5-3.3-4.4-4.3c-1.8-1.1-3.9-1.6-6.1-1.6h-6.1v23.5h6.1
		C245.5-305.5,247.6-306,249.4-307z"/>
</g>
<g>
	<path fill="#304D79" d="M300.3-312.6l3.9,3.8c-2,2-4.4,3.5-7.1,4.6c-2.7,1.1-5.5,1.6-8.5,1.6c-4,0-7.8-1-11.2-2.9
		c-3.4-2-6.1-4.6-8.1-7.9c-2-3.3-3-6.9-3-10.9c0-3.9,1-7.5,3-10.9c2-3.3,4.7-6,8.1-7.9c3.4-1.9,7.1-2.9,11.2-2.9
		c3,0,5.8,0.5,8.5,1.6c2.7,1.1,5,2.6,7.1,4.5l-3.9,3.8l-1.4-1.4l2.3-2.3c-1.8-1.4-3.7-2.4-5.8-3.1c-2.1-0.7-4.3-1.1-6.7-1.1
		c-2.6,0-5,0.4-7.3,1.3c-2.3,0.9-4.4,2.1-6.2,3.7c-0.3,0.3-0.4,0.6-0.4,0.9v27.6c0,0.3,0.1,0.6,0.4,0.9c1.8,1.6,3.8,2.8,6.2,3.7
		c2.3,0.9,4.7,1.3,7.3,1.3c2.3,0,4.6-0.4,6.7-1.1c2.2-0.7,4.1-1.8,5.8-3.1l-2.3-2.3L300.3-312.6z"/>
</g>
<g>
	<path fill="#304D79" d="M313.5-305.5h3.6v-37.9h-3.6v-2h16.9c4,0,7.8,0.9,11.2,2.8c3.4,1.8,6.1,4.4,8.1,7.6c2,3.2,3,6.8,3,10.7
		c0,3.9-1,7.5-3,10.7c-2,3.2-4.7,5.7-8.1,7.5c-3.4,1.8-7.1,2.8-11.2,2.8h-16.9V-305.5z M330.4-305.5c3.7,0,7.1-0.8,10.2-2.5
		c3.1-1.6,5.5-3.9,7.3-6.8c1.8-2.9,2.7-6.1,2.7-9.7c0-3.6-0.9-6.8-2.7-9.7c-1.8-2.9-4.3-5.2-7.3-6.8c-3.1-1.7-6.5-2.5-10.2-2.5h-6.1
		v37.9H330.4z"/>
</g>
<g>
	<path fill="#304D79" d="M360.8-305.5h3.6l0.1-37.9h-3.6v-2h32v8.6h-1.8v-6.6h-19.4v18h12.2v1.8h-12.2v18.1h19.4v-6.6h1.8v8.6h-32.1
		V-305.5z"/>
</g>
<g>
	<path fill="#304D79" d="M405.2-305.5h3.5l0.1-37.9h-3.6v-2h30.5v8.6H434v-6.6H416v18h9.5v1.8H416v18.1h5v2h-15.8V-305.5z"/>
	<path fill="#304D79" d="M484.3-312.2c-2.1,3-4.7,5.3-8,7c-3.3,1.7-6.8,2.6-10.5,2.6c-4,0-7.8-1-11.2-2.9c-3.4-2-6.1-4.6-8.1-7.9
		c-2-3.3-3-6.9-3-10.9c0-3.9,1-7.5,3-10.9s4.7-6,8.1-7.9c3.4-1.9,7.1-2.9,11.2-2.9c2.6,0,5.2,0.4,7.6,1.3c2.4,0.9,4.6,2.1,6.6,3.7
		l-4.7,4.6l-1.4-1.4l2.9-2.9c-3.4-2.1-7.1-3.2-11-3.2c-2.6,0-5,0.4-7.3,1.3c-2.3,0.9-4.3,2.1-6.2,3.7c-0.3,0.3-0.4,0.6-0.4,0.9v27.6
		c0,0.3,0.1,0.6,0.4,0.9c1.8,1.6,3.8,2.8,6.2,3.7c2.3,0.9,4.7,1.3,7.3,1.3c2.6,0,5-0.4,7.3-1.3c2.3-0.9,4.4-2.1,6.2-3.7
		c0.3-0.3,0.4-0.6,0.4-0.9v-9.7h-5.4v-1.9H488C487.6-318.5,486.3-315.2,484.3-312.2z"/>
</g>
<g>
	<path fill="#304D79" d="M498.8-303.5v-2h4.2v-37.9h-4.2v-2h15.9v2h-4.5v18.1h21.1v-18.1h-4.5v-2h15.9v2h-4.2v37.9h4.2v2h-15.9v-2
		h4.5v-18.1h-21.1v18.1h4.5v2H498.8z"/>
</g>
<g>
	<path fill="#304D79" d="M158.9-225.3h4.2v-38.4h-4.2v-1.8h15.6v1.8h-4.2v38.4h4.2v1.8h-15.6V-225.3z"/>
	<path fill="#304D79" d="M205.7-263.5h-3.6v19.1h-0.2h0.2c0,3.9-1,7.5-3,10.9c-2,3.3-4.7,6-8.1,7.9c-3.4,2-7.1,2.9-11.2,2.9v-5.6h2
		v3.5c2.4-0.2,4.7-0.9,6.9-2c2.2-1.1,4.1-2.5,5.7-4.2c0.3-0.3,0.4-0.6,0.4-1v-12.8v-18.8h-3.6v-2h14.4V-263.5z"/>
	<path fill="#304D79" d="M257.9-225.6v2h-14.8v-2h2.2l-14.5-19l-4.1,3.7v15.4h3.6v2h-14.4v-2h3.6v-37.9h-3.6v-2h14.4v2h-3.6v20.1
		l19.4-20.1h-2.9v-2h9.1v2h-3.4l-13,14l17.8,23.9H257.9z"/>
</g>
<g>
	<path fill="#304D79" d="M263.4-225.6h3.6v-37.9h-3.6v-2h15.3v2h-4.5v37.9h20v-6.3h2v8.3h-32.8V-225.6z"/>
</g>
<g>
	<path fill="#304D79" d="M304.2-225.6h3.6l-0.4-37.9h-3.8v-2h12.5l13.3,32.3l13.5-32.3h11.2v2h-3.5v37.9h3.5v2h-14.7v-2h3.5v-35
		l-15.8,37.2h-1.4l-16.3-39.4v37.2h3.6v2h-8.9V-225.6z"/>
</g>
<g>
	<path fill="#304D79" d="M406.5-265.5v2h-3.6v40.1h-0.1l-31.1-30.5v28.3h3.6v2h-9.2v-2h3.6v-37.9h-3.6v-2h5.6l29.2,29h0.1v-27h-3.6
		v-2H406.5z"/>
</g>
<g>
	<path fill="#304D79" d="M461.6-244.3c0,3.9-1,7.5-3,10.8c-2,3.3-4.7,6-8.1,7.9c-3.4,2-7.2,2.9-11.2,2.9c-4,0-7.8-1-11.2-2.9
		c-3.4-2-6.1-4.6-8.1-7.9c-2-3.3-3-6.9-3-10.8v-0.1v-0.1c0-3.9,1-7.5,3-10.9c2-3.3,4.7-5.9,8.1-7.9c3.4-1.9,7.1-2.9,11.2-2.9
		c4,0,7.8,1,11.2,2.9c3.4,1.9,6.1,4.6,8.1,7.9c2,3.3,3,6.9,3,10.9V-244.3L461.6-244.3z M432-226c2.3,0.9,4.7,1.3,7.3,1.3
		c2.6,0,5-0.4,7.3-1.3s4.4-2.1,6.2-3.7c0.3-0.3,0.4-0.6,0.4-0.9v-27.6c0-0.3-0.1-0.6-0.4-0.9c-1.8-1.6-3.9-2.8-6.2-3.7
		c-2.3-0.9-4.7-1.3-7.3-1.3c-2.6,0-5,0.4-7.3,1.3c-2.3,0.9-4.4,2.1-6.2,3.7c-0.3,0.3-0.4,0.6-0.4,0.9v27.6c0,0.3,0.1,0.6,0.4,0.9
		C427.6-228,429.7-226.8,432-226z"/>
</g>
<g>
	<path fill="#304D79" d="M501.8-263.9c1.9,1.1,3.4,2.6,4.5,4.5c1.1,1.9,1.7,3.9,1.7,6.2s-0.6,4.3-1.7,6.2c-1.1,1.9-2.6,3.4-4.5,4.5
		c-1.9,1.1-3.9,1.7-6.2,1.7h-11v15.2h4.2v2h-15.6v-2h4.2v-37.9h-3.6v-2h21.8C497.9-265.5,499.9-265,501.8-263.9z M495.6-242.9
		c1.8,0,3.4-0.4,4.9-1.2c0.5-0.3,0.8-0.7,1.1-1.2c0.3-0.5,0.4-1,0.4-1.6v-10.9v-1.8c0-0.6-0.1-1.2-0.5-1.7c-0.3-0.5-0.7-0.9-1.2-1.2
		c-1.2-0.6-2.8-1-4.7-1h-11v20.6H495.6z"/>
</g>
<g>
	<path fill="#304D79" d="M550.4-221.6c1,0.6,2.3,1,4,1h3v2h-3c-1.9,0-3.6-0.4-5-1.3c-1.4-0.8-2.4-2-2.8-3.6c-2,0.6-4,0.8-6.1,0.8
		c-4,0-7.8-1-11.2-2.9c-3.4-2-6.1-4.6-8.1-7.9c-2-3.3-3-6.9-3-10.8v-0.1v-0.1c0-3.9,1-7.5,3-10.9c2-3.3,4.7-5.9,8.1-7.9
		c3.4-1.9,7.1-2.9,11.2-2.9c4,0,7.8,1,11.2,2.9c3.4,1.9,6.1,4.6,8.1,7.9c2,3.3,3,6.9,3,10.9v0.1v0.1c0,3-0.6,5.8-1.8,8.5
		c-1.2,2.7-2.9,5-5,7c-2.2,2-4.6,3.6-7.4,4.6C548.8-223.1,549.4-222.3,550.4-221.6z M547.8-262.7c-2.3-0.9-4.7-1.3-7.3-1.3
		c-2.6,0-5,0.4-7.3,1.3c-2.3,0.9-4.4,2.1-6.2,3.7c-0.3,0.3-0.4,0.6-0.4,0.9v27.6c0,0.3,0.1,0.6,0.4,0.9c1.7,1.5,3.5,2.6,5.5,3.4
		c0.3-1.8,1.2-3.1,2.6-4c1.5-0.9,3.2-1.4,5.3-1.4s3.8,0.5,5.3,1.4c1.5,0.9,2.4,2.3,2.6,4c2.2-0.9,4-2,5.6-3.4
		c0.3-0.3,0.4-0.6,0.4-0.9v-27.6c0-0.3-0.1-0.6-0.4-0.9C552.1-260.6,550.1-261.9,547.8-262.7z M540.5-224.7c2,0,4-0.3,5.9-0.8
		c-0.1-1.2-0.6-2.2-1.6-3c-1-0.8-2.4-1.2-4.3-1.2c-1.9,0-3.3,0.4-4.3,1.1c-1,0.8-1.5,1.7-1.6,2.9C536.4-225,538.4-224.7,540.5-224.7
		z"/>
</g>
<g>
	<path fill="#304D79" d="M196.7-145.6v2h-3.6c-2,0-3.8-0.8-5.1-2.3c-1.4-1.5-2.1-3.5-2.1-6v-9.7c-1.3,0.5-2.7,0.7-4.1,0.7h-11v15.2
		h4.2v2h-15.6v-2h4.2v-37.9h-3.6v-2h21.8c2.2,0,4.3,0.6,6.2,1.7c1.9,1.1,3.4,2.6,4.5,4.5c1.1,1.9,1.6,3.9,1.6,6.2
		c0,2.2-0.5,4.2-1.5,6s-2.4,3.3-4.2,4.4c1.3,0.7,2.4,1.6,3.3,2.9c0.9,1.2,1.4,2.8,1.4,4.6v9.7H196.7z M181.7-162.9
		c1.8,0,3.4-0.4,4.9-1.2c0.5-0.3,0.8-0.7,1.1-1.2c0.3-0.5,0.4-1,0.4-1.6v-10.9v-1.8c0-0.6-0.1-1.2-0.5-1.7c-0.3-0.5-0.7-0.9-1.2-1.2
		c-1.2-0.6-2.8-1-4.7-1h-11v20.6H181.7z"/>
</g>
<g>
	<path fill="#304D79" d="M236-162.6c1.1,0.8,2.1,1.8,2.9,3.1c0.8,1.3,1.2,2.8,1.2,4.6c0,2.6-0.8,4.8-2.3,6.6
		c-1.5,1.8-3.6,3.2-6.2,4.2c-2.6,0.9-5.5,1.4-8.6,1.4c-7.9,0-13.8-3.6-17.6-10.9l4.1-4l1.6,1.3l-3.1,3.1c1.8,2.8,3.8,4.9,6.1,6.3
		c2.3,1.4,5.1,2.1,8.5,2.1c2.4,0,4.6-0.3,6.9-0.9c2.2-0.6,4-1.5,5.4-2.7c1.4-1.2,2.1-2.5,2.1-3.9c0-0.9-0.4-1.8-1.3-2.5
		c-0.9-0.8-2-1.5-3.5-2.3l-18.8-9.2c-2.2-1.2-3.8-2.4-4.8-3.6s-1.4-2.8-1.4-4.7c0-2.1,0.8-4.1,2.4-5.9c1.6-1.8,3.8-3.3,6.5-4.4
		c2.7-1.1,5.7-1.7,8.9-1.7c2.6,0,5.2,0.6,7.9,1.7c2.7,1.2,4.8,2.7,6.4,4.7l-3.9,3.8l-1.4-1.4l2.6-2.5c-1.6-1.3-3.4-2.3-5.3-3.1
		c-2-0.8-4-1.2-6.2-1.2c-2.8,0-5.3,0.4-7.4,1.1s-3.8,1.7-5,2.8c-1.2,1.1-1.8,2.1-1.8,3c0,0.9,0.4,1.6,1.1,2.2
		c0.7,0.6,1.5,1.1,2.4,1.6c0.9,0.5,1.4,0.8,1.7,0.9l16,7.8C233.5-164.2,234.9-163.4,236-162.6z"/>
</g>
<g>
	<path fill="#304D79" d="M285.5-176.4v-7.2l-14.8,0.1v37.9h3.6v2h-14.4v-2h3.6v-37.9l-14.8-0.1v7.2h-2v-9.2h40.8v9.2H285.5z"/>
</g>
<g>
	<path fill="#304D79" d="M341.1-183.5h-3.6v20.9c0,4.2-0.9,7.7-2.8,10.7s-4.3,5.3-7.2,6.8c-2.9,1.5-6,2.3-9.3,2.4
		c-3.2,0-6.3-0.8-9.3-2.4c-2.9-1.5-5.3-3.8-7.2-6.8s-2.8-6.6-2.8-10.7v-20.9h-3.6v-2h10.8h3.6v2h-3.6v33.4v0.1
		c0,0.3,0.1,0.6,0.4,0.8c1.6,1.4,3.4,2.5,5.4,3.3s4.1,1.2,6.3,1.2c2.2,0,4.3-0.4,6.3-1.2s3.8-1.9,5.4-3.3c0.3-0.3,0.4-0.6,0.4-1
		v-33.4h-3.6v-2h14.4V-183.5z"/>
	<path fill="#304D79" d="M389.3-183.5h-4.1l-12.5,40.4h-7.7l-14.9-40.4h-4.2v-2h14.8v2H358l13.7,37.6l11.8-37.6h-2.9v-2h8.8V-183.5z
		"/>
	<path fill="#304D79" d="M458.3-183.5h-4.1l-12.5,40.3h-7.8l-8.9-24.4l-7.6,24.4h-7.8l-14.8-40.3h-4.2v-2h14.8v2h-2.6l13.7,37.6
		l7.6-24.4l-4.9-13.1h-4.2v-2h14.8v2H427l13.7,37.6l11.8-37.6h-2.9v-2h8.8V-183.5z"/>
	<path fill="#304D79" d="M495.7-145.6v2h-11.2h-4.7v-2h3.5l-9.4-16.1l-10.2,16.1h4.6v2h-8h-3.3v-2h4.6l11.3-17.8l-11.8-20.1h-4v-2
		h11.1h4.8v2h-3.6l9.2,15.8l10-15.8h-4.5v-2h7.9h3.4v2h-4.7l-11,17.5l11.9,20.5H495.7z"/>
	<path fill="#304D79" d="M518.5-163.9v18.3h3.6v2h-10.8h-3.6v-2h3.6v-19l-11.1-19h-3.8v-2h14.1v2h-3.1l10.3,17.5l9.6-17.5h-3.1v-2
		h8.6v2h-3.5L518.5-163.9z"/>
</g>
<g>
	<path fill="#304D79" d="M535.1-145.6l23.9-37.9h-21.8v3.6h-2.2v-5.6h31.6v2l-23.9,37.9h22v-3.6h1.9v5.6h-31.6V-145.6z"/>
</g>
<g>
	<path fill="#304D79" d="M179-65.6v2h-14.4v-2h3.6v-36.6l-5,3.8l-2-1.3l7-5.8h7.2v40H179z"/>
</g>
<g>
	<path fill="#304D79" d="M201.6-76.3c-1.7,1.5-3.1,3.4-4,5.5h23.3v7.2h-26.4v-1.5c0-2.4,0.6-4.8,1.7-7.2c1.2-2.4,2.7-4.3,4.6-5.9
		c1.9-1.6,4-2.4,6.3-2.5c2.8,0,5.3-0.7,7.5-2.2v-19.5c-2.2-1.5-4.7-2.2-7.5-2.2c-4.2,0-8.3,1.8-12.4,5.5l2,2.5l-1.3,1.6l-3.6-4.1
		c1.8-2.3,4.1-4.1,6.8-5.4c2.7-1.3,5.5-2,8.5-2c2.7,0,5.1,0.6,7.4,1.9c2.2,1.2,4,2.9,5.3,5c1.3,2.1,2,4.4,2,7v0.1
		c0,2.5-0.7,4.9-1.9,7c-1.3,2.1-3.1,3.8-5.3,5.1c-2.2,1.2-4.7,1.9-7.4,1.9C205.2-78.6,203.3-77.8,201.6-76.3z M218.6-87.2l-0.8,1.3
		C218.1-86.2,218.3-86.7,218.6-87.2z"/>
</g>
<g>
	<path fill="#304D79" d="M257-82.2c1.4,2,2.1,4.3,2.1,6.9c0,2.3-0.6,4.4-1.6,6.4c-1.1,1.9-2.6,3.4-4.6,4.6c-1.9,1.1-4.2,1.7-6.6,1.7
		c-3,0-5.9-0.6-8.6-1.9c-2.7-1.3-5-3-6.8-5.2l3.6-4.1l1.3,1.6l-2.1,2.4c1.8,1.6,3.8,2.9,5.9,3.8c2.1,0.9,4.4,1.4,6.7,1.4
		c2.6,0,4.9-0.8,6.9-2.3v-16.2c-1.9-1.5-4.2-2.2-6.9-2.2h-0.1v-2h0.1c1.9,0,3.6-0.4,5-1.3v-14c-1.4-0.9-3.1-1.4-5-1.4
		c-1.4,0-2.8,0.3-4,0.9l1.8,2.5l-1.4,1.4l-3.3-4.4c1-0.8,2-1.4,3.2-1.8s2.4-0.6,3.7-0.6c2,0,3.9,0.5,5.6,1.4c1.7,0.9,3,2.2,4,3.8
		s1.4,3.3,1.4,5.2c0,2-0.5,3.8-1.6,5.5c-1.1,1.6-2.5,2.9-4.3,3.8C253.7-85.7,255.6-84.2,257-82.2z"/>
	<path fill="#304D79" d="M291.9-76.7v11.1h3.6v2h-14.4v-2h3.6v-11.1h-18.6v-2l18.6-26.8h7.2v26.8h7v2H291.9z M284.7-78.7v-23.9
		l-16.6,23.9H284.7z"/>
</g>
<g>
	<path fill="#304D79" d="M332.5-88.7c2.2,1.2,4,2.9,5.3,5.1c1.3,2.1,2,4.5,2,7c0,2.5-0.7,4.9-2,7c-1.3,2.1-3.1,3.8-5.3,5.1
		c-2.2,1.3-4.7,1.9-7.4,1.9c-3,0-5.8-0.7-8.5-2c-2.7-1.3-5-3.1-6.8-5.4l3.6-4.1l1.3,1.6l-2,2.5c4.1,3.6,8.2,5.5,12.4,5.5
		c2.8,0,5.3-0.7,7.5-2.2v-19.5c-2.2-1.5-4.8-2.2-7.6-2.2c-3,0-5.6,0.9-7.9,2.6l-2-0.5v-19h24.6v7.2h-22.6v10c2.4-1.5,5-2.2,8-2.2
		C327.8-90.6,330.3-89.9,332.5-88.7z"/>
</g>
<g>
	<path fill="#304D79" d="M378-88.7c2.2,1.2,4,2.9,5.3,5.1c1.3,2.1,1.9,4.5,1.9,7c0,2.5-0.7,4.9-1.9,7c-1.3,2.1-3.1,3.8-5.3,5.1
		s-4.7,1.9-7.4,1.9c-2.7,0-5.1-0.6-7.4-1.9c-2.2-1.3-4-3-5.3-5.1c-1.3-2.1-2-4.5-2-7v-15.7c0-2.5,0.6-4.8,2-7c1.3-2.1,3.1-3.8,5.3-5
		c2.2-1.2,4.7-1.9,7.4-1.9c2.8,0,5.2,0.5,7.4,1.6c2.2,1.1,4,2.5,5.3,4.3l-3.9,3.8l-1.4-1.4l2.6-2.6c-1.2-1.2-2.7-2.2-4.3-2.9
		c-1.7-0.7-3.6-1-5.7-1c-2.7,0-5.2,0.7-7.4,2.2v13.4c2.3-1.3,4.8-1.9,7.4-1.9C373.3-90.6,375.8-89.9,378-88.7z M378.1-66.9v-19.5
		c-2.2-1.5-4.8-2.2-7.6-2.2c-2.7,0-5.2,0.7-7.4,2.2v19.5c2.2,1.5,4.6,2.3,7.4,2.3C373.4-64.7,375.9-65.4,378.1-66.9z"/>
</g>
<g>
	<path fill="#304D79" d="M409.2-63.6h-7.7l13.7-40.1h-22.1v-1.9h30.4L409.2-63.6z"/>
</g>
<g>
	<path fill="#304D79" d="M468.7-80.8c1,1.9,1.6,3.8,1.6,5.6c0,2.1-0.7,4.2-2.2,6.1c-1.5,1.9-3.5,3.5-6,4.7c-2.6,1.2-5.4,1.8-8.6,1.8
		c-3.2,0-6.1-0.6-8.6-1.8s-4.5-2.8-6-4.7c-1.4-1.9-2.2-4-2.2-6.1c0-1.6,0.6-3.2,1.7-5c1.2-1.8,2.7-3.3,4.5-4.7
		c-1.4-1.2-2.5-2.7-3.3-4.3c-0.8-1.6-1.1-3.2-1.1-4.8c0-2,0.6-3.9,1.9-5.8c1.3-1.9,3.1-3.4,5.4-4.6s5.1-1.8,8.2-1.8s5.7,0.6,7.8,1.8
		c2.1,1.2,3.6,2.7,4.6,4.6c1,1.9,1.5,3.8,1.5,5.8c0,1.4-0.3,2.9-1,4.4s-1.6,2.8-2.8,4C466.1-84.3,467.6-82.7,468.7-80.8z
		 M460.7-66.1c2.2-1,3.8-2.3,5-3.9c1.2-1.6,1.8-3.3,1.8-5.1c0-2.3-1.2-3.9-3.6-4.8c-2.4-0.9-5.9-1.4-10.5-1.4
		c-3.3,0-6.2-0.8-8.8-2.3c-1.8,1.2-3.2,2.5-4.3,4c-1.1,1.5-1.7,3-1.7,4.4c0,1.8,0.6,3.5,1.9,5.1c1.3,1.6,3.1,3,5.3,4
		c2.3,1,4.7,1.5,7.5,1.5C456.1-64.6,458.6-65.1,460.7-66.1z M444-89.6c2,0.7,5.1,1.1,9.4,1.1c3.4,0,6.4,0.6,9,1.9
		c1-1.1,1.9-2.3,2.5-3.6s0.9-2.6,0.9-3.8c0-1.6-0.4-3.2-1.3-4.8c-0.9-1.6-2.2-2.8-4-3.8c-1.8-1-4-1.5-6.6-1.5
		c-2.6,0-4.9,0.5-6.9,1.5c-1.9,1-3.4,2.3-4.4,3.8c-1,1.6-1.5,3.2-1.5,4.8C441.1-91.7,442.1-90.3,444-89.6z"/>
</g>
<g>
	<path fill="#304D79" d="M504.3-104.3c2.2,1.3,4,3,5.3,5.1c1.3,2.1,2,4.5,2,7v15.7c0,2.5-0.7,4.8-2,7c-1.3,2.1-3.1,3.8-5.3,5
		s-4.7,1.9-7.4,1.9c-2.8,0-5.2-0.5-7.4-1.6c-2.2-1.1-4-2.5-5.3-4.3l3.9-3.8l1.4,1.4l-2.6,2.6c1.2,1.2,2.6,2.2,4.3,2.9s3.6,1,5.7,1
		c2.7,0,5.2-0.7,7.4-2.2v-13.4c-2.3,1.3-4.8,1.9-7.4,1.9c-2.7,0-5.2-0.6-7.4-1.9c-2.2-1.2-4-2.9-5.3-5.1c-1.3-2.1-1.9-4.5-1.9-7
		c0-2.5,0.6-4.8,1.9-7c1.3-2.1,3.1-3.8,5.3-5.1c2.2-1.3,4.7-1.9,7.4-1.9C499.6-106.2,502.1-105.5,504.3-104.3z M504.4-82.4v-19.5
		c-2.2-1.5-4.6-2.3-7.4-2.3c-2.8,0-5.4,0.8-7.6,2.3v19.5c2.2,1.5,4.8,2.2,7.6,2.2C499.8-80.2,502.2-80.9,504.4-82.4z"/>
</g>
<g>
	<path fill="#304D79" d="M551.3-103.4c2.9,1.8,5.2,4.3,6.9,7.6c1.7,3.3,2.6,7.1,2.6,11.4c0,4.2-0.9,8-2.6,11.3s-4,5.9-6.9,7.7
		c-2.9,1.8-6,2.7-9.4,2.7c-3.4,0-6.5-0.9-9.3-2.7c-2.8-1.8-5-4.4-6.7-7.7s-2.5-7.1-2.5-11.4c0-4.3,0.8-8.1,2.5-11.4
		c1.6-3.3,3.9-5.8,6.7-7.6c2.8-1.8,5.9-2.7,9.3-2.7C545.3-106.1,548.4-105.2,551.3-103.4z M541.9-64.7c1.9,0,3.8-0.3,5.5-1
		c1.7-0.6,3.3-1.6,4.7-2.8c0.1-0.2,0.2-0.4,0.2-0.6v-30.7c0-0.2-0.1-0.4-0.2-0.6c-1.4-1.2-3-2.1-4.7-2.8c-1.7-0.6-3.6-1-5.5-1
		c-3.6,0-6.8,1.1-9.5,3.3v0.1c-0.3,0.3-0.4,0.6-0.4,0.9V-69c0,0.3,0.1,0.6,0.4,0.9h-0.2C534.9-65.9,538.2-64.7,541.9-64.7z"/>
</g>
<g id="XMLID_69_">
	<path fill="#304D79" d="M169.6-13.4c-0.6,0.9-1.4,1.7-2.5,2.2c1,0.5,1.9,1.3,2.5,2.2s0.9,2,0.9,3.3v19.1c0,2,0.4,3.5,1.3,4.5
		c0.8,1,1.9,1.5,3.2,1.5v2c-2.1,0-3.7-0.8-4.9-2.3c-1.1-1.5-1.7-3.4-1.7-5.7V-5.7c0-1.3-0.5-2.4-1.5-3.2c-1-0.8-2.5-1.3-4.5-1.3v-2
		c2,0,3.5-0.4,4.5-1.3c1-0.8,1.5-1.9,1.5-3.2v-19.1c0-2.2,0.6-4.1,1.7-5.7c1.1-1.5,2.7-2.3,4.9-2.3v2c-1.3,0-2.4,0.5-3.2,1.5
		c-0.8,1-1.3,2.5-1.3,4.5v19.1C170.5-15.5,170.2-14.4,169.6-13.4z"/>
	<path fill="#304D79" d="M185.5,9.5c-0.8-0.8-1.1-1.7-1.1-2.8s0.4-2,1.1-2.8c0.8-0.8,1.7-1.1,2.8-1.1c1.1,0,2,0.4,2.8,1.1
		c0.8,0.8,1.1,1.7,1.1,2.8s-0.4,2-1.1,2.8c-0.8,0.8-1.7,1.1-2.8,1.1C187.2,10.7,186.3,10.3,185.5,9.5z M191.9-32.8l-2.7,31.2h-2
		l-2.5-31.2H191.9z"/>
	<path fill="#304D79" d="M223.4-13.1c2.5-1.2,5.5-1.8,9-1.8v-7.3c-1.2-0.5-2.5-0.8-3.7-0.8c-2.1,0-3.9,0.7-5.6,2l2.5,2.5l-1.4,1.4
		l-3.9-3.8c1-1.2,2.2-2.2,3.7-3c1.5-0.7,3-1.1,4.7-1.1c1.9,0,3.7,0.5,5.4,1.5c1.7,1,3,2.3,4,4c1,1.7,1.5,3.5,1.5,5.4v14
		c1.2,0,2.4-0.3,3.8-1c1.4-0.6,2.6-1.8,3.6-3.5c1-1.7,1.6-3.9,1.6-6.6c0-3.1-0.7-6.2-2.1-9.1c-1.4-3-3.5-5.4-6.2-7.3
		c-2.7-1.9-6.1-2.9-9.9-2.9c-3.8,0-7.3,0.9-10.6,2.8c-3.3,1.9-5.9,4.4-7.8,7.6c-1.9,3.2-2.9,6.6-2.9,10.3s1,7.2,2.9,10.3
		c1.9,3.2,4.5,5.7,7.8,7.6c3.3,1.9,6.8,2.8,10.7,2.8c2.5,0,4.9-0.4,7.2-1.2s4.4-2,6.2-3.5l1.6,1.4c-2,1.7-4.3,3-6.9,4
		c-2.6,0.9-5.2,1.4-8,1.4c-4.3,0-8.2-1-11.8-3.1c-3.6-2.1-6.4-4.8-8.5-8.3c-2.1-3.5-3.1-7.3-3.1-11.4c0-4.1,1.1-7.9,3.1-11.4
		c2.1-3.5,4.9-6.2,8.5-8.3c3.6-2,7.4-3.1,11.6-3.1c4.3,0,8,1,11.1,3.2c3.1,2.1,5.4,4.8,6.9,8.1s2.3,6.6,2.3,10
		c0,3.1-0.6,5.6-1.8,7.6c-1.2,2-2.7,3.4-4.4,4.3c-1.7,0.9-3.3,1.3-4.8,1.3h-7.2c-2.5,0-4.6-0.2-6.4-0.5c-1.8-0.3-3.3-1.1-4.5-2.4
		c-1.2-1.3-1.9-3.2-1.9-5.8C219.7-9.7,220.9-11.9,223.4-13.1z M232.4-12.9c-2.2,0-3.9,0.3-5.1,1c-0.5,0.3-0.9,0.7-1.2,1.2
		c-0.3,0.5-0.4,1.1-0.4,1.7v3.1V-4c0,0.6,0.1,1.1,0.4,1.6c0.3,0.5,0.6,0.9,1.1,1.2c0.7,0.4,1.5,0.7,2.5,0.9c0.9,0.2,1.9,0.3,2.8,0.3
		V-12.9z"/>
	<path fill="#304D79" d="M287-15.2l-3.8,10.5h8.3v2h-9l-2.6,7.1L278,3.5l2.3-6.2h-10.3l-2.6,7.1l-1.9-0.9l2.3-6.2h-7.4v-2h8.1
		l3.8-10.5h-8v-2h8.8l3.2-8.9l1.8,0.9l-2.9,8h10.3l3.2-8.9l1.8,0.9l-2.9,8h7.7v2H287z M284.9-15.2h-10.3l-3.8,10.5H281L284.9-15.2z"
		/>
	<path fill="#304D79" d="M331.7,6.3c-2.3,2-5.3,3.4-9,4v4.9h-2v-4.7c-1.1,0.1-2,0.1-2.6,0.1c-0.9,0-1.5,0-1.9-0.1v4.6h-2v-4.9
		c-6-1-10.5-4.5-13.7-10.5l4.1-4l1.6,1.3l-3.1,3.1c1.5,2.3,3.1,4.1,4.8,5.5c1.7,1.4,3.8,2.3,6.2,2.7v-18.4l-5.7-2.8
		c-2.2-1.2-3.8-2.4-4.8-3.6c-1-1.2-1.4-2.8-1.4-4.7c0-2.5,1.1-4.8,3.4-6.8c2.2-2.1,5.1-3.5,8.6-4.4v-6.4h2v5.9
		c1.4-0.2,2.7-0.3,3.8-0.3h0.7v-5.6h2v5.9c2.2,0.4,4.3,1.1,6.4,2.2c2.1,1.1,3.8,2.4,5.1,4.1l-3.9,3.8l-1.4-1.4l2.6-2.5
		c-2.7-2.2-5.6-3.5-8.8-4.1v17.1l4.1,2c1.7,0.8,3.1,1.7,4.2,2.5c1.1,0.8,2.1,1.8,2.9,3.1c0.8,1.3,1.2,2.8,1.2,4.6
		C335.1,1.6,334,4.2,331.7,6.3z M314-18v-12.5c-2.5,0.6-4.5,1.6-6.1,2.8c-1.5,1.2-2.3,2.4-2.3,3.5c0,0.9,0.4,1.6,1.1,2.2
		c0.7,0.6,1.5,1.1,2.4,1.6c0.9,0.5,1.4,0.8,1.7,0.9L314-18z M316-30.8v13.9l4.6,2.2v-16.4h-0.7C318.6-31.1,317.3-31,316-30.8z
		 M320.6,8.5V-6.9L316-9.1V8.6c0.4,0,1,0.1,1.9,0.1C318.5,8.6,319.4,8.6,320.6,8.5z M329.2,5.5c1.8-1.2,2.6-2.7,2.6-4.4
		c0-0.9-0.4-1.8-1.3-2.5c-0.9-0.8-2-1.5-3.5-2.3l-4.4-2.2v14C325.3,7.6,327.5,6.7,329.2,5.5z"/>
	<path fill="#304D79" d="M367.3-36.7c2.1,1.2,3.8,2.9,5,5c1.2,2.1,1.8,4.4,1.8,6.8c0,2.4-0.6,4.7-1.8,6.8c-1.2,2.1-2.9,3.8-5,5
		c-2.1,1.2-4.4,1.8-6.8,1.8s-4.7-0.6-6.8-1.8c-2.1-1.2-3.8-2.9-5-5c-1.2-2.1-1.8-4.4-1.8-6.8c0-2.4,0.6-4.7,1.8-6.8
		c1.2-2.1,2.9-3.8,5-5c2.1-1.2,4.4-1.8,6.8-1.8S365.2-37.9,367.3-36.7z M360.5-12.9c2.2,0,4.2-0.6,6.1-1.7c0.6-0.5,0.8-1.1,0.8-1.9
		v-8.5V-33c0-0.9-0.4-1.6-1.1-2.2c-1.8-1-3.8-1.5-5.9-1.5c-2,0-3.8,0.4-5.5,1.3c-0.9,0.6-1.3,1.4-1.3,2.4v8.5v8c0,0.8,0.3,1.5,0.9,2
		C356.4-13.5,358.4-12.9,360.5-12.9z M369.7,14.4l19.2-58.1h-2.5l-19.3,58.1H369.7z M401.3-11.9c2.1,1.2,3.7,2.9,5,5
		c1.2,2.1,1.8,4.4,1.8,6.8c0,2.5-0.6,4.8-1.8,6.8c-1.2,2.1-2.9,3.7-5,4.9c-2.1,1.2-4.4,1.8-6.8,1.8c-2.4,0-4.7-0.6-6.8-1.8
		c-2.1-1.2-3.7-2.9-5-4.9s-1.8-4.3-1.8-6.8c0-2.5,0.6-4.8,1.8-6.8s2.9-3.7,4.9-5c2.1-1.2,4.3-1.8,6.8-1.8
		C397-13.7,399.3-13.1,401.3-11.9z M394.5,11.8c2.2,0,4.3-0.6,6.2-1.7c0.5-0.6,0.8-1.3,0.8-2v-8.5v-7.9c0-1-0.4-1.7-1.1-2.2
		c-1.8-1-3.7-1.6-5.9-1.6c-2,0-3.8,0.5-5.5,1.4c-0.4,0.2-0.7,0.6-1,1c-0.2,0.4-0.4,0.9-0.4,1.4v8.5v7.9c0,0.8,0.3,1.5,0.9,2
		C390.4,11.3,392.4,11.8,394.5,11.8z"/>
	<path fill="#304D79" d="M450.1,0.4c-0.7,1.8-1.6,3.4-2.8,4.8l2.9,4.6H443L442.5,9c-2.2,1.2-4.6,1.7-7.2,1.7c-3,0-5.8-0.7-8.2-2.2
		c-2.5-1.4-4.5-3.4-5.9-5.9c-1.5-2.5-2.2-5.2-2.2-8.2c0-2.4,0.6-4.8,1.9-7.2c1.3-2.3,2.8-4.3,4.7-5.7c-0.2-0.9-0.3-1.8-0.3-2.6
		c0-2.2,0.5-4.3,1.6-6.2c1.1-1.9,2.6-3.4,4.4-4.5c1.9-1.1,3.9-1.7,6.2-1.7c1.6,0,3.1,0.3,4.6,0.9c1.5,0.6,2.7,1.4,3.9,2.5l-0.2,0.1
		l-3.8,3.7l-1.4-1.4l2.3-2.3c-1.7-1-3.5-1.4-5.3-1.4c-2,0-3.9,0.6-5.6,1.7c-1.7,1.1-2.9,2.6-3.7,4.4l17.9,28.6c2-2.6,3-5.4,3.1-8.6
		l2,0.1C451.2-3.2,450.8-1.4,450.1,0.4z M441.4,7.3l-13.7-20.9c-0.1-0.1-0.3-0.5-0.8-1.1v-0.1l-0.6-1.2c-1.6,1.3-2.9,2.8-3.8,4.7
		c-0.9,1.8-1.4,3.8-1.4,5.9c0,2.5,0.6,4.9,2,7c1.3,2.2,3,3.9,5.2,5.2c2.2,1.3,4.5,2,7.1,2C437.4,8.7,439.4,8.3,441.4,7.3z M427.3-21
		v0.4l0.2-2.5C427.3-22.4,427.3-21.7,427.3-21z"/>
	<path fill="#304D79" d="M468.3-31.3l4.3,4.7l-3.2,1.9l-2.6-5.3l-2.2,5.3l-3.2-1.9l3.9-4.7l-6.7-1.2L460-36l5.9,3.1l-1.1-6.2h3.7
		l-0.8,6.3l6-3.2l1.3,3.5L468.3-31.3z"/>
	<path fill="#304D79" d="M504-31.6c2.1,1.2,3.8,2.8,5,4.8c1.2,2,1.8,4.2,1.8,6.5c0,1.4-0.4,2.8-1.1,3.9c-0.7,1.2-1.6,2.2-2.6,3.1
		c-1,0.9-2.4,1.9-4.1,3.2c-1.7,1.2-3,2.2-3.8,3c-0.8,0.8-1.2,1.6-1.2,2.4v3.2h-2v-3.2c0-1.2,0.5-2.3,1.4-3.3s2.5-2.2,4.5-3.6
		l1.8-1.3v-16.6c-2-1.2-4.2-1.8-6.6-1.8c-1.6,0-3.1,0.3-4.5,0.8c-1.4,0.6-2.6,1.3-3.6,2.3l2.6,2.6l-1.4,1.4l-3.9-3.8
		c1.3-1.7,2.9-3,4.7-4c1.9-1,3.9-1.4,6.1-1.4C499.6-33.4,501.9-32.8,504-31.6z M499.4,5.2c0.8,0.8,1.1,1.7,1.1,2.8s-0.4,2-1.1,2.8
		c-0.8,0.8-1.7,1.1-2.8,1.1s-2-0.4-2.8-1.1c-0.8-0.8-1.1-1.7-1.1-2.8s0.4-2,1.1-2.8c0.8-0.8,1.7-1.1,2.8-1.1S498.7,4.4,499.4,5.2z"
		/>
	<path fill="#304D79" d="M520,15.6l19.3-58.1h2.5l-19.2,58.1H520z"/>
	<path fill="#304D79" d="M553.7-13.5c1,0.8,2.5,1.3,4.5,1.3v2c-2,0-3.5,0.4-4.5,1.3c-1,0.8-1.5,1.9-1.5,3.2v19.1
		c0,2.2-0.6,4.1-1.7,5.7c-1.1,1.5-2.7,2.3-4.9,2.3v-2c1.3,0,2.4-0.5,3.2-1.5c0.8-1,1.3-2.5,1.3-4.5V-5.7c0-1.3,0.3-2.4,0.9-3.3
		c0.6-0.9,1.4-1.7,2.5-2.2c-1-0.5-1.9-1.2-2.5-2.2c-0.6-0.9-0.9-2-0.9-3.3v-19.1c0-2-0.4-3.5-1.3-4.5c-0.8-1-1.9-1.5-3.2-1.5v-2
		c2.1,0,3.7,0.8,4.9,2.3c1.1,1.5,1.7,3.4,1.7,5.7v19.1C552.2-15.4,552.7-14.4,553.7-13.5z"/>
</g>
<g id="XMLID_75_">
	<path fill="#304D79" d="M376.2,60.8h-29.3V59h29.3V60.8z"/>
</g>
<g id="XMLID_70_">
	<path fill="#304D79" d="M207,147.7v2h-14.2v-2h2.9l-4.4-12.5h-15.7l-3.5,12.5h2.9v2h-5.5h-3.2v-2h3.8l10.7-38h-3.7v-2h12.3
		l14.1,40.1H207z M190.7,133.4l-8-23l-6.5,23H190.7z"/>
	<path fill="#304D79" d="M240.6,123.9c2.5,1.2,4.3,2.8,5.7,4.9c1.3,2.1,2,4.6,2,7.3c0,2.4-0.6,4.6-1.8,6.7c-1.2,2.1-2.9,3.7-5.1,5
		c-2.2,1.2-4.6,1.9-7.3,1.9h-16.9v-2h3.6v-37.9h-3.6v-2H243h1.8v8.6H243v-6.6h-14.9v12.4h4C235.3,122.2,238.2,122.8,240.6,123.9z
		 M240.2,146.2c1.8-1,3.3-2.4,4.4-4.1c1.1-1.7,1.6-3.7,1.6-5.8c0-2.2-0.5-4.3-1.6-6.1c-1.1-1.8-2.5-3.3-4.4-4.3
		c-1.8-1.1-3.9-1.6-6.1-1.6h-6.1v23.5h6.1C236.4,147.7,238.4,147.2,240.2,146.2z"/>
	<path fill="#304D79" d="M283.2,125.3c1.8,1.3,3.2,2.9,4.2,4.8c1,1.9,1.6,4,1.6,6.2c0,2.4-0.6,4.6-1.8,6.7c-1.2,2.1-2.9,3.7-5.1,5
		c-2.2,1.2-4.6,1.9-7.3,1.9h-16.9v-2h3.6v-37.9h-3.6v-2h14.9c1.4,0,2.7,0.4,3.9,1.2c1.2,0.8,2.2,1.9,3,3.2c0.8,1.4,1.1,2.8,1.1,4.4
		c0,2.4-1.2,4.5-3.5,6.1C279.5,123.1,281.4,124,283.2,125.3z M278,113.3c-0.6-1.1-1.3-1.9-2.2-2.5c-0.9-0.6-2-1-3-1h-4v12.4h4
		c1.7,0,3.2-0.5,4.3-1.6c1.2-1.1,1.8-2.4,1.8-4C278.8,115.4,278.5,114.3,278,113.3z M280.9,146.2c1.8-1,3.3-2.4,4.4-4.1
		c1.1-1.7,1.6-3.7,1.6-5.8c0-2.2-0.5-4.3-1.6-6.1c-1.1-1.8-2.5-3.3-4.4-4.3c-1.8-1.1-3.9-1.6-6.1-1.6h-6.1v23.5h6.1
		C277,147.7,279.1,147.2,280.9,146.2z"/>
	<path fill="#304D79" d="M298,147.7h3.5l0.1-37.9H298v-2H328v8.6h-1.8v-6.6h-17.3l-0.1,37.9h5v2H298V147.7z"/>
	<path fill="#304D79" d="M371,147.7v5.9h-2v-3.9h-33h-3.5v3.9h-2v-5.9h6.1l9.9-38h-3.6v-2h11.9l11.9,40.1H371z M338.3,147.7h20.5
		L348,110.3L338.3,147.7z"/>
	<path fill="#304D79" d="M381.8,147.7h3.6l0.1-37.9h-3.6v-2h32v8.6h-1.8v-6.6h-19.4v18h12.2v1.8h-12.2v18.1h19.4v-6.6h1.8v8.6h-32.1
		V147.7z"/>
	<path fill="#304D79" d="M427.2,147.7h3.6l0.1-37.9h-3.6v-2h32v8.6h-1.8v-6.6h-19.4v18h12.2v1.8h-12.2v18.1h19.4v-6.6h1.8v8.6h-32.1
		V147.7z M434.4,102.5c-0.7-0.7-1.1-1.6-1.1-2.7c0-1,0.4-1.9,1.1-2.7s1.6-1.1,2.7-1.1s1.9,0.4,2.7,1.2c0.7,0.8,1.1,1.7,1.1,2.7
		c0,1-0.4,1.9-1.1,2.6c-0.7,0.7-1.6,1.1-2.7,1.1S435.2,103.2,434.4,102.5z M446.7,102.5c-0.7-0.7-1.1-1.6-1.1-2.7
		c0-1,0.4-1.9,1.1-2.7s1.6-1.1,2.7-1.1s1.9,0.4,2.7,1.1s1.1,1.6,1.1,2.7c0,1-0.4,1.9-1.1,2.7c-0.7,0.7-1.6,1.1-2.7,1.1
		S447.5,103.2,446.7,102.5z"/>
	<path fill="#304D79" d="M529.1,147.7v2h-14.8v-2h2.2l-13.3-19l-1.7,1.8v17.2h3.6v2h-14.4v-2h3.6v-17.2l-1.7-1.8l-13.3,19h2.2v2
		h-14.8v-2h4.1l16.6-23.9l-11.8-14h-3.4v-2h9.1v2h-2.9l15.8,17.8v-17.8h-3.6v-2h14.4v2h-3.6v17.8l15.8-17.8h-2.9v-2h9.1v2h-3.4
		l-11.8,14l16.6,23.9H529.1z"/>
	<path fill="#304D79" d="M558.1,131.1c1.4,2,2.1,4.3,2.1,6.9c0,2.3-0.6,4.4-1.7,6.4c-1.1,1.9-2.6,3.4-4.6,4.6
		c-1.9,1.1-4.2,1.7-6.6,1.7c-3,0-5.9-0.6-8.6-1.9c-2.7-1.3-5-3-6.8-5.2l4.2-3.5l1.3,1.6l-2.5,2c1.8,1.5,3.8,2.7,5.8,3.6
		c2.1,0.9,4.3,1.4,6.5,1.4c2.6,0,4.9-0.8,6.9-2.3V130c-1.9-1.5-4.2-2.2-6.9-2.2h-0.1v-2h0.1c1.9,0,3.6-0.4,5-1.3v-14
		c-1.4-0.9-3.1-1.4-5-1.4c-1.3,0-2.5,0.2-3.7,0.7l2.1,2.1l-1.4,1.4l-3.9-3.8c1-0.8,2-1.4,3.2-1.8s2.4-0.6,3.7-0.6
		c2,0,3.9,0.5,5.6,1.4c1.7,0.9,3,2.2,4,3.8s1.4,3.3,1.4,5.2c0,2-0.5,3.8-1.6,5.5c-1.1,1.6-2.5,2.9-4.3,3.8
		C554.8,127.6,556.7,129.1,558.1,131.1z"/>
</g>
<g id="XMLID_71_">
	<path fill="#304D79" d="M195.9,222.7v2h-9.2v-2h3.6v-28.3l-29.9,30.3h-0.1v-40h-3.6v-2h9.2v2h-3.6v27h0.1l29.8-29h0.2v40H195.9z"/>
	<path fill="#304D79" d="M249,222.7v2h-14.8v-2h2.1l-10.9-19c-2.4,0.8-4.7,1.3-7,1.4v17.6h3.6v2h-14.4v-2h3.6v-37.9h-3.6v-2h14.4v2
		h-3.6v18.3c3.4-0.2,6.5-1.1,9.3-2.7c2.8-1.7,5.1-3.9,6.8-6.6c1.7-2.7,2.7-5.7,3-9H235v-2h9.1v2h-4.4c-0.2,3.1-1,6-2.5,8.6
		c-1.4,2.7-3.4,5-5.8,6.8l13.3,22.4H249z"/>
	<path fill="#304D79" d="M297.7,222.7v2H284v-2h2.8l-12.7-37.3l-10.3,37.3h2.9v2h-5.3h-3.1v-2h3.7l10.5-38h-3.6v-2h11.9l13.7,40.1
		H297.7z"/>
	<path fill="#304D79" d="M307.7,222.7h3.6l-0.4-37.9h-3.8v-2h12.5l13.3,32.3l13.5-32.3h11.2v2h-3.5v37.9h3.5v2h-14.7v-2h3.5v-35
		l-15.8,37.2h-1.4L313,185.5v37.2h3.6v2h-8.9V222.7z"/>
	<path fill="#304D79" d="M372.4,224.8v-2h4.2v-37.9h-4.2v-2h15.9v2h-4.5v18.1h21.1v-18.1h-4.5v-2h15.9v2H412v37.9h4.2v2h-15.9v-2
		h4.5v-18.1h-21.1v18.1h4.5v2H372.4z"/>
	<path fill="#304D79" d="M474.1,204c0,3.9-1,7.5-3,10.8c-2,3.3-4.7,6-8.1,7.9c-3.4,2-7.2,2.9-11.2,2.9s-7.8-1-11.2-2.9
		c-3.4-2-6.1-4.6-8.1-7.9c-2-3.3-3-6.9-3-10.8v-0.1v-0.1c0-3.9,1-7.5,3-10.9c2-3.3,4.7-5.9,8.1-7.9c3.4-1.9,7.1-2.9,11.2-2.9
		s7.8,1,11.2,2.9c3.4,1.9,6.1,4.6,8.1,7.9c2,3.3,3,6.9,3,10.9V204L474.1,204z M444.5,222.3c2.3,0.9,4.7,1.3,7.3,1.3s5-0.4,7.3-1.3
		c2.3-0.9,4.4-2.1,6.2-3.7c0.3-0.3,0.4-0.6,0.4-0.9v-27.6c0-0.3-0.1-0.6-0.4-0.9c-1.8-1.6-3.9-2.8-6.2-3.7c-2.3-0.9-4.7-1.3-7.3-1.3
		s-5,0.4-7.3,1.3c-2.3,0.9-4.3,2.1-6.1,3.7c-0.3,0.3-0.4,0.6-0.4,0.9v27.6c0,0.3,0.1,0.6,0.4,0.9
		C440.2,220.2,442.2,221.5,444.5,222.3z"/>
	<path fill="#304D79" d="M526.4,184.8v37.9h4.2v2h-15.9v-2h4.5v-37.9h-21.1v37.9h4.5v2h-15.9v-2h4.2v-37.9h-4.2v-2h11.4h23.6h8.9v2
		H526.4z"/>
	<path fill="#304D79" d="M574,184.4c1.9,1.1,3.4,2.6,4.5,4.5c1.1,1.9,1.7,3.9,1.7,6.2s-0.6,4.3-1.7,6.2c-1.1,1.9-2.6,3.4-4.5,4.5
		c-1.9,1.1-3.9,1.7-6.2,1.7h-11v15.2h4.2v2h-15.6v-2h4.2v-37.9H546v-2h21.8C570,182.8,572.1,183.3,574,184.4z M567.8,205.4
		c1.8,0,3.4-0.4,4.9-1.2c0.5-0.3,0.8-0.7,1.1-1.2c0.3-0.5,0.4-1,0.4-1.6v-10.9v-1.8c0-0.6-0.1-1.2-0.4-1.7c-0.3-0.5-0.7-0.9-1.2-1.2
		c-1.2-0.6-2.8-1-4.7-1h-11v20.6H567.8z"/>
</g>
<g id="XMLID_72_">
	<path fill="#304D79" d="M201.6,292.3l3.9,3.8c-2,2-4.4,3.5-7.1,4.6c-2.7,1.1-5.5,1.6-8.5,1.6c-4,0-7.8-1-11.2-2.9
		c-3.4-2-6.1-4.6-8.1-7.9c-2-3.3-3-6.9-3-10.9c0-3.9,1-7.5,3-10.9c2-3.3,4.7-6,8.1-7.9c3.4-1.9,7.1-2.9,11.2-2.9
		c3,0,5.8,0.5,8.5,1.6c2.7,1.1,5,2.6,7.1,4.5l-3.9,3.8l-1.4-1.4l2.3-2.3c-1.8-1.4-3.7-2.4-5.8-3.1c-2.1-0.7-4.3-1.1-6.7-1.1
		c-2.6,0-5,0.4-7.3,1.3c-2.3,0.9-4.4,2.1-6.2,3.7c-0.3,0.3-0.4,0.6-0.4,0.9v27.6c0,0.3,0.1,0.6,0.4,0.9c1.8,1.6,3.8,2.8,6.2,3.7
		c2.3,0.9,4.7,1.3,7.3,1.3c2.3,0,4.6-0.4,6.7-1.1c2.2-0.7,4.1-1.8,5.8-3.1l-2.3-2.3L201.6,292.3z"/>
	<path fill="#304D79" d="M253.7,268.6v-7.2l-14.8,0.1v37.9h3.6v2h-14.4v-2h3.6v-37.9l-14.8-0.1v7.2h-2v-9.2h40.8v9.2H253.7z"/>
	<path fill="#304D79" d="M294.8,261.5l-18,37.9h3.7v2h-6.5h-3.1v-2h4.1l6.2-13l-16.4-25h-3.8v-2h15.6v2H273l11.6,17.4l8.3-17.4h-3.8
		v-2h6.6h3.1v2H294.8z"/>
	<path fill="#304D79" d="M346.2,289.9c-1.3,2.2-3.3,3.7-5.9,4.5c-2.6,0.8-6.2,1.2-10.8,1.3v4h3.6v1.8h-14.4v-1.8h3.6v-3.9
		c-4.7-0.1-8.4-0.6-11-1.3c-2.7-0.8-4.7-2.3-6-4.5c-1.3-2.2-2-5.4-2-9.7c0-4.3,0.7-7.5,2-9.8c1.4-2.3,3.4-3.8,6.1-4.7
		c2.7-0.9,6.3-1.3,10.9-1.5v-3.1h-3.6v-1.8h14.4v1.8h-3.6v3.1c4.5,0.1,8.1,0.6,10.7,1.5c2.6,0.9,4.6,2.5,5.9,4.7
		c1.3,2.3,2,5.5,2,9.7C348.2,284.5,347.6,287.7,346.2,289.9z M314.3,293.2c2,0.3,4.7,0.5,8.1,0.5v-27.4c-3.3,0.1-6,0.3-8.1,0.7
		s-3.7,1-5,2v22.4C310.6,292.3,312.2,292.9,314.3,293.2z M337.4,267c-2-0.4-4.6-0.6-7.8-0.7v27.4c3.2,0,5.9-0.2,7.9-0.5
		c2-0.3,3.6-0.9,4.9-1.8v-22.4C341,268,339.4,267.3,337.4,267z"/>
	<path fill="#304D79" d="M392.6,299.4v2h-11.2h-4.7v-2h3.5l-9.4-16.1l-10.2,16.1h4.6v2h-8H354v-2h4.6l11.3-17.8l-11.8-20.1h-4v-2
		h11.1h4.8v2h-3.6l9.2,15.8l10-15.8h-4.5v-2h7.9h3.4v2h-4.7l-11,17.5l11.9,20.5H392.6z"/>
	<path fill="#304D79" d="M441.5,299.4v2l-1.2,4.8h-2l1.2-4.8h-11.4h-24h-3.6v-2h3.6v-37.9h-4.2v-2h15.9v2h-4.5v37.9h16.8v-37.9h-4.5
		v-2h15.9v2h-4.2v37.9H441.5z"/>
	<path fill="#304D79" d="M487.7,299.4v2h-16.4v-2h5v-15.2h-9.2c-2.2,0-4.3-0.6-6.2-1.7c-1.9-1.1-3.4-2.6-4.5-4.5
		c-1.1-1.9-1.6-3.9-1.6-6.2v-10.3h-3.6v-2h9.5h3.6v2h-3.6v16.6c0,0.6,0.1,1.1,0.4,1.6c0.3,0.5,0.6,0.9,1.1,1.2
		c1.5,0.8,3.1,1.2,4.9,1.2h9.2l0.1-20.6h-3.6v-2h14.3v2h-3.6v37.9H487.7z"/>
	<path fill="#304D79" d="M555.9,261.5v37.9h4.2v2h-11.4h-22.2h-22.3h-3.6v-2h3.6v-37.9H500v-2h15.9v2h-4.5v37.9h15.1v-37.9h-4.2v-2
		h15.9v2h-4.5v37.9h15v-37.9h-4.5v-2h15.9v2H555.9z"/>
</g>
<g id="XMLID_73_">
	<path fill="#304D79" d="M229.5,368.5v2l-0.6,4.8h-2l0.6-4.8h-11.4h-22.2h-22.3H168v-2h3.6v-37.9h-4.2v-2h15.9v2h-4.5v37.9h15.1
		v-37.9h-4.2v-2h15.9v2h-4.5v37.9h15v-37.9h-4.5v-2h15.9v2h-4.2v37.9H229.5z"/>
	<path fill="#304D79" d="M270.8,347.5c1.9,1.1,3.4,2.6,4.5,4.5c1.1,1.9,1.6,3.9,1.6,6.2c0,2.2-0.5,4.3-1.6,6.2
		c-1.1,1.9-2.6,3.4-4.5,4.5s-3.9,1.7-6.2,1.7h-21.8v-2h3.6v-37.9H238v6.6h-1.8v-8.6h21.5h0.1v2h-4.2v15.2h11
		C266.8,345.8,268.9,346.4,270.8,347.5z M270.5,350.2c-0.3-0.5-0.6-0.9-1.1-1.2c-1.5-0.8-3.1-1.2-4.9-1.2h-11v20.6h11
		c1.9,0,3.4-0.3,4.7-1c0.5-0.3,0.9-0.7,1.2-1.2c0.3-0.5,0.5-1.1,0.5-1.7v-12.7C270.9,351.3,270.8,350.7,270.5,350.2z"/>
	<path fill="#304D79" d="M287.7,370.5v-2h3.6v-37.9h-4.2v-2h15.6v2h-4.2v15.2h9.2c2.2,0,4.3,0.6,6.2,1.7c1.9,1.1,3.4,2.6,4.5,4.5
		c1.1,1.9,1.7,3.9,1.7,6.2c0,2.2-0.6,4.3-1.7,6.2c-1.1,1.9-2.6,3.4-4.5,4.5c-1.9,1.1-3.9,1.7-6.2,1.7H287.7z M298.5,368.5h9.2
		c1.9,0,3.4-0.3,4.7-1c0.5-0.3,0.9-0.7,1.2-1.2c0.3-0.5,0.5-1.1,0.5-1.7v-10.9v-1.8c0-0.6-0.1-1.1-0.4-1.6c-0.3-0.5-0.6-0.9-1.1-1.2
		c-1.5-0.8-3.1-1.2-4.9-1.2h-9.2V368.5z M323.2,368.7h4.2v-38.4h-4.2v-1.8h15.6v1.8h-4.2v38.4h4.2v1.8h-15.6V368.7z"/>
	<path fill="#304D79" d="M354.2,370.5v-2h3.6v-37.9h-4.2v-2h15.6v2H365v15.2h11c2.2,0,4.3,0.6,6.2,1.7c1.9,1.1,3.4,2.6,4.5,4.5
		c1.1,1.9,1.7,3.9,1.7,6.2c0,2.2-0.6,4.3-1.7,6.2c-1.1,1.9-2.6,3.4-4.5,4.5c-1.9,1.1-3.9,1.7-6.2,1.7H354.2z M365,368.5h11
		c1.9,0,3.4-0.3,4.7-1c0.5-0.3,0.9-0.7,1.2-1.2c0.3-0.5,0.4-1.1,0.4-1.7v-10.9v-1.8c0-0.6-0.1-1.1-0.4-1.6c-0.3-0.5-0.6-0.9-1.1-1.2
		c-1.5-0.8-3.1-1.2-4.9-1.2h-11V368.5z"/>
	<path fill="#304D79" d="M423.7,330.9c3.4,1.9,6.1,4.6,8.1,7.9s3,7,3,10.9c0,3.9-1,7.5-3,10.9c-2,3.3-4.7,6-8.1,7.9
		c-3.4,2-7.2,2.9-11.2,2.9c-3,0-5.8-0.5-8.5-1.6c-2.7-1.1-5-2.6-7.1-4.6l3.9-3.8l1.4,1.4l-2.3,2.3c1.7,1.4,3.7,2.4,5.8,3.1
		c2.2,0.7,4.4,1.1,6.7,1.1c2.6,0,5-0.4,7.3-1.3c2.3-0.9,4.3-2.1,6.1-3.7c0.3-0.3,0.4-0.6,0.4-0.9v-12.7H415v3.1h-2v-7.8h2v2.6h11.4
		v-12.9c0-0.3-0.1-0.6-0.4-0.9c-1.8-1.6-3.9-2.8-6.1-3.7c-2.3-0.9-4.7-1.3-7.3-1.3c-2.3,0-4.5,0.4-6.7,1.1c-2.1,0.7-4.1,1.8-5.8,3.1
		l2.3,2.3l-1.4,1.4l-3.9-3.8c2-1.9,4.4-3.4,7.1-4.5c2.7-1.1,5.5-1.6,8.5-1.6C416.6,328,420.3,328.9,423.7,330.9z"/>
	<path fill="#304D79" d="M510.1,349.8c0,3.9-1,7.5-3,10.8c-2,3.3-4.7,6-8.1,7.9c-3.4,2-7.2,2.9-11.2,2.9c-3.9,0-7.6-0.9-10.9-2.8
		c-3.4-1.9-6.1-4.4-8.1-7.5c-2-3.2-3.1-6.6-3.3-10.4h-6.5v17.8h4.5v2h-15.9v-2h4.2v-37.9h-4.2v-2h15.5v2h-4.1v18.1h6.5
		c0.2-3.8,1.3-7.3,3.4-10.4c2-3.1,4.7-5.6,8.1-7.5c3.3-1.8,7-2.8,10.9-2.8c4,0,7.8,1,11.2,2.9c3.4,1.9,6.1,4.6,8.1,7.9
		c2,3.3,3,6.9,3,10.9V349.8L510.1,349.8z M480.5,368.1c2.3,0.9,4.7,1.3,7.3,1.3c2.6,0,5-0.4,7.3-1.3c2.3-0.9,4.3-2.1,6.1-3.7
		c0.3-0.3,0.4-0.6,0.4-0.9v-27.6c0-0.3-0.1-0.6-0.4-0.9c-1.8-1.6-3.8-2.8-6.1-3.7c-2.3-0.9-4.7-1.3-7.3-1.3c-2.6,0-5,0.4-7.3,1.3
		c-2.3,0.9-4.4,2.1-6.2,3.7c-0.3,0.3-0.4,0.6-0.4,0.9v27.6c0,0.3,0.1,0.6,0.4,0.9C476.1,366,478.2,367.2,480.5,368.1z"/>
	<path fill="#304D79" d="M558.5,368.5v2h-15.6v-2h4.2v-15.2h-8.3l-9.6,15.2h4.6v2h-8h-3.3v-2h4.6l9.7-15.2h-0.7
		c-2.2,0-4.3-0.6-6.2-1.7c-1.9-1.1-3.4-2.6-4.5-4.5c-1.1-1.9-1.7-3.9-1.7-6.2s0.5-4.3,1.7-6.2c1.1-1.9,2.6-3.4,4.5-4.5
		c1.9-1.1,3.9-1.7,6.2-1.7h21.8v2h-3.6v37.9H558.5z M547.1,330.6h-11c-1.9,0-3.4,0.3-4.7,1c-0.5,0.3-0.9,0.7-1.2,1.2
		s-0.5,1.1-0.5,1.7v10.9v1.8c0,0.6,0.1,1.1,0.4,1.6c0.3,0.5,0.6,0.9,1.1,1.2c1.5,0.8,3.1,1.2,4.9,1.2h11V330.6z"/>
</g>
<g id="XMLID_76_">
	<path fill="#304D79" d="M302.3,454.6v2h-14.2v-2h2.9l-4.4-12.5H271l-3.5,12.5h2.9v2H265h-3.2v-2h3.8l10.7-38h-3.7v-2h12.3
		l14.1,40.1H302.3z M269.5,407.7c-0.7-0.8-1.1-1.7-1.1-2.7c0-1,0.4-1.9,1.1-2.7c0.7-0.8,1.6-1.1,2.7-1.1c1,0,1.9,0.4,2.7,1.1
		c0.8,0.8,1.1,1.7,1.1,2.7c0,1-0.4,1.9-1.1,2.7c-0.8,0.8-1.7,1.1-2.7,1.1C271.1,408.8,270.2,408.5,269.5,407.7z M286,440.3l-8-23
		l-6.5,23H286z M283.7,407.7c-0.7-0.8-1.1-1.7-1.1-2.7c0-1,0.4-1.9,1.1-2.7c0.7-0.8,1.6-1.1,2.7-1.1c1,0,1.9,0.4,2.7,1.1
		c0.8,0.8,1.1,1.7,1.1,2.7c0,1-0.4,1.9-1.1,2.7c-0.8,0.8-1.7,1.1-2.7,1.1C285.3,408.8,284.5,408.5,283.7,407.7z"/>
	<path fill="#304D79" d="M355.1,435.8c0,3.9-1,7.5-3,10.8c-2,3.3-4.7,6-8.1,7.9s-7.2,2.9-11.2,2.9s-7.8-1-11.2-2.9
		c-3.4-2-6.1-4.6-8.1-7.9c-2-3.3-3-6.9-3-10.8v-0.1v-0.1c0-3.9,1-7.5,3-10.9c2-3.3,4.7-5.9,8.1-7.9c3.4-1.9,7.1-2.9,11.2-2.9
		s7.8,1,11.2,2.9s6.1,4.6,8.1,7.9c2,3.3,3,6.9,3,10.9V435.8L355.1,435.8z M325.5,454.2c2.3,0.9,4.7,1.3,7.3,1.3s5-0.4,7.3-1.3
		c2.3-0.9,4.4-2.1,6.2-3.7c0.3-0.3,0.4-0.6,0.4-0.9V422c0-0.3-0.1-0.6-0.4-0.9c-1.8-1.6-3.9-2.8-6.2-3.7c-2.3-0.9-4.7-1.3-7.3-1.3
		s-5,0.4-7.3,1.3c-2.3,0.9-4.4,2.1-6.2,3.7c-0.3,0.3-0.4,0.6-0.4,0.9v27.6c0,0.3,0.1,0.6,0.4,0.9
		C321.1,452.1,323.2,453.3,325.5,454.2z M323,408.4c-0.7-0.8-1.1-1.7-1.1-2.7c0-1,0.4-1.9,1.1-2.7c0.7-0.8,1.6-1.1,2.7-1.1
		c1,0,1.9,0.4,2.7,1.1c0.8,0.8,1.1,1.7,1.1,2.7c0,1-0.4,1.9-1.1,2.7c-0.8,0.8-1.7,1.1-2.7,1.1C324.6,409.5,323.7,409.1,323,408.4z
		 M337.2,408.4c-0.7-0.8-1.1-1.7-1.1-2.7c0-1,0.4-1.9,1.1-2.7s1.6-1.1,2.7-1.1s1.9,0.4,2.7,1.1c0.8,0.8,1.1,1.7,1.1,2.7
		c0,1-0.4,1.9-1.1,2.7c-0.8,0.8-1.7,1.1-2.7,1.1S337.9,409.1,337.2,408.4z"/>
	<path fill="#304D79" d="M411.4,416.6h-3.6v20.9c0,4.2-0.9,7.7-2.8,10.7c-1.9,3-4.3,5.3-7.2,6.8c-2.9,1.5-6,2.3-9.3,2.4
		c-3.2,0-6.3-0.8-9.3-2.4c-2.9-1.5-5.3-3.8-7.2-6.8s-2.8-6.6-2.8-10.7v-20.9h-3.6v-2h10.8h3.6v2h-3.6V450v0.1c0,0.3,0.1,0.6,0.4,0.8
		c1.6,1.4,3.4,2.5,5.4,3.3s4.1,1.2,6.3,1.2c2.2,0,4.3-0.4,6.3-1.2s3.8-1.9,5.4-3.3c0.3-0.3,0.4-0.6,0.4-1v-33.4H397v-2h14.4V416.6z
		 M378.7,407.1c-0.7-0.8-1.1-1.7-1.1-2.7c0-1,0.4-1.9,1.1-2.7c0.7-0.8,1.6-1.1,2.7-1.1c1,0,1.9,0.4,2.7,1.1c0.8,0.8,1.1,1.7,1.1,2.7
		c0,1-0.4,1.9-1.1,2.7c-0.8,0.8-1.7,1.1-2.7,1.1C380.3,408.2,379.4,407.9,378.7,407.1z M392.9,407.1c-0.7-0.8-1.1-1.7-1.1-2.7
		c0-1,0.4-1.9,1.1-2.7c0.7-0.8,1.6-1.1,2.7-1.1s1.9,0.4,2.7,1.1c0.8,0.8,1.1,1.7,1.1,2.7c0,1-0.4,1.9-1.1,2.7
		c-0.8,0.8-1.7,1.1-2.7,1.1S393.7,407.9,392.9,407.1z"/>
	<path fill="#304D79" d="M458.3,454.6v2h-14.2v-2h2.9l-4.4-12.5H427l-3.5,12.5h2.9v2H421h-3.2v-2h3.8l10.7-38h-3.7v-2h12.3
		l14.1,40.1H458.3z M442,440.3l-8-23l-6.5,23H442z M439.3,397.8c1,0.5,1.9,1.2,2.6,2.2c0.7,1,1,2.2,1,3.6s-0.3,2.6-1,3.6
		c-0.7,1-1.5,1.7-2.6,2.2c-1,0.5-2.1,0.8-3.2,0.8s-2.1-0.2-3.2-0.8c-1-0.5-1.9-1.2-2.6-2.2c-0.7-1-1-2.2-1-3.6s0.3-2.6,1-3.6
		c0.7-1,1.5-1.7,2.6-2.2c1-0.5,2.1-0.8,3.2-0.8S438.3,397.3,439.3,397.8z M439.6,406.7c0.9-0.9,1.3-1.9,1.3-3.2s-0.4-2.3-1.3-3.2
		c-0.9-0.9-2-1.3-3.5-1.3c-1.4,0-2.6,0.4-3.5,1.3s-1.3,1.9-1.3,3.2s0.4,2.3,1.3,3.2c0.9,0.9,2,1.3,3.5,1.3
		C437.6,408.1,438.7,407.6,439.6,406.7z"/>
</g>
</svg>
