<svg enable-background="new 0 0 183.3 49.4" viewBox="0 0 183.3 49.4" xmlns="http://www.w3.org/2000/svg"><path d="m.4 39.5h1.7v-17.8h-1.7v-1h7.9c1.9 0 3.6.4 5.2 1.3s2.9 2 3.8 3.5 1.4 3.2 1.4 5-.5 3.5-1.4 5-2.2 2.7-3.8 3.5c-1.6.9-3.3 1.3-5.2 1.3h-7.9zm8 0c1.7 0 3.3-.4 4.8-1.2 1.4-.8 2.6-1.8 3.4-3.2.8-1.3 1.3-2.9 1.3-4.5 0-1.7-.4-3.2-1.3-4.5-.8-1.4-2-2.4-3.4-3.2s-3-1.2-4.8-1.2h-2.9v17.7h2.9z"/><path d="m43 30.7c0 1.8-.5 3.5-1.4 5.1s-2.2 2.8-3.8 3.7-3.3 1.4-5.2 1.4-3.6-.5-5.2-1.4-2.9-2.2-3.8-3.7-1.4-3.2-1.4-5.1c0-1.8.5-3.5 1.4-5.1s2.2-2.8 3.8-3.7 3.3-1.4 5.2-1.4 3.6.5 5.2 1.4 2.9 2.1 3.8 3.7c1 1.5 1.4 3.2 1.4 5.1zm-13.8 8.6c1.1.4 2.2.6 3.4.6s2.3-.2 3.4-.6 2-1 2.9-1.7c.1-.1.2-.3.2-.4v-13c0-.1-.1-.3-.2-.4-.8-.7-1.8-1.3-2.9-1.7s-2.2-.6-3.4-.6-2.3.2-3.4.6-2 1-2.9 1.7c-.1.1-.2.3-.2.4v12.9c0 .2.1.3.2.4.9.8 1.8 1.4 2.9 1.8z"/><path d="m77 21.7h-1.9l-5.9 18.8h-3.6l-4.2-11.4-3.6 11.4h-3.6l-6.9-18.8h-2v-1h6.9v1h-1.2l6.4 17.6 3.6-11.4-2.3-6.1h-2v-1h6.9v1h-1.2l6.4 17.6 5.5-17.6h-1.4v-1h4.1z"/><path d="m97.7 20.8v1h-1.7v18.8l-14.5-14.3v13.2h1.7v1h-4.3v-1h1.7v-17.8h-1.7v-1h2.6l13.6 13.6v-12.6h-1.7v-1h4.3z"/><path d="m101.4 39.5h1.7v-17.8h-1.7v-1h7.2v1h-2.1v17.7h9.3v-2.9h1v3.9h-15.3v-.9z"/><path d="m140.8 30.7c0 1.8-.5 3.5-1.4 5.1s-2.2 2.8-3.8 3.7-3.3 1.4-5.2 1.4-3.6-.5-5.2-1.4-2.9-2.2-3.8-3.7-1.4-3.2-1.4-5.1c0-1.8.5-3.5 1.4-5.1s2.2-2.8 3.8-3.7 3.3-1.4 5.2-1.4 3.6.5 5.2 1.4 2.9 2.1 3.8 3.7c1 1.5 1.4 3.2 1.4 5.1zm-13.8 8.6c1.1.4 2.2.6 3.4.6s2.3-.2 3.4-.6 2-1 2.9-1.7c.1-.1.2-.3.2-.4v-13c0-.1-.1-.3-.2-.4-.8-.7-1.8-1.3-2.9-1.7s-2.2-.6-3.4-.6-2.3.2-3.4.6-2 1-2.9 1.7c-.1.1-.2.3-.2.4v12.9c0 .2.1.3.2.4.8.8 1.8 1.4 2.9 1.8z"/><path d="m162 39.5v1h-6.6v-1h1.3l-2-5.8h-7.3l-1.6 5.8h1.4v1h-2.6-1.5v-1h1.8l5-17.8h-1.7v-1h5.8l6.6 18.7h1.4zm-7.6-6.7-3.7-10.8-3 10.8z"/><path d="m165 39.5h1.7v-17.8h-1.7v-1h7.9c1.9 0 3.6.4 5.2 1.3s2.9 2 3.8 3.5 1.4 3.2 1.4 5-.5 3.5-1.4 5-2.2 2.7-3.8 3.5c-1.6.9-3.3 1.3-5.2 1.3h-7.9zm7.9 0c1.7 0 3.3-.4 4.8-1.2 1.4-.8 2.6-1.8 3.4-3.2.8-1.3 1.3-2.9 1.3-4.5 0-1.7-.4-3.2-1.3-4.5-.8-1.4-2-2.4-3.4-3.2s-3-1.2-4.8-1.2h-2.9v17.7h2.9z"/></svg>