<?xml version="1.0" encoding="utf-8"?>
<!-- Generator: Adobe Illustrator 19.0.0, SVG Export Plug-In . SVG Version: 6.00 Build 0)  -->
<svg version="1.1" id="Layer_1" xmlns="http://www.w3.org/2000/svg" xmlns:xlink="http://www.w3.org/1999/xlink" x="0px" y="0px"
	 viewBox="0 0 183.3 49.4" enable-background="new 0 0 183.3 49.4" xml:space="preserve">
<g id="XMLID_67_">
	<path id="XMLID_69_" d="M0.4,39.5h1.7V21.7H0.4v-1h7.9c1.9,0,3.6,0.4,5.2,1.3c1.6,0.9,2.9,2,3.8,3.5c0.9,1.5,1.4,3.2,1.4,5
		s-0.5,3.5-1.4,5c-0.9,1.5-2.2,2.7-3.8,3.5c-1.6,0.9-3.3,1.3-5.2,1.3H0.4V39.5z M8.4,39.5c1.7,0,3.3-0.4,4.8-1.2
		c1.4-0.8,2.6-1.8,3.4-3.2c0.8-1.3,1.3-2.9,1.3-4.5c0-1.7-0.4-3.2-1.3-4.5c-0.8-1.4-2-2.4-3.4-3.2s-3-1.2-4.8-1.2H5.5v17.7H8.4z"/>
	<path id="XMLID_72_" d="M43,30.7c0,1.8-0.5,3.5-1.4,5.1c-0.9,1.6-2.2,2.8-3.8,3.7c-1.6,0.9-3.3,1.4-5.2,1.4c-1.9,0-3.6-0.5-5.2-1.4
		c-1.6-0.9-2.9-2.2-3.8-3.7s-1.4-3.2-1.4-5.1v0v0c0-1.8,0.5-3.5,1.4-5.1c0.9-1.6,2.2-2.8,3.8-3.7c1.6-0.9,3.3-1.4,5.2-1.4
		c1.9,0,3.6,0.5,5.2,1.4c1.6,0.9,2.9,2.1,3.8,3.7C42.6,27.1,43,28.8,43,30.7L43,30.7L43,30.7z M29.2,39.3c1.1,0.4,2.2,0.6,3.4,0.6
		c1.2,0,2.3-0.2,3.4-0.6s2-1,2.9-1.7c0.1-0.1,0.2-0.3,0.2-0.4V24.2c0-0.1-0.1-0.3-0.2-0.4c-0.8-0.7-1.8-1.3-2.9-1.7
		c-1.1-0.4-2.2-0.6-3.4-0.6c-1.2,0-2.3,0.2-3.4,0.6c-1.1,0.4-2,1-2.9,1.7c-0.1,0.1-0.2,0.3-0.2,0.4v12.9c0,0.2,0.1,0.3,0.2,0.4
		C27.2,38.3,28.1,38.9,29.2,39.3z"/>
	<path id="XMLID_75_" d="M77,21.7h-1.9l-5.9,18.8h-3.6l-4.2-11.4l-3.6,11.4h-3.6l-6.9-18.8h-2v-1h6.9v1h-1.2l6.4,17.6l3.6-11.4
		l-2.3-6.1h-2v-1h6.9v1h-1.2l6.4,17.6l5.5-17.6h-1.4v-1H77V21.7z"/>
	<path id="XMLID_77_" d="M97.7,20.8v1H96v18.8H96L81.5,26.3v13.2h1.7v1h-4.3v-1h1.7V21.7h-1.7v-1h2.6l13.6,13.6h0V21.7h-1.7v-1H97.7
		z"/>
	<path id="XMLID_79_" d="M101.4,39.5h1.7V21.7h-1.7v-1h7.2v1h-2.1v17.7h9.3v-2.9h1v3.9h-15.3V39.5z"/>
	<path id="XMLID_81_" d="M140.8,30.7c0,1.8-0.5,3.5-1.4,5.1c-0.9,1.6-2.2,2.8-3.8,3.7c-1.6,0.9-3.3,1.4-5.2,1.4
		c-1.9,0-3.6-0.5-5.2-1.4c-1.6-0.9-2.9-2.2-3.8-3.7s-1.4-3.2-1.4-5.1v0v0c0-1.8,0.5-3.5,1.4-5.1c0.9-1.6,2.2-2.8,3.8-3.7
		s3.3-1.4,5.2-1.4c1.9,0,3.6,0.5,5.2,1.4c1.6,0.9,2.9,2.1,3.8,3.7C140.4,27.1,140.8,28.8,140.8,30.7L140.8,30.7L140.8,30.7z
		 M127,39.3c1.1,0.4,2.2,0.6,3.4,0.6c1.2,0,2.3-0.2,3.4-0.6c1.1-0.4,2-1,2.9-1.7c0.1-0.1,0.2-0.3,0.2-0.4V24.2
		c0-0.1-0.1-0.3-0.2-0.4c-0.8-0.7-1.8-1.3-2.9-1.7c-1.1-0.4-2.2-0.6-3.4-0.6c-1.2,0-2.3,0.2-3.4,0.6c-1.1,0.4-2,1-2.9,1.7
		c-0.1,0.1-0.2,0.3-0.2,0.4v12.9c0,0.2,0.1,0.3,0.2,0.4C124.9,38.3,125.9,38.9,127,39.3z"/>
	<path id="XMLID_84_" d="M162,39.5v1h-6.6v-1h1.3l-2-5.8h-7.3l-1.6,5.8h1.4v1h-2.6h-1.5v-1h1.8l5-17.8h-1.7v-1h5.8l6.6,18.7H162z
		 M154.4,32.8L150.7,22l-3,10.8H154.4z"/>
	<path id="XMLID_87_" d="M165,39.5h1.7V21.7H165v-1h7.9c1.9,0,3.6,0.4,5.2,1.3c1.6,0.9,2.9,2,3.8,3.5c0.9,1.5,1.4,3.2,1.4,5
		s-0.5,3.5-1.4,5c-0.9,1.5-2.2,2.7-3.8,3.5c-1.6,0.9-3.3,1.3-5.2,1.3H165V39.5z M172.9,39.5c1.7,0,3.3-0.4,4.8-1.2
		c1.4-0.8,2.6-1.8,3.4-3.2c0.8-1.3,1.3-2.9,1.3-4.5c0-1.7-0.4-3.2-1.3-4.5c-0.8-1.4-2-2.4-3.4-3.2s-3-1.2-4.8-1.2H170v17.7H172.9z"
		/>
</g>
</svg>
