<svg enable-background="new 0 0 468.2 560" viewBox="0 0 468.2 560" xmlns="http://www.w3.org/2000/svg" xmlns:xlink="http://www.w3.org/1999/xlink"><clipPath id="a"><path d="m20.1 25.1h426.9v510.9h-426.9z"/></clipPath><clipPath id="b"><path d="m23.1 66.7h422.4v39.3h-422.4z"/></clipPath><g fill="#1d1d1b"><path clip-path="url(#a)" d="m394.1 168.5h9v-2.1h-3.7v-37.8l16.5 40.1h1.4l16-37.8v35.6h-3.5v2.1h14.9v-2.1h-3.5v-38.6h3.5v-2.1h-11.4l-13.7 32.8-13.5-32.8h-12.7v2.1h3.9l.4 38.6h-3.7v2zm-37.4-16.6 6.6-23.4 8.2 23.4zm27.9 14.5-14.3-40.7h-12.5v2.1h3.8l-10.9 38.7h-3.9v2.1h3.3 5.6v-2.1h-3l3.5-12.7h15.9l4.5 12.7h-2.9v2.1h14.3v-2.1h-3.4zm-68 0v-38.6h6.2c3.7 0 7.2.8 10.3 2.5 3.2 1.7 5.6 4 7.5 7 1.8 2.9 2.7 6.2 2.7 9.9 0 3.6-.9 6.9-2.7 9.8s-4.3 5.2-7.5 6.9-6.6 2.5-10.3 2.5zm-10.9 2.1h17.2c4.1 0 7.9-.9 11.4-2.8s6.2-4.4 8.3-7.7c2-3.2 3-6.8 3-10.8s-1-7.6-3-10.9-4.8-5.8-8.3-7.7-7.3-2.8-11.4-2.8h-17.2v2.1h3.7v38.6h-3.7zm-35.2-19.7v-21h11.2c1.9 0 3.5.3 4.8 1 .5.3.9.7 1.2 1.2s.5 1.1.5 1.7v1.8 11.1c0 .6-.1 1.2-.4 1.6-.3.5-.6.9-1.1 1.2-1.5.8-3.2 1.2-4.9 1.2h-11.3zm22.7 17.6v-9.9c0-1.9-.5-3.4-1.4-4.7-1-1.2-2.1-2.2-3.4-2.9 1.8-1.1 3.2-2.6 4.2-4.5s1.6-3.9 1.6-6.1c0-2.3-.6-4.4-1.7-6.3s-2.6-3.4-4.5-4.6c-1.9-1.1-4-1.7-6.3-1.7h-22.1v2.1h3.7v38.6h-4.3v2.1h15.9v-2.1h-4.3v-15.5h11.2c1.5 0 2.9-.2 4.2-.7v9.8c0 2.5.7 4.6 2.1 6.1 1.4 1.6 3.1 2.3 5.2 2.3h3.7v-2.1h-3.8zm-76.4 2.1h32.6v-8.8h-1.8v6.7h-19.8v-18.4h12.4v-1.8h-12.4v-18.3h19.8v6.7h1.8v-8.8h-32.6v2.1h3.7l-.1 38.6h-3.7v2zm-8.3-33.4v-9.3h-41.5v9.3h2.1v-7.3l15 .1v38.6h-3.7v2.1h14.6v-2.1h-3.7v-38.6l15-.1v7.3zm-53.6 11.5-16.3-7.9c-.2-.1-.8-.4-1.7-.9s-1.7-1-2.4-1.6-1.1-1.3-1.1-2.2.6-2 1.8-3.1 2.9-2.1 5.1-2.8c2.2-.8 4.7-1.2 7.6-1.2 2.2 0 4.3.4 6.3 1.2s3.8 1.9 5.4 3.2l-2.6 2.6 1.5 1.5 4-3.9c-1.6-2-3.8-3.6-6.5-4.8s-5.4-1.8-8-1.8c-3.2 0-6.2.6-9 1.7s-5 2.6-6.6 4.5c-1.6 1.8-2.5 3.9-2.5 6 0 1.9.5 3.5 1.5 4.7s2.6 2.5 4.9 3.7l19.1 9.4c1.5.8 2.7 1.5 3.6 2.3s1.3 1.6 1.3 2.6c0 1.5-.7 2.8-2.1 4s-3.2 2.1-5.5 2.7-4.6.9-7 .9c-3.5 0-6.3-.7-8.6-2.2-2.3-1.4-4.4-3.6-6.2-6.4l3.2-3.2-1.6-1.3-4.2 4.1c3.9 7.4 9.9 11 17.9 11 3.2 0 6.1-.5 8.8-1.4 2.6-1 4.7-2.4 6.3-4.2 1.6-1.9 2.3-4.1 2.3-6.7 0-1.8-.4-3.4-1.2-4.7s-1.8-2.4-3-3.2c-1.3-.9-2.8-1.7-4.5-2.6m-84.3 21.9h9v-2.1h-3.7v-37.8l16.5 40.1h1.4l16-37.8v35.6h-3.5v2.1h14.9v-2.1h-3.5v-38.6h3.5v-2.1h-11.4l-13.7 32.8-13.5-32.8h-12.6v2.1h3.9l.4 38.6h-3.7zm-37.4-16.6 6.6-23.4 8.2 23.4zm27.9 14.5-14.3-40.7h-12.5v2.1h3.8l-10.9 38.7h-3.9v2.1h3.3 5.6v-2.1h-3l3.5-12.7h15.9l4.5 12.7h-2.9v2.1h14.4v-2.1h-3.5z"/><path clip-path="url(#a)" d="m443.2 466.8-6.1-3c-.1 0-.3-.2-.6-.3-.3-.2-.6-.4-.9-.6s-.4-.5-.4-.8c0-.4.2-.7.7-1.2.5-.4 1.1-.8 1.9-1.1s1.8-.4 2.9-.4c.8 0 1.6.2 2.4.5s1.4.7 2 1.2l-1 1 .6.6 1.5-1.5c-.6-.8-1.4-1.4-2.5-1.8-1-.4-2-.7-3-.7-1.2 0-2.3.2-3.4.6s-1.9 1-2.5 1.7-.9 1.5-.9 2.3c0 .7.2 1.3.6 1.8s1 .9 1.8 1.4l7.2 3.5c.6.3 1 .6 1.3.9s.5.6.5 1c0 .6-.3 1-.8 1.5-.5.4-1.2.8-2.1 1s-1.7.4-2.6.4c-1.3 0-2.4-.3-3.3-.8s-1.6-1.4-2.3-2.4l1.2-1.2-.6-.5-1.6 1.5c1.5 2.8 3.7 4.2 6.8 4.2 1.2 0 2.3-.2 3.3-.5 1-.4 1.8-.9 2.4-1.6s.9-1.5.9-2.5c0-.7-.2-1.3-.5-1.8s-.7-.9-1.1-1.2c-.6-.6-1.1-.9-1.8-1.2m-22.3 7.5v-14.5h2.3c1.4 0 2.7.3 3.9 1 1.2.6 2.1 1.5 2.8 2.6s1 2.4 1 3.7c0 1.4-.3 2.6-1 3.7s-1.6 2-2.8 2.6-2.5.9-3.9.9zm-4.1.7h6.5c1.5 0 3-.4 4.3-1.1s2.4-1.7 3.1-2.9c.8-1.2 1.1-2.6 1.1-4.1s-.4-2.9-1.1-4.1c-.8-1.2-1.8-2.2-3.1-2.9s-2.7-1.1-4.3-1.1h-6.5v.8h1.4v14.5h-1.4zm-6.5-16.1v.8h1.4v10.4l-11.2-11.1h-2.2v.8h1.4v14.5h-1.4v.8h3.5v-.8h-1.4v-10.8l11.9 11.7v-15.4h1.4v-.8h-3.4zm-25.8 9.9 2.5-8.8 3.1 8.8zm10.6 5.5-5.4-15.4h-4.7v.8h1.4l-4.1 14.6h-1.5v.8h1.2 2.1v-.8h-1.1l1.3-4.8h6l1.7 4.8h-1.1v.8h5.4v-.8zm-28.4.7h12.6v-3.2h-.8v2.4h-7.7v-14.5h1.7v-.8h-5.9v.8h1.4v14.5h-1.4v.8zm-13.3-7.4v-7.9h4.2c.7 0 1.3.1 1.8.4.2.1.4.3.5.5s.2.4.2.7v.7 4.2c0 .2 0 .4-.1.6s-.2.3-.4.5c-.6.3-1.2.5-1.9.5h-4.3zm8.6 6.7v-3.7c0-.7-.2-1.3-.5-1.8-.4-.5-.8-.8-1.3-1.1.7-.4 1.2-1 1.6-1.7s.6-1.5.6-2.3c0-.9-.2-1.6-.6-2.4s-1-1.3-1.7-1.7-1.5-.6-2.4-.6h-8.3v.8h1.4v14.5h-1.6v.8h6v-.8h-1.6v-5.8h4.2c.6 0 1.1-.1 1.6-.3v3.7c0 1 .3 1.7.8 2.3s1.2.9 2 .9h1.4v-.8zm-28.8.7h12.3v-3.3h-.7v2.5h-7.5v-6.9h4.7v-.7h-4.7v-6.9h7.5v2.5h.7v-3.3h-12.3v.8h1.4v14.5h-1.4zm-21 0v-.8h1.6v-14.5h-1.6v-.8h6.1v.8h-1.7v6.9h8.1v-6.9h-1.7v-.8h6.1v.8h-1.6v14.5h1.6v.8h-6.1v-.8h1.7v-6.9h-8.1v6.9h1.7v.8zm-3.1-12.5v-3.5h-15.6v3.5h.8v-2.8h5.7v14.5h-1.4v.8h5.5v-.8h-1.4v-14.5h5.7v2.8zm-30.4 12.5h12.3v-3.3h-.7v2.5h-7.5v-6.9h4.7v-.7h-4.7v-6.9h7.5v2.5h.7v-3.3h-12.3v.8h1.4v14.5h-1.4zm-6.5-16.1v.8h1.4v10.4l-11.2-11.1h-2.2v.8h1.4v14.5h-1.4v.8h3.5v-.8h-1.4v-10.8l11.9 11.7v-15.4h1.4v-.8h-3.4zm-36.2 16.1h12.3v-3.3h-.7v2.5h-7.5v-6.9h4.7v-.7h-4.7v-6.9h7.5v2.5h.7v-3.3h-12.3v.8h1.4v14.5h-1.4zm-20.9 0v-.8h1.6v-14.5h-1.6v-.8h6.1v.8h-1.7v6.9h8.1v-6.9h-1.7v-.8h6.1v.8h-1.6v14.5h1.6v.8h-6.1v-.8h1.7v-6.9h-8.1v6.9h1.7v.8zm-3.1-12.5v-3.5h-15.6v3.5h.8v-2.8h5.7v14.5h-1.4v.8h5.5v-.8h-1.4v-14.5h5.7v2.8zm-36.7 12.5h6v-.8h-1.9v-6.9h3.7v-.7h-3.6v-6.9h6.9v2.5h.7v-3.3h-11.7v.8h1.4v14.5h-1.4v.8zm-17-2.3c-.1-.1-.2-.2-.2-.3v-10.6c0-.1.1-.2.2-.3.7-.6 1.5-1.1 2.4-1.4s1.8-.5 2.8-.5 1.9.2 2.8.5 1.7.8 2.4 1.4c.1.1.2.2.2.3v10.6c0 .1-.1.2-.2.3-.7.6-1.5 1.1-2.4 1.4s-1.8.5-2.8.5-1.9-.2-2.8-.5c-1-.3-1.8-.8-2.4-1.4m13.7-5.6c0-1.5-.4-2.9-1.1-4.2-.8-1.3-1.8-2.3-3.1-3s-2.7-1.1-4.3-1.1c-1.5 0-3 .4-4.3 1.1s-2.3 1.8-3.1 3c-.8 1.3-1.1 2.7-1.1 4.2s.4 2.9 1.1 4.1c.8 1.3 1.8 2.3 3.1 3 1.3.8 2.7 1.1 4.3 1.1 1.5 0 3-.4 4.3-1.1 1.3-.8 2.4-1.8 3.1-3s1.1-2.6 1.1-4.1zm-49 7.9h3.4v-.8h-1.4v-14.2l6.2 15.1h.5l6-14.3v13.4h-1.3v.8h5.6v-.8h-1.3v-14.5h1.3v-.8h-4.3l-5.2 12.4-5.1-12.4h-4.8v.8h1.5l.1 14.5h-1.2zm-16.1-2.3c-.1-.1-.2-.2-.2-.3v-10.6c0-.1.1-.2.2-.3.7-.6 1.5-1.1 2.4-1.4s1.8-.5 2.8-.5 1.9.2 2.8.5 1.7.8 2.4 1.4c.1.1.2.2.2.3v10.6c0 .1-.1.2-.2.3-.7.6-1.5 1.1-2.4 1.4s-1.8.5-2.8.5-1.9-.2-2.8-.5-1.7-.8-2.4-1.4m13.8-5.6c0-1.5-.4-2.9-1.2-4.2s-1.8-2.3-3.1-3-2.7-1.1-4.3-1.1c-1.5 0-3 .4-4.3 1.1s-2.4 1.8-3.1 3-1.2 2.7-1.2 4.2.4 2.9 1.2 4.1 1.8 2.3 3.1 3c1.3.8 2.7 1.1 4.3 1.1 1.5 0 3-.4 4.3-1.1 1.3-.8 2.3-1.8 3.1-3s1.2-2.6 1.2-4.1zm-30.4 7.2v-14.5h2.3c1.4 0 2.7.3 3.9 1 1.2.6 2.1 1.5 2.8 2.6s1 2.4 1 3.7c0 1.4-.3 2.6-1 3.7s-1.6 2-2.8 2.6-2.5.9-3.9.9zm-4.1.7h6.5c1.5 0 3-.4 4.3-1.1s2.3-1.7 3.1-2.9 1.2-2.6 1.2-4.1-.4-2.9-1.2-4.1-1.8-2.2-3.1-2.9-2.7-1.1-4.3-1.1h-6.5v.8h1.4v14.5h-1.4zm-2.6-7.1h-5.3v.7h2.1v3.7c0 .1-.1.2-.2.3-.7.6-1.5 1.1-2.4 1.4s-1.8.5-2.8.5-1.9-.2-2.8-.5-1.7-.8-2.4-1.4c-.1-.1-.2-.2-.2-.3v-10.6c0-.1.1-.2.2-.3.7-.6 1.5-1.1 2.4-1.4s1.8-.5 2.8-.5c1.5 0 2.9.4 4.2 1.2l-1.1 1.1.6.6 1.8-1.7c-.8-.6-1.6-1.1-2.5-1.4s-1.9-.5-2.9-.5c-1.5 0-3 .4-4.3 1.1s-2.3 1.8-3.1 3c-.8 1.3-1.2 2.7-1.2 4.2s.4 2.9 1.2 4.2 1.8 2.3 3.1 3c1.3.8 2.7 1.1 4.3 1.1 1.4 0 2.8-.3 4-1s2.3-1.6 3.1-2.7c.7-1.1 1.2-2.4 1.4-3.8m-23.3-9v.8h1.4v10.4l-11.2-11.1h-2.2v.8h1.4v14.5h-1.4v.8h3.5v-.8h-1.4v-10.8l11.9 11.7v-15.4h1.4v-.8h-3.4zm-21.4 16.1v-.7h1.6v-14.7h-1.6v-.7h6v.7h-1.6v14.7h1.6v.7zm-2.5-.7-6.8-9.2 5-5.4h1.3v-.8h-3.5v.8h1.1l-7.5 7.7v-7.7h1.4v-.8h-5.5v.8h1.4v14.5h-1.4v.8h5.5v-.8h-1.4v-5.9l1.6-1.4 5.6 7.3h-.9v.8h5.7v-.8h-1.6z"/><path clip-path="url(#a)" d="m440.9 274.3v-7h-31.3v7h1.6v-5.5h11.3v29.1h-2.8v1.6h11v-1.6h-2.7v-29.1h11.3v5.5zm-69.3 25.1v-1.6h3.2v-29.1h-3.2v-1.6h12.2v1.6h-3.4v13.8h16.1v-13.8h-3.5v-1.6h12.2v1.6h-3.2v29.1h3.2v1.6h-12.2v-1.6h3.5v-13.8h-16.1v13.8h3.4v1.6zm-8.9-5.8 1.8 1.8c-1.3 1-2.8 1.8-4.5 2.4s-3.4.8-5.2.8c-2 0-3.8-.3-5.6-1s-3.3-1.6-4.7-2.8c-.2-.2-.3-.4-.3-.7v-21.2c0-.2.1-.5.3-.7 1.4-1.2 3-2.2 4.7-2.8 1.8-.7 3.6-1 5.6-1 1.8 0 3.5.3 5.1.8s3.1 1.3 4.5 2.4l-1.7 1.7 1.1 1.1 3-2.9c-1.6-1.5-3.4-2.6-5.4-3.5-2.1-.8-4.2-1.2-6.5-1.2-3.1 0-6 .7-8.6 2.2s-4.7 3.5-6.2 6.1-2.3 5.3-2.3 8.3.8 5.8 2.3 8.3 3.6 4.6 6.2 6.1 5.5 2.3 8.6 2.3c2.3 0 4.4-.4 6.5-1.2s3.9-2 5.4-3.5l-3-2.9zm-51.8-6.7 5-17.7 6.2 17.7zm21.1 11-10.8-30.7h-9.4v1.6h2.9l-8.2 29.2h-2.9v1.6h2.5 4.2v-1.6h-2.3l2.7-9.6h12l3.4 9.6h-2.2v1.6h10.9v-1.6h-2.8zm-51.7-13.3v-15.8h8.4c1.4 0 2.6.2 3.6.7.4.2.7.6.9.9.2.4.3.8.3 1.3v1.4 8.4c0 .5-.1.9-.3 1.2-.2.4-.5.7-.9.9-1.1.6-2.4.9-3.7.9h-8.3zm17.2 13.3v-7.5c0-1.4-.4-2.6-1.1-3.5s-1.6-1.7-2.6-2.2c1.3-.9 2.4-2 3.2-3.4s1.2-2.9 1.2-4.6-.4-3.3-1.3-4.7c-.8-1.4-2-2.6-3.4-3.4-1.4-.9-3-1.3-4.7-1.3h-16.7v1.6h2.8v29.1h-3.2v1.6h12v-1.6h-3.2v-11.7h8.4c1.1 0 2.2-.2 3.2-.6v7.4c0 1.9.5 3.4 1.6 4.6s2.4 1.8 3.9 1.8h2.8v-1.6zm-31.2-12.7h-10.5v1.4h4.1v7.4c0 .2-.1.5-.3.7-1.4 1.2-3 2.2-4.7 2.8-1.8.7-3.6 1-5.6 1s-3.8-.3-5.6-1-3.3-1.6-4.7-2.8c-.2-.2-.3-.4-.3-.7v-21.2c0-.2.1-.5.3-.7 1.4-1.2 3-2.2 4.7-2.8 1.8-.7 3.6-1 5.6-1 3 0 5.9.8 8.5 2.4l-2.3 2.2 1.1 1.1 3.6-3.5c-1.5-1.2-3.2-2.2-5.1-2.8-1.9-.7-3.8-1-5.8-1-3.1 0-6 .7-8.6 2.2s-4.7 3.5-6.2 6.1-2.3 5.3-2.3 8.3.8 5.8 2.3 8.3 3.6 4.6 6.2 6.1 5.5 2.3 8.6 2.3c2.9 0 5.6-.7 8.1-2s4.5-3.1 6.1-5.4c1.6-2.1 2.5-4.6 2.8-7.4m-46.5-2.2-12.3-6c-.2-.1-.6-.3-1.3-.7s-1.3-.8-1.8-1.2c-.6-.4-.8-1-.8-1.7s.5-1.5 1.4-2.3 2.2-1.6 3.8-2.1c1.7-.6 3.6-.9 5.7-.9 1.7 0 3.2.3 4.7.9s2.9 1.4 4.1 2.4l-2 1.9 1.1 1.1 3-2.9c-1.2-1.5-2.9-2.7-4.9-3.6-2.1-.9-4.1-1.3-6-1.3-2.4 0-4.7.4-6.8 1.3-2.1.8-3.8 2-5 3.4s-1.9 2.9-1.9 4.5c0 1.4.4 2.6 1.1 3.6.7.9 2 1.9 3.7 2.8l14.4 7.1c1.1.6 2 1.2 2.7 1.7.7.6 1 1.2 1 1.9 0 1.1-.5 2.1-1.6 3s-2.4 1.6-4.1 2c-1.7.5-3.5.7-5.3.7-2.6 0-4.8-.5-6.5-1.6s-3.3-2.7-4.7-4.9l2.4-2.4-1.2-1-3.2 3.1c3 5.6 7.5 8.3 13.5 8.3 2.4 0 4.6-.4 6.6-1.1s3.6-1.8 4.8-3.2 1.8-3.1 1.8-5.1c0-1.4-.3-2.6-.9-3.5-.6-1-1.4-1.8-2.2-2.4-.9-.6-2-1.2-3.3-1.8m-44.5 1.6v-15.8h8.4c1.4 0 2.6.2 3.6.7.4.2.7.6.9.9.2.4.3.8.3 1.3v1.4 8.4c0 .5-.1.9-.3 1.2-.2.4-.5.7-.9.9-1.1.6-2.4.9-3.7.9h-8.3zm17.1 13.3v-7.5c0-1.4-.4-2.6-1.1-3.5s-1.6-1.7-2.6-2.2c1.3-.9 2.4-2 3.2-3.4s1.2-2.9 1.2-4.6-.4-3.3-1.3-4.7c-.8-1.4-2-2.6-3.4-3.4-1.4-.9-3-1.3-4.7-1.3h-16.7v1.6h2.8v29.1h-3.2v1.6h12v-1.6h-3.2v-11.7h8.4c1.1 0 2.2-.2 3.2-.6v7.4c0 1.9.5 3.4 1.6 4.6s2.4 1.8 3.9 1.8h2.8v-1.6zm-57.6 1.5h24.6v-6.6h-1.4v5.1h-14.9v-13.9h9.3v-1.4h-9.3v-13.8h14.9v5.1h1.4v-6.6h-24.6v1.6h2.8v29.1h-2.8zm-29.3 0h24.2v-4.3h-1.5v2.8h-16.9l18.4-29.1v-1.6h-24.2v4.3h1.7v-2.8h16.7l-18.4 29.1zm-16.3 0v-1.4h3.2v-29.4h-3.2v-1.4h12v1.4h-3.2v29.4h3.2v1.4zm-31.8 0h24.6v-6.6h-1.4v5.1h-14.8v-13.9h9.3v-1.4h-9.3v-13.8h14.9v5.1h1.3v-6.6h-24.5v1.6h2.8v29.1h-2.8v1.4zm-5-1.5-13.7-18.3 9.9-10.8h2.6v-1.6h-6.9v1.6h2.3l-14.9 15.4v-15.4h2.8v-1.6h-11v1.6h2.8v29.1h-2.8v1.6h11v-1.6h-2.8v-11.8l3.1-2.8 11.1 14.6h-1.7v1.6h11.3v-1.6z"/><path clip-path="url(#a)" d="m414.1 419h5.5v-1.3h-2.2v-22.9l10 24.3h.9l9.7-22.9v21.6h-2.1v1.3h9.1v-1.3h-2.1v-23.4h2.1v-1.3h-7l-8.3 19.9-8.2-19.9h-7.7v1.3h2.4l.2 23.4h-2.2v1.2zm-4.8-25.9h-8.9v1.3h2.2v20.6c0 .2 0 .4-.2.6-1 .9-2.1 1.6-3.3 2-1.3.5-2.6.7-3.9.7s-2.6-.3-3.9-.7c-1.3-.5-2.4-1.1-3.3-2-.1-.1-.2-.3-.2-.5v-.1-20.6h2.2v-1.3h-2.2-6.7v1.3h2.2v12.9c0 2.6.6 4.8 1.7 6.6s2.6 3.2 4.4 4.2c1.8.9 3.7 1.4 5.7 1.5 2 0 3.9-.5 5.7-1.5 1.8-.9 3.3-2.3 4.4-4.2s1.7-4.1 1.7-6.6v-12.9h2.2v-1.3zm-51.3 25.9h19.8v-5.3h-1.1v4.1h-12v-11.2h7.5v-1.1h-7.5v-11.1h12v4.1h1.1v-5.3h-19.8v1.3h2.2v23.4h-2.2zm-10.9-13.2-9.9-4.8c-.1-.1-.5-.3-1-.5-.5-.3-1-.6-1.5-1-.4-.4-.7-.8-.7-1.3 0-.6.4-1.2 1.1-1.9s1.8-1.3 3.1-1.7c1.3-.5 2.9-.7 4.6-.7 1.3 0 2.6.2 3.8.7s2.3 1.1 3.3 1.9l-1.6 1.6.9.9 2.4-2.4c-1-1.2-2.3-2.2-4-2.9s-3.3-1.1-4.8-1.1c-1.9 0-3.8.3-5.5 1s-3 1.6-4 2.7-1.5 2.3-1.5 3.6c0 1.2.3 2.1.9 2.9s1.6 1.5 3 2.2l11.6 5.7c.9.5 1.6.9 2.2 1.4.5.5.8 1 .8 1.6 0 .9-.4 1.7-1.3 2.4s-2 1.3-3.3 1.6c-1.4.4-2.8.6-4.2.6-2.1 0-3.8-.4-5.2-1.3s-2.6-2.2-3.8-3.9l1.9-1.9-1-.8-2.6 2.5c2.4 4.5 6 6.7 10.9 6.7 1.9 0 3.7-.3 5.3-.9s2.9-1.4 3.8-2.6c.9-1.1 1.4-2.5 1.4-4.1 0-1.1-.2-2.1-.7-2.8-.5-.8-1.1-1.4-1.8-1.9s-1.6-1-2.6-1.5m-19.5-12.7h-8.9v1.3h2.2v20.6c0 .2-.1.4-.2.6-1 .9-2.1 1.6-3.3 2-1.3.5-2.6.7-3.9.7s-2.6-.3-3.9-.7c-1.3-.5-2.4-1.1-3.3-2-.1-.1-.2-.3-.2-.5v-.1-20.6h2.2v-1.3h-2.2-6.7v1.3h2.2v12.9c0 2.6.6 4.8 1.7 6.6s2.6 3.2 4.4 4.2c1.8.9 3.7 1.4 5.7 1.5 2 0 3.9-.5 5.7-1.5 1.8-.9 3.3-2.3 4.4-4.2s1.7-4.1 1.7-6.6v-12.9h2.2v-1.3zm-62.8 25.9h5.5v-1.3h-2.3v-22.9l10 24.3h.9l9.7-22.9v21.6h-2.1v1.3h9.1v-1.3h-2.1v-23.4h2.1v-1.3h-6.9l-8.3 19.9-8.2-19.9h-7.7v1.3h2.4l.2 23.4h-2.2v1.2zm-46.5 0v-1.3h2.6v-23.4h-2.6v-1.3h9.8v1.3h-2.8v11.1h13v-11.1h-2.8v-1.3h9.8v1.3h-2.6v23.4h2.6v1.3h-9.8v-1.3h2.8v-11.1h-13v11.1h2.8v1.3zm-4.3-11.4h-8.5v1.1h3.3v6c0 .2-.1.4-.3.6-1.1 1-2.4 1.7-3.8 2.3-1.4.5-2.9.8-4.5.8s-3.1-.3-4.5-.8-2.7-1.3-3.8-2.3c-.2-.2-.3-.4-.3-.6v-17c0-.2.1-.4.3-.6 1.1-1 2.4-1.7 3.8-2.3 1.4-.5 2.9-.8 4.5-.8 2.4 0 4.7.7 6.8 2l-1.8 1.8.9.9 2.9-2.8c-1.2-1-2.6-1.7-4.1-2.3-1.5-.5-3.1-.8-4.7-.8-2.5 0-4.8.6-6.9 1.8s-3.8 2.8-5 4.9-1.8 4.3-1.8 6.7.6 4.6 1.8 6.7c1.2 2 2.9 3.7 5 4.9s4.4 1.8 6.9 1.8c2.3 0 4.5-.5 6.5-1.6s3.7-2.5 4.9-4.3c1.4-1.8 2.2-3.9 2.4-6.1m-56.1 7.7c-.2-.2-.3-.4-.3-.6v-17c0-.2.1-.4.3-.6 1.1-1 2.4-1.7 3.8-2.3 1.4-.5 2.9-.8 4.5-.8s3.1.3 4.5.8 2.7 1.3 3.8 2.3c.2.2.3.4.3.6v17c0 .2-.1.4-.3.6-1.1 1-2.4 1.7-3.8 2.3-1.4.5-2.9.8-4.5.8s-3.1-.3-4.5-.8c-1.5-.6-2.7-1.3-3.8-2.3m22-9.1c0-2.5-.6-4.7-1.9-6.7-1.2-2-2.9-3.7-5-4.9s-4.4-1.8-6.9-1.8-4.8.6-6.9 1.8-3.8 2.8-5 4.9c-1.2 2-1.8 4.3-1.8 6.7s.6 4.6 1.8 6.7c1.2 2 2.9 3.7 5 4.9s4.4 1.8 6.9 1.8 4.8-.6 6.9-1.8 3.8-2.8 5-4.9c1.3-2 1.9-4.3 1.9-6.7zm-31.9 1.4h-8.5v1.1h3.3v6c0 .2-.1.4-.3.6-1.1 1-2.4 1.7-3.8 2.3-1.4.5-2.9.8-4.5.8s-3.1-.3-4.5-.8-2.7-1.3-3.8-2.3c-.2-.2-.3-.4-.3-.6v-17c0-.2.1-.4.3-.6 1.1-1 2.4-1.7 3.8-2.3 1.4-.5 2.9-.8 4.5-.8 2.4 0 4.7.7 6.8 2l-1.8 1.8.9.9 2.9-2.8c-1.2-1-2.6-1.7-4.1-2.3-1.5-.5-3.1-.8-4.7-.8-2.5 0-4.8.6-6.9 1.8s-3.8 2.8-5 4.9-1.8 4.3-1.8 6.7.6 4.6 1.8 6.7c1.2 2 2.9 3.7 5 4.9s4.4 1.8 6.9 1.8c2.3 0 4.5-.5 6.5-1.6s3.6-2.5 4.9-4.3 2.1-3.9 2.4-6.1m-53.7-14.5v1.3h2.2v16.6l-18-17.9h-3.5v1.3h2.2v23.4h-2.2v1.3h5.7v-1.3h-2.2v-17.4l19.2 18.8h.1v-24.8h2.2v-1.3zm-41.4 15.9 4-14.2 5 14.2zm16.9 8.8-8.7-24.7h-7.6v1.3h2.3l-6.6 23.5h-2.4v1.3h2 3.4v-1.3h-1.8l2.1-7.7h9.7l2.7 7.7h-1.8v1.3h8.7v-1.3h-2zm-22.9-24.7h-5.4v1.3h1.8l-7.3 23.2-8.4-23.2h1.6v-1.3h-9.1v1.3h2.6l9.2 24.9h4.8l7.7-24.9h2.5z"/><path clip-path="url(#a)" d="m420 535.4h19.8v-5.3h-1.1v4.1h-12v-11.2h7.5v-1.1h-7.5v-11.1h12v4.1h1.1v-5.3h-19.8v1.3h2.2v23.4h-2.2zm-4.4-25.9h-8.9v1.3h2.2v11.6 7.9c0 .2 0 .4-.2.6-1 1.1-2.2 1.9-3.5 2.6s-2.8 1.1-4.3 1.2v-2.1h-1.3v3.5c2.5 0 4.8-.6 6.9-1.8s3.8-2.8 5-4.9c1.2-2 1.9-4.3 1.9-6.7h-.1.1v-11.8h2.2zm-15 5.7v-5.7h-25.2v5.7h1.3v-4.4h9.1v23.4h-2.2v1.3h8.9v-1.3h-2.2v-23.4h9.1v4.4zm-43 8.3v-12.7h6.8c1.2 0 2.1.2 2.9.6.3.2.6.5.8.8s.3.7.3 1.1v1.1 6.7c0 .4-.1.7-.2 1-.2.3-.4.5-.7.7-.9.5-1.9.7-3 .7zm13.7 10.7v-6c0-1.1-.3-2.1-.9-2.8-.6-.8-1.3-1.3-2.1-1.8 1.1-.7 1.9-1.6 2.6-2.7.6-1.1.9-2.4.9-3.7 0-1.4-.3-2.7-1-3.8-.7-1.2-1.6-2.1-2.8-2.8s-2.4-1-3.8-1h-13.4v1.3h2.2v23.4h-2.6v1.3h9.6v-1.3h-2.6v-9.4h6.8c.9 0 1.7-.1 2.6-.4v6c0 1.5.4 2.8 1.3 3.7s1.9 1.4 3.2 1.4h2.2v-1.3h-2.2zm-46.3 1.2h19.8v-5.3h-1.1v4.1h-12v-11.2h7.5v-1.1h-7.5v-11.1h12v4.1h1.1v-5.3h-19.8v1.3h2.2v23.4h-2.2zm-37.4 0h5.5v-1.3h-2.2v-22.9l10 24.3h.9l9.7-22.9v21.6h-2.1v1.3h9.1v-1.3h-2.1v-23.4h2.1v-1.3h-6.9l-8.3 19.9-8.2-19.9h-7.7v1.3h2.4l.2 23.4h-2.2v1.2zm-36.6 0h5.5v-1.3h-2.2v-22.9l10 24.3h.9l9.7-22.9v21.6h-2.1v1.3h9.1v-1.3h-2.1v-23.4h2.1v-1.3h-6.9l-8.3 19.9-8.2-19.9h-7.7v1.3h2.4l.2 23.4h-2.4zm-22.6-10 4-14.2 5 14.2zm16.9 8.8-8.7-24.7h-7.6v1.3h2.3l-6.6 23.5h-2.4v1.3h2 3.4v-1.3h-1.8l2.1-7.7h9.7l2.7 7.7h-1.8v1.3h8.7v-1.3h-2zm-41.3 0v-23.4h3.8c2.3 0 4.4.5 6.3 1.5s3.4 2.4 4.5 4.2 1.7 3.8 1.7 6-.6 4.2-1.7 6-2.6 3.2-4.5 4.2-4 1.5-6.3 1.5zm-6.6 1.2h10.4c2.5 0 4.8-.6 6.9-1.7s3.8-2.7 5-4.6c1.2-2 1.9-4.1 1.9-6.6 0-2.4-.6-4.6-1.9-6.6-1.2-2-2.9-3.5-5-4.7-2.1-1.1-4.4-1.7-6.9-1.7h-10.4v1.3h2.2v23.4h-2.2zm-21.4-11.9v-12.7h6.8c1.2 0 2.1.2 2.9.6.3.2.6.5.8.8s.3.7.3 1.1v1.1 6.7c0 .4-.1.7-.2 1-.2.3-.4.5-.7.7-.9.5-1.9.7-3 .7zm13.8 10.7v-6c0-1.1-.3-2.1-.9-2.8-.6-.8-1.3-1.3-2.1-1.8 1.1-.7 1.9-1.6 2.6-2.7.6-1.1.9-2.4.9-3.7 0-1.4-.3-2.7-1-3.8-.7-1.2-1.6-2.1-2.8-2.8s-2.4-1-3.8-1h-13.4v1.3h2.2v23.4h-2.5v1.3h9.6v-1.3h-2.6v-9.4h6.8c.9 0 1.7-.1 2.6-.4v6c0 1.5.4 2.8 1.3 3.7s1.9 1.4 3.2 1.4h2.2v-1.3h-2.3zm-46.3 1.2h19.8v-5.3h-1.1v4.1h-12v-11.2h7.5v-1.1h-7.5v-11.1h12v4.1h1.1v-5.3h-19.8v1.3h2.2v23.4h-2.2zm-5-20.2v-5.7h-25.2v5.7h1.3v-4.4h9.1v23.4h-2.2v1.3h8.9v-1.3h-2.2v-23.4h9.1v4.4zm-32.5 7-9.9-4.8c-.1-.1-.5-.3-1-.5-.5-.3-1-.6-1.5-1-.4-.4-.7-.8-.7-1.4s.4-1.2 1.1-1.9 1.8-1.3 3.1-1.7c1.3-.5 2.9-.7 4.6-.7 1.3 0 2.6.2 3.8.7s2.3 1.1 3.3 1.9l-1.6 1.6.9.9 2.4-2.4c-1-1.2-2.3-2.2-4-2.9s-3.3-1.1-4.8-1.1c-1.9 0-3.8.3-5.5 1s-3 1.6-4 2.7-1.5 2.3-1.5 3.6c0 1.2.3 2.1.9 2.9s1.6 1.5 3 2.2l11.6 5.7c.9.5 1.6.9 2.2 1.4.5.5.8 1 .8 1.6 0 .9-.4 1.7-1.3 2.4s-2 1.3-3.3 1.6c-1.4.4-2.8.6-4.2.6-2.1 0-3.8-.4-5.2-1.3s-2.6-2.2-3.8-3.9l1.9-1.9-1-.8-2.6 2.5c2.4 4.5 6 6.7 10.9 6.7 1.9 0 3.7-.3 5.3-.9s2.9-1.4 3.8-2.6c1-1.1 1.4-2.5 1.4-4.1 0-1.1-.2-2.1-.7-2.8-.5-.8-1.1-1.4-1.8-1.9-.7-.4-1.6-.9-2.6-1.4m-51.2 13.2h5.5v-1.3h-2.3v-22.9l10 24.3h.9l9.7-22.9v21.6h-2.1v1.3h9.1v-1.3h-2.1v-23.4h2.1v-1.3h-6.9l-8.3 19.9-8.2-19.9h-7.7v1.3h2.4l.2 23.4h-2.2v1.2zm-22.7-10 4-14.2 5 14.2zm17 8.8-8.7-24.7h-7.6v1.3h2.3l-6.6 23.5h-2.4v1.3h2 3.4v-1.3h-1.8l2.1-7.7h9.7l2.7 7.7h-1.8v1.3h8.7v-1.3h-2z"/><path clip-path="url(#a)" d="m425.2 356.9h3.2v-.7h-1.4v-13.3l5.8 14.1h.5l5.7-13.3v12.5h-1.2v.7h5.3v-.7h-1.2v-13.6h1.2v-.7h-4l-4.8 11.6-4.8-11.6h-4.5v.7h1.4l.1 13.6h-1.3zm-13.2-5.8 2.3-8.3 2.9 8.3zm9.8 5.1-5.1-14.4h-4.4v.7h1.3l-3.8 13.6h-1.4v.7h1.2 2v-.7h-1.1l1.2-4.5h5.6l1.6 4.5h-1v.7h5.1v-.7h-1.2zm-24 0v-13.6h2.2c1.3 0 2.5.3 3.6.9s2 1.4 2.6 2.5c.6 1 1 2.2 1 3.5s-.3 2.4-1 3.5c-.6 1-1.5 1.8-2.6 2.4s-2.3.9-3.6.9h-2.2zm-3.8.7h6.1c1.4 0 2.8-.3 4-1s2.2-1.6 2.9-2.7 1.1-2.4 1.1-3.8-.4-2.7-1.1-3.8-1.7-2.1-2.9-2.7c-1.2-.7-2.6-1-4-1h-6.1v.7h1.3v13.6h-1.3zm-12.4-6.9v-7.4h3.9c.7 0 1.2.1 1.7.3.2.1.3.3.4.4.1.2.2.4.2.6v.6 3.9c0 .2 0 .4-.1.6s-.2.3-.4.4c-.5.3-1.1.4-1.7.4h-4zm8 6.2v-3.5c0-.7-.2-1.2-.5-1.6s-.7-.8-1.2-1c.6-.4 1.1-.9 1.5-1.6s.5-1.4.5-2.1c0-.8-.2-1.5-.6-2.2s-.9-1.2-1.6-1.6-1.4-.6-2.2-.6h-7.8v.7h1.3v13.6h-1.5v.7h5.6v-.7h-1.5v-5.5h3.9c.5 0 1-.1 1.5-.3v3.5c0 .9.2 1.6.7 2.2s1.1.8 1.8.8h1.3v-.7h-1.2zm-26.9.7h11.5v-3.1h-.6v2.4h-7v-6.5h4.4v-.7h-4.4v-6.5h7v2.4h.6v-3.1h-11.5v.7h1.3v13.6h-1.3zm-3-11.8v-3.3h-14.6v3.3h.7v-2.6h5.3v13.6h-1.3v.7h5.2v-.7h-1.3v-13.6h5.3v2.6zm-18.8 4.1-5.7-2.8c-.1 0-.3-.1-.6-.3s-.6-.4-.8-.6c-.3-.2-.4-.5-.4-.8s.2-.7.6-1.1 1-.7 1.8-1 1.7-.4 2.7-.4c.8 0 1.5.1 2.2.4s1.3.7 1.9 1.1l-.9.9.5.5 1.4-1.4c-.6-.7-1.3-1.3-2.3-1.7s-1.9-.6-2.8-.6c-1.1 0-2.2.2-3.2.6s-1.8.9-2.3 1.6c-.6.7-.9 1.4-.9 2.1s.2 1.2.5 1.7c.3.4.9.9 1.7 1.3l6.7 3.3c.5.3 1 .5 1.3.8s.5.6.5.9c0 .5-.2 1-.7 1.4s-1.1.7-1.9 1c-.8.2-1.6.3-2.5.3-1.2 0-2.2-.3-3-.8s-1.5-1.3-2.2-2.3l1.1-1.1-.6-.5-1.5 1.4c1.4 2.6 3.5 3.9 6.3 3.9 1.1 0 2.2-.2 3.1-.5s1.7-.8 2.2-1.5c.6-.7.8-1.4.8-2.4 0-.6-.1-1.2-.4-1.7s-.6-.8-1-1.1c-.5 0-1-.3-1.6-.6m-29.8 7.7h3.2v-.7h-1.3v-13.3l5.8 14.1h.5l5.7-13.3v12.5h-1.2v.7h5.3v-.7h-1.2v-13.6h1.2v-.7h-4l-4.8 11.6-4.8-11.6h-4.5v.7h1.4l.1 13.6h-1.3v.7zm-13.2-5.8 2.3-8.3 2.9 8.3zm9.9 5.1-5.1-14.4h-4.4v.7h1.3l-3.8 13.6h-1.4v.7h1.2 2v-.7h-1.1l1.2-4.5h5.6l1.6 4.5h-1v.7h5.1v-.7h-1.2zm-26.7-14.3v.7h1.3v9.7l-10.4-10.4h-2v.7h1.3v13.6h-1.3v.7h3.3v-.7h-1.3v-10.1l11.1 10.9v-14.4h1.3v-.7zm-20 15v-.6h1.5v-13.8h-1.5v-.6h5.6v.6h-1.5v13.8h1.5v.6zm-13.8-7.7-5.7-2.8c-.1 0-.3-.1-.6-.3s-.6-.4-.8-.6c-.3-.2-.4-.5-.4-.8s.2-.7.6-1.1 1-.7 1.8-1 1.7-.4 2.7-.4c.8 0 1.5.1 2.2.4s1.3.7 1.9 1.1l-.9.9.5.5 1.4-1.4c-.6-.7-1.3-1.3-2.3-1.7s-1.9-.6-2.8-.6c-1.1 0-2.2.2-3.2.6s-1.8.9-2.3 1.6c-.6.7-.9 1.4-.9 2.1s.2 1.2.5 1.7c.3.4.9.9 1.7 1.3l6.7 3.3c.5.3.9.5 1.3.8.3.3.5.6.5.9 0 .5-.2 1-.7 1.4s-1.1.7-1.9 1c-.8.2-1.6.3-2.5.3-1.2 0-2.2-.3-3-.8s-1.5-1.3-2.2-2.3l1.1-1.1-.6-.5-1.5 1.4c1.4 2.6 3.5 3.9 6.3 3.9 1.1 0 2.2-.2 3.1-.5s1.7-.8 2.2-1.5.8-1.4.8-2.4c0-.6-.1-1.2-.4-1.7s-.6-.8-1-1.1c-.5 0-1-.3-1.6-.6m-23.9 7.7h11.5v-3.1h-.6v2.4h-7v-6.5h4.4v-.7h-4.4v-6.5h7v2.4h.6v-3.1h-11.5v.7h1.3v13.6h-1.3zm-13.9 0h11.8v-3h-.7v2.3h-7.2v-13.6h1.6v-.7h-5.5v.7h1.3v13.6h-1.3zm-4.2-2.7.8.8c-.6.5-1.3.9-2.1 1.1-.8.3-1.6.4-2.4.4-.9 0-1.8-.2-2.6-.5s-1.6-.7-2.2-1.3c-.1-.1-.2-.2-.2-.3v-9.9c0-.1 0-.2.2-.3.6-.6 1.4-1 2.2-1.3s1.7-.5 2.6-.5c.8 0 1.6.1 2.4.4s1.5.6 2.1 1.1l-.8.8.5.5 1.4-1.4c-.7-.7-1.6-1.2-2.5-1.6-1-.4-2-.6-3-.6-1.4 0-2.8.3-4 1s-2.2 1.6-2.9 2.8-1.1 2.5-1.1 3.9.4 2.7 1.1 3.9 1.7 2.1 2.9 2.8 2.6 1.1 4 1.1c1.1 0 2.1-.2 3-.6 1-.4 1.8-.9 2.5-1.6l-1.4-1.4zm-14-11.6h1.3v-.7h-3.1v.7h1.1l-3.4 6.3-3.7-6.3h1.1v-.7h-5.1v.7h1.4l4 6.8v6.8h-1.3v.7h1.3 3.9v-.7h-1.3v-6.6zm-13.9 11.6.8.8c-.6.5-1.3.9-2.1 1.1-.8.3-1.6.4-2.4.4-.9 0-1.8-.2-2.6-.5s-1.6-.7-2.2-1.3c-.1-.1-.2-.2-.2-.3v-9.9c0-.1.1-.2.2-.3.6-.6 1.4-1 2.2-1.3s1.7-.5 2.6-.5c.8 0 1.6.1 2.4.4s1.5.6 2.1 1.1l-.8.8.5.5 1.4-1.4c-.7-.7-1.6-1.2-2.5-1.6-1-.4-2-.6-3-.6-1.4 0-2.8.3-4 1s-2.2 1.6-2.9 2.8-1.1 2.5-1.1 3.9.4 2.7 1.1 3.9 1.7 2.1 2.9 2.8 2.6 1.1 4 1.1c1.1 0 2.1-.2 3-.6 1-.4 1.8-.9 2.5-1.6l-1.4-1.4zm-20.6 2.7v-.6h1.5v-13.8h-1.5v-.6h5.6v.6h-1.5v13.8h1.5v.6zm-6.9-.7h-2.2v-8.4h2.2c.8 0 1.5.2 2.2.6s1.2.9 1.6 1.5c.4.7.6 1.4.6 2.2s-.2 1.5-.6 2.1-.9 1.1-1.6 1.5c-.7.3-1.4.5-2.2.5m1.5-11.2c0 .6-.2 1.1-.6 1.5s-.9.6-1.6.6h-1.4v-4.5h1.4c.4 0 .7.1 1.1.3.3.2.6.5.8.9s.3.8.3 1.2m-.5 2.2c.8-.6 1.2-1.3 1.2-2.2 0-.6-.1-1.1-.4-1.6s-.6-.9-1.1-1.2c-.4-.3-.9-.4-1.4-.4h-5.4v.7h1.3v13.6h-1.3v.7h6c1 0 1.8-.2 2.6-.7.8-.4 1.4-1 1.8-1.8.4-.7.7-1.5.7-2.4 0-.8-.2-1.5-.6-2.2s-.9-1.3-1.5-1.7-1.2-.6-1.9-.8m-28.7 8.1c0-.1-.1-.2-.1-.3v-11c0-.1.1-.2.2-.3 1-.8 2.1-1.2 3.4-1.2.7 0 1.3.1 2 .3.6.2 1.2.6 1.7 1 0 .1.1.1.1.2v11c0 .1 0 .1-.1.2-.5.4-1.1.8-1.7 1s-1.3.3-2 .3c-1.4 0-2.6-.4-3.5-1.2m3.4-13.6c-1.2 0-2.3.3-3.3 1-1 .6-1.8 1.6-2.4 2.7-.6 1.2-.9 2.5-.9 4.1 0 1.5.3 2.9.9 4.1s1.4 2.1 2.4 2.7 2.1 1 3.3 1 2.3-.3 3.4-1c1-.7 1.9-1.6 2.5-2.8s.9-2.5.9-4.1c0-1.5-.3-2.9-.9-4.1s-1.4-2.1-2.5-2.7c-1-.6-2.2-.9-3.4-.9m-19.4 13.6c0-.1-.1-.2-.1-.3v-11c0-.1.1-.2.2-.3 1-.8 2.1-1.2 3.4-1.2.7 0 1.3.1 2 .3.6.2 1.2.6 1.7 1 0 .1.1.1.1.2v11c0 .1 0 .1-.1.2-.5.4-1.1.8-1.7 1s-1.3.3-2 .3c-1.3 0-2.5-.4-3.5-1.2m3.5-13.6c-1.2 0-2.3.3-3.3 1-1 .6-1.8 1.6-2.4 2.7-.6 1.2-.9 2.5-.9 4.1 0 1.5.3 2.9.9 4.1s1.4 2.1 2.4 2.7 2.1 1 3.3 1 2.3-.3 3.4-1c1-.7 1.9-1.6 2.5-2.8s.9-2.5.9-4.1c0-1.5-.3-2.9-.9-4.1s-1.4-2.1-2.5-2.7-2.2-.9-3.4-.9m-19.4 13.6c0-.1-.1-.2-.1-.3v-11c0-.1.1-.2.2-.3 1-.8 2.1-1.2 3.4-1.2.7 0 1.3.1 2 .3.6.2 1.2.6 1.7 1 0 .1.1.1.1.2v11c0 .1 0 .1-.1.2-.5.4-1.1.8-1.7 1s-1.3.3-2 .3c-1.4 0-2.5-.4-3.5-1.2m3.5-13.6c-1.2 0-2.3.3-3.3 1-1 .6-1.8 1.6-2.4 2.7-.6 1.2-.9 2.5-.9 4.1 0 1.5.3 2.9.9 4.1s1.4 2.1 2.4 2.7 2.1 1 3.3 1 2.3-.3 3.4-1c1-.7 1.9-1.6 2.5-2.8s.9-2.5.9-4.1c0-1.5-.3-2.9-.9-4.1s-1.4-2.1-2.5-2.7-2.2-.9-3.4-.9m-8.4 13.9c0-.4-.1-.8-.4-1-.3-.3-.6-.4-1-.4s-.7.1-1 .4-.4.6-.4 1 .1.7.4 1 .6.4 1 .4c.2 0 .4 0 .6-.1-.1.4-.3.8-.6 1s-.6.3-.9.3v.7c.8 0 1.3-.3 1.7-.8.4-.6.6-1.2.6-2 0-.2 0-.4 0-.5m-15.2-.3c0-.1-.1-.2-.1-.3v-11c0-.1.1-.2.2-.3 1-.8 2.1-1.2 3.4-1.2.7 0 1.3.1 2 .3.6.2 1.2.6 1.7 1 0 .1.1.1.1.2v11c0 .1 0 .1-.1.2-.5.4-1.1.8-1.7 1s-1.3.3-2 .3c-1.4 0-2.5-.4-3.5-1.2m3.5-13.6c-1.2 0-2.3.3-3.3 1-1 .6-1.8 1.6-2.4 2.7-.6 1.2-.9 2.5-.9 4.1 0 1.5.3 2.9.9 4.1s1.4 2.1 2.4 2.7 2.1 1 3.3 1 2.3-.3 3.4-1c1-.7 1.9-1.6 2.5-2.8s.9-2.5.9-4.1c0-1.5-.3-2.9-.9-4.1s-1.4-2.1-2.5-2.7-2.2-.9-3.4-.9m-19.4 13.6c0-.1-.1-.2-.1-.3v-11c0-.1.1-.2.2-.3 1-.8 2.1-1.2 3.4-1.2.7 0 1.3.1 2 .3.6.2 1.2.6 1.7 1 0 .1.1.1.1.2v11c0 .1 0 .1-.1.2-.5.4-1.1.8-1.7 1s-1.3.3-2 .3c-1.4 0-2.5-.4-3.5-1.2m3.4-13.6c-1.2 0-2.3.3-3.3 1-1 .6-1.8 1.6-2.4 2.7-.6 1.2-.9 2.5-.9 4.1 0 1.5.3 2.9.9 4.1s1.4 2.1 2.4 2.7 2.1 1 3.3 1 2.3-.3 3.4-1c1-.7 1.9-1.6 2.5-2.8s.9-2.5.9-4.1c0-1.5-.3-2.9-.9-4.1s-1.4-2.1-2.5-2.7c-1-.6-2.1-.9-3.4-.9m-10.6 7.2.3-.5c-.1.2-.2.4-.3.5m-3.8 2.6c1 0 1.9-.2 2.7-.7.8-.4 1.4-1 1.9-1.8s.7-1.6.7-2.5-.2-1.7-.7-2.5-1.1-1.4-1.9-1.8-1.7-.7-2.6-.7c-1.1 0-2.1.2-3 .7-1 .5-1.8 1.1-2.4 1.9l1.3 1.5.5-.6-.7-.9c1.5-1.3 2.9-2 4.5-2 1 0 1.9.3 2.7.8v7c-.8.5-1.7.8-2.7.8-.8 0-1.6.3-2.2.9-.7.6-1.2 1.3-1.7 2.1-.4.9-.6 1.7-.6 2.6v.5h9.5v-2.6h-8.4c.3-.8.8-1.5 1.4-2 .3-.4 1-.7 1.7-.7m-7.4 4.1c0-.4-.1-.8-.4-1-.3-.3-.6-.4-1-.4s-.7.1-1 .4-.4.6-.4 1 .1.7.4 1 .6.4 1 .4c.2 0 .4 0 .6-.1-.1.4-.3.8-.6 1s-.6.3-.9.3v.7c.8 0 1.3-.3 1.7-.8.4-.6.6-1.2.6-2 0-.2 0-.4 0-.5m-6.4.6v-14.3h-2.6l-2.5 2.1.7.5 1.8-1.4v13.1h-1.3v.7h5.2v-.7z"/><path clip-path="url(#a)" d="m442.1 36.9-8.8-4.3c-.1-.1-.4-.2-.9-.5s-.9-.5-1.3-.9-.6-.7-.6-1.2.3-1.1 1-1.7c.6-.6 1.6-1.1 2.8-1.5s2.6-.6 4.1-.6c1.2 0 2.3.2 3.4.7s2.1 1 2.9 1.7l-1.4 1.4.8.8 2.1-2.1c-.9-1.1-2.1-2-3.5-2.6s-2.9-1-4.3-1c-1.7 0-3.4.3-4.9.9s-2.7 1.4-3.6 2.4-1.3 2.1-1.3 3.2c0 1 .3 1.9.8 2.6s1.4 1.3 2.6 2l10.3 5.1c.8.4 1.5.8 1.9 1.3.5.4.7.9.7 1.4 0 .8-.4 1.5-1.1 2.1s-1.7 1.1-3 1.5-2.5.5-3.8.5c-1.9 0-3.4-.4-4.7-1.2-1.2-.8-2.4-1.9-3.4-3.5l1.7-1.7-.9-.7-2.3 2.2c2.1 4 5.4 6 9.7 6 1.7 0 3.3-.3 4.8-.8 1.4-.5 2.6-1.3 3.4-2.3s1.3-2.2 1.3-3.6c0-1-.2-1.8-.7-2.5s-1-1.3-1.6-1.7c-.5-.5-1.3-.9-2.2-1.4m-33.6 11.8h18.1v-4.6h-1.1v3.5h-11v-20.9h2.5v-1.1h-8.4v1.1h2v20.9h-2v1.1zm-22.7 0h17.7v-4.7h-1v3.6h-10.7v-10h6.7v-1h-6.7v-9.9h10.7v3.6h1v-4.8h-17.6v1.1h2v20.9h-2v1.2zm-9.4-23.1v1.1h2v14.9l-16-16h-3.1v1.1h2v20.9h-2v1.1h5.1v-1.1h-2v-15.5l17.1 16.8h.1v-22.2h2v-1.1zm-26.5 0v1.1h2v14.9l-16-16h-3.1v1.1h2v20.9h-2v1.1h5.1v-1.1h-2v-15.5l17.1 16.8h.1v-22.2h2v-1.1zm-36.9 14.1 3.6-12.7 4.4 12.7zm15.1 7.9-7.8-22h-6.8v1.1h2l-5.9 20.9h-2.1v1.1h1.8 3v-1.1h-1.6l1.9-6.9h8.6l2.4 6.9h-1.6v1.1h7.8v-1.1zm-48.1 1.1v-1.1h2.3v-20.9h-2.3v-1.1h8.7v1.1h-2.5v9.9h11.6v-9.9h-2.5v-1.1h8.7v1.1h-2.3v20.9h2.3v1.1h-8.7v-1.1h2.5v-9.9h-11.6v9.9h2.5v1.1zm-6.4-4.2 1.3 1.3c-.9.7-2 1.3-3.2 1.7s-2.4.6-3.7.6c-1.4 0-2.7-.2-4-.7s-2.4-1.1-3.4-2c-.2-.2-.2-.3-.2-.5v-15.2c0-.2.1-.3.2-.5 1-.9 2.1-1.6 3.4-2 1.3-.5 2.6-.7 4-.7 1.3 0 2.5.2 3.7.6s2.2 1 3.2 1.7l-1.3 1.3.8.8 2.1-2.1c-1.1-1.1-2.4-1.9-3.9-2.5s-3-.9-4.7-.9c-2.2 0-4.3.5-6.2 1.6s-3.4 2.5-4.5 4.4c-1.1 1.8-1.6 3.8-1.6 6s.6 4.1 1.6 6c1.1 1.8 2.6 3.3 4.5 4.4s3.9 1.6 6.2 1.6c1.6 0 3.2-.3 4.7-.9s2.8-1.4 3.9-2.5l-2.1-2.1zm-40-7.6-8.8-4.3c-.1-.1-.4-.2-.9-.5s-.9-.5-1.3-.9-.6-.7-.6-1.2.3-1.1 1-1.7c.6-.6 1.6-1.1 2.8-1.5s2.6-.6 4.1-.6c1.2 0 2.3.2 3.4.7 1.1.4 2.1 1 2.9 1.7l-1.4 1.4.8.8 2.1-2.1c-.9-1.1-2.1-2-3.5-2.6-1.5-.6-2.9-1-4.3-1-1.7 0-3.4.3-4.9.9s-2.7 1.4-3.6 2.4-1.3 2.1-1.3 3.2c0 1 .3 1.9.8 2.6s1.4 1.3 2.6 2l10.3 5.1c.8.4 1.5.8 1.9 1.3.5.4.7.9.7 1.4 0 .8-.4 1.5-1.1 2.1s-1.7 1.1-3 1.5c-1.2.3-2.5.5-3.8.5-1.9 0-3.4-.4-4.7-1.2-1.2-.8-2.4-1.9-3.3-3.5l1.7-1.7-.9-.7-2.3 2.2c2.1 4 5.4 6 9.7 6 1.7 0 3.3-.3 4.8-.8 1.4-.5 2.6-1.3 3.4-2.3s1.3-2.2 1.3-3.6c0-1-.2-1.8-.7-2.5-.4-.7-1-1.3-1.6-1.7s-1.3-.9-2.3-1.4m-32 10.7v-20.9h3.4c2 0 3.9.5 5.6 1.4s3.1 2.2 4 3.8c1 1.6 1.5 3.4 1.5 5.3s-.5 3.7-1.5 5.3-2.3 2.8-4 3.7-3.6 1.4-5.6 1.4zm-5.9 1.1h9.3c2.2 0 4.3-.5 6.2-1.5s3.4-2.4 4.5-4.1 1.7-3.7 1.7-5.9-.6-4.1-1.7-5.9-2.6-3.2-4.5-4.2-3.9-1.5-6.2-1.5h-9.3v1.1h2v20.9h-2zm-21.4 0h18.1v-4.6h-1.1v3.5h-11v-20.9h2.5v-1.1h-8.4v1.1h2v20.9h-2v1.1zm-14.5 0v-1h2.3v-21.1h-2.3v-1h8.6v1h-2.3v21.1h2.3v1zm-33.4 0h4.9v-1.1h-2v-20.5l8.9 21.7h.8l8.7-20.5v19.2h-1.9v1.1h8.1v-1.1h-1.9v-20.8h1.9v-1.1h-6.2l-7.4 17.8-7.3-17.8h-6.9v1.1h2.1l.2 20.9h-2zm-16.9-1.1v-20.9h3.4c2 0 3.9.5 5.6 1.4s3.1 2.2 4 3.8c1 1.6 1.5 3.4 1.5 5.3s-.5 3.7-1.5 5.3-2.3 2.8-4 3.7-3.6 1.4-5.6 1.4zm-6 1.1h9.3c2.2 0 4.3-.5 6.2-1.5s3.4-2.4 4.5-4.1 1.6-3.7 1.6-5.9-.5-4.1-1.6-5.9-2.6-3.2-4.5-4.2-3.9-1.5-6.2-1.5h-9.3v1.1h2v20.9h-2zm-9.3-23.1v1.1h2v14.9l-16-16h-3.2v1.1h2v20.9h-2v1.1h5.1v-1.1h-2v-15.5l17.1 16.8h.1v-22.2h2v-1.1zm-30.7 23.1v-1h2.3v-21.1h-2.3v-1h8.5v1h-2.3v21.1h2.3v1zm-2.5-23.1h-4.9v1.1h1.6l-6.5 20.7-7.5-20.7h1.5v-1.1h-8.1v1.1h2.3l2.7 7.2-4.2 13.4-7.5-20.7h1.5v-1.1h-8.1v1.1h2.2l8.2 22.1h4.3l4.2-13.4 4.9 13.4h4.3l6.9-22.1h2.2z"/><path clip-path="url(#a)" d="m443.5 220.3-6.8-3.3c-.1-.1-.3-.2-.7-.4s-.7-.4-1-.7-.5-.6-.5-.9c0-.4.2-.8.8-1.3.5-.5 1.2-.9 2.1-1.2s2-.5 3.2-.5c.9 0 1.8.2 2.6.5s1.6.8 2.3 1.3l-1.1 1.1.6.6 1.7-1.6c-.7-.8-1.6-1.5-2.7-2s-2.3-.7-3.3-.7c-1.3 0-2.6.2-3.8.7s-2.1 1.1-2.8 1.9-1 1.6-1 2.5c0 .8.2 1.5.6 2s1.1 1 2 1.5l8 3.9c.6.3 1.1.6 1.5 1 .4.3.5.7.5 1.1 0 .6-.3 1.2-.9 1.7s-1.4.9-2.3 1.1c-.9.3-1.9.4-2.9.4-1.4 0-2.6-.3-3.6-.9s-1.8-1.5-2.6-2.7l1.3-1.3-.7-.5-1.8 1.7c1.6 3.1 4.1 4.6 7.5 4.6 1.3 0 2.6-.2 3.7-.6s2-1 2.6-1.8c.7-.8 1-1.7 1-2.8 0-.8-.2-1.4-.5-2s-.8-1-1.2-1.3c-.5-.4-1.1-.8-1.8-1.1m-32.7 9.1v-.9h1.8v-16.1h-1.8v-.9h6.8v.9h-1.9v7.7h8.9v-7.7h-1.9v-.9h6.8v.9h-1.8v16.1h1.8v.9h-6.8v-.9h1.9v-7.7h-8.9v7.7h1.9v.9zm-3.5-14v-3.9h-17.3v3.9h.9v-3.1h6.3v16.1h-1.5v.9h6.1v-.9h-1.5v-16.1h6.3v3.1zm-30.4 7.1 2.8-9.8 3.4 9.8zm11.7 6-6-17h-5.2v.9h1.6l-4.6 16.2h-1.6v.9h1.4 2.3v-.9h-1.2l1.5-5.3h6.7l1.9 5.3h-1.4v.9h6v-.9h-1.4zm-26.7-7.3v-8.8h4.7c.8 0 1.5.1 2 .4.2.1.4.3.5.5s.2.5.2.7v.8 4.6c0 .3-.1.5-.2.7s-.3.4-.5.5c-.6.3-1.3.5-2.1.5h-4.6zm4.6-9.7h-9.3v.9h1.5v16.1h-1.7v.9h6.6v-.9h-1.8v-6.5h4.7c1 0 1.8-.2 2.6-.7s1.4-1.1 1.9-1.9.7-1.7.7-2.6-.2-1.8-.7-2.6-1.1-1.4-1.9-1.9-1.6-.8-2.6-.8m-22.6 10h-5.9v.8h2.3v4.1c0 .1-.1.3-.2.4-.8.7-1.6 1.2-2.6 1.6s-2 .5-3.1.5-2.1-.2-3.1-.5c-1-.4-1.8-.9-2.6-1.6-.1-.1-.2-.2-.2-.4v-11.7c0-.1.1-.3.2-.4.8-.7 1.6-1.2 2.6-1.6s2-.5 3.1-.5c1.7 0 3.2.5 4.7 1.4l-1.2 1.2.6.6 2-1.9c-.8-.7-1.8-1.2-2.8-1.6s-2.1-.5-3.2-.5c-1.7 0-3.3.4-4.8 1.2s-2.6 1.9-3.5 3.4-1.3 3-1.3 4.6c0 1.7.4 3.2 1.3 4.6s2 2.5 3.5 3.4c1.5.8 3 1.2 4.8 1.2 1.6 0 3.1-.4 4.5-1.1s2.5-1.7 3.4-3c.8-1.3 1.3-2.7 1.5-4.2m-25.8-10v.9h1.5v11.5l-12.4-12.3h-2.4v.9h1.5v16.1h-1.5v.9h3.9v-.9h-1.5v-12l13.2 13h.1v-17.1h1.5v-.9h-3.9zm-23.7 17.9v-.8h1.8v-16.3h-1.8v-.8h6.6v.8h-1.8v16.3h1.8v.8zm-16.5 0h13.9v-3.5h-.8v2.7h-8.5v-16.1h1.9v-.9h-6.5v.9h1.5v16.1h-1.5zm-5-3.3 1 1c-.7.6-1.6 1-2.5 1.3s-1.9.5-2.9.5c-1.1 0-2.1-.2-3.1-.5s-1.8-.9-2.6-1.6c-.1-.1-.2-.2-.2-.4v-11.7c0-.1.1-.3.2-.4.8-.7 1.6-1.2 2.6-1.6s2-.5 3.1-.5c1 0 1.9.2 2.8.5s1.7.7 2.5 1.3l-1 1 .6.6 1.7-1.6c-.9-.8-1.9-1.5-3-1.9-1.1-.5-2.3-.7-3.6-.7-1.7 0-3.3.4-4.8 1.2s-2.6 1.9-3.5 3.4-1.3 3-1.3 4.6c0 1.7.4 3.2 1.3 4.6s2 2.5 3.5 3.4c1.5.8 3 1.2 4.8 1.2 1.3 0 2.5-.2 3.6-.7s2.1-1.1 3-1.9l-1.7-1.6zm-16.6-13.7h1.5v-.9h-3.7v.9h1.3l-4.1 7.4-4.4-7.4h1.3v-.9h-6v.9h1.6l4.7 8.1v8.1h-1.5v.9h1.5 4.6v-.9h-1.5v-7.8zm-16.5 13.7 1 1c-.7.6-1.6 1-2.5 1.3s-1.9.5-2.9.5c-1.1 0-2.1-.2-3.1-.5s-1.8-.9-2.6-1.6c-.1-.1-.2-.2-.2-.4v-11.7c0-.1.1-.3.2-.4.8-.7 1.6-1.2 2.6-1.6s2-.5 3.1-.5c1 0 1.9.2 2.8.5s1.7.7 2.5 1.3l-1 1 .6.6 1.7-1.6c-.9-.8-1.9-1.5-3-1.9-1.1-.5-2.3-.7-3.6-.7-1.7 0-3.3.4-4.8 1.2s-2.6 1.9-3.5 3.4c-.8 1.4-1.3 3-1.3 4.6 0 1.7.4 3.2 1.3 4.6s2 2.5 3.5 3.4c1.5.8 3 1.2 4.8 1.2 1.3 0 2.5-.2 3.6-.7s2.1-1.1 3-1.9l-1.7-1.6zm-30.9-5.8-6.8-3.3c-.1-.1-.3-.2-.7-.4s-.7-.4-1-.7-.5-.6-.5-.9c0-.4.3-.8.8-1.3s1.2-.9 2.1-1.2 2-.5 3.2-.5c.9 0 1.8.2 2.6.5s1.6.8 2.3 1.3l-1.1 1.1.6.6 1.7-1.6c-.7-.8-1.6-1.5-2.7-2s-2.3-.7-3.3-.7c-1.3 0-2.6.2-3.8.7s-2.1 1.1-2.8 1.9-1 1.6-1 2.5c0 .8.2 1.5.6 2s1.1 1 2 1.5l8 3.9c.6.3 1.1.6 1.5 1 .4.3.5.7.5 1.1 0 .6-.3 1.2-.9 1.7s-1.4.9-2.3 1.1c-.9.3-1.9.4-2.9.4-1.4 0-2.6-.3-3.6-.9s-1.8-1.5-2.6-2.7l1.3-1.3-.7-.5-1.8 1.7c1.6 3.1 4.1 4.6 7.5 4.6 1.3 0 2.6-.2 3.7-.6s2-1 2.6-1.8c.7-.8 1-1.7 1-2.8 0-.8-.2-1.4-.5-2-.3-.5-.8-1-1.2-1.3-.5-.4-1.1-.8-1.8-1.1m-24.7 8.2v-16.1h2.6c1.6 0 3 .4 4.3 1.1s2.4 1.7 3.1 2.9c.8 1.2 1.1 2.6 1.1 4.1s-.4 2.9-1.1 4.1-1.8 2.2-3.1 2.9-2.8 1-4.3 1zm-4.6.9h7.2c1.7 0 3.3-.4 4.8-1.2s2.6-1.8 3.5-3.2c.8-1.4 1.3-2.9 1.3-4.5 0-1.7-.4-3.2-1.3-4.6s-2-2.4-3.5-3.2-3-1.2-4.8-1.2h-7.2v.9h1.5v16.1h-1.5zm-16.5 0h13.9v-3.5h-.9v2.7h-8.5v-16.1h1.9v-.9h-6.5v.9h1.5v16.1h-1.5v.8zm-17.6 0h13.6v-3.7h-.8v2.8h-8.3v-7.7h5.2v-.8h-5.2v-7.7h8.3v2.8h.8v-3.7h-13.6v.9h1.5v16.1h-1.5zm-11.2 0v-.8h1.8v-16.3h-1.8v-.8h6.6v.8h-1.8v16.3h1.8v.8zm-15.8 0h6.7v-.9h-2.1v-7.7h4.1v-.8h-4v-7.7h7.6v2.8h.8v-3.7h-13v.9h1.5v16.1h-1.5v1zm-22.5-8.2v-8.8h4.7c.8 0 1.5.1 2 .4.2.1.4.3.5.5s.2.5.2.7v.8 4.6c0 .3-.1.5-.2.7s-.3.4-.5.5c-.6.3-1.3.5-2.1.5h-4.6zm4.7-9.7h-9.3v.9h1.5v16.1h-1.8v.9h6.6v-.9h-1.7v-6.5h4.7c1 0 1.8-.2 2.6-.7s1.4-1.1 1.9-1.9.7-1.7.7-2.6-.2-1.8-.7-2.6-1.1-1.4-1.9-1.9-1.7-.8-2.6-.8m-20.8 17.9v-.8h1.8v-16.3h-1.8v-.8h6.6v.8h-1.8v16.3h1.8v.8zm-16.5 0h13.9v-3.5h-.9v2.7h-8.4v-16.1h1.9v-.9h-6.5v.9h1.6v16.1h-1.5v.8zm-3.4-17.9h-6.1v.9h1.5v14.2c0 .2 0 .3-.2.4-.7.6-1.4 1.1-2.3 1.4s-1.8.5-2.7.5-1.8-.2-2.7-.5-1.6-.8-2.3-1.4c-.1-.1-.2-.2-.2-.4v-.1-14.2h1.5v-.9h-1.5-4.6v.9h1.5v8.9c0 1.8.4 3.3 1.2 4.6s1.8 2.2 3.1 2.9c1.2.7 2.6 1 3.9 1 1.4 0 2.7-.4 3.9-1 1.2-.7 2.3-1.6 3.1-2.9s1.2-2.8 1.2-4.6v-8.9h1.7zm-21.5 3.9v-3.9h-17.3v3.9h.8v-3.1h6.3v16.1h-1.5v.9h6.1v-.9h-1.5v-16.1h6.3v3.1z"/></g><g clip-path="url(#b)"><path d="m23.1 83.5h422.4v3h-422.4z" fill="#d9121a"/></g><path d="m180 66.7h100.6v39.3h-100.6z" fill="#fff"/><g fill="#d9121a"><path d="m221.8 81.9 11.8 11.3 4.3-4.1-11.9-11.2z"/><path d="m247.6 81.9 11.9 11.3 4.2-4.1-11.8-11.2z"/><path d="m195.9 81.9 11.8 11.3 4.3-4.1-11.9-11.2z"/><path d="m233.6 78.1-11.8 11.3 4.2 4 11.9-11.2z"/><path d="m259.5 78.1-11.9 11.3 4.3 4 11.8-11.2z"/><path d="m207.7 78.1-11.8 11.3 4.2 4 11.9-11.2z"/></g></svg>