<?xml version="1.0" encoding="utf-8"?>
<!-- Generator: Adobe Illustrator 19.0.0, SVG Export Plug-In . SVG Version: 6.00 Build 0)  -->
<svg version="1.1" id="Layer_1" xmlns="http://www.w3.org/2000/svg" xmlns:xlink="http://www.w3.org/1999/xlink" x="0px" y="0px"
	 viewBox="0 0 468.2 560" enable-background="new 0 0 468.2 560" xml:space="preserve">
<g>
	<defs>
		<rect id="SVGID_1_" x="20.1" y="25.1" width="426.9" height="510.9"/>
	</defs>
	<clipPath id="SVGID_2_">
		<use xlink:href="#SVGID_1_"  overflow="visible"/>
	</clipPath>
	<path clip-path="url(#SVGID_2_)" fill="#1D1D1B" d="M394.1,168.5h9v-2.1h-3.7v-37.8l16.5,40.1h1.4l16-37.8v35.6h-3.5v2.1h14.9v-2.1
		h-3.5v-38.6h3.5v-2.1h-11.4l-13.7,32.8l-13.5-32.8h-12.7v2.1h3.9l0.4,38.6h-3.7V168.5z M356.7,151.9l6.6-23.4l8.2,23.4H356.7z
		 M384.6,166.4l-14.3-40.7h-12.5v2.1h3.8l-10.9,38.7h-3.9v2.1h3.3h5.6v-2.1h-3l3.5-12.7h15.9l4.5,12.7h-2.9v2.1H388v-2.1H384.6z
		 M316.6,166.4v-38.6h6.2c3.7,0,7.2,0.8,10.3,2.5c3.2,1.7,5.6,4,7.5,7c1.8,2.9,2.7,6.2,2.7,9.9c0,3.6-0.9,6.9-2.7,9.8
		c-1.8,2.9-4.3,5.2-7.5,6.9c-3.2,1.7-6.6,2.5-10.3,2.5H316.6z M305.7,168.5h17.2c4.1,0,7.9-0.9,11.4-2.8c3.5-1.9,6.2-4.4,8.3-7.7
		c2-3.2,3-6.8,3-10.8c0-4-1-7.6-3-10.9c-2-3.3-4.8-5.8-8.3-7.7c-3.5-1.9-7.3-2.8-11.4-2.8h-17.2v2.1h3.7v38.6h-3.7V168.5z
		 M270.5,148.8v-21h11.2c1.9,0,3.5,0.3,4.8,1c0.5,0.3,0.9,0.7,1.2,1.2c0.3,0.5,0.5,1.1,0.5,1.7v1.8v11.1c0,0.6-0.1,1.2-0.4,1.6
		c-0.3,0.5-0.6,0.9-1.1,1.2c-1.5,0.8-3.2,1.2-4.9,1.2H270.5z M293.2,166.4v-9.9c0-1.9-0.5-3.4-1.4-4.7c-1-1.2-2.1-2.2-3.4-2.9
		c1.8-1.1,3.2-2.6,4.2-4.5c1-1.9,1.6-3.9,1.6-6.1c0-2.3-0.6-4.4-1.7-6.3c-1.1-1.9-2.6-3.4-4.5-4.6c-1.9-1.1-4-1.7-6.3-1.7h-22.1v2.1
		h3.7v38.6h-4.3v2.1h15.9v-2.1h-4.3v-15.5h11.2c1.5,0,2.9-0.2,4.2-0.7v9.8c0,2.5,0.7,4.6,2.1,6.1c1.4,1.6,3.1,2.3,5.2,2.3h3.7v-2.1
		H293.2z M216.8,168.5h32.6v-8.8h-1.8v6.7h-19.8V148h12.4v-1.8h-12.4v-18.3h19.8v6.7h1.8v-8.8h-32.6v2.1h3.7l-0.1,38.6h-3.7V168.5z
		 M208.5,135.1v-9.3h-41.5v9.3h2.1v-7.3l15,0.1v38.6h-3.7v2.1h14.6v-2.1h-3.7v-38.6l15-0.1v7.3H208.5z M154.9,146.6l-16.3-7.9
		c-0.2-0.1-0.8-0.4-1.7-0.9c-0.9-0.5-1.7-1-2.4-1.6c-0.7-0.6-1.1-1.3-1.1-2.2c0-0.9,0.6-2,1.8-3.1c1.2-1.1,2.9-2.1,5.1-2.8
		c2.2-0.8,4.7-1.2,7.6-1.2c2.2,0,4.3,0.4,6.3,1.2c2,0.8,3.8,1.9,5.4,3.2l-2.6,2.6l1.5,1.5l4-3.9c-1.6-2-3.8-3.6-6.5-4.8
		c-2.7-1.2-5.4-1.8-8-1.8c-3.2,0-6.2,0.6-9,1.7c-2.8,1.1-5,2.6-6.6,4.5c-1.6,1.8-2.5,3.9-2.5,6c0,1.9,0.5,3.5,1.5,4.7
		c1,1.2,2.6,2.5,4.9,3.7l19.1,9.4c1.5,0.8,2.7,1.5,3.6,2.3c0.9,0.8,1.3,1.6,1.3,2.6c0,1.5-0.7,2.8-2.1,4c-1.4,1.2-3.2,2.1-5.5,2.7
		c-2.3,0.6-4.6,0.9-7,0.9c-3.5,0-6.3-0.7-8.6-2.2c-2.3-1.4-4.4-3.6-6.2-6.4l3.2-3.2l-1.6-1.3l-4.2,4.1c3.9,7.4,9.9,11,17.9,11
		c3.2,0,6.1-0.5,8.8-1.4c2.6-1,4.7-2.4,6.3-4.2c1.6-1.9,2.3-4.1,2.3-6.7c0-1.8-0.4-3.4-1.2-4.7c-0.8-1.3-1.8-2.4-3-3.2
		C158.1,148.3,156.6,147.5,154.9,146.6 M70.6,168.5h9v-2.1h-3.7v-37.8l16.5,40.1h1.4l16-37.8v35.6h-3.5v2.1h14.9v-2.1h-3.5v-38.6
		h3.5v-2.1h-11.4l-13.7,32.8l-13.5-32.8H70v2.1h3.9l0.4,38.6h-3.7V168.5z M33.2,151.9l6.6-23.4l8.2,23.4H33.2z M61.1,166.4
		l-14.3-40.7H34.3v2.1h3.8l-10.9,38.7h-3.9v2.1h3.3h5.6v-2.1h-3l3.5-12.7h15.9l4.5,12.7h-2.9v2.1h14.4v-2.1H61.1z"/>
	<path clip-path="url(#SVGID_2_)" fill="#1D1D1B" d="M443.2,466.8l-6.1-3c-0.1,0-0.3-0.2-0.6-0.3c-0.3-0.2-0.6-0.4-0.9-0.6
		c-0.3-0.2-0.4-0.5-0.4-0.8c0-0.4,0.2-0.7,0.7-1.2c0.5-0.4,1.1-0.8,1.9-1.1c0.8-0.3,1.8-0.4,2.9-0.4c0.8,0,1.6,0.2,2.4,0.5
		c0.8,0.3,1.4,0.7,2,1.2l-1,1l0.6,0.6l1.5-1.5c-0.6-0.8-1.4-1.4-2.5-1.8c-1-0.4-2-0.7-3-0.7c-1.2,0-2.3,0.2-3.4,0.6
		c-1.1,0.4-1.9,1-2.5,1.7c-0.6,0.7-0.9,1.5-0.9,2.3c0,0.7,0.2,1.3,0.6,1.8c0.4,0.5,1,0.9,1.8,1.4l7.2,3.5c0.6,0.3,1,0.6,1.3,0.9
		c0.3,0.3,0.5,0.6,0.5,1c0,0.6-0.3,1-0.8,1.5c-0.5,0.4-1.2,0.8-2.1,1c-0.9,0.2-1.7,0.4-2.6,0.4c-1.3,0-2.4-0.3-3.3-0.8
		c-0.9-0.5-1.6-1.4-2.3-2.4l1.2-1.2l-0.6-0.5l-1.6,1.5c1.5,2.8,3.7,4.2,6.8,4.2c1.2,0,2.3-0.2,3.3-0.5c1-0.4,1.8-0.9,2.4-1.6
		c0.6-0.7,0.9-1.5,0.9-2.5c0-0.7-0.2-1.3-0.5-1.8s-0.7-0.9-1.1-1.2C444.4,467.4,443.9,467.1,443.2,466.8 M420.9,474.3v-14.5h2.3
		c1.4,0,2.7,0.3,3.9,1c1.2,0.6,2.1,1.5,2.8,2.6c0.7,1.1,1,2.4,1,3.7c0,1.4-0.3,2.6-1,3.7c-0.7,1.1-1.6,2-2.8,2.6
		c-1.2,0.6-2.5,0.9-3.9,0.9H420.9z M416.8,475h6.5c1.5,0,3-0.4,4.3-1.1c1.3-0.7,2.4-1.7,3.1-2.9c0.8-1.2,1.1-2.6,1.1-4.1
		c0-1.5-0.4-2.9-1.1-4.1c-0.8-1.2-1.8-2.2-3.1-2.9s-2.7-1.1-4.3-1.1h-6.5v0.8h1.4v14.5h-1.4V475z M410.3,458.9v0.8h1.4v10.4h0
		l-11.2-11.1h-2.2v0.8h1.4v14.5h-1.4v0.8h3.5v-0.8h-1.4v-10.8l11.9,11.7h0v-15.4h1.4v-0.8H410.3z M384.5,468.8l2.5-8.8l3.1,8.8
		H384.5z M395.1,474.3l-5.4-15.4h-4.7v0.8h1.4l-4.1,14.6h-1.5v0.8h1.2h2.1v-0.8H383l1.3-4.8h6l1.7,4.8h-1.1v0.8h5.4v-0.8H395.1z
		 M366.7,475h12.6v-3.2h-0.8v2.4h-7.7v-14.5h1.7v-0.8h-5.9v0.8h1.4v14.5h-1.4V475z M353.4,467.6v-7.9h4.2c0.7,0,1.3,0.1,1.8,0.4
		c0.2,0.1,0.4,0.3,0.5,0.5c0.1,0.2,0.2,0.4,0.2,0.7v0.7v4.2c0,0.2,0,0.4-0.1,0.6s-0.2,0.3-0.4,0.5c-0.6,0.3-1.2,0.5-1.9,0.5H353.4z
		 M362,474.3v-3.7c0-0.7-0.2-1.3-0.5-1.8c-0.4-0.5-0.8-0.8-1.3-1.1c0.7-0.4,1.2-1,1.6-1.7c0.4-0.7,0.6-1.5,0.6-2.3
		c0-0.9-0.2-1.6-0.6-2.4s-1-1.3-1.7-1.7c-0.7-0.4-1.5-0.6-2.4-0.6h-8.3v0.8h1.4v14.5h-1.6v0.8h6v-0.8h-1.6v-5.8h4.2
		c0.6,0,1.1-0.1,1.6-0.3v3.7c0,1,0.3,1.7,0.8,2.3c0.5,0.6,1.2,0.9,2,0.9h1.4v-0.8H362z M333.2,475h12.3v-3.3h-0.7v2.5h-7.5v-6.9h4.7
		v-0.7h-4.7v-6.9h7.5v2.5h0.7v-3.3h-12.3v0.8h1.4l0,14.5h-1.4V475z M312.2,475v-0.8h1.6v-14.5h-1.6v-0.8h6.1v0.8h-1.7v6.9h8.1v-6.9
		H323v-0.8h6.1v0.8h-1.6v14.5h1.6v0.8H323v-0.8h1.7v-6.9h-8.1v6.9h1.7v0.8H312.2z M309.1,462.5v-3.5h-15.6v3.5h0.8v-2.8l5.7,0v14.5
		h-1.4v0.8h5.5v-0.8h-1.4v-14.5l5.7,0v2.8H309.1z M278.7,475H291v-3.3h-0.7v2.5h-7.5v-6.9h4.7v-0.7h-4.7v-6.9h7.5v2.5h0.7v-3.3
		h-12.3v0.8h1.4l0,14.5h-1.4V475z M272.2,458.9v0.8h1.4v10.4h0l-11.2-11.1h-2.2v0.8h1.4v14.5h-1.4v0.8h3.5v-0.8h-1.4v-10.8
		l11.9,11.7h0v-15.4h1.4v-0.8H272.2z M236,475h12.3v-3.3h-0.7v2.5h-7.5v-6.9h4.7v-0.7h-4.7v-6.9h7.5v2.5h0.7v-3.3H236v0.8h1.4
		l0,14.5H236V475z M215.1,475v-0.8h1.6v-14.5h-1.6v-0.8h6.1v0.8h-1.7v6.9h8.1v-6.9h-1.7v-0.8h6.1v0.8h-1.6v14.5h1.6v0.8h-6.1v-0.8
		h1.7v-6.9h-8.1v6.9h1.7v0.8H215.1z M212,462.5v-3.5h-15.6v3.5h0.8v-2.8l5.7,0v14.5h-1.4v0.8h5.5v-0.8h-1.4v-14.5l5.7,0v2.8H212z
		 M175.3,475h6v-0.8h-1.9v-6.9h3.7v-0.7h-3.6v-6.9h6.9v2.5h0.7v-3.3h-11.7v0.8h1.4l0,14.5h-1.4V475z M158.3,472.7
		c-0.1-0.1-0.2-0.2-0.2-0.3v-10.6c0-0.1,0.1-0.2,0.2-0.3c0.7-0.6,1.5-1.1,2.4-1.4c0.9-0.3,1.8-0.5,2.8-0.5c1,0,1.9,0.2,2.8,0.5
		c0.9,0.3,1.7,0.8,2.4,1.4c0.1,0.1,0.2,0.2,0.2,0.3v10.6c0,0.1-0.1,0.2-0.2,0.3c-0.7,0.6-1.5,1.1-2.4,1.4c-0.9,0.3-1.8,0.5-2.8,0.5
		c-1,0-1.9-0.2-2.8-0.5C159.7,473.8,158.9,473.3,158.3,472.7 M172,467.1L172,467.1c0-1.5-0.4-2.9-1.1-4.2c-0.8-1.3-1.8-2.3-3.1-3
		c-1.3-0.7-2.7-1.1-4.3-1.1c-1.5,0-3,0.4-4.3,1.1c-1.3,0.7-2.3,1.8-3.1,3c-0.8,1.3-1.1,2.7-1.1,4.2v0v0c0,1.5,0.4,2.9,1.1,4.1
		c0.8,1.3,1.8,2.3,3.1,3c1.3,0.8,2.7,1.1,4.3,1.1c1.5,0,3-0.4,4.3-1.1c1.3-0.8,2.4-1.8,3.1-3C171.6,470,172,468.6,172,467.1
		L172,467.1z M123,475h3.4v-0.8H125V460l6.2,15.1h0.5l6-14.3v13.4h-1.3v0.8h5.6v-0.8h-1.3v-14.5h1.3v-0.8h-4.3l-5.2,12.4l-5.1-12.4
		h-4.8v0.8h1.5l0.1,14.5H123V475z M106.9,472.7c-0.1-0.1-0.2-0.2-0.2-0.3v-10.6c0-0.1,0.1-0.2,0.2-0.3c0.7-0.6,1.5-1.1,2.4-1.4
		c0.9-0.3,1.8-0.5,2.8-0.5c1,0,1.9,0.2,2.8,0.5c0.9,0.3,1.7,0.8,2.4,1.4c0.1,0.1,0.2,0.2,0.2,0.3v10.6c0,0.1-0.1,0.2-0.2,0.3
		c-0.7,0.6-1.5,1.1-2.4,1.4c-0.9,0.3-1.8,0.5-2.8,0.5c-1,0-1.9-0.2-2.8-0.5C108.4,473.8,107.6,473.3,106.9,472.7 M120.7,467.1
		L120.7,467.1c0-1.5-0.4-2.9-1.2-4.2c-0.8-1.3-1.8-2.3-3.1-3c-1.3-0.7-2.7-1.1-4.3-1.1c-1.5,0-3,0.4-4.3,1.1c-1.3,0.7-2.4,1.8-3.1,3
		s-1.2,2.7-1.2,4.2v0v0c0,1.5,0.4,2.9,1.2,4.1s1.8,2.3,3.1,3c1.3,0.8,2.7,1.1,4.3,1.1c1.5,0,3-0.4,4.3-1.1c1.3-0.8,2.3-1.8,3.1-3
		C120.3,470,120.7,468.6,120.7,467.1L120.7,467.1z M90.3,474.3v-14.5h2.3c1.4,0,2.7,0.3,3.9,1c1.2,0.6,2.1,1.5,2.8,2.6
		c0.7,1.1,1,2.4,1,3.7c0,1.4-0.3,2.6-1,3.7c-0.7,1.1-1.6,2-2.8,2.6c-1.2,0.6-2.5,0.9-3.9,0.9H90.3z M86.2,475h6.5
		c1.5,0,3-0.4,4.3-1.1c1.3-0.7,2.3-1.7,3.1-2.9c0.8-1.2,1.2-2.6,1.2-4.1c0-1.5-0.4-2.9-1.2-4.1c-0.8-1.2-1.8-2.2-3.1-2.9
		s-2.7-1.1-4.3-1.1h-6.5v0.8h1.4v14.5h-1.4V475z M83.6,467.9h-5.3v0.7h2.1v3.7c0,0.1-0.1,0.2-0.2,0.3c-0.7,0.6-1.5,1.1-2.4,1.4
		c-0.9,0.3-1.8,0.5-2.8,0.5s-1.9-0.2-2.8-0.5c-0.9-0.3-1.7-0.8-2.4-1.4c-0.1-0.1-0.2-0.2-0.2-0.3v-10.6c0-0.1,0.1-0.2,0.2-0.3
		c0.7-0.6,1.5-1.1,2.4-1.4c0.9-0.3,1.8-0.5,2.8-0.5c1.5,0,2.9,0.4,4.2,1.2l-1.1,1.1l0.6,0.6l1.8-1.7c-0.8-0.6-1.6-1.1-2.5-1.4
		c-0.9-0.3-1.9-0.5-2.9-0.5c-1.5,0-3,0.4-4.3,1.1c-1.3,0.7-2.3,1.8-3.1,3c-0.8,1.3-1.2,2.7-1.2,4.2c0,1.5,0.4,2.9,1.2,4.2
		s1.8,2.3,3.1,3c1.3,0.8,2.7,1.1,4.3,1.1c1.4,0,2.8-0.3,4-1c1.2-0.7,2.3-1.6,3.1-2.7C82.9,470.6,83.4,469.3,83.6,467.9 M60.3,458.9
		v0.8h1.4v10.4h0l-11.2-11.1h-2.2v0.8h1.4v14.5h-1.4v0.8h3.5v-0.8h-1.4v-10.8l11.9,11.7h0v-15.4h1.4v-0.8H60.3z M38.9,475v-0.7h1.6
		v-14.7h-1.6v-0.7h6v0.7h-1.6v14.7h1.6v0.7H38.9z M36.4,474.3l-6.8-9.2l5-5.4h1.3v-0.8h-3.5v0.8h1.1l-7.5,7.7v-7.7h1.4v-0.8h-5.5
		v0.8h1.4v14.5h-1.4v0.8h5.5v-0.8H26v-5.9l1.6-1.4l5.6,7.3h-0.9v0.8H38v-0.8H36.4z"/>
	<path clip-path="url(#SVGID_2_)" fill="#1D1D1B" d="M440.9,274.3v-7h-31.3v7h1.6v-5.5l11.3,0v29.1h-2.8v1.6h11v-1.6H428v-29.1
		l11.3,0v5.5H440.9z M371.6,299.4v-1.6h3.2v-29.1h-3.2v-1.6h12.2v1.6h-3.4v13.8h16.1v-13.8H393v-1.6h12.2v1.6H402v29.1h3.2v1.6H393
		v-1.6h3.5V284h-16.1v13.8h3.4v1.6H371.6z M362.7,293.6l1.8,1.8c-1.3,1-2.8,1.8-4.5,2.4s-3.4,0.8-5.2,0.8c-2,0-3.8-0.3-5.6-1
		c-1.8-0.7-3.3-1.6-4.7-2.8c-0.2-0.2-0.3-0.4-0.3-0.7v-21.2c0-0.2,0.1-0.5,0.3-0.7c1.4-1.2,3-2.2,4.7-2.8c1.8-0.7,3.6-1,5.6-1
		c1.8,0,3.5,0.3,5.1,0.8s3.1,1.3,4.5,2.4l-1.7,1.7l1.1,1.1l3-2.9c-1.6-1.5-3.4-2.6-5.4-3.5c-2.1-0.8-4.2-1.2-6.5-1.2
		c-3.1,0-6,0.7-8.6,2.2c-2.6,1.5-4.7,3.5-6.2,6.1c-1.5,2.6-2.3,5.3-2.3,8.3c0,3,0.8,5.8,2.3,8.3c1.5,2.5,3.6,4.6,6.2,6.1
		c2.6,1.5,5.5,2.3,8.6,2.3c2.3,0,4.4-0.4,6.5-1.2c2.1-0.8,3.9-2,5.4-3.5l-3-2.9L362.7,293.6z M310.9,286.9l5-17.7l6.2,17.7H310.9z
		 M332,297.9l-10.8-30.7h-9.4v1.6h2.9l-8.2,29.2h-2.9v1.6h2.5h4.2v-1.6h-2.3l2.7-9.6h12l3.4,9.6h-2.2v1.6h10.9v-1.6H332z
		 M280.3,284.6v-15.8h8.4c1.4,0,2.6,0.2,3.6,0.7c0.4,0.2,0.7,0.6,0.9,0.9c0.2,0.4,0.3,0.8,0.3,1.3v1.4v8.4c0,0.5-0.1,0.9-0.3,1.2
		c-0.2,0.4-0.5,0.7-0.9,0.9c-1.1,0.6-2.4,0.9-3.7,0.9H280.3z M297.5,297.9v-7.5c0-1.4-0.4-2.6-1.1-3.5c-0.7-0.9-1.6-1.7-2.6-2.2
		c1.3-0.9,2.4-2,3.2-3.4c0.8-1.4,1.2-2.9,1.2-4.6c0-1.7-0.4-3.3-1.3-4.7c-0.8-1.4-2-2.6-3.4-3.4c-1.4-0.9-3-1.3-4.7-1.3h-16.7v1.6
		h2.8v29.1h-3.2v1.6h12v-1.6h-3.2v-11.7h8.4c1.1,0,2.2-0.2,3.2-0.6v7.4c0,1.9,0.5,3.4,1.6,4.6c1.1,1.2,2.4,1.8,3.9,1.8h2.8v-1.6
		H297.5z M266.3,285.2h-10.5v1.4h4.1v7.4c0,0.2-0.1,0.5-0.3,0.7c-1.4,1.2-3,2.2-4.7,2.8c-1.8,0.7-3.6,1-5.6,1c-2,0-3.8-0.3-5.6-1
		c-1.8-0.7-3.3-1.6-4.7-2.8c-0.2-0.2-0.3-0.4-0.3-0.7v-21.2c0-0.2,0.1-0.5,0.3-0.7c1.4-1.2,3-2.2,4.7-2.8c1.8-0.7,3.6-1,5.6-1
		c3,0,5.9,0.8,8.5,2.4l-2.3,2.2l1.1,1.1l3.6-3.5c-1.5-1.2-3.2-2.2-5.1-2.8c-1.9-0.7-3.8-1-5.8-1c-3.1,0-6,0.7-8.6,2.2
		c-2.6,1.5-4.7,3.5-6.2,6.1c-1.5,2.6-2.3,5.3-2.3,8.3c0,3,0.8,5.8,2.3,8.3c1.5,2.5,3.6,4.6,6.2,6.1c2.6,1.5,5.5,2.3,8.6,2.3
		c2.9,0,5.6-0.7,8.1-2c2.5-1.3,4.5-3.1,6.1-5.4C265.1,290.5,266,288,266.3,285.2 M219.8,283l-12.3-6c-0.2-0.1-0.6-0.3-1.3-0.7
		c-0.7-0.4-1.3-0.8-1.8-1.2c-0.6-0.4-0.8-1-0.8-1.7c0-0.7,0.5-1.5,1.4-2.3c0.9-0.8,2.2-1.6,3.8-2.1c1.7-0.6,3.6-0.9,5.7-0.9
		c1.7,0,3.2,0.3,4.7,0.9c1.5,0.6,2.9,1.4,4.1,2.4l-2,1.9l1.1,1.1l3-2.9c-1.2-1.5-2.9-2.7-4.9-3.6c-2.1-0.9-4.1-1.3-6-1.3
		c-2.4,0-4.7,0.4-6.8,1.3c-2.1,0.8-3.8,2-5,3.4c-1.2,1.4-1.9,2.9-1.9,4.5c0,1.4,0.4,2.6,1.1,3.6c0.7,0.9,2,1.9,3.7,2.8l14.4,7.1
		c1.1,0.6,2,1.2,2.7,1.7c0.7,0.6,1,1.2,1,1.9c0,1.1-0.5,2.1-1.6,3c-1.1,0.9-2.4,1.6-4.1,2c-1.7,0.5-3.5,0.7-5.3,0.7
		c-2.6,0-4.8-0.5-6.5-1.6c-1.7-1.1-3.3-2.7-4.7-4.9l2.4-2.4l-1.2-1l-3.2,3.1c3,5.6,7.5,8.3,13.5,8.3c2.4,0,4.6-0.4,6.6-1.1
		c2-0.7,3.6-1.8,4.8-3.2c1.2-1.4,1.8-3.1,1.8-5.1c0-1.4-0.3-2.6-0.9-3.5c-0.6-1-1.4-1.8-2.2-2.4C222.2,284.2,221.1,283.6,219.8,283
		 M175.3,284.6v-15.8h8.4c1.4,0,2.6,0.2,3.6,0.7c0.4,0.2,0.7,0.6,0.9,0.9c0.2,0.4,0.3,0.8,0.3,1.3v1.4v8.4c0,0.5-0.1,0.9-0.3,1.2
		c-0.2,0.4-0.5,0.7-0.9,0.9c-1.1,0.6-2.4,0.9-3.7,0.9H175.3z M192.4,297.9v-7.5c0-1.4-0.4-2.6-1.1-3.5c-0.7-0.9-1.6-1.7-2.6-2.2
		c1.3-0.9,2.4-2,3.2-3.4c0.8-1.4,1.2-2.9,1.2-4.6c0-1.7-0.4-3.3-1.3-4.7c-0.8-1.4-2-2.6-3.4-3.4c-1.4-0.9-3-1.3-4.7-1.3H167v1.6h2.8
		v29.1h-3.2v1.6h12v-1.6h-3.2v-11.7h8.4c1.1,0,2.2-0.2,3.2-0.6v7.4c0,1.9,0.5,3.4,1.6,4.6c1.1,1.2,2.4,1.8,3.9,1.8h2.8v-1.6H192.4z
		 M134.8,299.4h24.6v-6.6H158v5.1h-14.9V284h9.3v-1.4h-9.3v-13.8H158v5.1h1.4v-6.6h-24.6v1.6h2.8l0,29.1h-2.8V299.4z M105.5,299.4
		h24.2v-4.3h-1.5v2.8h-16.9l18.4-29.1v-1.6h-24.2v4.3h1.7v-2.8h16.7l-18.4,29.1V299.4z M89.2,299.4v-1.4h3.2v-29.4h-3.2v-1.4h12v1.4
		h-3.2v29.4h3.2v1.4H89.2z M57.4,299.4H82v-6.6h-1.4v5.1H65.8V284h9.3v-1.4h-9.3v-13.8h14.9v5.1H82v-6.6H57.5v1.6h2.8l0,29.1h-2.8
		V299.4z M52.4,297.9l-13.7-18.3l9.9-10.8h2.6v-1.6h-6.9v1.6h2.3l-14.9,15.4v-15.4h2.8v-1.6h-11v1.6h2.8v29.1h-2.8v1.6h11v-1.6h-2.8
		v-11.8l3.1-2.8l11.1,14.6h-1.7v1.6h11.3v-1.6H52.4z"/>
	<path clip-path="url(#SVGID_2_)" fill="#1D1D1B" d="M414.1,419h5.5v-1.3h-2.2v-22.9l10,24.3h0.9l9.7-22.9v21.6h-2.1v1.3h9.1v-1.3
		h-2.1v-23.4h2.1v-1.3H438l-8.3,19.9l-8.2-19.9h-7.7v1.3h2.4l0.2,23.4h-2.2V419z M409.3,393.1h-8.9v1.3h2.2V415c0,0.2,0,0.4-0.2,0.6
		c-1,0.9-2.1,1.6-3.3,2c-1.3,0.5-2.6,0.7-3.9,0.7c-1.3,0-2.6-0.3-3.9-0.7c-1.3-0.5-2.4-1.1-3.3-2c-0.1-0.1-0.2-0.3-0.2-0.5V415
		v-20.6h2.2v-1.3h-2.2h-6.7v1.3h2.2v12.9c0,2.6,0.6,4.8,1.7,6.6s2.6,3.2,4.4,4.2c1.8,0.9,3.7,1.4,5.7,1.5c2,0,3.9-0.5,5.7-1.5
		c1.8-0.9,3.3-2.3,4.4-4.2s1.7-4.1,1.7-6.6v-12.9h2.2V393.1z M358,419h19.8v-5.3h-1.1v4.1h-12v-11.2h7.5v-1.1h-7.5v-11.1h12v4.1h1.1
		v-5.3H358v1.3h2.2l0,23.4H358V419z M347.1,405.8l-9.9-4.8c-0.1-0.1-0.5-0.3-1-0.5c-0.5-0.3-1-0.6-1.5-1c-0.4-0.4-0.7-0.8-0.7-1.3
		c0-0.6,0.4-1.2,1.1-1.9c0.7-0.7,1.8-1.3,3.1-1.7c1.3-0.5,2.9-0.7,4.6-0.7c1.3,0,2.6,0.2,3.8,0.7c1.2,0.5,2.3,1.1,3.3,1.9l-1.6,1.6
		l0.9,0.9l2.4-2.4c-1-1.2-2.3-2.2-4-2.9c-1.7-0.7-3.3-1.1-4.8-1.1c-1.9,0-3.8,0.3-5.5,1c-1.7,0.7-3,1.6-4,2.7
		c-1,1.1-1.5,2.3-1.5,3.6c0,1.2,0.3,2.1,0.9,2.9c0.6,0.8,1.6,1.5,3,2.2l11.6,5.7c0.9,0.5,1.6,0.9,2.2,1.4c0.5,0.5,0.8,1,0.8,1.6
		c0,0.9-0.4,1.7-1.3,2.4c-0.9,0.7-2,1.3-3.3,1.6c-1.4,0.4-2.8,0.6-4.2,0.6c-2.1,0-3.8-0.4-5.2-1.3c-1.4-0.9-2.6-2.2-3.8-3.9l1.9-1.9
		l-1-0.8l-2.6,2.5c2.4,4.5,6,6.7,10.9,6.7c1.9,0,3.7-0.3,5.3-0.9c1.6-0.6,2.9-1.4,3.8-2.6c0.9-1.1,1.4-2.5,1.4-4.1
		c0-1.1-0.2-2.1-0.7-2.8c-0.5-0.8-1.1-1.4-1.8-1.9C349,406.8,348.1,406.3,347.1,405.8 M327.6,393.1h-8.9v1.3h2.2V415
		c0,0.2-0.1,0.4-0.2,0.6c-1,0.9-2.1,1.6-3.3,2c-1.3,0.5-2.6,0.7-3.9,0.7c-1.3,0-2.6-0.3-3.9-0.7c-1.3-0.5-2.4-1.1-3.3-2
		c-0.1-0.1-0.2-0.3-0.2-0.5V415v-20.6h2.2v-1.3h-2.2h-6.7v1.3h2.2v12.9c0,2.6,0.6,4.8,1.7,6.6s2.6,3.2,4.4,4.2
		c1.8,0.9,3.7,1.4,5.7,1.5c2,0,3.9-0.5,5.7-1.5c1.8-0.9,3.3-2.3,4.4-4.2s1.7-4.1,1.7-6.6v-12.9h2.2V393.1z M264.8,419h5.5v-1.3H268
		v-22.9l10,24.3h0.9l9.7-22.9v21.6h-2.1v1.3h9.1v-1.3h-2.1v-23.4h2.1v-1.3h-6.9l-8.3,19.9l-8.2-19.9h-7.7v1.3h2.4l0.2,23.4h-2.2V419
		z M218.3,419v-1.3h2.6v-23.4h-2.6v-1.3h9.8v1.3h-2.8v11.1h13v-11.1h-2.8v-1.3h9.8v1.3h-2.6v23.4h2.6v1.3h-9.8v-1.3h2.8v-11.1h-13
		v11.1h2.8v1.3H218.3z M214,407.6h-8.5v1.1h3.3v6c0,0.2-0.1,0.4-0.3,0.6c-1.1,1-2.4,1.7-3.8,2.3c-1.4,0.5-2.9,0.8-4.5,0.8
		c-1.6,0-3.1-0.3-4.5-0.8c-1.4-0.5-2.7-1.3-3.8-2.3c-0.2-0.2-0.3-0.4-0.3-0.6v-17c0-0.2,0.1-0.4,0.3-0.6c1.1-1,2.4-1.7,3.8-2.3
		c1.4-0.5,2.9-0.8,4.5-0.8c2.4,0,4.7,0.7,6.8,2l-1.8,1.8l0.9,0.9l2.9-2.8c-1.2-1-2.6-1.7-4.1-2.3c-1.5-0.5-3.1-0.8-4.7-0.8
		c-2.5,0-4.8,0.6-6.9,1.8c-2.1,1.2-3.8,2.8-5,4.9c-1.2,2.1-1.8,4.3-1.8,6.7c0,2.4,0.6,4.6,1.8,6.7c1.2,2,2.9,3.7,5,4.9
		c2.1,1.2,4.4,1.8,6.9,1.8c2.3,0,4.5-0.5,6.5-1.6c2-1.1,3.7-2.5,4.9-4.3C213,411.9,213.8,409.8,214,407.6 M157.9,415.3
		c-0.2-0.2-0.3-0.4-0.3-0.6v-17c0-0.2,0.1-0.4,0.3-0.6c1.1-1,2.4-1.7,3.8-2.3c1.4-0.5,2.9-0.8,4.5-0.8c1.6,0,3.1,0.3,4.5,0.8
		c1.4,0.5,2.7,1.3,3.8,2.3c0.2,0.2,0.3,0.4,0.3,0.6v17c0,0.2-0.1,0.4-0.3,0.6c-1.1,1-2.4,1.7-3.8,2.3c-1.4,0.5-2.9,0.8-4.5,0.8
		c-1.6,0-3.1-0.3-4.5-0.8C160.2,417,159,416.3,157.9,415.3 M179.9,406.2L179.9,406.2c0-2.5-0.6-4.7-1.9-6.7c-1.2-2-2.9-3.7-5-4.9
		c-2.1-1.2-4.4-1.8-6.9-1.8c-2.5,0-4.8,0.6-6.9,1.8c-2.1,1.2-3.8,2.8-5,4.9c-1.2,2-1.8,4.3-1.8,6.7v0v0c0,2.4,0.6,4.6,1.8,6.7
		c1.2,2,2.9,3.7,5,4.9c2.1,1.2,4.4,1.8,6.9,1.8c2.5,0,4.8-0.6,6.9-1.8c2.1-1.2,3.8-2.8,5-4.9C179.3,410.9,179.9,408.6,179.9,406.2
		L179.9,406.2z M148,407.6h-8.5v1.1h3.3v6c0,0.2-0.1,0.4-0.3,0.6c-1.1,1-2.4,1.7-3.8,2.3c-1.4,0.5-2.9,0.8-4.5,0.8
		c-1.6,0-3.1-0.3-4.5-0.8c-1.4-0.5-2.7-1.3-3.8-2.3c-0.2-0.2-0.3-0.4-0.3-0.6v-17c0-0.2,0.1-0.4,0.3-0.6c1.1-1,2.4-1.7,3.8-2.3
		c1.4-0.5,2.9-0.8,4.5-0.8c2.4,0,4.7,0.7,6.8,2l-1.8,1.8l0.9,0.9l2.9-2.8c-1.2-1-2.6-1.7-4.1-2.3c-1.5-0.5-3.1-0.8-4.7-0.8
		c-2.5,0-4.8,0.6-6.9,1.8c-2.1,1.2-3.8,2.8-5,4.9c-1.2,2.1-1.8,4.3-1.8,6.7c0,2.4,0.6,4.6,1.8,6.7c1.2,2,2.9,3.7,5,4.9
		c2.1,1.2,4.4,1.8,6.9,1.8c2.3,0,4.5-0.5,6.5-1.6c2-1.1,3.6-2.5,4.9-4.3C146.9,411.9,147.7,409.8,148,407.6 M94.3,393.1v1.3h2.2V411
		h0l-18-17.9H75v1.3h2.2v23.4H75v1.3h5.7v-1.3h-2.2v-17.4l19.2,18.8h0.1v-24.8h2.2v-1.3H94.3z M52.9,409l4-14.2l5,14.2H52.9z
		 M69.8,417.8l-8.7-24.7h-7.6v1.3h2.3l-6.6,23.5h-2.4v1.3h2h3.4v-1.3h-1.8l2.1-7.7h9.7l2.7,7.7h-1.8v1.3h8.7v-1.3H69.8z M46.9,393.1
		h-5.4v1.3h1.8L36,417.6l-8.4-23.2h1.6v-1.3h-9.1v1.3h2.6l9.2,24.9h4.8l7.7-24.9h2.5V393.1z"/>
	<path clip-path="url(#SVGID_2_)" fill="#1D1D1B" d="M420,535.4h19.8v-5.3h-1.1v4.1h-12V523h7.5v-1.1h-7.5v-11.1h12v4.1h1.1v-5.3
		H420v1.3h2.2l0,23.4H420V535.4z M415.6,509.5h-8.9v1.3h2.2v11.6v7.9c0,0.2,0,0.4-0.2,0.6c-1,1.1-2.2,1.9-3.5,2.6
		c-1.3,0.7-2.8,1.1-4.3,1.2v-2.1h-1.3v3.5c2.5,0,4.8-0.6,6.9-1.8c2.1-1.2,3.8-2.8,5-4.9c1.2-2,1.9-4.3,1.9-6.7h-0.1h0.1v-11.8h2.2
		V509.5z M400.6,515.2v-5.7h-25.2v5.7h1.3v-4.4l9.1,0v23.4h-2.2v1.3h8.9v-1.3h-2.2v-23.4l9.1,0v4.4H400.6z M357.6,523.5v-12.7h6.8
		c1.2,0,2.1,0.2,2.9,0.6c0.3,0.2,0.6,0.5,0.8,0.8c0.2,0.3,0.3,0.7,0.3,1.1v1.1v6.7c0,0.4-0.1,0.7-0.2,1c-0.2,0.3-0.4,0.5-0.7,0.7
		c-0.9,0.5-1.9,0.7-3,0.7H357.6z M371.3,534.2v-6c0-1.1-0.3-2.1-0.9-2.8c-0.6-0.8-1.3-1.3-2.1-1.8c1.1-0.7,1.9-1.6,2.6-2.7
		c0.6-1.1,0.9-2.4,0.9-3.7c0-1.4-0.3-2.7-1-3.8c-0.7-1.2-1.6-2.1-2.8-2.8c-1.2-0.7-2.4-1-3.8-1h-13.4v1.3h2.2v23.4h-2.6v1.3h9.6
		v-1.3h-2.6v-9.4h6.8c0.9,0,1.7-0.1,2.6-0.4v6c0,1.5,0.4,2.8,1.3,3.7c0.9,0.9,1.9,1.4,3.2,1.4h2.2v-1.3H371.3z M325,535.4h19.8v-5.3
		h-1.1v4.1h-12V523h7.5v-1.1h-7.5v-11.1h12v4.1h1.1v-5.3H325v1.3h2.2l0,23.4H325V535.4z M287.6,535.4h5.5v-1.3h-2.2v-22.9l10,24.3
		h0.9l9.7-22.9v21.6h-2.1v1.3h9.1v-1.3h-2.1v-23.4h2.1v-1.3h-6.9l-8.3,19.9l-8.2-19.9h-7.7v1.3h2.4l0.2,23.4h-2.2V535.4z M251,535.4
		h5.5v-1.3h-2.2v-22.9l10,24.3h0.9l9.7-22.9v21.6h-2.1v1.3h9.1v-1.3h-2.1v-23.4h2.1v-1.3h-6.9l-8.3,19.9l-8.2-19.9h-7.7v1.3h2.4
		l0.2,23.4H251V535.4z M228.4,525.4l4-14.2l5,14.2H228.4z M245.3,534.2l-8.7-24.7H229v1.3h2.3l-6.6,23.5h-2.4v1.3h2h3.4v-1.3h-1.8
		l2.1-7.7h9.7l2.7,7.7h-1.8v1.3h8.7v-1.3H245.3z M204,534.2v-23.4h3.8c2.3,0,4.4,0.5,6.3,1.5c1.9,1,3.4,2.4,4.5,4.2
		c1.1,1.8,1.7,3.8,1.7,6c0,2.2-0.6,4.2-1.7,6s-2.6,3.2-4.5,4.2c-1.9,1-4,1.5-6.3,1.5H204z M197.4,535.4h10.4c2.5,0,4.8-0.6,6.9-1.7
		c2.1-1.1,3.8-2.7,5-4.6c1.2-2,1.9-4.1,1.9-6.6c0-2.4-0.6-4.6-1.9-6.6c-1.2-2-2.9-3.5-5-4.7c-2.1-1.1-4.4-1.7-6.9-1.7h-10.4v1.3h2.2
		v23.4h-2.2V535.4z M176,523.5v-12.7h6.8c1.2,0,2.1,0.2,2.9,0.6c0.3,0.2,0.6,0.5,0.8,0.8c0.2,0.3,0.3,0.7,0.3,1.1v1.1v6.7
		c0,0.4-0.1,0.7-0.2,1c-0.2,0.3-0.4,0.5-0.7,0.7c-0.9,0.5-1.9,0.7-3,0.7H176z M189.8,534.2v-6c0-1.1-0.3-2.1-0.9-2.8
		c-0.6-0.8-1.3-1.3-2.1-1.8c1.1-0.7,1.9-1.6,2.6-2.7c0.6-1.1,0.9-2.4,0.9-3.7c0-1.4-0.3-2.7-1-3.8c-0.7-1.2-1.6-2.1-2.8-2.8
		c-1.2-0.7-2.4-1-3.8-1h-13.4v1.3h2.2v23.4H169v1.3h9.6v-1.3H176v-9.4h6.8c0.9,0,1.7-0.1,2.6-0.4v6c0,1.5,0.4,2.8,1.3,3.7
		c0.9,0.9,1.9,1.4,3.2,1.4h2.2v-1.3H189.8z M143.5,535.4h19.8v-5.3h-1.1v4.1h-12V523h7.5v-1.1h-7.5v-11.1h12v4.1h1.1v-5.3h-19.8v1.3
		h2.2l0,23.4h-2.2V535.4z M138.5,515.2v-5.7h-25.2v5.7h1.3v-4.4l9.1,0v23.4h-2.2v1.3h8.9v-1.3h-2.2v-23.4l9.1,0v4.4H138.5z
		 M106,522.2l-9.9-4.8c-0.1-0.1-0.5-0.3-1-0.5c-0.5-0.3-1-0.6-1.5-1c-0.4-0.4-0.7-0.8-0.7-1.4c0-0.6,0.4-1.2,1.1-1.9
		c0.7-0.7,1.8-1.3,3.1-1.7c1.3-0.5,2.9-0.7,4.6-0.7c1.3,0,2.6,0.2,3.8,0.7c1.2,0.5,2.3,1.1,3.3,1.9l-1.6,1.6l0.9,0.9l2.4-2.4
		c-1-1.2-2.3-2.2-4-2.9c-1.7-0.7-3.3-1.1-4.8-1.1c-1.9,0-3.8,0.3-5.5,1c-1.7,0.7-3,1.6-4,2.7c-1,1.1-1.5,2.3-1.5,3.6
		c0,1.2,0.3,2.1,0.9,2.9c0.6,0.8,1.6,1.5,3,2.2l11.6,5.7c0.9,0.5,1.6,0.9,2.2,1.4c0.5,0.5,0.8,1,0.8,1.6c0,0.9-0.4,1.7-1.3,2.4
		c-0.9,0.7-2,1.3-3.3,1.6c-1.4,0.4-2.8,0.6-4.2,0.6c-2.1,0-3.8-0.4-5.2-1.3c-1.4-0.9-2.6-2.2-3.8-3.9l1.9-1.9l-1-0.8l-2.6,2.5
		c2.4,4.5,6,6.7,10.9,6.7c1.9,0,3.7-0.3,5.3-0.9c1.6-0.6,2.9-1.4,3.8-2.6c1-1.1,1.4-2.5,1.4-4.1c0-1.1-0.2-2.1-0.7-2.8
		c-0.5-0.8-1.1-1.4-1.8-1.9C107.9,523.2,107,522.7,106,522.2 M54.8,535.4h5.5v-1.3H58v-22.9l10,24.3h0.9l9.7-22.9v21.6h-2.1v1.3h9.1
		v-1.3h-2.1v-23.4h2.1v-1.3h-6.9l-8.3,19.9l-8.2-19.9h-7.7v1.3h2.4l0.2,23.4h-2.2V535.4z M32.1,525.4l4-14.2l5,14.2H32.1z
		 M49.1,534.2l-8.7-24.7h-7.6v1.3h2.3l-6.6,23.5h-2.4v1.3h2h3.4v-1.3h-1.8l2.1-7.7h9.7l2.7,7.7h-1.8v1.3h8.7v-1.3H49.1z"/>
	<path clip-path="url(#SVGID_2_)" fill="#1D1D1B" d="M425.2,356.9h3.2v-0.7H427v-13.3l5.8,14.1h0.5l5.7-13.3v12.5h-1.2v0.7h5.3v-0.7
		h-1.2v-13.6h1.2v-0.7h-4l-4.8,11.6l-4.8-11.6h-4.5v0.7h1.4l0.1,13.6h-1.3V356.9z M412,351.1l2.3-8.3l2.9,8.3H412z M421.8,356.2
		l-5.1-14.4h-4.4v0.7h1.3l-3.8,13.6h-1.4v0.7h1.2h2v-0.7h-1.1l1.2-4.5h5.6l1.6,4.5h-1v0.7h5.1v-0.7H421.8z M397.8,356.2v-13.6h2.2
		c1.3,0,2.5,0.3,3.6,0.9c1.1,0.6,2,1.4,2.6,2.5c0.6,1,1,2.2,1,3.5c0,1.3-0.3,2.4-1,3.5c-0.6,1-1.5,1.8-2.6,2.4
		c-1.1,0.6-2.3,0.9-3.6,0.9H397.8z M394,356.9h6.1c1.4,0,2.8-0.3,4-1c1.2-0.7,2.2-1.6,2.9-2.7c0.7-1.1,1.1-2.4,1.1-3.8
		c0-1.4-0.4-2.7-1.1-3.8s-1.7-2.1-2.9-2.7c-1.2-0.7-2.6-1-4-1H394v0.7h1.3v13.6H394V356.9z M381.6,350v-7.4h3.9
		c0.7,0,1.2,0.1,1.7,0.3c0.2,0.1,0.3,0.3,0.4,0.4c0.1,0.2,0.2,0.4,0.2,0.6v0.6v3.9c0,0.2,0,0.4-0.1,0.6c-0.1,0.2-0.2,0.3-0.4,0.4
		c-0.5,0.3-1.1,0.4-1.7,0.4H381.6z M389.6,356.2v-3.5c0-0.7-0.2-1.2-0.5-1.6c-0.3-0.4-0.7-0.8-1.2-1c0.6-0.4,1.1-0.9,1.5-1.6
		c0.4-0.7,0.5-1.4,0.5-2.1c0-0.8-0.2-1.5-0.6-2.2c-0.4-0.7-0.9-1.2-1.6-1.6c-0.7-0.4-1.4-0.6-2.2-0.6h-7.8v0.7h1.3v13.6h-1.5v0.7
		h5.6v-0.7h-1.5v-5.5h3.9c0.5,0,1-0.1,1.5-0.3v3.5c0,0.9,0.2,1.6,0.7,2.2c0.5,0.6,1.1,0.8,1.8,0.8h1.3v-0.7H389.6z M362.7,356.9
		h11.5v-3.1h-0.6v2.4h-7v-6.5h4.4V349h-4.4v-6.5h7v2.4h0.6v-3.1h-11.5v0.7h1.3l0,13.6h-1.3V356.9z M359.7,345.1v-3.3h-14.6v3.3h0.7
		v-2.6l5.3,0v13.6h-1.3v0.7h5.2v-0.7h-1.3v-13.6l5.3,0v2.6H359.7z M340.9,349.2l-5.7-2.8c-0.1,0-0.3-0.1-0.6-0.3
		c-0.3-0.2-0.6-0.4-0.8-0.6c-0.3-0.2-0.4-0.5-0.4-0.8c0-0.3,0.2-0.7,0.6-1.1c0.4-0.4,1-0.7,1.8-1c0.8-0.3,1.7-0.4,2.7-0.4
		c0.8,0,1.5,0.1,2.2,0.4c0.7,0.3,1.3,0.7,1.9,1.1l-0.9,0.9l0.5,0.5l1.4-1.4c-0.6-0.7-1.3-1.3-2.3-1.7s-1.9-0.6-2.8-0.6
		c-1.1,0-2.2,0.2-3.2,0.6c-1,0.4-1.8,0.9-2.3,1.6c-0.6,0.7-0.9,1.4-0.9,2.1c0,0.7,0.2,1.2,0.5,1.7c0.3,0.4,0.9,0.9,1.7,1.3l6.7,3.3
		c0.5,0.3,1,0.5,1.3,0.8c0.3,0.3,0.5,0.6,0.5,0.9c0,0.5-0.2,1-0.7,1.4c-0.5,0.4-1.1,0.7-1.9,1c-0.8,0.2-1.6,0.3-2.5,0.3
		c-1.2,0-2.2-0.3-3-0.8c-0.8-0.5-1.5-1.3-2.2-2.3l1.1-1.1l-0.6-0.5l-1.5,1.4c1.4,2.6,3.5,3.9,6.3,3.9c1.1,0,2.2-0.2,3.1-0.5
		c0.9-0.3,1.7-0.8,2.2-1.5c0.6-0.7,0.8-1.4,0.8-2.4c0-0.6-0.1-1.2-0.4-1.7c-0.3-0.5-0.6-0.8-1-1.1
		C342,349.8,341.5,349.5,340.9,349.2 M311.1,356.9h3.2v-0.7H313v-13.3l5.8,14.1h0.5l5.7-13.3v12.5h-1.2v0.7h5.3v-0.7h-1.2v-13.6h1.2
		v-0.7h-4l-4.8,11.6l-4.8-11.6h-4.5v0.7h1.4l0.1,13.6h-1.3V356.9z M297.9,351.1l2.3-8.3l2.9,8.3H297.9z M307.8,356.2l-5.1-14.4h-4.4
		v0.7h1.3l-3.8,13.6h-1.4v0.7h1.2h2v-0.7h-1.1l1.2-4.5h5.6l1.6,4.5h-1v0.7h5.1v-0.7H307.8z M281.1,341.9v0.7h1.3v9.7h0L272,341.9h-2
		v0.7h1.3v13.6h-1.3v0.7h3.3v-0.7H272v-10.1l11.1,10.9h0v-14.4h1.3v-0.7H281.1z M261.1,356.9v-0.6h1.5v-13.8h-1.5v-0.6h5.6v0.6h-1.5
		v13.8h1.5v0.6H261.1z M247.3,349.2l-5.7-2.8c-0.1,0-0.3-0.1-0.6-0.3c-0.3-0.2-0.6-0.4-0.8-0.6c-0.3-0.2-0.4-0.5-0.4-0.8
		c0-0.3,0.2-0.7,0.6-1.1c0.4-0.4,1-0.7,1.8-1s1.7-0.4,2.7-0.4c0.8,0,1.5,0.1,2.2,0.4c0.7,0.3,1.3,0.7,1.9,1.1l-0.9,0.9l0.5,0.5
		l1.4-1.4c-0.6-0.7-1.3-1.3-2.3-1.7c-1-0.4-1.9-0.6-2.8-0.6c-1.1,0-2.2,0.2-3.2,0.6c-1,0.4-1.8,0.9-2.3,1.6
		c-0.6,0.7-0.9,1.4-0.9,2.1c0,0.7,0.2,1.2,0.5,1.7c0.3,0.4,0.9,0.9,1.7,1.3l6.7,3.3c0.5,0.3,0.9,0.5,1.3,0.8
		c0.3,0.3,0.5,0.6,0.5,0.9c0,0.5-0.2,1-0.7,1.4c-0.5,0.4-1.1,0.7-1.9,1c-0.8,0.2-1.6,0.3-2.5,0.3c-1.2,0-2.2-0.3-3-0.8
		c-0.8-0.5-1.5-1.3-2.2-2.3l1.1-1.1l-0.6-0.5l-1.5,1.4c1.4,2.6,3.5,3.9,6.3,3.9c1.1,0,2.2-0.2,3.1-0.5c0.9-0.3,1.7-0.8,2.2-1.5
		s0.8-1.4,0.8-2.4c0-0.6-0.1-1.2-0.4-1.7c-0.3-0.5-0.6-0.8-1-1.1C248.4,349.8,247.9,349.5,247.3,349.2 M223.4,356.9h11.5v-3.1h-0.6
		v2.4h-7v-6.5h4.4V349h-4.4v-6.5h7v2.4h0.6v-3.1h-11.5v0.7h1.3l0,13.6h-1.3V356.9z M209.5,356.9h11.8v-3h-0.7v2.3h-7.2v-13.6h1.6
		v-0.7h-5.5v0.7h1.3v13.6h-1.3V356.9z M205.3,354.2l0.8,0.8c-0.6,0.5-1.3,0.9-2.1,1.1c-0.8,0.3-1.6,0.4-2.4,0.4
		c-0.9,0-1.8-0.2-2.6-0.5c-0.8-0.3-1.6-0.7-2.2-1.3c-0.1-0.1-0.2-0.2-0.2-0.3v-9.9c0-0.1,0-0.2,0.2-0.3c0.6-0.6,1.4-1,2.2-1.3
		c0.8-0.3,1.7-0.5,2.6-0.5c0.8,0,1.6,0.1,2.4,0.4c0.8,0.3,1.5,0.6,2.1,1.1l-0.8,0.8l0.5,0.5l1.4-1.4c-0.7-0.7-1.6-1.2-2.5-1.6
		c-1-0.4-2-0.6-3-0.6c-1.4,0-2.8,0.3-4,1c-1.2,0.7-2.2,1.6-2.9,2.8c-0.7,1.2-1.1,2.5-1.1,3.9c0,1.4,0.4,2.7,1.1,3.9
		c0.7,1.2,1.7,2.1,2.9,2.8c1.2,0.7,2.6,1.1,4,1.1c1.1,0,2.1-0.2,3-0.6c1-0.4,1.8-0.9,2.5-1.6l-1.4-1.4L205.3,354.2z M191.3,342.6
		h1.3v-0.7h-3.1v0.7h1.1l-3.4,6.3l-3.7-6.3h1.1v-0.7h-5.1v0.7h1.4l4,6.8v6.8h-1.3v0.7h1.3h3.9v-0.7h-1.3v-6.6L191.3,342.6z
		 M177.4,354.2l0.8,0.8c-0.6,0.5-1.3,0.9-2.1,1.1c-0.8,0.3-1.6,0.4-2.4,0.4c-0.9,0-1.8-0.2-2.6-0.5c-0.8-0.3-1.6-0.7-2.2-1.3
		c-0.1-0.1-0.2-0.2-0.2-0.3v-9.9c0-0.1,0.1-0.2,0.2-0.3c0.6-0.6,1.4-1,2.2-1.3c0.8-0.3,1.7-0.5,2.6-0.5c0.8,0,1.6,0.1,2.4,0.4
		c0.8,0.3,1.5,0.6,2.1,1.1l-0.8,0.8l0.5,0.5l1.4-1.4c-0.7-0.7-1.6-1.2-2.5-1.6c-1-0.4-2-0.6-3-0.6c-1.4,0-2.8,0.3-4,1
		c-1.2,0.7-2.2,1.6-2.9,2.8c-0.7,1.2-1.1,2.5-1.1,3.9c0,1.4,0.4,2.7,1.1,3.9c0.7,1.2,1.7,2.1,2.9,2.8c1.2,0.7,2.6,1.1,4,1.1
		c1.1,0,2.1-0.2,3-0.6c1-0.4,1.8-0.9,2.5-1.6l-1.4-1.4L177.4,354.2z M156.8,356.9v-0.6h1.5v-13.8h-1.5v-0.6h5.6v0.6h-1.5v13.8h1.5
		v0.6H156.8z M149.9,356.2h-2.2v-8.4h2.2c0.8,0,1.5,0.2,2.2,0.6c0.7,0.4,1.2,0.9,1.6,1.5c0.4,0.7,0.6,1.4,0.6,2.2
		c0,0.8-0.2,1.5-0.6,2.1c-0.4,0.6-0.9,1.1-1.6,1.5C151.4,356,150.7,356.2,149.9,356.2 M151.4,345c0,0.6-0.2,1.1-0.6,1.5
		c-0.4,0.4-0.9,0.6-1.6,0.6h-1.4v-4.5h1.4c0.4,0,0.7,0.1,1.1,0.3c0.3,0.2,0.6,0.5,0.8,0.9C151.3,344.2,151.4,344.6,151.4,345
		 M150.9,347.2c0.8-0.6,1.2-1.3,1.2-2.2c0-0.6-0.1-1.1-0.4-1.6c-0.3-0.5-0.6-0.9-1.1-1.2c-0.4-0.3-0.9-0.4-1.4-0.4h-5.4v0.7h1.3
		v13.6h-1.3v0.7h6c1,0,1.8-0.2,2.6-0.7c0.8-0.4,1.4-1,1.8-1.8c0.4-0.7,0.7-1.5,0.7-2.4c0-0.8-0.2-1.5-0.6-2.2
		c-0.4-0.7-0.9-1.3-1.5-1.7S151.6,347.4,150.9,347.2 M122.2,355.3L122.2,355.3c0-0.1-0.1-0.2-0.1-0.3v-11c0-0.1,0.1-0.2,0.2-0.3v0
		c1-0.8,2.1-1.2,3.4-1.2c0.7,0,1.3,0.1,2,0.3c0.6,0.2,1.2,0.6,1.7,1c0,0.1,0.1,0.1,0.1,0.2v11c0,0.1,0,0.1-0.1,0.2
		c-0.5,0.4-1.1,0.8-1.7,1c-0.6,0.2-1.3,0.3-2,0.3C124.3,356.5,123.1,356.1,122.2,355.3 M125.6,341.7c-1.2,0-2.3,0.3-3.3,1
		c-1,0.6-1.8,1.6-2.4,2.7c-0.6,1.2-0.9,2.5-0.9,4.1c0,1.5,0.3,2.9,0.9,4.1c0.6,1.2,1.4,2.1,2.4,2.7c1,0.6,2.1,1,3.3,1
		c1.2,0,2.3-0.3,3.4-1c1-0.7,1.9-1.6,2.5-2.8c0.6-1.2,0.9-2.5,0.9-4.1c0-1.5-0.3-2.9-0.9-4.1c-0.6-1.2-1.4-2.1-2.5-2.7
		C128,342,126.8,341.7,125.6,341.7 M106.2,355.3L106.2,355.3c0-0.1-0.1-0.2-0.1-0.3v-11c0-0.1,0.1-0.2,0.2-0.3v0
		c1-0.8,2.1-1.2,3.4-1.2c0.7,0,1.3,0.1,2,0.3c0.6,0.2,1.2,0.6,1.7,1c0,0.1,0.1,0.1,0.1,0.2v11c0,0.1,0,0.1-0.1,0.2
		c-0.5,0.4-1.1,0.8-1.7,1c-0.6,0.2-1.3,0.3-2,0.3C108.4,356.5,107.2,356.1,106.2,355.3 M109.7,341.7c-1.2,0-2.3,0.3-3.3,1
		c-1,0.6-1.8,1.6-2.4,2.7c-0.6,1.2-0.9,2.5-0.9,4.1c0,1.5,0.3,2.9,0.9,4.1c0.6,1.2,1.4,2.1,2.4,2.7c1,0.6,2.1,1,3.3,1
		c1.2,0,2.3-0.3,3.4-1c1-0.7,1.9-1.6,2.5-2.8c0.6-1.2,0.9-2.5,0.9-4.1c0-1.5-0.3-2.9-0.9-4.1c-0.6-1.2-1.4-2.1-2.5-2.7
		C112,342,110.9,341.7,109.7,341.7 M90.3,355.3L90.3,355.3c0-0.1-0.1-0.2-0.1-0.3v-11c0-0.1,0.1-0.2,0.2-0.3v0
		c1-0.8,2.1-1.2,3.4-1.2c0.7,0,1.3,0.1,2,0.3c0.6,0.2,1.2,0.6,1.7,1c0,0.1,0.1,0.1,0.1,0.2v11c0,0.1,0,0.1-0.1,0.2
		c-0.5,0.4-1.1,0.8-1.7,1c-0.6,0.2-1.3,0.3-2,0.3C92.4,356.5,91.3,356.1,90.3,355.3 M93.8,341.7c-1.2,0-2.3,0.3-3.3,1
		c-1,0.6-1.8,1.6-2.4,2.7c-0.6,1.2-0.9,2.5-0.9,4.1c0,1.5,0.3,2.9,0.9,4.1c0.6,1.2,1.4,2.1,2.4,2.7s2.1,1,3.3,1c1.2,0,2.3-0.3,3.4-1
		c1-0.7,1.9-1.6,2.5-2.8c0.6-1.2,0.9-2.5,0.9-4.1c0-1.5-0.3-2.9-0.9-4.1c-0.6-1.2-1.4-2.1-2.5-2.7C96.1,342,95,341.7,93.8,341.7
		 M85.4,355.6L85.4,355.6c0-0.4-0.1-0.8-0.4-1c-0.3-0.3-0.6-0.4-1-0.4s-0.7,0.1-1,0.4c-0.3,0.3-0.4,0.6-0.4,1c0,0.4,0.1,0.7,0.4,1
		c0.3,0.3,0.6,0.4,1,0.4c0.2,0,0.4,0,0.6-0.1c-0.1,0.4-0.3,0.8-0.6,1c-0.3,0.2-0.6,0.3-0.9,0.3v0.7c0.8,0,1.3-0.3,1.7-0.8
		c0.4-0.6,0.6-1.2,0.6-2C85.4,355.9,85.4,355.7,85.4,355.6 M70.2,355.3L70.2,355.3c0-0.1-0.1-0.2-0.1-0.3v-11c0-0.1,0.1-0.2,0.2-0.3
		v0c1-0.8,2.1-1.2,3.4-1.2c0.7,0,1.3,0.1,2,0.3c0.6,0.2,1.2,0.6,1.7,1c0,0.1,0.1,0.1,0.1,0.2v11c0,0.1,0,0.1-0.1,0.2
		c-0.5,0.4-1.1,0.8-1.7,1c-0.6,0.2-1.3,0.3-2,0.3C72.3,356.5,71.2,356.1,70.2,355.3 M73.7,341.7c-1.2,0-2.3,0.3-3.3,1
		c-1,0.6-1.8,1.6-2.4,2.7c-0.6,1.2-0.9,2.5-0.9,4.1c0,1.5,0.3,2.9,0.9,4.1c0.6,1.2,1.4,2.1,2.4,2.7c1,0.6,2.1,1,3.3,1
		c1.2,0,2.3-0.3,3.4-1c1-0.7,1.9-1.6,2.5-2.8c0.6-1.2,0.9-2.5,0.9-4.1c0-1.5-0.3-2.9-0.9-4.1c-0.6-1.2-1.4-2.1-2.5-2.7
		C76,342,74.9,341.7,73.7,341.7 M54.3,355.3L54.3,355.3c0-0.1-0.1-0.2-0.1-0.3v-11c0-0.1,0.1-0.2,0.2-0.3v0c1-0.8,2.1-1.2,3.4-1.2
		c0.7,0,1.3,0.1,2,0.3c0.6,0.2,1.2,0.6,1.7,1c0,0.1,0.1,0.1,0.1,0.2v11c0,0.1,0,0.1-0.1,0.2c-0.5,0.4-1.1,0.8-1.7,1
		c-0.6,0.2-1.3,0.3-2,0.3C56.4,356.5,55.3,356.1,54.3,355.3 M57.7,341.7c-1.2,0-2.3,0.3-3.3,1c-1,0.6-1.8,1.6-2.4,2.7
		c-0.6,1.2-0.9,2.5-0.9,4.1c0,1.5,0.3,2.9,0.9,4.1c0.6,1.2,1.4,2.1,2.4,2.7c1,0.6,2.1,1,3.3,1s2.3-0.3,3.4-1c1-0.7,1.9-1.6,2.5-2.8
		c0.6-1.2,0.9-2.5,0.9-4.1c0-1.5-0.3-2.9-0.9-4.1c-0.6-1.2-1.4-2.1-2.5-2.7C60.1,342,59,341.7,57.7,341.7 M47.1,348.9l0.3-0.5
		C47.3,348.6,47.2,348.8,47.1,348.9 M43.3,351.5c1,0,1.9-0.2,2.7-0.7c0.8-0.4,1.4-1,1.9-1.8s0.7-1.6,0.7-2.5v0
		c0-0.9-0.2-1.7-0.7-2.5s-1.1-1.4-1.9-1.8c-0.8-0.4-1.7-0.7-2.6-0.7c-1.1,0-2.1,0.2-3,0.7c-1,0.5-1.8,1.1-2.4,1.9l1.3,1.5l0.5-0.6
		l-0.7-0.9c1.5-1.3,2.9-2,4.5-2c1,0,1.9,0.3,2.7,0.8v7c-0.8,0.5-1.7,0.8-2.7,0.8c-0.8,0-1.6,0.3-2.2,0.9c-0.7,0.6-1.2,1.3-1.7,2.1
		c-0.4,0.9-0.6,1.7-0.6,2.6v0.5h9.5v-2.6h-8.4c0.3-0.8,0.8-1.5,1.4-2C41.9,351.8,42.6,351.5,43.3,351.5 M35.9,355.6L35.9,355.6
		c0-0.4-0.1-0.8-0.4-1c-0.3-0.3-0.6-0.4-1-0.4s-0.7,0.1-1,0.4c-0.3,0.3-0.4,0.6-0.4,1c0,0.4,0.1,0.7,0.4,1c0.3,0.3,0.6,0.4,1,0.4
		c0.2,0,0.4,0,0.6-0.1c-0.1,0.4-0.3,0.8-0.6,1c-0.3,0.2-0.6,0.3-0.9,0.3v0.7c0.8,0,1.3-0.3,1.7-0.8c0.4-0.6,0.6-1.2,0.6-2
		C35.9,355.9,35.9,355.7,35.9,355.6 M29.5,356.2v-14.3h-2.6l-2.5,2.1l0.7,0.5l1.8-1.4v13.1h-1.3v0.7h5.2v-0.7H29.5z"/>
	<path clip-path="url(#SVGID_2_)" fill="#1D1D1B" d="M442.1,36.9l-8.8-4.3c-0.1-0.1-0.4-0.2-0.9-0.5c-0.5-0.3-0.9-0.5-1.3-0.9
		s-0.6-0.7-0.6-1.2c0-0.5,0.3-1.1,1-1.7c0.6-0.6,1.6-1.1,2.8-1.5c1.2-0.4,2.6-0.6,4.1-0.6c1.2,0,2.3,0.2,3.4,0.7s2.1,1,2.9,1.7
		l-1.4,1.4l0.8,0.8l2.1-2.1c-0.9-1.1-2.1-2-3.5-2.6s-2.9-1-4.3-1c-1.7,0-3.4,0.3-4.9,0.9c-1.5,0.6-2.7,1.4-3.6,2.4s-1.3,2.1-1.3,3.2
		c0,1,0.3,1.9,0.8,2.6c0.5,0.7,1.4,1.3,2.6,2l10.3,5.1c0.8,0.4,1.5,0.8,1.9,1.3c0.5,0.4,0.7,0.9,0.7,1.4c0,0.8-0.4,1.5-1.1,2.1
		s-1.7,1.1-3,1.5s-2.5,0.5-3.8,0.5c-1.9,0-3.4-0.4-4.7-1.2c-1.2-0.8-2.4-1.9-3.4-3.5l1.7-1.7l-0.9-0.7l-2.3,2.2c2.1,4,5.4,6,9.7,6
		c1.7,0,3.3-0.3,4.8-0.8c1.4-0.5,2.6-1.3,3.4-2.3c0.8-1,1.3-2.2,1.3-3.6c0-1-0.2-1.8-0.7-2.5s-1-1.3-1.6-1.7
		C443.8,37.8,443,37.4,442.1,36.9 M408.5,48.7h18.1v-4.6h-1.1v3.5h-11V26.7h2.5v-1.1h-8.4v1.1h2v20.9h-2V48.7z M385.8,48.7h17.7V44
		h-1v3.6h-10.7v-10h6.7v-1h-6.7v-9.9h10.7v3.6h1v-4.8h-17.6v1.1h2l0,20.9h-2V48.7z M376.4,25.6v1.1h2v14.9h0l-16-16h-3.1v1.1h2v20.9
		h-2v1.1h5.1v-1.1h-2V32.1l17.1,16.8h0.1V26.7h2v-1.1H376.4z M349.9,25.6v1.1h2v14.9h0l-16-16h-3.1v1.1h2v20.9h-2v1.1h5.1v-1.1h-2
		V32.1l17.1,16.8h0.1V26.7h2v-1.1H349.9z M313,39.7l3.6-12.7l4.4,12.7H313z M328.1,47.6l-7.8-22h-6.8v1.1h2l-5.9,20.9h-2.1v1.1h1.8
		h3v-1.1h-1.6l1.9-6.9h8.6l2.4,6.9h-1.6v1.1h7.8v-1.1H328.1z M280,48.7v-1.1h2.3V26.7H280v-1.1h8.7v1.1h-2.5v9.9h11.6v-9.9h-2.5
		v-1.1h8.7v1.1h-2.3v20.9h2.3v1.1h-8.7v-1.1h2.5v-9.9h-11.6v9.9h2.5v1.1H280z M273.6,44.5l1.3,1.3c-0.9,0.7-2,1.3-3.2,1.7
		c-1.2,0.4-2.4,0.6-3.7,0.6c-1.4,0-2.7-0.2-4-0.7c-1.3-0.5-2.4-1.1-3.4-2c-0.2-0.2-0.2-0.3-0.2-0.5V29.7c0-0.2,0.1-0.3,0.2-0.5
		c1-0.9,2.1-1.6,3.4-2c1.3-0.5,2.6-0.7,4-0.7c1.3,0,2.5,0.2,3.7,0.6c1.2,0.4,2.2,1,3.2,1.7l-1.3,1.3l0.8,0.8l2.1-2.1
		c-1.1-1.1-2.4-1.9-3.9-2.5c-1.5-0.6-3-0.9-4.7-0.9c-2.2,0-4.3,0.5-6.2,1.6c-1.9,1.1-3.4,2.5-4.5,4.4c-1.1,1.8-1.6,3.8-1.6,6
		s0.6,4.1,1.6,6c1.1,1.8,2.6,3.3,4.5,4.4c1.9,1.1,3.9,1.6,6.2,1.6c1.6,0,3.2-0.3,4.7-0.9s2.8-1.4,3.9-2.5l-2.1-2.1L273.6,44.5z
		 M233.6,36.9l-8.8-4.3c-0.1-0.1-0.4-0.2-0.9-0.5c-0.5-0.3-0.9-0.5-1.3-0.9s-0.6-0.7-0.6-1.2c0-0.5,0.3-1.1,1-1.7
		c0.6-0.6,1.6-1.1,2.8-1.5c1.2-0.4,2.6-0.6,4.1-0.6c1.2,0,2.3,0.2,3.4,0.7c1.1,0.4,2.1,1,2.9,1.7l-1.4,1.4l0.8,0.8l2.1-2.1
		c-0.9-1.1-2.1-2-3.5-2.6c-1.5-0.6-2.9-1-4.3-1c-1.7,0-3.4,0.3-4.9,0.9c-1.5,0.6-2.7,1.4-3.6,2.4c-0.9,1-1.3,2.1-1.3,3.2
		c0,1,0.3,1.9,0.8,2.6c0.5,0.7,1.4,1.3,2.6,2l10.3,5.1c0.8,0.4,1.5,0.8,1.9,1.3c0.5,0.4,0.7,0.9,0.7,1.4c0,0.8-0.4,1.5-1.1,2.1
		s-1.7,1.1-3,1.5c-1.2,0.3-2.5,0.5-3.8,0.5c-1.9,0-3.4-0.4-4.7-1.2c-1.2-0.8-2.4-1.9-3.3-3.5l1.7-1.7l-0.9-0.7l-2.3,2.2
		c2.1,4,5.4,6,9.7,6c1.7,0,3.3-0.3,4.8-0.8c1.4-0.5,2.6-1.3,3.4-2.3c0.8-1,1.3-2.2,1.3-3.6c0-1-0.2-1.8-0.7-2.5
		c-0.4-0.7-1-1.3-1.6-1.7S234.6,37.4,233.6,36.9 M201.6,47.6V26.7h3.4c2,0,3.9,0.5,5.6,1.4c1.7,0.9,3.1,2.2,4,3.8
		c1,1.6,1.5,3.4,1.5,5.3s-0.5,3.7-1.5,5.3c-1,1.6-2.3,2.8-4,3.7c-1.7,0.9-3.6,1.4-5.6,1.4H201.6z M195.7,48.7h9.3
		c2.2,0,4.3-0.5,6.2-1.5c1.9-1,3.4-2.4,4.5-4.1c1.1-1.7,1.7-3.7,1.7-5.9s-0.6-4.1-1.7-5.9c-1.1-1.8-2.6-3.2-4.5-4.2
		c-1.9-1-3.9-1.5-6.2-1.5h-9.3v1.1h2v20.9h-2V48.7z M174.3,48.7h18.1v-4.6h-1.1v3.5h-11V26.7h2.5v-1.1h-8.4v1.1h2v20.9h-2V48.7z
		 M159.8,48.7v-1h2.3V26.6h-2.3v-1h8.6v1h-2.3v21.1h2.3v1H159.8z M126.4,48.7h4.9v-1.1h-2V27.1l8.9,21.7h0.8l8.7-20.5v19.2h-1.9v1.1
		h8.1v-1.1H152V26.7h1.9v-1.1h-6.2l-7.4,17.8L133,25.6h-6.9v1.1h2.1l0.2,20.9h-2V48.7z M109.5,47.6V26.7h3.4c2,0,3.9,0.5,5.6,1.4
		c1.7,0.9,3.1,2.2,4,3.8c1,1.6,1.5,3.4,1.5,5.3s-0.5,3.7-1.5,5.3c-1,1.6-2.3,2.8-4,3.7c-1.7,0.9-3.6,1.4-5.6,1.4H109.5z M103.5,48.7
		h9.3c2.2,0,4.3-0.5,6.2-1.5c1.9-1,3.4-2.4,4.5-4.1c1.1-1.7,1.6-3.7,1.6-5.9s-0.5-4.1-1.6-5.9c-1.1-1.8-2.6-3.2-4.5-4.2
		c-1.9-1-3.9-1.5-6.2-1.5h-9.3v1.1h2v20.9h-2V48.7z M94.2,25.6v1.1h2v14.9h0l-16-16H77v1.1h2v20.9h-2v1.1h5.1v-1.1h-2V32.1
		l17.1,16.8h0.1V26.7h2v-1.1H94.2z M63.5,48.7v-1h2.3V26.6h-2.3v-1H72v1h-2.3v21.1H72v1H63.5z M61,25.6h-4.9v1.1h1.6l-6.5,20.7
		l-7.5-20.7h1.5v-1.1h-8.1v1.1h2.3l2.7,7.2l-4.2,13.4l-7.5-20.7h1.5v-1.1h-8.1v1.1H26l8.2,22.1h4.3l4.2-13.4l4.9,13.4h4.3l6.9-22.1
		H61V25.6z"/>
	<path clip-path="url(#SVGID_2_)" fill="#1D1D1B" d="M443.5,220.3l-6.8-3.3c-0.1-0.1-0.3-0.2-0.7-0.4c-0.4-0.2-0.7-0.4-1-0.7
		s-0.5-0.6-0.5-0.9c0-0.4,0.2-0.8,0.8-1.3c0.5-0.5,1.2-0.9,2.1-1.2s2-0.5,3.2-0.5c0.9,0,1.8,0.2,2.6,0.5c0.8,0.3,1.6,0.8,2.3,1.3
		l-1.1,1.1l0.6,0.6l1.7-1.6c-0.7-0.8-1.6-1.5-2.7-2c-1.1-0.5-2.3-0.7-3.3-0.7c-1.3,0-2.6,0.2-3.8,0.7c-1.2,0.5-2.1,1.1-2.8,1.9
		c-0.7,0.8-1,1.6-1,2.5c0,0.8,0.2,1.5,0.6,2c0.4,0.5,1.1,1,2,1.5l8,3.9c0.6,0.3,1.1,0.6,1.5,1c0.4,0.3,0.5,0.7,0.5,1.1
		c0,0.6-0.3,1.2-0.9,1.7c-0.6,0.5-1.4,0.9-2.3,1.1c-0.9,0.3-1.9,0.4-2.9,0.4c-1.4,0-2.6-0.3-3.6-0.9c-1-0.6-1.8-1.5-2.6-2.7l1.3-1.3
		l-0.7-0.5l-1.8,1.7c1.6,3.1,4.1,4.6,7.5,4.6c1.3,0,2.6-0.2,3.7-0.6c1.1-0.4,2-1,2.6-1.8c0.7-0.8,1-1.7,1-2.8c0-0.8-0.2-1.4-0.5-2
		s-0.8-1-1.2-1.3C444.8,221,444.2,220.6,443.5,220.3 M410.8,229.4v-0.9h1.8v-16.1h-1.8v-0.9h6.8v0.9h-1.9v7.7h8.9v-7.7h-1.9v-0.9
		h6.8v0.9h-1.8v16.1h1.8v0.9h-6.8v-0.9h1.9v-7.7h-8.9v7.7h1.9v0.9H410.8z M407.3,215.4v-3.9H390v3.9h0.9v-3.1l6.3,0v16.1h-1.5v0.9
		h6.1v-0.9h-1.5v-16.1l6.3,0v3.1H407.3z M376.9,222.5l2.8-9.8l3.4,9.8H376.9z M388.6,228.5l-6-17h-5.2v0.9h1.6l-4.6,16.2h-1.6v0.9
		h1.4h2.3v-0.9h-1.2l1.5-5.3h6.7l1.9,5.3H384v0.9h6v-0.9H388.6z M361.9,221.2v-8.8h4.7c0.8,0,1.5,0.1,2,0.4c0.2,0.1,0.4,0.3,0.5,0.5
		c0.1,0.2,0.2,0.5,0.2,0.7v0.8v4.6c0,0.3-0.1,0.5-0.2,0.7c-0.1,0.2-0.3,0.4-0.5,0.5c-0.6,0.3-1.3,0.5-2.1,0.5H361.9z M366.5,211.5
		h-9.3v0.9h1.5v16.1H357v0.9h6.6v-0.9h-1.8V222h4.7c1,0,1.8-0.2,2.6-0.7c0.8-0.5,1.4-1.1,1.9-1.9c0.5-0.8,0.7-1.7,0.7-2.6
		s-0.2-1.8-0.7-2.6c-0.5-0.8-1.1-1.4-1.9-1.9C368.3,211.8,367.5,211.5,366.5,211.5 M343.9,221.5H338v0.8h2.3v4.1
		c0,0.1-0.1,0.3-0.2,0.4c-0.8,0.7-1.6,1.2-2.6,1.6c-1,0.4-2,0.5-3.1,0.5c-1.1,0-2.1-0.2-3.1-0.5c-1-0.4-1.8-0.9-2.6-1.6
		c-0.1-0.1-0.2-0.2-0.2-0.4v-11.7c0-0.1,0.1-0.3,0.2-0.4c0.8-0.7,1.6-1.2,2.6-1.6c1-0.4,2-0.5,3.1-0.5c1.7,0,3.2,0.5,4.7,1.4
		l-1.2,1.2l0.6,0.6l2-1.9c-0.8-0.7-1.8-1.2-2.8-1.6c-1-0.4-2.1-0.5-3.2-0.5c-1.7,0-3.3,0.4-4.8,1.2c-1.5,0.8-2.6,1.9-3.5,3.4
		s-1.3,3-1.3,4.6c0,1.7,0.4,3.2,1.3,4.6c0.9,1.4,2,2.5,3.5,3.4c1.5,0.8,3,1.2,4.8,1.2c1.6,0,3.1-0.4,4.5-1.1c1.4-0.7,2.5-1.7,3.4-3
		C343.2,224.4,343.7,223,343.9,221.5 M318.1,211.5v0.9h1.5v11.5h0l-12.4-12.3h-2.4v0.9h1.5v16.1h-1.5v0.9h3.9v-0.9h-1.5v-12l13.2,13
		h0.1v-17.1h1.5v-0.9H318.1z M294.4,229.4v-0.8h1.8v-16.3h-1.8v-0.8h6.6v0.8h-1.8v16.3h1.8v0.8H294.4z M277.9,229.4h13.9v-3.5H291
		v2.7h-8.5v-16.1h1.9v-0.9h-6.5v0.9h1.5v16.1h-1.5V229.4z M272.9,226.1l1,1c-0.7,0.6-1.6,1-2.5,1.3s-1.9,0.5-2.9,0.5
		c-1.1,0-2.1-0.2-3.1-0.5s-1.8-0.9-2.6-1.6c-0.1-0.1-0.2-0.2-0.2-0.4v-11.7c0-0.1,0.1-0.3,0.2-0.4c0.8-0.7,1.6-1.2,2.6-1.6
		c1-0.4,2-0.5,3.1-0.5c1,0,1.9,0.2,2.8,0.5s1.7,0.7,2.5,1.3l-1,1l0.6,0.6l1.7-1.6c-0.9-0.8-1.9-1.5-3-1.9c-1.1-0.5-2.3-0.7-3.6-0.7
		c-1.7,0-3.3,0.4-4.8,1.2c-1.5,0.8-2.6,1.9-3.5,3.4s-1.3,3-1.3,4.6c0,1.7,0.4,3.2,1.3,4.6c0.9,1.4,2,2.5,3.5,3.4
		c1.5,0.8,3,1.2,4.8,1.2c1.3,0,2.5-0.2,3.6-0.7c1.1-0.5,2.1-1.1,3-1.9l-1.7-1.6L272.9,226.1z M256.3,212.4h1.5v-0.9h-3.7v0.9h1.3
		l-4.1,7.4l-4.4-7.4h1.3v-0.9h-6v0.9h1.6l4.7,8.1v8.1h-1.5v0.9h1.5h4.6v-0.9h-1.5v-7.8L256.3,212.4z M239.8,226.1l1,1
		c-0.7,0.6-1.6,1-2.5,1.3s-1.9,0.5-2.9,0.5c-1.1,0-2.1-0.2-3.1-0.5s-1.8-0.9-2.6-1.6c-0.1-0.1-0.2-0.2-0.2-0.4v-11.7
		c0-0.1,0.1-0.3,0.2-0.4c0.8-0.7,1.6-1.2,2.6-1.6c1-0.4,2-0.5,3.1-0.5c1,0,1.9,0.2,2.8,0.5s1.7,0.7,2.5,1.3l-1,1l0.6,0.6l1.7-1.6
		c-0.9-0.8-1.9-1.5-3-1.9c-1.1-0.5-2.3-0.7-3.6-0.7c-1.7,0-3.3,0.4-4.8,1.2c-1.5,0.8-2.6,1.9-3.5,3.4c-0.8,1.4-1.3,3-1.3,4.6
		c0,1.7,0.4,3.2,1.3,4.6c0.9,1.4,2,2.5,3.5,3.4c1.5,0.8,3,1.2,4.8,1.2c1.3,0,2.5-0.2,3.6-0.7c1.1-0.5,2.1-1.1,3-1.9l-1.7-1.6
		L239.8,226.1z M208.9,220.3l-6.8-3.3c-0.1-0.1-0.3-0.2-0.7-0.4c-0.4-0.2-0.7-0.4-1-0.7s-0.5-0.6-0.5-0.9c0-0.4,0.3-0.8,0.8-1.3
		c0.5-0.5,1.2-0.9,2.1-1.2s2-0.5,3.2-0.5c0.9,0,1.8,0.2,2.6,0.5c0.8,0.3,1.6,0.8,2.3,1.3l-1.1,1.1l0.6,0.6l1.7-1.6
		c-0.7-0.8-1.6-1.5-2.7-2c-1.1-0.5-2.3-0.7-3.3-0.7c-1.3,0-2.6,0.2-3.8,0.7c-1.2,0.5-2.1,1.1-2.8,1.9c-0.7,0.8-1,1.6-1,2.5
		c0,0.8,0.2,1.5,0.6,2c0.4,0.5,1.1,1,2,1.5l8,3.9c0.6,0.3,1.1,0.6,1.5,1c0.4,0.3,0.5,0.7,0.5,1.1c0,0.6-0.3,1.2-0.9,1.7
		c-0.6,0.5-1.4,0.9-2.3,1.1c-0.9,0.3-1.9,0.4-2.9,0.4c-1.4,0-2.6-0.3-3.6-0.9c-1-0.6-1.8-1.5-2.6-2.7l1.3-1.3l-0.7-0.5l-1.8,1.7
		c1.6,3.1,4.1,4.6,7.5,4.6c1.3,0,2.6-0.2,3.7-0.6c1.1-0.4,2-1,2.6-1.8c0.7-0.8,1-1.7,1-2.8c0-0.8-0.2-1.4-0.5-2
		c-0.3-0.5-0.8-1-1.2-1.3C210.2,221,209.6,220.6,208.9,220.3 M184.2,228.5v-16.1h2.6c1.6,0,3,0.4,4.3,1.1c1.3,0.7,2.4,1.7,3.1,2.9
		c0.8,1.2,1.1,2.6,1.1,4.1s-0.4,2.9-1.1,4.1s-1.8,2.2-3.1,2.9c-1.3,0.7-2.8,1-4.3,1H184.2z M179.6,229.4h7.2c1.7,0,3.3-0.4,4.8-1.2
		c1.5-0.8,2.6-1.8,3.5-3.2c0.8-1.4,1.3-2.9,1.3-4.5c0-1.7-0.4-3.2-1.3-4.6c-0.9-1.4-2-2.4-3.5-3.2c-1.5-0.8-3-1.2-4.8-1.2h-7.2v0.9
		h1.5v16.1h-1.5V229.4z M163.1,229.4h13.9v-3.5h-0.9v2.7h-8.5v-16.1h1.9v-0.9h-6.5v0.9h1.5v16.1h-1.5V229.4z M145.5,229.4h13.6v-3.7
		h-0.8v2.8h-8.3v-7.7h5.2v-0.8h-5.2v-7.7h8.3v2.8h0.8v-3.7h-13.6v0.9h1.5l0,16.1h-1.5V229.4z M134.3,229.4v-0.8h1.8v-16.3h-1.8v-0.8
		h6.6v0.8h-1.8v16.3h1.8v0.8H134.3z M118.5,229.4h6.7v-0.9h-2.1v-7.7h4.1v-0.8h-4v-7.7h7.6v2.8h0.8v-3.7h-13v0.9h1.5l0,16.1h-1.5
		V229.4z M96,221.2v-8.8h4.7c0.8,0,1.5,0.1,2,0.4c0.2,0.1,0.4,0.3,0.5,0.5c0.1,0.2,0.2,0.5,0.2,0.7v0.8v4.6c0,0.3-0.1,0.5-0.2,0.7
		c-0.1,0.2-0.3,0.4-0.5,0.5c-0.6,0.3-1.3,0.5-2.1,0.5H96z M100.7,211.5h-9.3v0.9h1.5v16.1h-1.8v0.9h6.6v-0.9H96V222h4.7
		c1,0,1.8-0.2,2.6-0.7c0.8-0.5,1.4-1.1,1.9-1.9c0.5-0.8,0.7-1.7,0.7-2.6s-0.2-1.8-0.7-2.6c-0.5-0.8-1.1-1.4-1.9-1.9
		C102.5,211.8,101.6,211.5,100.7,211.5 M79.9,229.4v-0.8h1.8v-16.3h-1.8v-0.8h6.6v0.8h-1.8v16.3h1.8v0.8H79.9z M63.4,229.4h13.9
		v-3.5h-0.9v2.7H68v-16.1h1.9v-0.9h-6.5v0.9H65v16.1h-1.5V229.4z M60,211.5h-6.1v0.9h1.5v14.2c0,0.2,0,0.3-0.2,0.4
		c-0.7,0.6-1.4,1.1-2.3,1.4s-1.8,0.5-2.7,0.5c-0.9,0-1.8-0.2-2.7-0.5s-1.6-0.8-2.3-1.4c-0.1-0.1-0.2-0.2-0.2-0.4v-0.1v-14.2h1.5
		v-0.9h-1.5h-4.6v0.9h1.5v8.9c0,1.8,0.4,3.3,1.2,4.6c0.8,1.3,1.8,2.2,3.1,2.9c1.2,0.7,2.6,1,3.9,1c1.4,0,2.7-0.4,3.9-1
		c1.2-0.7,2.3-1.6,3.1-2.9c0.8-1.3,1.2-2.8,1.2-4.6v-8.9H60V211.5z M38.5,215.4v-3.9H21.2v3.9H22v-3.1l6.3,0v16.1h-1.5v0.9h6.1v-0.9
		h-1.5v-16.1l6.3,0v3.1H38.5z"/>
</g>
<g id="XMLID_9_">
	<defs>
		<rect id="SVGID_3_" x="23.1" y="66.7" width="422.4" height="39.3"/>
	</defs>
	<clipPath id="SVGID_4_">
		<use xlink:href="#SVGID_3_"  overflow="visible"/>
	</clipPath>
	<g id="XMLID_11_" clip-path="url(#SVGID_4_)">
		<rect id="XMLID_12_" x="23.1" y="83.5" fill="#D9121A" width="422.4" height="3"/>
	</g>
</g>
<g id="XMLID_8_">
	<rect x="180" y="66.7" fill="#FFFFFF" width="100.6" height="39.3"/>
</g>
<g id="XMLID_7_">
	<polygon fill="#D9121A" points="221.8,81.9 233.6,93.2 237.9,89.1 226,77.9 	"/>
</g>
<g id="XMLID_6_">
	<polygon fill="#D9121A" points="247.6,81.9 259.5,93.2 263.7,89.1 251.9,77.9 	"/>
</g>
<g id="XMLID_5_">
	<polygon fill="#D9121A" points="195.9,81.9 207.7,93.2 212,89.1 200.1,77.9 	"/>
</g>
<g id="XMLID_4_">
	<polygon fill="#D9121A" points="233.6,78.1 221.8,89.4 226,93.4 237.9,82.2 	"/>
</g>
<g id="XMLID_3_">
	<polygon fill="#D9121A" points="259.5,78.1 247.6,89.4 251.9,93.4 263.7,82.2 	"/>
</g>
<g id="XMLID_2_">
	<polygon fill="#D9121A" points="207.7,78.1 195.9,89.4 200.1,93.4 212,82.2 	"/>
</g>
</svg>
