<svg enable-background="new 0 0 468.2 560" viewBox="0 0 468.2 560" xmlns="http://www.w3.org/2000/svg" xmlns:xlink="http://www.w3.org/1999/xlink"><clipPath id="a"><path d="m25 14.9h421v521.1h-421z"/></clipPath><clipPath id="b"><path d="m24.3 69.8h422.4v39.3h-422.4z"/></clipPath><g fill="#1d1d1b"><path clip-path="url(#a)" d="m414.6 36.6h6.4c1.2 0 2.4.3 3.4.8.3.2.6.5.8.8s.3.7.3 1.1v1.3 7.6c0 .4-.1.8-.3 1.2s-.5.6-.9.9c-.9.4-2 .7-3.3.7h-6.4zm17.3 15.9v-1.3h2.9v-26.8h-2.9v-1.3h10.9v1.3h-2.9v26.9h2.9v1.3h-10.9zm-10.9 0c1.6 0 3-.4 4.3-1.2s2.4-1.8 3.1-3.1c.8-1.3 1.2-2.8 1.2-4.3 0-1.6-.4-3-1.2-4.3s-1.8-2.4-3.1-3.1-2.8-1.2-4.3-1.2h-6.4v-10.8h2.9v-1.4h-10.9v1.4h2.9v26.5h-2.5v1.4h14zm-35.3-27.6 7.6 26.1h-14.4zm13 26.2-8.3-28.1h-8.4v1.4h2.5l-6.9 26.6h-4.2v4.2h1.4v-2.7h2.4 23.1v2.7h1.4v-4.2h-3zm-34.5-14.7c1.3-.6 2.3-1.5 3-2.6s1.1-2.4 1.1-3.8c0-1.3-.3-2.5-1-3.6s-1.6-2-2.8-2.6c-1.2-.7-2.5-1-3.9-1-.9 0-1.7.1-2.6.4s-1.6.7-2.3 1.3l2.7 2.7 1-1-1.5-1.5c.8-.3 1.7-.5 2.6-.5 1.4 0 2.5.3 3.5 1v9.8c-1 .6-2.2.9-3.5.9v1.4c1.9 0 3.5.5 4.8 1.6v11.3c-1.4 1.1-3 1.6-4.8 1.6-1.6 0-3.1-.3-4.6-.9s-2.8-1.5-4.1-2.5l1.7-1.4-.9-1.1-2.9 2.4c1.3 1.5 2.9 2.8 4.8 3.7s3.9 1.3 6 1.3c1.7 0 3.3-.4 4.6-1.2 1.4-.8 2.4-1.8 3.2-3.2.8-1.3 1.2-2.8 1.2-4.5 0-1.8-.5-3.4-1.5-4.9-.8-1.5-2.1-2.5-3.8-3.1m-40.6 16.1h22.5v-6h-1.3v4.6h-13.6v-12.7h8.5v-1.3h-8.5v-12.6h13.6v4.6h1.3v-6h-22.4v1.4h2.5v26.5h-2.5v1.5zm15.5-32.3c.7 0 1.4-.3 1.9-.8s.8-1.1.8-1.9c0-.7-.3-1.4-.8-1.9s-1.1-.8-1.9-.8-1.4.3-1.9.8-.8 1.1-.8 1.9c0 .7.3 1.4.8 1.9.6.5 1.2.8 1.9.8m-8.6 0c.7 0 1.4-.3 1.9-.8s.8-1.1.8-1.8-.3-1.4-.8-1.9-1.1-.8-1.9-.8-1.4.3-1.9.8-.8 1.1-.8 1.9c0 .7.3 1.4.8 1.9.6.4 1.2.7 1.9.7m-20.4 30.9h-4.2v-16.5h4.2c1.6 0 3 .4 4.3 1.1s2.3 1.8 3 3c.7 1.3 1.1 2.7 1.1 4.3 0 1.5-.4 2.9-1.1 4.1s-1.8 2.2-3 2.9c-1.3.7-2.7 1.1-4.3 1.1m2.8-21.8c0 1.1-.4 2.1-1.2 2.8s-1.8 1.1-3 1.1h-2.8v-8.7h2.8c.8 0 1.5.2 2.1.7.7.4 1.2 1 1.6 1.8.3.7.5 1.5.5 2.3m-.9 4.3c1.6-1.1 2.4-2.6 2.4-4.3 0-1.1-.3-2.1-.8-3.1s-1.2-1.7-2.1-2.3-1.8-.8-2.7-.8h-10.5v1.4h2.5v26.5h-2.5v1.4h11.8c1.9 0 3.6-.4 5.1-1.3s2.7-2 3.5-3.5c.9-1.5 1.3-3 1.3-4.7 0-1.5-.4-3-1.1-4.3s-1.7-2.4-2.9-3.4c-1.2-.7-2.6-1.3-4-1.6m-25.6 2.8c1.3-.6 2.3-1.5 3-2.6s1.1-2.4 1.1-3.8c0-1.3-.3-2.5-1-3.6s-1.6-2-2.8-2.6c-1.2-.7-2.5-1-3.9-1-.9 0-1.7.1-2.6.4s-1.6.7-2.3 1.3l2.7 2.7 1-1-1.5-1.5c.8-.3 1.7-.5 2.6-.5 1.4 0 2.5.3 3.5 1v9.8c-1 .6-2.2.9-3.5.9v1.4c1.9 0 3.5.5 4.8 1.6v11.3c-1.4 1.1-3 1.6-4.8 1.6-1.6 0-3.1-.3-4.6-.9s-2.8-1.5-4.1-2.5l1.7-1.4-.9-1.1-2.9 2.4c1.3 1.5 2.9 2.8 4.8 3.7s3.9 1.3 6 1.3c1.7 0 3.3-.4 4.6-1.2 1.4-.8 2.4-1.8 3.2-3.2.8-1.3 1.2-2.8 1.2-4.5 0-1.8-.5-3.4-1.5-4.9-.9-1.5-2.2-2.5-3.8-3.1m-57.4 16.1h22.5v-6h-1.3v4.6h-13.6v-12.7h8.5v-1.3h-8.5v-12.6h13.6v4.6h1.3v-6h-22.5v1.4h2.5v26.5h-2.5zm-35.8-15.9h6.4c1.2 0 2.4.3 3.4.8.3.2.6.5.8.8s.3.7.3 1.1v1.3 7.6c0 .4-.1.8-.3 1.2s-.5.6-.9.9c-.9.4-2 .7-3.3.7h-6.4zm17.3 15.9v-1.3h2.9v-26.8h-2.9v-1.3h10.9v1.3h-2.9v26.9h2.9v1.3h-10.9zm-10.8 0c1.6 0 3-.4 4.3-1.2s2.4-1.8 3.1-3.1c.8-1.3 1.2-2.8 1.2-4.3 0-1.6-.4-3-1.2-4.3s-1.8-2.4-3.1-3.1c-1.3-.8-2.8-1.2-4.3-1.2h-6.4v-10.8h2.9v-1.4h-10.9v1.4h2.9v26.5h-2.5v1.4h14zm-52.7 0v-1.4h2.9v-26.6h-2.9v-1.4h11.1v1.4h-3.1v12.6h14.7v-12.6h-3.2v-1.4h11.1v1.4h-2.9v26.5h2.9v1.4h-11.1v-1.4h3.2v-12.6h-14.7v12.6h3.1v1.4h-11.1zm-8.2-5.4 1.6 1.6c-1.2 1-2.6 1.7-4.1 2.2s-3.1.8-4.7.8c-1.8 0-3.5-.3-5.1-.9s-3-1.5-4.3-2.6c-.2-.2-.3-.4-.3-.6v-19.3c0-.2.1-.4.3-.6 1.3-1.1 2.7-2 4.3-2.6s3.3-.9 5.1-.9c1.6 0 3.2.3 4.7.8s2.8 1.2 4.1 2.2l-1.6 1.6 1 1 2.7-2.7c-1.4-1.3-3.1-2.4-5-3.1-1.9-.8-3.8-1.1-5.9-1.1-2.8 0-5.4.7-7.8 2s-4.3 3.2-5.7 5.5-2.1 4.9-2.1 7.6.7 5.3 2.1 7.6 3.3 4.2 5.7 5.5c2.4 1.4 5 2.1 7.8 2.1 2.1 0 4-.4 5.9-1.1 1.9-.8 3.5-1.8 5-3.2l-2.7-2.7zm-47.2-6 4.5-16.1 5.6 16.1zm19.2 10-9.8-28.1h-8.6v1.4h2.6l-7.5 26.6h-2.7v1.4h2.2 3.8v-1.4h-2.1l2.4-8.7h11l3.1 8.7h-2v1.4h9.9v-1.4h-2.3zm-44-12.1v-14.5h7.7c1.3 0 2.4.2 3.3.7.4.2.7.5.9.9s.3.7.3 1.2v1.3 7.6c0 .4-.1.8-.3 1.1s-.4.6-.8.8c-1 .6-2.2.8-3.4.8h-7.7zm7.7-15.9h-15.3v1.4h2.5v26.5h-2.9v1.4h10.9v-1.4h-2.9v-10.6h7.7c1.6 0 3-.4 4.3-1.2s2.4-1.8 3.1-3.1c.8-1.3 1.2-2.8 1.2-4.3 0-1.6-.4-3-1.2-4.3s-1.8-2.4-3.1-3.1c-1.3-.9-2.8-1.3-4.3-1.3m-21.4 28-9.3-15.7c1.7-1.3 3-2.9 4-4.8s1.6-3.9 1.7-6h3.1v-1.4h-6.3v1.4h1.7c-.2 2.3-.9 4.4-2.1 6.3s-2.8 3.5-4.8 4.6c-2 1.2-4.1 1.8-6.5 1.9v-12.9h2.5v-1.4h-10v1.4h2.5v26.5h-2.5v1.4h10.1v-1.4h-2.5v-12.2c1.6-.1 3.2-.4 4.9-1l7.6 13.3h-1.5v1.4h10.3v-1.4z"/><path clip-path="url(#a)" d="m425.5 250.5c-.1-.1-.2-.2-.2-.3v-10.6c0-.1.1-.2.2-.3.7-.6 1.5-1.1 2.4-1.4s1.8-.5 2.8-.5 1.9.2 2.8.5 1.7.8 2.4 1.4c.1.1.2.2.2.3v10.6c0 .1-.1.2-.2.3-.7.6-1.5 1.1-2.4 1.4s-1.8.5-2.8.5-1.9-.2-2.8-.5c-1-.3-1.8-.8-2.4-1.4m13.7-5.6c0-1.5-.4-2.9-1.1-4.2-.8-1.3-1.8-2.3-3.1-3s-2.7-1.1-4.3-1.1c-1.5 0-3 .4-4.3 1.1s-2.3 1.8-3.1 3c-.8 1.3-1.2 2.7-1.2 4.2 0 1.5.4 2.9 1.2 4.1s1.8 2.3 3.1 3c1.3.8 2.7 1.1 4.3 1.1 1.5 0 3-.4 4.3-1.1 1.3-.8 2.3-1.8 3.1-3s1.1-2.6 1.1-4.1zm-24.9 7.2h-2.3v-9h2.3c.9 0 1.6.2 2.3.6s1.3 1 1.7 1.7.6 1.5.6 2.3-.2 1.6-.6 2.2c-.4.7-1 1.2-1.7 1.6s-1.4.6-2.3.6m1.6-11.9c0 .6-.2 1.1-.7 1.6-.5.4-1 .6-1.7.6h-1.5v-4.8h1.5c.4 0 .8.1 1.2.4.4.2.6.6.9 1 .2.3.3.7.3 1.2m-.6 2.3c.9-.6 1.3-1.4 1.3-2.3 0-.6-.1-1.2-.4-1.7s-.7-.9-1.1-1.2c-.5-.3-1-.5-1.5-.5h-5.7v.8h1.4v14.5h-1.4v.8h6.5c1 0 2-.2 2.8-.7s1.5-1.1 1.9-1.9c.5-.8.7-1.6.7-2.6 0-.8-.2-1.6-.6-2.4-.4-.7-.9-1.3-1.6-1.8s-1.5-.8-2.3-1m-10.5-2.2v-3.5h-15.6v3.5h.8v-2.8h5.7v14.5h-1.4v.8h5.5v-.8h-1.4v-14.5h5.7v2.8zm-19.8 9.6.9.9c-.7.5-1.4.9-2.2 1.2s-1.7.4-2.6.4c-1 0-1.9-.2-2.8-.5s-1.7-.8-2.4-1.4c-.1-.1-.2-.2-.2-.3v-10.6c0-.1.1-.2.2-.3.7-.6 1.5-1.1 2.4-1.4s1.8-.5 2.8-.5c.9 0 1.7.1 2.6.4.8.3 1.6.7 2.2 1.2l-.9.9.6.6 1.5-1.5c-.8-.7-1.7-1.3-2.7-1.7s-2.1-.6-3.2-.6c-1.5 0-3 .4-4.3 1.1s-2.4 1.8-3.1 3c-.8 1.3-1.1 2.7-1.1 4.2s.4 2.9 1.1 4.2 1.8 2.3 3.1 3c1.3.8 2.7 1.1 4.3 1.1 1.1 0 2.2-.2 3.2-.6s1.9-1 2.7-1.7l-1.5-1.5zm-17.5 0 .9.9c-.7.5-1.4.9-2.2 1.2s-1.7.4-2.6.4c-1 0-1.9-.2-2.8-.5s-1.7-.8-2.4-1.4c-.1-.1-.2-.2-.2-.3v-10.6c0-.1.1-.2.2-.3.7-.6 1.5-1.1 2.4-1.4s1.8-.5 2.8-.5c.9 0 1.7.1 2.6.4s1.6.7 2.2 1.2l-.9.9.6.6 1.5-1.5c-.8-.7-1.7-1.3-2.7-1.7s-2.1-.6-3.2-.6c-1.5 0-3 .4-4.3 1.1s-2.3 1.8-3.1 3c-.8 1.3-1.1 2.7-1.1 4.2s.4 2.9 1.1 4.2c.8 1.3 1.8 2.3 3.1 3 1.3.8 2.7 1.1 4.3 1.1 1.1 0 2.2-.2 3.2-.6s1.9-1 2.7-1.7l-1.5-1.5zm-13.2-12.3v-.8h-1.2-2.5v.8h1.5l-3.2 6.7-4.5-6.7h1.3v-.8h-6v.8h1.4l6.3 9.6-2.4 5h-1.6v.8h1.2 2.5v-.8h-1.4l6.9-14.5h1.7zm-16.1 14.5-5.1-8.6c.9-.7 1.7-1.6 2.2-2.6.6-1 .9-2.1.9-3.3h1.7v-.8h-3.5v.8h1c-.1 1.2-.5 2.4-1.1 3.4-.7 1-1.5 1.9-2.6 2.5s-2.3 1-3.6 1v-7h1.4v-.8h-5.5v.8h1.4v14.5h-1.4v.8h5.5v-.8h-1.4v-6.7c.9 0 1.8-.2 2.7-.6l4.2 7.3h-.8v.8h5.7v-.8h-1.7zm-18.7-2.2.9.9c-.7.5-1.4.9-2.2 1.2s-1.7.4-2.6.4c-1 0-1.9-.2-2.8-.5s-1.7-.8-2.4-1.4c-.1-.1-.2-.2-.2-.3v-10.6c0-.1.1-.2.2-.3.7-.6 1.5-1.1 2.4-1.4s1.8-.5 2.8-.5c.9 0 1.7.1 2.6.4.8.3 1.6.7 2.2 1.2l-.9.9.6.6 1.5-1.5c-.8-.7-1.7-1.3-2.7-1.7s-2.1-.6-3.2-.6c-1.5 0-3 .4-4.3 1.1s-2.4 1.8-3.1 3c-.8 1.3-1.1 2.7-1.1 4.2s.4 2.9 1.1 4.2c.8 1.3 1.8 2.3 3.1 3 1.3.8 2.7 1.1 4.3 1.1 1.1 0 2.2-.2 3.2-.6s1.9-1 2.7-1.7l-1.5-1.5zm-16.7 2.2v-15.3h-.1l-11.4 11.1v-10.4h1.4v-.8h-3.5v.8h1.4v15.3l11.5-11.6v10.8h-1.4v.8h3.5v-.8h-1.4zm-37.8.8h12.3v-3.3h-.7v2.5h-7.5v-6.9h4.7v-.7h-4.7v-6.9h7.5v2.5h.7v-3.3h-12.3v.8h1.4v14.5h-1.4zm-17.1-2.4c-.1-.1-.2-.2-.2-.3v-10.6c0-.1.1-.2.2-.3.7-.6 1.5-1.1 2.4-1.4s1.8-.5 2.8-.5 1.9.2 2.8.5 1.7.8 2.4 1.4c.1.1.2.2.2.3v10.6c0 .1-.1.2-.2.3-.7.6-1.5 1.1-2.4 1.4s-1.8.5-2.8.5-1.9-.2-2.8-.5-1.7-.8-2.4-1.4m13.7-5.6c0-1.5-.4-2.9-1.1-4.2-.8-1.3-1.8-2.3-3.1-3s-2.7-1.1-4.3-1.1-3 .4-4.3 1.1-2.3 1.8-3.1 3c-.8 1.3-1.1 2.7-1.1 4.2 0 1.5.4 2.9 1.1 4.1.8 1.3 1.8 2.3 3.1 3 1.3.8 2.7 1.1 4.3 1.1s3-.4 4.3-1.1c1.3-.8 2.3-1.8 3.1-3s1.1-2.6 1.1-4.1zm-37.5 8v-.8h1.6v-14.5h-1.6v-.8h6.1v.8h-1.7v6.9h8.1v-6.9h-1.7v-.8h6.1v.8h-1.6v14.5h1.6v.8h-6.1v-.8h1.7v-6.9h-8.1v6.9h1.7v.8zm-11.3-8.7h4.2c.7 0 1.3.2 1.9.5.2.1.3.3.4.5s.1.4.1.6v.7 4.2c0 .2-.1.5-.2.7s-.3.3-.5.5c-.5.2-1.1.4-1.8.4h-4.2v-8.1zm4.2 8.7c.9 0 1.6-.2 2.4-.6.7-.4 1.3-1 1.7-1.7s.6-1.5.6-2.4-.2-1.6-.6-2.4c-.4-.7-1-1.3-1.7-1.7s-1.5-.6-2.4-.6h-4.2v-5.8h1.6v-.8h-6v.8h1.6v14.5h-1.4v.8h8.4zm-12.2-.8-5.2-15.4h-4.6v.8h1.4l-4 14.6h-1.4v.8h1.2 2v-.8h-1.2l3.9-14.3 4.9 14.3h-1.1v.8h5.3v-.8zm-28.2.8h12.3v-3.3h-.7v2.5h-7.5v-6.9h4.7v-.7h-4.7v-6.9h7.5v2.5h.7v-3.3h-12.3v.8h1.4v14.5h-1.4zm-3.1-12.6v-3.5h-15.6v3.5h.8v-2.8h5.7v14.5h-1.4v.8h5.5v-.8h-1.5v-14.5h5.7v2.8zm-19.3 11.8v-15.3h-.1l-11.4 11.1v-10.4h1.4v-.8h-3.5v.8h1.4v15.3l11.5-11.6v10.8h-1.4v.8h3.5v-.8h-1.4zm-19.2-8.1c.7-.3 1.2-.8 1.6-1.4s.6-1.3.6-2.1c0-.7-.2-1.4-.6-2s-.9-1.1-1.5-1.4c-.6-.4-1.4-.5-2.1-.5-.5 0-.9.1-1.4.2-.5.2-.9.4-1.2.7l1.5 1.5.6-.6-.8-.8c.4-.2.9-.3 1.4-.3.8 0 1.4.2 1.9.5v5.4c-.6.3-1.2.5-1.9.5v.8c1 0 1.9.3 2.6.9v6.2c-.8.6-1.6.9-2.6.9-.9 0-1.7-.2-2.5-.5s-1.6-.8-2.2-1.4l.9-.8-.5-.6-1.6 1.3c.7.8 1.6 1.5 2.6 2s2.1.7 3.3.7c1 0 1.8-.2 2.5-.6s1.3-1 1.7-1.7.6-1.5.6-2.4c0-1-.3-1.9-.8-2.7s-1.2-1.4-2.1-1.8m-20.6 2.6 2.5-8.8 3.1 8.8zm10.5 5.5-5.4-15.4h-4.7v.8h1.4l-4.1 14.6h-1.5v.8h1.2 2.1v-.8h-1.1l1.3-4.8h6l1.7 4.8h-1.1v.8h5.4v-.8zm-24.1-6.6v-7.9h4.2c.7 0 1.3.1 1.8.4.2.1.4.3.5.5s.2.4.2.7v.7 4.2c0 .2 0 .4-.2.6-.1.2-.2.3-.4.5-.6.3-1.2.5-1.9.5h-4.2zm4.2-8.7h-8.3v.8h1.3v14.5h-1.6v.8h6v-.8h-1.6v-5.8h4.2c.9 0 1.6-.2 2.4-.6.7-.4 1.3-1 1.7-1.7s.6-1.5.6-2.4-.2-1.6-.6-2.4c-.4-.7-1-1.3-1.7-1.7-.7-.5-1.5-.7-2.4-.7m-16.2 15.3h-2.3v-9h2.3c.9 0 1.6.2 2.3.6s1.3 1 1.7 1.7.6 1.5.6 2.3-.2 1.6-.6 2.2c-.4.7-1 1.2-1.7 1.6-.6.4-1.4.6-2.3.6m-.8-9.8h-1.5v-4.8h5.7v2.5h.7v-3.3h-.7-9.9v.8h1.4v14.5h-1.4v.8h6.5c1 0 2-.2 2.8-.7s1.5-1.1 1.9-1.9c.5-.8.7-1.6.7-2.6 0-1.1-.3-2-.8-2.8s-1.2-1.4-2.2-1.9c-.8-.4-1.9-.6-3.2-.6m-22.7 8.2c-.1-.1-.2-.2-.2-.3v-10.6c0-.1.1-.2.2-.3.7-.6 1.5-1.1 2.4-1.4s1.8-.5 2.8-.5 1.9.2 2.8.5 1.7.8 2.4 1.4c.1.1.2.2.2.3v10.6c0 .1-.1.2-.2.3-.7.6-1.5 1.1-2.4 1.4s-1.8.5-2.8.5-1.9-.2-2.8-.5-1.7-.8-2.4-1.4m13.7-5.6c0-1.5-.4-2.9-1.1-4.2-.8-1.3-1.8-2.3-3.1-3s-2.7-1.1-4.3-1.1c-1.5 0-3 .4-4.3 1.1s-2.3 1.8-3.1 3c-.8 1.3-1.2 2.7-1.2 4.2 0 1.5.4 2.9 1.2 4.1.8 1.3 1.8 2.3 3.1 3 1.3.8 2.7 1.1 4.3 1.1 1.5 0 3-.4 4.3-1.1 1.3-.8 2.3-1.8 3.1-3 .7-1.2 1.1-2.6 1.1-4.1zm-24.2-.9c.7-.3 1.2-.8 1.6-1.4s.6-1.3.6-2.1c0-.7-.2-1.4-.6-2s-.9-1.1-1.5-1.4c-.6-.4-1.4-.5-2.1-.5-.5 0-.9.1-1.4.2-.5.2-.9.4-1.2.7l1.5 1.5.6-.6-.8-.8c.4-.2.9-.3 1.4-.3.8 0 1.4.2 1.9.5v5.4c-.6.3-1.2.5-1.9.5v.8c1 0 1.9.3 2.6.9v6.2c-.8.6-1.6.9-2.6.9-.9 0-1.7-.2-2.5-.5s-1.6-.8-2.2-1.4l.9-.8-.5-.6-1.6 1.3c.7.8 1.6 1.5 2.6 2s2.1.7 3.3.7c1 0 1.8-.2 2.5-.6s1.3-1 1.7-1.7.6-1.5.6-2.4c0-1-.3-1.9-.8-2.7s-1.2-1.4-2.1-1.8m-11 8.1v-15.3h-.1l-11.4 11.1v-10.4h1.4v-.8h-3.5v.8h1.4v15.3l11.4-11.5v10.8h-1.4v.8h3.5v-.8z"/><path clip-path="url(#a)" d="m442.7 341.2v-.8h-1.2-2.5v.8h1.5l-3.2 6.7-4.5-6.7h1.3v-.8h-6v.8h1.4l6.3 9.6-2.4 5h-1.4v.8h1.2 2.5v-.8h-1.4l6.9-14.5h1.5zm-23.6.2 4.2 14.3h-7.9zm7.1 14.3-4.6-15.4h-4.6v.8h1.4l-3.8 14.6h-2.3v2.3h.8v-1.5h1.3 12.7v1.5h.8v-2.3zm-29.1-1.6c-.1-.1-.2-.2-.2-.3v-10.6c0-.1.1-.2.2-.3.7-.6 1.5-1.1 2.4-1.4s1.8-.5 2.8-.5 1.9.2 2.8.5 1.7.8 2.4 1.4c.1.1.2.2.2.3v10.6c0 .1-.1.2-.2.3-.7.6-1.5 1.1-2.4 1.4s-1.8.5-2.8.5-1.9-.2-2.8-.5c-1-.3-1.8-.8-2.4-1.4m13.7-5.6c0-1.5-.4-2.9-1.1-4.2-.8-1.3-1.8-2.3-3.1-3s-2.7-1.1-4.3-1.1c-1.5 0-3 .4-4.3 1.1s-2.4 1.8-3.1 3c-.8 1.3-1.1 2.7-1.1 4.2 0 1.5.4 2.9 1.1 4.1.8 1.3 1.8 2.3 3.1 3 1.3.8 2.7 1.1 4.3 1.1 1.5 0 3-.4 4.3-1.1 1.3-.8 2.4-1.8 3.1-3s1.1-2.6 1.1-4.1zm-30.4 8h6v-.8h-1.9v-14.5h6.6v2.5h.7v-3.3h-11.5v.8h1.4v14.5h-1.4v.8zm-11.8-16.1h-11.7v.7h8.5l-5.2 15.4h3zm-24.9 10.3 6.3-9.2v9.2zm11.7.7v-.8h-2.7v-10.3h-2.7l-7.1 10.3v.8h7.1v4.3h-1.4v.8h5.5v-.8h-1.4v-4.3zm-15.8 4.3v-15.3h-2.8l-2.7 2.2.8.5 1.9-1.4v14h-1.4v.8h5.5v-.8zm-10.7 0v-15.3h-2.8l-2.7 2.2.8.5 1.9-1.4v14h-1.4v.8h5.5v-.8zm-21.9 0h-2.3v-9h2.3c.9 0 1.6.2 2.3.6s1.3 1 1.7 1.7.6 1.5.6 2.3-.2 1.6-.6 2.2c-.4.7-1 1.2-1.7 1.6s-1.4.6-2.3.6m1.6-11.9c0 .6-.2 1.1-.7 1.6-.5.4-1 .6-1.7.6h-1.5v-4.8h1.5c.4 0 .8.1 1.2.4.4.2.6.6.9 1 .1.3.3.7.3 1.2m-.6 2.3c.9-.6 1.3-1.4 1.3-2.3 0-.6-.1-1.2-.4-1.7s-.7-.9-1.1-1.2c-.5-.3-1-.5-1.5-.5h-5.7v.8h1.4v14.5h-1.4v.8h6.5c1 0 2-.2 2.8-.7s1.5-1.1 1.9-1.9c.5-.8.7-1.6.7-2.6 0-.8-.2-1.6-.6-2.4-.4-.7-.9-1.3-1.6-1.8s-1.5-.8-2.3-1m-29.9 4.1 2.5-8.8 3.1 8.8zm10.5 5.5-5.4-15.4h-4.7v.8h1.4l-4.1 14.6h-1.5v.8h1.2 2.1v-.8h-1.1l1.3-4.8h6l1.7 4.8h-1.1v.8h5.4v-.8zm-33.5.8v-.8h1.6v-14.5h-1.6v-.8h6.1v.8h-1.7v6.9h8.1v-6.9h-1.7v-.8h6.1v.8h-1.6v14.5h1.6v.8h-6.1v-.8h1.7v-6.9h-8.1v6.9h1.7v.8zm-14.2-6.3 2.5-8.8 3.1 8.8zm10.5 5.5-5.4-15.4h-4.7v.8h1.4l-4.1 14.6h-1.5v.8h1.2 2.1v-.8h-1.1l1.3-4.8h6l1.7 4.8h-1.1v.8h5.4v-.8zm-20.2 0h-2.3v-9h2.3c.9 0 1.6.2 2.3.6s1.3 1 1.7 1.7.6 1.5.6 2.3-.2 1.6-.6 2.2c-.4.7-1 1.2-1.7 1.6s-1.4.6-2.3.6m1.6-11.9c0 .6-.2 1.1-.7 1.6-.5.4-1 .6-1.7.6h-1.5v-4.8h1.5c.4 0 .8.1 1.2.4.4.2.6.6.9 1 .2.3.3.7.3 1.2m-.6 2.3c.9-.6 1.3-1.4 1.3-2.3 0-.6-.1-1.2-.4-1.7s-.7-.9-1.2-1.2-1-.5-1.5-.5h-5.7v.8h1.4v14.5h-1.4v.8h6.5c1 0 2-.2 2.8-.7s1.5-1.1 1.9-1.9c.5-.8.7-1.6.7-2.6 0-.8-.2-1.6-.6-2.4-.4-.7-.9-1.3-1.6-1.8-.6-.5-1.4-.8-2.2-1m-24.5 8c-.1-.1-.2-.2-.2-.3v-10.6c0-.1.1-.2.2-.3.7-.6 1.5-1.1 2.4-1.4s1.8-.5 2.8-.5 1.9.2 2.8.5 1.7.8 2.4 1.4c.1.1.2.2.2.3v10.6c0 .1-.1.2-.2.3-.7.6-1.5 1.1-2.4 1.4s-1.8.5-2.8.5-1.9-.2-2.8-.5-1.7-.8-2.4-1.4m13.7-5.6c0-1.5-.4-2.9-1.2-4.2s-1.8-2.3-3.1-3-2.7-1.1-4.3-1.1c-1.5 0-3 .4-4.3 1.1s-2.3 1.8-3.1 3c-.8 1.3-1.1 2.7-1.1 4.2 0 1.5.4 2.9 1.1 4.1.8 1.3 1.8 2.3 3.1 3 1.3.8 2.7 1.1 4.3 1.1 1.5 0 3-.4 4.3-1.1 1.3-.8 2.4-1.8 3.1-3 .8-1.2 1.2-2.6 1.2-4.1zm-37.5 8v-.8h1.6v-14.5h-1.6v-.8h6.1v.8h-1.7v6.9h8.1v-6.9h-1.7v-.8h6.1v.8h-1.6v14.5h1.6v.8h-6.1v-.8h1.7v-6.9h-8.1v6.9h1.7v.8zm-4.4-3 .9.9c-.7.5-1.4.9-2.2 1.2s-1.7.4-2.6.4c-1 0-1.9-.2-2.8-.5s-1.7-.8-2.4-1.4c-.1-.1-.2-.2-.2-.3v-10.6c0-.1.1-.2.2-.3.7-.6 1.5-1.1 2.4-1.4s1.8-.5 2.8-.5c.9 0 1.7.1 2.6.4.8.3 1.6.7 2.2 1.2l-.9.9.6.6 1.5-1.5c-.8-.7-1.7-1.3-2.7-1.7s-2.1-.6-3.2-.6c-1.5 0-3 .4-4.3 1.1s-2.4 1.8-3.1 3c-.8 1.3-1.1 2.7-1.1 4.2s.4 2.9 1.1 4.2c.8 1.3 1.8 2.3 3.1 3 1.3.8 2.7 1.1 4.3 1.1 1.1 0 2.2-.2 3.2-.6s1.9-1 2.7-1.7l-1.6-1.6zm-29.9.6c-.1-.1-.2-.2-.2-.3v-10.6c0-.1.1-.2.2-.3.7-.6 1.5-1.1 2.4-1.4s1.8-.5 2.8-.5 1.9.2 2.8.5 1.7.8 2.4 1.4c.1.1.2.2.2.3v10.6c0 .1-.1.2-.2.3-.7.6-1.5 1.1-2.4 1.4s-1.8.5-2.8.5-1.9-.2-2.8-.5-1.7-.8-2.4-1.4m13.7-5.6c0-1.5-.4-2.9-1.1-4.2-.8-1.3-1.8-2.3-3.1-3s-2.7-1.1-4.3-1.1-3 .4-4.3 1.1-2.4 1.8-3.1 3c-.8 1.3-1.1 2.7-1.1 4.2 0 1.5.4 2.9 1.1 4.1.8 1.3 1.8 2.3 3.1 3 1.3.8 2.7 1.1 4.3 1.1s3-.4 4.3-1.1c1.3-.8 2.3-1.8 3.1-3 .7-1.2 1.1-2.6 1.1-4.1zm-40.1 1.7 2.5-8.8 3.1 8.8zm10.5 5.5-5.4-15.4h-4.7v.8h1.4l-4.1 14.6h-1.5v.8h1.2 2.1v-.8h-1.1l1.3-4.8h6l1.7 4.8h-1.1v.8h5.4v-.8zm-20.2 0h-2.3v-9h2.3c.9 0 1.6.2 2.3.6s1.3 1 1.7 1.7.6 1.5.6 2.3-.2 1.6-.6 2.2c-.4.7-1 1.2-1.7 1.6-.6.4-1.4.6-2.3.6m1.6-11.9c0 .6-.2 1.1-.7 1.6-.5.4-1 .6-1.7.6h-1.5v-4.8h1.5c.4 0 .8.1 1.2.4.4.2.6.6.9 1 .1.3.3.7.3 1.2m-.6 2.3c.9-.6 1.3-1.4 1.3-2.3 0-.6-.1-1.2-.4-1.7s-.7-.9-1.2-1.2-1-.5-1.5-.5h-5.7v.8h1.4v14.5h-1.4v.8h6.5c1 0 2-.2 2.8-.7s1.5-1.1 1.9-1.9c.5-.8.7-1.6.7-2.6 0-.8-.2-1.6-.6-2.4-.4-.7-.9-1.3-1.6-1.8-.6-.5-1.4-.8-2.2-1m-10.6 9.6-5.1-8.6c.9-.7 1.7-1.6 2.2-2.6.6-1 .9-2.1.9-3.3h1.7v-.8h-3.5v.8h1c-.1 1.2-.5 2.4-1.1 3.4-.7 1.1-1.5 1.9-2.6 2.5s-2.3 1-3.6 1v-7h1.4v-.8h-5.5v.8h1.4v14.5h-1.4v.8h5.5v-.8h-1.4v-6.6c.9 0 1.8-.2 2.7-.6l4.2 7.3h-.8v.8h5.7v-.8zm-18.7-2.2.9.9c-.7.5-1.4.9-2.2 1.2s-1.7.4-2.6.4c-1 0-1.9-.2-2.8-.5s-1.7-.8-2.4-1.4c-.1-.1-.2-.2-.2-.3v-10.6c0-.1.1-.2.2-.3.7-.6 1.5-1.1 2.4-1.4s1.8-.5 2.8-.5c.9 0 1.7.1 2.6.4.8.3 1.6.7 2.2 1.2l-.9.9.6.6 1.5-1.5c-.8-.7-1.7-1.3-2.7-1.7s-2.1-.6-3.2-.6c-1.5 0-3 .4-4.3 1.1s-2.3 1.8-3.1 3c-.8 1.3-1.2 2.7-1.2 4.2s.4 2.9 1.2 4.2 1.8 2.3 3.1 3c1.3.8 2.7 1.1 4.3 1.1 1.1 0 2.2-.2 3.2-.6s1.9-1 2.7-1.7l-1.5-1.5zm-29.8.6c-.1-.1-.2-.2-.2-.3v-10.6c0-.1.1-.2.2-.3.7-.6 1.5-1.1 2.4-1.4s1.8-.5 2.8-.5 1.9.2 2.8.5 1.7.8 2.4 1.4c.1.1.2.2.2.3v10.6c0 .1-.1.2-.2.3-.7.6-1.5 1.1-2.4 1.4s-1.8.5-2.8.5-1.9-.2-2.8-.5-1.7-.8-2.4-1.4m13.7-5.6c0-1.5-.4-2.9-1.2-4.2s-1.8-2.3-3.1-3-2.7-1.1-4.3-1.1c-1.5 0-3 .4-4.3 1.1s-2.3 1.8-3.1 3c-.8 1.3-1.1 2.7-1.1 4.2 0 1.5.4 2.9 1.1 4.1.8 1.3 1.8 2.3 3.1 3 1.3.8 2.7 1.1 4.3 1.1 1.5 0 3-.4 4.3-1.1 1.3-.8 2.3-1.8 3.1-3s1.2-2.6 1.2-4.1zm-39.8 8h3.4v-.8h-1.4v-14.3l6.2 15.1h.5l6-14.3v13.4h-1.3v.8h5.6v-.8h-1.3v-14.5h1.3v-.8h-4.3l-5.2 12.4-5.1-12.4h-4.8v.8h1.5l.1 14.5h-1.4v.9z"/><path clip-path="url(#a)" d="m388 475.9 2.1-7.3 2.5 7.3zm8.7 4.5-4.5-12.7h-3.9v.6h1.2l-3.4 12h-1.2v.6h1 1.7v-.6h-.9l1.1-4h5l1.4 4h-.9v.6h4.5v-.6h-1.1zm-20.4-11.8 3.4 11.8h-6.5zm5.9 11.8-3.8-12.7h-3.8v.6h1.1l-3.1 12h-1.9v1.9h.6v-1.2h1.1 10.4v1.2h.6v-1.9h-1.2zm-24.2-1.3c-.1-.1-.1-.2-.1-.3v-8.7c0-.1 0-.2.1-.3.6-.5 1.2-.9 1.9-1.2s1.5-.4 2.3-.4 1.6.1 2.3.4 1.4.7 1.9 1.2c.1.1.1.2.1.3v8.7c0 .1 0 .2-.1.3-.6.5-1.2.9-1.9 1.2s-1.5.4-2.3.4-1.6-.1-2.3-.4c-.6-.3-1.3-.7-1.9-1.2m11.4-4.7c0-1.3-.3-2.4-1-3.5-.6-1.1-1.5-1.9-2.6-2.5s-2.3-.9-3.5-.9c-1.3 0-2.5.3-3.5.9-1.1.6-1.9 1.4-2.6 2.5-.6 1.1-1 2.2-1 3.4 0 1.2.3 2.4 1 3.4.6 1.1 1.5 1.9 2.6 2.5s2.3.9 3.5.9c1.3 0 2.5-.3 3.5-.9 1.1-.6 1.9-1.5 2.6-2.5.6-.9 1-2 1-3.3zm-25.1 6.6h5v-.6h-1.6v-12h5.5v2.1h.6v-2.7h-9.5v.6h1.1v12h-1.1zm-15.2-8.5c-.9 0-1.8.2-2.5.7v-3.2h7.1v-2.3h-7.7v6l.6.2c.7-.6 1.6-.8 2.5-.8s1.7.2 2.4.7v6.2c-.7.5-1.5.7-2.4.7-1.3 0-2.6-.6-3.9-1.7l.6-.8-.4-.5-1.1 1.3c.6.7 1.3 1.3 2.2 1.7s1.8.6 2.7.6 1.6-.2 2.4-.6c.7-.4 1.3-.9 1.7-1.6s.6-1.4.6-2.2-.2-1.5-.6-2.2-1-1.2-1.7-1.6c-.8-.4-1.6-.6-2.5-.6m-9.4 1.2c.6-.3 1-.7 1.4-1.2.3-.5.5-1.1.5-1.7s-.2-1.1-.5-1.6-.7-.9-1.3-1.2c-.5-.3-1.1-.4-1.8-.4-.4 0-.8.1-1.2.2s-.7.3-1 .6l1 1.4.5-.5-.6-.8c.4-.2.8-.3 1.3-.3.6 0 1.2.1 1.6.4v4.4c-.5.3-1 .4-1.6.4v.6c.8 0 1.6.2 2.2.7v5.1c-.6.5-1.3.7-2.2.7-.7 0-1.4-.1-2.1-.4s-1.3-.7-1.9-1.2l.7-.8-.4-.5-1.1 1.3c.6.7 1.3 1.2 2.2 1.7s1.8.6 2.7.6c.8 0 1.5-.2 2.1-.5.6-.4 1.1-.8 1.4-1.4s.5-1.3.5-2c0-.8-.2-1.6-.7-2.2-.4-.6-1-1.1-1.7-1.4m-13.2 2.1c-.9 0-1.7-.2-2.4-.7v-6.2c.7-.5 1.5-.7 2.4-.7s1.7.2 2.3.7v6.2c-.7.4-1.5.7-2.3.7m-.1-8.2c-.9 0-1.6.2-2.4.6-.7.4-1.3.9-1.7 1.6s-.6 1.4-.6 2.2.2 1.5.6 2.2 1 1.2 1.7 1.6 1.5.6 2.4.6c.8 0 1.6-.2 2.4-.6v4.2c-.7.5-1.5.7-2.3.7-.7 0-1.3-.1-1.8-.3s-1-.5-1.4-.9l.8-.8-.5-.5-1.2 1.2c.4.6 1 1 1.7 1.4.7.3 1.5.5 2.3.5s1.6-.2 2.3-.6 1.3-.9 1.7-1.6.6-1.4.6-2.2v-5c0-.8-.2-1.5-.6-2.2s-1-1.2-1.7-1.6c-.6-.3-1.4-.5-2.3-.5m-8.3 12.8v-12.7h-2.3l-2.2 1.8.6.4 1.6-1.2v11.6h-1.1v.6h4.6v-.6h-1.2zm-17.9-5.5h-3.5c-.6 0-1.1-.1-1.5-.4-.2-.1-.3-.2-.4-.4s-.1-.3-.1-.5v-.6-3.5c0-.2 0-.4.1-.5.1-.2.2-.3.4-.4.4-.2.9-.3 1.5-.3h3.5zm2.3 5.5v-12h1.1v-.6h-6.9c-.7 0-1.4.2-2 .5-.6.4-1.1.8-1.4 1.4s-.5 1.2-.5 2c0 .7.2 1.4.5 2s.8 1.1 1.4 1.4c.6.4 1.2.5 2 .5h.2l-3.1 4.8h-1.5v.6h1 2.5v-.6h-1.4l3-4.8h2.6v4.8h-1.3v.6h4.9v-.6zm-21-4.5 2.1-7.3 2.5 7.3zm8.7 4.5-4.5-12.7h-3.9v.6h1.2l-3.4 12h-1.2v.6h1 1.7v-.6h-.9l1.1-4h5l1.4 4h-.9v.6h4.5v-.6h-1.1zm-29.6.6h2.8v-.6h-1.1v-11.8l5.1 12.5h.4l5-11.8v11.1h-1.1v.6h4.7v-.6h-1.1v-12h1.1v-.6h-3.6l-4.3 10.2-4.2-10.2h-4v.6h1.2l.1 12h-1.1v.6zm-15.1-8.5c-.9 0-1.8.2-2.5.7v-3.2h7.1v-2.3h-7.8v6l.6.2c.7-.6 1.6-.8 2.5-.8s1.7.2 2.4.7v6.2c-.7.5-1.5.7-2.4.7-1.3 0-2.6-.6-3.9-1.7l.6-.8-.4-.5-1.1 1.3c.6.7 1.3 1.3 2.2 1.7s1.8.6 2.7.6 1.6-.2 2.4-.6c.7-.4 1.3-.9 1.7-1.6s.6-1.4.6-2.2-.2-1.5-.6-2.2-1-1.2-1.7-1.6c-.8-.4-1.5-.6-2.4-.6m-8.6 7.9v-12.7h-2.3l-2.2 1.8.6.4 1.6-1.2v11.6h-1.1v.6h4.6v-.6h-1.2zm-21.1-6.5h3.5c.6 0 1.1.1 1.5.4.2.1.3.2.4.4s.1.3.1.5v.6 3.5c0 .2 0 .4-.1.5-.1.2-.2.3-.4.4-.4.2-.9.3-1.5.3h-3.5zm3.4 7.1c.7 0 1.4-.2 2-.5.6-.4 1.1-.8 1.4-1.4s.5-1.2.5-2c0-.7-.2-1.4-.5-2s-.8-1.1-1.4-1.4c-.6-.4-1.2-.5-2-.5h-3.5v-4.8h1.3v-.6h-4.9v.6h1.3v12h-1.1v.6zm-10.7-2.4.7.7c-.5.4-1.2.8-1.8 1-.7.2-1.4.3-2.1.3-.8 0-1.6-.1-2.3-.4s-1.4-.7-1.9-1.2c-.1-.1-.1-.2-.1-.3v-8.7c0-.1 0-.2.1-.3.6-.5 1.2-.9 1.9-1.2s1.5-.4 2.3-.4c.7 0 1.4.1 2.1.3s1.3.6 1.8 1l-.7.7.5.5 1.2-1.2c-.6-.6-1.4-1.1-2.2-1.4s-1.7-.5-2.7-.5c-1.3 0-2.5.3-3.5.9-1.1.6-1.9 1.4-2.6 2.5-.6 1.1-.9 2.2-.9 3.4s.3 2.4.9 3.4c.6 1.1 1.5 1.9 2.6 2.5s2.3.9 3.5.9c.9 0 1.8-.2 2.7-.5.8-.3 1.6-.8 2.2-1.4l-1.2-1.2zm-21.4-2.7 2.1-7.3 2.5 7.3zm8.7 4.5-4.5-12.7h-3.9v.6h1.2l-3.4 12h-1.2v.6h1 1.7v-.6h-.9l1.1-4h5l1.4 4h-.9v.6h4.5v-.6h-1.1zm-14 0-4.3-12.7h-3.8v.6h1.1l-3.3 12h-1.2v.6h1 1.7v-.6h-.9l3.2-11.8 4 11.8h-.9v.6h4.4v-.6h-1zm-26.2-6.5h2.9c.6 0 1.1.1 1.5.4.2.1.3.2.4.4s.1.3.1.5v.6 3.5c0 .2 0 .4-.1.5-.1.2-.2.3-.4.4-.4.2-.9.3-1.5.3h-2.9zm7.9 7.1v-.6h1.3v-12.2h-1.3v-.6h4.9v.6h-1.3v12.2h1.3v.6zm-4.9 0c.7 0 1.4-.2 2-.5.6-.4 1.1-.8 1.4-1.4s.5-1.2.5-2c0-.7-.2-1.4-.5-2s-.8-1.1-1.4-1.4c-.6-.4-1.2-.5-2-.5h-2.9v-4.8h1.3v-.6h-5v.6h1.3v12h-1.1v.6zm-15.7-6.1v-6.5h3.5c.6 0 1.1.1 1.5.3.2.1.3.2.4.4s.1.3.1.5v.6 3.5c0 .2 0 .4-.1.5s-.2.3-.4.4c-.5.3-1 .4-1.5.4h-3.5zm3.4-7.2h-6.9v.6h1.1v12h-1.3v.6h4.9v-.6h-1.3v-4.8h3.5c.7 0 1.4-.2 2-.5.6-.4 1.1-.8 1.4-1.4s.5-1.2.5-2c0-.7-.2-1.4-.5-2s-.8-1.1-1.4-1.4-1.3-.5-2-.5m-9.6 12.7-4.2-7.1c.8-.6 1.4-1.3 1.8-2.2.5-.8.7-1.8.8-2.7h1.4v-.6h-2.9v.6h.8c-.1 1-.4 2-.9 2.8-.6.9-1.3 1.6-2.2 2.1s-1.9.8-2.9.9v-5.8h1.1v-.6h-4.6v.6h1.1v12h-1.1v.6h4.6v-.6h-1.1v-5.6c.7 0 1.5-.2 2.2-.5l3.5 6h-.7v.6h4.7v-.6h-1.4zm-14.3-9.8v-2.9h-13v2.9h.6v-2.3h4.7v12h-1.1v.6h4.6v-.6h-1.2v-12h4.7v2.3zm-26 8.5c-.1-.1-.1-.2-.1-.3v-8.7c0-.1 0-.2.1-.3.6-.5 1.2-.9 1.9-1.2s1.5-.4 2.3-.4 1.6.1 2.3.4 1.4.7 1.9 1.2c.1.1.1.2.1.3v8.7c0 .1 0 .2-.1.3-.6.5-1.2.9-1.9 1.2s-1.5.4-2.3.4-1.6-.1-2.3-.4-1.3-.7-1.9-1.2m11.3-4.7c0-1.3-.3-2.4-1-3.5-.6-1.1-1.5-1.9-2.6-2.5s-2.3-.9-3.5-.9c-1.3 0-2.5.3-3.5.9-1.1.6-1.9 1.4-2.6 2.5-.6 1.1-.9 2.2-.9 3.4 0 1.2.3 2.4.9 3.4.6 1.1 1.5 1.9 2.6 2.5s2.3.9 3.5.9c1.3 0 2.5-.3 3.5-.9 1.1-.6 1.9-1.5 2.6-2.5.7-.9 1-2 1-3.3z"/><path clip-path="url(#a)" d="m432.2 453.1c-.1-.1-.1-.2-.1-.3v-8.7c0-.1 0-.2.1-.3.6-.5 1.2-.9 1.9-1.2s1.5-.4 2.3-.4 1.6.1 2.3.4 1.4.7 1.9 1.2c.1.1.1.2.1.3v8.7c0 .1 0 .2-.1.3-.6.5-1.2.9-1.9 1.2s-1.5.4-2.3.4-1.6-.1-2.3-.4c-.6-.3-1.3-.7-1.9-1.2m11.4-4.7c0-1.3-.3-2.4-.9-3.5s-1.5-1.9-2.6-2.5-2.3-.9-3.5-.9c-1.3 0-2.5.3-3.5.9-1.1.6-1.9 1.4-2.6 2.5-.6 1.1-.9 2.2-.9 3.4 0 1.2.3 2.4.9 3.4.6 1.1 1.5 1.9 2.6 2.5s2.3.9 3.5.9c1.3 0 2.5-.3 3.5-.9 1.1-.6 1.9-1.5 2.6-2.5.5-.9.9-2 .9-3.3zm-23.8.5v-6.5h3.5c.6 0 1.1.1 1.5.3.2.1.3.2.4.4s.1.3.1.5v.6 3.5c0 .2 0 .4-.1.5-.1.2-.2.3-.4.4-.5.3-1 .4-1.5.4h-3.5zm3.4-7.2h-6.9v.6h1.1v12h-1.3v.6h4.9v-.6h-1.3v-4.8h3.5c.7 0 1.4-.2 2-.5.6-.4 1.1-.8 1.4-1.4s.5-1.2.5-2c0-.7-.2-1.4-.5-2s-.8-1.1-1.4-1.4-1.2-.5-2-.5m-9.6 2.9v-2.9h-12.9v2.9h.6v-2.3h4.7v12h-1.1v.6h4.6v-.6h-1.1v-12h4.7v2.3zm-25.2 10.4h10.2v-2.7h-.6v2.1h-6.2v-5.7h3.9v-.6h-3.9v-5.7h6.2v2.1h.6v-2.7h-10.1v.6h1.1v12h-1.1v.6zm-19.2 0h2.8v-.6h-1.1v-11.8l5.1 12.5h.4l5-11.8v11.1h-1.1v.6h4.7v-.6h-1.1v-12h1.1v-.6h-3.6l-4.3 10.2-4.2-10.2h-4v.6h1.2l.1 12h-1.1v.6zm-21.8-1.9c-.1-.1-.1-.2-.1-.3v-8.7c0-.1 0-.2.1-.3.6-.5 1.2-.9 1.9-1.2s1.5-.4 2.3-.4 1.6.1 2.3.4 1.4.7 1.9 1.2c.1.1.1.2.1.3v8.7c0 .1 0 .2-.1.3-.6.5-1.2.9-1.9 1.2s-1.5.4-2.3.4-1.6-.1-2.3-.4-1.3-.7-1.9-1.2m11.3-4.7c0-1.3-.3-2.4-.9-3.5s-1.5-1.9-2.6-2.5-2.3-.9-3.5-.9-2.5.3-3.5.9c-1.1.6-1.9 1.4-2.6 2.5-.6 1.1-.9 2.2-.9 3.4 0 1.2.3 2.4.9 3.4.6 1.1 1.5 1.9 2.6 2.5s2.3.9 3.5.9 2.5-.3 3.5-.9c1.1-.6 1.9-1.5 2.6-2.5.6-.9.9-2 .9-3.3zm-25 6.6h5v-.6h-1.6v-12h5.5v2.1h.6v-2.7h-9.5v.6h1.1v12h-1.1zm-14.1-1.9c-.1-.1-.1-.2-.1-.3v-8.7c0-.1 0-.2.1-.3.6-.5 1.2-.9 1.9-1.2s1.5-.4 2.3-.4 1.6.1 2.3.4 1.4.7 1.9 1.2c.1.1.1.2.1.3v8.7c0 .1 0 .2-.1.3-.6.5-1.2.9-1.9 1.2s-1.5.4-2.3.4-1.6-.1-2.3-.4-1.3-.7-1.9-1.2m11.3-4.7c0-1.3-.3-2.4-.9-3.5s-1.5-1.9-2.6-2.5-2.3-.9-3.5-.9-2.5.3-3.5.9c-1.1.6-1.9 1.4-2.6 2.5-.6 1.1-.9 2.2-.9 3.4 0 1.2.3 2.4.9 3.4.6 1.1 1.5 1.9 2.6 2.5s2.3.9 3.5.9 2.5-.3 3.5-.9c1.1-.6 1.9-1.5 2.6-2.5.6-.9.9-2 .9-3.3zm-17.3 6-4.2-7.1c.8-.6 1.4-1.3 1.8-2.2.5-.8.7-1.8.8-2.7h1.4v-.6h-2.9v.6h.8c-.1 1-.4 2-.9 2.8-.6.9-1.3 1.6-2.2 2.1s-1.9.8-2.9.9v-5.8h1.1v-.6h-4.6v.6h1.1v12h-1.1v.6h4.6v-.6h-1.1v-5.6c.7 0 1.5-.2 2.2-.5l3.5 6h-.7v.6h4.7v-.6h-1.4zm-15.5-1.8.7.7c-.5.4-1.2.8-1.8 1-.7.2-1.4.3-2.1.3-.8 0-1.6-.1-2.3-.4s-1.4-.7-1.9-1.2c-.1-.1-.1-.2-.1-.3v-8.7c0-.1 0-.2.1-.3.6-.5 1.2-.9 1.9-1.2s1.5-.4 2.3-.4c.7 0 1.4.1 2.1.3s1.3.6 1.8 1l-.7.7.5.5 1.2-1.2c-.6-.6-1.4-1.1-2.2-1.4s-1.7-.5-2.7-.5c-1.3 0-2.5.3-3.5.9-1.1.6-1.9 1.4-2.6 2.5-.6 1.1-1 2.2-1 3.4s.3 2.4 1 3.4c.6 1.1 1.5 1.9 2.6 2.5s2.3.9 3.5.9c.9 0 1.8-.2 2.7-.5.8-.3 1.6-.8 2.2-1.4l-1.2-1.2zm-16.6 1.8h-1.9v-7.4h1.9c.7 0 1.4.2 1.9.5.6.3 1 .8 1.4 1.4.3.6.5 1.2.5 1.9s-.2 1.3-.5 1.9-.8 1-1.4 1.3c-.6.2-1.2.4-1.9.4m1.2-9.9c0 .5-.2.9-.6 1.3-.4.3-.8.5-1.4.5h-1.3v-3.9h1.3c.3 0 .7.1 1 .3s.5.5.7.8.3.7.3 1m-.4 2c.7-.5 1.1-1.2 1.1-1.9 0-.5-.1-1-.4-1.4-.2-.4-.6-.8-1-1-.4-.3-.8-.4-1.2-.4h-4.7v.6h1.1v12h-1.1v.6h5.3c.8 0 1.6-.2 2.3-.6s1.2-.9 1.6-1.6.6-1.4.6-2.1-.2-1.3-.5-1.9-.8-1.1-1.3-1.5-1.2-.7-1.8-.8m-20.3 6.6c-.1-.1-.1-.2-.1-.3v-8.7c0-.1 0-.2.1-.3.6-.5 1.2-.9 1.9-1.2s1.5-.4 2.3-.4 1.6.1 2.3.4 1.4.7 1.9 1.2c.1.1.1.2.1.3v8.7c0 .1 0 .2-.1.3-.6.5-1.2.9-1.9 1.2s-1.5.4-2.3.4-1.6-.1-2.3-.4c-.6-.3-1.3-.7-1.9-1.2m11.4-4.7c0-1.3-.3-2.4-1-3.5-.6-1.1-1.5-1.9-2.6-2.5s-2.3-.9-3.5-.9c-1.3 0-2.5.3-3.5.9-1.1.6-1.9 1.4-2.6 2.5-.6 1.1-1 2.2-1 3.4 0 1.2.3 2.4 1 3.4.6 1.1 1.5 1.9 2.6 2.5s2.3.9 3.5.9c1.3 0 2.5-.3 3.5-.9 1.1-.6 1.9-1.5 2.6-2.5.6-.9 1-2 1-3.3zm-17.4 6-4.2-7.1c.8-.6 1.4-1.3 1.8-2.2.5-.8.7-1.8.8-2.7h1.4v-.6h-2.9v.6h.8c-.1 1-.4 2-.9 2.8-.6.9-1.3 1.6-2.2 2.1s-1.9.8-2.9.9v-5.8h1.1v-.6h-4.6v.6h1.1v12h-1.1v.6h4.6v-.6h-1.1v-5.6c.7 0 1.5-.2 2.2-.5l3.5 6h-.7v.6h4.7v-.6h-1.4zm-15.5-1.8.7.7c-.5.4-1.2.8-1.8 1-.7.2-1.4.3-2.1.3-.8 0-1.6-.1-2.3-.4s-1.4-.7-1.9-1.2c-.1-.1-.1-.2-.1-.3v-8.7c0-.1 0-.2.1-.3.6-.5 1.2-.9 1.9-1.2s1.5-.4 2.3-.4c.7 0 1.4.1 2.1.3s1.3.6 1.8 1l-.7.7.5.5 1.2-1.2c-.6-.6-1.4-1.1-2.2-1.4s-1.7-.5-2.7-.5c-1.3 0-2.5.3-3.5.9-1.1.6-1.9 1.4-2.6 2.5-.6 1.1-.9 2.2-.9 3.4s.3 2.4.9 3.4c.6 1.1 1.5 1.9 2.6 2.5s2.3.9 3.5.9c.9 0 1.8-.2 2.7-.5.8-.3 1.6-.8 2.2-1.4l-1.2-1.2zm-24.6.5c-.1-.1-.1-.2-.1-.3v-8.7c0-.1 0-.2.1-.3.6-.5 1.2-.9 1.9-1.2s1.5-.4 2.3-.4 1.6.1 2.3.4 1.4.7 1.9 1.2c.1.1.1.2.1.3v8.7c0 .1 0 .2-.1.3-.6.5-1.2.9-1.9 1.2s-1.5.4-2.3.4-1.6-.1-2.3-.4-1.3-.7-1.9-1.2m11.3-4.7c0-1.3-.3-2.4-.9-3.5s-1.5-1.9-2.6-2.5-2.3-.9-3.5-.9c-1.3 0-2.5.3-3.5.9-1.1.6-1.9 1.4-2.6 2.5-.6 1.1-1 2.2-1 3.4 0 1.2.3 2.4 1 3.4.6 1.1 1.5 1.9 2.6 2.5s2.3.9 3.5.9c1.3 0 2.5-.3 3.5-.9 1.1-.6 1.9-1.5 2.6-2.5.6-.9.9-2 .9-3.3zm-32.9 6.6h2.8v-.6h-1.1v-11.8l5.1 12.5h.4l5-11.8v11.1h-1.1v.6h4.7v-.6h-1.1v-12h1.1v-.6h-3.6l-4.3 10.2-4.2-10.2h-4v.6h1.2l.1 12h-1.1v.6zm-13.6-6.1h-3.5c-.6 0-1.1-.1-1.5-.4-.2-.1-.3-.2-.4-.4s-.1-.3-.1-.5v-.6-3.5c0-.2 0-.4.1-.5.1-.2.2-.3.4-.4.4-.2.9-.3 1.5-.3h3.5zm2.3 5.5v-12h1.1v-.6h-6.9c-.7 0-1.4.2-2 .5-.6.4-1.1.8-1.4 1.4s-.5 1.2-.5 2c0 .7.2 1.4.5 2s.8 1.1 1.4 1.4c.6.4 1.2.5 2 .5h.2l-3.1 4.8h-1.5v.6h1 2.5v-.6h-1.4l3-4.8h2.6v4.8h-1.3v.6h4.9v-.6zm-12.8 0v-12.7h-.1l-9.4 9.2v-8.6h1.1v-.6h-2.9v.6h1.1v12.7l9.5-9.6v8.9h-1.1v.6h2.9v-.6h-1.1zm-28 .6v-.6h1.3v-12h-1.3v-.6h5v.6h-1.4v5.7h6.7v-5.7h-1.5v-.6h5v.6h-1.3v12h1.3v.6h-5v-.6h1.4v-5.7h-6.7v5.7h1.4v.6zm-3.6-.6v-12.7h-.1l-9.4 9.2v-8.6h1.1v-.6h-2.9v.6h1.1v12.7l9.5-9.6v8.9h-1.1v.6h2.9v-.6h-1.1zm-14 0-4.3-12.7h-3.8v.6h1.1l-3.3 12h-1.2v.6h1 1.7v-.6h-.9l3.2-11.8 4 11.8h-.9v.6h4.4v-.6h-1zm-23.9-5.5h-3.5c-.6 0-1.1-.1-1.5-.4-.2-.1-.3-.2-.4-.4s-.1-.3-.1-.5v-.6-3.5c0-.2 0-.4.1-.5.1-.2.2-.3.4-.4.4-.2.9-.3 1.5-.3h3.5zm2.3 5.5v-12h1.1v-.6h-6.9c-.7 0-1.4.2-2 .5-.6.4-1.1.8-1.4 1.4s-.5 1.2-.5 2c0 .7.2 1.4.5 2s.8 1.1 1.4 1.4c.6.4 1.2.5 2 .5h.2l-3.1 4.8h-1.3v.6h1 2.5v-.6h-1.4l3-4.8h2.6v4.8h-1.3v.6h4.9v-.6zm-20.9-4.5 2.1-7.3 2.5 7.3zm8.7 4.5-4.5-12.7h-3.9v.6h1.2l-3.4 12h-1.2v.6h1 1.7v-.6h-.9l1.1-4h5l1.4 4h-.9v.6h4.5v-.6h-1.1zm-16.7 0h-1.9v-7.4h1.9c.7 0 1.4.2 1.9.5.6.3 1 .8 1.4 1.4.3.6.5 1.2.5 1.9s-.2 1.3-.5 1.9-.8 1-1.4 1.3c-.5.2-1.2.4-1.9.4m1.3-9.9c0 .5-.2.9-.6 1.3-.4.3-.8.5-1.4.5h-1.3v-3.9h1.3c.3 0 .7.1 1 .3s.5.5.7.8.3.7.3 1m-.5 2c.7-.5 1.1-1.2 1.1-1.9 0-.5-.1-1-.4-1.4-.2-.4-.6-.8-.9-1-.4-.3-.8-.4-1.2-.4h-4.7v.6h1.1v12h-1.1v.6h5.3c.8 0 1.6-.2 2.3-.6s1.2-.9 1.6-1.6.6-1.4.6-2.1-.2-1.3-.5-1.9-.8-1.1-1.3-1.5c-.6-.4-1.2-.7-1.9-.8m-15.3 2.4v-6.5h3.5c.6 0 1.1.1 1.5.3.2.1.3.2.4.4s.1.3.1.5v.6 3.5c0 .2 0 .4-.1.5-.1.2-.2.3-.4.4-.5.3-1 .4-1.5.4h-3.5zm3.5-7.2h-6.9v.6h1.1v12h-1.3v.6h4.9v-.6h-1.3v-4.8h3.5c.7 0 1.4-.2 2-.5.6-.4 1.1-.8 1.4-1.4s.5-1.2.5-2c0-.7-.2-1.4-.5-2s-.8-1.1-1.4-1.4c-.7-.3-1.3-.5-2-.5m-20.2 13.3h10.1v-2.7h-.6v2.1h-6.2v-5.7h3.9v-.6h-3.9v-5.7h6.2v2.1h.6v-2.7h-10.1v.6h1.1v12h-1.1zm-3.4-12.6v-.6h-2.8-7.5-3.6v.6h1.3v12h-1.3v.6h5v-.6h-1.4v-12h6.7v12h-1.4v.6h5v-.6h-1.3v-12z"/><path clip-path="url(#a)" d="m443.7 411.4v-25.6h-.1l-19.1 18.6v-17.3h2.3v-1.3h-5.9v1.3h2.3v25.6h.1l19.2-19.4v18.1h-2.3v1.3h5.9v-1.3zm-9.6-28.5c1.4 0 2.6-.4 3.6-1.1s1.5-1.8 1.5-3.1h-1.3c0 .8-.3 1.5-.9 2.1-.6.5-1.6.8-2.9.8s-2.2-.3-2.9-.8c-.6-.5-.9-1.2-.9-2.1h-1.3c0 1.4.5 2.4 1.5 3.1s2.2 1.1 3.6 1.1m-39.8 29.8h20.6v-5.5h-1.2v4.2h-12.5v-11.6h7.8v-1.2h-7.8v-11.5h12.5v4.2h1.2v-5.5h-20.6v1.3h2.3v24.3h-2.3zm-18.6-12.4v-13.2h7c1.2 0 2.2.2 3 .6.3.2.6.5.8.8s.3.7.3 1.1v1.2 7c0 .4-.1.7-.2 1-.2.3-.4.6-.7.8-.9.5-2 .8-3.1.8h-7.1zm7-14.5h-14v1.3h2.3v24.3h-2.7v1.3h10v-1.3h-2.7v-9.8h7c1.4 0 2.8-.4 4-1.1s2.2-1.7 2.9-2.9 1.1-2.5 1.1-4c0-1.4-.4-2.8-1.1-4s-1.7-2.2-2.9-2.9c-1.1-.5-2.4-.9-3.9-.9m-42.8 23c-.2-.2-.3-.4-.3-.6v-17.7c0-.2.1-.4.3-.6 1.2-1 2.5-1.8 3.9-2.4 1.5-.6 3-.8 4.7-.8 1.6 0 3.2.3 4.7.8 1.5.6 2.8 1.3 3.9 2.4.2.2.3.4.3.6v17.7c0 .2-.1.4-.3.6-1.2 1-2.5 1.8-3.9 2.4-1.5.6-3 .8-4.7.8-1.6 0-3.2-.3-4.7-.8-1.5-.6-2.8-1.4-3.9-2.4m22.9-9.4c0-2.6-.6-4.9-1.9-7s-3-3.8-5.2-5.1c-2.2-1.2-4.6-1.9-7.2-1.9s-5 .6-7.2 1.9c-2.2 1.2-3.9 2.9-5.2 5.1-1.3 2.1-1.9 4.5-1.9 7 0 2.5.6 4.8 1.9 6.9s3 3.8 5.2 5.1 4.6 1.9 7.2 1.9 5-.6 7.2-1.9 3.9-3 5.2-5.1 1.9-4.4 1.9-6.9zm-66.6 13.3h5.7v-1.3h-2.3v-23.9l10.4 25.3h.9l10.1-23.8v22.4h-2.2v1.3h9.4v-1.3h-2.2v-24.3h2.2v-1.3h-7.2l-8.7 20.7-8.5-20.7h-8v1.3h2.5l.2 24.3h-2.3zm-22.6-1.3v-25.6h-.1l-19.1 18.6v-17.3h2.3v-1.3h-5.9v1.3h2.3v25.6h.1l19.2-19.4v18.1h-2.4v1.3h5.9v-1.3zm-26.9-19.7v-5.9h-26.2v5.9h1.3v-4.6h9.5v24.3h-2.3v1.3h9.2v-1.3h-2.3v-24.3h9.5v4.6zm-37.1 8.6h-7c-1.1 0-2.2-.3-3.1-.8-.3-.2-.5-.5-.7-.8s-.3-.7-.3-1v-1.2-7c0-.4.1-.8.3-1.1s.5-.6.8-.8c.8-.4 1.8-.6 3-.6h7zm4.6 11.1v-24.3h2.3v-1.3h-14c-1.4 0-2.8.4-4 1.1s-2.2 1.7-2.9 2.9-1.1 2.5-1.1 4c0 1.4.4 2.8 1.1 4s1.7 2.2 2.9 2.9 2.5 1.1 4 1.1h.4l-6.2 9.8h-3v1.3h2.1 5.1v-1.3h-2.9l6.2-9.8h5.3v9.8h-2.7v1.3h10v-1.3h-2.6zm-23.7-24.3v-1.3h-5.7-15.1-7.3v1.3h2.7v24.3h-2.7v1.3h10.2v-1.3h-2.9v-24.3h13.5v24.3h-2.9v1.3h10.2v-1.3h-2.7v-24.3zm-46 4.6v-5.9h-26.2v5.9h1.3v-4.6h9.5v24.3h-2.3v1.3h9.2v-1.3h-2.3v-24.3h9.5v4.6zm-43.8 8.6v-13.2h7c1.2 0 2.2.2 3 .6.3.2.6.5.8.8s.3.7.3 1.1v1.2 7c0 .4-.1.7-.2 1-.2.3-.4.6-.7.8-1 .5-2 .8-3.1.8h-7.1zm7-14.5h-14v1.3h2.3v24.3h-2.7v1.3h10v-1.3h-2.7v-9.8h7c1.4 0 2.8-.4 4-1.1s2.2-1.7 2.9-2.9 1.1-2.5 1.1-4c0-1.4-.4-2.8-1.1-4s-1.7-2.2-2.9-2.9c-1.1-.5-2.5-.9-3.9-.9m-42.9 23c-.2-.2-.3-.4-.3-.6v-17.7c0-.2.1-.4.3-.6 1.2-1 2.5-1.8 3.9-2.4 1.5-.6 3-.8 4.7-.8 1.6 0 3.2.3 4.7.8 1.5.6 2.8 1.3 3.9 2.4.2.2.3.4.3.6v17.7c0 .2-.1.4-.3.6-1.2 1-2.5 1.8-3.9 2.4s-3 .8-4.7.8c-1.6 0-3.2-.3-4.7-.8-1.4-.6-2.7-1.4-3.9-2.4m23-9.4c0-2.6-.6-4.9-1.9-7s-3-3.8-5.2-5.1c-2.2-1.2-4.6-1.9-7.2-1.9s-5 .6-7.2 1.9c-2.2 1.2-3.9 2.9-5.2 5.1-1.3 2.1-1.9 4.5-1.9 7 0 2.5.6 4.8 1.9 6.9s3 3.8 5.2 5.1 4.6 1.9 7.2 1.9 5-.6 7.2-1.9 3.9-3 5.2-5.1c1.2-2.1 1.9-4.4 1.9-6.9zm-34.7-12.3v-1.3h-5.7-15.1-7.3v1.3h2.7v24.3h-2.7v1.3h10.2v-1.3h-2.9v-24.3h13.5v24.3h-2.9v1.3h10.2v-1.3h-2.7v-24.3z"/><path clip-path="url(#a)" d="m429.2 519.1h6.8c1.1 0 2.1.2 3 .7.3.2.5.4.7.7s.2.6.2 1v1.1 6.7c0 .4-.1.7-.3 1.1-.2.3-.4.6-.8.8-.8.4-1.7.6-2.9.6h-6.8v-12.7zm6.8 13.9c1.4 0 2.7-.3 3.8-1 1.2-.7 2.1-1.6 2.8-2.8s1-2.4 1-3.8-.3-2.7-1-3.8c-.7-1.2-1.6-2.1-2.8-2.8s-2.4-1-3.8-1h-6.8v-9.4h2.6v-1.3h-9.6v1.3h2.6v23.4h-2.2v1.3h13.4zm-32.2-24.2 6.7 23h-12.7zm11.4 23-7.3-24.7h-7.4v1.3h2.2l-6.1 23.5h-3.7v3.7h1.3v-2.6h2.1 20.4v2.4h1.3v-3.7h-2.8zm-43.1-8.8 4-14.2 5 14.2zm16.9 8.8-8.7-24.7h-7.6v1.3h2.3l-6.6 23.5h-2.4v1.3h2 3.4v-1.3h-1.8l2.1-7.7h9.7l2.7 7.7h-1.8v1.3h8.7v-1.3h-2zm-29.9 0v-23.4h2.6v-1.3h-9.8v1.3h2.8v23.4h-9.2v-23.4h2.8v-1.3h-9.8v1.3h2.6v23.4h-9.3v-23.4h2.8v-1.3h-9.8v1.3h2.6v23.4h-2.4v1.3h2.2 13.7 13.7 7l-.4 3h1.3l.4-3v-1.3zm-61.9-2.5c-.2-.2-.3-.4-.3-.6v-17c0-.2.1-.4.3-.6 1.1-1 2.4-1.7 3.8-2.3 1.4-.5 2.9-.8 4.5-.8s3.1.3 4.5.8 2.7 1.3 3.8 2.3c.2.2.3.4.3.6v17c0 .2-.1.4-.3.6-1.1 1-2.4 1.7-3.8 2.3-1.4.5-2.9.8-4.5.8s-3.1-.3-4.5-.8c-1.4-.6-2.7-1.3-3.8-2.3m22.1-9.1c0-2.5-.6-4.7-1.9-6.7-1.2-2-2.9-3.7-5-4.9s-4.4-1.8-6.9-1.8-4.8.6-6.9 1.8-3.8 2.8-5 4.9c-1.2 2-1.9 4.3-1.9 6.7 0 2.4.6 4.6 1.9 6.7 1.2 2 2.9 3.7 5 4.9s4.4 1.8 6.9 1.8 4.8-.6 6.9-1.8 3.8-2.8 5-4.9c1.2-2 1.9-4.3 1.9-6.7zm-32.1 11.6-8.4-24.7h-7.4v1.3h2.2l-6.5 23.5h-2.3v1.3h1.9 3.3v-1.3h-1.8l6.3-23 7.8 23h-1.7v1.3h8.5v-1.3h-1.9zm-26.2-23.4v-1.3h-5.5-14.5-7v1.3h2.6v23.4h-2.6v1.3h9.8v-1.3h-2.8v-23.4h13v23.4h-2.8v1.3h9.8v-1.3h-2.6v-23.4zm-53.7 12.7h-6.8c-1.1 0-2.1-.2-3-.7-.3-.2-.5-.4-.7-.7s-.2-.6-.2-1v-1.1-6.7c0-.4.1-.7.3-1.1.2-.3.4-.6.8-.8.8-.4 1.7-.6 2.9-.6h6.8v12.7zm4.4 10.7v-23.4h2.2v-1.3h-13.4c-1.4 0-2.7.3-3.8 1-1.2.7-2.1 1.6-2.8 2.8s-1 2.4-1 3.8.3 2.7 1 3.8c.7 1.2 1.6 2.1 2.8 2.8s2.4 1 3.8 1h.4l-6 9.4h-2.8v1.3h2 4.9v-1.3h-2.8l5.9-9.4h5.1v9.4h-2.6v1.3h9.6v-1.3h-2.5zm-40.8-8.8 4-14.2 5 14.2zm17 8.8-8.7-24.7h-7.6v1.3h2.3l-6.6 23.5h-2.4v1.3h2 3.4v-1.3h-1.8l2.1-7.7h9.7l2.7 7.7h-1.8v1.3h8.7v-1.3h-2zm-53.9 1.2v-1.3h2.6v-23.4h-2.6v-1.3h9.8v1.3h-2.8v11.1h13v-11.1h-2.8v-1.3h9.8v1.3h-2.6v23.4h2.6v1.3h-9.8v-1.3h2.8v-11.1h-13v11.1h2.8v1.3zm-7.2-4.7 1.4 1.4c-1.1.8-2.3 1.5-3.6 1.9s-2.7.7-4.1.7c-1.6 0-3.1-.3-4.5-.8s-2.7-1.3-3.8-2.3c-.2-.2-.3-.4-.3-.6v-17c0-.2.1-.4.3-.6 1.1-1 2.4-1.7 3.8-2.3 1.4-.5 2.9-.8 4.5-.8 1.4 0 2.8.2 4.1.7 1.3.4 2.5 1.1 3.6 1.9l-1.4 1.4.9.9 2.4-2.4c-1.3-1.2-2.7-2.1-4.4-2.8s-3.4-1-5.2-1c-2.5 0-4.8.6-6.9 1.8s-3.8 2.8-5 4.9-1.8 4.3-1.8 6.7.6 4.7 1.8 6.7 2.9 3.7 5 4.9 4.4 1.8 6.9 1.8c1.8 0 3.6-.3 5.2-1 1.7-.7 3.1-1.6 4.4-2.8l-2.4-2.4zm-41.6-5.3 4-14.2 5 14.2zm16.9 8.8-8.7-24.7h-7.6v1.3h2.3l-6.6 23.5h-2.4v1.3h2 3.4v-1.3h-1.8l2.1-7.7h9.7l2.7 7.7h-1.8v1.3h8.7v-1.3h-2zm-38.8-10.7v-12.7h6.8c1.2 0 2.1.2 2.9.6.3.2.6.5.8.8s.3.7.3 1.1v1.1 6.7c0 .4-.1.7-.2 1-.2.3-.4.5-.7.7-.9.5-1.9.7-3 .7zm6.8-14h-13.5v1.3h2.2v23.4h-2.6v1.3h9.6v-1.3h-2.6v-9.4h6.8c1.4 0 2.7-.3 3.8-1 1.2-.7 2.1-1.6 2.8-2.8s1-2.4 1-3.8-.3-2.7-1-3.8c-.7-1.2-1.6-2.1-2.8-2.8-1.1-.7-2.3-1.1-3.7-1.1m-18.9 24.7-8.2-13.9c1.5-1.2 2.7-2.6 3.6-4.2.9-1.7 1.4-3.4 1.5-5.3h2.7v-1.3h-5.6v1.3h1.6c-.1 2-.8 3.8-1.8 5.5-1.1 1.7-2.5 3-4.2 4.1-1.7 1-3.6 1.6-5.7 1.7v-11.3h2.2v-1.3h-8.9v1.3h2.2v23.4h-2.2v1.3h8.9v-1.3h-2.3v-10.8c1.4-.1 2.8-.4 4.3-.9l6.7 11.7h-1.3v1.3h9.1v-1.3z"/><path clip-path="url(#a)" d="m424.7 298.7v-14.7h7.9c1.3 0 2.5.2 3.4.7.4.2.7.5.9.9s.3.8.3 1.2v1.3 7.8c0 .4-.1.8-.3 1.2-.2.3-.5.6-.8.9-1.1.6-2.2.9-3.5.9h-7.9zm7.9-16.2h-15.6v1.5h2.6v27.2h-3v1.5h11.2v-1.5h-3v-10.9h7.9c1.6 0 3.1-.4 4.4-1.2s2.4-1.9 3.2-3.2 1.2-2.8 1.2-4.4-.4-3.1-1.2-4.4-1.9-2.4-3.2-3.2c-1.4-1-2.9-1.4-4.5-1.4m-21.8 6.6v-6.6h-29.2v6.6h1.5v-5.2h10.6v27.2h-2.7v1.5h10.3v-1.5h-2.6v-27.1h10.6v5.2h1.5zm-51.3 11.8 4.6-16.5 5.8 16.5zm19.7 10.2-10.2-28.7h-8.8v1.5h2.7l-7.7 27.3h-2.8v1.5h2.3 3.9v-1.5h-2.1l2.5-8.9h11.2l3.1 8.9h-2.1v1.5h10.1v-1.5h-2.1zm-53.6 1.5h23v-6.2h-1.3v4.7h-13.9v-13h8.7v-1.3h-8.7v-12.8h13.9v4.7h1.3v-6.2h-23v1.5h2.6v27.2h-2.6zm-5.8-23.5v-6.6h-29.2v6.6h1.5v-5.2h10.6v27.2h-2.7v1.5h10.3v-1.5h-2.6v-27.1h10.6v5.2h1.5zm-51.8 22v-28.6h-.1l-21.4 20.8v-19.3h2.6v-1.5h-6.6v1.5h2.6v28.6h.1l21.4-21.7v20.3h-2.6v1.5h6.6v-1.5h-2.6zm-10.8-31.8c1.6 0 3-.4 4.1-1.2s1.7-2 1.7-3.5h-1.5c0 .9-.4 1.7-1.1 2.3s-1.8.9-3.2.9-2.5-.3-3.2-.9-1.1-1.4-1.1-2.3h-1.5c0 1.5.6 2.7 1.7 3.5 1.2.8 2.5 1.2 4.1 1.2m-46.2 28.9c-.2-.2-.3-.4-.3-.6v-19.8c0-.2.1-.4.3-.6 1.3-1.1 2.8-2 4.4-2.6s3.4-.9 5.2-.9 3.6.3 5.2.9 3.1 1.5 4.4 2.6c.2.2.3.4.3.6v19.8c0 .2-.1.4-.3.6-1.3 1.1-2.8 2-4.4 2.6s-3.4.9-5.2.9-3.6-.3-5.2-.9c-1.7-.6-3.1-1.4-4.4-2.6m25.6-10.5c0-2.9-.7-5.4-2.1-7.8s-3.4-4.3-5.8-5.7c-2.5-1.4-5.1-2.1-8-2.1s-5.6.7-8 2.1c-2.5 1.4-4.4 3.3-5.8 5.7s-2.1 5-2.1 7.8c0 2.8.7 5.4 2.1 7.7 1.4 2.4 3.4 4.3 5.8 5.7 2.5 1.4 5.1 2.1 8 2.1s5.6-.7 8-2.1c2.5-1.4 4.4-3.3 5.8-5.7 1.4-2.3 2.1-4.9 2.1-7.7zm-38.6-13.7v-1.5h-11.4v1.5h3.2v27.2h-10.8v-27.2h3.2v-1.5h-11.4v1.5h3v27.2h-10.8v-27.2h3.2v-1.5h-11.4v1.5h3v27.2h-2.6v1.5h2.6 16 15.9 8.2v-1.5h-3v-27.2zm-64.3 12.3h7.9c1.3 0 2.4.3 3.5.9.3.2.6.5.8.9.2.3.3.7.3 1.2v1.3 7.8c0 .5-.1.9-.3 1.2-.2.4-.5.7-.9.9-.9.5-2 .7-3.4.7h-7.9zm7.9 16.3c1.6 0 3.1-.4 4.4-1.2s2.4-1.9 3.2-3.2 1.2-2.8 1.2-4.4-.4-3.1-1.2-4.4-1.9-2.4-3.2-3.2-2.8-1.2-4.4-1.2h-7.9v-11h3v-1.5h-11.2v1.5h3v27.2h-2.5v1.5h15.6zm-22.9-1.5-9.8-28.7h-8.6v1.5h2.6l-7.5 27.3h-2.6v1.5h2.2 3.8v-1.5h-2.1l7.4-26.7 9.1 26.7h-2v1.5h9.8v-1.5h-2.3zm-55-2.9c-.2-.2-.3-.4-.3-.6v-19.8c0-.2.1-.4.3-.6 1.3-1.1 2.8-2 4.4-2.6s3.4-.9 5.2-.9 3.6.3 5.2.9 3.1 1.5 4.4 2.6c.2.2.3.4.3.6v19.8c0 .2-.1.4-.3.6-1.3 1.1-2.8 2-4.4 2.6s-3.4.9-5.2.9-3.6-.3-5.2-.9-3.1-1.4-4.4-2.6m25.7-10.5c0-2.9-.7-5.4-2.2-7.8-1.4-2.4-3.4-4.3-5.8-5.7-2.5-1.4-5.1-2.1-8-2.1s-5.6.7-8 2.1c-2.5 1.4-4.4 3.3-5.8 5.7s-2.1 5-2.1 7.8c0 2.8.7 5.4 2.1 7.7 1.4 2.4 3.4 4.3 5.8 5.7 2.5 1.4 5.1 2.1 8 2.1s5.6-.7 8-2.1c2.5-1.4 4.4-3.3 5.8-5.7 1.5-2.3 2.2-4.9 2.2-7.7zm-47.3 13.4h-4.3v-16.8h4.3c1.6 0 3.1.4 4.4 1.1 1.3.8 2.4 1.8 3.1 3.1.8 1.3 1.1 2.8 1.1 4.4 0 1.5-.4 2.9-1.1 4.2-.8 1.2-1.8 2.2-3.1 2.9-1.4.8-2.8 1.1-4.4 1.1m-1.5-18.2h-2.8v-8.9h10.7v4.7h1.3v-6.2h-1.3-18.5v1.5h2.6v27.2h-2.6v1.5h12.1c1.9 0 3.7-.4 5.2-1.3s2.8-2.1 3.6-3.6c.9-1.5 1.3-3.1 1.3-4.8 0-2-.5-3.7-1.4-5.2s-2.3-2.7-4.1-3.5c-1.7-1-3.8-1.4-6.1-1.4"/><path clip-path="url(#a)" d="m397.3 167.5 9.8-34.9 12.2 34.9zm41.7 21.7-21.4-60.8h-18.7v3.1h5.6l-16.3 57.7h-5.8v3.1h4.9 8.3v-3.1h-4.5l5.3-18.9h23.8l6.6 18.9h-4.4v3.1h21.6v-3.1zm-79.8 0h-9.2v-35.6h9.2c3.4 0 6.5.8 9.3 2.4s5 3.8 6.6 6.6 2.4 5.8 2.4 9.2c0 3.3-.8 6.2-2.4 8.9-1.6 2.6-3.8 4.7-6.6 6.2s-5.9 2.3-9.3 2.3m6.1-47.3c0 2.5-.9 4.5-2.7 6.1s-4 2.4-6.6 2.4h-6v-18.8h6c1.6 0 3.2.5 4.6 1.5s2.6 2.3 3.4 3.9 1.3 3.2 1.3 4.9m-2.1 9.3c3.5-2.5 5.3-5.6 5.3-9.3 0-2.4-.6-4.6-1.7-6.6-1.2-2.1-2.7-3.7-4.5-4.9-1.9-1.2-3.9-1.8-5.9-1.8h-22.7v3.1h5.5v57.5h-5.5v3.1h25.6c4.1 0 7.7-.9 11-2.8s5.8-4.4 7.7-7.6 2.8-6.5 2.8-10.1c0-3.3-.8-6.4-2.4-9.3s-3.7-5.3-6.4-7.3c-2.8-2-5.7-3.3-8.8-4m-42 38-20.2-34c3.6-2.9 6.6-6.3 8.7-10.4 2.2-4.1 3.4-8.4 3.7-13.1h6.6v-3.1h-13.7v3.1h3.9c-.4 4.9-1.9 9.5-4.5 13.6-2.6 4.2-6.1 7.5-10.4 10s-9 3.9-14.1 4.1v-27.8h5.5v-3.1h-21.7v3.1h5.5v57.5h-5.5v3.1h21.8v-3.1h-5.5v-26.7c3.5-.2 7-.9 10.6-2.2l16.6 28.8h-3.2v3.1h22.4v-3.1h-6.5zm-73.9-8.6 3.5 3.5c-2.6 2.1-5.6 3.6-8.8 4.7-3.3 1.1-6.7 1.6-10.2 1.6-3.9 0-7.6-.7-11.1-2s-6.6-3.2-9.3-5.6c-.4-.4-.6-.9-.6-1.4v-41.9c0-.5.2-.9.6-1.4 2.7-2.4 5.8-4.3 9.3-5.6s7.2-2 11.1-2c3.5 0 6.9.5 10.1 1.6s6.2 2.7 8.8 4.7l-3.5 3.5 2.2 2.2 5.9-5.8c-3.1-2.9-6.7-5.2-10.7-6.8-4.1-1.6-8.3-2.5-12.8-2.5-6.1 0-11.8 1.5-17 4.4s-9.3 6.9-12.3 12-4.6 10.6-4.6 16.5 1.5 11.4 4.6 16.5c3 5 7.1 9 12.3 12s10.8 4.5 17 4.5c4.5 0 8.8-.8 12.8-2.5 4.1-1.6 7.6-3.9 10.7-6.9l-5.9-5.8zm-116.3 2.4c-.4-.4-.6-.9-.6-1.4v-41.9c0-.5.2-.9.6-1.4 2.7-2.4 5.8-4.3 9.3-5.6s7.2-2 11.1-2 7.6.7 11.1 2 6.6 3.2 9.3 5.6c.4.4.6.9.6 1.4v41.9c0 .5-.2.9-.6 1.4-2.7 2.4-5.8 4.3-9.3 5.6s-7.2 2-11.1 2-7.6-.7-11.1-2c-3.4-1.3-6.5-3.2-9.3-5.6m54.3-22.3c0-6-1.5-11.5-4.6-16.6-3-5-7.1-9-12.3-12-5.2-2.9-10.8-4.4-17-4.4-6.1 0-11.8 1.5-17 4.4s-9.3 6.9-12.3 12c-3 5-4.5 10.5-4.5 16.5v.1.1c0 5.9 1.5 11.3 4.5 16.4 3 5 7.1 9 12.3 12s10.8 4.5 17 4.5c6.1 0 11.8-1.5 17-4.5s9.3-7 12.3-12c3.1-5.1 4.6-10.5 4.6-16.5zm-157.6 31.6h13.5v-3.1h-5.5v-56.4l24.7 59.8h2.1l23.9-56.4v53.1h-5.3v3.1h22.3v-3.1h-5.3v-57.5h5.3v-3.1h-17l-20.5 49-20.1-49h-19v3.1h5.8l.5 57.5h-5.5v3z"/></g><g clip-path="url(#b)"><path d="m24.3 89.5h422.4v3h-422.4z" fill="#cc1719"/></g><path d="m214 69.8h39.3v39.3h-39.3z" fill="#fff"/><path d="m229.9 91.7-2.3 6.9 5.9-4.3 6 4.3-2.3-6.9 5.9-4.3h-7.3l-2.3-7-2.2 7h-7.3z" fill="#cc1719"/></svg>