<?xml version="1.0" encoding="utf-8"?>
<!-- Generator: Adobe Illustrator 19.0.0, SVG Export Plug-In . SVG Version: 6.00 Build 0)  -->
<svg version="1.1" id="Layer_1" xmlns="http://www.w3.org/2000/svg" xmlns:xlink="http://www.w3.org/1999/xlink" x="0px" y="0px"
	 viewBox="0 0 468.2 560" enable-background="new 0 0 468.2 560" xml:space="preserve">
<g id="XMLID_4_">
	<defs>
		<rect id="XMLID_5_" x="25" y="14.9" width="421" height="521.1"/>
	</defs>
	<clipPath id="XMLID_272_">
		<use xlink:href="#XMLID_5_"  overflow="visible"/>
	</clipPath>
	<path id="XMLID_242_" clip-path="url(#XMLID_272_)" fill="#1D1D1B" d="M414.6,36.6h6.4c1.2,0,2.4,0.3,3.4,0.8
		c0.3,0.2,0.6,0.5,0.8,0.8s0.3,0.7,0.3,1.1v1.3v7.6c0,0.4-0.1,0.8-0.3,1.2s-0.5,0.6-0.9,0.9c-0.9,0.4-2,0.7-3.3,0.7h-6.4V36.6z
		 M431.9,52.5v-1.3h2.9V24.4h-2.9v-1.3h10.9v1.3h-2.9v26.9h2.9v1.3H431.9z M421,52.5c1.6,0,3-0.4,4.3-1.2s2.4-1.8,3.1-3.1
		c0.8-1.3,1.2-2.8,1.2-4.3c0-1.6-0.4-3-1.2-4.3c-0.8-1.3-1.8-2.4-3.1-3.1s-2.8-1.2-4.3-1.2h-6.4V24.5h2.9v-1.4h-10.9v1.4h2.9v26.5
		H407v1.4H421z M385.7,24.9l7.6,26.1h-14.4L385.7,24.9z M398.7,51.1L390.4,23h-8.4v1.4h2.5l-6.9,26.6h-4.2v4.2h1.4v-2.7h2.4h23.1
		v2.7h1.4v-4.2H398.7z M364.2,36.4c1.3-0.6,2.3-1.5,3-2.6c0.7-1.1,1.1-2.4,1.1-3.8c0-1.3-0.3-2.5-1-3.6c-0.7-1.1-1.6-2-2.8-2.6
		c-1.2-0.7-2.5-1-3.9-1c-0.9,0-1.7,0.1-2.6,0.4s-1.6,0.7-2.3,1.3l2.7,2.7l1-1l-1.5-1.5c0.8-0.3,1.7-0.5,2.6-0.5c1.4,0,2.5,0.3,3.5,1
		v9.8c-1,0.6-2.2,0.9-3.5,0.9h0v1.4h0c1.9,0,3.5,0.5,4.8,1.6v11.3c-1.4,1.1-3,1.6-4.8,1.6c-1.6,0-3.1-0.3-4.6-0.9
		c-1.5-0.6-2.8-1.5-4.1-2.5l1.7-1.4l-0.9-1.1l-2.9,2.4c1.3,1.5,2.9,2.8,4.8,3.7c1.9,0.9,3.9,1.3,6,1.3c1.7,0,3.3-0.4,4.6-1.2
		c1.4-0.8,2.4-1.8,3.2-3.2c0.8-1.3,1.2-2.8,1.2-4.5c0-1.8-0.5-3.4-1.5-4.9C367.2,38,365.9,37,364.2,36.4 M323.6,52.5h22.5v-6h-1.3
		v4.6h-13.6V38.4h8.5v-1.3h-8.5V24.5h13.6v4.6h1.3v-6h-22.4v1.4h2.5l0,26.5h-2.5V52.5z M339.1,20.2c0.7,0,1.4-0.3,1.9-0.8
		c0.5-0.5,0.8-1.1,0.8-1.9c0-0.7-0.3-1.4-0.8-1.9s-1.1-0.8-1.9-0.8s-1.4,0.3-1.9,0.8s-0.8,1.1-0.8,1.9c0,0.7,0.3,1.4,0.8,1.9
		C337.8,19.9,338.4,20.2,339.1,20.2 M330.5,20.2c0.7,0,1.4-0.3,1.9-0.8c0.5-0.5,0.8-1.1,0.8-1.8c0-0.7-0.3-1.4-0.8-1.9
		c-0.5-0.5-1.1-0.8-1.9-0.8s-1.4,0.3-1.9,0.8c-0.5,0.5-0.8,1.1-0.8,1.9c0,0.7,0.3,1.4,0.8,1.9C329.2,19.9,329.8,20.2,330.5,20.2
		 M310.1,51.1h-4.2V34.6h4.2c1.6,0,3,0.4,4.3,1.1c1.3,0.7,2.3,1.8,3,3c0.7,1.3,1.1,2.7,1.1,4.3c0,1.5-0.4,2.9-1.1,4.1
		c-0.7,1.2-1.8,2.2-3,2.9C313.1,50.7,311.7,51.1,310.1,51.1 M312.9,29.3c0,1.1-0.4,2.1-1.2,2.8c-0.8,0.7-1.8,1.1-3,1.1h-2.8v-8.7
		h2.8c0.8,0,1.5,0.2,2.1,0.7c0.7,0.4,1.2,1,1.6,1.8C312.7,27.7,312.9,28.5,312.9,29.3 M312,33.6c1.6-1.1,2.4-2.6,2.4-4.3
		c0-1.1-0.3-2.1-0.8-3.1c-0.5-1-1.2-1.7-2.1-2.3c-0.9-0.6-1.8-0.8-2.7-0.8h-10.5v1.4h2.5v26.5h-2.5v1.4h11.8c1.9,0,3.6-0.4,5.1-1.3
		c1.5-0.9,2.7-2,3.5-3.5c0.9-1.5,1.3-3,1.3-4.7c0-1.5-0.4-3-1.1-4.3c-0.7-1.3-1.7-2.4-2.9-3.4C314.8,34.5,313.4,33.9,312,33.6
		 M286.4,36.4c1.3-0.6,2.3-1.5,3-2.6c0.7-1.1,1.1-2.4,1.1-3.8c0-1.3-0.3-2.5-1-3.6c-0.7-1.1-1.6-2-2.8-2.6c-1.2-0.7-2.5-1-3.9-1
		c-0.9,0-1.7,0.1-2.6,0.4s-1.6,0.7-2.3,1.3l2.7,2.7l1-1l-1.5-1.5c0.8-0.3,1.7-0.5,2.6-0.5c1.4,0,2.5,0.3,3.5,1v9.8
		c-1,0.6-2.2,0.9-3.5,0.9h0v1.4h0c1.9,0,3.5,0.5,4.8,1.6v11.3c-1.4,1.1-3,1.6-4.8,1.6c-1.6,0-3.1-0.3-4.6-0.9
		c-1.5-0.6-2.8-1.5-4.1-2.5l1.7-1.4l-0.9-1.1l-2.9,2.4c1.3,1.5,2.9,2.8,4.8,3.7c1.9,0.9,3.9,1.3,6,1.3c1.7,0,3.3-0.4,4.6-1.2
		c1.4-0.8,2.4-1.8,3.2-3.2c0.8-1.3,1.2-2.8,1.2-4.5c0-1.8-0.5-3.4-1.5-4.9C289.3,38,288,37,286.4,36.4 M229,52.5h22.5v-6h-1.3v4.6
		h-13.6V38.4h8.5v-1.3h-8.5V24.5h13.6v4.6h1.3v-6H229v1.4h2.5l0,26.5H229V52.5z M193.2,36.6h6.4c1.2,0,2.4,0.3,3.4,0.8
		c0.3,0.2,0.6,0.5,0.8,0.8c0.2,0.3,0.3,0.7,0.3,1.1v1.3v7.6c0,0.4-0.1,0.8-0.3,1.2c-0.2,0.4-0.5,0.6-0.9,0.9c-0.9,0.4-2,0.7-3.3,0.7
		h-6.4V36.6z M210.5,52.5v-1.3h2.9V24.4h-2.9v-1.3h10.9v1.3h-2.9v26.9h2.9v1.3H210.5z M199.7,52.5c1.6,0,3-0.4,4.3-1.2
		c1.3-0.8,2.4-1.8,3.1-3.1c0.8-1.3,1.2-2.8,1.2-4.3c0-1.6-0.4-3-1.2-4.3c-0.8-1.3-1.8-2.4-3.1-3.1c-1.3-0.8-2.8-1.2-4.3-1.2h-6.4
		V24.5h2.9v-1.4h-10.9v1.4h2.9v26.5h-2.5v1.4H199.7z M147,52.5v-1.4h2.9V24.5H147v-1.4h11.1v1.4H155v12.6h14.7V24.5h-3.2v-1.4h11.1
		v1.4h-2.9v26.5h2.9v1.4h-11.1v-1.4h3.2V38.4H155v12.6h3.1v1.4H147z M138.8,47.1l1.6,1.6c-1.2,1-2.6,1.7-4.1,2.2
		c-1.5,0.5-3.1,0.8-4.7,0.8c-1.8,0-3.5-0.3-5.1-0.9c-1.6-0.6-3-1.5-4.3-2.6c-0.2-0.2-0.3-0.4-0.3-0.6V28.3c0-0.2,0.1-0.4,0.3-0.6
		c1.3-1.1,2.7-2,4.3-2.6c1.6-0.6,3.3-0.9,5.1-0.9c1.6,0,3.2,0.3,4.7,0.8s2.8,1.2,4.1,2.2l-1.6,1.6l1,1l2.7-2.7
		c-1.4-1.3-3.1-2.4-5-3.1c-1.9-0.8-3.8-1.1-5.9-1.1c-2.8,0-5.4,0.7-7.8,2s-4.3,3.2-5.7,5.5c-1.4,2.3-2.1,4.9-2.1,7.6
		c0,2.7,0.7,5.3,2.1,7.6s3.3,4.2,5.7,5.5c2.4,1.4,5,2.1,7.8,2.1c2.1,0,4-0.4,5.9-1.1c1.9-0.8,3.5-1.8,5-3.2l-2.7-2.7L138.8,47.1z
		 M91.6,41.1l4.5-16.1l5.6,16.1H91.6z M110.8,51.1L101,23h-8.6v1.4h2.6l-7.5,26.6h-2.7v1.4H87h3.8v-1.4h-2.1l2.4-8.7h11l3.1,8.7h-2
		v1.4h9.9v-1.4H110.8z M66.8,39V24.5h7.7c1.3,0,2.4,0.2,3.3,0.7c0.4,0.2,0.7,0.5,0.9,0.9s0.3,0.7,0.3,1.2v1.3v7.6
		c0,0.4-0.1,0.8-0.3,1.1c-0.2,0.3-0.4,0.6-0.8,0.8c-1,0.6-2.2,0.8-3.4,0.8H66.8z M74.5,23.1H59.2v1.4h2.5v26.5h-2.9v1.4h10.9v-1.4
		h-2.9V40.4h7.7c1.6,0,3-0.4,4.3-1.2c1.3-0.8,2.4-1.8,3.1-3.1c0.8-1.3,1.2-2.8,1.2-4.3c0-1.6-0.4-3-1.2-4.3
		c-0.8-1.3-1.8-2.4-3.1-3.1C77.5,23.5,76,23.1,74.5,23.1 M53.1,51.1l-9.3-15.7c1.7-1.3,3-2.9,4-4.8c1-1.9,1.6-3.9,1.7-6h3.1v-1.4
		h-6.3v1.4H48c-0.2,2.3-0.9,4.4-2.1,6.3c-1.2,1.9-2.8,3.5-4.8,4.6c-2,1.2-4.1,1.8-6.5,1.9V24.5h2.5v-1.4H27.1v1.4h2.5v26.5h-2.5v1.4
		h10.1v-1.4h-2.5V38.8c1.6-0.1,3.2-0.4,4.9-1l7.6,13.3h-1.5v1.4h10.3v-1.4H53.1z"/>
	<path id="XMLID_208_" clip-path="url(#XMLID_272_)" fill="#1D1D1B" d="M425.5,250.5c-0.1-0.1-0.2-0.2-0.2-0.3v-10.6
		c0-0.1,0.1-0.2,0.2-0.3c0.7-0.6,1.5-1.1,2.4-1.4c0.9-0.3,1.8-0.5,2.8-0.5c1,0,1.9,0.2,2.8,0.5c0.9,0.3,1.7,0.8,2.4,1.4
		c0.1,0.1,0.2,0.2,0.2,0.3v10.6c0,0.1-0.1,0.2-0.2,0.3c-0.7,0.6-1.5,1.1-2.4,1.4c-0.9,0.3-1.8,0.5-2.8,0.5c-1,0-1.9-0.2-2.8-0.5
		C426.9,251.6,426.1,251.1,425.5,250.5 M439.2,244.9L439.2,244.9c0-1.5-0.4-2.9-1.1-4.2c-0.8-1.3-1.8-2.3-3.1-3
		c-1.3-0.7-2.7-1.1-4.3-1.1c-1.5,0-3,0.4-4.3,1.1c-1.3,0.7-2.3,1.8-3.1,3c-0.8,1.3-1.2,2.7-1.2,4.2v0v0c0,1.5,0.4,2.9,1.2,4.1
		s1.8,2.3,3.1,3c1.3,0.8,2.7,1.1,4.3,1.1c1.5,0,3-0.4,4.3-1.1c1.3-0.8,2.3-1.8,3.1-3S439.2,246.4,439.2,244.9L439.2,244.9z
		 M414.3,252.1H412v-9h2.3c0.9,0,1.6,0.2,2.3,0.6c0.7,0.4,1.3,1,1.7,1.7c0.4,0.7,0.6,1.5,0.6,2.3c0,0.8-0.2,1.6-0.6,2.2
		c-0.4,0.7-1,1.2-1.7,1.6S415.2,252.1,414.3,252.1 M415.9,240.2c0,0.6-0.2,1.1-0.7,1.6c-0.5,0.4-1,0.6-1.7,0.6H412v-4.8h1.5
		c0.4,0,0.8,0.1,1.2,0.4c0.4,0.2,0.6,0.6,0.9,1C415.8,239.3,415.9,239.7,415.9,240.2 M415.3,242.5c0.9-0.6,1.3-1.4,1.3-2.3
		c0-0.6-0.1-1.2-0.4-1.7c-0.3-0.5-0.7-0.9-1.1-1.2c-0.5-0.3-1-0.5-1.5-0.5h-5.7v0.8h1.4v14.5h-1.4v0.8h6.5c1,0,2-0.2,2.8-0.7
		c0.8-0.5,1.5-1.1,1.9-1.9c0.5-0.8,0.7-1.6,0.7-2.6c0-0.8-0.2-1.6-0.6-2.4c-0.4-0.7-0.9-1.3-1.6-1.8
		C416.9,243,416.1,242.7,415.3,242.5 M404.8,240.3v-3.5h-15.6v3.5h0.8v-2.8l5.7,0v14.5h-1.4v0.8h5.5v-0.8h-1.4v-14.5l5.7,0v2.8
		H404.8z M385,249.9l0.9,0.9c-0.7,0.5-1.4,0.9-2.2,1.2c-0.8,0.3-1.7,0.4-2.6,0.4c-1,0-1.9-0.2-2.8-0.5c-0.9-0.3-1.7-0.8-2.4-1.4
		c-0.1-0.1-0.2-0.2-0.2-0.3v-10.6c0-0.1,0.1-0.2,0.2-0.3c0.7-0.6,1.5-1.1,2.4-1.4c0.9-0.3,1.8-0.5,2.8-0.5c0.9,0,1.7,0.1,2.6,0.4
		c0.8,0.3,1.6,0.7,2.2,1.2l-0.9,0.9l0.6,0.6l1.5-1.5c-0.8-0.7-1.7-1.3-2.7-1.7s-2.1-0.6-3.2-0.6c-1.5,0-3,0.4-4.3,1.1
		c-1.3,0.7-2.4,1.8-3.1,3c-0.8,1.3-1.1,2.7-1.1,4.2c0,1.5,0.4,2.9,1.1,4.2s1.8,2.3,3.1,3c1.3,0.8,2.7,1.1,4.3,1.1
		c1.1,0,2.2-0.2,3.2-0.6s1.9-1,2.7-1.7l-1.5-1.5L385,249.9z M367.5,249.9l0.9,0.9c-0.7,0.5-1.4,0.9-2.2,1.2
		c-0.8,0.3-1.7,0.4-2.6,0.4c-1,0-1.9-0.2-2.8-0.5c-0.9-0.3-1.7-0.8-2.4-1.4c-0.1-0.1-0.2-0.2-0.2-0.3v-10.6c0-0.1,0.1-0.2,0.2-0.3
		c0.7-0.6,1.5-1.1,2.4-1.4c0.9-0.3,1.8-0.5,2.8-0.5c0.9,0,1.7,0.1,2.6,0.4s1.6,0.7,2.2,1.2l-0.9,0.9l0.6,0.6l1.5-1.5
		c-0.8-0.7-1.7-1.3-2.7-1.7s-2.1-0.6-3.2-0.6c-1.5,0-3,0.4-4.3,1.1c-1.3,0.7-2.3,1.8-3.1,3c-0.8,1.3-1.1,2.7-1.1,4.2
		c0,1.5,0.4,2.9,1.1,4.2c0.8,1.3,1.8,2.3,3.1,3c1.3,0.8,2.7,1.1,4.3,1.1c1.1,0,2.2-0.2,3.2-0.6s1.9-1,2.7-1.7l-1.5-1.5L367.5,249.9z
		 M354.3,237.6v-0.8h-1.2h-2.5v0.8h1.5l-3.2,6.7l-4.5-6.7h1.3v-0.8h-6v0.8h1.4l6.3,9.6l-2.4,5h-1.6v0.8h1.2h2.5v-0.8h-1.4l6.9-14.5
		H354.3z M338.2,252.1l-5.1-8.6c0.9-0.7,1.7-1.6,2.2-2.6c0.6-1,0.9-2.1,0.9-3.3h1.7v-0.8h-3.5v0.8h1c-0.1,1.2-0.5,2.4-1.1,3.4
		c-0.7,1-1.5,1.9-2.6,2.5c-1.1,0.6-2.3,1-3.6,1v-7h1.4v-0.8H324v0.8h1.4v14.5H324v0.8h5.5v-0.8h-1.4v-6.7c0.9,0,1.8-0.2,2.7-0.6
		l4.2,7.3h-0.8v0.8h5.7v-0.8H338.2z M319.5,249.9l0.9,0.9c-0.7,0.5-1.4,0.9-2.2,1.2c-0.8,0.3-1.7,0.4-2.6,0.4c-1,0-1.9-0.2-2.8-0.5
		c-0.9-0.3-1.7-0.8-2.4-1.4c-0.1-0.1-0.2-0.2-0.2-0.3v-10.6c0-0.1,0.1-0.2,0.2-0.3c0.7-0.6,1.5-1.1,2.4-1.4c0.9-0.3,1.8-0.5,2.8-0.5
		c0.9,0,1.7,0.1,2.6,0.4c0.8,0.3,1.6,0.7,2.2,1.2l-0.9,0.9l0.6,0.6l1.5-1.5c-0.8-0.7-1.7-1.3-2.7-1.7c-1-0.4-2.1-0.6-3.2-0.6
		c-1.5,0-3,0.4-4.3,1.1c-1.3,0.7-2.4,1.8-3.1,3c-0.8,1.3-1.1,2.7-1.1,4.2c0,1.5,0.4,2.9,1.1,4.2c0.8,1.3,1.8,2.3,3.1,3
		c1.3,0.8,2.7,1.1,4.3,1.1c1.1,0,2.2-0.2,3.2-0.6c1-0.4,1.9-1,2.7-1.7l-1.5-1.5L319.5,249.9z M302.8,252.1v-15.3h-0.1l-11.4,11.1h0
		v-10.4h1.4v-0.8h-3.5v0.8h1.4v15.3h0l11.5-11.6v10.8h-1.4v0.8h3.5v-0.8H302.8z M265,252.9h12.3v-3.3h-0.7v2.5h-7.5v-6.9h4.7v-0.7
		h-4.7v-6.9h7.5v2.5h0.7v-3.3H265v0.8h1.4l0,14.5H265V252.9z M247.9,250.5c-0.1-0.1-0.2-0.2-0.2-0.3v-10.6c0-0.1,0.1-0.2,0.2-0.3
		c0.7-0.6,1.5-1.1,2.4-1.4c0.9-0.3,1.8-0.5,2.8-0.5s1.9,0.2,2.8,0.5c0.9,0.3,1.7,0.8,2.4,1.4c0.1,0.1,0.2,0.2,0.2,0.3v10.6
		c0,0.1-0.1,0.2-0.2,0.3c-0.7,0.6-1.5,1.1-2.4,1.4c-0.9,0.3-1.8,0.5-2.8,0.5s-1.9-0.2-2.8-0.5C249.4,251.6,248.6,251.1,247.9,250.5
		 M261.6,244.9L261.6,244.9c0-1.5-0.4-2.9-1.1-4.2c-0.8-1.3-1.8-2.3-3.1-3c-1.3-0.7-2.7-1.1-4.3-1.1s-3,0.4-4.3,1.1
		c-1.3,0.7-2.3,1.8-3.1,3c-0.8,1.3-1.1,2.7-1.1,4.2v0v0c0,1.5,0.4,2.9,1.1,4.1c0.8,1.3,1.8,2.3,3.1,3c1.3,0.8,2.7,1.1,4.3,1.1
		s3-0.4,4.3-1.1c1.3-0.8,2.3-1.8,3.1-3S261.6,246.4,261.6,244.9L261.6,244.9z M224.1,252.9v-0.8h1.6v-14.5h-1.6v-0.8h6.1v0.8h-1.7
		v6.9h8.1v-6.9h-1.7v-0.8h6.1v0.8h-1.6v14.5h1.6v0.8h-6.1v-0.8h1.7v-6.9h-8.1v6.9h1.7v0.8H224.1z M212.8,244.2h4.2
		c0.7,0,1.3,0.2,1.9,0.5c0.2,0.1,0.3,0.3,0.4,0.5c0.1,0.2,0.1,0.4,0.1,0.6v0.7v4.2c0,0.2-0.1,0.5-0.2,0.7c-0.1,0.2-0.3,0.3-0.5,0.5
		c-0.5,0.2-1.1,0.4-1.8,0.4h-4.2V244.2z M217,252.9c0.9,0,1.6-0.2,2.4-0.6c0.7-0.4,1.3-1,1.7-1.7c0.4-0.7,0.6-1.5,0.6-2.4
		c0-0.9-0.2-1.6-0.6-2.4c-0.4-0.7-1-1.3-1.7-1.7c-0.7-0.4-1.5-0.6-2.4-0.6h-4.2v-5.8h1.6v-0.8h-6v0.8h1.6v14.5h-1.4v0.8H217z
		 M204.8,252.1l-5.2-15.4H195v0.8h1.4l-4,14.6h-1.4v0.8h1.2h2v-0.8H193l3.9-14.3l4.9,14.3h-1.1v0.8h5.3v-0.8H204.8z M176.6,252.9
		h12.3v-3.3h-0.7v2.5h-7.5v-6.9h4.7v-0.7h-4.7v-6.9h7.5v2.5h0.7v-3.3h-12.3v0.8h1.4l0,14.5h-1.4V252.9z M173.5,240.3v-3.5h-15.6v3.5
		h0.8v-2.8l5.7,0v14.5h-1.4v0.8h5.5v-0.8H167v-14.5l5.7,0v2.8H173.5z M154.2,252.1v-15.3h-0.1l-11.4,11.1h0v-10.4h1.4v-0.8h-3.5v0.8
		h1.4v15.3h0l11.5-11.6v10.8h-1.4v0.8h3.5v-0.8H154.2z M135,244c0.7-0.3,1.2-0.8,1.6-1.4c0.4-0.6,0.6-1.3,0.6-2.1
		c0-0.7-0.2-1.4-0.6-2c-0.4-0.6-0.9-1.1-1.5-1.4c-0.6-0.4-1.4-0.5-2.1-0.5c-0.5,0-0.9,0.1-1.4,0.2c-0.5,0.2-0.9,0.4-1.2,0.7l1.5,1.5
		l0.6-0.6l-0.8-0.8c0.4-0.2,0.9-0.3,1.4-0.3c0.8,0,1.4,0.2,1.9,0.5v5.4c-0.6,0.3-1.2,0.5-1.9,0.5h0v0.8h0c1,0,1.9,0.3,2.6,0.9v6.2
		c-0.8,0.6-1.6,0.9-2.6,0.9c-0.9,0-1.7-0.2-2.5-0.5c-0.8-0.3-1.6-0.8-2.2-1.4l0.9-0.8l-0.5-0.6l-1.6,1.3c0.7,0.8,1.6,1.5,2.6,2
		c1,0.5,2.1,0.7,3.3,0.7c1,0,1.8-0.2,2.5-0.6c0.7-0.4,1.3-1,1.7-1.7c0.4-0.7,0.6-1.5,0.6-2.4c0-1-0.3-1.9-0.8-2.7
		C136.6,245,135.9,244.4,135,244 M114.4,246.6l2.5-8.8l3.1,8.8H114.4z M124.9,252.1l-5.4-15.4h-4.7v0.8h1.4l-4.1,14.6h-1.5v0.8h1.2
		h2.1v-0.8h-1.1l1.3-4.8h6l1.7,4.8h-1.1v0.8h5.4v-0.8H124.9z M100.8,245.5v-7.9h4.2c0.7,0,1.3,0.1,1.8,0.4c0.2,0.1,0.4,0.3,0.5,0.5
		c0.1,0.2,0.2,0.4,0.2,0.7v0.7v4.2c0,0.2,0,0.4-0.2,0.6c-0.1,0.2-0.2,0.3-0.4,0.5c-0.6,0.3-1.2,0.5-1.9,0.5H100.8z M105,236.8h-8.3
		v0.8H98v14.5h-1.6v0.8h6v-0.8h-1.6v-5.8h4.2c0.9,0,1.6-0.2,2.4-0.6c0.7-0.4,1.3-1,1.7-1.7c0.4-0.7,0.6-1.5,0.6-2.4
		s-0.2-1.6-0.6-2.4c-0.4-0.7-1-1.3-1.7-1.7C106.7,237,105.9,236.8,105,236.8 M88.8,252.1h-2.3v-9h2.3c0.9,0,1.6,0.2,2.3,0.6
		c0.7,0.4,1.3,1,1.7,1.7c0.4,0.7,0.6,1.5,0.6,2.3c0,0.8-0.2,1.6-0.6,2.2c-0.4,0.7-1,1.2-1.7,1.6C90.5,251.9,89.7,252.1,88.8,252.1
		 M88,242.3h-1.5v-4.8h5.7v2.5h0.7v-3.3h-0.7h-9.9v0.8h1.4v14.5h-1.4v0.8h6.5c1,0,2-0.2,2.8-0.7c0.8-0.5,1.5-1.1,1.9-1.9
		c0.5-0.8,0.7-1.6,0.7-2.6c0-1.1-0.3-2-0.8-2.8c-0.5-0.8-1.2-1.4-2.2-1.9C90.4,242.5,89.3,242.3,88,242.3 M65.3,250.5
		c-0.1-0.1-0.2-0.2-0.2-0.3v-10.6c0-0.1,0.1-0.2,0.2-0.3c0.7-0.6,1.5-1.1,2.4-1.4c0.9-0.3,1.8-0.5,2.8-0.5c1,0,1.9,0.2,2.8,0.5
		c0.9,0.3,1.7,0.8,2.4,1.4c0.1,0.1,0.2,0.2,0.2,0.3v10.6c0,0.1-0.1,0.2-0.2,0.3c-0.7,0.6-1.5,1.1-2.4,1.4c-0.9,0.3-1.8,0.5-2.8,0.5
		c-1,0-1.9-0.2-2.8-0.5C66.8,251.6,66,251.1,65.3,250.5 M79,244.9L79,244.9c0-1.5-0.4-2.9-1.1-4.2c-0.8-1.3-1.8-2.3-3.1-3
		c-1.3-0.7-2.7-1.1-4.3-1.1c-1.5,0-3,0.4-4.3,1.1c-1.3,0.7-2.3,1.8-3.1,3c-0.8,1.3-1.2,2.7-1.2,4.2v0v0c0,1.5,0.4,2.9,1.2,4.1
		c0.8,1.3,1.8,2.3,3.1,3c1.3,0.8,2.7,1.1,4.3,1.1c1.5,0,3-0.4,4.3-1.1c1.3-0.8,2.3-1.8,3.1-3C78.6,247.8,79,246.4,79,244.9L79,244.9
		z M54.8,244c0.7-0.3,1.2-0.8,1.6-1.4c0.4-0.6,0.6-1.3,0.6-2.1c0-0.7-0.2-1.4-0.6-2c-0.4-0.6-0.9-1.1-1.5-1.4
		c-0.6-0.4-1.4-0.5-2.1-0.5c-0.5,0-0.9,0.1-1.4,0.2c-0.5,0.2-0.9,0.4-1.2,0.7l1.5,1.5l0.6-0.6l-0.8-0.8c0.4-0.2,0.9-0.3,1.4-0.3
		c0.8,0,1.4,0.2,1.9,0.5v5.4c-0.6,0.3-1.2,0.5-1.9,0.5h0v0.8h0c1,0,1.9,0.3,2.6,0.9v6.2c-0.8,0.6-1.6,0.9-2.6,0.9
		c-0.9,0-1.7-0.2-2.5-0.5c-0.8-0.3-1.6-0.8-2.2-1.4l0.9-0.8l-0.5-0.6l-1.6,1.3c0.7,0.8,1.6,1.5,2.6,2s2.1,0.7,3.3,0.7
		c1,0,1.8-0.2,2.5-0.6c0.7-0.4,1.3-1,1.7-1.7c0.4-0.7,0.6-1.5,0.6-2.4c0-1-0.3-1.9-0.8-2.7C56.4,245,55.7,244.4,54.8,244
		 M43.8,252.1v-15.3h-0.1l-11.4,11.1h0v-10.4h1.4v-0.8h-3.5v0.8h1.4v15.3h0L43,241.3v10.8h-1.4v0.8h3.5v-0.8H43.8z"/>
	<path id="XMLID_169_" clip-path="url(#XMLID_272_)" fill="#1D1D1B" d="M442.7,341.2v-0.8h-1.2H439v0.8h1.5l-3.2,6.7l-4.5-6.7h1.3
		v-0.8h-6v0.8h1.4l6.3,9.6l-2.4,5H432v0.8h1.2h2.5v-0.8h-1.4l6.9-14.5H442.7z M419.1,341.4l4.2,14.3h-7.9L419.1,341.4z M426.2,355.7
		l-4.6-15.4h-4.6v0.8h1.4l-3.8,14.6h-2.3v2.3h0.8v-1.5h1.3h12.7v1.5h0.8v-2.3H426.2z M397.1,354.1c-0.1-0.1-0.2-0.2-0.2-0.3v-10.6
		c0-0.1,0.1-0.2,0.2-0.3c0.7-0.6,1.5-1.1,2.4-1.4c0.9-0.3,1.8-0.5,2.8-0.5c1,0,1.9,0.2,2.8,0.5c0.9,0.3,1.7,0.8,2.4,1.4
		c0.1,0.1,0.2,0.2,0.2,0.3v10.6c0,0.1-0.1,0.2-0.2,0.3c-0.7,0.6-1.5,1.1-2.4,1.4c-0.9,0.3-1.8,0.5-2.8,0.5c-1,0-1.9-0.2-2.8-0.5
		C398.5,355.2,397.7,354.7,397.1,354.1 M410.8,348.5L410.8,348.5c0-1.5-0.4-2.9-1.1-4.2c-0.8-1.3-1.8-2.3-3.1-3
		c-1.3-0.7-2.7-1.1-4.3-1.1c-1.5,0-3,0.4-4.3,1.1c-1.3,0.7-2.4,1.8-3.1,3c-0.8,1.3-1.1,2.7-1.1,4.2v0v0c0,1.5,0.4,2.9,1.1,4.1
		c0.8,1.3,1.8,2.3,3.1,3c1.3,0.8,2.7,1.1,4.3,1.1c1.5,0,3-0.4,4.3-1.1c1.3-0.8,2.4-1.8,3.1-3C410.4,351.4,410.8,350,410.8,348.5
		L410.8,348.5z M380.4,356.5h6v-0.8h-1.9l0-14.5h6.6v2.5h0.7v-3.3h-11.5v0.8h1.4l0,14.5h-1.4V356.5z M368.6,340.4h-11.7v0.7h8.5
		l-5.2,15.4h3L368.6,340.4z M343.7,350.7l6.3-9.2v9.2H343.7z M355.4,351.4v-0.8h-2.7v-10.3H350l-7.1,10.3v0.8h7.1v4.3h-1.4v0.8h5.5
		v-0.8h-1.4v-4.3H355.4z M339.6,355.7v-15.3h-2.8l-2.7,2.2l0.8,0.5l1.9-1.4v14h-1.4v0.8h5.5v-0.8H339.6z M328.9,355.7v-15.3h-2.8
		l-2.7,2.2l0.8,0.5l1.9-1.4v14h-1.4v0.8h5.5v-0.8H328.9z M307,355.7h-2.3v-9h2.3c0.9,0,1.6,0.2,2.3,0.6c0.7,0.4,1.3,1,1.7,1.7
		c0.4,0.7,0.6,1.5,0.6,2.3c0,0.8-0.2,1.6-0.6,2.2c-0.4,0.7-1,1.2-1.7,1.6S307.9,355.7,307,355.7 M308.6,343.8c0,0.6-0.2,1.1-0.7,1.6
		c-0.5,0.4-1,0.6-1.7,0.6h-1.5v-4.8h1.5c0.4,0,0.8,0.1,1.2,0.4c0.4,0.2,0.6,0.6,0.9,1C308.4,342.9,308.6,343.3,308.6,343.8
		 M308,346.1c0.9-0.6,1.3-1.4,1.3-2.3c0-0.6-0.1-1.2-0.4-1.7c-0.3-0.5-0.7-0.9-1.1-1.2c-0.5-0.3-1-0.5-1.5-0.5h-5.7v0.8h1.4v14.5
		h-1.4v0.8h6.5c1,0,2-0.2,2.8-0.7c0.8-0.5,1.5-1.1,1.9-1.9c0.5-0.8,0.7-1.6,0.7-2.6c0-0.8-0.2-1.6-0.6-2.4c-0.4-0.7-0.9-1.3-1.6-1.8
		C309.6,346.6,308.8,346.3,308,346.1 M278.1,350.2l2.5-8.8l3.1,8.8H278.1z M288.6,355.7l-5.4-15.4h-4.7v0.8h1.4l-4.1,14.6h-1.5v0.8
		h1.2h2.1v-0.8h-1.1l1.3-4.8h6l1.7,4.8h-1.1v0.8h5.4v-0.8H288.6z M255.1,356.5v-0.8h1.6v-14.5h-1.6v-0.8h6.1v0.8h-1.7v6.9h8.1v-6.9
		h-1.7v-0.8h6.1v0.8h-1.6v14.5h1.6v0.8h-6.1v-0.8h1.7v-6.9h-8.1v6.9h1.7v0.8H255.1z M240.9,350.2l2.5-8.8l3.1,8.8H240.9z
		 M251.4,355.7l-5.4-15.4h-4.7v0.8h1.4l-4.1,14.6h-1.5v0.8h1.2h2.1v-0.8h-1.1l1.3-4.8h6l1.7,4.8h-1.1v0.8h5.4v-0.8H251.4z
		 M231.2,355.7h-2.3v-9h2.3c0.9,0,1.6,0.2,2.3,0.6c0.7,0.4,1.3,1,1.7,1.7c0.4,0.7,0.6,1.5,0.6,2.3c0,0.8-0.2,1.6-0.6,2.2
		c-0.4,0.7-1,1.2-1.7,1.6S232.1,355.7,231.2,355.7 M232.8,343.8c0,0.6-0.2,1.1-0.7,1.6c-0.5,0.4-1,0.6-1.7,0.6h-1.5v-4.8h1.5
		c0.4,0,0.8,0.1,1.2,0.4c0.4,0.2,0.6,0.6,0.9,1C232.7,342.9,232.8,343.3,232.8,343.8 M232.2,346.1c0.9-0.6,1.3-1.4,1.3-2.3
		c0-0.6-0.1-1.2-0.4-1.7s-0.7-0.9-1.2-1.2c-0.5-0.3-1-0.5-1.5-0.5h-5.7v0.8h1.4v14.5h-1.4v0.8h6.5c1,0,2-0.2,2.8-0.7
		c0.8-0.5,1.5-1.1,1.9-1.9c0.5-0.8,0.7-1.6,0.7-2.6c0-0.8-0.2-1.6-0.6-2.4c-0.4-0.7-0.9-1.3-1.6-1.8
		C233.8,346.6,233,346.3,232.2,346.1 M207.7,354.1c-0.1-0.1-0.2-0.2-0.2-0.3v-10.6c0-0.1,0.1-0.2,0.2-0.3c0.7-0.6,1.5-1.1,2.4-1.4
		c0.9-0.3,1.8-0.5,2.8-0.5c1,0,1.9,0.2,2.8,0.5c0.9,0.3,1.7,0.8,2.4,1.4c0.1,0.1,0.2,0.2,0.2,0.3v10.6c0,0.1-0.1,0.2-0.2,0.3
		c-0.7,0.6-1.5,1.1-2.4,1.4c-0.9,0.3-1.8,0.5-2.8,0.5c-1,0-1.9-0.2-2.8-0.5C209.2,355.2,208.4,354.7,207.7,354.1 M221.4,348.5
		L221.4,348.5c0-1.5-0.4-2.9-1.2-4.2c-0.8-1.3-1.8-2.3-3.1-3c-1.3-0.7-2.7-1.1-4.3-1.1c-1.5,0-3,0.4-4.3,1.1c-1.3,0.7-2.3,1.8-3.1,3
		c-0.8,1.3-1.1,2.7-1.1,4.2v0v0c0,1.5,0.4,2.9,1.1,4.1c0.8,1.3,1.8,2.3,3.1,3c1.3,0.8,2.7,1.1,4.3,1.1c1.5,0,3-0.4,4.3-1.1
		c1.3-0.8,2.4-1.8,3.1-3C221,351.4,221.4,350,221.4,348.5L221.4,348.5z M183.9,356.5v-0.8h1.6v-14.5h-1.6v-0.8h6.1v0.8h-1.7v6.9h8.1
		v-6.9h-1.7v-0.8h6.1v0.8h-1.6v14.5h1.6v0.8h-6.1v-0.8h1.7v-6.9h-8.1v6.9h1.7v0.8H183.9z M179.5,353.5l0.9,0.9
		c-0.7,0.5-1.4,0.9-2.2,1.2s-1.7,0.4-2.6,0.4c-1,0-1.9-0.2-2.8-0.5c-0.9-0.3-1.7-0.8-2.4-1.4c-0.1-0.1-0.2-0.2-0.2-0.3v-10.6
		c0-0.1,0.1-0.2,0.2-0.3c0.7-0.6,1.5-1.1,2.4-1.4c0.9-0.3,1.8-0.5,2.8-0.5c0.9,0,1.7,0.1,2.6,0.4c0.8,0.3,1.6,0.7,2.2,1.2l-0.9,0.9
		l0.6,0.6l1.5-1.5c-0.8-0.7-1.7-1.3-2.7-1.7c-1-0.4-2.1-0.6-3.2-0.6c-1.5,0-3,0.4-4.3,1.1c-1.3,0.7-2.4,1.8-3.1,3
		c-0.8,1.3-1.1,2.7-1.1,4.2c0,1.5,0.4,2.9,1.1,4.2c0.8,1.3,1.8,2.3,3.1,3c1.3,0.8,2.7,1.1,4.3,1.1c1.1,0,2.2-0.2,3.2-0.6
		c1-0.4,1.9-1,2.7-1.7L180,353L179.5,353.5z M149.6,354.1c-0.1-0.1-0.2-0.2-0.2-0.3v-10.6c0-0.1,0.1-0.2,0.2-0.3
		c0.7-0.6,1.5-1.1,2.4-1.4c0.9-0.3,1.8-0.5,2.8-0.5s1.9,0.2,2.8,0.5c0.9,0.3,1.7,0.8,2.4,1.4c0.1,0.1,0.2,0.2,0.2,0.3v10.6
		c0,0.1-0.1,0.2-0.2,0.3c-0.7,0.6-1.5,1.1-2.4,1.4c-0.9,0.3-1.8,0.5-2.8,0.5s-1.9-0.2-2.8-0.5C151.1,355.2,150.3,354.7,149.6,354.1
		 M163.3,348.5L163.3,348.5c0-1.5-0.4-2.9-1.1-4.2c-0.8-1.3-1.8-2.3-3.1-3c-1.3-0.7-2.7-1.1-4.3-1.1s-3,0.4-4.3,1.1
		c-1.3,0.7-2.4,1.8-3.1,3c-0.8,1.3-1.1,2.7-1.1,4.2v0v0c0,1.5,0.4,2.9,1.1,4.1c0.8,1.3,1.8,2.3,3.1,3c1.3,0.8,2.7,1.1,4.3,1.1
		s3-0.4,4.3-1.1c1.3-0.8,2.3-1.8,3.1-3C162.9,351.4,163.3,350,163.3,348.5L163.3,348.5z M123.2,350.2l2.5-8.8l3.1,8.8H123.2z
		 M133.7,355.7l-5.4-15.4h-4.7v0.8h1.4l-4.1,14.6h-1.5v0.8h1.2h2.1v-0.8h-1.1l1.3-4.8h6l1.7,4.8h-1.1v0.8h5.4v-0.8H133.7z
		 M113.5,355.7h-2.3v-9h2.3c0.9,0,1.6,0.2,2.3,0.6c0.7,0.4,1.3,1,1.7,1.7c0.4,0.7,0.6,1.5,0.6,2.3c0,0.8-0.2,1.6-0.6,2.2
		c-0.4,0.7-1,1.2-1.7,1.6C115.2,355.5,114.4,355.7,113.5,355.7 M115.1,343.8c0,0.6-0.2,1.1-0.7,1.6c-0.5,0.4-1,0.6-1.7,0.6h-1.5
		v-4.8h1.5c0.4,0,0.8,0.1,1.2,0.4c0.4,0.2,0.6,0.6,0.9,1C114.9,342.9,115.1,343.3,115.1,343.8 M114.5,346.1c0.9-0.6,1.3-1.4,1.3-2.3
		c0-0.6-0.1-1.2-0.4-1.7c-0.3-0.5-0.7-0.9-1.2-1.2c-0.5-0.3-1-0.5-1.5-0.5H107v0.8h1.4v14.5H107v0.8h6.5c1,0,2-0.2,2.8-0.7
		c0.8-0.5,1.5-1.1,1.9-1.9c0.5-0.8,0.7-1.6,0.7-2.6c0-0.8-0.2-1.6-0.6-2.4c-0.4-0.7-0.9-1.3-1.6-1.8
		C116.1,346.6,115.3,346.3,114.5,346.1 M103.9,355.7l-5.1-8.6c0.9-0.7,1.7-1.6,2.2-2.6c0.6-1,0.9-2.1,0.9-3.3h1.7v-0.8h-3.5v0.8h1
		c-0.1,1.2-0.5,2.4-1.1,3.4c-0.7,1.1-1.5,1.9-2.6,2.5c-1.1,0.6-2.3,1-3.6,1v-7h1.4v-0.8h-5.5v0.8h1.4v14.5h-1.4v0.8h5.5v-0.8h-1.4
		V349c0.9,0,1.8-0.2,2.7-0.6l4.2,7.3h-0.8v0.8h5.7v-0.8H103.9z M85.2,353.5l0.9,0.9c-0.7,0.5-1.4,0.9-2.2,1.2
		c-0.8,0.3-1.7,0.4-2.6,0.4c-1,0-1.9-0.2-2.8-0.5c-0.9-0.3-1.7-0.8-2.4-1.4c-0.1-0.1-0.2-0.2-0.2-0.3v-10.6c0-0.1,0.1-0.2,0.2-0.3
		c0.7-0.6,1.5-1.1,2.4-1.4c0.9-0.3,1.8-0.5,2.8-0.5c0.9,0,1.7,0.1,2.6,0.4c0.8,0.3,1.6,0.7,2.2,1.2l-0.9,0.9l0.6,0.6l1.5-1.5
		c-0.8-0.7-1.7-1.3-2.7-1.7c-1-0.4-2.1-0.6-3.2-0.6c-1.5,0-3,0.4-4.3,1.1c-1.3,0.7-2.3,1.8-3.1,3c-0.8,1.3-1.2,2.7-1.2,4.2
		c0,1.5,0.4,2.9,1.2,4.2c0.8,1.3,1.8,2.3,3.1,3c1.3,0.8,2.7,1.1,4.3,1.1c1.1,0,2.2-0.2,3.2-0.6c1-0.4,1.9-1,2.7-1.7l-1.5-1.5
		L85.2,353.5z M55.4,354.1c-0.1-0.1-0.2-0.2-0.2-0.3v-10.6c0-0.1,0.1-0.2,0.2-0.3c0.7-0.6,1.5-1.1,2.4-1.4c0.9-0.3,1.8-0.5,2.8-0.5
		c1,0,1.9,0.2,2.8,0.5c0.9,0.3,1.7,0.8,2.4,1.4c0.1,0.1,0.2,0.2,0.2,0.3v10.6c0,0.1-0.1,0.2-0.2,0.3c-0.7,0.6-1.5,1.1-2.4,1.4
		c-0.9,0.3-1.8,0.5-2.8,0.5c-1,0-1.9-0.2-2.8-0.5C56.9,355.2,56.1,354.7,55.4,354.1 M69.1,348.5L69.1,348.5c0-1.5-0.4-2.9-1.2-4.2
		c-0.8-1.3-1.8-2.3-3.1-3c-1.3-0.7-2.7-1.1-4.3-1.1c-1.5,0-3,0.4-4.3,1.1c-1.3,0.7-2.3,1.8-3.1,3c-0.8,1.3-1.1,2.7-1.1,4.2v0v0
		c0,1.5,0.4,2.9,1.1,4.1c0.8,1.3,1.8,2.3,3.1,3c1.3,0.8,2.7,1.1,4.3,1.1c1.5,0,3-0.4,4.3-1.1c1.3-0.8,2.3-1.8,3.1-3
		C68.7,351.4,69.1,350,69.1,348.5L69.1,348.5z M29.3,356.5h3.4v-0.8h-1.4v-14.3l6.2,15.1h0.5l6-14.3v13.4h-1.3v0.8h5.6v-0.8h-1.3
		v-14.5h1.3v-0.8h-4.3l-5.2,12.4l-5.1-12.4h-4.8v0.8h1.5l0.1,14.5h-1.4V356.5z"/>
	<path id="XMLID_134_" clip-path="url(#XMLID_272_)" fill="#1D1D1B" d="M388,475.9l2.1-7.3l2.5,7.3H388z M396.7,480.4l-4.5-12.7
		h-3.9v0.6h1.2l-3.4,12h-1.2v0.6h1h1.7v-0.6h-0.9l1.1-4h5l1.4,4h-0.9v0.6h4.5v-0.6H396.7z M376.3,468.6l3.4,11.8h-6.5L376.3,468.6z
		 M382.2,480.4l-3.8-12.7h-3.8v0.6h1.1l-3.1,12h-1.9v1.9h0.6V481h1.1h10.4v1.2h0.6v-1.9H382.2z M358,479.1c-0.1-0.1-0.1-0.2-0.1-0.3
		v-8.7c0-0.1,0-0.2,0.1-0.3c0.6-0.5,1.2-0.9,1.9-1.2c0.7-0.3,1.5-0.4,2.3-0.4c0.8,0,1.6,0.1,2.3,0.4c0.7,0.3,1.4,0.7,1.9,1.2
		c0.1,0.1,0.1,0.2,0.1,0.3v8.7c0,0.1,0,0.2-0.1,0.3c-0.6,0.5-1.2,0.9-1.9,1.2c-0.7,0.3-1.5,0.4-2.3,0.4c-0.8,0-1.6-0.1-2.3-0.4
		C359.3,480,358.6,479.6,358,479.1 M369.4,474.4L369.4,474.4c0-1.3-0.3-2.4-1-3.5c-0.6-1.1-1.5-1.9-2.6-2.5
		c-1.1-0.6-2.3-0.9-3.5-0.9c-1.3,0-2.5,0.3-3.5,0.9c-1.1,0.6-1.9,1.4-2.6,2.5c-0.6,1.1-1,2.2-1,3.4v0v0c0,1.2,0.3,2.4,1,3.4
		c0.6,1.1,1.5,1.9,2.6,2.5c1.1,0.6,2.3,0.9,3.5,0.9c1.3,0,2.5-0.3,3.5-0.9c1.1-0.6,1.9-1.5,2.6-2.5
		C369,476.8,369.4,475.7,369.4,474.4L369.4,474.4z M344.3,481h5v-0.6h-1.6l0-12h5.5v2.1h0.6v-2.7h-9.5v0.6h1.1l0,12h-1.1V481z
		 M329.1,472.5c-0.9,0-1.8,0.2-2.5,0.7V470h7.1v-2.3H326v6l0.6,0.2c0.7-0.6,1.6-0.8,2.5-0.8c0.9,0,1.7,0.2,2.4,0.7v6.2
		c-0.7,0.5-1.5,0.7-2.4,0.7c-1.3,0-2.6-0.6-3.9-1.7l0.6-0.8l-0.4-0.5l-1.1,1.3c0.6,0.7,1.3,1.3,2.2,1.7c0.9,0.4,1.8,0.6,2.7,0.6
		c0.9,0,1.6-0.2,2.4-0.6c0.7-0.4,1.3-0.9,1.7-1.6c0.4-0.7,0.6-1.4,0.6-2.2s-0.2-1.5-0.6-2.2c-0.4-0.7-1-1.2-1.7-1.6
		C330.8,472.7,330,472.5,329.1,472.5 M319.7,473.7c0.6-0.3,1-0.7,1.4-1.2c0.3-0.5,0.5-1.1,0.5-1.7c0-0.6-0.2-1.1-0.5-1.6
		c-0.3-0.5-0.7-0.9-1.3-1.2c-0.5-0.3-1.1-0.4-1.8-0.4c-0.4,0-0.8,0.1-1.2,0.2c-0.4,0.1-0.7,0.3-1,0.6l1,1.4l0.5-0.5l-0.6-0.8
		c0.4-0.2,0.8-0.3,1.3-0.3c0.6,0,1.2,0.1,1.6,0.4v4.4c-0.5,0.3-1,0.4-1.6,0.4h0v0.6h0c0.8,0,1.6,0.2,2.2,0.7v5.1
		c-0.6,0.5-1.3,0.7-2.2,0.7c-0.7,0-1.4-0.1-2.1-0.4c-0.7-0.3-1.3-0.7-1.9-1.2l0.7-0.8l-0.4-0.5l-1.1,1.3c0.6,0.7,1.3,1.2,2.2,1.7
		s1.8,0.6,2.7,0.6c0.8,0,1.5-0.2,2.1-0.5c0.6-0.4,1.1-0.8,1.4-1.4c0.3-0.6,0.5-1.3,0.5-2c0-0.8-0.2-1.6-0.7-2.2
		C321,474.5,320.4,474,319.7,473.7 M306.5,475.8c-0.9,0-1.7-0.2-2.4-0.7v-6.2c0.7-0.5,1.5-0.7,2.4-0.7c0.9,0,1.7,0.2,2.3,0.7v6.2
		C308.1,475.5,307.3,475.8,306.5,475.8 M306.4,467.6c-0.9,0-1.6,0.2-2.4,0.6c-0.7,0.4-1.3,0.9-1.7,1.6c-0.4,0.7-0.6,1.4-0.6,2.2
		s0.2,1.5,0.6,2.2c0.4,0.7,1,1.2,1.7,1.6c0.7,0.4,1.5,0.6,2.4,0.6c0.8,0,1.6-0.2,2.4-0.6v4.2c-0.7,0.5-1.5,0.7-2.3,0.7
		c-0.7,0-1.3-0.1-1.8-0.3c-0.5-0.2-1-0.5-1.4-0.9l0.8-0.8l-0.5-0.5l-1.2,1.2c0.4,0.6,1,1,1.7,1.4c0.7,0.3,1.5,0.5,2.3,0.5
		c0.8,0,1.6-0.2,2.3-0.6c0.7-0.4,1.3-0.9,1.7-1.6c0.4-0.7,0.6-1.4,0.6-2.2v-5c0-0.8-0.2-1.5-0.6-2.2c-0.4-0.7-1-1.2-1.7-1.6
		C308.1,467.8,307.3,467.6,306.4,467.6 M298.1,480.4v-12.7h-2.3l-2.2,1.8l0.6,0.4l1.6-1.2v11.6h-1.1v0.6h4.6v-0.6H298.1z
		 M280.2,474.9h-3.5c-0.6,0-1.1-0.1-1.5-0.4c-0.2-0.1-0.3-0.2-0.4-0.4c-0.1-0.2-0.1-0.3-0.1-0.5v-0.6v-3.5c0-0.2,0-0.4,0.1-0.5
		c0.1-0.2,0.2-0.3,0.4-0.4c0.4-0.2,0.9-0.3,1.5-0.3h3.5V474.9z M282.5,480.4v-12h1.1v-0.6h-6.9c-0.7,0-1.4,0.2-2,0.5
		c-0.6,0.4-1.1,0.8-1.4,1.4c-0.3,0.6-0.5,1.2-0.5,2c0,0.7,0.2,1.4,0.5,2c0.3,0.6,0.8,1.1,1.4,1.4c0.6,0.4,1.2,0.5,2,0.5h0.2
		l-3.1,4.8h-1.5v0.6h1h2.5v-0.6h-1.4l3-4.8h2.6v4.8h-1.3v0.6h4.9v-0.6H282.5z M261.5,475.9l2.1-7.3l2.5,7.3H261.5z M270.2,480.4
		l-4.5-12.7h-3.9v0.6h1.2l-3.4,12h-1.2v0.6h1h1.7v-0.6h-0.9l1.1-4h5l1.4,4h-0.9v0.6h4.5v-0.6H270.2z M240.6,481h2.8v-0.6h-1.1v-11.8
		l5.1,12.5h0.4l5-11.8v11.1h-1.1v0.6h4.7v-0.6h-1.1v-12h1.1v-0.6h-3.6l-4.3,10.2l-4.2-10.2h-4v0.6h1.2l0.1,12h-1.1V481z
		 M225.5,472.5c-0.9,0-1.8,0.2-2.5,0.7V470h7.1v-2.3h-7.8v6l0.6,0.2c0.7-0.6,1.6-0.8,2.5-0.8c0.9,0,1.7,0.2,2.4,0.7v6.2
		c-0.7,0.5-1.5,0.7-2.4,0.7c-1.3,0-2.6-0.6-3.9-1.7l0.6-0.8l-0.4-0.5l-1.1,1.3c0.6,0.7,1.3,1.3,2.2,1.7c0.9,0.4,1.8,0.6,2.7,0.6
		c0.9,0,1.6-0.2,2.4-0.6c0.7-0.4,1.3-0.9,1.7-1.6c0.4-0.7,0.6-1.4,0.6-2.2s-0.2-1.5-0.6-2.2c-0.4-0.7-1-1.2-1.7-1.6
		C227.1,472.7,226.4,472.5,225.5,472.5 M216.9,480.4v-12.7h-2.3l-2.2,1.8l0.6,0.4l1.6-1.2v11.6h-1.1v0.6h4.6v-0.6H216.9z
		 M195.8,473.9h3.5c0.6,0,1.1,0.1,1.5,0.4c0.2,0.1,0.3,0.2,0.4,0.4c0.1,0.2,0.1,0.3,0.1,0.5v0.6v3.5c0,0.2,0,0.4-0.1,0.5
		c-0.1,0.2-0.2,0.3-0.4,0.4c-0.4,0.2-0.9,0.3-1.5,0.3h-3.5V473.9z M199.2,481c0.7,0,1.4-0.2,2-0.5c0.6-0.4,1.1-0.8,1.4-1.4
		c0.3-0.6,0.5-1.2,0.5-2c0-0.7-0.2-1.4-0.5-2c-0.3-0.6-0.8-1.1-1.4-1.4c-0.6-0.4-1.2-0.5-2-0.5h-3.5v-4.8h1.3v-0.6h-4.9v0.6h1.3v12
		h-1.1v0.6H199.2z M188.5,478.6l0.7,0.7c-0.5,0.4-1.2,0.8-1.8,1c-0.7,0.2-1.4,0.3-2.1,0.3c-0.8,0-1.6-0.1-2.3-0.4
		c-0.7-0.3-1.4-0.7-1.9-1.2c-0.1-0.1-0.1-0.2-0.1-0.3v-8.7c0-0.1,0-0.2,0.1-0.3c0.6-0.5,1.2-0.9,1.9-1.2c0.7-0.3,1.5-0.4,2.3-0.4
		c0.7,0,1.4,0.1,2.1,0.3c0.7,0.2,1.3,0.6,1.8,1l-0.7,0.7l0.5,0.5l1.2-1.2c-0.6-0.6-1.4-1.1-2.2-1.4c-0.8-0.3-1.7-0.5-2.7-0.5
		c-1.3,0-2.5,0.3-3.5,0.9c-1.1,0.6-1.9,1.4-2.6,2.5c-0.6,1.1-0.9,2.2-0.9,3.4c0,1.2,0.3,2.4,0.9,3.4c0.6,1.1,1.5,1.9,2.6,2.5
		c1.1,0.6,2.3,0.9,3.5,0.9c0.9,0,1.8-0.2,2.7-0.5c0.8-0.3,1.6-0.8,2.2-1.4l-1.2-1.2L188.5,478.6z M167.1,475.9l2.1-7.3l2.5,7.3
		H167.1z M175.8,480.4l-4.5-12.7h-3.9v0.6h1.2l-3.4,12H164v0.6h1h1.7v-0.6h-0.9l1.1-4h5l1.4,4h-0.9v0.6h4.5v-0.6H175.8z
		 M161.8,480.4l-4.3-12.7h-3.8v0.6h1.1l-3.3,12h-1.2v0.6h1h1.7v-0.6h-0.9l3.2-11.8l4,11.8h-0.9v0.6h4.4v-0.6H161.8z M135.6,473.9
		h2.9c0.6,0,1.1,0.1,1.5,0.4c0.2,0.1,0.3,0.2,0.4,0.4c0.1,0.2,0.1,0.3,0.1,0.5v0.6v3.5c0,0.2,0,0.4-0.1,0.5
		c-0.1,0.2-0.2,0.3-0.4,0.4c-0.4,0.2-0.9,0.3-1.5,0.3h-2.9V473.9z M143.5,481v-0.6h1.3v-12.2h-1.3v-0.6h4.9v0.6h-1.3v12.2h1.3v0.6
		H143.5z M138.6,481c0.7,0,1.4-0.2,2-0.5c0.6-0.4,1.1-0.8,1.4-1.4c0.3-0.6,0.5-1.2,0.5-2c0-0.7-0.2-1.4-0.5-2
		c-0.3-0.6-0.8-1.1-1.4-1.4c-0.6-0.4-1.2-0.5-2-0.5h-2.9v-4.8h1.3v-0.6H132v0.6h1.3v12h-1.1v0.6H138.6z M122.9,474.9v-6.5h3.5
		c0.6,0,1.1,0.1,1.5,0.3c0.2,0.1,0.3,0.2,0.4,0.4c0.1,0.2,0.1,0.3,0.1,0.5v0.6v3.5c0,0.2,0,0.4-0.1,0.5s-0.2,0.3-0.4,0.4
		c-0.5,0.3-1,0.4-1.5,0.4H122.9z M126.3,467.7h-6.9v0.6h1.1v12h-1.3v0.6h4.9v-0.6h-1.3v-4.8h3.5c0.7,0,1.4-0.2,2-0.5
		c0.6-0.4,1.1-0.8,1.4-1.4c0.3-0.6,0.5-1.2,0.5-2c0-0.7-0.2-1.4-0.5-2c-0.3-0.6-0.8-1.1-1.4-1.4C127.7,467.9,127,467.7,126.3,467.7
		 M116.7,480.4l-4.2-7.1c0.8-0.6,1.4-1.3,1.8-2.2c0.5-0.8,0.7-1.8,0.8-2.7h1.4v-0.6h-2.9v0.6h0.8c-0.1,1-0.4,2-0.9,2.8
		c-0.6,0.9-1.3,1.6-2.2,2.1c-0.9,0.5-1.9,0.8-2.9,0.9v-5.8h1.1v-0.6h-4.6v0.6h1.1v12h-1.1v0.6h4.6v-0.6h-1.1v-5.6
		c0.7,0,1.5-0.2,2.2-0.5l3.5,6h-0.7v0.6h4.7v-0.6H116.7z M102.4,470.6v-2.9H89.4v2.9h0.6v-2.3l4.7,0v12h-1.1v0.6h4.6v-0.6H97v-12
		l4.7,0v2.3H102.4z M76.4,479.1c-0.1-0.1-0.1-0.2-0.1-0.3v-8.7c0-0.1,0-0.2,0.1-0.3c0.6-0.5,1.2-0.9,1.9-1.2
		c0.7-0.3,1.5-0.4,2.3-0.4c0.8,0,1.6,0.1,2.3,0.4c0.7,0.3,1.4,0.7,1.9,1.2c0.1,0.1,0.1,0.2,0.1,0.3v8.7c0,0.1,0,0.2-0.1,0.3
		c-0.6,0.5-1.2,0.9-1.9,1.2c-0.7,0.3-1.5,0.4-2.3,0.4c-0.8,0-1.6-0.1-2.3-0.4C77.6,480,77,479.6,76.4,479.1 M87.7,474.4L87.7,474.4
		c0-1.3-0.3-2.4-1-3.5c-0.6-1.1-1.5-1.9-2.6-2.5c-1.1-0.6-2.3-0.9-3.5-0.9c-1.3,0-2.5,0.3-3.5,0.9c-1.1,0.6-1.9,1.4-2.6,2.5
		c-0.6,1.1-0.9,2.2-0.9,3.4v0v0c0,1.2,0.3,2.4,0.9,3.4c0.6,1.1,1.5,1.9,2.6,2.5c1.1,0.6,2.3,0.9,3.5,0.9c1.3,0,2.5-0.3,3.5-0.9
		c1.1-0.6,1.9-1.5,2.6-2.5C87.4,476.8,87.7,475.7,87.7,474.4L87.7,474.4z"/>
	<path id="XMLID_92_" clip-path="url(#XMLID_272_)" fill="#1D1D1B" d="M432.2,453.1c-0.1-0.1-0.1-0.2-0.1-0.3v-8.7
		c0-0.1,0-0.2,0.1-0.3c0.6-0.5,1.2-0.9,1.9-1.2c0.7-0.3,1.5-0.4,2.3-0.4c0.8,0,1.6,0.1,2.3,0.4c0.7,0.3,1.4,0.7,1.9,1.2
		c0.1,0.1,0.1,0.2,0.1,0.3v8.7c0,0.1,0,0.2-0.1,0.3c-0.6,0.5-1.2,0.9-1.9,1.2c-0.7,0.3-1.5,0.4-2.3,0.4c-0.8,0-1.6-0.1-2.3-0.4
		C433.5,454,432.8,453.6,432.2,453.1 M443.6,448.4L443.6,448.4c0-1.3-0.3-2.4-0.9-3.5c-0.6-1.1-1.5-1.9-2.6-2.5
		c-1.1-0.6-2.3-0.9-3.5-0.9c-1.3,0-2.5,0.3-3.5,0.9c-1.1,0.6-1.9,1.4-2.6,2.5c-0.6,1.1-0.9,2.2-0.9,3.4v0v0c0,1.2,0.3,2.4,0.9,3.4
		c0.6,1.1,1.5,1.9,2.6,2.5c1.1,0.6,2.3,0.9,3.5,0.9c1.3,0,2.5-0.3,3.5-0.9c1.1-0.6,1.9-1.5,2.6-2.5
		C443.2,450.8,443.6,449.7,443.6,448.4L443.6,448.4z M419.8,448.9v-6.5h3.5c0.6,0,1.1,0.1,1.5,0.3c0.2,0.1,0.3,0.2,0.4,0.4
		c0.1,0.2,0.1,0.3,0.1,0.5v0.6v3.5c0,0.2,0,0.4-0.1,0.5c-0.1,0.2-0.2,0.3-0.4,0.4c-0.5,0.3-1,0.4-1.5,0.4H419.8z M423.2,441.7h-6.9
		v0.6h1.1v12h-1.3v0.6h4.9v-0.6h-1.3v-4.8h3.5c0.7,0,1.4-0.2,2-0.5c0.6-0.4,1.1-0.8,1.4-1.4c0.3-0.6,0.5-1.2,0.5-2
		c0-0.7-0.2-1.4-0.5-2c-0.3-0.6-0.8-1.1-1.4-1.4C424.6,441.9,424,441.7,423.2,441.7 M413.6,444.6v-2.9h-12.9v2.9h0.6v-2.3l4.7,0v12
		h-1.1v0.6h4.6v-0.6h-1.1v-12l4.7,0v2.3H413.6z M388.4,455h10.2v-2.7H398v2.1h-6.2v-5.7h3.9v-0.6h-3.9v-5.7h6.2v2.1h0.6v-2.7h-10.1
		v0.6h1.1l0,12h-1.1V455z M369.2,455h2.8v-0.6h-1.1v-11.8l5.1,12.5h0.4l5-11.8v11.1h-1.1v0.6h4.7v-0.6h-1.1v-12h1.1v-0.6h-3.6
		l-4.3,10.2l-4.2-10.2h-4v0.6h1.2l0.1,12h-1.1V455z M347.4,453.1c-0.1-0.1-0.1-0.2-0.1-0.3v-8.7c0-0.1,0-0.2,0.1-0.3
		c0.6-0.5,1.2-0.9,1.9-1.2c0.7-0.3,1.5-0.4,2.3-0.4s1.6,0.1,2.3,0.4c0.7,0.3,1.4,0.7,1.9,1.2c0.1,0.1,0.1,0.2,0.1,0.3v8.7
		c0,0.1,0,0.2-0.1,0.3c-0.6,0.5-1.2,0.9-1.9,1.2c-0.7,0.3-1.5,0.4-2.3,0.4s-1.6-0.1-2.3-0.4C348.6,454,348,453.6,347.4,453.1
		 M358.7,448.4L358.7,448.4c0-1.3-0.3-2.4-0.9-3.5c-0.6-1.1-1.5-1.9-2.6-2.5c-1.1-0.6-2.3-0.9-3.5-0.9s-2.5,0.3-3.5,0.9
		c-1.1,0.6-1.9,1.4-2.6,2.5c-0.6,1.1-0.9,2.2-0.9,3.4v0v0c0,1.2,0.3,2.4,0.9,3.4c0.6,1.1,1.5,1.9,2.6,2.5c1.1,0.6,2.3,0.9,3.5,0.9
		s2.5-0.3,3.5-0.9c1.1-0.6,1.9-1.5,2.6-2.5C358.4,450.8,358.7,449.7,358.7,448.4L358.7,448.4z M333.7,455h5v-0.6h-1.6l0-12h5.5v2.1
		h0.6v-2.7h-9.5v0.6h1.1l0,12h-1.1V455z M319.6,453.1c-0.1-0.1-0.1-0.2-0.1-0.3v-8.7c0-0.1,0-0.2,0.1-0.3c0.6-0.5,1.2-0.9,1.9-1.2
		c0.7-0.3,1.5-0.4,2.3-0.4s1.6,0.1,2.3,0.4c0.7,0.3,1.4,0.7,1.9,1.2c0.1,0.1,0.1,0.2,0.1,0.3v8.7c0,0.1,0,0.2-0.1,0.3
		c-0.6,0.5-1.2,0.9-1.9,1.2c-0.7,0.3-1.5,0.4-2.3,0.4s-1.6-0.1-2.3-0.4C320.8,454,320.2,453.6,319.6,453.1 M330.9,448.4L330.9,448.4
		c0-1.3-0.3-2.4-0.9-3.5c-0.6-1.1-1.5-1.9-2.6-2.5c-1.1-0.6-2.3-0.9-3.5-0.9s-2.5,0.3-3.5,0.9c-1.1,0.6-1.9,1.4-2.6,2.5
		c-0.6,1.1-0.9,2.2-0.9,3.4v0v0c0,1.2,0.3,2.4,0.9,3.4c0.6,1.1,1.5,1.9,2.6,2.5c1.1,0.6,2.3,0.9,3.5,0.9s2.5-0.3,3.5-0.9
		c1.1-0.6,1.9-1.5,2.6-2.5C330.6,450.8,330.9,449.7,330.9,448.4L330.9,448.4z M313.6,454.4l-4.2-7.1c0.8-0.6,1.4-1.3,1.8-2.2
		c0.5-0.8,0.7-1.8,0.8-2.7h1.4v-0.6h-2.9v0.6h0.8c-0.1,1-0.4,2-0.9,2.8c-0.6,0.9-1.3,1.6-2.2,2.1c-0.9,0.5-1.9,0.8-2.9,0.9v-5.8h1.1
		v-0.6h-4.6v0.6h1.1v12h-1.1v0.6h4.6v-0.6h-1.1v-5.6c0.7,0,1.5-0.2,2.2-0.5l3.5,6h-0.7v0.6h4.7v-0.6H313.6z M298.1,452.6l0.7,0.7
		c-0.5,0.4-1.2,0.8-1.8,1c-0.7,0.2-1.4,0.3-2.1,0.3c-0.8,0-1.6-0.1-2.3-0.4c-0.7-0.3-1.4-0.7-1.9-1.2c-0.1-0.1-0.1-0.2-0.1-0.3v-8.7
		c0-0.1,0-0.2,0.1-0.3c0.6-0.5,1.2-0.9,1.9-1.2c0.7-0.3,1.5-0.4,2.3-0.4c0.7,0,1.4,0.1,2.1,0.3c0.7,0.2,1.3,0.6,1.8,1l-0.7,0.7
		l0.5,0.5l1.2-1.2c-0.6-0.6-1.4-1.1-2.2-1.4c-0.8-0.3-1.7-0.5-2.7-0.5c-1.3,0-2.5,0.3-3.5,0.9c-1.1,0.6-1.9,1.4-2.6,2.5
		c-0.6,1.1-1,2.2-1,3.4c0,1.2,0.3,2.4,1,3.4c0.6,1.1,1.5,1.9,2.6,2.5c1.1,0.6,2.3,0.9,3.5,0.9c0.9,0,1.8-0.2,2.7-0.5
		c0.8-0.3,1.6-0.8,2.2-1.4l-1.2-1.2L298.1,452.6z M281.5,454.4h-1.9V447h1.9c0.7,0,1.4,0.2,1.9,0.5c0.6,0.3,1,0.8,1.4,1.4
		c0.3,0.6,0.5,1.2,0.5,1.9c0,0.7-0.2,1.3-0.5,1.9c-0.3,0.6-0.8,1-1.4,1.3C282.8,454.2,282.2,454.4,281.5,454.4 M282.7,444.5
		c0,0.5-0.2,0.9-0.6,1.3c-0.4,0.3-0.8,0.5-1.4,0.5h-1.3v-3.9h1.3c0.3,0,0.7,0.1,1,0.3c0.3,0.2,0.5,0.5,0.7,0.8
		C282.6,443.8,282.7,444.2,282.7,444.5 M282.3,446.5c0.7-0.5,1.1-1.2,1.1-1.9c0-0.5-0.1-1-0.4-1.4c-0.2-0.4-0.6-0.8-1-1
		c-0.4-0.3-0.8-0.4-1.2-0.4h-4.7v0.6h1.1v12h-1.1v0.6h5.3c0.8,0,1.6-0.2,2.3-0.6c0.7-0.4,1.2-0.9,1.6-1.6c0.4-0.7,0.6-1.4,0.6-2.1
		c0-0.7-0.2-1.3-0.5-1.9c-0.3-0.6-0.8-1.1-1.3-1.5C283.6,446.9,282.9,446.6,282.3,446.5 M262,453.1c-0.1-0.1-0.1-0.2-0.1-0.3v-8.7
		c0-0.1,0-0.2,0.1-0.3c0.6-0.5,1.2-0.9,1.9-1.2c0.7-0.3,1.5-0.4,2.3-0.4c0.8,0,1.6,0.1,2.3,0.4c0.7,0.3,1.4,0.7,1.9,1.2
		c0.1,0.1,0.1,0.2,0.1,0.3v8.7c0,0.1,0,0.2-0.1,0.3c-0.6,0.5-1.2,0.9-1.9,1.2c-0.7,0.3-1.5,0.4-2.3,0.4c-0.8,0-1.6-0.1-2.3-0.4
		C263.3,454,262.6,453.6,262,453.1 M273.4,448.4L273.4,448.4c0-1.3-0.3-2.4-1-3.5c-0.6-1.1-1.5-1.9-2.6-2.5
		c-1.1-0.6-2.3-0.9-3.5-0.9c-1.3,0-2.5,0.3-3.5,0.9c-1.1,0.6-1.9,1.4-2.6,2.5c-0.6,1.1-1,2.2-1,3.4v0v0c0,1.2,0.3,2.4,1,3.4
		c0.6,1.1,1.5,1.9,2.6,2.5c1.1,0.6,2.3,0.9,3.5,0.9c1.3,0,2.5-0.3,3.5-0.9c1.1-0.6,1.9-1.5,2.6-2.5
		C273,450.8,273.4,449.7,273.4,448.4L273.4,448.4z M256,454.4l-4.2-7.1c0.8-0.6,1.4-1.3,1.8-2.2c0.5-0.8,0.7-1.8,0.8-2.7h1.4v-0.6
		h-2.9v0.6h0.8c-0.1,1-0.4,2-0.9,2.8c-0.6,0.9-1.3,1.6-2.2,2.1c-0.9,0.5-1.9,0.8-2.9,0.9v-5.8h1.1v-0.6h-4.6v0.6h1.1v12h-1.1v0.6
		h4.6v-0.6h-1.1v-5.6c0.7,0,1.5-0.2,2.2-0.5l3.5,6h-0.7v0.6h4.7v-0.6H256z M240.5,452.6l0.7,0.7c-0.5,0.4-1.2,0.8-1.8,1
		c-0.7,0.2-1.4,0.3-2.1,0.3c-0.8,0-1.6-0.1-2.3-0.4c-0.7-0.3-1.4-0.7-1.9-1.2c-0.1-0.1-0.1-0.2-0.1-0.3v-8.7c0-0.1,0-0.2,0.1-0.3
		c0.6-0.5,1.2-0.9,1.9-1.2c0.7-0.3,1.5-0.4,2.3-0.4c0.7,0,1.4,0.1,2.1,0.3c0.7,0.2,1.3,0.6,1.8,1l-0.7,0.7l0.5,0.5l1.2-1.2
		c-0.6-0.6-1.4-1.1-2.2-1.4c-0.8-0.3-1.7-0.5-2.7-0.5c-1.3,0-2.5,0.3-3.5,0.9c-1.1,0.6-1.9,1.4-2.6,2.5c-0.6,1.1-0.9,2.2-0.9,3.4
		c0,1.2,0.3,2.4,0.9,3.4c0.6,1.1,1.5,1.9,2.6,2.5c1.1,0.6,2.3,0.9,3.5,0.9c0.9,0,1.8-0.2,2.7-0.5c0.8-0.3,1.6-0.8,2.2-1.4l-1.2-1.2
		L240.5,452.6z M215.9,453.1c-0.1-0.1-0.1-0.2-0.1-0.3v-8.7c0-0.1,0-0.2,0.1-0.3c0.6-0.5,1.2-0.9,1.9-1.2c0.7-0.3,1.5-0.4,2.3-0.4
		c0.8,0,1.6,0.1,2.3,0.4c0.7,0.3,1.4,0.7,1.9,1.2c0.1,0.1,0.1,0.2,0.1,0.3v8.7c0,0.1,0,0.2-0.1,0.3c-0.6,0.5-1.2,0.9-1.9,1.2
		c-0.7,0.3-1.5,0.4-2.3,0.4c-0.8,0-1.6-0.1-2.3-0.4C217.1,454,216.5,453.6,215.9,453.1 M227.2,448.4L227.2,448.4
		c0-1.3-0.3-2.4-0.9-3.5c-0.6-1.1-1.5-1.9-2.6-2.5c-1.1-0.6-2.3-0.9-3.5-0.9c-1.3,0-2.5,0.3-3.5,0.9c-1.1,0.6-1.9,1.4-2.6,2.5
		c-0.6,1.1-1,2.2-1,3.4v0v0c0,1.2,0.3,2.4,1,3.4c0.6,1.1,1.5,1.9,2.6,2.5c1.1,0.6,2.3,0.9,3.5,0.9c1.3,0,2.5-0.3,3.5-0.9
		c1.1-0.6,1.9-1.5,2.6-2.5C226.9,450.8,227.2,449.7,227.2,448.4L227.2,448.4z M194.3,455h2.8v-0.6H196v-11.8l5.1,12.5h0.4l5-11.8
		v11.1h-1.1v0.6h4.7v-0.6H209v-12h1.1v-0.6h-3.6l-4.3,10.2l-4.2-10.2h-4v0.6h1.2l0.1,12h-1.1V455z M180.7,448.9h-3.5
		c-0.6,0-1.1-0.1-1.5-0.4c-0.2-0.1-0.3-0.2-0.4-0.4c-0.1-0.2-0.1-0.3-0.1-0.5v-0.6v-3.5c0-0.2,0-0.4,0.1-0.5
		c0.1-0.2,0.2-0.3,0.4-0.4c0.4-0.2,0.9-0.3,1.5-0.3h3.5V448.9z M183,454.4v-12h1.1v-0.6h-6.9c-0.7,0-1.4,0.2-2,0.5
		c-0.6,0.4-1.1,0.8-1.4,1.4c-0.3,0.6-0.5,1.2-0.5,2c0,0.7,0.2,1.4,0.5,2c0.3,0.6,0.8,1.1,1.4,1.4c0.6,0.4,1.2,0.5,2,0.5h0.2
		l-3.1,4.8h-1.5v0.6h1h2.5v-0.6h-1.4l3-4.8h2.6v4.8h-1.3v0.6h4.9v-0.6H183z M170.2,454.4v-12.7h-0.1l-9.4,9.2h0v-8.6h1.1v-0.6h-2.9
		v0.6h1.1V455h0l9.5-9.6v8.9h-1.1v0.6h2.9v-0.6H170.2z M142.2,455v-0.6h1.3v-12h-1.3v-0.6h5v0.6h-1.4v5.7h6.7v-5.7H151v-0.6h5v0.6
		h-1.3v12h1.3v0.6h-5v-0.6h1.4v-5.7h-6.7v5.7h1.4v0.6H142.2z M138.6,454.4v-12.7h-0.1l-9.4,9.2h0v-8.6h1.1v-0.6h-2.9v0.6h1.1V455h0
		l9.5-9.6v8.9h-1.1v0.6h2.9v-0.6H138.6z M124.6,454.4l-4.3-12.7h-3.8v0.6h1.1l-3.3,12h-1.2v0.6h1h1.7v-0.6h-0.9l3.2-11.8l4,11.8
		h-0.9v0.6h4.4v-0.6H124.6z M100.7,448.9h-3.5c-0.6,0-1.1-0.1-1.5-0.4c-0.2-0.1-0.3-0.2-0.4-0.4c-0.1-0.2-0.1-0.3-0.1-0.5v-0.6v-3.5
		c0-0.2,0-0.4,0.1-0.5c0.1-0.2,0.2-0.3,0.4-0.4c0.4-0.2,0.9-0.3,1.5-0.3h3.5V448.9z M103,454.4v-12h1.1v-0.6h-6.9
		c-0.7,0-1.4,0.2-2,0.5c-0.6,0.4-1.1,0.8-1.4,1.4c-0.3,0.6-0.5,1.2-0.5,2c0,0.7,0.2,1.4,0.5,2c0.3,0.6,0.8,1.1,1.4,1.4
		c0.6,0.4,1.2,0.5,2,0.5h0.2l-3.1,4.8H93v0.6h1h2.5v-0.6h-1.4l3-4.8h2.6v4.8h-1.3v0.6h4.9v-0.6H103z M82.1,449.9l2.1-7.3l2.5,7.3
		H82.1z M90.8,454.4l-4.5-12.7h-3.9v0.6h1.2l-3.4,12H79v0.6h1h1.7v-0.6h-0.9l1.1-4h5l1.4,4h-0.9v0.6h4.5v-0.6H90.8z M74.1,454.4
		h-1.9V447h1.9c0.7,0,1.4,0.2,1.9,0.5c0.6,0.3,1,0.8,1.4,1.4c0.3,0.6,0.5,1.2,0.5,1.9c0,0.7-0.2,1.3-0.5,1.9c-0.3,0.6-0.8,1-1.4,1.3
		C75.5,454.2,74.8,454.4,74.1,454.4 M75.4,444.5c0,0.5-0.2,0.9-0.6,1.3c-0.4,0.3-0.8,0.5-1.4,0.5h-1.3v-3.9h1.3c0.3,0,0.7,0.1,1,0.3
		c0.3,0.2,0.5,0.5,0.7,0.8C75.3,443.8,75.4,444.2,75.4,444.5 M74.9,446.5c0.7-0.5,1.1-1.2,1.1-1.9c0-0.5-0.1-1-0.4-1.4
		c-0.2-0.4-0.6-0.8-0.9-1c-0.4-0.3-0.8-0.4-1.2-0.4h-4.7v0.6h1.1v12h-1.1v0.6h5.3c0.8,0,1.6-0.2,2.3-0.6c0.7-0.4,1.2-0.9,1.6-1.6
		c0.4-0.7,0.6-1.4,0.6-2.1c0-0.7-0.2-1.3-0.5-1.9c-0.3-0.6-0.8-1.1-1.3-1.5C76.2,446.9,75.6,446.6,74.9,446.5 M59.6,448.9v-6.5h3.5
		c0.6,0,1.1,0.1,1.5,0.3c0.2,0.1,0.3,0.2,0.4,0.4c0.1,0.2,0.1,0.3,0.1,0.5v0.6v3.5c0,0.2,0,0.4-0.1,0.5c-0.1,0.2-0.2,0.3-0.4,0.4
		c-0.5,0.3-1,0.4-1.5,0.4H59.6z M63.1,441.7h-6.9v0.6h1.1v12H56v0.6h4.9v-0.6h-1.3v-4.8h3.5c0.7,0,1.4-0.2,2-0.5
		c0.6-0.4,1.1-0.8,1.4-1.4c0.3-0.6,0.5-1.2,0.5-2c0-0.7-0.2-1.4-0.5-2c-0.3-0.6-0.8-1.1-1.4-1.4C64.4,441.9,63.8,441.7,63.1,441.7
		 M42.9,455H53v-2.7h-0.6v2.1h-6.2v-5.7h3.9v-0.6h-3.9v-5.7h6.2v2.1H53v-2.7H42.9v0.6H44l0,12h-1.1V455z M39.5,442.4v-0.6h-2.8h-7.5
		h-3.6v0.6h1.3v12h-1.3v0.6h5v-0.6h-1.4v-12h6.7v12h-1.4v0.6h5v-0.6h-1.3v-12H39.5z"/>
	<path id="XMLID_72_" clip-path="url(#XMLID_272_)" fill="#1D1D1B" d="M443.7,411.4v-25.6h-0.1l-19.1,18.6h0v-17.3h2.3v-1.3h-5.9
		v1.3h2.3v25.6h0.1l19.2-19.4v18.1h-2.3v1.3h5.9v-1.3H443.7z M434.1,382.9c1.4,0,2.6-0.4,3.6-1.1c1-0.7,1.5-1.8,1.5-3.1h-1.3
		c0,0.8-0.3,1.5-0.9,2.1c-0.6,0.5-1.6,0.8-2.9,0.8c-1.3,0-2.2-0.3-2.9-0.8c-0.6-0.5-0.9-1.2-0.9-2.1H429c0,1.4,0.5,2.4,1.5,3.1
		C431.5,382.5,432.7,382.9,434.1,382.9 M394.3,412.7h20.6v-5.5h-1.2v4.2h-12.5v-11.6h7.8v-1.2h-7.8v-11.5h12.5v4.2h1.2v-5.5h-20.6
		v1.3h2.3l0,24.3h-2.3V412.7z M375.7,400.3v-13.2h7c1.2,0,2.2,0.2,3,0.6c0.3,0.2,0.6,0.5,0.8,0.8c0.2,0.3,0.3,0.7,0.3,1.1v1.2v7
		c0,0.4-0.1,0.7-0.2,1c-0.2,0.3-0.4,0.6-0.7,0.8c-0.9,0.5-2,0.8-3.1,0.8H375.7z M382.7,385.8h-14v1.3h2.3v24.3h-2.7v1.3h10v-1.3
		h-2.7v-9.8h7c1.4,0,2.8-0.4,4-1.1c1.2-0.7,2.2-1.7,2.9-2.9c0.7-1.2,1.1-2.5,1.1-4c0-1.4-0.4-2.8-1.1-4c-0.7-1.2-1.7-2.2-2.9-2.9
		C385.5,386.2,384.2,385.8,382.7,385.8 M339.9,408.8c-0.2-0.2-0.3-0.4-0.3-0.6v-17.7c0-0.2,0.1-0.4,0.3-0.6c1.2-1,2.5-1.8,3.9-2.4
		c1.5-0.6,3-0.8,4.7-0.8c1.6,0,3.2,0.3,4.7,0.8c1.5,0.6,2.8,1.3,3.9,2.4c0.2,0.2,0.3,0.4,0.3,0.6v17.7c0,0.2-0.1,0.4-0.3,0.6
		c-1.2,1-2.5,1.8-3.9,2.4c-1.5,0.6-3,0.8-4.7,0.8c-1.6,0-3.2-0.3-4.7-0.8C342.3,410.6,341,409.8,339.9,408.8 M362.8,399.4
		L362.8,399.4c0-2.6-0.6-4.9-1.9-7c-1.3-2.1-3-3.8-5.2-5.1c-2.2-1.2-4.6-1.9-7.2-1.9c-2.6,0-5,0.6-7.2,1.9c-2.2,1.2-3.9,2.9-5.2,5.1
		c-1.3,2.1-1.9,4.5-1.9,7v0v0c0,2.5,0.6,4.8,1.9,6.9c1.3,2.1,3,3.8,5.2,5.1c2.2,1.3,4.6,1.9,7.2,1.9c2.6,0,5-0.6,7.2-1.9
		c2.2-1.3,3.9-3,5.2-5.1C362.2,404.2,362.8,401.9,362.8,399.4L362.8,399.4z M296.2,412.7h5.7v-1.3h-2.3v-23.9l10.4,25.3h0.9L321,389
		v22.4h-2.2v1.3h9.4v-1.3H326v-24.3h2.2v-1.3H321l-8.7,20.7l-8.5-20.7h-8v1.3h2.5l0.2,24.3h-2.3V412.7z M273.6,411.4v-25.6h-0.1
		l-19.1,18.6h0v-17.3h2.3v-1.3h-5.9v1.3h2.3v25.6h0.1l19.2-19.4v18.1H270v1.3h5.9v-1.3H273.6z M246.7,391.7v-5.9h-26.2v5.9h1.3v-4.6
		l9.5,0v24.3H229v1.3h9.2v-1.3h-2.3v-24.3l9.5,0v4.6H246.7z M209.6,400.3h-7c-1.1,0-2.2-0.3-3.1-0.8c-0.3-0.2-0.5-0.5-0.7-0.8
		c-0.2-0.3-0.3-0.7-0.3-1v-1.2v-7c0-0.4,0.1-0.8,0.3-1.1c0.2-0.3,0.5-0.6,0.8-0.8c0.8-0.4,1.8-0.6,3-0.6h7V400.3z M214.2,411.4
		v-24.3h2.3v-1.3h-14c-1.4,0-2.8,0.4-4,1.1c-1.2,0.7-2.2,1.7-2.9,2.9c-0.7,1.2-1.1,2.5-1.1,4c0,1.4,0.4,2.8,1.1,4
		c0.7,1.2,1.7,2.2,2.9,2.9c1.2,0.7,2.5,1.1,4,1.1h0.4l-6.2,9.8h-3v1.3h2.1h5.1v-1.3h-2.9l6.2-9.8h5.3v9.8h-2.7v1.3h10v-1.3H214.2z
		 M190.5,387.1v-1.3h-5.7h-15.1h-7.3v1.3h2.7v24.3h-2.7v1.3h10.2v-1.3h-2.9v-24.3h13.5v24.3h-2.9v1.3h10.2v-1.3h-2.7v-24.3H190.5z
		 M144.5,391.7v-5.9h-26.2v5.9h1.3v-4.6l9.5,0v24.3h-2.3v1.3h9.2v-1.3h-2.3v-24.3l9.5,0v4.6H144.5z M100.7,400.3v-13.2h7
		c1.2,0,2.2,0.2,3,0.6c0.3,0.2,0.6,0.5,0.8,0.8c0.2,0.3,0.3,0.7,0.3,1.1v1.2v7c0,0.4-0.1,0.7-0.2,1c-0.2,0.3-0.4,0.6-0.7,0.8
		c-1,0.5-2,0.8-3.1,0.8H100.7z M107.7,385.8h-14v1.3H96v24.3h-2.7v1.3h10v-1.3h-2.7v-9.8h7c1.4,0,2.8-0.4,4-1.1
		c1.2-0.7,2.2-1.7,2.9-2.9c0.7-1.2,1.1-2.5,1.1-4c0-1.4-0.4-2.8-1.1-4c-0.7-1.2-1.7-2.2-2.9-2.9
		C110.5,386.2,109.1,385.8,107.7,385.8 M64.8,408.8c-0.2-0.2-0.3-0.4-0.3-0.6v-17.7c0-0.2,0.1-0.4,0.3-0.6c1.2-1,2.5-1.8,3.9-2.4
		c1.5-0.6,3-0.8,4.7-0.8c1.6,0,3.2,0.3,4.7,0.8c1.5,0.6,2.8,1.3,3.9,2.4c0.2,0.2,0.3,0.4,0.3,0.6v17.7c0,0.2-0.1,0.4-0.3,0.6
		c-1.2,1-2.5,1.8-3.9,2.4s-3,0.8-4.7,0.8c-1.6,0-3.2-0.3-4.7-0.8C67.3,410.6,66,409.8,64.8,408.8 M87.8,399.4L87.8,399.4
		c0-2.6-0.6-4.9-1.9-7c-1.3-2.1-3-3.8-5.2-5.1c-2.2-1.2-4.6-1.9-7.2-1.9c-2.6,0-5,0.6-7.2,1.9c-2.2,1.2-3.9,2.9-5.2,5.1
		c-1.3,2.1-1.9,4.5-1.9,7v0v0c0,2.5,0.6,4.8,1.9,6.9c1.3,2.1,3,3.8,5.2,5.1c2.2,1.3,4.6,1.9,7.2,1.9c2.6,0,5-0.6,7.2-1.9
		c2.2-1.3,3.9-3,5.2-5.1C87.1,404.2,87.8,401.9,87.8,399.4L87.8,399.4z M53.1,387.1v-1.3h-5.7H32.3H25v1.3h2.7v24.3H25v1.3h10.2
		v-1.3h-2.9v-24.3h13.5v24.3h-2.9v1.3h10.2v-1.3h-2.7v-24.3H53.1z"/>
	<path id="XMLID_49_" clip-path="url(#XMLID_272_)" fill="#1D1D1B" d="M429.2,519.1h6.8c1.1,0,2.1,0.2,3,0.7
		c0.3,0.2,0.5,0.4,0.7,0.7c0.2,0.3,0.2,0.6,0.2,1v1.1v6.7c0,0.4-0.1,0.7-0.3,1.1c-0.2,0.3-0.4,0.6-0.8,0.8c-0.8,0.4-1.7,0.6-2.9,0.6
		h-6.8V519.1z M436,533c1.4,0,2.7-0.3,3.8-1c1.2-0.7,2.1-1.6,2.8-2.8c0.7-1.2,1-2.4,1-3.8c0-1.4-0.3-2.7-1-3.8
		c-0.7-1.2-1.6-2.1-2.8-2.8c-1.2-0.7-2.4-1-3.8-1h-6.8v-9.4h2.6v-1.3h-9.6v1.3h2.6v23.4h-2.2v1.3H436z M403.8,508.8l6.7,23h-12.7
		L403.8,508.8z M415.2,531.8l-7.3-24.7h-7.4v1.3h2.2l-6.1,23.5h-3.7v3.7h1.3V533h2.1h20.4v2.4h1.3v-3.7H415.2z M372.1,523l4-14.2
		l5,14.2H372.1z M389,531.8l-8.7-24.7h-7.6v1.3h2.3l-6.6,23.5h-2.4v1.3h2h3.4v-1.3h-1.8l2.1-7.7h9.7l2.7,7.7h-1.8v1.3h8.7v-1.3H389z
		 M359.1,531.8v-23.4h2.6v-1.3h-9.8v1.3h2.8v23.4h-9.2v-23.4h2.8v-1.3h-9.8v1.3h2.6v23.4h-9.3v-23.4h2.8v-1.3h-9.8v1.3h2.6v23.4H325
		v1.3h2.2h13.7h13.7h7l-0.4,3h1.3l0.4-3v-1.3H359.1z M297.2,529.3c-0.2-0.2-0.3-0.4-0.3-0.6v-17c0-0.2,0.1-0.4,0.3-0.6
		c1.1-1,2.4-1.7,3.8-2.3c1.4-0.5,2.9-0.8,4.5-0.8c1.6,0,3.1,0.3,4.5,0.8c1.4,0.5,2.7,1.3,3.8,2.3c0.2,0.2,0.3,0.4,0.3,0.6v17
		c0,0.2-0.1,0.4-0.3,0.6c-1.1,1-2.4,1.7-3.8,2.3c-1.4,0.5-2.9,0.8-4.5,0.8c-1.6,0-3.1-0.3-4.5-0.8
		C299.6,531,298.3,530.3,297.2,529.3 M319.3,520.2L319.3,520.2c0-2.5-0.6-4.7-1.9-6.7c-1.2-2-2.9-3.7-5-4.9
		c-2.1-1.2-4.4-1.8-6.9-1.8c-2.5,0-4.8,0.6-6.9,1.8c-2.1,1.2-3.8,2.8-5,4.9c-1.2,2-1.9,4.3-1.9,6.7v0v0c0,2.4,0.6,4.6,1.9,6.7
		c1.2,2,2.9,3.7,5,4.9c2.1,1.2,4.4,1.8,6.9,1.8c2.5,0,4.8-0.6,6.9-1.8c2.1-1.2,3.8-2.8,5-4.9C318.6,524.9,319.3,522.6,319.3,520.2
		L319.3,520.2z M287.2,531.8l-8.4-24.7h-7.4v1.3h2.2l-6.5,23.5h-2.3v1.3h1.9h3.3v-1.3h-1.8l6.3-23l7.8,23h-1.7v1.3h8.5v-1.3H287.2z
		 M261,508.4v-1.3h-5.5H241h-7v1.3h2.6v23.4h-2.6v1.3h9.8v-1.3H241v-23.4h13v23.4h-2.8v1.3h9.8v-1.3h-2.6v-23.4H261z M207.3,521.1
		h-6.8c-1.1,0-2.1-0.2-3-0.7c-0.3-0.2-0.5-0.4-0.7-0.7c-0.2-0.3-0.2-0.6-0.2-1v-1.1v-6.7c0-0.4,0.1-0.7,0.3-1.1
		c0.2-0.3,0.4-0.6,0.8-0.8c0.8-0.4,1.7-0.6,2.9-0.6h6.8V521.1z M211.7,531.8v-23.4h2.2v-1.3h-13.4c-1.4,0-2.7,0.3-3.8,1
		c-1.2,0.7-2.1,1.6-2.8,2.8c-0.7,1.2-1,2.4-1,3.8c0,1.4,0.3,2.7,1,3.8c0.7,1.2,1.6,2.1,2.8,2.8c1.2,0.7,2.4,1,3.8,1h0.4l-6,9.4h-2.8
		v1.3h2h4.9v-1.3h-2.8l5.9-9.4h5.1v9.4h-2.6v1.3h9.6v-1.3H211.7z M170.9,523l4-14.2l5,14.2H170.9z M187.9,531.8l-8.7-24.7h-7.6v1.3
		h2.3l-6.6,23.5h-2.4v1.3h2h3.4v-1.3h-1.8l2.1-7.7h9.7l2.7,7.7h-1.8v1.3h8.7v-1.3H187.9z M134,533v-1.3h2.6v-23.4H134v-1.3h9.8v1.3
		H141v11.1h13v-11.1h-2.8v-1.3h9.8v1.3h-2.6v23.4h2.6v1.3h-9.8v-1.3h2.8v-11.1h-13v11.1h2.8v1.3H134z M126.8,528.3l1.4,1.4
		c-1.1,0.8-2.3,1.5-3.6,1.9c-1.3,0.4-2.7,0.7-4.1,0.7c-1.6,0-3.1-0.3-4.5-0.8c-1.4-0.5-2.7-1.3-3.8-2.3c-0.2-0.2-0.3-0.4-0.3-0.6
		v-17c0-0.2,0.1-0.4,0.3-0.6c1.1-1,2.4-1.7,3.8-2.3c1.4-0.5,2.9-0.8,4.5-0.8c1.4,0,2.8,0.2,4.1,0.7c1.3,0.4,2.5,1.1,3.6,1.9
		l-1.4,1.4l0.9,0.9l2.4-2.4c-1.3-1.2-2.7-2.1-4.4-2.8c-1.7-0.7-3.4-1-5.2-1c-2.5,0-4.8,0.6-6.9,1.8c-2.1,1.2-3.8,2.8-5,4.9
		c-1.2,2.1-1.8,4.3-1.8,6.7c0,2.4,0.6,4.7,1.8,6.7c1.2,2,2.9,3.7,5,4.9c2.1,1.2,4.4,1.8,6.9,1.8c1.8,0,3.6-0.3,5.2-1
		c1.7-0.7,3.1-1.6,4.4-2.8l-2.4-2.4L126.8,528.3z M85.2,523l4-14.2l5,14.2H85.2z M102.1,531.8l-8.7-24.7h-7.6v1.3h2.3l-6.6,23.5
		h-2.4v1.3h2h3.4v-1.3h-1.8l2.1-7.7h9.7l2.7,7.7h-1.8v1.3h8.7v-1.3H102.1z M63.3,521.1v-12.7h6.8c1.2,0,2.1,0.2,2.9,0.6
		c0.3,0.2,0.6,0.5,0.8,0.8c0.2,0.3,0.3,0.7,0.3,1.1v1.1v6.7c0,0.4-0.1,0.7-0.2,1c-0.2,0.3-0.4,0.5-0.7,0.7c-0.9,0.5-1.9,0.7-3,0.7
		H63.3z M70.1,507.1H56.6v1.3h2.2v23.4h-2.6v1.3h9.6v-1.3h-2.6v-9.4h6.8c1.4,0,2.7-0.3,3.8-1c1.2-0.7,2.1-1.6,2.8-2.8
		c0.7-1.2,1-2.4,1-3.8c0-1.4-0.3-2.7-1-3.8c-0.7-1.2-1.6-2.1-2.8-2.8C72.7,507.5,71.5,507.1,70.1,507.1 M51.2,531.8L43,517.9
		c1.5-1.2,2.7-2.6,3.6-4.2c0.9-1.7,1.4-3.4,1.5-5.3h2.7v-1.3h-5.6v1.3h1.6c-0.1,2-0.8,3.8-1.8,5.5c-1.1,1.7-2.5,3-4.2,4.1
		c-1.7,1-3.6,1.6-5.7,1.7v-11.3h2.2v-1.3h-8.9v1.3h2.2v23.4h-2.2v1.3h8.9v-1.3H35v-10.8c1.4-0.1,2.8-0.4,4.3-0.9l6.7,11.7h-1.3v1.3
		h9.1v-1.3H51.2z"/>
	<path id="XMLID_29_" clip-path="url(#XMLID_272_)" fill="#1D1D1B" d="M424.7,298.7V284h7.9c1.3,0,2.5,0.2,3.4,0.7
		c0.4,0.2,0.7,0.5,0.9,0.9c0.2,0.4,0.3,0.8,0.3,1.2v1.3v7.8c0,0.4-0.1,0.8-0.3,1.2c-0.2,0.3-0.5,0.6-0.8,0.9
		c-1.1,0.6-2.2,0.9-3.5,0.9H424.7z M432.6,282.5H417v1.5h2.6v27.2h-3v1.5h11.2v-1.5h-3v-10.9h7.9c1.6,0,3.1-0.4,4.4-1.2
		c1.3-0.8,2.4-1.9,3.2-3.2c0.8-1.3,1.2-2.8,1.2-4.4c0-1.6-0.4-3.1-1.2-4.4c-0.8-1.3-1.9-2.4-3.2-3.2
		C435.7,282.9,434.2,282.5,432.6,282.5 M410.8,289.1v-6.6h-29.2v6.6h1.5v-5.2l10.6,0v27.2H391v1.5h10.3v-1.5h-2.6V284l10.6,0v5.2
		H410.8z M359.5,300.9l4.6-16.5l5.8,16.5H359.5z M379.2,311.1L369,282.4h-8.8v1.5h2.7l-7.7,27.3h-2.8v1.5h2.3h3.9v-1.5h-2.1l2.5-8.9
		h11.2l3.1,8.9h-2.1v1.5h10.1v-1.5H379.2z M325.6,312.6h23v-6.2h-1.3v4.7h-13.9v-13h8.7v-1.3h-8.7V284h13.9v4.7h1.3v-6.2h-23v1.5
		h2.6l0,27.2h-2.6V312.6z M319.8,289.1v-6.6h-29.2v6.6h1.5v-5.2l10.6,0v27.2H300v1.5h10.3v-1.5h-2.6V284l10.6,0v5.2H319.8z
		 M268,311.1v-28.6h-0.1l-21.4,20.8h0V284h2.6v-1.5h-6.6v1.5h2.6v28.6h0.1l21.4-21.7v20.3h-2.6v1.5h6.6v-1.5H268z M257.2,279.3
		c1.6,0,3-0.4,4.1-1.2c1.1-0.8,1.7-2,1.7-3.5h-1.5c0,0.9-0.4,1.7-1.1,2.3c-0.7,0.6-1.8,0.9-3.2,0.9c-1.4,0-2.5-0.3-3.2-0.9
		c-0.7-0.6-1.1-1.4-1.1-2.3h-1.5c0,1.5,0.6,2.7,1.7,3.5C254.3,278.9,255.6,279.3,257.2,279.3 M211,308.2c-0.2-0.2-0.3-0.4-0.3-0.6
		v-19.8c0-0.2,0.1-0.4,0.3-0.6c1.3-1.1,2.8-2,4.4-2.6c1.6-0.6,3.4-0.9,5.2-0.9c1.8,0,3.6,0.3,5.2,0.9c1.6,0.6,3.1,1.5,4.4,2.6
		c0.2,0.2,0.3,0.4,0.3,0.6v19.8c0,0.2-0.1,0.4-0.3,0.6c-1.3,1.1-2.8,2-4.4,2.6c-1.6,0.6-3.4,0.9-5.2,0.9c-1.8,0-3.6-0.3-5.2-0.9
		C213.7,310.2,212.3,309.4,211,308.2 M236.6,297.7L236.6,297.7c0-2.9-0.7-5.4-2.1-7.8c-1.4-2.4-3.4-4.3-5.8-5.7
		c-2.5-1.4-5.1-2.1-8-2.1c-2.9,0-5.6,0.7-8,2.1c-2.5,1.4-4.4,3.3-5.8,5.7c-1.4,2.4-2.1,5-2.1,7.8v0v0c0,2.8,0.7,5.4,2.1,7.7
		c1.4,2.4,3.4,4.3,5.8,5.7c2.5,1.4,5.1,2.1,8,2.1c2.9,0,5.6-0.7,8-2.1c2.5-1.4,4.4-3.3,5.8-5.7C235.9,303.1,236.6,300.5,236.6,297.7
		L236.6,297.7z M198,284v-1.5h-11.4v1.5h3.2v27.2H179V284h3.2v-1.5h-11.4v1.5h3v27.2h-10.8V284h3.2v-1.5h-11.4v1.5h3v27.2h-2.6v1.5
		h2.6h16h15.9h8.2v-1.5h-3V284H198z M133.7,296.3h7.9c1.3,0,2.4,0.3,3.5,0.9c0.3,0.2,0.6,0.5,0.8,0.9c0.2,0.3,0.3,0.7,0.3,1.2v1.3
		v7.8c0,0.5-0.1,0.9-0.3,1.2c-0.2,0.4-0.5,0.7-0.9,0.9c-0.9,0.5-2,0.7-3.4,0.7h-7.9V296.3z M141.6,312.6c1.6,0,3.1-0.4,4.4-1.2
		c1.3-0.8,2.4-1.9,3.2-3.2c0.8-1.3,1.2-2.8,1.2-4.4c0-1.6-0.4-3.1-1.2-4.4c-0.8-1.3-1.9-2.4-3.2-3.2c-1.3-0.8-2.8-1.2-4.4-1.2h-7.9
		V284h3v-1.5h-11.2v1.5h3v27.2H126v1.5H141.6z M118.7,311.1l-9.8-28.7h-8.6v1.5h2.6l-7.5,27.3h-2.6v1.5h2.2h3.8v-1.5h-2.1l7.4-26.7
		l9.1,26.7h-2v1.5h9.8v-1.5H118.7z M63.7,308.2c-0.2-0.2-0.3-0.4-0.3-0.6v-19.8c0-0.2,0.1-0.4,0.3-0.6c1.3-1.1,2.8-2,4.4-2.6
		c1.6-0.6,3.4-0.9,5.2-0.9c1.8,0,3.6,0.3,5.2,0.9c1.6,0.6,3.1,1.5,4.4,2.6c0.2,0.2,0.3,0.4,0.3,0.6v19.8c0,0.2-0.1,0.4-0.3,0.6
		c-1.3,1.1-2.8,2-4.4,2.6c-1.6,0.6-3.4,0.9-5.2,0.9c-1.8,0-3.6-0.3-5.2-0.9C66.5,310.2,65,309.4,63.7,308.2 M89.4,297.7L89.4,297.7
		c0-2.9-0.7-5.4-2.2-7.8c-1.4-2.4-3.4-4.3-5.8-5.7c-2.5-1.4-5.1-2.1-8-2.1c-2.9,0-5.6,0.7-8,2.1c-2.5,1.4-4.4,3.3-5.8,5.7
		c-1.4,2.4-2.1,5-2.1,7.8v0v0c0,2.8,0.7,5.4,2.1,7.7c1.4,2.4,3.4,4.3,5.8,5.7c2.5,1.4,5.1,2.1,8,2.1c2.9,0,5.6-0.7,8-2.1
		c2.5-1.4,4.4-3.3,5.8-5.7C88.7,303.1,89.4,300.5,89.4,297.7L89.4,297.7z M42.1,311.1h-4.3v-16.8h4.3c1.6,0,3.1,0.4,4.4,1.1
		c1.3,0.8,2.4,1.8,3.1,3.1c0.8,1.3,1.1,2.8,1.1,4.4c0,1.5-0.4,2.9-1.1,4.2c-0.8,1.2-1.8,2.2-3.1,2.9
		C45.1,310.8,43.7,311.1,42.1,311.1 M40.6,292.9h-2.8V284h10.7v4.7h1.3v-6.2h-1.3H30v1.5h2.6v27.2H30v1.5h12.1
		c1.9,0,3.7-0.4,5.2-1.3c1.5-0.9,2.8-2.1,3.6-3.6c0.9-1.5,1.3-3.1,1.3-4.8c0-2-0.5-3.7-1.4-5.2c-0.9-1.5-2.3-2.7-4.1-3.5
		C45,293.3,42.9,292.9,40.6,292.9"/>
	<path id="XMLID_6_" clip-path="url(#XMLID_272_)" fill="#1D1D1B" d="M397.3,167.5l9.8-34.9l12.2,34.9H397.3z M439,189.2l-21.4-60.8
		h-18.7v3.1h5.6l-16.3,57.7h-5.8v3.1h4.9h8.3v-3.1h-4.5l5.3-18.9h23.8l6.6,18.9h-4.4v3.1H444v-3.1H439z M359.2,189.2H350v-35.6h9.2
		c3.4,0,6.5,0.8,9.3,2.4c2.8,1.6,5,3.8,6.6,6.6c1.6,2.8,2.4,5.8,2.4,9.2c0,3.3-0.8,6.2-2.4,8.9c-1.6,2.6-3.8,4.7-6.6,6.2
		C365.7,188.4,362.6,189.2,359.2,189.2 M365.3,141.9c0,2.5-0.9,4.5-2.7,6.1c-1.8,1.6-4,2.4-6.6,2.4h-6v-18.8h6
		c1.6,0,3.2,0.5,4.6,1.5c1.4,1,2.6,2.3,3.4,3.9C364.8,138.6,365.3,140.2,365.3,141.9 M363.2,151.2c3.5-2.5,5.3-5.6,5.3-9.3
		c0-2.4-0.6-4.6-1.7-6.6c-1.2-2.1-2.7-3.7-4.5-4.9c-1.9-1.2-3.9-1.8-5.9-1.8h-22.7v3.1h5.5v57.5h-5.5v3.1h25.6c4.1,0,7.7-0.9,11-2.8
		c3.3-1.9,5.8-4.4,7.7-7.6c1.9-3.2,2.8-6.5,2.8-10.1c0-3.3-0.8-6.4-2.4-9.3c-1.6-2.9-3.7-5.3-6.4-7.3
		C369.2,153.2,366.3,151.9,363.2,151.2 M321.2,189.2l-20.2-34c3.6-2.9,6.6-6.3,8.7-10.4c2.2-4.1,3.4-8.4,3.7-13.1h6.6v-3.1h-13.7
		v3.1h3.9c-0.4,4.9-1.9,9.5-4.5,13.6c-2.6,4.2-6.1,7.5-10.4,10c-4.3,2.5-9,3.9-14.1,4.1v-27.8h5.5v-3.1H265v3.1h5.5v57.5H265v3.1
		h21.8v-3.1h-5.5v-26.7c3.5-0.2,7-0.9,10.6-2.2l16.6,28.8h-3.2v3.1h22.4v-3.1H321.2z M247.3,180.6l3.5,3.5c-2.6,2.1-5.6,3.6-8.8,4.7
		c-3.3,1.1-6.7,1.6-10.2,1.6c-3.9,0-7.6-0.7-11.1-2c-3.5-1.3-6.6-3.2-9.3-5.6c-0.4-0.4-0.6-0.9-0.6-1.4v-41.9c0-0.5,0.2-0.9,0.6-1.4
		c2.7-2.4,5.8-4.3,9.3-5.6c3.5-1.3,7.2-2,11.1-2c3.5,0,6.9,0.5,10.1,1.6c3.2,1.1,6.2,2.7,8.8,4.7l-3.5,3.5l2.2,2.2l5.9-5.8
		c-3.1-2.9-6.7-5.2-10.7-6.8c-4.1-1.6-8.3-2.5-12.8-2.5c-6.1,0-11.8,1.5-17,4.4c-5.2,2.9-9.3,6.9-12.3,12c-3,5.1-4.6,10.6-4.6,16.5
		c0,5.9,1.5,11.4,4.6,16.5c3,5,7.1,9,12.3,12c5.2,3,10.8,4.5,17,4.5c4.5,0,8.8-0.8,12.8-2.5c4.1-1.6,7.6-3.9,10.7-6.9l-5.9-5.8
		L247.3,180.6z M131,183c-0.4-0.4-0.6-0.9-0.6-1.4v-41.9c0-0.5,0.2-0.9,0.6-1.4c2.7-2.4,5.8-4.3,9.3-5.6c3.5-1.3,7.2-2,11.1-2
		c3.9,0,7.6,0.7,11.1,2c3.5,1.3,6.6,3.2,9.3,5.6c0.4,0.4,0.6,0.9,0.6,1.4v41.9c0,0.5-0.2,0.9-0.6,1.4c-2.7,2.4-5.8,4.3-9.3,5.6
		c-3.5,1.3-7.2,2-11.1,2c-3.9,0-7.6-0.7-11.1-2C136.9,187.3,133.8,185.4,131,183 M185.3,160.7L185.3,160.7c0-6-1.5-11.5-4.6-16.6
		c-3-5-7.1-9-12.3-12c-5.2-2.9-10.8-4.4-17-4.4c-6.1,0-11.8,1.5-17,4.4c-5.2,2.9-9.3,6.9-12.3,12c-3,5-4.5,10.5-4.5,16.5v0.1v0.1
		c0,5.9,1.5,11.3,4.5,16.4c3,5,7.1,9,12.3,12c5.2,3,10.8,4.5,17,4.5c6.1,0,11.8-1.5,17-4.5c5.2-3,9.3-7,12.3-12
		C183.8,172.1,185.3,166.7,185.3,160.7L185.3,160.7z M27.7,192.3h13.5v-3.1h-5.5v-56.4l24.7,59.8h2.1l23.9-56.4v53.1h-5.3v3.1h22.3
		v-3.1h-5.3v-57.5h5.3v-3.1h-17l-20.5,49l-20.1-49h-19v3.1h5.8l0.5,57.5h-5.5V192.3z"/>
</g>
<g id="XMLID_268_">
	<defs>
		<rect id="SVGID_1_" x="24.3" y="69.8" width="422.4" height="39.3"/>
	</defs>
	<clipPath id="SVGID_2_">
		<use xlink:href="#SVGID_1_"  overflow="visible"/>
	</clipPath>
	<g id="XMLID_270_" clip-path="url(#SVGID_2_)">
		<rect id="XMLID_271_" x="24.3" y="89.5" fill="#CC1719" width="422.4" height="3"/>
	</g>
</g>
<rect id="XMLID_267_" x="214" y="69.8" fill="#FFFFFF" width="39.3" height="39.3"/>
<polygon id="XMLID_3_" fill="#CC1719" points="229.9,91.7 227.6,98.6 233.5,94.3 239.5,98.6 237.2,91.7 243.1,87.4 235.8,87.4 
	233.5,80.4 231.3,87.4 224,87.4 "/>
</svg>
