<?xml version="1.0" encoding="utf-8"?>
<!-- Generator: Adobe Illustrator 19.0.0, SVG Export Plug-In . SVG Version: 6.00 Build 0)  -->
<svg version="1.1" id="Layer_1" xmlns="http://www.w3.org/2000/svg" xmlns:xlink="http://www.w3.org/1999/xlink" x="0px" y="0px"
	 viewBox="0 0 449.8 595.3" enable-background="new 0 0 449.8 595.3" xml:space="preserve">
<g id="XMLID_19_">
	<path id="XMLID_333_" d="M53.1,164v2.1H38.7V164h2.9l-4.5-12.7H21.2L17.7,164h3v2.1h-5.6h-3.3V164h3.9l10.9-38.7h-3.8v-2.1h12.5
		L49.7,164H53.1z M36.5,149.5l-8.2-23.4l-6.6,23.4H36.5z"/>
	<path id="XMLID_336_" d="M59.2,164h3.7l-0.4-38.6h-3.9v-2.1h12.7l13.5,32.8l13.7-32.8h11.4v2.1h-3.5V164h3.5v2.1H95V164h3.5v-35.6
		l-16,37.8h-1.4l-16.5-40.1V164h3.7v2.1h-9V164z"/>
	<path id="XMLID_338_" d="M147.8,146.7c1.2,0.8,2.1,1.9,3,3.2c0.8,1.3,1.2,2.9,1.2,4.7c0,2.6-0.8,4.8-2.3,6.7
		c-1.6,1.9-3.7,3.3-6.3,4.2c-2.6,1-5.6,1.4-8.8,1.4c-8,0-14-3.7-17.9-11l4.2-4.1l1.6,1.3l-3.2,3.2c1.8,2.8,3.9,5,6.2,6.4
		c2.3,1.4,5.2,2.2,8.6,2.2c2.4,0,4.7-0.3,7-0.9c2.3-0.6,4.1-1.5,5.5-2.7c1.4-1.2,2.1-2.5,2.1-4c0-0.9-0.4-1.8-1.3-2.6
		c-0.9-0.8-2.1-1.5-3.6-2.3l-19.1-9.4c-2.3-1.2-3.9-2.4-4.9-3.7c-1-1.2-1.5-2.8-1.5-4.7c0-2.2,0.8-4.2,2.5-6
		c1.6-1.9,3.9-3.3,6.6-4.5c2.8-1.1,5.8-1.7,9-1.7c2.6,0,5.3,0.6,8,1.8c2.7,1.2,4.9,2.8,6.5,4.8l-4,3.9l-1.5-1.5l2.6-2.6
		c-1.6-1.3-3.4-2.4-5.4-3.2c-2-0.8-4.1-1.2-6.3-1.2c-2.8,0-5.4,0.4-7.6,1.2c-2.2,0.8-3.9,1.7-5.1,2.8c-1.2,1.1-1.8,2.1-1.8,3.1
		c0,0.9,0.4,1.6,1.1,2.2c0.7,0.6,1.5,1.1,2.4,1.6c0.9,0.5,1.4,0.8,1.7,0.9l16.3,7.9C145.2,145.1,146.7,145.9,147.8,146.7z"/>
	<path id="XMLID_340_" d="M195,132.7v-7.3l-15,0.1V164h3.7v2.1H169V164h3.7v-38.6l-15-0.1v7.3h-2.1v-9.3h41.5v9.3H195z"/>
	<path id="XMLID_342_" d="M205.3,164h3.7l0.1-38.6h-3.7v-2.1H238v8.8h-1.8v-6.7h-19.8v18.3h12.4v1.8h-12.4V164h19.8v-6.7h1.8v8.8
		h-32.6V164z"/>
	<path id="XMLID_344_" d="M285.3,164v2.1h-3.7c-2.1,0-3.8-0.8-5.2-2.3c-1.4-1.6-2.1-3.6-2.1-6.1v-9.8c-1.3,0.5-2.7,0.7-4.2,0.7
		h-11.2V164h4.3v2.1h-15.9V164h4.3v-38.6H248v-2.1h22.1c2.3,0,4.4,0.6,6.3,1.7c1.9,1.1,3.4,2.7,4.5,4.6c1.1,1.9,1.7,4,1.7,6.3
		c0,2.2-0.5,4.2-1.6,6.1c-1,1.9-2.5,3.4-4.2,4.5c1.3,0.7,2.4,1.7,3.4,2.9c1,1.2,1.4,2.8,1.4,4.7v9.9H285.3z M270.1,146.4
		c1.8,0,3.4-0.4,4.9-1.2c0.5-0.3,0.9-0.7,1.1-1.2c0.3-0.5,0.4-1,0.4-1.6v-11.1v-1.8c0-0.6-0.2-1.2-0.5-1.7c-0.3-0.5-0.7-0.9-1.3-1.3
		c-1.3-0.6-2.8-1-4.8-1h-11.2v21H270.1z"/>
	<path id="XMLID_347_" d="M294.1,164h3.7v-38.6h-3.7v-2.1h17.2c4.1,0,7.9,0.9,11.4,2.8c3.5,1.9,6.2,4.4,8.3,7.7c2,3.3,3,6.9,3,10.9
		c0,4-1,7.6-3,10.8c-2,3.2-4.8,5.8-8.3,7.7c-3.5,1.9-7.3,2.8-11.4,2.8h-17.2V164z M311.3,164c3.7,0,7.2-0.8,10.3-2.5
		c3.2-1.7,5.6-4,7.5-6.9c1.8-2.9,2.7-6.2,2.7-9.8c0-3.6-0.9-6.9-2.7-9.9c-1.8-2.9-4.3-5.3-7.5-7c-3.2-1.7-6.6-2.5-10.3-2.5h-6.2V164
		H311.3z"/>
	<path id="XMLID_350_" d="M376.5,164v2.1h-14.4V164h2.9l-4.5-12.7h-15.9l-3.5,12.7h3v2.1h-5.6h-3.3V164h3.9l10.9-38.7h-3.8v-2.1
		h12.5l14.3,40.7H376.5z M360,149.5l-8.2-23.4l-6.6,23.4H360z"/>
	<path id="XMLID_353_" d="M382.6,164h3.7l-0.4-38.6H382v-2.1h12.7l13.5,32.8l13.7-32.8h11.4v2.1h-3.5V164h3.5v2.1h-14.9V164h3.5
		v-35.6l-16,37.8h-1.4L388,126.2V164h3.7v2.1h-9V164z"/>
</g>
<g id="XMLID_18_">
	<path id="XMLID_281_" d="M26.6,471.9v0.8h-5.7v-0.8h0.9l-5.6-7.3l-1.6,1.4v5.9H16v0.8h-5.5v-0.8h1.4v-14.5h-1.4v-0.8H16v0.8h-1.4
		v7.7l7.5-7.7H21v-0.8h3.5v0.8h-1.3l-5,5.4l6.8,9.2H26.6z"/>
	<path id="XMLID_283_" d="M27.5,472.6V472h1.6v-14.7h-1.6v-0.7h6v0.7h-1.6V472h1.6v0.7H27.5z"/>
	<path id="XMLID_285_" d="M52.4,456.5v0.8H51v15.4h0L39.1,461v10.8h1.4v0.8h-3.5v-0.8h1.4v-14.5h-1.4v-0.8h2.2l11.2,11.1h0v-10.4
		h-1.4v-0.8H52.4z"/>
	<path id="XMLID_287_" d="M70.7,469.3c-0.8,1.1-1.8,2-3.1,2.7c-1.2,0.7-2.6,1-4,1c-1.5,0-3-0.4-4.3-1.1c-1.3-0.8-2.4-1.8-3.1-3
		c-0.8-1.3-1.2-2.7-1.2-4.2c0-1.5,0.4-2.9,1.2-4.2c0.8-1.3,1.8-2.3,3.1-3c1.3-0.7,2.7-1.1,4.3-1.1c1,0,2,0.2,2.9,0.5
		c0.9,0.3,1.8,0.8,2.5,1.4l-1.8,1.7l-0.6-0.6l1.1-1.1c-1.3-0.8-2.7-1.2-4.2-1.2c-1,0-1.9,0.2-2.8,0.5c-0.9,0.3-1.7,0.8-2.4,1.4
		c-0.1,0.1-0.2,0.2-0.2,0.3V470c0,0.1,0.1,0.2,0.2,0.3c0.7,0.6,1.5,1.1,2.4,1.4c0.9,0.3,1.8,0.5,2.8,0.5c1,0,1.9-0.2,2.8-0.5
		c0.9-0.3,1.7-0.8,2.4-1.4c0.1-0.1,0.2-0.2,0.2-0.3v-3.7h-2.1v-0.7h5.3C72,466.9,71.5,468.2,70.7,469.3z"/>
	<path id="XMLID_289_" d="M74.8,471.9h1.4v-14.5h-1.4v-0.8h6.5c1.5,0,3,0.4,4.3,1.1s2.3,1.7,3.1,2.9c0.8,1.2,1.1,2.6,1.1,4.1
		c0,1.5-0.4,2.9-1.1,4.1c-0.8,1.2-1.8,2.2-3.1,2.9s-2.7,1.1-4.3,1.1h-6.5V471.9z M81.3,471.9c1.4,0,2.7-0.3,3.9-0.9
		c1.2-0.6,2.1-1.5,2.8-2.6c0.7-1.1,1-2.3,1-3.7c0-1.4-0.3-2.6-1-3.7c-0.7-1.1-1.6-2-2.8-2.6c-1.2-0.6-2.5-1-3.9-1h-2.3v14.5H81.3z"
		/>
	<path id="XMLID_292_" d="M109.3,464.7c0,1.5-0.4,2.9-1.1,4.1c-0.8,1.3-1.8,2.3-3.1,3c-1.3,0.8-2.7,1.1-4.3,1.1
		c-1.5,0-3-0.4-4.3-1.1c-1.3-0.8-2.4-1.8-3.1-3c-0.8-1.3-1.2-2.7-1.2-4.1v0v0c0-1.5,0.4-2.9,1.2-4.2c0.8-1.3,1.8-2.3,3.1-3
		c1.3-0.7,2.7-1.1,4.3-1.1c1.5,0,3,0.4,4.3,1.1c1.3,0.7,2.3,1.8,3.1,3C108.9,461.7,109.3,463.1,109.3,464.7L109.3,464.7L109.3,464.7
		z M97.9,471.7c0.9,0.3,1.8,0.5,2.8,0.5c1,0,1.9-0.2,2.8-0.5c0.9-0.3,1.7-0.8,2.4-1.4c0.1-0.1,0.2-0.2,0.2-0.3v-10.6
		c0-0.1-0.1-0.2-0.2-0.3c-0.7-0.6-1.5-1.1-2.4-1.4s-1.8-0.5-2.8-0.5c-1,0-1.9,0.2-2.8,0.5c-0.9,0.3-1.7,0.8-2.4,1.4
		c-0.1,0.1-0.2,0.2-0.2,0.3V470c0,0.1,0.1,0.2,0.2,0.3C96.3,470.9,97,471.4,97.9,471.7z"/>
	<path id="XMLID_295_" d="M111.6,471.9h1.4l-0.1-14.5h-1.5v-0.8h4.8l5.1,12.4l5.2-12.4h4.3v0.8h-1.3v14.5h1.3v0.8h-5.6v-0.8h1.3
		v-13.4l-6,14.3h-0.5l-6.2-15.1v14.3h1.4v0.8h-3.4V471.9z"/>
	<path id="XMLID_297_" d="M160.6,464.7c0,1.5-0.4,2.9-1.1,4.1c-0.8,1.3-1.8,2.3-3.1,3c-1.3,0.8-2.7,1.1-4.3,1.1
		c-1.5,0-3-0.4-4.3-1.1c-1.3-0.8-2.4-1.8-3.1-3c-0.8-1.3-1.2-2.7-1.2-4.1v0v0c0-1.5,0.4-2.9,1.2-4.2c0.8-1.3,1.8-2.3,3.1-3
		c1.3-0.7,2.7-1.1,4.3-1.1c1.5,0,3,0.4,4.3,1.1c1.3,0.7,2.3,1.8,3.1,3C160.2,461.7,160.6,463.1,160.6,464.7L160.6,464.7L160.6,464.7
		z M149.2,471.7c0.9,0.3,1.8,0.5,2.8,0.5c1,0,1.9-0.2,2.8-0.5c0.9-0.3,1.7-0.8,2.4-1.4c0.1-0.1,0.2-0.2,0.2-0.3v-10.6
		c0-0.1-0.1-0.2-0.2-0.3c-0.7-0.6-1.5-1.1-2.4-1.4s-1.8-0.5-2.8-0.5c-1,0-1.9,0.2-2.8,0.5c-0.9,0.3-1.7,0.8-2.4,1.4
		c-0.1,0.1-0.2,0.2-0.2,0.3V470c0,0.1,0.1,0.2,0.2,0.3C147.6,470.9,148.4,471.4,149.2,471.7z"/>
	<path id="XMLID_300_" d="M163.9,471.9h1.4l0-14.5h-1.4v-0.8h11.7v3.3H175v-2.5h-6.9v6.9h3.6v0.7h-3.7v6.9h1.9v0.8h-6V471.9z"/>
	<path id="XMLID_302_" d="M199.8,460.1v-2.8l-5.7,0v14.5h1.4v0.8H190v-0.8h1.4v-14.5l-5.7,0v2.8H185v-3.5h15.6v3.5H199.8z"/>
	<path id="XMLID_304_" d="M203.7,472.6v-0.8h1.6v-14.5h-1.6v-0.8h6.1v0.8h-1.7v6.9h8.1v-6.9h-1.7v-0.8h6.1v0.8h-1.6v14.5h1.6v0.8
		h-6.1v-0.8h1.7v-6.9h-8.1v6.9h1.7v0.8H203.7z"/>
	<path id="XMLID_306_" d="M224.6,471.9h1.4l0-14.5h-1.4v-0.8H237v3.3h-0.7v-2.5h-7.5v6.9h4.7v0.7h-4.7v6.9h7.5v-2.5h0.7v3.3h-12.3
		V471.9z"/>
	<path id="XMLID_308_" d="M264.3,456.5v0.8h-1.4v15.4h0L251,461v10.8h1.4v0.8h-3.5v-0.8h1.4v-14.5h-1.4v-0.8h2.2l11.2,11.1h0v-10.4
		h-1.4v-0.8H264.3z"/>
	<path id="XMLID_310_" d="M267.3,471.9h1.4l0-14.5h-1.4v-0.8h12.3v3.3h-0.7v-2.5h-7.5v6.9h4.7v0.7h-4.7v6.9h7.5v-2.5h0.7v3.3h-12.3
		V471.9z"/>
	<path id="XMLID_312_" d="M297,460.1v-2.8l-5.7,0v14.5h1.4v0.8h-5.5v-0.8h1.4v-14.5l-5.7,0v2.8h-0.8v-3.5h15.6v3.5H297z"/>
	<path id="XMLID_314_" d="M300.8,472.6v-0.8h1.6v-14.5h-1.6v-0.8h6.1v0.8h-1.7v6.9h8.1v-6.9h-1.7v-0.8h6.1v0.8H316v14.5h1.6v0.8
		h-6.1v-0.8h1.7v-6.9h-8.1v6.9h1.7v0.8H300.8z"/>
	<path id="XMLID_316_" d="M321.8,471.9h1.4l0-14.5h-1.4v-0.8h12.3v3.3h-0.7v-2.5H326v6.9h4.7v0.7H326v6.9h7.5v-2.5h0.7v3.3h-12.3
		V471.9z"/>
	<path id="XMLID_318_" d="M351.9,471.9v0.8h-1.4c-0.8,0-1.4-0.3-2-0.9c-0.5-0.6-0.8-1.4-0.8-2.3v-3.7c-0.5,0.2-1,0.3-1.6,0.3H342
		v5.8h1.6v0.8h-6v-0.8h1.6v-14.5h-1.4v-0.8h8.3c0.9,0,1.6,0.2,2.4,0.6c0.7,0.4,1.3,1,1.7,1.7c0.4,0.7,0.6,1.5,0.6,2.4
		c0,0.8-0.2,1.6-0.6,2.3c-0.4,0.7-0.9,1.3-1.6,1.7c0.5,0.3,0.9,0.6,1.3,1.1s0.5,1.1,0.5,1.8v3.7H351.9z M346.2,465.2
		c0.7,0,1.3-0.2,1.9-0.5c0.2-0.1,0.3-0.3,0.4-0.5c0.1-0.2,0.1-0.4,0.1-0.6v-4.2v-0.7c0-0.2-0.1-0.5-0.2-0.7
		c-0.1-0.2-0.3-0.3-0.5-0.5c-0.5-0.2-1.1-0.4-1.8-0.4H342v7.9H346.2z"/>
	<path id="XMLID_321_" d="M355.3,471.9h1.4v-14.5h-1.4v-0.8h5.9v0.8h-1.7v14.5h7.7v-2.4h0.8v3.2h-12.6V471.9z"/>
	<path id="XMLID_323_" d="M384.9,471.9v0.8h-5.4v-0.8h1.1l-1.7-4.8h-6l-1.3,4.8h1.1v0.8h-2.1h-1.2v-0.8h1.5l4.1-14.6h-1.4v-0.8h4.7
		l5.4,15.4H384.9z M378.7,466.4l-3.1-8.8l-2.5,8.8H378.7z"/>
	<path id="XMLID_326_" d="M402.4,456.5v0.8H401v15.4h0L389,461v10.8h1.4v0.8h-3.5v-0.8h1.4v-14.5h-1.4v-0.8h2.2l11.2,11.1h0v-10.4
		h-1.4v-0.8H402.4z"/>
	<path id="XMLID_328_" d="M405.4,471.9h1.4v-14.5h-1.4v-0.8h6.5c1.5,0,3,0.4,4.3,1.1s2.3,1.7,3.1,2.9c0.8,1.2,1.1,2.6,1.1,4.1
		c0,1.5-0.4,2.9-1.1,4.1c-0.8,1.2-1.8,2.2-3.1,2.9s-2.7,1.1-4.3,1.1h-6.5V471.9z M411.8,471.9c1.4,0,2.7-0.3,3.9-0.9
		c1.2-0.6,2.1-1.5,2.8-2.6c0.7-1.1,1-2.3,1-3.7c0-1.4-0.3-2.6-1-3.7c-0.7-1.1-1.6-2-2.8-2.6c-1.2-0.6-2.5-1-3.9-1h-2.3v14.5H411.8z"
		/>
	<path id="XMLID_331_" d="M433.4,465.4c0.4,0.3,0.8,0.7,1.1,1.2c0.3,0.5,0.5,1.1,0.5,1.8c0,1-0.3,1.8-0.9,2.5s-1.4,1.2-2.4,1.6
		c-1,0.4-2.1,0.5-3.3,0.5c-3,0-5.3-1.4-6.8-4.2l1.6-1.5l0.6,0.5l-1.2,1.2c0.7,1.1,1.5,1.9,2.3,2.4c0.9,0.5,2,0.8,3.3,0.8
		c0.9,0,1.8-0.1,2.6-0.4c0.9-0.2,1.5-0.6,2.1-1c0.5-0.4,0.8-0.9,0.8-1.5c0-0.4-0.2-0.7-0.5-1c-0.3-0.3-0.8-0.6-1.3-0.9l-7.2-3.5
		c-0.9-0.5-1.5-0.9-1.8-1.4c-0.4-0.5-0.6-1.1-0.6-1.8c0-0.8,0.3-1.6,0.9-2.3c0.6-0.7,1.5-1.3,2.5-1.7c1-0.4,2.2-0.6,3.4-0.6
		c1,0,2,0.2,3,0.7c1,0.4,1.8,1.1,2.5,1.8l-1.5,1.5l-0.6-0.6l1-1c-0.6-0.5-1.3-0.9-2-1.2c-0.8-0.3-1.5-0.5-2.4-0.5
		c-1.1,0-2,0.1-2.9,0.4c-0.8,0.3-1.5,0.6-1.9,1.1c-0.5,0.4-0.7,0.8-0.7,1.2c0,0.3,0.1,0.6,0.4,0.8c0.3,0.2,0.6,0.4,0.9,0.6
		c0.3,0.2,0.5,0.3,0.6,0.3l6.1,3C432.4,464.7,433,465,433.4,465.4z"/>
</g>
<g id="XMLID_17_">
	<path id="XMLID_252_" d="M44.1,295.5v1.6H32.8v-1.6h1.7l-11.1-14.6l-3.1,2.8v11.8H23v1.6H12v-1.6h2.8v-29.1H12v-1.6h11v1.6h-2.8
		v15.4l14.9-15.4h-2.3v-1.6h6.9v1.6h-2.6l-9.9,10.8L41,295.5H44.1z"/>
	<path id="XMLID_254_" d="M46,295.5h2.8l0-29.1h-2.8v-1.6h24.6v6.6h-1.4v-5.1H54.4v13.8h9.3v1.4h-9.3v13.9h14.9v-5.1h1.4v6.6H46
		V295.5z"/>
	<path id="XMLID_256_" d="M77.7,297v-1.4h3.2v-29.4h-3.2v-1.4h12v1.4h-3.2v29.4h3.2v1.4H77.7z"/>
	<path id="XMLID_258_" d="M94.1,295.5l18.4-29.1H95.7v2.8h-1.7v-4.3h24.2v1.6l-18.4,29.1h16.9v-2.8h1.5v4.3H94.1V295.5z"/>
	<path id="XMLID_260_" d="M123.4,295.5h2.8l0-29.1h-2.8v-1.6H148v6.6h-1.4v-5.1h-14.9v13.8h9.3v1.4h-9.3v13.9h14.9v-5.1h1.4v6.6
		h-24.6V295.5z"/>
	<path id="XMLID_262_" d="M183.7,295.5v1.6h-2.8c-1.6,0-2.9-0.6-3.9-1.8c-1.1-1.2-1.6-2.7-1.6-4.6v-7.4c-1,0.4-2.1,0.6-3.2,0.6h-8.4
		v11.7h3.2v1.6h-12v-1.6h3.2v-29.1h-2.8v-1.6h16.7c1.7,0,3.3,0.4,4.7,1.3c1.4,0.9,2.6,2,3.4,3.5c0.8,1.4,1.3,3,1.3,4.7
		c0,1.7-0.4,3.2-1.2,4.6c-0.8,1.4-1.8,2.5-3.2,3.4c1,0.5,1.8,1.2,2.6,2.2c0.7,0.9,1.1,2.1,1.1,3.5v7.5H183.7z M172.3,282.2
		c1.3,0,2.6-0.3,3.7-0.9c0.4-0.2,0.7-0.6,0.9-0.9c0.2-0.4,0.3-0.8,0.3-1.2v-8.4v-1.4c0-0.5-0.1-0.9-0.3-1.3
		c-0.2-0.4-0.5-0.7-0.9-0.9c-1-0.5-2.1-0.7-3.6-0.7h-8.4v15.8H172.3z"/>
	<path id="XMLID_265_" d="M211.6,282.5c0.9,0.6,1.6,1.4,2.2,2.4c0.6,1,0.9,2.2,0.9,3.5c0,2-0.6,3.7-1.8,5.1
		c-1.2,1.4-2.8,2.5-4.8,3.2c-2,0.7-4.2,1.1-6.6,1.1c-6,0-10.5-2.8-13.5-8.3l3.2-3.1l1.2,1l-2.4,2.4c1.4,2.1,2.9,3.8,4.7,4.9
		c1.7,1.1,3.9,1.6,6.5,1.6c1.8,0,3.6-0.2,5.3-0.7c1.7-0.5,3.1-1.2,4.1-2s1.6-1.9,1.6-3c0-0.7-0.3-1.3-1-1.9
		c-0.7-0.6-1.6-1.2-2.7-1.7l-14.4-7.1c-1.7-0.9-2.9-1.8-3.7-2.8s-1.1-2.1-1.1-3.6c0-1.6,0.6-3.1,1.9-4.5c1.2-1.4,2.9-2.5,5-3.4
		c2.1-0.8,4.4-1.3,6.8-1.3c2,0,4,0.4,6,1.3c2.1,0.9,3.7,2.1,4.9,3.6l-3,2.9l-1.1-1.1l2-1.9c-1.2-1-2.6-1.8-4.1-2.4
		c-1.5-0.6-3.1-0.9-4.7-0.9c-2.1,0-4,0.3-5.7,0.9c-1.7,0.6-2.9,1.3-3.8,2.1c-0.9,0.8-1.4,1.6-1.4,2.3c0,0.7,0.3,1.2,0.8,1.7
		c0.6,0.4,1.2,0.8,1.8,1.2c0.7,0.4,1.1,0.6,1.3,0.7l12.3,6C209.6,281.2,210.7,281.8,211.6,282.5z"/>
	<path id="XMLID_267_" d="M252,290.4c-1.6,2.3-3.6,4.1-6.1,5.4c-2.5,1.3-5.2,2-8.1,2c-3.1,0-6-0.8-8.6-2.3c-2.6-1.5-4.7-3.5-6.2-6.1
		c-1.5-2.5-2.3-5.3-2.3-8.3c0-3,0.8-5.8,2.3-8.3c1.5-2.6,3.6-4.6,6.2-6.1s5.5-2.2,8.6-2.2c2,0,4,0.3,5.8,1c1.9,0.7,3.6,1.6,5.1,2.8
		l-3.6,3.5l-1.1-1.1l2.3-2.2c-2.6-1.6-5.4-2.4-8.5-2.4c-2,0-3.8,0.3-5.6,1c-1.8,0.7-3.3,1.6-4.7,2.8c-0.2,0.2-0.3,0.4-0.3,0.7v21.2
		c0,0.2,0.1,0.5,0.3,0.7c1.4,1.2,3,2.2,4.7,2.8c1.8,0.7,3.6,1,5.6,1c2,0,3.8-0.3,5.6-1c1.8-0.7,3.3-1.6,4.7-2.8
		c0.2-0.2,0.3-0.4,0.3-0.7v-7.4h-4.1v-1.4h10.5C254.5,285.6,253.6,288.1,252,290.4z"/>
	<path id="XMLID_269_" d="M288.7,295.5v1.6H286c-1.6,0-2.9-0.6-3.9-1.8c-1.1-1.2-1.6-2.7-1.6-4.6v-7.4c-1,0.4-2.1,0.6-3.2,0.6h-8.4
		v11.7h3.2v1.6h-12v-1.6h3.2v-29.1h-2.8v-1.6h16.7c1.7,0,3.3,0.4,4.7,1.3c1.4,0.9,2.6,2,3.4,3.5c0.8,1.4,1.3,3,1.3,4.7
		c0,1.7-0.4,3.2-1.2,4.6c-0.8,1.4-1.8,2.5-3.2,3.4c1,0.5,1.8,1.2,2.6,2.2c0.7,0.9,1.1,2.1,1.1,3.5v7.5H288.7z M277.3,282.2
		c1.3,0,2.6-0.3,3.7-0.9c0.4-0.2,0.7-0.6,0.9-0.9c0.2-0.4,0.3-0.8,0.3-1.2v-8.4v-1.4c0-0.5-0.1-0.9-0.3-1.3
		c-0.2-0.4-0.5-0.7-0.9-0.9c-1-0.5-2.1-0.7-3.6-0.7h-8.4v15.8H277.3z"/>
	<path id="XMLID_272_" d="M323,295.5v1.6h-10.9v-1.6h2.2l-3.4-9.6h-12l-2.7,9.6h2.3v1.6h-4.2h-2.5v-1.6h2.9l8.2-29.2h-2.9v-1.6h9.4
		l10.8,30.7H323z M310.6,284.5l-6.2-17.7l-5,17.7H310.6z"/>
	<path id="XMLID_275_" d="M352.3,290l3,2.9c-1.6,1.5-3.4,2.7-5.4,3.5c-2.1,0.8-4.2,1.2-6.5,1.2c-3.1,0-6-0.8-8.6-2.3
		c-2.6-1.5-4.7-3.5-6.2-6.1c-1.5-2.5-2.3-5.3-2.3-8.3c0-3,0.8-5.8,2.3-8.3c1.5-2.6,3.6-4.6,6.2-6.1s5.5-2.2,8.6-2.2
		c2.3,0,4.4,0.4,6.5,1.2c2.1,0.8,3.9,2,5.4,3.5l-3,2.9l-1.1-1.1l1.7-1.7c-1.3-1-2.8-1.8-4.5-2.4c-1.6-0.6-3.3-0.8-5.1-0.8
		c-2,0-3.8,0.3-5.6,1c-1.8,0.7-3.3,1.6-4.7,2.8c-0.2,0.2-0.3,0.4-0.3,0.7v21.2c0,0.2,0.1,0.5,0.3,0.7c1.4,1.2,3,2.2,4.7,2.8
		c1.8,0.7,3.6,1,5.6,1c1.8,0,3.5-0.3,5.2-0.8c1.7-0.6,3.1-1.3,4.5-2.4l-1.8-1.8L352.3,290z"/>
	<path id="XMLID_277_" d="M360.2,297v-1.6h3.2v-29.1h-3.2v-1.6h12.2v1.6h-3.5v13.8H385v-13.8h-3.5v-1.6h12.2v1.6h-3.2v29.1h3.2v1.6
		h-12.2v-1.6h3.5v-13.8h-16.1v13.8h3.5v1.6H360.2z"/>
	<path id="XMLID_279_" d="M427.9,271.9v-5.5l-11.3,0v29.1h2.8v1.6h-11v-1.6h2.8v-29.1l-11.3,0v5.5h-1.6v-7h31.3v7H427.9z"/>
</g>
<g id="XMLID_16_">
	<path id="XMLID_224_" d="M35.5,392H33l-7.7,24.9h-4.8L11.3,392H8.7v-1.3h9.1v1.3h-1.6l8.4,23.2l7.3-23.2H30v-1.3h5.4V392z"/>
	<path id="XMLID_226_" d="M60.5,415.4v1.3h-8.7v-1.3h1.8l-2.7-7.7h-9.7l-2.1,7.7h1.8v1.3h-3.4h-2v-1.3h2.4l6.6-23.5h-2.3v-1.3h7.6
		l8.7,24.7H60.5z M50.5,406.6l-5-14.2l-4,14.2H50.5z"/>
	<path id="XMLID_229_" d="M88.5,390.7v1.3h-2.2v24.8h-0.1L67.1,398v17.4h2.2v1.3h-5.7v-1.3h2.2V392h-2.2v-1.3h3.5l18,17.9h0V392
		h-2.2v-1.3H88.5z"/>
	<path id="XMLID_231_" d="M134.2,411.3c-1.3,1.8-2.9,3.3-4.9,4.3c-2,1.1-4.2,1.6-6.5,1.6c-2.5,0-4.8-0.6-6.9-1.8
		c-2.1-1.2-3.8-2.8-5-4.9c-1.2-2-1.9-4.3-1.9-6.7c0-2.4,0.6-4.7,1.9-6.7c1.2-2.1,2.9-3.7,5-4.9c2.1-1.2,4.4-1.8,6.9-1.8
		c1.6,0,3.2,0.3,4.7,0.8c1.5,0.5,2.9,1.3,4.1,2.3l-2.9,2.8l-0.9-0.9l1.8-1.8c-2.1-1.3-4.4-2-6.8-2c-1.6,0-3.1,0.3-4.5,0.8
		c-1.4,0.5-2.7,1.3-3.8,2.3c-0.2,0.2-0.3,0.4-0.3,0.6v17c0,0.2,0.1,0.4,0.3,0.6c1.1,1,2.4,1.7,3.8,2.3c1.4,0.5,2.9,0.8,4.5,0.8
		c1.6,0,3.1-0.3,4.5-0.8s2.7-1.3,3.8-2.3c0.2-0.2,0.3-0.4,0.3-0.6v-6H128v-1.1h8.5C136.3,407.4,135.5,409.4,134.2,411.3z"/>
	<path id="XMLID_233_" d="M168.5,403.8c0,2.4-0.6,4.6-1.9,6.7c-1.2,2-2.9,3.7-5,4.9c-2.1,1.2-4.4,1.8-6.9,1.8
		c-2.5,0-4.8-0.6-6.9-1.8c-2.1-1.2-3.8-2.8-5-4.9c-1.2-2-1.9-4.3-1.9-6.7v0v0c0-2.4,0.6-4.6,1.9-6.7c1.2-2,2.9-3.7,5-4.9
		c2.1-1.2,4.4-1.8,6.9-1.8c2.5,0,4.8,0.6,6.9,1.8s3.8,2.8,5,4.9C167.9,399.1,168.5,401.3,168.5,403.8L168.5,403.8L168.5,403.8z
		 M150.2,415.1c1.4,0.5,2.9,0.8,4.5,0.8c1.6,0,3.1-0.3,4.5-0.8s2.7-1.3,3.8-2.3c0.2-0.2,0.3-0.4,0.3-0.6v-17c0-0.2-0.1-0.4-0.3-0.6
		c-1.1-1-2.4-1.7-3.8-2.3c-1.4-0.5-2.9-0.8-4.5-0.8c-1.6,0-3.1,0.3-4.5,0.8c-1.4,0.5-2.7,1.3-3.8,2.3c-0.2,0.2-0.3,0.4-0.3,0.6v17
		c0,0.2,0.1,0.4,0.3,0.6C147.5,413.8,148.8,414.6,150.2,415.1z"/>
	<path id="XMLID_236_" d="M200.3,411.3c-1.3,1.8-2.9,3.3-4.9,4.3c-2,1.1-4.2,1.6-6.5,1.6c-2.5,0-4.8-0.6-6.9-1.8
		c-2.1-1.2-3.8-2.8-5-4.9c-1.2-2-1.9-4.3-1.9-6.7c0-2.4,0.6-4.7,1.9-6.7c1.2-2.1,2.9-3.7,5-4.9c2.1-1.2,4.4-1.8,6.9-1.8
		c1.6,0,3.2,0.3,4.7,0.8c1.5,0.5,2.9,1.3,4.1,2.3l-2.9,2.8l-0.9-0.9l1.8-1.8c-2.1-1.3-4.4-2-6.8-2c-1.6,0-3.1,0.3-4.5,0.8
		c-1.4,0.5-2.7,1.3-3.8,2.3c-0.2,0.2-0.3,0.4-0.3,0.6v17c0,0.2,0.1,0.4,0.3,0.6c1.1,1,2.4,1.7,3.8,2.3c1.4,0.5,2.9,0.8,4.5,0.8
		c1.6,0,3.1-0.3,4.5-0.8s2.7-1.3,3.8-2.3c0.2-0.2,0.3-0.4,0.3-0.6v-6h-3.3v-1.1h8.5C202.4,407.4,201.6,409.4,200.3,411.3z"/>
	<path id="XMLID_238_" d="M206.9,416.6v-1.3h2.6V392h-2.6v-1.3h9.8v1.3h-2.8v11.1h13V392h-2.8v-1.3h9.8v1.3h-2.6v23.4h2.6v1.3h-9.8
		v-1.3h2.8v-11.1h-13v11.1h2.8v1.3H206.9z"/>
	<path id="XMLID_240_" d="M253.3,415.4h2.2l-0.2-23.4H253v-1.3h7.7l8.2,19.9l8.3-19.9h6.9v1.3H282v23.4h2.1v1.3H275v-1.3h2.1v-21.6
		l-9.7,22.9h-0.9l-10-24.3v22.9h2.2v1.3h-5.5V415.4z"/>
	<path id="XMLID_242_" d="M316.2,392H314v12.9c0,2.6-0.6,4.8-1.7,6.6c-1.1,1.9-2.6,3.3-4.4,4.2s-3.7,1.4-5.7,1.5
		c-2,0-3.9-0.5-5.7-1.5s-3.3-2.3-4.4-4.2c-1.1-1.8-1.7-4.1-1.7-6.6V392H288v-1.3h6.7h2.2v1.3h-2.2v20.6v0.1c0,0.2,0.1,0.4,0.2,0.5
		c1,0.9,2.1,1.6,3.3,2c1.3,0.5,2.6,0.7,3.9,0.7c1.3,0,2.6-0.3,3.9-0.7c1.3-0.5,2.4-1.1,3.3-2c0.2-0.2,0.2-0.4,0.2-0.6V392h-2.2v-1.3
		h8.9V392z"/>
	<path id="XMLID_244_" d="M338.3,404.9c0.7,0.5,1.3,1.1,1.8,1.9c0.5,0.8,0.7,1.7,0.7,2.8c0,1.6-0.5,2.9-1.4,4.1
		c-1,1.1-2.2,2-3.8,2.6c-1.6,0.6-3.4,0.9-5.3,0.9c-4.9,0-8.5-2.2-10.9-6.7l2.6-2.5l1,0.8l-1.9,1.9c1.1,1.7,2.4,3,3.8,3.9
		c1.4,0.9,3.1,1.3,5.2,1.3c1.5,0,2.9-0.2,4.2-0.6c1.4-0.4,2.5-0.9,3.3-1.6c0.9-0.7,1.3-1.5,1.3-2.4c0-0.6-0.3-1.1-0.8-1.6
		c-0.5-0.5-1.3-0.9-2.2-1.4l-11.6-5.7c-1.4-0.7-2.4-1.5-3-2.2c-0.6-0.8-0.9-1.7-0.9-2.9c0-1.3,0.5-2.5,1.5-3.6s2.3-2,4-2.7
		c1.7-0.7,3.5-1,5.5-1c1.6,0,3.2,0.4,4.8,1.1c1.7,0.7,3,1.7,4,2.9l-2.4,2.4l-0.9-0.9l1.6-1.6c-1-0.8-2.1-1.4-3.3-1.9
		c-1.2-0.5-2.5-0.7-3.8-0.7c-1.7,0-3.3,0.2-4.6,0.7c-1.3,0.5-2.4,1-3.1,1.7c-0.7,0.7-1.1,1.3-1.1,1.9c0,0.5,0.2,1,0.7,1.4
		c0.4,0.4,0.9,0.7,1.5,1c0.5,0.3,0.9,0.5,1,0.5l9.9,4.8C336.7,403.9,337.6,404.4,338.3,404.9z"/>
	<path id="XMLID_246_" d="M346.5,415.4h2.2l0-23.4h-2.2v-1.3h19.8v5.3h-1.1V392h-12v11.1h7.5v1.1h-7.5v11.2h12v-4.1h1.1v5.3h-19.8
		V415.4z"/>
	<path id="XMLID_248_" d="M397.9,392h-2.2v12.9c0,2.6-0.6,4.8-1.7,6.6c-1.1,1.9-2.6,3.3-4.4,4.2s-3.7,1.4-5.7,1.5
		c-2,0-3.9-0.5-5.7-1.5s-3.3-2.3-4.4-4.2c-1.1-1.8-1.7-4.1-1.7-6.6V392h-2.2v-1.3h6.7h2.2v1.3h-2.2v20.6v0.1c0,0.2,0.1,0.4,0.2,0.5
		c1,0.9,2.1,1.6,3.3,2c1.3,0.5,2.6,0.7,3.9,0.7c1.3,0,2.6-0.3,3.9-0.7c1.3-0.5,2.4-1.1,3.3-2c0.2-0.2,0.2-0.4,0.2-0.6V392H389v-1.3
		h8.9V392z"/>
	<path id="XMLID_250_" d="M402.6,415.4h2.2l-0.2-23.4h-2.4v-1.3h7.7l8.2,19.9l8.3-19.9h6.9v1.3h-2.1v23.4h2.1v1.3h-9.1v-1.3h2.1
		v-21.6l-9.7,22.9h-0.9l-10-24.3v22.9h2.2v1.3h-5.5V415.4z"/>
</g>
<g id="XMLID_15_">
	<path id="XMLID_189_" d="M39.7,531.8v1.3H31v-1.3h1.8l-2.7-7.7h-9.7l-2.1,7.7H20v1.3h-3.4h-2v-1.3h2.4l6.6-23.5h-2.3v-1.3H29
		l8.7,24.7H39.7z M29.7,523l-5-14.2l-4,14.2H29.7z"/>
	<path id="XMLID_192_" d="M43.4,531.8h2.2l-0.2-23.4H43v-1.3h7.7l8.2,19.9l8.3-19.9h6.9v1.3H72v23.4h2.1v1.3h-9.1v-1.3h2.1v-21.6
		l-9.7,22.9h-0.9l-10-24.3v22.9h2.2v1.3h-5.5V531.8z"/>
	<path id="XMLID_194_" d="M97.2,521.3c0.7,0.5,1.3,1.1,1.8,1.9c0.5,0.8,0.7,1.7,0.7,2.8c0,1.6-0.5,2.9-1.4,4.1c-1,1.1-2.2,2-3.8,2.6
		c-1.6,0.6-3.4,0.9-5.3,0.9c-4.9,0-8.5-2.2-10.9-6.7l2.6-2.5l1,0.8l-1.9,1.9c1.1,1.7,2.4,3,3.8,3.9c1.4,0.9,3.1,1.3,5.2,1.3
		c1.5,0,2.9-0.2,4.2-0.6c1.4-0.4,2.5-0.9,3.3-1.6c0.9-0.7,1.3-1.5,1.3-2.4c0-0.6-0.3-1.1-0.8-1.6c-0.5-0.5-1.3-0.9-2.2-1.4
		l-11.6-5.7c-1.4-0.7-2.4-1.5-3-2.2c-0.6-0.8-0.9-1.7-0.9-2.9c0-1.3,0.5-2.5,1.5-3.6s2.3-2,4-2.7c1.7-0.7,3.5-1,5.5-1
		c1.6,0,3.2,0.4,4.8,1.1c1.7,0.7,3,1.7,4,2.9l-2.4,2.4l-0.9-0.9l1.6-1.6c-1-0.8-2.1-1.4-3.3-1.9c-1.2-0.5-2.5-0.7-3.8-0.7
		c-1.7,0-3.3,0.2-4.6,0.7c-1.3,0.5-2.4,1-3.1,1.7c-0.7,0.7-1.1,1.3-1.1,1.9c0,0.5,0.2,1,0.7,1.4c0.4,0.4,0.9,0.7,1.5,1
		c0.5,0.3,0.9,0.5,1,0.5l9.9,4.8C95.6,520.3,96.5,520.8,97.2,521.3z"/>
	<path id="XMLID_196_" d="M125.8,512.8v-4.4l-9.1,0v23.4h2.2v1.3H110v-1.3h2.2v-23.4l-9.1,0v4.4h-1.3v-5.7h25.2v5.7H125.8z"/>
	<path id="XMLID_198_" d="M132,531.8h2.2l0-23.4h-2.2v-1.3h19.8v5.3h-1.1v-4.1h-12v11.1h7.5v1.1h-7.5v11.2h12v-4.1h1.1v5.3H132
		V531.8z"/>
	<path id="XMLID_200_" d="M180.6,531.8v1.3h-2.2c-1.3,0-2.3-0.5-3.2-1.4c-0.9-0.9-1.3-2.2-1.3-3.7v-6c-0.8,0.3-1.7,0.4-2.6,0.4h-6.8
		v9.4h2.6v1.3h-9.6v-1.3h2.6v-23.4h-2.2v-1.3h13.4c1.4,0,2.7,0.3,3.8,1c1.2,0.7,2.1,1.6,2.8,2.8c0.7,1.2,1,2.4,1,3.8
		c0,1.3-0.3,2.6-0.9,3.7c-0.6,1.1-1.5,2-2.6,2.7c0.8,0.4,1.5,1,2.1,1.8c0.6,0.8,0.9,1.7,0.9,2.8v6H180.6z M171.3,521.1
		c1.1,0,2.1-0.2,3-0.7c0.3-0.2,0.5-0.4,0.7-0.7c0.2-0.3,0.2-0.6,0.2-1v-6.7v-1.1c0-0.4-0.1-0.7-0.3-1.1s-0.4-0.6-0.8-0.8
		c-0.8-0.4-1.7-0.6-2.9-0.6h-6.8v12.7H171.3z"/>
	<path id="XMLID_203_" d="M185.9,531.8h2.2v-23.4h-2.2v-1.3h10.4c2.5,0,4.8,0.6,6.9,1.7c2.1,1.1,3.8,2.7,5,4.7
		c1.2,2,1.9,4.2,1.9,6.6c0,2.4-0.6,4.6-1.9,6.6c-1.2,2-2.9,3.5-5,4.6c-2.1,1.1-4.4,1.7-6.9,1.7h-10.4V531.8z M196.4,531.8
		c2.3,0,4.4-0.5,6.3-1.5c1.9-1,3.4-2.4,4.5-4.2s1.7-3.8,1.7-6c0-2.2-0.6-4.2-1.7-6c-1.1-1.8-2.6-3.2-4.5-4.2s-4-1.5-6.3-1.5h-3.8
		v23.4H196.4z"/>
	<path id="XMLID_206_" d="M235.9,531.8v1.3h-8.7v-1.3h1.8l-2.7-7.7h-9.7l-2.1,7.7h1.8v1.3h-3.4h-2v-1.3h2.4l6.6-23.5h-2.3v-1.3h7.6
		l8.7,24.7H235.9z M225.9,523l-5-14.2l-4,14.2H225.9z"/>
	<path id="XMLID_209_" d="M239.6,531.8h2.2l-0.2-23.4h-2.4v-1.3h7.7l8.2,19.9l8.3-19.9h6.9v1.3h-2.1v23.4h2.1v1.3h-9.1v-1.3h2.1
		v-21.6l-9.7,22.9h-0.9l-10-24.3v22.9h2.2v1.3h-5.5V531.8z"/>
	<path id="XMLID_211_" d="M276,531.8h2.2l-0.2-23.4h-2.4v-1.3h7.7l8.2,19.9l8.3-19.9h6.9v1.3h-2.1v23.4h2.1v1.3h-9.1v-1.3h2.1v-21.6
		l-9.7,22.9h-0.9l-10-24.3v22.9h2.2v1.3H276V531.8z"/>
	<path id="XMLID_213_" d="M313.5,531.8h2.2l0-23.4h-2.2v-1.3h19.8v5.3h-1.1v-4.1h-12v11.1h7.5v1.1h-7.5v11.2h12v-4.1h1.1v5.3h-19.8
		V531.8z"/>
	<path id="XMLID_215_" d="M362,531.8v1.3h-2.2c-1.3,0-2.3-0.5-3.2-1.4c-0.9-0.9-1.3-2.2-1.3-3.7v-6c-0.8,0.3-1.7,0.4-2.6,0.4H346
		v9.4h2.6v1.3H339v-1.3h2.6v-23.4h-2.2v-1.3h13.4c1.4,0,2.7,0.3,3.8,1c1.2,0.7,2.1,1.6,2.8,2.8c0.7,1.2,1,2.4,1,3.8
		c0,1.3-0.3,2.6-0.9,3.7c-0.6,1.1-1.5,2-2.6,2.7c0.8,0.4,1.5,1,2.1,1.8c0.6,0.8,0.9,1.7,0.9,2.8v6H362z M352.8,521.1
		c1.1,0,2.1-0.2,3-0.7c0.3-0.2,0.5-0.4,0.7-0.7c0.2-0.3,0.2-0.6,0.2-1v-6.7v-1.1c0-0.4-0.1-0.7-0.3-1.1s-0.4-0.6-0.8-0.8
		c-0.8-0.4-1.7-0.6-2.9-0.6H346v12.7H352.8z"/>
	<path id="XMLID_218_" d="M387.8,512.8v-4.4l-9.1,0v23.4h2.2v1.3H372v-1.3h2.2v-23.4l-9.1,0v4.4h-1.3v-5.7H389v5.7H387.8z"/>
	<path id="XMLID_220_" d="M404,508.4h-2.2v11.8h-0.1h0.1c0,2.4-0.6,4.6-1.8,6.7c-1.2,2-2.9,3.7-5,4.9c-2.1,1.2-4.4,1.8-6.9,1.8v-3.5
		h1.3v2.1c1.5-0.1,2.9-0.5,4.3-1.2c1.3-0.7,2.5-1.5,3.5-2.6c0.2-0.2,0.2-0.4,0.2-0.6V520v-11.6h-2.2v-1.3h8.9V508.4z"/>
	<path id="XMLID_222_" d="M408.5,531.8h2.2l0-23.4h-2.2v-1.3h19.8v5.3h-1.1v-4.1h-12v11.1h7.5v1.1h-7.5v11.2h12v-4.1h1.1v5.3h-19.8
		V531.8z"/>
</g>
<g id="XMLID_12_">
	<path id="XMLID_121_" d="M18.7,353.8v0.7h-5.2v-0.7h1.3v-13.1l-1.8,1.4l-0.7-0.5l2.5-2.1h2.6v14.3H18.7z"/>
	<path id="XMLID_123_" d="M23.8,353.6c0,0.8-0.2,1.5-0.6,2c-0.4,0.6-1,0.8-1.7,0.8v-0.7c0.4,0,0.7-0.1,0.9-0.3
		c0.3-0.2,0.5-0.5,0.6-1c-0.2,0.1-0.4,0.2-0.6,0.2c-0.4,0-0.7-0.1-1-0.4s-0.4-0.6-0.4-1c0-0.4,0.1-0.7,0.4-1s0.6-0.4,1-0.4
		c0.4,0,0.7,0.1,1,0.4s0.4,0.6,0.4,1v0C23.8,353.3,23.8,353.5,23.8,353.6z"/>
	<path id="XMLID_125_" d="M29.3,349.9c-0.6,0.5-1.1,1.2-1.4,2h8.4v2.6h-9.5V354c0-0.9,0.2-1.7,0.6-2.6c0.4-0.9,1-1.6,1.7-2.1
		c0.7-0.6,1.4-0.9,2.2-0.9c1,0,1.9-0.3,2.7-0.8v-7c-0.8-0.5-1.7-0.8-2.7-0.8c-1.5,0-3,0.7-4.5,2l0.7,0.9l-0.5,0.6l-1.3-1.5
		c0.7-0.8,1.5-1.5,2.4-1.9c1-0.5,2-0.7,3-0.7c1,0,1.8,0.2,2.6,0.7c0.8,0.4,1.4,1,1.9,1.8c0.5,0.8,0.7,1.6,0.7,2.5v0
		c0,0.9-0.2,1.7-0.7,2.5c-0.5,0.8-1.1,1.4-1.9,1.8c-0.8,0.4-1.7,0.7-2.7,0.7C30.5,349.1,29.9,349.4,29.3,349.9z M35.3,346l-0.3,0.5
		C35.2,346.4,35.3,346.2,35.3,346z"/>
	<path id="XMLID_128_" d="M49.1,340.2c1,0.6,1.9,1.6,2.5,2.7c0.6,1.2,0.9,2.5,0.9,4.1c0,1.5-0.3,2.9-0.9,4.1
		c-0.6,1.2-1.4,2.1-2.5,2.8c-1,0.7-2.2,1-3.4,1s-2.3-0.3-3.3-1c-1-0.6-1.8-1.6-2.4-2.7c-0.6-1.2-0.9-2.5-0.9-4.1
		c0-1.5,0.3-2.9,0.9-4.1c0.6-1.2,1.4-2.1,2.4-2.7c1-0.6,2.1-1,3.3-1S48,339.6,49.1,340.2z M45.7,354.1c0.7,0,1.3-0.1,2-0.3
		c0.6-0.2,1.2-0.6,1.7-1c0-0.1,0.1-0.1,0.1-0.2v-11c0-0.1,0-0.2-0.1-0.2c-0.5-0.4-1.1-0.8-1.7-1c-0.6-0.2-1.3-0.3-2-0.3
		c-1.3,0-2.4,0.4-3.4,1.2v0c-0.1,0.1-0.2,0.2-0.2,0.3v11c0,0.1,0,0.2,0.2,0.3h-0.1C43.2,353.7,44.4,354.1,45.7,354.1z"/>
	<path id="XMLID_131_" d="M65.4,340.2c1,0.6,1.9,1.6,2.5,2.7c0.6,1.2,0.9,2.5,0.9,4.1c0,1.5-0.3,2.9-0.9,4.1
		c-0.6,1.2-1.4,2.1-2.5,2.8c-1,0.7-2.2,1-3.4,1s-2.3-0.3-3.3-1c-1-0.6-1.8-1.6-2.4-2.7c-0.6-1.2-0.9-2.5-0.9-4.1
		c0-1.5,0.3-2.9,0.9-4.1c0.6-1.2,1.4-2.1,2.4-2.7c1-0.6,2.1-1,3.3-1S64.4,339.6,65.4,340.2z M62.1,354.1c0.7,0,1.3-0.1,2-0.3
		c0.6-0.2,1.2-0.6,1.7-1c0-0.1,0.1-0.1,0.1-0.2v-11c0-0.1,0-0.2-0.1-0.2c-0.5-0.4-1.1-0.8-1.7-1c-0.6-0.2-1.3-0.3-2-0.3
		c-1.3,0-2.4,0.4-3.4,1.2v0c-0.1,0.1-0.2,0.2-0.2,0.3v11c0,0.1,0,0.2,0.2,0.3h-0.1C59.6,353.7,60.7,354.1,62.1,354.1z"/>
	<path id="XMLID_134_" d="M73.8,353.6c0,0.8-0.2,1.5-0.6,2c-0.4,0.6-1,0.8-1.7,0.8v-0.7c0.4,0,0.7-0.1,0.9-0.3
		c0.3-0.2,0.5-0.5,0.6-1c-0.2,0.1-0.4,0.2-0.6,0.2c-0.4,0-0.7-0.1-1-0.4s-0.4-0.6-0.4-1c0-0.4,0.1-0.7,0.4-1s0.6-0.4,1-0.4
		c0.4,0,0.7,0.1,1,0.4s0.4,0.6,0.4,1v0C73.8,353.3,73.8,353.5,73.8,353.6z"/>
	<path id="XMLID_136_" d="M85.5,340.2c1,0.6,1.9,1.6,2.5,2.7c0.6,1.2,0.9,2.5,0.9,4.1c0,1.5-0.3,2.9-0.9,4.1
		c-0.6,1.2-1.4,2.1-2.5,2.8c-1,0.7-2.2,1-3.4,1s-2.3-0.3-3.3-1c-1-0.6-1.8-1.6-2.4-2.7c-0.6-1.2-0.9-2.5-0.9-4.1
		c0-1.5,0.3-2.9,0.9-4.1c0.6-1.2,1.4-2.1,2.4-2.7c1-0.6,2.1-1,3.3-1S84.5,339.6,85.5,340.2z M82.1,354.1c0.7,0,1.3-0.1,2-0.3
		c0.6-0.2,1.2-0.6,1.7-1c0-0.1,0.1-0.1,0.1-0.2v-11c0-0.1,0-0.2-0.1-0.2c-0.5-0.4-1.1-0.8-1.7-1c-0.6-0.2-1.3-0.3-2-0.3
		c-1.3,0-2.4,0.4-3.4,1.2v0c-0.1,0.1-0.2,0.2-0.2,0.3v11c0,0.1,0,0.2,0.2,0.3h-0.1C79.6,353.7,80.8,354.1,82.1,354.1z"/>
	<path id="XMLID_139_" d="M101.9,340.2c1,0.6,1.9,1.6,2.5,2.7c0.6,1.2,0.9,2.5,0.9,4.1c0,1.5-0.3,2.9-0.9,4.1
		c-0.6,1.2-1.4,2.1-2.5,2.8c-1,0.7-2.2,1-3.4,1s-2.3-0.3-3.3-1c-1-0.6-1.8-1.6-2.4-2.7c-0.6-1.2-0.9-2.5-0.9-4.1
		c0-1.5,0.3-2.9,0.9-4.1c0.6-1.2,1.4-2.1,2.4-2.7c1-0.6,2.1-1,3.3-1S100.8,339.6,101.9,340.2z M98.5,354.1c0.7,0,1.3-0.1,2-0.3
		c0.6-0.2,1.2-0.6,1.7-1c0-0.1,0.1-0.1,0.1-0.2v-11c0-0.1,0-0.2-0.1-0.2c-0.5-0.4-1.1-0.8-1.7-1c-0.6-0.2-1.3-0.3-2-0.3
		c-1.3,0-2.4,0.4-3.4,1.2v0c-0.1,0.1-0.2,0.2-0.2,0.3v11c0,0.1,0,0.2,0.2,0.3H95C96,353.7,97.2,354.1,98.5,354.1z"/>
	<path id="XMLID_142_" d="M118.2,340.2c1,0.6,1.9,1.6,2.5,2.7c0.6,1.2,0.9,2.5,0.9,4.1c0,1.5-0.3,2.9-0.9,4.1
		c-0.6,1.2-1.4,2.1-2.5,2.8c-1,0.7-2.2,1-3.4,1s-2.3-0.3-3.3-1c-1-0.6-1.8-1.6-2.4-2.7c-0.6-1.2-0.9-2.5-0.9-4.1
		c0-1.5,0.3-2.9,0.9-4.1c0.6-1.2,1.4-2.1,2.4-2.7c1-0.6,2.1-1,3.3-1S117.2,339.6,118.2,340.2z M114.8,354.1c0.7,0,1.3-0.1,2-0.3
		c0.6-0.2,1.2-0.6,1.7-1c0-0.1,0.1-0.1,0.1-0.2v-11c0-0.1,0-0.2-0.1-0.2c-0.5-0.4-1.1-0.8-1.7-1c-0.6-0.2-1.3-0.3-2-0.3
		c-1.3,0-2.4,0.4-3.4,1.2v0c-0.1,0.1-0.2,0.2-0.2,0.3v11c0,0.1,0,0.2,0.2,0.3h-0.1C112.4,353.7,113.5,354.1,114.8,354.1z"/>
	<path id="XMLID_145_" d="M142.1,345.7c0.6,0.5,1.1,1,1.5,1.7c0.4,0.7,0.6,1.4,0.6,2.2c0,0.8-0.2,1.6-0.7,2.4
		c-0.4,0.7-1,1.3-1.8,1.8s-1.6,0.7-2.6,0.7h-6v-0.7h1.3v-13.6h-1.3v-0.7h5.4c0.5,0,1,0.1,1.4,0.4c0.4,0.3,0.8,0.7,1.1,1.2
		c0.3,0.5,0.4,1,0.4,1.6c0,0.9-0.4,1.6-1.2,2.2C140.8,345,141.5,345.3,142.1,345.7z M140.3,341.4c-0.2-0.4-0.5-0.7-0.8-0.9
		c-0.3-0.2-0.7-0.3-1.1-0.3H137v4.5h1.4c0.6,0,1.1-0.2,1.6-0.6c0.4-0.4,0.6-0.9,0.6-1.5C140.6,342.2,140.5,341.8,140.3,341.4z
		 M141.3,353.2c0.7-0.4,1.2-0.8,1.6-1.5c0.4-0.6,0.6-1.3,0.6-2.1c0-0.8-0.2-1.5-0.6-2.2c-0.4-0.7-0.9-1.2-1.6-1.5s-1.4-0.6-2.2-0.6
		H137v8.4h2.2C139.9,353.8,140.7,353.6,141.3,353.2z"/>
	<path id="XMLID_149_" d="M146,354.5v-0.6h1.5v-13.8H146v-0.6h5.6v0.6h-1.5v13.8h1.5v0.6H146z"/>
	<path id="XMLID_151_" d="M167.1,351.2l1.4,1.4c-0.7,0.7-1.6,1.2-2.5,1.6s-2,0.6-3,0.6c-1.4,0-2.8-0.4-4-1.1
		c-1.2-0.7-2.2-1.6-2.9-2.8c-0.7-1.2-1.1-2.5-1.1-3.9c0-1.4,0.4-2.7,1.1-3.9c0.7-1.2,1.7-2.1,2.9-2.8c1.2-0.7,2.6-1,4-1
		c1.1,0,2.1,0.2,3,0.6s1.8,0.9,2.5,1.6l-1.4,1.4l-0.5-0.5l0.8-0.8c-0.6-0.5-1.3-0.9-2.1-1.1c-0.8-0.3-1.6-0.4-2.4-0.4
		c-0.9,0-1.8,0.2-2.6,0.5c-0.8,0.3-1.6,0.7-2.2,1.3c-0.1,0.1-0.2,0.2-0.2,0.3v9.9c0,0.1,0.1,0.2,0.2,0.3c0.6,0.6,1.4,1,2.2,1.3
		c0.8,0.3,1.7,0.5,2.6,0.5c0.8,0,1.6-0.1,2.4-0.4c0.8-0.3,1.5-0.6,2.1-1.1l-0.8-0.8L167.1,351.2z"/>
	<path id="XMLID_153_" d="M176.7,347.2v6.6h1.3v0.7h-3.9h-1.3v-0.7h1.3V347l-4-6.8h-1.4v-0.7h5.1v0.7h-1.1l3.7,6.3l3.4-6.3h-1.1
		v-0.7h3.1v0.7h-1.3L176.7,347.2z"/>
	<path id="XMLID_155_" d="M195.1,351.2l1.4,1.4c-0.7,0.7-1.6,1.2-2.5,1.6s-2,0.6-3,0.6c-1.4,0-2.8-0.4-4-1.1
		c-1.2-0.7-2.2-1.6-2.9-2.8c-0.7-1.2-1.1-2.5-1.1-3.9c0-1.4,0.4-2.7,1.1-3.9c0.7-1.2,1.7-2.1,2.9-2.8c1.2-0.7,2.6-1,4-1
		c1.1,0,2.1,0.2,3,0.6s1.8,0.9,2.5,1.6l-1.4,1.4l-0.5-0.5l0.8-0.8c-0.6-0.5-1.3-0.9-2.1-1.1c-0.8-0.3-1.6-0.4-2.4-0.4
		c-0.9,0-1.8,0.2-2.6,0.5c-0.8,0.3-1.6,0.7-2.2,1.3c-0.1,0.1-0.2,0.2-0.2,0.3v9.9c0,0.1,0.1,0.2,0.2,0.3c0.6,0.6,1.4,1,2.2,1.3
		c0.8,0.3,1.7,0.5,2.6,0.5c0.8,0,1.6-0.1,2.4-0.4c0.8-0.3,1.5-0.6,2.1-1.1l-0.8-0.8L195.1,351.2z"/>
	<path id="XMLID_157_" d="M198.7,353.8h1.3v-13.6h-1.3v-0.7h5.5v0.7h-1.6v13.6h7.2v-2.3h0.7v3h-11.8V353.8z"/>
	<path id="XMLID_159_" d="M212.6,353.8h1.3l0-13.6h-1.3v-0.7h11.5v3.1h-0.6v-2.4h-7v6.5h4.4v0.6h-4.4v6.5h7v-2.4h0.6v3.1h-11.5
		V353.8z"/>
	<path id="XMLID_161_" d="M238,347.7c0.4,0.3,0.8,0.7,1,1.1s0.4,1,0.4,1.7c0,0.9-0.3,1.7-0.8,2.4s-1.3,1.2-2.2,1.5s-2,0.5-3.1,0.5
		c-2.8,0-4.9-1.3-6.3-3.9l1.5-1.4l0.6,0.5l-1.1,1.1c0.6,1,1.4,1.8,2.2,2.3c0.8,0.5,1.8,0.8,3,0.8c0.8,0,1.7-0.1,2.5-0.3
		c0.8-0.2,1.4-0.5,1.9-1s0.7-0.9,0.7-1.4c0-0.3-0.2-0.6-0.5-0.9s-0.7-0.5-1.3-0.8l-6.7-3.3c-0.8-0.4-1.4-0.9-1.7-1.3
		c-0.3-0.4-0.5-1-0.5-1.7c0-0.8,0.3-1.5,0.9-2.1c0.6-0.7,1.4-1.2,2.3-1.6c1-0.4,2-0.6,3.2-0.6c0.9,0,1.9,0.2,2.8,0.6
		c1,0.4,1.7,1,2.3,1.7l-1.4,1.4l-0.5-0.5l0.9-0.9c-0.6-0.5-1.2-0.8-1.9-1.1c-0.7-0.3-1.4-0.4-2.2-0.4c-1,0-1.9,0.1-2.7,0.4
		c-0.8,0.3-1.4,0.6-1.8,1c-0.4,0.4-0.6,0.8-0.6,1.1c0,0.3,0.1,0.6,0.4,0.8c0.3,0.2,0.5,0.4,0.8,0.6c0.3,0.2,0.5,0.3,0.6,0.3l5.7,2.8
		C237.1,347.1,237.6,347.4,238,347.7z"/>
	<path id="XMLID_163_" d="M250.3,354.5v-0.6h1.5v-13.8h-1.5v-0.6h5.6v0.6h-1.5v13.8h1.5v0.6H250.3z"/>
	<path id="XMLID_165_" d="M273.6,339.5v0.7h-1.3v14.4h0l-11.1-10.9v10.1h1.3v0.7h-3.3v-0.7h1.3v-13.6h-1.3v-0.7h2l10.4,10.4h0v-9.7
		h-1.3v-0.7H273.6z"/>
	<path id="XMLID_167_" d="M298.2,353.8v0.7h-5.1v-0.7h1l-1.6-4.5H287l-1.2,4.5h1.1v0.7h-2h-1.2v-0.7h1.4l3.8-13.6h-1.3v-0.7h4.4
		l5.1,14.4H298.2z M292.3,348.7l-2.9-8.3l-2.3,8.3H292.3z"/>
	<path id="XMLID_170_" d="M300.3,353.8h1.3l-0.1-13.6h-1.4v-0.7h4.5l4.8,11.6l4.8-11.6h4v0.7H317v13.6h1.2v0.7h-5.3v-0.7h1.2v-12.5
		l-5.7,13.3H308l-5.8-14.1v13.3h1.3v0.7h-3.2V353.8z"/>
	<path id="XMLID_172_" d="M331.6,347.7c0.4,0.3,0.8,0.7,1,1.1s0.4,1,0.4,1.7c0,0.9-0.3,1.7-0.8,2.4s-1.3,1.2-2.2,1.5s-2,0.5-3.1,0.5
		c-2.8,0-4.9-1.3-6.3-3.9l1.5-1.4l0.6,0.5l-1.1,1.1c0.6,1,1.4,1.8,2.2,2.3c0.8,0.5,1.8,0.8,3,0.8c0.8,0,1.7-0.1,2.5-0.3
		c0.8-0.2,1.4-0.5,1.9-1s0.7-0.9,0.7-1.4c0-0.3-0.2-0.6-0.5-0.9s-0.7-0.5-1.3-0.8l-6.7-3.3c-0.8-0.4-1.4-0.9-1.7-1.3
		c-0.3-0.4-0.5-1-0.5-1.7c0-0.8,0.3-1.5,0.9-2.1c0.6-0.7,1.4-1.2,2.3-1.6c1-0.4,2-0.6,3.2-0.6c0.9,0,1.9,0.2,2.8,0.6
		c1,0.4,1.7,1,2.3,1.7l-1.4,1.4l-0.5-0.5l0.9-0.9c-0.6-0.5-1.2-0.8-1.9-1.1c-0.7-0.3-1.4-0.4-2.2-0.4c-1,0-1.9,0.1-2.7,0.4
		c-0.8,0.3-1.4,0.6-1.8,1c-0.4,0.4-0.6,0.8-0.6,1.1c0,0.3,0.1,0.6,0.4,0.8c0.3,0.2,0.5,0.4,0.8,0.6c0.3,0.2,0.5,0.3,0.6,0.3l5.7,2.8
		C330.7,347.1,331.2,347.4,331.6,347.7z"/>
	<path id="XMLID_174_" d="M348.2,342.7v-2.6l-5.3,0v13.6h1.3v0.7H339v-0.7h1.3v-13.6l-5.3,0v2.6h-0.7v-3.3h14.6v3.3H348.2z"/>
	<path id="XMLID_176_" d="M351.8,353.8h1.3l0-13.6h-1.3v-0.7h11.5v3.1h-0.6v-2.4h-7v6.5h4.4v0.6h-4.4v6.5h7v-2.4h0.6v3.1h-11.5
		V353.8z"/>
	<path id="XMLID_178_" d="M380,353.8v0.7h-1.3c-0.7,0-1.3-0.3-1.8-0.8c-0.5-0.6-0.7-1.3-0.7-2.2v-3.5c-0.5,0.2-1,0.3-1.5,0.3h-3.9
		v5.5h1.5v0.7h-5.6v-0.7h1.5v-13.6h-1.3v-0.7h7.8c0.8,0,1.5,0.2,2.2,0.6c0.7,0.4,1.2,0.9,1.6,1.6c0.4,0.7,0.6,1.4,0.6,2.2
		c0,0.8-0.2,1.5-0.5,2.2c-0.4,0.7-0.9,1.2-1.5,1.6c0.5,0.2,0.9,0.6,1.2,1s0.5,1,0.5,1.6v3.5H380z M374.7,347.6
		c0.6,0,1.2-0.1,1.7-0.4c0.2-0.1,0.3-0.3,0.4-0.4s0.1-0.4,0.1-0.6v-3.9v-0.6c0-0.2-0.1-0.4-0.2-0.6c-0.1-0.2-0.3-0.3-0.4-0.4
		c-0.4-0.2-1-0.3-1.7-0.3h-3.9v7.4H374.7z"/>
	<path id="XMLID_181_" d="M383.1,353.8h1.3v-13.6h-1.3v-0.7h6.1c1.4,0,2.8,0.3,4,1s2.2,1.6,2.9,2.7c0.7,1.2,1.1,2.4,1.1,3.8
		c0,1.4-0.4,2.7-1.1,3.8s-1.7,2-2.9,2.7c-1.2,0.7-2.6,1-4,1h-6.1V353.8z M389.2,353.8c1.3,0,2.5-0.3,3.6-0.9c1.1-0.6,2-1.4,2.6-2.4
		s1-2.2,1-3.5c0-1.3-0.3-2.4-1-3.5s-1.5-1.9-2.6-2.5c-1.1-0.6-2.3-0.9-3.6-0.9H387v13.6H389.2z"/>
	<path id="XMLID_184_" d="M412.2,353.8v0.7h-5.1v-0.7h1l-1.6-4.5h-5.6l-1.2,4.5h1.1v0.7h-2h-1.2v-0.7h1.4l3.8-13.6h-1.3v-0.7h4.4
		l5.1,14.4H412.2z M406.3,348.7l-2.9-8.3l-2.3,8.3H406.3z"/>
	<path id="XMLID_187_" d="M414.3,353.8h1.3l-0.1-13.6h-1.4v-0.7h4.5l4.8,11.6l4.8-11.6h4v0.7H431v13.6h1.2v0.7h-5.3v-0.7h1.2v-12.5
		l-5.7,13.3H422l-5.8-14.1v13.3h1.3v0.7h-3.2V353.8z"/>
</g>
<g id="XMLID_11_">
	<path id="XMLID_84_" d="M49.6,24.3h-2.2l-6.9,22.1h-4.3l-4.9-13.4L27,46.5h-4.3l-8.2-22.1h-2.3v-1.1h8.1v1.1H19L26.5,45l4.2-13.4
		L28,24.3h-2.3v-1.1h8.1v1.1h-1.5L39.9,45l6.5-20.7h-1.6v-1.1h4.9V24.3z"/>
	<path id="XMLID_86_" d="M52.1,46.3v-1h2.3V24.2h-2.3v-1h8.6v1h-2.3v21.1h2.3v1H52.1z"/>
	<path id="XMLID_88_" d="M87.8,23.2v1.1h-2v22.1h-0.1L68.7,29.7v15.5h2v1.1h-5.1v-1.1h2V24.3h-2v-1.1h3.1l16,16h0V24.3h-2v-1.1H87.8
		z"/>
	<path id="XMLID_90_" d="M92.1,45.2h2V24.3h-2v-1.1h9.3c2.2,0,4.3,0.5,6.2,1.5c1.9,1,3.4,2.4,4.5,4.2c1.1,1.8,1.6,3.7,1.6,5.9
		c0,2.2-0.6,4.1-1.6,5.9c-1.1,1.7-2.6,3.1-4.5,4.1c-1.9,1-3.9,1.5-6.2,1.5h-9.3V45.2z M101.4,45.2c2,0,3.9-0.5,5.6-1.4
		c1.7-0.9,3.1-2.1,4-3.7c1-1.6,1.5-3.4,1.5-5.3c0-2-0.5-3.7-1.5-5.3c-1-1.6-2.3-2.8-4-3.8c-1.7-0.9-3.6-1.4-5.6-1.4H98v20.9H101.4z"
		/>
	<path id="XMLID_93_" d="M115,45.2h2l-0.2-20.9h-2.1v-1.1h6.9l7.3,17.8l7.4-17.8h6.2v1.1h-1.9v20.9h1.9v1.1h-8.1v-1.1h1.9V26
		l-8.7,20.5h-0.8l-8.9-21.7v20.5h2v1.1H115V45.2z"/>
	<path id="XMLID_95_" d="M148.4,46.3v-1h2.3V24.2h-2.3v-1h8.6v1h-2.3v21.1h2.3v1H148.4z"/>
	<path id="XMLID_97_" d="M162.9,45.2h2V24.3h-2v-1.1h8.4v1.1h-2.5v20.9h11v-3.5h1.1v4.6h-18.1V45.2z"/>
	<path id="XMLID_99_" d="M184.3,45.2h2V24.3h-2v-1.1h9.3c2.2,0,4.3,0.5,6.2,1.5c1.9,1,3.4,2.4,4.5,4.2c1.1,1.8,1.6,3.7,1.6,5.9
		c0,2.2-0.6,4.1-1.6,5.9c-1.1,1.7-2.6,3.1-4.5,4.1c-1.9,1-3.9,1.5-6.2,1.5h-9.3V45.2z M193.6,45.2c2,0,3.9-0.5,5.6-1.4
		c1.7-0.9,3.1-2.1,4-3.7c1-1.6,1.5-3.4,1.5-5.3c0-2-0.5-3.7-1.5-5.3c-1-1.6-2.3-2.8-4-3.8c-1.7-0.9-3.6-1.4-5.6-1.4h-3.4v20.9H193.6
		z"/>
	<path id="XMLID_102_" d="M224.5,35.9c0.6,0.4,1.2,1,1.6,1.7c0.4,0.7,0.7,1.6,0.7,2.5c0,1.4-0.4,2.6-1.3,3.6c-0.8,1-2,1.8-3.4,2.3
		c-1.4,0.5-3,0.8-4.8,0.8c-4.3,0-7.6-2-9.7-6l2.3-2.2l0.9,0.7l-1.7,1.7c1,1.5,2.1,2.7,3.3,3.5c1.2,0.8,2.8,1.2,4.7,1.2
		c1.3,0,2.6-0.2,3.8-0.5c1.2-0.3,2.2-0.8,3-1.5c0.8-0.6,1.1-1.4,1.1-2.1c0-0.5-0.2-1-0.7-1.4c-0.5-0.4-1.1-0.8-1.9-1.3L212,33.8
		c-1.2-0.7-2.1-1.3-2.6-2c-0.5-0.7-0.8-1.5-0.8-2.6c0-1.2,0.4-2.2,1.3-3.3s2.1-1.8,3.6-2.4c1.5-0.6,3.1-0.9,4.9-0.9
		c1.4,0,2.8,0.3,4.3,1c1.5,0.6,2.7,1.5,3.5,2.6l-2.1,2.1l-0.8-0.8l1.4-1.4c-0.9-0.7-1.9-1.3-2.9-1.7c-1.1-0.4-2.2-0.7-3.4-0.7
		c-1.5,0-2.9,0.2-4.1,0.6c-1.2,0.4-2.1,0.9-2.8,1.5c-0.6,0.6-1,1.2-1,1.7c0,0.5,0.2,0.9,0.6,1.2c0.4,0.3,0.8,0.6,1.3,0.9
		c0.5,0.3,0.8,0.4,0.9,0.5l8.8,4.3C223.1,35,223.9,35.4,224.5,35.9z"/>
	<path id="XMLID_104_" d="M263,41.3l2.1,2.1c-1.1,1.1-2.4,1.9-3.9,2.5c-1.5,0.6-3,0.9-4.7,0.9c-2.2,0-4.3-0.5-6.2-1.6
		c-1.9-1.1-3.4-2.5-4.5-4.4c-1.1-1.8-1.6-3.8-1.6-6c0-2.2,0.5-4.2,1.6-6c1.1-1.8,2.6-3.3,4.5-4.4c1.9-1.1,3.9-1.6,6.2-1.6
		c1.6,0,3.2,0.3,4.7,0.9c1.5,0.6,2.8,1.4,3.9,2.5l-2.1,2.1l-0.8-0.8l1.3-1.3c-1-0.7-2-1.3-3.2-1.7c-1.2-0.4-2.4-0.6-3.7-0.6
		c-1.4,0-2.7,0.2-4,0.7c-1.3,0.5-2.4,1.1-3.4,2c-0.2,0.2-0.2,0.3-0.2,0.5v15.2c0,0.2,0.1,0.3,0.2,0.5c1,0.9,2.1,1.6,3.4,2
		s2.6,0.7,4,0.7c1.3,0,2.5-0.2,3.7-0.6s2.3-1,3.2-1.7l-1.3-1.3L263,41.3z"/>
	<path id="XMLID_106_" d="M268.6,46.3v-1.1h2.3V24.3h-2.3v-1.1h8.7v1.1h-2.5v9.9h11.6v-9.9h-2.5v-1.1h8.7v1.1h-2.3v20.9h2.3v1.1
		h-8.7v-1.1h2.5v-9.9h-11.6v9.9h2.5v1.1H268.6z"/>
	<path id="XMLID_108_" d="M318.5,45.2v1.1h-7.8v-1.1h1.6l-2.4-6.9h-8.6l-1.9,6.9h1.6v1.1h-3h-1.8v-1.1h2.1l5.9-20.9h-2v-1.1h6.8
		l7.8,22H318.5z M309.5,37.3l-4.4-12.7l-3.6,12.7H309.5z"/>
	<path id="XMLID_111_" d="M343.5,23.2v1.1h-2v22.1h-0.1l-17.1-16.8v15.5h2v1.1h-5.1v-1.1h2V24.3h-2v-1.1h3.1l16,16h0V24.3h-2v-1.1
		H343.5z"/>
	<path id="XMLID_113_" d="M370,23.2v1.1h-2v22.1H368l-17.1-16.8v15.5h2v1.1h-5.1v-1.1h2V24.3h-2v-1.1h3.1l16,16h0V24.3h-2v-1.1H370z
		"/>
	<path id="XMLID_115_" d="M374.3,45.2h2l0-20.9h-2v-1.1H392V28h-1v-3.6h-10.7v9.9h6.7v1h-6.7v10H391v-3.6h1v4.8h-17.7V45.2z"/>
	<path id="XMLID_117_" d="M397.1,45.2h2V24.3h-2v-1.1h8.4v1.1H403v20.9h11v-3.5h1.1v4.6h-18.1V45.2z"/>
	<path id="XMLID_119_" d="M433,35.9c0.6,0.4,1.2,1,1.6,1.7c0.4,0.7,0.7,1.6,0.7,2.5c0,1.4-0.4,2.6-1.3,3.6c-0.8,1-2,1.8-3.4,2.3
		c-1.4,0.5-3,0.8-4.8,0.8c-4.3,0-7.6-2-9.7-6l2.3-2.2l0.9,0.7l-1.7,1.7c1,1.5,2.1,2.7,3.3,3.5c1.2,0.8,2.8,1.2,4.7,1.2
		c1.3,0,2.6-0.2,3.8-0.5c1.2-0.3,2.2-0.8,3-1.5c0.8-0.6,1.1-1.4,1.1-2.1c0-0.5-0.2-1-0.7-1.4c-0.5-0.4-1.1-0.8-1.9-1.3l-10.3-5.1
		c-1.2-0.7-2.1-1.3-2.6-2c-0.5-0.7-0.8-1.5-0.8-2.6c0-1.2,0.4-2.2,1.3-3.3s2.1-1.8,3.6-2.4c1.5-0.6,3.1-0.9,4.9-0.9
		c1.4,0,2.8,0.3,4.3,1c1.5,0.6,2.7,1.5,3.5,2.6l-2.1,2.1l-0.8-0.8l1.4-1.4c-0.9-0.7-1.9-1.3-2.9-1.7c-1.1-0.4-2.2-0.7-3.4-0.7
		c-1.5,0-2.9,0.2-4.1,0.6c-1.2,0.4-2.1,0.9-2.8,1.5c-0.6,0.6-1,1.2-1,1.7c0,0.5,0.2,0.9,0.6,1.2c0.4,0.3,0.8,0.6,1.3,0.9
		c0.5,0.3,0.8,0.4,0.9,0.5l8.8,4.3C431.6,35,432.4,35.4,433,35.9z"/>
</g>
<g id="XMLID_10_">
	<path id="XMLID_34_" d="M26.3,213V210l-6.3,0v16.1h1.5v0.9h-6.1v-0.9h1.5V210l-6.3,0v3.1H9.8v-3.9h17.3v3.9H26.3z"/>
	<path id="XMLID_36_" d="M48.6,210h-1.5v8.9c0,1.8-0.4,3.3-1.2,4.6s-1.8,2.2-3.1,2.9c-1.2,0.7-2.6,1-3.9,1c-1.4,0-2.7-0.4-3.9-1
		c-1.2-0.7-2.3-1.6-3.1-2.9s-1.2-2.8-1.2-4.6V210h-1.5v-0.9h4.6h1.5v0.9h-1.5v14.2v0.1c0,0.1,0.1,0.3,0.2,0.4
		c0.7,0.6,1.4,1.1,2.3,1.4c0.9,0.3,1.8,0.5,2.7,0.5c0.9,0,1.8-0.2,2.7-0.5c0.9-0.3,1.6-0.8,2.3-1.4c0.1-0.1,0.2-0.3,0.2-0.4V210
		h-1.5v-0.9h6.1V210z"/>
	<path id="XMLID_38_" d="M52,226.1h1.5V210H52v-0.9h6.5v0.9h-1.9v16.1h8.5v-2.7H66v3.5H52V226.1z"/>
	<path id="XMLID_40_" d="M68.5,227v-0.8h1.8v-16.3h-1.8v-0.8h6.6v0.8h-1.8v16.3h1.8v0.8H68.5z"/>
	<path id="XMLID_42_" d="M91.8,209.8c0.8,0.5,1.4,1.1,1.9,1.9c0.5,0.8,0.7,1.7,0.7,2.6c0,1-0.2,1.8-0.7,2.6
		c-0.5,0.8-1.1,1.4-1.9,1.9c-0.8,0.5-1.7,0.7-2.6,0.7h-4.7v6.5h1.8v0.9h-6.6v-0.9h1.8V210h-1.5v-0.9h9.3
		C90.1,209.1,91,209.4,91.8,209.8z M89.2,218.8c0.7,0,1.4-0.2,2.1-0.5c0.2-0.1,0.4-0.3,0.5-0.5s0.2-0.4,0.2-0.7v-4.6v-0.8
		c0-0.3-0.1-0.5-0.2-0.7c-0.1-0.2-0.3-0.4-0.5-0.5c-0.5-0.3-1.2-0.4-2-0.4h-4.7v8.8H89.2z"/>
	<path id="XMLID_45_" d="M107,226.1h1.5l0-16.1H107v-0.9h13v3.7h-0.8V210h-7.6v7.6h4v0.8h-4.1v7.7h2.1v0.9H107V226.1z"/>
	<path id="XMLID_47_" d="M122.8,227v-0.8h1.8v-16.3h-1.8v-0.8h6.6v0.8h-1.8v16.3h1.8v0.8H122.8z"/>
	<path id="XMLID_49_" d="M134,226.1h1.5l0-16.1h-1.5v-0.9h13.6v3.7h-0.8V210h-8.3v7.6h5.2v0.8h-5.2v7.7h8.3v-2.8h0.8v3.7H134V226.1z
		"/>
	<path id="XMLID_51_" d="M151.6,226.1h1.5V210h-1.5v-0.9h6.5v0.9h-1.9v16.1h8.5v-2.7h0.9v3.5h-13.9V226.1z"/>
	<path id="XMLID_53_" d="M168.1,226.1h1.5V210h-1.5v-0.9h7.2c1.7,0,3.3,0.4,4.8,1.2c1.5,0.8,2.6,1.9,3.5,3.2
		c0.8,1.4,1.3,2.9,1.3,4.6s-0.4,3.2-1.3,4.5c-0.9,1.4-2,2.4-3.5,3.2c-1.5,0.8-3,1.2-4.8,1.2h-7.2V226.1z M175.3,226.1
		c1.6,0,3-0.3,4.3-1c1.3-0.7,2.4-1.7,3.1-2.9s1.1-2.6,1.1-4.1s-0.4-2.9-1.1-4.1s-1.8-2.2-3.1-2.9c-1.3-0.7-2.8-1.1-4.3-1.1h-2.6
		v16.1H175.3z"/>
	<path id="XMLID_56_" d="M199.2,218.9c0.5,0.3,0.9,0.8,1.2,1.3c0.3,0.5,0.5,1.2,0.5,2c0,1.1-0.3,2-1,2.8s-1.5,1.4-2.6,1.8
		s-2.3,0.6-3.7,0.6c-3.3,0-5.8-1.5-7.5-4.6l1.8-1.7l0.7,0.5l-1.3,1.3c0.8,1.2,1.6,2.1,2.6,2.7c1,0.6,2.2,0.9,3.6,0.9
		c1,0,2-0.1,2.9-0.4c0.9-0.3,1.7-0.6,2.3-1.1c0.6-0.5,0.9-1,0.9-1.7c0-0.4-0.2-0.7-0.5-1.1c-0.4-0.3-0.9-0.6-1.5-1l-8-3.9
		c-1-0.5-1.6-1-2-1.5s-0.6-1.2-0.6-2c0-0.9,0.3-1.7,1-2.5c0.7-0.8,1.6-1.4,2.8-1.9c1.2-0.5,2.4-0.7,3.8-0.7c1.1,0,2.2,0.2,3.3,0.7
		c1.1,0.5,2,1.2,2.7,2l-1.7,1.6l-0.6-0.6l1.1-1.1c-0.7-0.5-1.4-1-2.3-1.3c-0.8-0.3-1.7-0.5-2.6-0.5c-1.2,0-2.2,0.2-3.2,0.5
		s-1.6,0.7-2.1,1.2c-0.5,0.5-0.8,0.9-0.8,1.3c0,0.4,0.2,0.7,0.5,0.9s0.6,0.5,1,0.7c0.4,0.2,0.6,0.3,0.7,0.4l6.8,3.3
		C198.1,218.2,198.7,218.6,199.2,218.9z"/>
	<path id="XMLID_58_" d="M228.9,223.1l1.7,1.6c-0.9,0.8-1.9,1.5-3,1.9c-1.1,0.5-2.3,0.7-3.6,0.7c-1.7,0-3.3-0.4-4.8-1.2
		c-1.5-0.8-2.6-2-3.5-3.4s-1.3-2.9-1.3-4.6c0-1.7,0.4-3.2,1.3-4.6s2-2.5,3.5-3.4c1.5-0.8,3-1.2,4.8-1.2c1.3,0,2.5,0.2,3.6,0.7
		c1.1,0.5,2.1,1.1,3,1.9l-1.7,1.6l-0.6-0.6l1-1c-0.7-0.6-1.6-1-2.5-1.3s-1.8-0.5-2.8-0.5c-1.1,0-2.1,0.2-3.1,0.5s-1.8,0.9-2.6,1.6
		c-0.1,0.1-0.2,0.2-0.2,0.4V224c0,0.1,0.1,0.3,0.2,0.4c0.8,0.7,1.6,1.2,2.6,1.6c1,0.4,2,0.5,3.1,0.5c1,0,1.9-0.2,2.9-0.5
		c0.9-0.3,1.7-0.7,2.5-1.3l-1-1L228.9,223.1z"/>
	<path id="XMLID_60_" d="M240.2,218.3v7.8h1.5v0.9h-4.6h-1.5v-0.9h1.5v-8.1l-4.7-8.1h-1.6v-0.9h6v0.9h-1.3l4.4,7.4l4.1-7.4h-1.3
		v-0.9h3.7v0.9h-1.5L240.2,218.3z"/>
	<path id="XMLID_62_" d="M262,223.1l1.7,1.6c-0.9,0.8-1.9,1.5-3,1.9c-1.1,0.5-2.3,0.7-3.6,0.7c-1.7,0-3.3-0.4-4.8-1.2
		c-1.5-0.8-2.6-2-3.5-3.4s-1.3-2.9-1.3-4.6c0-1.7,0.4-3.2,1.3-4.6s2-2.5,3.5-3.4c1.5-0.8,3-1.2,4.8-1.2c1.3,0,2.5,0.2,3.6,0.7
		c1.1,0.5,2.1,1.1,3,1.9l-1.7,1.6l-0.6-0.6l1-1c-0.7-0.6-1.6-1-2.5-1.3s-1.8-0.5-2.8-0.5c-1.1,0-2.1,0.2-3.1,0.5s-1.8,0.9-2.6,1.6
		c-0.1,0.1-0.2,0.2-0.2,0.4V224c0,0.1,0.1,0.3,0.2,0.4c0.8,0.7,1.6,1.2,2.6,1.6c1,0.4,2,0.5,3.1,0.5c1,0,1.9-0.2,2.9-0.5
		c0.9-0.3,1.7-0.7,2.5-1.3l-1-1L262,223.1z"/>
	<path id="XMLID_64_" d="M266.4,226.1h1.5V210h-1.5v-0.9h6.5v0.9H271v16.1h8.5v-2.7h0.9v3.5h-13.9V226.1z"/>
	<path id="XMLID_66_" d="M282.9,227v-0.8h1.8v-16.3h-1.8v-0.8h6.6v0.8h-1.8v16.3h1.8v0.8H282.9z"/>
	<path id="XMLID_68_" d="M310.5,209.1v0.9H309v17.1h-0.1l-13.2-13v12h1.5v0.9h-3.9v-0.9h1.5V210h-1.5v-0.9h2.4l12.4,12.3h0V210h-1.5
		v-0.9H310.5z"/>
	<path id="XMLID_70_" d="M330.8,223.3c-0.9,1.3-2,2.3-3.4,3c-1.4,0.7-2.9,1.1-4.5,1.1c-1.7,0-3.3-0.4-4.8-1.2
		c-1.5-0.8-2.6-2-3.5-3.4s-1.3-2.9-1.3-4.6c0-1.7,0.4-3.2,1.3-4.6s2-2.5,3.5-3.4c1.5-0.8,3-1.2,4.8-1.2c1.1,0,2.2,0.2,3.2,0.5
		c1,0.4,2,0.9,2.8,1.6l-2,1.9l-0.6-0.6l1.2-1.2c-1.4-0.9-3-1.4-4.7-1.4c-1.1,0-2.1,0.2-3.1,0.5s-1.8,0.9-2.6,1.6
		c-0.1,0.1-0.2,0.2-0.2,0.4V224c0,0.1,0.1,0.3,0.2,0.4c0.8,0.7,1.6,1.2,2.6,1.6c1,0.4,2,0.5,3.1,0.5s2.1-0.2,3.1-0.5
		c1-0.4,1.8-0.9,2.6-1.6c0.1-0.1,0.2-0.2,0.2-0.4v-4.1h-2.3v-0.8h5.8C332.2,220.6,331.7,222,330.8,223.3z"/>
	<path id="XMLID_72_" d="M357.6,209.8c0.8,0.5,1.4,1.1,1.9,1.9c0.5,0.8,0.7,1.7,0.7,2.6c0,1-0.2,1.8-0.7,2.6
		c-0.5,0.8-1.1,1.4-1.9,1.9c-0.8,0.5-1.7,0.7-2.6,0.7h-4.7v6.5h1.8v0.9h-6.6v-0.9h1.8V210h-1.5v-0.9h9.3
		C356,209.1,356.8,209.4,357.6,209.8z M355,218.8c0.7,0,1.4-0.2,2.1-0.5c0.2-0.1,0.4-0.3,0.5-0.5s0.2-0.4,0.2-0.7v-4.6v-0.8
		c0-0.3-0.1-0.5-0.2-0.7c-0.1-0.2-0.3-0.4-0.5-0.5c-0.5-0.3-1.2-0.4-2-0.4h-4.7v8.8H355z"/>
	<path id="XMLID_75_" d="M378.5,226.1v0.9h-6v-0.9h1.2l-1.9-5.3h-6.7l-1.5,5.3h1.2v0.9h-2.3h-1.4v-0.9h1.6l4.6-16.2h-1.6v-0.9h5.2
		l6,17H378.5z M371.6,220l-3.4-9.8l-2.8,9.8H371.6z"/>
	<path id="XMLID_78_" d="M395,213V210l-6.3,0v16.1h1.5v0.9h-6.1v-0.9h1.5V210l-6.3,0v3.1h-0.9v-3.9h17.3v3.9H395z"/>
	<path id="XMLID_80_" d="M399.3,227v-0.9h1.8V210h-1.8v-0.9h6.8v0.9h-1.9v7.7h9V210h-1.9v-0.9h6.8v0.9h-1.8v16.1h1.8v0.9h-6.8v-0.9
		h1.9v-7.7h-9v7.7h1.9v0.9H399.3z"/>
	<path id="XMLID_82_" d="M433.8,218.9c0.5,0.3,0.9,0.8,1.2,1.3s0.5,1.2,0.5,2c0,1.1-0.3,2-1,2.8s-1.5,1.4-2.6,1.8
		c-1.1,0.4-2.3,0.6-3.7,0.6c-3.3,0-5.8-1.5-7.5-4.6l1.8-1.7l0.7,0.5l-1.3,1.3c0.8,1.2,1.6,2.1,2.6,2.7c1,0.6,2.2,0.9,3.6,0.9
		c1,0,2-0.1,2.9-0.4c0.9-0.3,1.7-0.6,2.3-1.1c0.6-0.5,0.9-1,0.9-1.7c0-0.4-0.2-0.7-0.5-1.1c-0.4-0.3-0.9-0.6-1.5-1l-8-3.9
		c-1-0.5-1.6-1-2-1.5c-0.4-0.5-0.6-1.2-0.6-2c0-0.9,0.3-1.7,1-2.5c0.7-0.8,1.6-1.4,2.8-1.9c1.2-0.5,2.4-0.7,3.8-0.7
		c1.1,0,2.2,0.2,3.3,0.7c1.1,0.5,2,1.2,2.7,2l-1.7,1.6l-0.6-0.6l1.1-1.1c-0.7-0.5-1.4-1-2.3-1.3c-0.8-0.3-1.7-0.5-2.6-0.5
		c-1.2,0-2.2,0.2-3.2,0.5s-1.6,0.7-2.1,1.2c-0.5,0.5-0.8,0.9-0.8,1.3c0,0.4,0.2,0.7,0.5,0.9c0.3,0.2,0.6,0.5,1,0.7
		c0.4,0.2,0.6,0.3,0.7,0.4l6.8,3.3C432.7,218.2,433.3,218.6,433.8,218.9z"/>
</g>
<g id="XMLID_9_">
	<rect id="XMLID_33_" x="15.7" y="81.9" fill="#DA151C" width="422.4" height="3"/>
</g>
<g id="XMLID_8_">
	<rect x="172.7" y="65.1" fill="#FFFFFF" width="100.6" height="39.3"/>
</g>
<g id="XMLID_7_">
	<polygon fill="#DA151C" points="214.4,80.4 226.3,91.7 230.5,87.6 218.7,76.3 	"/>
</g>
<g id="XMLID_6_">
	<polygon fill="#DA151C" points="240.3,80.4 252.2,91.7 256.4,87.6 244.6,76.3 	"/>
</g>
<g id="XMLID_5_">
	<polygon fill="#DA151C" points="188.5,80.4 200.4,91.7 204.6,87.6 192.8,76.3 	"/>
</g>
<g id="XMLID_4_">
	<polygon fill="#DA151C" points="226.3,76.6 214.4,87.8 218.7,91.9 230.5,80.6 	"/>
</g>
<g id="XMLID_3_">
	<polygon fill="#DA151C" points="252.1,76.6 240.3,87.8 244.6,91.9 256.4,80.6 	"/>
</g>
<g id="XMLID_2_">
	<polygon fill="#DA151C" points="200.4,76.6 188.5,87.8 192.8,91.9 204.6,80.6 	"/>
</g>
</svg>
