<svg enable-background="new 0 0 183.3 116.8" viewBox="0 0 183.3 116.8" xmlns="http://www.w3.org/2000/svg" xmlns:xlink="http://www.w3.org/1999/xlink"><clipPath id="a"><path d="m-2.1 8.7h185.4v92.5h-185.4z"/></clipPath><g fill="none" stroke="#ae3628" stroke-miterlimit="10" stroke-width="4"><path clip-path="url(#a)" d="m21.9 29.2-19.3-15.4v30.8c0 2.2 1.3 16.9 19.9 16.9 18.5 0 18.5-14.3 18.5-17.2v-30.5l-38.7 30.3"/><path clip-path="url(#a)" d="m90.8 29.2-19.4-15.4v30.8c0 2.2 1.3 16.9 19.9 16.9 18.5 0 18.5-14.3 18.5-17.2v-30.5l-38.6 30.3"/><path clip-path="url(#a)" d="m159.5 29.2-19.3-15.4v30.8c0 2.2 1.3 16.9 19.9 16.9 18.5 0 18.5-14.3 18.5-17.2v-30.5l-38.7 30.3"/><path clip-path="url(#a)" d="m21.8 99.8v-38.6"/><path clip-path="url(#a)" d="m90.6 99.8v-38.6"/><path clip-path="url(#a)" d="m159.4 99.8v-38.6"/><path clip-path="url(#a)" d="m0 73.8c20 3.7 20.8 25.3 20.8 25.3s-22.1 2.3-20.8-25.3z"/><path clip-path="url(#a)" d="m68.9 73.8c20 3.7 20.8 25.3 20.8 25.3s-22.2 2.3-20.8-25.3z"/><path clip-path="url(#a)" d="m137.6 73.8c20 3.7 20.8 25.3 20.8 25.3s-22.1 2.3-20.8-25.3z"/><path clip-path="url(#a)" d="m43.7 73.8c-20 3.7-20.8 25.3-20.8 25.3s22.1 2.3 20.8-25.3z"/><path clip-path="url(#a)" d="m112.6 73.8c-20 3.7-20.8 25.3-20.8 25.3s22.1 2.3 20.8-25.3z"/><path clip-path="url(#a)" d="m181.3 73.8c-20 3.7-20.8 25.3-20.8 25.3s22.1 2.3 20.8-25.3z"/><path clip-path="url(#a)" d="m11.7 21.1 10.4-9.7 9.9 9.1"/><path clip-path="url(#a)" d="m80.6 21.1 10.4-9.7 9.9 9.1"/><path clip-path="url(#a)" d="m149.3 21.1 10.4-9.7 9.9 9.1"/></g></svg>