<svg height="208" viewBox="0 0 479 208" width="479" xmlns="http://www.w3.org/2000/svg" xmlns:xlink="http://www.w3.org/1999/xlink"><mask id="a" fill="#fff"><path d="m.65715684.00148065h69.82617986v90.48239035h-69.82617986z" fill="#fff" fill-rule="evenodd"/></mask><mask id="b" fill="#fff"><path d="m.5116482.19304034h105.3830348v69.58640486h-105.3830348z" fill="#fff" fill-rule="evenodd"/></mask><g fill="none" fill-rule="evenodd"><g fill="#006cc6"><path d="m41.676615 0-41.676615 96h15.5554716l11.2188641-27.1874551 12.6905932 15.0210566h5.5693237l17.8015363-22.0139007 13.3094069 34.1802992h14.8548042l-19.8085883-46.6080049 18.6708223-25.0624851-5.8820048-13.5140206-18.5153003 25.0591982-15.4752551-35.8746876zm-10.4232464 56.6412161 14.316207-34.49584 11.0125929 26.9770945-14.5372119 19.4747835z"/><path d="m115 0v96h13.830759v-61.4181651l30.852094 49.2401005 3.317147-17.653194-39.652889-66.1687414z"/><path d="m162.307435 66.1717974-3.307435 17.6513855h6.613234l30.610151-49.2350561v61.4118732h13.776615v-95.99016545l-8.314434-.00983455z"/><path d="m237 0v96h66v-14.346806h-52.744933v-81.653194z"/></g><g fill="#192240" transform="translate(25 106)"><path d="m47.3757165 28.1194258v-12.0902903s-11.2699784-9.14216131-31.7995971-4.172129c0 0-15.35107911 3.3133548-15.35107911 19.2697741 0 15.9547742 15.16980571 18.5936129 15.16980571 18.5936129l16.5677339 4.1129033s5.9705899 1.2272903 5.9705899 7.548-7.5154964 8.5630645-7.5154964 8.5630645-7.0435324 2.3591613-17.216072-.0329032c-10.17417262-2.3937097-12.48826615-5.1542904-12.48826615-5.1542904v12.1495162s6.33476979 4.2346451 18.76261155 5.0934193c6.1420647.4260968 11.333669-.500129 15.0113956-1.5448064 5.2161008-1.479 9.9145108-4.59 12.8442806-9.1832903 1.5579712-2.4397742 2.794223-5.5047097 2.9069065-9.1553226.3102878-9.9614516-5.2993885-14.6666129-5.2993885-14.6666129s-5.7223597-4.9716775-14.9852662-6.0739355c-6.0604101-.7222258-10.425669-2.2686774-12.7560935-3.3890323-2.6995036-1.2980322-4.5661295-3.9697742-4.6053237-6.9820645 0-.041129 0-.0822581 0-.1233871 0-4.1737742 3.2155611-6.4819355 3.2155611-6.4819355s3.4245971-3.0303871 12.013036-2.479258c8.5900719.5527742 13.6461295 2.1485806 19.5546618 6.1989677"/><path d="m185.805216 28.1194258v-12.0902903s-11.269979-9.14216131-31.799597-4.172129c0 0-15.351079 3.3133548-15.351079 19.2697741 0 15.9547742 15.169805 18.5936129 15.169805 18.5936129l16.569367 4.1129033s5.968957 1.2272903 5.968957 7.548-7.515496 8.5630645-7.515496 8.5630645-7.043533 2.3591613-17.217705-.0329032c-10.17254-2.3937097-12.488267-5.1542904-12.488267-5.1542904v12.1495162s6.336403 4.2346451 18.764245 5.0934193c6.142065.4260968 11.332036-.500129 15.011396-1.5448064 5.2161-1.479 9.914511-4.59 12.84428-9.1832903 1.557972-2.4397742 2.794223-5.5047097 2.906907-9.1553226.310288-9.9614516-5.299389-14.6666129-5.299389-14.6666129s-5.722359-4.9716775-14.985266-6.0739355c-6.062043-.7222258-10.425669-2.2686774-12.757727-3.3890323-2.699503-1.2980322-4.566129-3.9697742-4.60369-6.9820645 0-.041129-.001633-.0822581-.001633-.1233871 0-4.1737742 3.217194-6.4819355 3.217194-6.4819355s3.422964-3.0303871 12.013036-2.479258c8.590072.5527742 13.644496 2.1485806 19.554662 6.1989677"/><path d="m.65715684.00148065 29.25360436 63.53119355-13.0843454 26.9526774h12.6434101l41.0135108-90.48387095h-13.5546763l-20.7484532 50.45874195-20.9133957-50.45874195z" mask="url(#a)" transform="translate(60.42446 11.516129)"/><path d="m237.362468 70.7922774c-12.316791-.2994193-11.387561-12.1412903-11.387561-12.1412903v-35.3232581l22.964561-.1052903v-11.6477419l-22.964561.1052903v-10.58496775l-6.721813-.10529032-15.571547 15.68661287v6.5460968h8.738684v35.6736774c0 9.4317097 5.781151 16.2081291 5.781151 16.2081291s3.06205 4.774258 12.485 6.5296451c9.424583 1.7520968 18.308612-1.8754838 18.308612-1.8754838v-11.4898065c-5.269993 2.8000645-11.632526 2.5236774-11.632526 2.5236774"/><path d="m105.895173 69.7794452s-.04246-14.9907097-.04246-33.3309678c0-18.3386129-.857374-21.1830968-3.375604-25.9112903-2.5182306-4.72819355-8.1866982-9.61267742-20.0952162-10.30364516-11.9068849-.69261291-21.3673957 7.72732258-21.3673957 7.72732258l-4.296669 3.65554838c-.1763741-.3553548-.3592806-.7107097-.5552518-1.0792258-2.5182303-4.72819355-8.188331-9.61267742-20.096849-10.30364516-11.9068849-.69261291-21.3673956 7.72732258-21.3673956 7.72732258l-1.5204101 1.29309677v-1.64022581-6.44574193h-12.6662734v68.61145165h12.6662734v-48.8481291l.383777-.2204516c4.7278057-2.7803226 9.2514748-5.896258 11.4937122-6.8784193 2.4153453-1.0561936 4.9858345-1.7553871 7.6183813-1.7932258 13.8078057-.1990646 14.2405755 15.4513548 14.2405755 15.4513548v42.288871h12.6662734s-.0424604-14.9907097-.0424604-33.3309678c0-7.079129-.1306475-11.8352903-.4311367-15.2967097l.769187-.4409032c4.7294389-2.7803226 9.2514749-5.896258 11.4937123-6.8784193 2.4153453-1.0561936 4.9858345-1.7553871 7.6183813-1.7932258 13.8078057-.1990646 14.2405755 15.4513548 14.2405755 15.4513548v42.288871z" mask="url(#b)" transform="translate(347.848921 10.870968)"/><path d="m276.622037 39.3109645s1.007618-17.3663226 19.922108-17.3663226c18.914489 0 19.182316 17.3663226 19.182316 17.3663226zm52.348813 10.0930645c.4491-4.3020967.356014-8.6535484-.440936-12.9046451-1.210122-6.4391613-3.765913-12.342-8.590072-17.2955807-7.015769-7.2058064-15.780582-9.72125804-25.525251-9.1487419-9.999432.5856774-18.282482 4.7166774-24.261238 12.9359032-6.471949 8.8953871-7.925403 19.0262903-6.41969 29.672129 1.330971 9.3971613 5.500259 17.4189678 13.670625 22.389 15.223698 9.2573226 31.036943 8.874 46.908979 1.539871l1.290144-.7255161.008165-.3240968v-10.6260968s-11.248748 8.883871-30.321647 5.619871c-19.076166-3.2623548-19.014108-20.7635806-19.014108-20.7635806h52.654201c.014698-.1233871.027763-.2467742.040828-.3685162z"/></g></g></svg>